<?xml version="1.0" standalone="no"?>
<!DOCTYPE svg PUBLIC "-//W3C//DTD SVG 1.1//EN" "http://www.w3.org/Graphics/SVG/1.1/DTD/svg11.dtd" >
<svg xmlns="http://www.w3.org/2000/svg" xmlns:xlink="http://www.w3.org/1999/xlink" version="1.1">
<metadata>
Created by FontForge 20201107 at Sat Feb 22 14:31:22 2025
 By 
Copyright (c) 2019 by Folch Studio. All rights reserved.
</metadata>
<defs>
<font id="AcidGrotesk-Normal" horiz-adv-x="1146" >
  <font-face 
    font-family="Acid Grotesk Normal"
    font-weight="400"
    font-stretch="normal"
    units-per-em="2048"
    panose-1="0 0 5 0 0 0 0 0 0 0"
    ascent="1638"
    descent="-410"
    x-height="1126"
    cap-height="1434"
    bbox="-102 -627 4129 1884"
    underline-thickness="102"
    underline-position="-204"
    unicode-range="U+0020-FB02"
  />
<missing-glyph horiz-adv-x="1024" 
d="M840 1638v-2048h-650v2048h650zM682 1501h-338v-67h133v-76h-135v-68h340v68h-135v76h135v67zM547 1237h-205v-213h340v70h-135v143zM477 1167v-73h-67v73h67zM682 969h-340v-68h135v-76h-135v-67h205v143h135v68zM682 846h-68v-135h-272v-70h340v205zM682 596h-205v-115
h70v47h67v-96h-204v164h-68v-231h340v231zM682 242h-340v-232h340v232zM614 174v-96h-204v96h204zM682 -37h-340v-67h143l-143 -97v-67h340v67h-209l143 97h66v67z" />
    <glyph glyph-name="fi" unicode="fi" horiz-adv-x="1009" 
d="M483 1495q-190 0 -190 -242v-127h475q34 0 56 -21.5t22 -55.5v-1049h-123v1022h-430v-1022h-123v1022h-164v104h164v131q0 161 80.5 251.5t228.5 90.5h387v-104h-383z" />
    <glyph glyph-name="fl" unicode="fl" horiz-adv-x="1060" 
d="M170 1257q0 161 80.5 251.5t228.5 90.5h183v-104h-179q-190 0 -190 -242v-127h287v-104h-287v-1022h-123v1022h-164v104h164v131zM795 1599h123v-1599h-123v1599z" />
    <glyph glyph-name="f_f" unicode="ff" horiz-adv-x="1204" 
d="M1026 1495q-190 0 -190 -242v-127h286v-104h-286v-1022h-123v1022h-420v-1022h-123v1022h-164v104h164v131q0 161 80.5 251.5t228.5 90.5h183v-104h-179q-190 0 -190 -242v-127h420v131q0 161 80.5 251.5t228.5 90.5h182v-104h-178z" />
    <glyph glyph-name=".notdef" horiz-adv-x="1024" 
d="M840 1638v-2048h-650v2048h650zM682 1501h-338v-67h133v-76h-135v-68h340v68h-135v76h135v67zM547 1237h-205v-213h340v70h-135v143zM477 1167v-73h-67v73h67zM682 969h-340v-68h135v-76h-135v-67h205v143h135v68zM682 846h-68v-135h-272v-70h340v205zM682 596h-205v-115
h70v47h67v-96h-204v164h-68v-231h340v231zM682 242h-340v-232h340v232zM614 174v-96h-204v96h204zM682 -37h-340v-67h143l-143 -97v-67h340v67h-209l143 97h66v67z" />
    <glyph glyph-name=".null" horiz-adv-x="0" 
 />
    <glyph glyph-name="nonmarkingreturn" horiz-adv-x="682" 
 />
    <glyph glyph-name="space" unicode=" " horiz-adv-x="512" 
 />
    <glyph glyph-name="exclam" unicode="!" horiz-adv-x="491" 
d="M201 287l-21 839v308h133v-308l-20 -839h-92zM174 0v143h143v-143h-143z" />
    <glyph glyph-name="quotedbl" unicode="&#x22;" horiz-adv-x="655" 
d="M139 1434h113l-6 -588h-103zM406 1434h112l-6 -588h-102z" />
    <glyph glyph-name="numbersign" unicode="#" horiz-adv-x="1417" 
d="M1356 940h-271l-116 -444h248v-97h-273l-104 -399h-115l104 399h-407l-105 -399h-114l104 399h-246v97h271l117 444h-248v96h272l105 398h114l-104 -398h407l105 398h114l-104 -398h246v-96zM854 496l117 444h-408l-117 -444h408z" />
    <glyph glyph-name="dollar" unicode="$" horiz-adv-x="1257" 
d="M1184 414q0 -169 -139 -296t-369 -136l4 -179h-111l6 183q-223 22 -359.5 162.5t-141.5 347.5h131q6 -178 128 -290t316 -112q179 0 290.5 94t111.5 226q0 140 -90 205t-308 65h-121q-189 0 -310.5 94t-121.5 256q0 82 32 155.5t91 131.5t150 94t202 41l-6 182h111
l-4 -184q216 -20 342.5 -151t138.5 -334h-131q-12 173 -119.5 275t-296.5 102q-177 0 -277 -86.5t-100 -225.5q0 -120 87.5 -177.5t281.5 -57.5h96q238 0 362 -101t124 -284z" />
    <glyph glyph-name="percent" unicode="%" horiz-adv-x="1816" 
d="M465 725q-143 0 -237.5 98.5t-94.5 266.5q0 171 94 268.5t238 97.5q145 0 239.5 -97.5t94.5 -268.5q0 -168 -95 -266.5t-239 -98.5zM1470 1434h-124l-1000 -1434h125zM465 819q98 2 160.5 72t62.5 199t-62.5 199.5t-160.5 72.5q-96 2 -158.5 -70.5t-62.5 -201.5
t62.5 -201t158.5 -70zM1350 -23q-143 0 -237.5 99.5t-94.5 267.5q0 170 94.5 268.5t237.5 98.5q144 0 238.5 -98.5t94.5 -268.5q0 -169 -94.5 -268t-238.5 -99zM1350 74q100 2 161.5 69t61.5 201q0 132 -62.5 201t-160.5 71q-96 2 -160 -70.5t-64 -201.5t64 -200.5
t160 -69.5z" />
    <glyph glyph-name="ampersand" unicode="&#x26;" horiz-adv-x="1349" 
d="M1298 0h-159l-156 160q-170 -185 -438 -185q-111 0 -202 31.5t-149.5 86t-90 125t-31.5 149.5q0 80 29 147.5t78.5 113.5t107 75.5t121.5 44.5q-100 105 -148.5 191.5t-48.5 178.5q0 145 104.5 241t280.5 97q178 1 286.5 -97t108.5 -247q0 -152 -112 -259t-289 -132
l379 -385q92 164 104 420l117 -2q-15 -305 -139 -502zM596 1346q-115 0 -183.5 -65.5t-68.5 -166.5q0 -83 43 -156.5t137 -169.5q151 20 242.5 109.5t91.5 210.5q0 108 -74.5 173t-187.5 65zM545 86q219 0 356 156l-428 438q-117 -27 -192.5 -105.5t-75.5 -199.5
q0 -125 90 -207t250 -82z" />
    <glyph glyph-name="quotesingle" unicode="'" horiz-adv-x="389" 
d="M139 1434h113l-6 -588h-103z" />
    <glyph glyph-name="parenleft" unicode="(" horiz-adv-x="600" 
d="M82 717q0 354 113.5 628.5t298.5 436.5h102q-82 -80 -149.5 -182t-124 -233t-88 -298t-31.5 -352q0 -186 31.5 -354t88 -299t124.5 -233t149 -179h-102q-185 162 -298.5 436.5t-113.5 628.5z" />
    <glyph glyph-name="parenright" unicode=")" horiz-adv-x="600" 
d="M518 717q0 -354 -113.5 -628.5t-298.5 -436.5h-100q81 80 148.5 182t124 233t88.5 298t32 352q0 187 -31.5 355t-88 299t-124.5 232.5t-149 178.5h100q185 -162 298.5 -436.5t113.5 -628.5z" />
    <glyph glyph-name="asterisk" unicode="*" horiz-adv-x="880" 
d="M831 1182l-333 -74l227 -256l-111 -80l-174 295l-174 -295l-108 80l227 258l-336 74l43 127l314 -137l-31 342h133l-33 -345l316 140z" />
    <glyph glyph-name="plus" unicode="+" horiz-adv-x="1228" 
d="M1151 637v-117h-467v-469h-113v469h-469v117h469v463h113v-463h467z" />
    <glyph glyph-name="comma" unicode="," horiz-adv-x="495" 
d="M129 -213v59q65 1 98 37t33 97v20h-80v154h144v-170q0 -81 -50.5 -137.5t-144.5 -59.5z" />
    <glyph glyph-name="hyphen" unicode="-" horiz-adv-x="860" 
d="M102 524v105h656v-105h-656z" />
    <glyph glyph-name="period" unicode="." horiz-adv-x="468" 
d="M162 0v154h143v-154h-143z" />
    <glyph glyph-name="slash" unicode="/" horiz-adv-x="618" 
d="M76 -348h-113l580 2130h112z" />
    <glyph glyph-name="zero" unicode="0" horiz-adv-x="1261" 
d="M631 -23q-261 0 -402 192.5t-141 547.5t141 547t402 192t402 -192t141 -547t-141 -547.5t-402 -192.5zM631 86q198 2 305.5 162.5t107.5 468.5q0 311 -107.5 470.5t-305.5 162.5q-197 3 -304.5 -158.5t-107.5 -474.5q0 -309 107.5 -471t304.5 -160z" />
    <glyph glyph-name="one" unicode="1" horiz-adv-x="649" 
d="M500 1434v-1434h-123v1126h-2q-8 -64 -68.5 -104.5t-156.5 -40.5h-109v106h109q112 0 169.5 59t57.5 191v97h123z" />
    <glyph glyph-name="two" unicode="2" horiz-adv-x="1095" 
d="M190 106h848v-106h-987v45q0 187 103 319t352 257q111 56 185.5 109t114 104.5t55.5 98.5t16 103q0 142 -84.5 228t-241.5 86q-155 0 -247.5 -91.5t-92.5 -261.5h-127q0 214 130 336.5t337 122.5q205 0 330 -113.5t125 -306.5q0 -147 -94 -262.5t-318 -228.5
q-213 -101 -303 -202.5t-101 -236.5z" />
    <glyph glyph-name="three" unicode="3" horiz-adv-x="1187" 
d="M762 772q164 -32 251 -129.5t87 -239.5q0 -131 -68.5 -229t-183 -147.5t-258.5 -49.5q-222 0 -362 124.5t-140 342.5h123q0 -162 106.5 -261t270.5 -97q175 2 279 87t104 230q0 148 -107.5 229t-273.5 83h-182v108h151q154 2 252 68.5t98 189.5q0 127 -89 197t-230 72
q-139 2 -228.5 -77t-89.5 -222h-122q0 191 119 298t319 107q205 0 327.5 -101.5t122.5 -273.5q0 -110 -73.5 -193t-202.5 -116z" />
    <glyph glyph-name="four" unicode="4" horiz-adv-x="1093" 
d="M1063 428v-106h-184v-322h-123v322h-717v96l688 1016h152v-1006h184zM178 428h578v854z" />
    <glyph glyph-name="five" unicode="5" horiz-adv-x="1193" 
d="M625 950q102 0 193 -35t158.5 -97t106.5 -153t39 -198q0 -146 -70.5 -258.5t-189.5 -172t-266 -59.5q-207 0 -340 115.5t-160 308.5l123 -2q17 -144 123.5 -230.5t259.5 -84.5q171 2 281 109t110 276q0 168 -110.5 270.5t-278.5 104.5q-141 3 -241 -60t-140 -159h-119
l117 809h826v-107h-715l-92 -571q56 91 157 142.5t228 51.5z" />
    <glyph glyph-name="six" unicode="6" horiz-adv-x="1232" 
d="M672 950q132 0 243 -59.5t178.5 -172.5t67.5 -255q0 -145 -69.5 -256.5t-187.5 -170.5t-265 -59q-259 0 -405 190.5t-146 549.5t148.5 549t408.5 190q213 0 347 -126t134 -316h-122q0 147 -100 241.5t-259 94.5q-192 0 -309 -161.5t-117 -471.5q0 -80 4 -121
q36 164 159.5 259t289.5 95zM645 86q164 2 275.5 107.5t111.5 271.5q0 170 -110 273.5t-275 105.5q-166 2 -278.5 -103.5t-112.5 -275.5q0 -166 112.5 -273.5t276.5 -105.5z" />
    <glyph glyph-name="seven" unicode="7" horiz-adv-x="972" 
d="M27 1434h921v-95q-134 -126 -240 -291t-171.5 -341t-99.5 -356t-34 -351h-135q0 356 149 733.5t384 593.5h-774v107z" />
    <glyph glyph-name="eight" unicode="8" horiz-adv-x="1175" 
d="M770 762q152 -37 234.5 -132t82.5 -235q0 -129 -68 -225.5t-182 -144.5t-257 -48t-257 48t-182.5 144.5t-68.5 225.5q0 140 82.5 235t234.5 132q-131 35 -198.5 118t-67.5 203q0 173 130 273t327 100t326.5 -100t129.5 -273q0 -120 -67.5 -203t-198.5 -118zM254 1083
q0 -129 91.5 -199.5t234.5 -70.5q144 0 235.5 70.5t91.5 199.5q0 125 -92 196t-235 71q-142 0 -234 -71t-92 -196zM580 86q166 0 272 81t106 228q0 150 -106 232t-272 82q-165 0 -271 -82t-106 -232q0 -147 106 -228t271 -81z" />
    <glyph glyph-name="nine" unicode="9" horiz-adv-x="1228" 
d="M596 1456q259 0 404 -189.5t145 -549.5q0 -358 -148.5 -549t-408.5 -191q-212 0 -347 127t-135 316h123q0 -146 100.5 -240t258.5 -94q193 0 310.5 160.5t117.5 470.5q0 80 -4 123q-36 -166 -160.5 -261.5t-290.5 -95.5q-132 0 -243 60t-178.5 172.5t-67.5 255.5
q0 145 70 256.5t188.5 170t265.5 58.5zM586 590q166 -2 278.5 103.5t112.5 275.5q0 168 -111.5 275.5t-275.5 105.5t-275.5 -108t-111.5 -273q0 -169 109.5 -273t273.5 -106z" />
    <glyph glyph-name="colon" unicode=":" horiz-adv-x="466" 
d="M162 932v153h143v-153h-143zM162 0v154h143v-154h-143z" />
    <glyph glyph-name="semicolon" unicode=";" horiz-adv-x="475" 
d="M170 932v153h143v-153h-143zM119 -213v59q65 1 98 37t33 97v20h-80v154h143v-170q0 -82 -50 -138t-144 -59z" />
    <glyph glyph-name="less" unicode="&#x3c;" horiz-adv-x="1241" 
d="M1151 1102v-121l-930 -397l930 -398v-123l-1049 457v125z" />
    <glyph glyph-name="equal" unicode="=" horiz-adv-x="1191" 
d="M174 815v107h844v-107h-844zM174 403v107h844v-107h-844z" />
    <glyph glyph-name="greater" unicode="&#x3e;" horiz-adv-x="1241" 
d="M102 1102l1049 -457v-125l-1049 -457v123l932 398l-932 397v121z" />
    <glyph glyph-name="question" unicode="?" horiz-adv-x="1185" 
d="M459 287v127q0 100 41 153t155 105l29 12q270 117 270 352q0 147 -95.5 234.5t-258.5 87.5q-165 0 -274 -98.5t-115 -264.5h-129q6 211 151.5 339t366.5 128q226 0 354.5 -121.5t128.5 -304.5q0 -288 -356 -444l-29 -12q-72 -32 -94 -70.5t-22 -112.5v-110h-123zM449 0
v143h143v-143h-143z" />
    <glyph glyph-name="at" unicode="@" horiz-adv-x="1976" 
d="M1452 92q-81 0 -126.5 37t-45.5 102v66h-4q-45 -104 -129.5 -164.5t-204.5 -60.5q-177 0 -296.5 124t-119.5 341q0 108 33 195.5t90.5 143.5t132.5 86.5t160 30.5q123 0 205.5 -58.5t122.5 -152.5h2v191h123v-703q0 -39 17.5 -56t55.5 -17h297v368q1 157 -36.5 285.5
t-105.5 221t-164.5 155.5t-213.5 93t-254 30q-166 0 -308.5 -52.5t-247.5 -150.5t-164.5 -247.5t-59.5 -334.5q0 -150 38.5 -279t109 -225.5t167 -165.5t215 -104t250.5 -35h897v-104h-897q-198 0 -365.5 64.5t-288 181t-188 288.5t-67.5 379t67.5 375.5t188 281t288 173.5
t365.5 61q270 0 472 -105t313.5 -307t111.5 -479v-473h-436zM969 178q135 2 222 98t87 259q0 151 -88.5 251.5t-220.5 100.5q-135 2 -222.5 -95.5t-87.5 -254.5q0 -160 87.5 -259.5t222.5 -99.5z" />
    <glyph glyph-name="A" unicode="A" horiz-adv-x="1243" 
d="M1083 0l-147 414h-629l-147 -414h-133l524 1434h141l525 -1434h-134zM346 524h551l-274 776z" />
    <glyph glyph-name="B" unicode="B" horiz-adv-x="1300" 
d="M907 766q145 -32 231.5 -124t86.5 -232q0 -125 -64.5 -219.5t-171 -142.5t-237.5 -48h-602v1434h571q109 0 199 -42t146 -128t56 -201q0 -103 -58 -180.5t-157 -116.5zM692 1323h-413v-510h397q140 0 225.5 67t85.5 183q0 115 -82 187.5t-213 72.5zM723 113
q159 0 263 83.5t104 213.5q0 134 -102 213t-271 79h-438v-589h444z" />
    <glyph glyph-name="C" unicode="C" horiz-adv-x="1472" 
d="M762 -23q-307 0 -495.5 203t-188.5 539q0 217 81 383t237 260t366 94q144 0 262 -45t196.5 -124t125.5 -181t59 -221h-135q-7 93 -43.5 175t-99 145.5t-157 100.5t-208.5 37q-252 0 -400.5 -172.5t-148.5 -451.5q0 -142 42.5 -261t116 -199t174.5 -124.5t216 -44.5
q109 0 203 39.5t156 103.5t100.5 138.5t48.5 150.5h135q-15 -110 -64 -207t-128 -173.5t-195.5 -120.5t-255.5 -44z" />
    <glyph glyph-name="D" unicode="D" horiz-adv-x="1415" 
d="M150 0v1434h512q144 0 267 -48t214 -137.5t142.5 -226.5t51.5 -305t-51.5 -305t-142.5 -226.5t-214 -137.5t-267 -48h-512zM279 113h383q113 0 210.5 39t171.5 113.5t116 190.5t42 261q0 147 -42 263.5t-116 190.5t-171 112.5t-211 39.5h-383v-1210z" />
    <glyph glyph-name="E" unicode="E" horiz-adv-x="1157" 
d="M150 0v1434h964v-111h-835v-539h755v-110h-755v-561h837v-113h-966z" />
    <glyph glyph-name="F" unicode="F" horiz-adv-x="1148" 
d="M150 0v1434h962v-111h-833v-549h753v-110h-753v-664h-129z" />
    <glyph glyph-name="G" unicode="G" horiz-adv-x="1515" 
d="M1346 676q32 0 52.5 -20t20.5 -54v-602h-123l31 375q-68 -179 -217 -288.5t-365 -109.5q-293 0 -480 204.5t-187 537.5q0 217 82 383t238.5 260t365.5 94q144 0 263.5 -45t200 -124t128.5 -181.5t59 -220.5h-133q-6 93 -42 174.5t-98.5 145.5t-160 101t-217.5 37
q-253 0 -402 -172.5t-149 -451.5q0 -142 42.5 -261t117 -199t175.5 -124.5t216 -44.5q114 0 210.5 43t159.5 113t102 151.5t50 165.5h-538v113h598z" />
    <glyph glyph-name="H" unicode="H" horiz-adv-x="1363" 
d="M150 0v1434h129v-664h806v664h129v-1434h-129v659h-806v-659h-129z" />
    <glyph glyph-name="I" unicode="I" horiz-adv-x="428" 
d="M150 0v1434h129v-1434h-129z" />
    <glyph glyph-name="J" unicode="J" horiz-adv-x="1091" 
d="M492 -23q-196 0 -323.5 133t-127.5 363h135q0 -183 90 -284t226 -99q137 2 226 101t89 282v961h135v-961q0 -231 -126.5 -363.5t-323.5 -132.5z" />
    <glyph glyph-name="K" unicode="K" horiz-adv-x="1236" 
d="M1059 0l-504 707l-276 -322v-385h-129v1434h129v-881l733 881h170l-545 -631l580 -803h-158z" />
    <glyph glyph-name="L" unicode="L" horiz-adv-x="980" 
d="M279 113h675v-113h-804v1434h129v-1321z" />
    <glyph glyph-name="M" unicode="M" horiz-adv-x="1685" 
d="M1536 1434v-1434h-127v1235l-494 -1235h-143l-493 1235v-1235h-129v1434h174l520 -1305l520 1305h172z" />
    <glyph glyph-name="N" unicode="N" horiz-adv-x="1478" 
d="M1202 1434h127v-1434h-168l-882 1280v-1280h-129v1434h169l883 -1282v1282z" />
    <glyph glyph-name="O" unicode="O" horiz-adv-x="1525" 
d="M764 -23q-145 0 -270 50t-217.5 142t-145.5 233.5t-53 314.5q0 174 53 315t146 233t217.5 141.5t269.5 49.5t269.5 -49.5t217.5 -141.5t146 -233t53 -315q0 -173 -53 -314.5t-145.5 -233.5t-217.5 -142t-270 -50zM764 90q115 1 214 42t174.5 118t119 197t43.5 270
t-43 270t-119 196.5t-175 117t-214 42.5t-214.5 -38.5t-174.5 -117.5t-118.5 -198.5t-43.5 -271.5t43.5 -270.5t118.5 -198t174.5 -118.5t214.5 -40z" />
    <glyph glyph-name="P" unicode="P" horiz-adv-x="1277" 
d="M762 1434q199 0 331 -113.5t132 -304.5q0 -192 -131.5 -303t-331.5 -111h-483v-602h-129v1434h612zM735 715q161 0 258 80.5t97 220.5q0 139 -97.5 223t-257.5 84h-456v-608h456z" />
    <glyph glyph-name="Q" unicode="Q" horiz-adv-x="1566" 
d="M1341 111h148v-111h-168q-53 0 -90.5 31t-48.5 78q-177 -132 -418 -132q-145 0 -270 50t-217.5 142t-145.5 233.5t-53 314.5q0 174 53 315t146 233t217.5 141.5t269.5 49.5t269.5 -49.5t217.5 -141.5t146 -233t53 -315q0 -183 -57.5 -327t-161.5 -240q39 -39 110 -39z
M213 717q0 -150 43.5 -270.5t118.5 -198t174.5 -118.5t214.5 -40q218 0 364 137q-44 41 -112 41h-154v111h174q52 0 88.5 -30.5t49.5 -76.5q141 167 141 445q0 150 -43 270t-119 196.5t-175 117t-214 42.5t-214.5 -38.5t-174.5 -117.5t-118.5 -198.5t-43.5 -271.5z" />
    <glyph glyph-name="R" unicode="R" horiz-adv-x="1251" 
d="M1128 297l82 -297h-133l-67 250q-59 216 -140.5 299.5t-240.5 83.5h-350v-633h-129v1434h509q233 0 368.5 -113.5t135.5 -288.5q0 -131 -81.5 -221.5t-231.5 -128.5q108 -41 171 -133.5t107 -251.5zM279 1323v-580h358q179 0 286 76t107 215q0 134 -102 211.5t-271 77.5
h-378z" />
    <glyph glyph-name="S" unicode="S" horiz-adv-x="1257" 
d="M649 -18q-253 0 -411.5 144.5t-163.5 369.5h131q6 -178 128 -290t316 -112q179 0 290.5 94t111.5 226q0 140 -90 205t-308 65h-121q-189 0 -310.5 94t-121.5 256q0 177 137 299.5t373 122.5q245 0 389 -134t158 -353h-131q-12 173 -119.5 275t-296.5 102
q-177 0 -277 -86.5t-100 -225.5q0 -120 87.5 -177.5t281.5 -57.5h96q238 0 362 -101t124 -284q0 -83 -37 -160.5t-104 -138t-169.5 -97t-224.5 -36.5z" />
    <glyph glyph-name="T" unicode="T" horiz-adv-x="1114" 
d="M494 0v1323h-484v111h1094v-111h-481v-1323h-129z" />
    <glyph glyph-name="U" unicode="U" horiz-adv-x="1402" 
d="M702 -23q-117 0 -217.5 40t-175 114t-117 187t-42.5 251v865h135v-871q0 -225 118 -350t299 -123q180 2 298 125.5t118 347.5v871h135v-865q0 -138 -42.5 -251t-116.5 -187t-174.5 -114t-217.5 -40z" />
    <glyph glyph-name="V" unicode="V" horiz-adv-x="1232" 
d="M1077 1434h135l-530 -1434h-131l-531 1434h136l460 -1289z" />
    <glyph glyph-name="W" unicode="W" horiz-adv-x="1867" 
d="M1708 1434h139l-430 -1434h-145l-338 1278l-338 -1278h-145l-431 1434h144l358 -1282l334 1282h160l332 -1278z" />
    <glyph glyph-name="X" unicode="X" horiz-adv-x="1140" 
d="M16 0l476 754l-449 680h150l378 -582l377 582h150l-447 -680l473 -754h-145l-408 651l-409 -651h-146z" />
    <glyph glyph-name="Y" unicode="Y" horiz-adv-x="1179" 
d="M1018 1434h141l-504 -840v-594h-131v594l-504 840h144l426 -734z" />
    <glyph glyph-name="Z" unicode="Z" horiz-adv-x="1208" 
d="M211 109h963v-109h-1137v84l917 1243h-872v107h1046v-82z" />
    <glyph glyph-name="bracketleft" unicode="[" horiz-adv-x="598" 
d="M102 -348v2130h492v-107h-371v-1917h371v-106h-492z" />
    <glyph glyph-name="backslash" unicode="\" horiz-adv-x="618" 
d="M543 -348l-580 2130h113l579 -2130h-112z" />
    <glyph glyph-name="bracketright" unicode="]" horiz-adv-x="598" 
d="M496 -348h-492v106h373v1917h-373v107h492v-2130z" />
    <glyph glyph-name="asciicircum" unicode="^" horiz-adv-x="872" 
d="M760 805h-113l-211 516l-211 -516h-112l274 629h98z" />
    <glyph glyph-name="underscore" unicode="_" horiz-adv-x="1024" 
d="M0 -104v104h1024v-104h-1024z" />
    <glyph glyph-name="grave" unicode="`" horiz-adv-x="311" 
d="M190 1249l-149 269h141l88 -269h-80z" />
    <glyph glyph-name="a" unicode="a" horiz-adv-x="1148" 
d="M1077 104h68v-104h-86q-83 0 -130.5 47.5t-47.5 130.5v94q-42 -139 -157 -217t-267 -78q-169 0 -274 93t-105 258q0 159 106.5 250.5t307.5 91.5h137q128 0 183.5 37t55.5 110q0 105 -78.5 165t-209.5 60q-142 0 -231.5 -73t-102.5 -207h-125q14 183 134.5 285t324.5 102
q202 0 309.5 -98t107.5 -263v-591q0 -93 80 -93zM874 524v166h-2q-42 -127 -262 -127h-114q-77 0 -135 -20t-90.5 -54.5t-48 -75t-15.5 -85.5q0 -101 69 -172.5t201 -71.5q77 0 146.5 26.5t126.5 78.5t90.5 138.5t33.5 196.5z" />
    <glyph glyph-name="b" unicode="b" horiz-adv-x="1296" 
d="M266 1006q0 -89 -4 -142h4q54 129 166 207t270 78q108 0 201.5 -38.5t164.5 -110.5t112 -183t41 -248q0 -139 -41 -252.5t-112 -187t-164.5 -113t-201.5 -39.5q-151 0 -263 77t-173 208h-4q4 -47 4 -131v-131h-123v1638h123v-632zM682 86q116 -1 209 59t147 171t54 253
q0 211 -116.5 342t-293.5 131q-182 -2 -300 -128.5t-118 -342.5q0 -221 118.5 -353t299.5 -132z" />
    <glyph glyph-name="c" unicode="c" horiz-adv-x="1200" 
d="M625 -23q-246 0 -397.5 161.5t-151.5 426.5q0 262 147.5 423t401.5 161q114 0 207.5 -35.5t156 -98t99.5 -144t47 -175.5h-129q-11 146 -112.5 246t-268.5 100q-193 0 -305.5 -131.5t-112.5 -345.5q0 -217 118.5 -348t299.5 -131q83 0 153 29.5t116 77.5t74.5 103
t37.5 112h129q-11 -86 -50 -162.5t-101.5 -137t-155.5 -96t-203 -35.5z" />
    <glyph glyph-name="d" unicode="d" horiz-adv-x="1296" 
d="M1030 121q0 90 4 141h-4q-54 -130 -165.5 -207.5t-270.5 -77.5q-108 0 -201.5 39t-164 112t-111.5 185t-41 250t40.5 250.5t111.5 185t164.5 111.5t201.5 39q153 0 265 -77t171 -208h4q-4 49 -4 131v643h123v-1638h-123v121zM616 86q182 0 300 129.5t118 349.5
q0 216 -118.5 345.5t-299.5 131.5q-179 0 -294 -133t-115 -346q0 -214 115.5 -346.5t293.5 -130.5z" />
    <glyph glyph-name="e" unicode="e" horiz-adv-x="1206" 
d="M1130 625v-95h-923q9 -205 120.5 -324.5t286.5 -119.5q136 0 237.5 70.5t143.5 189.5h125q-34 -162 -172.5 -265.5t-333.5 -103.5q-242 0 -390 161t-148 425q0 271 148.5 428.5t389.5 157.5q222 0 369 -149.5t147 -374.5zM614 1042q-173 0 -285.5 -116t-121.5 -289h803
q-11 179 -118.5 292t-277.5 113z" />
    <glyph glyph-name="f" unicode="f" horiz-adv-x="661" 
d="M483 1495q-190 0 -190 -242v-127h287v-104h-287v-1022h-123v1022h-164v104h164v131q0 161 82 251.5t227 90.5h183v-104h-179z" />
    <glyph glyph-name="g" unicode="g" horiz-adv-x="1142" 
d="M1090 1044h-58q-70 0 -104 -20q106 -98 106 -252q0 -169 -130.5 -272t-325.5 -103h-252q-52 0 -83.5 -25.5t-31.5 -66.5q0 -50 46.5 -79t139.5 -29h363q153 0 238 -75.5t85 -197.5q0 -121 -85 -196.5t-238 -75.5h-365q-151 0 -232 68.5t-81 177.5q0 83 46 140.5t134 80.5
q-80 20 -122 67.5t-42 108.5q0 73 56 120t153 48q-87 49 -136.5 128t-49.5 181q0 170 130.5 273.5t326.5 103.5q180 0 307 -88q8 42 43.5 68t87.5 26h74v-111zM578 504q145 2 236 72t91 196q0 127 -90.5 197t-236.5 73q-143 2 -234.5 -70t-91.5 -200q0 -127 92 -199t234 -69
zM760 92h-365q-95 0 -145.5 -45t-50.5 -123q0 -79 51 -123.5t149 -44.5h357q92 0 146 45.5t54 122.5q0 78 -52.5 123t-143.5 45z" />
    <glyph glyph-name="h" unicode="h" horiz-adv-x="1173" 
d="M143 0v1638h123v-594q0 -89 -4 -165h4q22 53 55.5 99t80.5 85.5t112.5 62.5t140.5 23q179 0 282 -118.5t103 -319.5v-711h-122v692q0 169 -77.5 258.5t-209.5 89.5q-72 0 -136.5 -26.5t-116 -76t-82 -128t-30.5 -174.5v-635h-123z" />
    <glyph glyph-name="i" unicode="i" horiz-adv-x="407" 
d="M137 1337v133h133v-133h-133zM143 0v1126h123v-1126h-123z" />
    <glyph glyph-name="j" unicode="j" horiz-adv-x="399" 
d="M127 1337v133h133v-133h-133zM-102 -348v106h47q86 0 136 60t50 168v1140h123v-1132q0 -154 -86.5 -248t-222.5 -94h-47z" />
    <glyph glyph-name="k" unicode="k" horiz-adv-x="1017" 
d="M848 0l-383 543l-199 -238v-305h-123v1638h123v-1161l529 649h161l-411 -489l452 -637h-149z" />
    <glyph glyph-name="l" unicode="l" horiz-adv-x="409" 
d="M143 0v1638h123v-1638h-123z" />
    <glyph glyph-name="m" unicode="m" horiz-adv-x="1828" 
d="M1337 1149q169 0 264 -118t95 -320v-711h-123v692q0 176 -72 262t-194 86q-140 0 -233 -105.5t-93 -297.5v-637h-123v692q0 176 -70.5 262t-191.5 86q-141 0 -235.5 -107t-94.5 -298v-635h-123v1126h119v-239h4q45 114 134 188t225 74q133 0 220.5 -79t119.5 -214
q42 133 137.5 213t234.5 80z" />
    <glyph glyph-name="n" unicode="n" horiz-adv-x="1173" 
d="M143 0v1126h119v-247h4q22 53 55.5 99t80.5 85.5t112.5 62.5t140.5 23q179 0 282 -118.5t103 -319.5v-711h-122v692q0 169 -77.5 258.5t-209.5 89.5q-72 0 -136.5 -26.5t-116 -76t-82 -128t-30.5 -174.5v-635h-123z" />
    <glyph glyph-name="o" unicode="o" horiz-adv-x="1249" 
d="M625 -23q-114 0 -213.5 40t-174.5 113.5t-118 185t-43 247.5t43 248t118 185.5t174.5 113t213.5 39.5q115 0 214.5 -39.5t174 -113t117.5 -185t43 -248.5q0 -136 -43 -247.5t-117.5 -185t-174 -113.5t-214.5 -40zM625 86q183 2 301 129t118 348q0 222 -118 349.5
t-301 129.5q-182 2 -300 -127t-118 -352q0 -222 118 -350.5t300 -126.5z" />
    <glyph glyph-name="p" unicode="p" horiz-adv-x="1296" 
d="M266 1006q0 -89 -4 -142h4q54 129 166 207t270 78q108 0 201.5 -38.5t164.5 -110.5t112 -183t41 -248q0 -139 -41 -252.5t-112 -187t-164.5 -113t-201.5 -39.5q-151 0 -263 77t-173 208h-4q4 -47 4 -131v-479h-123v1474h123v-120zM682 86q116 -1 209 59t147 171t54 253
q0 211 -116.5 342t-293.5 131q-182 -2 -300 -128.5t-118 -342.5q0 -221 118.5 -353t299.5 -132z" />
    <glyph glyph-name="q" unicode="q" horiz-adv-x="1296" 
d="M1030 995v131h123v-1474h-123v469q0 90 4 141h-4q-54 -130 -165.5 -207.5t-270.5 -77.5q-108 0 -201.5 39t-164 112t-111.5 185t-41 250t40.5 250.5t111.5 185t164.5 111.5t201.5 39q153 0 265 -77t171 -208h4q-4 49 -4 131zM616 86q182 0 300 129.5t118 349.5
q0 216 -118.5 345.5t-299.5 131.5q-179 0 -294 -133t-115 -346q0 -214 115.5 -346.5t293.5 -130.5z" />
    <glyph glyph-name="r" unicode="r" horiz-adv-x="761" 
d="M143 0v1126h119v-229h4q39 109 123.5 180.5t222.5 71.5h129v-109h-153q-149 0 -235.5 -105t-86.5 -300v-635h-123z" />
    <glyph glyph-name="s" unicode="s" horiz-adv-x="1017" 
d="M518 -23q-191 0 -315 112t-133 284h127q11 -127 99.5 -207t221.5 -80q138 0 219.5 71.5t81.5 166.5q0 107 -65 156.5t-224 49.5h-96q-153 0 -248.5 76t-95.5 209q0 142 110.5 238t303.5 96q195 0 304.5 -104.5t121.5 -282.5h-127q-11 136 -87 208t-212 72
q-135 0 -210 -62.5t-75 -164.5q0 -93 62.5 -135t207.5 -43h76q189 0 287 -83.5t98 -229.5q0 -65 -29 -126t-82 -111t-136.5 -80t-184.5 -30z" />
    <glyph glyph-name="t" unicode="t" horiz-adv-x="745" 
d="M725 1022h-356v-703q0 -103 41.5 -159t124.5 -56h190v-104h-211q-130 0 -199 79t-69 222v721h-236v104h236v308h123v-308h356v-104z" />
    <glyph glyph-name="u" unicode="u" 
d="M500 -23q-174 0 -275.5 119.5t-101.5 319.5v710h123v-692q0 -169 74.5 -257.5t203.5 -88.5q70 0 133.5 26.5t114 76t80 127.5t29.5 174v634h123v-1126h-119v248h-4q-22 -52 -54.5 -98t-79 -86t-110 -63.5t-137.5 -23.5z" />
    <glyph glyph-name="v" unicode="v" horiz-adv-x="1019" 
d="M860 1126h135l-420 -1126h-129l-419 1126h135l348 -976z" />
    <glyph glyph-name="w" unicode="w" horiz-adv-x="1499" 
d="M1339 1126h123l-321 -1126h-140l-251 969l-250 -969h-142l-321 1126h127l264 -979l250 979h147l250 -979z" />
    <glyph glyph-name="x" unicode="x" horiz-adv-x="958" 
d="M16 0l390 592l-369 534h143l299 -442l299 442h146l-369 -534l389 -592h-143l-322 500l-321 -500h-142z" />
    <glyph glyph-name="y" unicode="y" horiz-adv-x="1019" 
d="M860 1126h133l-551 -1405q-29 -69 -108 -69h-350v104h346l119 305l-422 1065h135l350 -923z" />
    <glyph glyph-name="z" unicode="z" horiz-adv-x="980" 
d="M205 106h745v-106h-919v82l708 938h-667v106h841v-82z" />
    <glyph glyph-name="braceleft" unicode="{" horiz-adv-x="815" 
d="M274 721v-6q69 0 115.5 -63t46.5 -158v-494q0 -104 63 -173t158 -69h150v-106h-164q-136 0 -232 95t-96 233v491q0 89 -41 141t-122 52h-70v106h70q81 0 122 52t41 141v491q0 138 96 233t232 95h164v-107h-150q-95 0 -158 -68.5t-63 -172.5v-494q0 -95 -46.5 -157
t-115.5 -62z" />
    <glyph glyph-name="bar" unicode="|" horiz-adv-x="387" 
d="M133 -348v2130h121v-2130h-121z" />
    <glyph glyph-name="braceright" unicode="}" horiz-adv-x="815" 
d="M541 721q-69 0 -115.5 62t-46.5 157v494q0 104 -63 172.5t-158 68.5h-150v107h164q136 0 232 -95t96 -233v-491q0 -89 41.5 -141t122.5 -52h69v-106h-69q-81 0 -122.5 -52t-41.5 -141v-491q0 -138 -96 -233t-232 -95h-164v106h150q95 0 158 69t63 173v494q0 95 46.5 158
t115.5 63v6z" />
    <glyph glyph-name="asciitilde" unicode="~" horiz-adv-x="1214" 
d="M102 455q0 135 74 220t195 85q47 0 87.5 -12t75 -36.5t55 -43.5t50.5 -52q57 -60 96.5 -86t93.5 -26q73 0 114.5 52.5t41.5 143.5h113q0 -136 -74 -220.5t-195 -84.5q-38 0 -73.5 10t-58.5 21t-53 36t-41.5 36.5t-39.5 40.5q-60 62 -98.5 87t-93.5 25q-73 0 -114.5 -53
t-41.5 -143h-113z" />
    <glyph glyph-name="exclamdown" unicode="&#xa1;" horiz-adv-x="491" 
d="M174 1126h143v-143h-143v143zM201 840h92l20 -840v-307h-133v307z" />
    <glyph glyph-name="cent" unicode="&#xa2;" horiz-adv-x="1198" 
d="M621 272q78 0 145 26.5t110.5 70t70 93t34.5 99.5h129q-10 -74 -43 -141t-87 -121t-133 -89t-173 -42l2 -168h-111l4 168q-216 17 -346.5 166.5t-130.5 384.5q0 233 127 381.5t350 165.5l-4 168h111l-2 -168q191 -14 304.5 -130t131.5 -286h-129q-11 132 -106.5 221.5
t-253.5 89.5q-184 0 -291 -122t-107 -320q0 -201 113.5 -324t284.5 -123z" />
    <glyph glyph-name="sterling" unicode="&#xa3;" horiz-adv-x="1234" 
d="M354 104h779v-104h-1029v104q134 0 220 91.5t86 218.5q0 92 -64 213h-244v104h185q-43 76 -66.5 145.5t-23.5 153.5q0 193 125.5 312.5t322.5 119.5t325 -120t128 -322h-129q0 156 -89.5 246t-234.5 90q-146 0 -232.5 -92t-86.5 -234q0 -76 23 -145t67 -154h434v-104
h-383q57 -117 57 -217q0 -92 -42 -172.5t-128 -131.5v-2z" />
    <glyph glyph-name="currency" unicode="&#xa4;" horiz-adv-x="1150" 
d="M999 645q0 -144 -88 -262l162 -154l-78 -77l-155 157q-118 -94 -271 -94q-147 0 -264 90l-147 -153l-78 77l153 148q-94 118 -94 268q0 152 97 270l-156 150l78 78l151 -156q115 88 260 88q151 0 269 -94l157 162l78 -78l-164 -156q90 -117 90 -264zM569 328
q132 0 225 92.5t93 224.5t-93 225t-225 93t-224.5 -93t-92.5 -225t92.5 -224.5t224.5 -92.5z" />
    <glyph glyph-name="yen" unicode="&#xa5;" horiz-adv-x="1214" 
d="M1180 1434l-478 -717h388v-105h-426v-157h426v-105h-426v-350h-127v350h-435v105h435v157h-435v105h396l-478 717h146l432 -674l436 674h146z" />
    <glyph glyph-name="brokenbar" unicode="&#xa6;" horiz-adv-x="376" 
d="M129 1024v758h119v-758h-119zM129 -348v758h119v-758h-119z" />
    <glyph glyph-name="section" unicode="&#xa7;" horiz-adv-x="1044" 
d="M731 373q116 -32 179 -108.5t63 -182.5q0 -63 -29.5 -121t-84.5 -105t-142.5 -75.5t-194.5 -28.5q-189 0 -314 106t-136 269h131q11 -119 98.5 -193.5t220.5 -74.5q145 0 233.5 65t88.5 158q0 97 -74 150t-248 53h-76q-152 0 -253 76.5t-101 197.5q0 93 56 166t167 113
q-116 30 -179.5 106.5t-63.5 181.5q0 132 121 231t329 99q189 0 314.5 -106t136.5 -269h-129q-11 119 -100 194t-222 75q-144 0 -231.5 -65.5t-87.5 -158.5q0 -95 73 -147.5t246 -52.5h76q152 0 253 -77t101 -200q0 -92 -56 -164.5t-165 -111.5zM223 582q0 -191 299 -191h21
q136 15 208 78.5t72 159.5q0 190 -301 190h-20q-134 -15 -206.5 -79t-72.5 -158z" />
    <glyph glyph-name="dieresis" unicode="&#xa8;" horiz-adv-x="524" 
d="M47 1348v139h129v-139h-129zM350 1348v139h129v-139h-129z" />
    <glyph glyph-name="copyright" unicode="&#xa9;" horiz-adv-x="1603" 
d="M803 -29q150 0 287 59t236 159t157.5 239t58.5 291q0 151 -58.5 288.5t-157.5 237t-236 158.5t-287 59t-287 -59t-236.5 -158.5t-158 -237t-58.5 -288.5q0 -152 58.5 -291t158 -239t236.5 -159t287 -59zM803 68q-129 0 -246.5 51.5t-202.5 138.5t-135.5 207.5
t-50.5 253.5q0 132 50.5 252t135.5 207t202.5 138.5t246.5 51.5q171 0 317 -88t231 -237.5t85 -323.5q0 -133 -50.5 -253.5t-135.5 -207.5t-202 -138.5t-245 -51.5zM811 307q-173 0 -279 112.5t-106 299.5q0 182 103 294.5t282 112.5q159 0 252 -89.5t106 -227.5h-106
q-8 97 -74.5 161t-177.5 64q-126 0 -201 -87t-75 -228q0 -145 78 -232.5t198 -87.5q105 0 170.5 64t81.5 145h106q-16 -126 -111 -213.5t-247 -87.5z" />
    <glyph glyph-name="ordfeminine" unicode="&#xaa;" horiz-adv-x="694" 
d="M647 848h33v-72h-45q-52 0 -79.5 26.5t-27.5 74.5v51q-26 -83 -88.5 -126.5t-146.5 -43.5q-98 0 -166 55t-68 154q0 98 62 149t172 51h74q83 0 116 20.5t33 61.5q0 54 -45 85.5t-117 31.5q-75 0 -125.5 -39t-56.5 -110h-84q6 106 75.5 167.5t190.5 61.5q127 0 190.5 -62
t63.5 -165v-332q0 -39 39 -39zM520 1075v84h-2q-22 -72 -174 -72h-49q-72 0 -106.5 -32t-34.5 -86q0 -55 40 -93t111 -38q90 0 152.5 61t62.5 176z" />
    <glyph glyph-name="guillemotleft" unicode="&#xab;" horiz-adv-x="1052" 
d="M203 573q123 -35 205.5 -143.5t101.5 -253.5h-115q-15 148 -100.5 246t-214.5 108v84q129 12 214.5 109.5t100.5 245.5h115q-19 -145 -101.5 -254t-205.5 -142zM612 573q123 -35 206 -143.5t102 -253.5h-115q-15 148 -101 246t-215 108v84q129 12 215 109.5t101 245.5
h115q-19 -145 -102 -254t-206 -142z" />
    <glyph glyph-name="logicalnot" unicode="&#xac;" horiz-adv-x="1085" 
d="M102 707h881v-480h-94v375h-787v105z" />
    <glyph glyph-name="uni00AD" unicode="&#xad;" horiz-adv-x="860" 
d="M102 524v105h656v-105h-656z" />
    <glyph glyph-name="registered" unicode="&#xae;" horiz-adv-x="1603" 
d="M803 1462q150 0 287 -59t236 -158.5t157.5 -237t58.5 -288.5q0 -152 -58.5 -291t-157.5 -239t-236 -159t-287 -59t-287 59t-236.5 159t-158 239t-58.5 291q0 151 58.5 288.5t158 237t236.5 158.5t287 59zM803 68q128 0 245 51.5t202 138.5t135.5 207.5t50.5 253.5
q0 174 -85 323.5t-231 237.5t-317 88q-129 0 -246.5 -51.5t-202.5 -138.5t-135.5 -207t-50.5 -252q0 -133 50.5 -253.5t135.5 -207.5t202.5 -138.5t246.5 -51.5zM950 676q56 -23 87 -69.5t55 -125.5l47 -147h-107l-49 147q-30 98 -66 127t-120 29h-168v-303h-101v770h320
q124 0 203 -60t79 -161q0 -81 -48 -133.5t-132 -73.5zM838 727q93 0 139.5 37.5t46.5 103.5q0 69 -49 108.5t-131 39.5h-215v-289h209z" />
    <glyph glyph-name="macron" unicode="&#xaf;" horiz-adv-x="634" 
d="M41 1354v106h553v-106h-553z" />
    <glyph glyph-name="degree" unicode="&#xb0;" horiz-adv-x="825" 
d="M414 895q-117 0 -199 81.5t-82 197.5t82 197t199 81q116 0 197 -81t81 -197t-81.5 -197.5t-196.5 -81.5zM414 987q76 0 131 55t55 132q0 76 -55 131t-131 55q-78 0 -133.5 -54.5t-55.5 -131.5t55.5 -132t133.5 -55z" />
    <glyph glyph-name="plusminus" unicode="&#xb1;" horiz-adv-x="1253" 
d="M684 705h467v-107h-467v-340h-113v340h-469v107h469v335h113v-335zM102 51v107h1049v-107h-1049z" />
    <glyph glyph-name="uni00B2" unicode="&#xb2;" horiz-adv-x="571" 
d="M143 850h371v-74h-463v21q0 91 48.5 159t156.5 119q85 41 119.5 83.5t34.5 94.5q0 54 -33.5 85.5t-89.5 31.5q-58 0 -93.5 -35.5t-35.5 -103.5h-84q0 103 58.5 158t154.5 55q92 0 151.5 -52t59.5 -139q0 -71 -50.5 -130.5t-160.5 -116.5q-70 -37 -103.5 -72t-40.5 -84z
" />
    <glyph glyph-name="uni00B3" unicode="&#xb3;" horiz-adv-x="663" 
d="M440 1120q65 -18 100 -61t35 -101q0 -90 -67.5 -144t-169.5 -54q-109 0 -179.5 59.5t-70.5 159.5h84q3 -68 48 -105.5t118 -37.5q62 0 104.5 34.5t42.5 87.5q0 55 -40 88t-101 35h-98v74h98q47 0 83 31.5t36 81.5q0 48 -35 75t-90 27q-62 0 -101.5 -34t-39.5 -97h-84
q0 96 63 150.5t162 54.5q96 0 155.5 -47t59.5 -127q0 -52 -30 -91.5t-83 -58.5z" />
    <glyph glyph-name="acute" unicode="&#xb4;" horiz-adv-x="311" 
d="M121 1249h-80l88 269h141z" />
    <glyph glyph-name="uni00B5" unicode="&#xb5;" horiz-adv-x="1187" 
d="M1096 104h88v-104h-105q-81 0 -126.5 47t-45.5 125v84h-4q-43 -126 -138.5 -202.5t-213.5 -76.5q-96 0 -173 47t-112 128v-500h-123v1474h123v-739q0 -80 25.5 -140t68 -93.5t90.5 -49.5t101 -16q147 0 246.5 109t99.5 303v626h123v-938q0 -84 76 -84z" />
    <glyph glyph-name="paragraph" unicode="&#xb6;" horiz-adv-x="1331" 
d="M713 573q-133 0 -241.5 49t-175.5 147t-67 230t66.5 232.5t176 151.5t241.5 51h125v-1782h-125v921zM965 -348v1782h127v-1782h-127z" />
    <glyph glyph-name="periodcentered" unicode="&#xb7;" horiz-adv-x="430" 
d="M139 459v153h154v-153h-154z" />
    <glyph glyph-name="cedilla" unicode="&#xb8;" horiz-adv-x="425" 
d="M223 -88q78 -2 120 -36t42 -97q0 -69 -51 -108.5t-141 -39.5h-152v90h133q100 0 100 66q0 28 -20 43.5t-53 15.5h-60v189h82v-123z" />
    <glyph glyph-name="uni00B9" unicode="&#xb9;" horiz-adv-x="442" 
d="M293 1434v-658h-86v477q-45 -55 -131 -55h-35v74h35q131 0 131 117v45h86z" />
    <glyph glyph-name="ordmasculine" unicode="&#xba;" horiz-adv-x="747" 
d="M375 766q-132 0 -216.5 91t-84.5 249q0 157 85 247.5t216 90.5t215 -90.5t84 -247.5q0 -159 -84 -249.5t-215 -90.5zM375 846q91 2 150 69.5t59 190.5q0 124 -59 191t-150 67q-91 2 -149 -65.5t-58 -192.5q0 -124 58 -193t149 -67z" />
    <glyph glyph-name="guillemotright" unicode="&#xbb;" horiz-adv-x="1052" 
d="M569 614v-84q-129 -10 -214.5 -108t-100.5 -246h-115q19 145 101.5 253.5t205.5 143.5q-123 33 -205.5 142t-101.5 254h115q15 -148 100.5 -245.5t214.5 -109.5zM664 969q15 -148 100.5 -245.5t214.5 -109.5v-84q-129 -10 -214.5 -108t-100.5 -246h-115
q19 145 101.5 253.5t205.5 143.5q-123 33 -205.5 142t-101.5 254h115z" />
    <glyph glyph-name="onequarter" unicode="&#xbc;" horiz-adv-x="1308" 
d="M1087 1434h119l-999 -1434h-119zM270 1253q-45 -55 -131 -55h-35v74h35q131 0 131 117v45h86v-658h-86v477zM1233 221v-74h-92v-147h-86v147h-332v46l305 464h113v-436h92zM831 221h224v348z" />
    <glyph glyph-name="onehalf" unicode="&#xbd;" horiz-adv-x="1320" 
d="M1077 1434h119l-999 -1434h-119zM270 1253q-45 -55 -131 -55h-35v74h35q131 0 131 117v45h86v-658h-86v477zM874 74h371v-74h-463v20q0 91 48.5 159.5t156.5 119.5q85 41 119.5 83.5t34.5 94.5q0 54 -33.5 85.5t-89.5 31.5q-58 0 -93.5 -35.5t-35.5 -103.5h-84
q0 103 58.5 158t154.5 55q92 0 151.5 -52t59.5 -139q0 -71 -51 -131t-160 -117q-70 -37 -103.5 -71.5t-40.5 -83.5z" />
    <glyph glyph-name="threequarters" unicode="&#xbe;" horiz-adv-x="1398" 
d="M563 979q0 -90 -67.5 -144.5t-169.5 -54.5q-109 0 -179.5 59.5t-70.5 159.5h84q3 -68 48 -105.5t118 -37.5q62 0 104.5 35t42.5 88q0 55 -40 88t-101 35h-99v74h99q47 0 83 31t36 81q0 48 -35.5 75.5t-89.5 27.5q-62 0 -102 -34t-40 -97h-84q0 96 63 150t163 54
q96 0 155.5 -47t59.5 -127q0 -52 -30 -91t-83 -58q65 -18 100 -61t35 -101zM1169 1434h119l-999 -1434h-119zM1323 221v-74h-92v-147h-86v147h-332v46l305 464h113v-436h92zM922 221h223v348z" />
    <glyph glyph-name="questiondown" unicode="&#xbf;" horiz-adv-x="1198" 
d="M737 1114v-143h-143v143h143zM727 827v-127q0 -100 -41.5 -153t-153.5 -105l-28 -12q-271 -116 -271 -352q0 -147 95 -234.5t258 -87.5q166 0 275 98.5t116 264.5h127q-6 -211 -151.5 -339t-366.5 -128q-226 0 -355 121.5t-129 304.5q0 290 359 446l28 13q71 31 93 68.5
t22 111.5v110h123z" />
    <glyph glyph-name="Agrave" unicode="&#xc0;" horiz-adv-x="1243" 
d="M674 1556h-80l-150 269h142zM1083 0l-147 414h-629l-147 -414h-133l524 1434h141l525 -1434h-134zM346 524h551l-274 776z" />
    <glyph glyph-name="Aacute" unicode="&#xc1;" horiz-adv-x="1243" 
d="M809 1825l-150 -269h-79l88 269h141zM1083 0l-147 414h-629l-147 -414h-133l524 1434h141l525 -1434h-134zM346 524h551l-274 776z" />
    <glyph glyph-name="Acircumflex" unicode="&#xc2;" horiz-adv-x="1243" 
d="M621 1788l-136 -195h-120l219 285h75l220 -285h-121l-133 195h-4zM1083 0l-147 414h-629l-147 -414h-133l524 1434h141l525 -1434h-134zM346 524h551l-274 776z" />
    <glyph glyph-name="Atilde" unicode="&#xc3;" horiz-adv-x="1243" 
d="M461 1747q-48 0 -81.5 -40.5t-33.5 -117.5h-94q0 113 59.5 179.5t149.5 66.5q66 0 111.5 -25t89.5 -81q32 -41 57 -56.5t59 -15.5q48 0 81.5 41.5t33.5 116.5h96q0 -113 -59.5 -179.5t-151.5 -66.5q-112 0 -192 102q-35 44 -60.5 60t-64.5 16zM1083 0l-147 414h-629
l-147 -414h-133l524 1434h141l525 -1434h-134zM346 524h551l-274 776z" />
    <glyph glyph-name="Adieresis" unicode="&#xc4;" horiz-adv-x="1243" 
d="M537 1794v-139h-129v139h129zM840 1794v-139h-129v139h129zM1083 0l-147 414h-629l-147 -414h-133l524 1434h141l525 -1434h-134zM346 524h551l-274 776z" />
    <glyph glyph-name="Aring" unicode="&#xc5;" horiz-adv-x="1243" 
d="M623 1565q-66 0 -113 45.5t-47 111.5t47 114t113 48t112.5 -48t46.5 -114t-46.5 -111.5t-112.5 -45.5zM623 1806q-34 0 -58 -24.5t-24 -59.5q0 -34 24 -58t58 -24t59 24t25 58q0 35 -25 59.5t-59 24.5zM1083 0l-147 414h-629l-147 -414h-133l524 1434h141l525 -1434h-134
zM346 524h551l-274 776z" />
    <glyph glyph-name="AE" unicode="&#xc6;" horiz-adv-x="1714" 
d="M961 113h712v-113h-842v414h-522l-149 -414h-133l534 1434h1110v-111h-710v-549h630v-110h-630v-551zM350 524h481v799h-194z" />
    <glyph glyph-name="Ccedilla" unicode="&#xc7;" horiz-adv-x="1472" 
d="M762 90q109 0 203 39.5t156 103.5t100.5 138.5t48.5 150.5h135q-15 -109 -62.5 -204.5t-124.5 -171.5t-190 -121t-248 -48v-63q78 -2 120 -36t42 -97q0 -69 -51 -108.5t-141 -39.5h-152v91h133q100 0 100 65q0 28 -20 43.5t-53 15.5h-60v132q-281 22 -450.5 222.5
t-169.5 516.5q0 217 81 383t237 260t366 94q144 0 262 -45t196.5 -124t125.5 -181t59 -221h-135q-7 93 -43.5 175t-99 145.5t-157 100.5t-208.5 37q-252 0 -400.5 -172.5t-148.5 -451.5q0 -142 42.5 -261t116 -199t174.5 -124.5t216 -44.5z" />
    <glyph glyph-name="Egrave" unicode="&#xc8;" horiz-adv-x="1157" 
d="M610 1556l-149 269h141l88 -269h-80zM150 0v1434h964v-111h-835v-539h755v-110h-755v-561h837v-113h-966z" />
    <glyph glyph-name="Eacute" unicode="&#xc9;" horiz-adv-x="1157" 
d="M676 1556h-80l88 269h141zM150 0v1434h964v-111h-835v-539h755v-110h-755v-561h837v-113h-966z" />
    <glyph glyph-name="Ecircumflex" unicode="&#xca;" horiz-adv-x="1157" 
d="M774 1593l-133 195h-4l-135 -195h-121l219 285h76l219 -285h-121zM150 0v1434h964v-111h-835v-539h755v-110h-755v-561h837v-113h-966z" />
    <glyph glyph-name="Edieresis" unicode="&#xcb;" horiz-adv-x="1157" 
d="M422 1655v139h129v-139h-129zM725 1655v139h129v-139h-129zM150 0v1434h964v-111h-835v-539h755v-110h-755v-561h837v-113h-966z" />
    <glyph glyph-name="Igrave" unicode="&#xcc;" horiz-adv-x="428" 
d="M184 1556l-149 269h141l88 -269h-80zM150 0v1434h129v-1434h-129z" />
    <glyph glyph-name="Iacute" unicode="&#xcd;" horiz-adv-x="428" 
d="M252 1556h-80l88 269h141zM150 0v1434h129v-1434h-129z" />
    <glyph glyph-name="Icircumflex" unicode="&#xce;" horiz-adv-x="428" 
d="M350 1593l-133 195h-4l-135 -195h-121l219 285h76l219 -285h-121zM150 0v1434h129v-1434h-129z" />
    <glyph glyph-name="Idieresis" unicode="&#xcf;" horiz-adv-x="428" 
d="M-4 1655v139h131v-139h-131zM301 1655v139h129v-139h-129zM150 0v1434h129v-1434h-129z" />
    <glyph glyph-name="Eth" unicode="&#xd0;" horiz-adv-x="1415" 
d="M662 1434q144 0 267 -48t214 -137.5t142.5 -226.5t51.5 -305t-51.5 -305t-142.5 -226.5t-214 -137.5t-267 -48h-512v659h-130v111h130v664h512zM662 113q113 0 210.5 39t171.5 113.5t116 190.5t42 261q0 147 -42 263.5t-116 190.5t-171 112.5t-211 39.5h-383v-553h290
v-111h-290v-546h383z" />
    <glyph glyph-name="Ntilde" unicode="&#xd1;" horiz-adv-x="1478" 
d="M580 1747q-48 0 -81.5 -40.5t-33.5 -117.5h-94q0 113 59.5 179.5t149.5 66.5q65 0 110.5 -25t89.5 -81q32 -41 57.5 -56.5t59.5 -15.5q48 0 81.5 41.5t33.5 116.5h96q0 -113 -59.5 -179.5t-151.5 -66.5q-112 0 -192 102q-35 44 -60.5 60t-64.5 16zM1202 1434h127v-1434
h-168l-882 1280v-1280h-129v1434h169l883 -1282v1282z" />
    <glyph glyph-name="Ograve" unicode="&#xd2;" horiz-adv-x="1525" 
d="M735 1556l-149 269h141l88 -269h-80zM764 -23q-145 0 -270 50t-217.5 142t-145.5 233.5t-53 314.5q0 174 53 315t146 233t217.5 141.5t269.5 49.5t269.5 -49.5t217.5 -141.5t146 -233t53 -315q0 -173 -53 -314.5t-145.5 -233.5t-217.5 -142t-270 -50zM764 90
q115 1 214 42t174.5 118t119 197t43.5 270t-43 270t-119 196.5t-175 117t-214 42.5t-214.5 -38.5t-174.5 -117.5t-118.5 -198.5t-43.5 -271.5t43.5 -270.5t118.5 -198t174.5 -118.5t214.5 -40z" />
    <glyph glyph-name="Oacute" unicode="&#xd3;" horiz-adv-x="1525" 
d="M801 1556h-80l88 269h141zM764 -23q-145 0 -270 50t-217.5 142t-145.5 233.5t-53 314.5q0 174 53 315t146 233t217.5 141.5t269.5 49.5t269.5 -49.5t217.5 -141.5t146 -233t53 -315q0 -173 -53 -314.5t-145.5 -233.5t-217.5 -142t-270 -50zM764 90q115 1 214 42
t174.5 118t119 197t43.5 270t-43 270t-119 196.5t-175 117t-214 42.5t-214.5 -38.5t-174.5 -117.5t-118.5 -198.5t-43.5 -271.5t43.5 -270.5t118.5 -198t174.5 -118.5t214.5 -40z" />
    <glyph glyph-name="Ocircumflex" unicode="&#xd4;" horiz-adv-x="1525" 
d="M899 1593l-133 195h-4l-135 -195h-121l219 285h76l219 -285h-121zM764 -23q-145 0 -270 50t-217.5 142t-145.5 233.5t-53 314.5q0 174 53 315t146 233t217.5 141.5t269.5 49.5t269.5 -49.5t217.5 -141.5t146 -233t53 -315q0 -173 -53 -314.5t-145.5 -233.5t-217.5 -142
t-270 -50zM764 90q115 1 214 42t174.5 118t119 197t43.5 270t-43 270t-119 196.5t-175 117t-214 42.5t-214.5 -38.5t-174.5 -117.5t-118.5 -198.5t-43.5 -271.5t43.5 -270.5t118.5 -198t174.5 -118.5t214.5 -40z" />
    <glyph glyph-name="Otilde" unicode="&#xd5;" horiz-adv-x="1525" 
d="M920 1569q-113 0 -193 102q-35 44 -60.5 60t-64.5 16q-48 0 -81.5 -40.5t-33.5 -117.5h-94q0 113 59.5 179.5t149.5 66.5q66 0 111.5 -25t89.5 -81q32 -41 57.5 -56.5t59.5 -15.5q48 0 81 41.5t33 116.5h96q0 -113 -59 -179.5t-151 -66.5zM764 -23q-145 0 -270 50
t-217.5 142t-145.5 233.5t-53 314.5q0 174 53 315t146 233t217.5 141.5t269.5 49.5t269.5 -49.5t217.5 -141.5t146 -233t53 -315q0 -173 -53 -314.5t-145.5 -233.5t-217.5 -142t-270 -50zM764 90q115 1 214 42t174.5 118t119 197t43.5 270t-43 270t-119 196.5t-175 117
t-214 42.5t-214.5 -38.5t-174.5 -117.5t-118.5 -198.5t-43.5 -271.5t43.5 -270.5t118.5 -198t174.5 -118.5t214.5 -40z" />
    <glyph glyph-name="Odieresis" unicode="&#xd6;" horiz-adv-x="1525" 
d="M549 1655v139h129v-139h-129zM852 1655v139h129v-139h-129zM764 -23q-145 0 -270 50t-217.5 142t-145.5 233.5t-53 314.5q0 174 53 315t146 233t217.5 141.5t269.5 49.5t269.5 -49.5t217.5 -141.5t146 -233t53 -315q0 -173 -53 -314.5t-145.5 -233.5t-217.5 -142
t-270 -50zM764 90q115 1 214 42t174.5 118t119 197t43.5 270t-43 270t-119 196.5t-175 117t-214 42.5t-214.5 -38.5t-174.5 -117.5t-118.5 -198.5t-43.5 -271.5t43.5 -270.5t118.5 -198t174.5 -118.5t214.5 -40z" />
    <glyph glyph-name="multiply" unicode="&#xd7;" horiz-adv-x="1169" 
d="M995 1020l-333 -334l331 -332l-78 -75l-331 331l-332 -331l-78 77l332 332l-332 332l78 76l332 -332l334 334z" />
    <glyph glyph-name="Oslash" unicode="&#xd8;" horiz-adv-x="1525" 
d="M1270 1245q180 -199 180 -528q0 -173 -53 -314.5t-145.5 -233.5t-217.5 -142t-270 -50q-255 0 -434 144l-127 -152l-78 66l131 155q-178 200 -178 527q0 174 53 315t146 233t217.5 141.5t269.5 49.5q254 0 432 -143l127 151l78 -63zM213 717q0 -261 127 -426l776 928
q-141 121 -352 124q-115 2 -214.5 -38.5t-174.5 -117.5t-118.5 -198.5t-43.5 -271.5zM764 90q115 1 214 42t174.5 118t119 197t43.5 270q0 264 -129 428l-776 -930q143 -125 354 -125z" />
    <glyph glyph-name="Ugrave" unicode="&#xd9;" horiz-adv-x="1402" 
d="M674 1556l-150 269h142l88 -269h-80zM702 -23q-117 0 -217.5 40t-175 114t-117 187t-42.5 251v865h135v-871q0 -225 118 -350t299 -123q180 2 298 125.5t118 347.5v871h135v-865q0 -138 -42.5 -251t-116.5 -187t-174.5 -114t-217.5 -40z" />
    <glyph glyph-name="Uacute" unicode="&#xda;" horiz-adv-x="1402" 
d="M739 1556h-80l89 269h141zM702 -23q-117 0 -217.5 40t-175 114t-117 187t-42.5 251v865h135v-871q0 -225 118 -350t299 -123q180 2 298 125.5t118 347.5v871h135v-865q0 -138 -42.5 -251t-116.5 -187t-174.5 -114t-217.5 -40z" />
    <glyph glyph-name="Ucircumflex" unicode="&#xdb;" horiz-adv-x="1402" 
d="M838 1593l-133 195h-5l-135 -195h-121l220 285h75l219 -285h-120zM702 -23q-117 0 -217.5 40t-175 114t-117 187t-42.5 251v865h135v-871q0 -225 118 -350t299 -123q180 2 298 125.5t118 347.5v871h135v-865q0 -138 -42.5 -251t-116.5 -187t-174.5 -114t-217.5 -40z" />
    <glyph glyph-name="Udieresis" unicode="&#xdc;" horiz-adv-x="1402" 
d="M487 1655v139h129v-139h-129zM791 1655v139h129v-139h-129zM702 -23q-117 0 -217.5 40t-175 114t-117 187t-42.5 251v865h135v-871q0 -225 118 -350t299 -123q180 2 298 125.5t118 347.5v871h135v-865q0 -138 -42.5 -251t-116.5 -187t-174.5 -114t-217.5 -40z" />
    <glyph glyph-name="Yacute" unicode="&#xdd;" horiz-adv-x="1179" 
d="M776 1825l-149 -269h-80l88 269h141zM1018 1434h141l-504 -840v-594h-131v594l-504 840h144l426 -734z" />
    <glyph glyph-name="Thorn" unicode="&#xde;" horiz-adv-x="1216" 
d="M721 1126q190 0 316 -107.5t126 -289.5t-125.5 -286.5t-316.5 -104.5h-442v-338h-129v1434h129v-308h442zM694 453q152 0 243 74t91 202q0 129 -91.5 207t-242.5 78h-415v-561h415z" />
    <glyph glyph-name="germandbls" unicode="&#xdf;" horiz-adv-x="1105" 
d="M768 764q121 -37 191.5 -129.5t70.5 -218.5q0 -178 -120 -297t-330 -119h-86v111h71q164 0 250 82t86 219q0 134 -89 213.5t-249 79.5h-65v108h80q122 0 192 70t70 188q0 121 -75.5 196.5t-209.5 75.5q-135 0 -209 -84t-74 -227v-1032h-122v1032q0 192 106.5 308
t298.5 116t303 -107.5t111 -277.5q0 -109 -52 -189t-149 -118z" />
    <glyph glyph-name="agrave" unicode="&#xe0;" horiz-adv-x="1148" 
d="M631 1249h-80l-150 269h142zM1077 104h68v-104h-86q-83 0 -130.5 47.5t-47.5 130.5v94q-42 -139 -157 -217t-267 -78q-169 0 -274 93t-105 258q0 159 106.5 250.5t307.5 91.5h137q128 0 183.5 37t55.5 110q0 105 -78.5 165t-209.5 60q-142 0 -231.5 -73t-102.5 -207h-125
q14 183 134.5 285t324.5 102q202 0 309.5 -98t107.5 -263v-591q0 -93 80 -93zM874 524v166h-2q-42 -127 -262 -127h-114q-77 0 -135 -20t-90.5 -54.5t-48 -75t-15.5 -85.5q0 -101 69 -172.5t201 -71.5q77 0 146.5 26.5t126.5 78.5t90.5 138.5t33.5 196.5z" />
    <glyph glyph-name="aacute" unicode="&#xe1;" horiz-adv-x="1148" 
d="M766 1518l-150 -269h-79l88 269h141zM1077 104h68v-104h-86q-83 0 -130.5 47.5t-47.5 130.5v94q-42 -139 -157 -217t-267 -78q-169 0 -274 93t-105 258q0 159 106.5 250.5t307.5 91.5h137q128 0 183.5 37t55.5 110q0 105 -78.5 165t-209.5 60q-142 0 -231.5 -73
t-102.5 -207h-125q14 183 134.5 285t324.5 102q202 0 309.5 -98t107.5 -263v-591q0 -93 80 -93zM874 524v166h-2q-42 -127 -262 -127h-114q-77 0 -135 -20t-90.5 -54.5t-48 -75t-15.5 -85.5q0 -101 69 -172.5t201 -71.5q77 0 146.5 26.5t126.5 78.5t90.5 138.5t33.5 196.5z
" />
    <glyph glyph-name="acircumflex" unicode="&#xe2;" horiz-adv-x="1148" 
d="M578 1481l-136 -195h-120l219 285h75l220 -285h-121l-133 195h-4zM1077 104h68v-104h-86q-83 0 -130.5 47.5t-47.5 130.5v94q-42 -139 -157 -217t-267 -78q-169 0 -274 93t-105 258q0 159 106.5 250.5t307.5 91.5h137q128 0 183.5 37t55.5 110q0 105 -78.5 165t-209.5 60
q-142 0 -231.5 -73t-102.5 -207h-125q14 183 134.5 285t324.5 102q202 0 309.5 -98t107.5 -263v-591q0 -93 80 -93zM874 524v166h-2q-42 -127 -262 -127h-114q-77 0 -135 -20t-90.5 -54.5t-48 -75t-15.5 -85.5q0 -101 69 -172.5t201 -71.5q77 0 146.5 26.5t126.5 78.5
t90.5 138.5t33.5 196.5z" />
    <glyph glyph-name="atilde" unicode="&#xe3;" horiz-adv-x="1148" 
d="M418 1440q-48 0 -81.5 -40.5t-33.5 -117.5h-94q0 113 59.5 179.5t149.5 66.5q65 0 110 -25.5t90 -81.5q32 -41 57.5 -56t59.5 -15q48 0 81.5 41t33.5 116h96q0 -113 -59.5 -179t-151.5 -66q-112 0 -192 102q-35 44 -60.5 60t-64.5 16zM1077 104h68v-104h-86
q-83 0 -130.5 47.5t-47.5 130.5v94q-42 -139 -157 -217t-267 -78q-169 0 -274 93t-105 258q0 159 106.5 250.5t307.5 91.5h137q128 0 183.5 37t55.5 110q0 105 -78.5 165t-209.5 60q-142 0 -231.5 -73t-102.5 -207h-125q14 183 134.5 285t324.5 102q202 0 309.5 -98
t107.5 -263v-591q0 -93 80 -93zM874 524v166h-2q-42 -127 -262 -127h-114q-77 0 -135 -20t-90.5 -54.5t-48 -75t-15.5 -85.5q0 -101 69 -172.5t201 -71.5q77 0 146.5 26.5t126.5 78.5t90.5 138.5t33.5 196.5z" />
    <glyph glyph-name="adieresis" unicode="&#xe4;" horiz-adv-x="1148" 
d="M494 1487v-139h-129v139h129zM797 1487v-139h-129v139h129zM1077 104h68v-104h-86q-83 0 -130.5 47.5t-47.5 130.5v94q-42 -139 -157 -217t-267 -78q-169 0 -274 93t-105 258q0 159 106.5 250.5t307.5 91.5h137q128 0 183.5 37t55.5 110q0 105 -78.5 165t-209.5 60
q-142 0 -231.5 -73t-102.5 -207h-125q14 183 134.5 285t324.5 102q202 0 309.5 -98t107.5 -263v-591q0 -93 80 -93zM874 524v166h-2q-42 -127 -262 -127h-114q-77 0 -135 -20t-90.5 -54.5t-48 -75t-15.5 -85.5q0 -101 69 -172.5t201 -71.5q77 0 146.5 26.5t126.5 78.5
t90.5 138.5t33.5 196.5z" />
    <glyph glyph-name="aring" unicode="&#xe5;" horiz-adv-x="1148" 
d="M580 1257q-66 0 -113 46t-47 112t47 114t113 48t112.5 -48t46.5 -114t-46.5 -112t-112.5 -46zM580 1499q-34 0 -58 -24.5t-24 -59.5q0 -34 24 -58t58 -24t59 24t25 58q0 35 -25 59.5t-59 24.5zM1077 104h68v-104h-86q-83 0 -130.5 47.5t-47.5 130.5v94
q-42 -139 -157 -217t-267 -78q-169 0 -274 93t-105 258q0 159 106.5 250.5t307.5 91.5h137q128 0 183.5 37t55.5 110q0 105 -78.5 165t-209.5 60q-142 0 -231.5 -73t-102.5 -207h-125q14 183 134.5 285t324.5 102q202 0 309.5 -98t107.5 -263v-591q0 -93 80 -93zM874 524
v166h-2q-42 -127 -262 -127h-114q-77 0 -135 -20t-90.5 -54.5t-48 -75t-15.5 -85.5q0 -101 69 -172.5t201 -71.5q77 0 146.5 26.5t126.5 78.5t90.5 138.5t33.5 196.5z" />
    <glyph glyph-name="ae" unicode="&#xe6;" horiz-adv-x="1986" 
d="M1911 625v-93h-903q9 -207 120.5 -326.5t286.5 -119.5q128 0 224.5 70.5t136.5 189.5h125q-33 -162 -165.5 -265.5t-320.5 -103.5q-165 0 -287.5 85t-181.5 237q-61 -166 -189 -244t-286 -78q-172 0 -282.5 94.5t-110.5 254.5q0 155 105 243t309 88h147q130 0 185 40.5
t55 119.5q0 104 -82 164.5t-217 60.5q-142 0 -232.5 -73t-103.5 -207h-123q13 183 134.5 285t324.5 102q162 0 262.5 -67t132.5 -185q66 122 180 187t260 65q217 0 356.5 -149t139.5 -375zM1415 1042q-173 0 -285.5 -115t-121.5 -288h780q-9 180 -110 291.5t-263 111.5z
M885 524v164h-2q-39 -137 -262 -137h-125q-151 0 -220 -63.5t-69 -161.5q0 -102 71 -172t209 -70q83 0 153.5 26.5t126 78.5t87 138t31.5 197z" />
    <glyph glyph-name="ccedilla" unicode="&#xe7;" horiz-adv-x="1200" 
d="M625 86q83 0 153 29.5t116 77.5t74.5 103t37.5 112h129q-11 -85 -49 -161t-99.5 -136.5t-152.5 -96.5t-199 -37v-63q78 -2 120 -36t42 -97q0 -69 -51 -108.5t-142 -39.5h-151v91h133q100 0 100 65q0 28 -20.5 43.5t-53.5 15.5h-59v134q-218 23 -347.5 180.5t-129.5 402.5
q0 262 147.5 423t401.5 161q114 0 207.5 -35.5t156 -98t99.5 -144t47 -175.5h-129q-11 146 -112.5 246t-268.5 100q-193 0 -305.5 -131.5t-112.5 -345.5q0 -217 118.5 -348t299.5 -131z" />
    <glyph glyph-name="egrave" unicode="&#xe8;" horiz-adv-x="1206" 
d="M655 1249h-80l-149 269h141zM1130 625v-95h-923q9 -205 120.5 -324.5t286.5 -119.5q136 0 237.5 70.5t143.5 189.5h125q-34 -162 -172.5 -265.5t-333.5 -103.5q-242 0 -390 161t-148 425q0 271 148.5 428.5t389.5 157.5q222 0 369 -149.5t147 -374.5zM614 1042
q-173 0 -285.5 -116t-121.5 -289h803q-11 179 -118.5 292t-277.5 113z" />
    <glyph glyph-name="eacute" unicode="&#xe9;" horiz-adv-x="1206" 
d="M791 1518l-150 -269h-80l88 269h142zM1130 625v-95h-923q9 -205 120.5 -324.5t286.5 -119.5q136 0 237.5 70.5t143.5 189.5h125q-34 -162 -172.5 -265.5t-333.5 -103.5q-242 0 -390 161t-148 425q0 271 148.5 428.5t389.5 157.5q222 0 369 -149.5t147 -374.5zM614 1042
q-173 0 -285.5 -116t-121.5 -289h803q-11 179 -118.5 292t-277.5 113z" />
    <glyph glyph-name="ecircumflex" unicode="&#xea;" horiz-adv-x="1206" 
d="M604 1481l-135 -195h-121l219 285h76l219 -285h-121l-133 195h-4zM1130 625v-95h-923q9 -205 120.5 -324.5t286.5 -119.5q136 0 237.5 70.5t143.5 189.5h125q-34 -162 -172.5 -265.5t-333.5 -103.5q-242 0 -390 161t-148 425q0 271 148.5 428.5t389.5 157.5
q222 0 369 -149.5t147 -374.5zM614 1042q-173 0 -285.5 -116t-121.5 -289h803q-11 179 -118.5 292t-277.5 113z" />
    <glyph glyph-name="edieresis" unicode="&#xeb;" horiz-adv-x="1206" 
d="M518 1487v-139h-129v139h129zM821 1487v-139h-129v139h129zM1130 625v-95h-923q9 -205 120.5 -324.5t286.5 -119.5q136 0 237.5 70.5t143.5 189.5h125q-34 -162 -172.5 -265.5t-333.5 -103.5q-242 0 -390 161t-148 425q0 271 148.5 428.5t389.5 157.5q222 0 369 -149.5
t147 -374.5zM614 1042q-173 0 -285.5 -116t-121.5 -289h803q-11 179 -118.5 292t-277.5 113z" />
    <glyph glyph-name="igrave" unicode="&#xec;" horiz-adv-x="409" 
d="M176 1249l-149 269h141l88 -269h-80zM143 0v1126h123v-1126h-123z" />
    <glyph glyph-name="iacute" unicode="&#xed;" horiz-adv-x="409" 
d="M242 1249h-80l88 269h141zM143 0v1126h123v-1126h-123z" />
    <glyph glyph-name="icircumflex" unicode="&#xee;" horiz-adv-x="409" 
d="M340 1286l-133 195h-4l-135 -195h-121l219 285h76l219 -285h-121zM143 0v1126h123v-1126h-123z" />
    <glyph glyph-name="idieresis" unicode="&#xef;" horiz-adv-x="409" 
d="M-12 1348v139h131v-139h-131zM293 1348v139h129v-139h-129zM143 0v1126h123v-1126h-123z" />
    <glyph glyph-name="eth" unicode="&#xf0;" horiz-adv-x="1245" 
d="M907 1421q262 -310 262 -800q0 -300 -151.5 -472t-394.5 -172q-112 0 -211.5 41t-174 115t-118 186t-43.5 246q0 135 41.5 246t113.5 184t167 112.5t202 39.5q145 0 254.5 -69.5t173.5 -196.5q-47 287 -235 495l-318 -121v99l248 94q-105 99 -256 190h188
q109 -69 185 -145l270 104v-98zM621 86q176 -2 293.5 127.5t117.5 353.5q0 225 -116.5 349t-297.5 124t-296 -123t-115 -350q0 -224 118.5 -351.5t295.5 -129.5z" />
    <glyph glyph-name="ntilde" unicode="&#xf1;" horiz-adv-x="1173" 
d="M745 1262q-112 0 -192 102q-35 44 -60.5 60t-64.5 16q-48 0 -81.5 -40.5t-33.5 -117.5h-94q0 113 59.5 179.5t149.5 66.5q65 0 111 -25.5t90 -81.5q32 -41 57 -56t59 -15q48 0 81.5 41t33.5 116h96q0 -113 -59.5 -179t-151.5 -66zM143 0v1126h119v-247h4q22 53 55.5 99
t80.5 85.5t112.5 62.5t140.5 23q179 0 282 -118.5t103 -319.5v-711h-122v692q0 169 -77.5 258.5t-209.5 89.5q-72 0 -136.5 -26.5t-116 -76t-82 -128t-30.5 -174.5v-635h-123z" />
    <glyph glyph-name="ograve" unicode="&#xf2;" horiz-adv-x="1249" 
d="M596 1249l-150 269h142l88 -269h-80zM625 -23q-114 0 -213.5 40t-174.5 113.5t-118 185t-43 247.5t43 248t118 185.5t174.5 113t213.5 39.5q115 0 214.5 -39.5t174 -113t117.5 -185t43 -248.5q0 -136 -43 -247.5t-117.5 -185t-174 -113.5t-214.5 -40zM625 86
q183 2 301 129t118 348q0 222 -118 349.5t-301 129.5q-182 2 -300 -127t-118 -352q0 -222 118 -350.5t300 -126.5z" />
    <glyph glyph-name="oacute" unicode="&#xf3;" horiz-adv-x="1249" 
d="M662 1249h-80l88 269h141zM625 -23q-114 0 -213.5 40t-174.5 113.5t-118 185t-43 247.5t43 248t118 185.5t174.5 113t213.5 39.5q115 0 214.5 -39.5t174 -113t117.5 -185t43 -248.5q0 -136 -43 -247.5t-117.5 -185t-174 -113.5t-214.5 -40zM625 86q183 2 301 129t118 348
q0 222 -118 349.5t-301 129.5q-182 2 -300 -127t-118 -352q0 -222 118 -350.5t300 -126.5z" />
    <glyph glyph-name="ocircumflex" unicode="&#xf4;" horiz-adv-x="1249" 
d="M762 1286l-133 195h-4l-136 -195h-120l219 285h76l219 -285h-121zM625 -23q-114 0 -213.5 40t-174.5 113.5t-118 185t-43 247.5t43 248t118 185.5t174.5 113t213.5 39.5q115 0 214.5 -39.5t174 -113t117.5 -185t43 -248.5q0 -136 -43 -247.5t-117.5 -185t-174 -113.5
t-214.5 -40zM625 86q183 2 301 129t118 348q0 222 -118 349.5t-301 129.5q-182 2 -300 -127t-118 -352q0 -222 118 -350.5t300 -126.5z" />
    <glyph glyph-name="otilde" unicode="&#xf5;" horiz-adv-x="1249" 
d="M782 1262q-112 0 -192 102q-35 44 -60.5 60t-64.5 16q-48 0 -81.5 -40.5t-33.5 -117.5h-94q0 113 59.5 179.5t149.5 66.5q65 0 111 -25.5t90 -81.5q32 -41 57 -56t59 -15q48 0 81.5 41t33.5 116h96q0 -113 -59.5 -179t-151.5 -66zM625 -23q-114 0 -213.5 40t-174.5 113.5
t-118 185t-43 247.5t43 248t118 185.5t174.5 113t213.5 39.5q115 0 214.5 -39.5t174 -113t117.5 -185t43 -248.5q0 -136 -43 -247.5t-117.5 -185t-174 -113.5t-214.5 -40zM625 86q183 2 301 129t118 348q0 222 -118 349.5t-301 129.5q-182 2 -300 -127t-118 -352
q0 -222 118 -350.5t300 -126.5z" />
    <glyph glyph-name="odieresis" unicode="&#xf6;" horiz-adv-x="1249" 
d="M410 1348v139h129v-139h-129zM713 1348v139h129v-139h-129zM625 -23q-114 0 -213.5 40t-174.5 113.5t-118 185t-43 247.5t43 248t118 185.5t174.5 113t213.5 39.5q115 0 214.5 -39.5t174 -113t117.5 -185t43 -248.5q0 -136 -43 -247.5t-117.5 -185t-174 -113.5
t-214.5 -40zM625 86q183 2 301 129t118 348q0 222 -118 349.5t-301 129.5q-182 2 -300 -127t-118 -352q0 -222 118 -350.5t300 -126.5z" />
    <glyph glyph-name="divide" unicode="&#xf7;" horiz-adv-x="1126" 
d="M492 874v144h143v-144h-143zM102 524v105h922v-105h-922zM492 133v143h143v-143h-143z" />
    <glyph glyph-name="oslash" unicode="&#xf8;" horiz-adv-x="1249" 
d="M1040 967q134 -160 134 -404q0 -136 -43 -247.5t-117.5 -185t-174 -113.5t-214.5 -40q-201 0 -346 117l-111 -127l-72 68l113 127q-133 155 -133 401q0 136 43 248t118 185.5t174.5 113t213.5 39.5q200 0 344 -113l110 125l72 -65zM207 563q0 -181 84 -305l600 688
q-113 96 -266 96q-182 2 -300 -127t-118 -352zM625 86q183 2 301 129t118 348q0 181 -86 311l-602 -692q110 -96 269 -96z" />
    <glyph glyph-name="ugrave" unicode="&#xf9;" 
d="M541 1249l-150 269h141l89 -269h-80zM500 -23q-174 0 -275.5 119.5t-101.5 319.5v710h123v-692q0 -169 74.5 -257.5t203.5 -88.5q70 0 133.5 26.5t114 76t80 127.5t29.5 174v634h123v-1126h-119v248h-4q-22 -52 -54.5 -98t-79 -86t-110 -63.5t-137.5 -23.5z" />
    <glyph glyph-name="uacute" unicode="&#xfa;" 
d="M606 1249h-80l88 269h142zM500 -23q-174 0 -275.5 119.5t-101.5 319.5v710h123v-692q0 -169 74.5 -257.5t203.5 -88.5q70 0 133.5 26.5t114 76t80 127.5t29.5 174v634h123v-1126h-119v248h-4q-22 -52 -54.5 -98t-79 -86t-110 -63.5t-137.5 -23.5z" />
    <glyph glyph-name="ucircumflex" unicode="&#xfb;" 
d="M705 1286l-134 195h-4l-135 -195h-121l219 285h76l219 -285h-120zM500 -23q-174 0 -275.5 119.5t-101.5 319.5v710h123v-692q0 -169 74.5 -257.5t203.5 -88.5q70 0 133.5 26.5t114 76t80 127.5t29.5 174v634h123v-1126h-119v248h-4q-22 -52 -54.5 -98t-79 -86t-110 -63.5
t-137.5 -23.5z" />
    <glyph glyph-name="udieresis" unicode="&#xfc;" 
d="M354 1348v139h129v-139h-129zM657 1348v139h129v-139h-129zM500 -23q-174 0 -275.5 119.5t-101.5 319.5v710h123v-692q0 -169 74.5 -257.5t203.5 -88.5q70 0 133.5 26.5t114 76t80 127.5t29.5 174v634h123v-1126h-119v248h-4q-22 -52 -54.5 -98t-79 -86t-110 -63.5
t-137.5 -23.5z" />
    <glyph glyph-name="yacute" unicode="&#xfd;" horiz-adv-x="1019" 
d="M698 1518l-149 -269h-80l88 269h141zM860 1126h133l-551 -1405q-29 -69 -108 -69h-350v104h346l119 305l-422 1065h135l350 -923z" />
    <glyph glyph-name="thorn" unicode="&#xfe;" horiz-adv-x="1296" 
d="M266 1006q0 -89 -4 -142h4q54 129 166 207t270 78q108 0 201.5 -38.5t164.5 -110.5t112 -183t41 -248q0 -139 -41 -252.5t-112 -187t-164.5 -113t-201.5 -39.5q-151 0 -263 77t-173 208h-4q4 -47 4 -131v-479h-123v1986h123v-632zM682 86q116 -1 209 59t147 171t54 253
q0 211 -116.5 342t-293.5 131q-182 -2 -300 -128.5t-118 -342.5q0 -221 118.5 -353t299.5 -132z" />
    <glyph glyph-name="ydieresis" unicode="&#xff;" horiz-adv-x="1019" 
d="M426 1487v-139h-129v139h129zM729 1487v-139h-129v139h129zM860 1126h133l-551 -1405q-29 -69 -108 -69h-350v104h346l119 305l-422 1065h135l350 -923z" />
    <glyph glyph-name="dotlessi" unicode="&#x131;" horiz-adv-x="409" 
d="M143 0v1126h123v-1126h-123z" />
    <glyph glyph-name="Ldot" unicode="&#x13f;" horiz-adv-x="1091" 
d="M272 113h676v-113h-805v1434h129v-1321zM680 776v-129h-129v129h129z" />
    <glyph glyph-name="ldot" unicode="&#x140;" horiz-adv-x="559" 
d="M143 0v1638h123v-1638h-123zM410 653v129h129v-129h-129z" />
    <glyph glyph-name="Lslash" unicode="&#x141;" horiz-adv-x="950" 
d="M248 113h676v-113h-805v682l-139 -47v113l139 47v639h129v-598l250 84v-113l-250 -84v-610z" />
    <glyph glyph-name="lslash" unicode="&#x142;" horiz-adv-x="411" 
d="M399 1008v-109l-133 -49v-850h-123v805l-131 -49v108l131 49v725h123v-680z" />
    <glyph glyph-name="OE" unicode="&#x152;" horiz-adv-x="2260" 
d="M1444 111h776v-111h-901v299q-82 -159 -227.5 -243.5t-327.5 -84.5q-146 0 -270.5 50t-217.5 143.5t-145.5 235.5t-52.5 317t52.5 317t145.5 235t217.5 143t270.5 50q183 0 328 -84t227 -243v299h899v-109h-774v-551h694v-110h-694v-553zM764 84q115 1 214 42t175 118
t119 198.5t43 274.5q0 154 -43 275.5t-119 198.5t-175 117t-214 42q-116 2 -215 -38.5t-174.5 -118t-118.5 -200t-43 -276.5q0 -153 43 -275t118.5 -199.5t175 -118.5t214.5 -40z" />
    <glyph glyph-name="oe" unicode="&#x153;" horiz-adv-x="2174" 
d="M2099 625v-95h-925q9 -205 121.5 -324.5t287.5 -119.5q135 0 237 70.5t142 189.5h127q-36 -162 -174 -265.5t-332 -103.5q-167 0 -291.5 86t-183.5 238q-61 -155 -189.5 -239.5t-293.5 -84.5q-115 0 -214.5 39.5t-174 113t-117.5 185t-43 248.5t43 249t117.5 185
t174 112.5t214.5 39.5q165 0 293.5 -83.5t189.5 -236.5q58 152 183 236t292 84q222 0 369 -149.5t147 -374.5zM625 86q184 2 301.5 128t117.5 349q0 225 -117.5 351t-301.5 128q-182 2 -300 -126.5t-118 -352.5q0 -223 118 -351t300 -126zM1583 1042q-173 0 -285.5 -116.5
t-121.5 -288.5h800q-11 179 -118 292t-275 113z" />
    <glyph glyph-name="Scaron" unicode="&#x160;" horiz-adv-x="1257" 
d="M766 1866h121l-219 -285h-76l-219 285h121l135 -195h4zM649 -18q-253 0 -411.5 144.5t-163.5 369.5h131q6 -178 128 -290t316 -112q179 0 290.5 94t111.5 226q0 140 -90 205t-308 65h-121q-189 0 -310.5 94t-121.5 256q0 177 137 299.5t373 122.5q245 0 389 -134
t158 -353h-131q-12 173 -119.5 275t-296.5 102q-177 0 -277 -86.5t-100 -225.5q0 -120 87.5 -177.5t281.5 -57.5h96q238 0 362 -101t124 -284q0 -83 -37 -160.5t-104 -138t-169.5 -97t-224.5 -36.5z" />
    <glyph glyph-name="scaron" unicode="&#x161;" horiz-adv-x="1017" 
d="M645 1559h121l-219 -285h-76l-219 285h121l135 -195h4zM518 -23q-191 0 -315 112t-133 284h127q11 -127 99.5 -207t221.5 -80q138 0 219.5 71.5t81.5 166.5q0 107 -65 156.5t-224 49.5h-96q-153 0 -248.5 76t-95.5 209q0 142 110.5 238t303.5 96q195 0 304.5 -104.5
t121.5 -282.5h-127q-11 136 -87 208t-212 72q-135 0 -210 -62.5t-75 -164.5q0 -93 62.5 -135t207.5 -43h76q189 0 287 -83.5t98 -229.5q0 -65 -29 -126t-82 -111t-136.5 -80t-184.5 -30z" />
    <glyph glyph-name="Ydieresis" unicode="&#x178;" horiz-adv-x="1179" 
d="M504 1794v-139h-129v139h129zM807 1794v-139h-129v139h129zM1018 1434h141l-504 -840v-594h-131v594l-504 840h144l426 -734z" />
    <glyph glyph-name="Zcaron" unicode="&#x17d;" horiz-adv-x="1208" 
d="M643 1581h-76l-219 285h121l135 -195h4l133 195h121zM211 109h963v-109h-1137v84l917 1243h-872v107h1046v-82z" />
    <glyph glyph-name="zcaron" unicode="&#x17e;" horiz-adv-x="980" 
d="M530 1274h-75l-219 285h120l136 -195h4l133 195h121zM205 106h745v-106h-919v82l708 938h-667v106h841v-82z" />
    <glyph glyph-name="florin" unicode="&#x192;" horiz-adv-x="1277" 
d="M1030 1329q-89 0 -140 -55t-85 -182l-70 -258h352v-105h-380l-107 -387q-23 -83 -47.5 -139.5t-63 -105.5t-96 -73t-135.5 -24h-182v104h182q86 0 135 56t82 182l107 387h-342v105h370l70 258q24 84 48.5 139.5t64 105t98.5 73.5t139 24h172v-105h-172z" />
    <glyph glyph-name="circumflex" unicode="&#x2c6;" horiz-adv-x="595" 
d="M434 1286l-133 195h-4l-135 -195h-121l219 285h76l219 -285h-121z" />
    <glyph glyph-name="caron" unicode="&#x2c7;" horiz-adv-x="595" 
d="M434 1559h121l-219 -285h-76l-219 285h121l135 -195h4z" />
    <glyph glyph-name="breve" unicode="&#x2d8;" horiz-adv-x="565" 
d="M422 1552h102q0 -121 -64.5 -197.5t-176.5 -76.5t-177 76.5t-65 197.5h102q0 -85 38 -134.5t102 -49.5q66 0 102.5 49.5t36.5 134.5z" />
    <glyph glyph-name="dotaccent" unicode="&#x2d9;" horiz-adv-x="212" 
d="M41 1358v131h131v-131h-131z" />
    <glyph glyph-name="ring" unicode="&#x2da;" horiz-adv-x="401" 
d="M201 1257q-66 0 -113 46t-47 112t47 114t113 48t112.5 -48t46.5 -114t-46.5 -112t-112.5 -46zM201 1333q34 0 59 24t25 58q0 35 -25 59.5t-59 24.5t-58 -24.5t-24 -59.5q0 -34 24 -58t58 -24z" />
    <glyph glyph-name="ogonek" unicode="&#x2db;" horiz-adv-x="317" 
d="M264 -250h23v-98h-23q-99 0 -161 43.5t-62 126.5q0 65 39.5 112t105.5 66v18h90v-28h-10q-63 -17 -97 -56t-34 -86q0 -46 34 -72t95 -26z" />
    <glyph glyph-name="tilde" unicode="&#x2dc;" horiz-adv-x="849" 
d="M584 1262q-113 0 -193 102q-35 44 -60.5 60t-64.5 16q-48 0 -81 -40.5t-33 -117.5h-95q0 113 59.5 179.5t149.5 66.5q65 0 111 -25.5t90 -81.5q32 -41 57.5 -56t59.5 -15q48 0 81 41t33 116h97q0 -113 -59.5 -179t-151.5 -66z" />
    <glyph glyph-name="hungarumlaut" unicode="&#x2dd;" horiz-adv-x="595" 
d="M172 1538h137l-168 -285h-100zM418 1538h137l-168 -285h-100z" />
    <glyph glyph-name="uni0394" unicode="&#x394;" horiz-adv-x="1214" 
d="M678 1454l506 -1352v-102h-1153v102l506 1352h141zM608 1325l-444 -1219h887z" />
    <glyph glyph-name="uni03A9" unicode="&#x3a9;" horiz-adv-x="1525" 
d="M1057 106q393 274 393 676q0 193 -83.5 347t-240.5 243.5t-362 89.5t-362 -89.5t-240.5 -243.5t-83.5 -347q0 -403 391 -676h-360v-106h512v113q-208 149 -309 312.5t-101 362.5q0 250 157 408.5t396 155.5q238 3 395.5 -155.5t157.5 -408.5q0 -199 -101.5 -362.5
t-308.5 -312.5v-113h510v106h-360z" />
    <glyph glyph-name="uni03BC" unicode="&#x3bc;" horiz-adv-x="1187" 
d="M1100 104h84v-104h-111q-75 0 -120.5 46.5t-45.5 125.5v84h-4q-43 -126 -138.5 -202.5t-213.5 -76.5q-96 0 -173 47t-112 128v-500h-123v1474h123v-739q0 -80 25.5 -140t68 -93.5t90.5 -49.5t101 -16q147 0 246.5 109t99.5 303v626h123v-938q0 -84 80 -84z" />
    <glyph glyph-name="pi" unicode="&#x3c0;" horiz-adv-x="1132" 
d="M1112 1018h-225v-799q0 -55 27 -85t73 -30h125v-104h-145q-91 0 -148 59t-57 160v799h-389v-1018h-127v1018h-226v108h1092v-108z" />
    <glyph glyph-name="uni1E9E" unicode="&#x1e9e;" horiz-adv-x="2521" 
d="M1950 94q162 0 263 93t101 227q0 140 -89.5 205t-307.5 65h-121q-177 0 -289 94t-112 256q0 84 32.5 160t93 134.5t154.5 93t209 34.5q240 0 381.5 -134.5t155.5 -352.5h-131q-14 172 -118.5 273t-287.5 101q-168 0 -262 -86t-94 -223q0 -120 80 -177.5t258 -57.5h94
q238 0 362.5 -101t124.5 -284q0 -84 -35 -161.5t-97.5 -138t-158.5 -96.5t-210 -36q-136 0 -242 43.5t-191.5 137.5t-152.5 222t-135 317q-124 324 -274.5 482.5t-346.5 158.5q-178 0 -274.5 -85.5t-96.5 -223.5q0 -120 87.5 -177.5t281.5 -57.5h96q222 0 338.5 -102.5
t116.5 -286.5q0 -82 -35.5 -159t-100 -137.5t-163 -98t-215.5 -38.5q-248 3 -404 148.5t-161 368.5h131q6 -176 125.5 -288.5t308.5 -115.5q169 3 275 97t106 223q0 142 -83 208t-284 66h-121q-189 0 -310.5 94t-121.5 256q0 85 33 160.5t94.5 134t159 93t217.5 34.5
q251 0 422.5 -166.5t310.5 -537.5q49 -132 94 -228t100.5 -181t115.5 -137t136.5 -82t166.5 -30z" />
    <glyph glyph-name="uni2002" unicode="&#x2002;" horiz-adv-x="694" 
 />
    <glyph glyph-name="uni2003" unicode="&#x2003;" horiz-adv-x="1386" 
 />
    <glyph glyph-name="uni2009" unicode="&#x2009;" horiz-adv-x="131" 
 />
    <glyph glyph-name="uni200A" unicode="&#x200a;" horiz-adv-x="81" 
 />
    <glyph glyph-name="endash" unicode="&#x2013;" horiz-adv-x="1126" 
d="M51 524v105h1024v-105h-1024z" />
    <glyph glyph-name="emdash" unicode="&#x2014;" horiz-adv-x="2211" 
d="M102 524v105h2007v-105h-2007z" />
    <glyph glyph-name="quoteleft" unicode="&#x2018;" horiz-adv-x="419" 
d="M328 1454v-59q-64 -1 -97.5 -42.5t-33.5 -111.5h79v-154h-143v148q0 92 50 153.5t145 65.5z" />
    <glyph glyph-name="quoteright" unicode="&#x2019;" horiz-adv-x="419" 
d="M92 1087v60q65 3 98 44t33 109h-80v154h144v-147q0 -92 -49.5 -154t-145.5 -66z" />
    <glyph glyph-name="quotesinglbase" unicode="&#x201a;" horiz-adv-x="489" 
d="M129 -418v60q65 1 98 36.5t33 96.5v20h-80v154h144v-170q0 -81 -50.5 -137.5t-144.5 -59.5z" />
    <glyph glyph-name="quotedblleft" unicode="&#x201c;" horiz-adv-x="706" 
d="M328 1454v-59q-64 -1 -97.5 -42.5t-33.5 -111.5h79v-154h-143v148q0 92 50 153.5t145 65.5zM614 1454v-59q-64 -1 -97.5 -42.5t-33.5 -111.5h80v-154h-143v148q0 92 49.5 153.5t144.5 65.5z" />
    <glyph glyph-name="quotedblright" unicode="&#x201d;" horiz-adv-x="706" 
d="M92 1087v60q65 3 98 44t33 109h-80v154h144v-147q0 -92 -49.5 -154t-145.5 -66zM379 1087v60q65 3 98 44t33 109h-80v154h143v-147q0 -92 -49 -154t-145 -66z" />
    <glyph glyph-name="quotedblbase" unicode="&#x201e;" horiz-adv-x="1069" 
d="M129 -627v60q131 6 131 135v18h-80v154h144v-170q0 -81 -50.5 -137t-144.5 -60zM408 -627v60q65 3 98 38.5t33 96.5v18h-80v154h143v-170q0 -81 -50.5 -137t-143.5 -60z" />
    <glyph glyph-name="dagger" unicode="&#x2020;" horiz-adv-x="874" 
d="M793 1329v-106h-295v-752h-119v752h-297v106h297v309h119v-309h295z" />
    <glyph glyph-name="daggerdbl" unicode="&#x2021;" horiz-adv-x="874" 
d="M793 1223h-295v-336h295v-107h-295v-309h-119v309h-297v107h297v336h-297v106h297v309h119v-309h295v-106z" />
    <glyph glyph-name="bullet" unicode="&#x2022;" horiz-adv-x="643" 
d="M324 326q-88 0 -149.5 60.5t-61.5 148.5q0 87 61.5 147.5t149.5 60.5q86 0 146 -60t60 -148t-60 -148.5t-146 -60.5z" />
    <glyph glyph-name="ellipsis" unicode="&#x2026;" horiz-adv-x="1181" 
d="M162 0v154h143v-154h-143zM510 0v154h143v-154h-143zM858 0v154h143v-154h-143z" />
    <glyph glyph-name="perthousand" unicode="&#x2030;" horiz-adv-x="2611" 
d="M465 735q-143 0 -237.5 95.5t-94.5 259.5q0 166 94.5 261t237.5 95q145 0 239.5 -95t94.5 -261q0 -164 -95 -259.5t-239 -95.5zM1468 1434h-131l-999 -1434h131zM465 829q98 2 160.5 69.5t62.5 191.5q0 123 -62.5 191.5t-160.5 70.5q-96 2 -158.5 -68t-62.5 -194
q0 -125 62.5 -194t158.5 -67zM1339 -12q-143 0 -237 96t-94 260q0 165 94 260.5t237 95.5q144 0 239 -95.5t95 -260.5q0 -164 -95 -260t-239 -96zM2105 -12q-143 0 -237 96t-94 260q0 165 94 260.5t237 95.5q144 0 239 -95.5t95 -260.5q0 -164 -95 -260t-239 -96zM1339 84
q100 2 162 66t62 194q0 126 -63 193t-161 69q-96 2 -159.5 -68.5t-63.5 -193.5q0 -124 63.5 -193t159.5 -67zM2105 84q101 2 162.5 66t61.5 194q0 126 -62.5 193t-161.5 69q-96 2 -158.5 -68t-62.5 -194q0 -125 62.5 -193.5t158.5 -66.5z" />
    <glyph glyph-name="guilsinglleft" unicode="&#x2039;" horiz-adv-x="636" 
d="M195 573q123 -35 206.5 -144t102.5 -253h-115q-15 148 -101.5 246t-215.5 108v84q129 12 215.5 109.5t101.5 245.5h115q-19 -145 -102.5 -254t-206.5 -142z" />
    <glyph glyph-name="guilsinglright" unicode="&#x203a;" horiz-adv-x="636" 
d="M248 969q15 -148 101.5 -245.5t215.5 -109.5v-84q-129 -10 -215.5 -108t-101.5 -246h-115q19 144 102.5 253t206.5 144q-123 33 -206.5 142t-102.5 254h115z" />
    <glyph glyph-name="fraction" unicode="&#x2044;" horiz-adv-x="1118" 
d="M1118 1434h-119l-999 -1434h119z" />
    <glyph glyph-name="Euro" unicode="&#x20ac;" horiz-adv-x="1675" 
d="M930 82q113 0 209.5 40.5t159.5 105.5t102 141t49 153h133q-14 -112 -63.5 -210t-130 -175t-199.5 -121.5t-260 -44.5q-263 0 -443 149t-233 406h-172v105h158q-4 58 -4 88q0 32 4 90h-158v104h172q52 254 228.5 401.5t447.5 147.5q146 0 266 -45.5t200 -125t127.5 -183
t59.5 -223.5h-133q-7 95 -44.5 179t-101 149t-160.5 103t-214 38q-209 0 -350.5 -119t-188.5 -322h719v-104h-737q-4 -58 -4 -90q0 -30 4 -88h737v-105h-719q49 -207 195.5 -325.5t343.5 -118.5z" />
    <glyph glyph-name="trademark" unicode="&#x2122;" horiz-adv-x="1564" 
d="M102 1352v82h553v-82h-229v-643h-94v643h-230zM1462 1434v-725h-84v587l-227 -587h-100l-228 587v-587h-84v725h121l242 -623l239 623h121z" />
    <glyph glyph-name="arrowleft" unicode="&#x2190;" horiz-adv-x="1435" 
d="M1333 776v-114l-895 6q147 -76 245.5 -227.5t127.5 -344.5h-115q-25 161 -103 291t-206.5 208.5t-284.5 78.5v88q156 0 284.5 78.5t206.5 208.5t103 290h115q-29 -193 -128.5 -344.5t-246.5 -226.5z" />
    <glyph glyph-name="arrowup" unicode="&#x2191;" horiz-adv-x="1284" 
d="M709 1497q0 -156 78.5 -284.5t208.5 -206t290 -101.5v-114q-193 29 -344.5 128t-226.5 246l8 -899h-115l6 895q-76 -146 -227.5 -244t-343.5 -126v114q161 24 291 101.5t208.5 206t78.5 284.5h88z" />
    <glyph glyph-name="arrowright" unicode="&#x2192;" horiz-adv-x="1435" 
d="M741 1339q24 -160 101.5 -290t206 -208.5t284.5 -78.5v-88q-156 0 -284.5 -78.5t-206 -208.5t-101.5 -291h-114q28 192 126 344t244 228l-895 -6v114l899 -8q-147 75 -246 226.5t-128 344.5h114z" />
    <glyph glyph-name="arrowdown" unicode="&#x2193;" horiz-adv-x="1284" 
d="M715 270q75 147 226.5 246.5t344.5 128.5v-115q-119 -18 -224 -68.5t-183.5 -125.5t-124 -178t-45.5 -221h-88q0 156 -78.5 284.5t-208.5 206t-291 102.5v115q193 -29 344 -127.5t227 -245.5l-6 895h115z" />
    <glyph glyph-name="arrowboth" unicode="&#x2194;" horiz-adv-x="1619" 
d="M1182 1081q17 -131 108.5 -217.5t227.5 -95.5v-84q-137 -10 -228 -96.5t-108 -216.5h-115q14 96 67.5 176t139.5 129l-189 -4h-550l-187 4q86 -49 139.5 -129t67.5 -176h-115q-17 130 -109 216.5t-229 96.5v84q136 9 228.5 95.5t109.5 217.5h115q-14 -97 -69 -177.5
t-142 -129.5l191 4h550l193 -4q-87 49 -142 129.5t-69 177.5h115z" />
    <glyph glyph-name="arrowupdn" unicode="&#x2195;" horiz-adv-x="915" 
d="M813 981q-96 14 -176 67.5t-129 139.5l4 -187v-550l-4 -189q49 86 129 139.5t176 67.5v-115q-130 -17 -216.5 -108t-96.5 -228h-84q-9 136 -96 227t-218 109v115q97 -14 178 -69t130 -142l-4 193v550l4 191q-49 -87 -130 -142t-178 -69v115q131 17 218 109.5t96 228.5h84
q10 -137 96.5 -229t216.5 -109v-115z" />
    <glyph glyph-name="uni2196" unicode="&#x2196;" 
d="M1057 1348q-157 -116 -334 -153.5t-336 13.5l641 -628l-82 -82l-629 641q51 -159 14 -336t-153 -334l-82 82q96 131 133 277.5t2 293t-145 256.5l61 62q110 -110 257 -145t293.5 2t277.5 133z" />
    <glyph glyph-name="uni2197" unicode="&#x2197;" 
d="M1061 1378q-110 -110 -145 -256.5t2 -293t133 -277.5l-82 -82q-116 157 -153.5 334t13.5 336l-628 -641l-82 82l641 628q-159 -51 -336 -13.5t-334 153.5l82 82q131 -96 277.5 -133t293 -2t256.5 145z" />
    <glyph glyph-name="uni2198" unicode="&#x2198;" 
d="M1051 881q-96 -131 -133 -277.5t-2 -293.5t145 -257l-62 -61q-110 110 -256.5 145t-293 -2t-277.5 -133l-82 82q157 116 334 153t336 -14l-641 629l82 82l628 -641q-51 159 -13.5 336t153.5 334z" />
    <glyph glyph-name="uni2199" unicode="&#x2199;" 
d="M387 223q159 51 336 14t334 -153l-82 -82q-131 96 -277.5 133t-293.5 2t-257 -145l-61 61q110 110 145 257t-2 293.5t-133 277.5l82 82q116 -157 153 -334t-14 -336l629 641l82 -82z" />
    <glyph glyph-name="partialdiff" unicode="&#x2202;" horiz-adv-x="1130" 
d="M453 1536q311 -126 456.5 -334t145.5 -524q0 -147 -46 -278.5t-122.5 -223.5t-178 -145.5t-210.5 -53.5q-181 0 -301.5 139.5t-120.5 342.5q0 223 146.5 379.5t352.5 156.5q102 0 193.5 -41.5t149.5 -126.5q-26 221 -146 365.5t-360 247.5zM498 84q184 0 306 168t122 426
v39q-56 87 -139.5 129.5t-180.5 42.5q-174 0 -286.5 -124t-112.5 -310q0 -159 81.5 -265t209.5 -106z" />
    <glyph glyph-name="product" unicode="&#x220f;" horiz-adv-x="1173" 
d="M1133 1434v-109h-226v-1325h-125v1325h-389v-1325h-127v1325h-225v109h1092z" />
    <glyph glyph-name="summation" unicode="&#x2211;" horiz-adv-x="991" 
d="M940 1434v-105h-731l485 -743v-4l-485 -826h731v-104h-868v100l495 832l-495 749v101h868z" />
    <glyph glyph-name="minus" unicode="&#x2212;" horiz-adv-x="1126" 
d="M102 518v115h922v-115h-922z" />
    <glyph glyph-name="radical" unicode="&#x221a;" horiz-adv-x="1234" 
d="M1212 1434v-105h-315l-412 -1677h-135l-280 1016h108l238 -910l399 1674v2h397z" />
    <glyph glyph-name="infinity" unicode="&#x221e;" horiz-adv-x="1910" 
d="M1421 930q75 0 143 -25t120 -70.5t83 -116t31 -155.5q0 -112 -53 -197t-138 -127t-186 -42q-71 0 -136.5 21.5t-124.5 63.5t-104 84.5t-100 104.5q-55 -62 -100.5 -104.5t-104.5 -84.5t-124.5 -63.5t-137.5 -21.5q-100 0 -184.5 42t-138 127t-53.5 197q0 168 110.5 267.5
t265.5 99.5q71 0 137 -21.5t125 -63.5t104.5 -85t100.5 -105q55 62 100 104.5t104 85t124.5 64t136.5 21.5zM489 303q55 0 105.5 19.5t101.5 61t87 79t91 100.5q-55 63 -91 100.5t-87 79t-101.5 61t-105.5 19.5q-105 3 -182.5 -67t-77.5 -193q0 -122 77.5 -192t182.5 -68z
M1421 303q107 -2 184.5 67.5t77.5 192.5t-78 193t-184 67q-55 0 -105.5 -19.5t-101.5 -61t-87 -79t-91 -100.5q55 -63 91 -100.5t87 -79t101.5 -61t105.5 -19.5z" />
    <glyph glyph-name="integral" unicode="&#x222b;" horiz-adv-x="1228" 
d="M958 1638h183v-104h-183q-88 0 -137.5 -57t-68.5 -181l-189 -1302q-48 -342 -330 -342h-182v104h182q89 0 138.5 57t68.5 181l189 1302q48 342 329 342z" />
    <glyph glyph-name="approxequal" unicode="&#x2248;" horiz-adv-x="1077" 
d="M102 700q0 133 69 219.5t175 86.5q77 0 127.5 -36t110.5 -114q43 -58 72 -82t71 -24q62 0 98.5 53t36.5 143h113q0 -134 -68.5 -219.5t-173.5 -85.5q-42 0 -75.5 10.5t-62.5 33.5t-49.5 45.5t-49.5 60.5q-44 59 -72.5 82.5t-67.5 23.5q-65 0 -103 -53.5t-38 -143.5h-113z
M102 291q0 133 69 219t175 86q77 0 127.5 -36t110.5 -114q43 -58 72 -82t71 -24q62 0 98.5 53t36.5 144h113q0 -134 -68.5 -220t-173.5 -86q-42 0 -75.5 10.5t-62.5 33.5t-49.5 45.5t-49.5 60.5q-44 59 -72.5 82.5t-67.5 23.5q-66 0 -103.5 -53t-37.5 -143h-113z" />
    <glyph glyph-name="notequal" unicode="&#x2260;" horiz-adv-x="1253" 
d="M1151 739h-381l-176 -319h557v-107h-614l-123 -225h-109l123 225h-326v107h383l177 319h-560v107h617l123 225h108l-123 -225h324v-107z" />
    <glyph glyph-name="lessequal" unicode="&#x2264;" horiz-adv-x="1253" 
d="M1151 1022v-109l-899 -264l899 -264v-111l-1049 320v111zM102 51v107h1049v-107h-1049z" />
    <glyph glyph-name="greaterequal" unicode="&#x2265;" horiz-adv-x="1253" 
d="M102 1022l1049 -317v-111l-1049 -320v109l902 266l-902 266v107zM102 51v107h1049v-107h-1049z" />
    <glyph glyph-name="lozenge" unicode="&#x25ca;" horiz-adv-x="1153" 
d="M600 1462l375 -745l-375 -746h-121l-377 746l377 745h121zM543 102l301 615l-301 616h-6l-304 -616l304 -615h6z" />
    <glyph glyph-name="uni1E9E.salt" horiz-adv-x="1636" 
d="M1085 799q235 0 356.5 -101.5t121.5 -283.5q0 -83 -37 -160.5t-103.5 -138t-168 -97t-220.5 -36.5q-243 0 -397.5 144.5t-163.5 369.5h131q11 -179 128.5 -290.5t301.5 -111.5q174 0 285 94.5t111 225.5q0 141 -87.5 205.5t-300.5 64.5h-73q-191 0 -303.5 92t-112.5 244
q0 98 46 176.5t136 128.5h-278q-86 0 -132 -60t-46 -173v-1092h-129v1092q0 158 81.5 250t225.5 92h956v-109h-381q-164 0 -255 -80t-91 -207q0 -115 85.5 -177t252.5 -62h61z" />
    <glyph glyph-name="Y.ss04" horiz-adv-x="1013" 
d="M563 410l121 -301q17 -42 -5 -75.5t-67 -33.5h-592v109h535l-535 1325h138l344 -887l354 887h137z" />
    <glyph glyph-name="S.ss05" horiz-adv-x="1173" 
d="M102 0v113h535q146 0 232.5 80.5t86.5 214.5q0 122 -87 197t-232 75h-141q-181 0 -297.5 100t-116.5 267q0 180 116 283.5t298 103.5h555v-111h-555q-127 0 -203 -75.5t-76 -200.5q0 -113 76 -180.5t203 -67.5h141q200 0 327.5 -106t127.5 -285q0 -189 -127 -298.5
t-328 -109.5h-535z" />
    <glyph glyph-name="uni1E9E.ss05" horiz-adv-x="2525" 
d="M74 2v111h542q178 3 285 91t107 214q0 142 -83.5 208t-283.5 66h-121q-191 0 -311.5 94t-120.5 256q0 85 32 159t93 131.5t160 90.5t223 33q252 0 425 -167t312 -537q61 -164 120.5 -278.5t134.5 -203.5t167 -132.5t205 -43.5q164 0 261 89t97 227q0 141 -89.5 205.5
t-307.5 64.5h-121q-176 0 -288.5 94t-112.5 256q0 174 133.5 289t363.5 115h504v-111h-504q-174 0 -269 -80.5t-95 -212.5q0 -121 79 -178t259 -57h96q237 0 361 -101.5t124 -283.5q0 -86 -33.5 -163.5t-95 -136.5t-156 -93.5t-208.5 -34.5q-137 0 -246 44t-197 137
t-158 222.5t-138 316.5q-122 322 -274 481.5t-349 159.5q-184 0 -279.5 -82t-95.5 -219q0 -119 86 -177t283 -58h94q225 0 341 -102.5t116 -286.5q0 -80 -36 -154t-101.5 -132.5t-166 -93.5t-221.5 -36h-542z" />
    <glyph glyph-name="S.ss06" horiz-adv-x="1257" 
d="M649 -18q-253 0 -411.5 144.5t-163.5 369.5h131q6 -178 128 -290t316 -112q179 0 290.5 94t111.5 226q0 140 -90 205t-308 65h-121q-187 0 -309.5 103.5t-122.5 267.5q0 175 135.5 288t374.5 113h447v-110h-447q-180 0 -278.5 -77.5t-98.5 -213.5q0 -256 369 -256h96
q238 0 362 -101t124 -284q0 -83 -37 -160.5t-104 -138t-169.5 -97t-224.5 -36.5z" />
    <glyph glyph-name="G.ss07" horiz-adv-x="1531" 
d="M1327 686q34 0 56 -22t22 -54v-561q0 -34 -22 -56t-56 -22h-555q-149 0 -277.5 53.5t-220.5 149.5t-144 236.5t-52 308.5q0 218 84 386t242 262.5t368 94.5q143 0 261.5 -45.5t198.5 -124.5t128 -183t59 -224h-131q-7 94 -44.5 177.5t-101 148.5t-159.5 103t-211 38
q-256 0 -407.5 -175.5t-151.5 -457.5q0 -144 43 -264.5t118 -201t177.5 -125t220.5 -44.5h504v491h-524v111h575z" />
    <glyph glyph-name="E.ss08" horiz-adv-x="1122" 
d="M547 113h547v-113h-547q-224 0 -347.5 107t-123.5 284q0 118 64.5 203t189.5 123q-126 39 -190 123.5t-64 201.5q0 177 123.5 284.5t347.5 107.5h530v-111h-530q-163 0 -250.5 -74t-87.5 -207q0 -128 87.5 -199t250.5 -71h502v-110h-502q-163 0 -250.5 -71t-87.5 -200
q0 -132 87.5 -205t250.5 -73z" />
    <glyph glyph-name="Eacute.ss08" horiz-adv-x="1157" 
d="M825 1825l-149 -269h-80l88 269h141zM547 113h547v-113h-547q-224 0 -347.5 107t-123.5 284q0 118 64.5 203t189.5 123q-126 39 -190 123.5t-64 201.5q0 177 123.5 284.5t347.5 107.5h530v-111h-530q-163 0 -250.5 -74t-87.5 -207q0 -128 87.5 -199t250.5 -71h502v-110
h-502q-163 0 -250.5 -71t-87.5 -200q0 -132 87.5 -205t250.5 -73z" />
    <glyph glyph-name="Ecircumflex.ss08" horiz-adv-x="1157" 
d="M637 1788l-135 -195h-121l219 285h76l219 -285h-121l-133 195h-4zM547 113h547v-113h-547q-224 0 -347.5 107t-123.5 284q0 118 64.5 203t189.5 123q-126 39 -190 123.5t-64 201.5q0 177 123.5 284.5t347.5 107.5h530v-111h-530q-163 0 -250.5 -74t-87.5 -207
q0 -128 87.5 -199t250.5 -71h502v-110h-502q-163 0 -250.5 -71t-87.5 -200q0 -132 87.5 -205t250.5 -73z" />
    <glyph glyph-name="Edieresis.ss08" horiz-adv-x="1157" 
d="M551 1794v-139h-129v139h129zM854 1794v-139h-129v139h129zM547 113h547v-113h-547q-224 0 -347.5 107t-123.5 284q0 118 64.5 203t189.5 123q-126 39 -190 123.5t-64 201.5q0 177 123.5 284.5t347.5 107.5h530v-111h-530q-163 0 -250.5 -74t-87.5 -207q0 -128 87.5 -199
t250.5 -71h502v-110h-502q-163 0 -250.5 -71t-87.5 -200q0 -132 87.5 -205t250.5 -73z" />
    <glyph glyph-name="Egrave.ss08" horiz-adv-x="1157" 
d="M690 1556h-80l-149 269h141zM547 113h547v-113h-547q-224 0 -347.5 107t-123.5 284q0 118 64.5 203t189.5 123q-126 39 -190 123.5t-64 201.5q0 177 123.5 284.5t347.5 107.5h530v-111h-530q-163 0 -250.5 -74t-87.5 -207q0 -128 87.5 -199t250.5 -71h502v-110h-502
q-163 0 -250.5 -71t-87.5 -200q0 -132 87.5 -205t250.5 -73z" />
    <glyph glyph-name="F.ss08" horiz-adv-x="1122" 
d="M547 1323q-163 0 -250.5 -74t-87.5 -207q0 -128 87.5 -199t250.5 -71h502v-110h-502q-154 0 -236 -71t-82 -200v-391h-133v391q0 118 60 202.5t178 123.5q-127 38 -192.5 122.5t-65.5 202.5q0 177 123.5 284.5t347.5 107.5h530v-111h-530z" />
    <glyph glyph-name="Y.ss09" horiz-adv-x="1284" 
d="M1008 1434h127v-1356q0 -34 -21 -56t-55 -22h-920v109h869v444h-791q-33 0 -55.5 22.5t-22.5 55.5v803h129v-772h740v772z" />
    <glyph glyph-name="Q.ss10" horiz-adv-x="1525" 
d="M1450 717q0 -169 -50.5 -307.5t-139 -231t-208 -144.5t-259.5 -57l-86 -221h491v-104h-536q-49 0 -72.5 36t-5.5 79l82 217q-127 15 -234.5 71.5t-186.5 148t-123 223t-44 290.5q0 174 53 315t146 233t217.5 141.5t269.5 49.5t269.5 -49.5t217.5 -141.5t146 -233t53 -315
zM213 717q0 -150 43.5 -270.5t118.5 -198t174.5 -118.5t214.5 -40t214 42t174.5 118t119 197t43.5 270t-43 270t-119 196.5t-175 117t-214 42.5t-214.5 -38.5t-174.5 -117.5t-118.5 -198.5t-43.5 -271.5z" />
    <glyph glyph-name="Aacute.ss11" horiz-adv-x="1243" 
d="M868 1661v-51l-473 -78v45zM1083 0l-147 414h-629l-147 -414h-133l524 1434h141l525 -1434h-134zM346 524h551l-274 776z" />
    <glyph glyph-name="Acircumflex.ss11" horiz-adv-x="1243" 
d="M623 1618h-2l-220 -100v55l215 90h11l215 -90v-55zM1083 0l-147 414h-629l-147 -414h-133l524 1434h141l525 -1434h-134zM346 524h551l-274 776z" />
    <glyph glyph-name="Adieresis.ss11" horiz-adv-x="1243" 
d="M541 1657v-74h-74v74h74zM778 1657v-74h-73v74h73zM1083 0l-147 414h-629l-147 -414h-133l524 1434h141l525 -1434h-134zM346 524h551l-274 776z" />
    <glyph glyph-name="Agrave.ss11" horiz-adv-x="1243" 
d="M850 1577v-45l-473 78v51zM1083 0l-147 414h-629l-147 -414h-133l524 1434h141l525 -1434h-134zM346 524h551l-274 776z" />
    <glyph glyph-name="Aring.ss11" horiz-adv-x="1243" 
d="M623 1481q-59 0 -99.5 40.5t-40.5 98.5q0 59 41 100t99 41q59 0 100 -41.5t41 -99.5t-41 -98.5t-100 -40.5zM623 1720q-40 0 -69.5 -29.5t-29.5 -70.5t29.5 -69.5t69.5 -28.5t70 28.5t30 69.5t-30 70.5t-70 29.5zM1083 0l-147 414h-629l-147 -414h-133l524 1434h141
l525 -1434h-134zM346 524h551l-274 776z" />
    <glyph glyph-name="Atilde.ss11" horiz-adv-x="1243" 
d="M467 1669q-57 0 -97 -44.5t-40 -127.5h-47q0 100 52 157.5t132 57.5q62 0 104 -25.5t76 -78.5q27 -42 57 -60t70 -18q57 0 97 44.5t40 127.5h47q0 -101 -50.5 -158t-133.5 -57q-105 0 -168 96q-31 46 -61 66t-78 20zM1083 0l-147 414h-629l-147 -414h-133l524 1434h141
l525 -1434h-134zM346 524h551l-274 776z" />
    <glyph glyph-name="Ccedilla.ss11" horiz-adv-x="1472" 
d="M762 90q109 0 203 39.5t156 103.5t100.5 138.5t48.5 150.5h135q-15 -110 -63.5 -206.5t-127 -172.5t-194.5 -120.5t-254 -45.5v-77h70q151 0 151 -115q0 -66 -48.5 -98.5t-137.5 -32.5h-275v51h275q127 0 127 82q0 35 -24.5 53.5t-67.5 18.5h-119v121q-289 15 -464 216
t-175 523q0 217 81 383t237 260t366 94q144 0 262 -45t196.5 -124t125.5 -181t59 -221h-135q-7 93 -43.5 175t-99 145.5t-157 100.5t-208.5 37q-252 0 -400.5 -172.5t-148.5 -451.5q0 -142 42.5 -261t116 -199t174.5 -124.5t216 -44.5z" />
    <glyph glyph-name="Eth.ss11" horiz-adv-x="1415" 
d="M662 1434q144 0 267 -48t214 -137.5t142.5 -226.5t51.5 -305t-51.5 -305t-142.5 -226.5t-214 -137.5t-267 -48h-512v688h-130v53h130v693h512zM662 113q113 0 210.5 39t171.5 113.5t116 190.5t42 261q0 147 -42 263.5t-116 190.5t-171 112.5t-211 39.5h-383v-582h229v-53
h-229v-575h383z" />
    <glyph glyph-name="Eacute.ss11" horiz-adv-x="1157" 
d="M412 1577l473 84v-51l-473 -78v45zM150 0v1434h964v-111h-835v-539h755v-110h-755v-561h837v-113h-966z" />
    <glyph glyph-name="Ecircumflex.ss11" horiz-adv-x="1157" 
d="M858 1518l-219 100h-2l-219 -100v55l215 90h10l215 -90v-55zM150 0v1434h964v-111h-835v-539h755v-110h-755v-561h837v-113h-966z" />
    <glyph glyph-name="Edieresis.ss11" horiz-adv-x="1157" 
d="M483 1583v74h74v-74h-74zM721 1583v74h74v-74h-74zM150 0v1434h964v-111h-835v-539h755v-110h-755v-561h837v-113h-966z" />
    <glyph glyph-name="Egrave.ss11" horiz-adv-x="1157" 
d="M866 1577v-45l-473 78v51zM150 0v1434h964v-111h-835v-539h755v-110h-755v-561h837v-113h-966z" />
    <glyph glyph-name="Iacute.ss11" horiz-adv-x="428" 
d="M-14 1577l473 84v-51l-473 -78v45zM150 0v1434h129v-1434h-129z" />
    <glyph glyph-name="Icircumflex.ss11" horiz-adv-x="428" 
d="M432 1518l-219 100h-2l-219 -100v55l215 90h10l215 -90v-55zM150 0v1434h129v-1434h-129z" />
    <glyph glyph-name="Idieresis.ss11" horiz-adv-x="428" 
d="M59 1583v74h74v-74h-74zM297 1583v74h74v-74h-74zM150 0v1434h129v-1434h-129z" />
    <glyph glyph-name="Igrave.ss11" horiz-adv-x="428" 
d="M440 1577v-45l-473 78v51zM150 0v1434h129v-1434h-129z" />
    <glyph glyph-name="Ntilde.ss11" horiz-adv-x="1478" 
d="M586 1669q-57 0 -97 -44.5t-40 -127.5h-48q0 100 52 157.5t133 57.5q62 0 104 -25.5t76 -78.5q27 -42 57 -60t70 -18q57 0 97 44.5t40 127.5h47q0 -101 -50.5 -158t-133.5 -57q-105 0 -168 96q-31 46 -61 66t-78 20zM1202 1434h127v-1434h-168l-882 1280v-1280h-129v1434
h169l883 -1282v1282z" />
    <glyph glyph-name="Oacute.ss11" horiz-adv-x="1525" 
d="M537 1577l473 84v-51l-473 -78v45zM764 -23q-145 0 -270 50t-217.5 142t-145.5 233.5t-53 314.5q0 174 53 315t146 233t217.5 141.5t269.5 49.5t269.5 -49.5t217.5 -141.5t146 -233t53 -315q0 -173 -53 -314.5t-145.5 -233.5t-217.5 -142t-270 -50zM764 90q115 1 214 42
t174.5 118t119 197t43.5 270t-43 270t-119 196.5t-175 117t-214 42.5t-214.5 -38.5t-174.5 -117.5t-118.5 -198.5t-43.5 -271.5t43.5 -270.5t118.5 -198t174.5 -118.5t214.5 -40z" />
    <glyph glyph-name="Ocircumflex.ss11" horiz-adv-x="1525" 
d="M983 1518l-219 100h-2l-219 -100v55l215 90h10l215 -90v-55zM764 -23q-145 0 -270 50t-217.5 142t-145.5 233.5t-53 314.5q0 174 53 315t146 233t217.5 141.5t269.5 49.5t269.5 -49.5t217.5 -141.5t146 -233t53 -315q0 -173 -53 -314.5t-145.5 -233.5t-217.5 -142
t-270 -50zM764 90q115 1 214 42t174.5 118t119 197t43.5 270t-43 270t-119 196.5t-175 117t-214 42.5t-214.5 -38.5t-174.5 -117.5t-118.5 -198.5t-43.5 -271.5t43.5 -270.5t118.5 -198t174.5 -118.5t214.5 -40z" />
    <glyph glyph-name="Odieresis.ss11" horiz-adv-x="1525" 
d="M608 1583v74h74v-74h-74zM846 1583v74h74v-74h-74zM764 -23q-145 0 -270 50t-217.5 142t-145.5 233.5t-53 314.5q0 174 53 315t146 233t217.5 141.5t269.5 49.5t269.5 -49.5t217.5 -141.5t146 -233t53 -315q0 -173 -53 -314.5t-145.5 -233.5t-217.5 -142t-270 -50z
M764 90q115 1 214 42t174.5 118t119 197t43.5 270t-43 270t-119 196.5t-175 117t-214 42.5t-214.5 -38.5t-174.5 -117.5t-118.5 -198.5t-43.5 -271.5t43.5 -270.5t118.5 -198t174.5 -118.5t214.5 -40z" />
    <glyph glyph-name="Ograve.ss11" horiz-adv-x="1525" 
d="M991 1577v-45l-473 78v51zM764 -23q-145 0 -270 50t-217.5 142t-145.5 233.5t-53 314.5q0 174 53 315t146 233t217.5 141.5t269.5 49.5t269.5 -49.5t217.5 -141.5t146 -233t53 -315q0 -173 -53 -314.5t-145.5 -233.5t-217.5 -142t-270 -50zM764 90q115 1 214 42
t174.5 118t119 197t43.5 270t-43 270t-119 196.5t-175 117t-214 42.5t-214.5 -38.5t-174.5 -117.5t-118.5 -198.5t-43.5 -271.5t43.5 -270.5t118.5 -198t174.5 -118.5t214.5 -40z" />
    <glyph glyph-name="Oslash.ss11" horiz-adv-x="1525" 
d="M1255 1260q195 -201 195 -543q0 -173 -53 -314.5t-145.5 -233.5t-217.5 -142t-270 -50q-266 0 -453 158l-127 -151l-45 36l131 156q-192 198 -192 541q0 174 53 315t146 233t217.5 141.5t269.5 49.5q265 0 450 -156l125 150l45 -37zM213 717q0 -275 139 -443l781 930
q-148 136 -369 139q-115 2 -214.5 -38.5t-174.5 -117.5t-118.5 -198.5t-43.5 -271.5zM764 90q115 1 214 42t174.5 118t119 197t43.5 270q0 277 -141 444l-781 -930q144 -141 371 -141z" />
    <glyph glyph-name="Otilde.ss11" horiz-adv-x="1525" 
d="M915 1487q-104 0 -167 96q-31 46 -61.5 66t-78.5 20q-57 0 -97 -44.5t-40 -127.5h-47q0 100 52 157.5t132 57.5q62 0 104 -25.5t76 -78.5q27 -42 57 -60t70 -18q57 0 97.5 44.5t40.5 127.5h47q0 -101 -51 -158t-134 -57zM764 -23q-145 0 -270 50t-217.5 142t-145.5 233.5
t-53 314.5q0 174 53 315t146 233t217.5 141.5t269.5 49.5t269.5 -49.5t217.5 -141.5t146 -233t53 -315q0 -173 -53 -314.5t-145.5 -233.5t-217.5 -142t-270 -50zM764 90q115 1 214 42t174.5 118t119 197t43.5 270t-43 270t-119 196.5t-175 117t-214 42.5t-214.5 -38.5
t-174.5 -117.5t-118.5 -198.5t-43.5 -271.5t43.5 -270.5t118.5 -198t174.5 -118.5t214.5 -40z" />
    <glyph glyph-name="Scaron.ss11" horiz-adv-x="1257" 
d="M848 1663v-55l-215 -90h-10l-215 90v55l219 -100h2zM649 -18q-253 0 -411.5 144.5t-163.5 369.5h131q6 -178 128 -290t316 -112q179 0 290.5 94t111.5 226q0 140 -90 205t-308 65h-121q-189 0 -310.5 94t-121.5 256q0 177 137 299.5t373 122.5q245 0 389 -134t158 -353
h-131q-12 173 -119.5 275t-296.5 102q-177 0 -277 -86.5t-100 -225.5q0 -120 87.5 -177.5t281.5 -57.5h96q238 0 362 -101t124 -284q0 -83 -37 -160.5t-104 -138t-169.5 -97t-224.5 -36.5z" />
    <glyph glyph-name="Uacute.ss11" horiz-adv-x="1402" 
d="M475 1577l473 84v-51l-473 -78v45zM702 -23q-117 0 -217.5 40t-175 114t-117 187t-42.5 251v865h135v-871q0 -225 118 -350t299 -123q180 2 298 125.5t118 347.5v871h135v-865q0 -138 -42.5 -251t-116.5 -187t-174.5 -114t-217.5 -40z" />
    <glyph glyph-name="Ucircumflex.ss11" horiz-adv-x="1402" 
d="M922 1518l-220 100h-2l-219 -100v55l215 90h11l215 -90v-55zM702 -23q-117 0 -217.5 40t-175 114t-117 187t-42.5 251v865h135v-871q0 -225 118 -350t299 -123q180 2 298 125.5t118 347.5v871h135v-865q0 -138 -42.5 -251t-116.5 -187t-174.5 -114t-217.5 -40z" />
    <glyph glyph-name="Udieresis.ss11" horiz-adv-x="1402" 
d="M547 1583v74h74v-74h-74zM784 1583v74h74v-74h-74zM702 -23q-117 0 -217.5 40t-175 114t-117 187t-42.5 251v865h135v-871q0 -225 118 -350t299 -123q180 2 298 125.5t118 347.5v871h135v-865q0 -138 -42.5 -251t-116.5 -187t-174.5 -114t-217.5 -40z" />
    <glyph glyph-name="Ugrave.ss11" horiz-adv-x="1402" 
d="M930 1577v-45l-473 78v51zM702 -23q-117 0 -217.5 40t-175 114t-117 187t-42.5 251v865h135v-871q0 -225 118 -350t299 -123q180 2 298 125.5t118 347.5v871h135v-865q0 -138 -42.5 -251t-116.5 -187t-174.5 -114t-217.5 -40z" />
    <glyph glyph-name="Yacute.ss11" horiz-adv-x="1179" 
d="M836 1661v-51l-474 -78v45zM1018 1434h141l-504 -840v-594h-131v594l-504 840h144l426 -734z" />
    <glyph glyph-name="Ydieresis.ss11" horiz-adv-x="1179" 
d="M508 1657v-74h-74v74h74zM745 1657v-74h-73v74h73zM1018 1434h141l-504 -840v-594h-131v594l-504 840h144l426 -734z" />
    <glyph glyph-name="Zcaron.ss11" horiz-adv-x="1208" 
d="M610 1518h-10l-215 90v55l219 -100h2l219 100v-55zM211 109h963v-109h-1137v84l917 1243h-872v107h1046v-82z" />
    <glyph glyph-name="Eacute.ss08.ss11" horiz-adv-x="1122" 
d="M911 1661v-51l-473 -78v45zM547 113h547v-113h-547q-224 0 -347.5 107t-123.5 284q0 118 64.5 203t189.5 123q-126 39 -190 123.5t-64 201.5q0 177 123.5 284.5t347.5 107.5h530v-111h-530q-163 0 -250.5 -74t-87.5 -207q0 -128 87.5 -199t250.5 -71h502v-110h-502
q-163 0 -250.5 -71t-87.5 -200q0 -132 87.5 -205t250.5 -73z" />
    <glyph glyph-name="Ecircumflex.ss08.ss11" horiz-adv-x="1122" 
d="M666 1618h-2l-220 -100v55l215 90h11l215 -90v-55zM547 113h547v-113h-547q-224 0 -347.5 107t-123.5 284q0 118 64.5 203t189.5 123q-126 39 -190 123.5t-64 201.5q0 177 123.5 284.5t347.5 107.5h530v-111h-530q-163 0 -250.5 -74t-87.5 -207q0 -128 87.5 -199
t250.5 -71h502v-110h-502q-163 0 -250.5 -71t-87.5 -200q0 -132 87.5 -205t250.5 -73z" />
    <glyph glyph-name="Edieresis.ss08.ss11" horiz-adv-x="1122" 
d="M584 1657v-74h-74v74h74zM821 1657v-74h-73v74h73zM547 113h547v-113h-547q-224 0 -347.5 107t-123.5 284q0 118 64.5 203t189.5 123q-126 39 -190 123.5t-64 201.5q0 177 123.5 284.5t347.5 107.5h530v-111h-530q-163 0 -250.5 -74t-87.5 -207q0 -128 87.5 -199
t250.5 -71h502v-110h-502q-163 0 -250.5 -71t-87.5 -200q0 -132 87.5 -205t250.5 -73z" />
    <glyph glyph-name="Egrave.ss08.ss11" horiz-adv-x="1122" 
d="M893 1577v-45l-473 78v51zM547 113h547v-113h-547q-224 0 -347.5 107t-123.5 284q0 118 64.5 203t189.5 123q-126 39 -190 123.5t-64 201.5q0 177 123.5 284.5t347.5 107.5h530v-111h-530q-163 0 -250.5 -74t-87.5 -207q0 -128 87.5 -199t250.5 -71h502v-110h-502
q-163 0 -250.5 -71t-87.5 -200q0 -132 87.5 -205t250.5 -73z" />
    <glyph glyph-name="a.ss01" horiz-adv-x="1292" 
d="M1231 104h59v-104h-76q-85 0 -136 52.5t-52 144.5l-2 73h-2q-45 -136 -158.5 -214.5t-269.5 -78.5q-108 0 -201.5 39t-164.5 112.5t-111.5 186.5t-40.5 252q0 137 40.5 248.5t111.5 183.5t164.5 111t201.5 39q153 0 263.5 -80t158.5 -201h2v258h123v-925q0 -97 90 -97z
M616 86q186 0 297 124t111 357q0 218 -115 345.5t-293 129.5q-179 0 -294 -131.5t-115 -343.5q0 -215 115.5 -349t293.5 -132z" />
    <glyph glyph-name="aacute.ss01" horiz-adv-x="1292" 
d="M797 1518l-150 -269h-80l88 269h142zM1231 104h59v-104h-76q-85 0 -136 52.5t-52 144.5l-2 73h-2q-45 -136 -158.5 -214.5t-269.5 -78.5q-108 0 -201.5 39t-164.5 112.5t-111.5 186.5t-40.5 252q0 137 40.5 248.5t111.5 183.5t164.5 111t201.5 39q153 0 263.5 -80
t158.5 -201h2v258h123v-925q0 -97 90 -97zM616 86q186 0 297 124t111 357q0 218 -115 345.5t-293 129.5q-179 0 -294 -131.5t-115 -343.5q0 -215 115.5 -349t293.5 -132z" />
    <glyph glyph-name="acircumflex.ss01" horiz-adv-x="1292" 
d="M621 1481l-136 -195h-120l219 285h75l220 -285h-121l-133 195h-4zM1231 104h59v-104h-76q-85 0 -136 52.5t-52 144.5l-2 73h-2q-45 -136 -158.5 -214.5t-269.5 -78.5q-108 0 -201.5 39t-164.5 112.5t-111.5 186.5t-40.5 252q0 137 40.5 248.5t111.5 183.5t164.5 111
t201.5 39q153 0 263.5 -80t158.5 -201h2v258h123v-925q0 -97 90 -97zM616 86q186 0 297 124t111 357q0 218 -115 345.5t-293 129.5q-179 0 -294 -131.5t-115 -343.5q0 -215 115.5 -349t293.5 -132z" />
    <glyph glyph-name="adieresis.ss01" horiz-adv-x="1292" 
d="M524 1487v-139h-129v139h129zM827 1487v-139h-129v139h129zM1231 104h59v-104h-76q-85 0 -136 52.5t-52 144.5l-2 73h-2q-45 -136 -158.5 -214.5t-269.5 -78.5q-108 0 -201.5 39t-164.5 112.5t-111.5 186.5t-40.5 252q0 137 40.5 248.5t111.5 183.5t164.5 111t201.5 39
q153 0 263.5 -80t158.5 -201h2v258h123v-925q0 -97 90 -97zM616 86q186 0 297 124t111 357q0 218 -115 345.5t-293 129.5q-179 0 -294 -131.5t-115 -343.5q0 -215 115.5 -349t293.5 -132z" />
    <glyph glyph-name="agrave.ss01" horiz-adv-x="1292" 
d="M676 1249h-80l-150 269h142zM1231 104h59v-104h-76q-85 0 -136 52.5t-52 144.5l-2 73h-2q-45 -136 -158.5 -214.5t-269.5 -78.5q-108 0 -201.5 39t-164.5 112.5t-111.5 186.5t-40.5 252q0 137 40.5 248.5t111.5 183.5t164.5 111t201.5 39q153 0 263.5 -80t158.5 -201h2
v258h123v-925q0 -97 90 -97zM616 86q186 0 297 124t111 357q0 218 -115 345.5t-293 129.5q-179 0 -294 -131.5t-115 -343.5q0 -215 115.5 -349t293.5 -132z" />
    <glyph glyph-name="aring.ss01" horiz-adv-x="1292" 
d="M623 1257q-66 0 -113 46t-47 112t47 114t113 48t112.5 -48t46.5 -114t-46.5 -112t-112.5 -46zM623 1499q-34 0 -58 -24.5t-24 -59.5q0 -34 24 -58t58 -24t59 24t25 58q0 35 -25 59.5t-59 24.5zM1231 104h59v-104h-76q-85 0 -136 52.5t-52 144.5l-2 73h-2
q-45 -136 -158.5 -214.5t-269.5 -78.5q-108 0 -201.5 39t-164.5 112.5t-111.5 186.5t-40.5 252q0 137 40.5 248.5t111.5 183.5t164.5 111t201.5 39q153 0 263.5 -80t158.5 -201h2v258h123v-925q0 -97 90 -97zM616 86q186 0 297 124t111 357q0 218 -115 345.5t-293 129.5
q-179 0 -294 -131.5t-115 -343.5q0 -215 115.5 -349t293.5 -132z" />
    <glyph glyph-name="atilde.ss01" horiz-adv-x="1292" 
d="M459 1440q-48 0 -81.5 -40.5t-33.5 -117.5h-94q0 113 59.5 179.5t149.5 66.5q65 0 110 -25.5t90 -81.5q32 -41 57.5 -56t59.5 -15q48 0 81.5 41t33.5 116h96q0 -113 -59.5 -179t-151.5 -66q-112 0 -192 102q-35 44 -60.5 60t-64.5 16zM1231 104h59v-104h-76
q-85 0 -136 52.5t-52 144.5l-2 73h-2q-45 -136 -158.5 -214.5t-269.5 -78.5q-108 0 -201.5 39t-164.5 112.5t-111.5 186.5t-40.5 252q0 137 40.5 248.5t111.5 183.5t164.5 111t201.5 39q153 0 263.5 -80t158.5 -201h2v258h123v-925q0 -97 90 -97zM616 86q186 0 297 124
t111 357q0 218 -115 345.5t-293 129.5q-179 0 -294 -131.5t-115 -343.5q0 -215 115.5 -349t293.5 -132z" />
    <glyph glyph-name="g.ss02" horiz-adv-x="1294" 
d="M1030 1126h121v-915q0 -277 -141 -429.5t-389 -152.5q-205 0 -325.5 88t-133.5 213h121q19 -82 110 -138t221 -56q183 0 299.5 116t116.5 332v84h-2q-53 -128 -166.5 -202t-267.5 -74q-108 0 -201.5 38.5t-164.5 111t-111.5 184t-40.5 249.5q0 135 41 245t111.5 181
t164.5 109.5t201 38.5q157 0 271.5 -78.5t164.5 -202.5h4q-4 45 -4 123v135zM616 100q187 0 302.5 129t115.5 346q0 214 -117.5 339.5t-300.5 127.5q-179 0 -294 -126.5t-115 -340.5q0 -216 115.5 -346.5t293.5 -128.5z" />
    <glyph glyph-name="g.ss03" horiz-adv-x="1228" 
d="M1030 1126h121v-1001q0 -239 -134 -364.5t-366 -125.5h-483v107h477q178 0 281.5 98t103.5 283v145h-2q-52 -121 -160 -198.5t-264 -77.5q-108 0 -201.5 38.5t-164.5 111t-111.5 184t-40.5 249.5q0 135 41 245t111.5 181t164.5 109.5t201 38.5q154 0 266.5 -80
t159.5 -201h4q-4 45 -4 123v135zM627 100q183 0 295 129t112 346q0 214 -114 339.5t-293 127.5q-179 0 -294.5 -126.5t-115.5 -340.5q0 -216 116 -346.5t294 -128.5z" />
    <glyph glyph-name="y.ss04" horiz-adv-x="1050" 
d="M582 61l125 -303q15 -41 -7.5 -73.5t-66.5 -32.5h-596v106h541l-551 1368h135l358 -927l369 927h137z" />
    <glyph glyph-name="s.ss05" horiz-adv-x="993" 
d="M94 0v106h422q125 0 201 63.5t76 164.5q0 196 -256 196h-131q-149 0 -241.5 81t-92.5 223q0 139 98.5 215.5t271.5 76.5h430v-106h-419q-118 0 -184 -49.5t-66 -136.5q0 -92 59 -144.5t170 -52.5h121q178 0 273.5 -79t95.5 -224q0 -152 -107 -243t-289 -91h-432z" />
    <glyph glyph-name="s.ss06" horiz-adv-x="1017" 
d="M528 -23q-196 0 -322.5 112t-135.5 284h127q11 -127 102.5 -207t228.5 -80q133 0 212 71.5t79 166.5q0 107 -65 156.5t-224 49.5h-96q-153 0 -248.5 76t-95.5 209q0 141 108 237.5t296 96.5h378v-107h-378q-129 0 -202 -62.5t-73 -164.5q0 -93 62.5 -135t207.5 -43h76
q189 0 287 -83.5t98 -229.5q0 -65 -28.5 -126.5t-80.5 -111t-133.5 -79.5t-179.5 -30z" />
    <glyph glyph-name="aacute.ss11" horiz-adv-x="1148" 
d="M825 1354v-51l-473 -78v45zM1077 104h68v-104h-86q-83 0 -130.5 47.5t-47.5 130.5v94q-42 -139 -157 -217t-267 -78q-169 0 -274 93t-105 258q0 159 106.5 250.5t307.5 91.5h137q128 0 183.5 37t55.5 110q0 105 -78.5 165t-209.5 60q-142 0 -231.5 -73t-102.5 -207h-125
q14 183 134.5 285t324.5 102q202 0 309.5 -98t107.5 -263v-591q0 -93 80 -93zM874 524v166h-2q-42 -127 -262 -127h-114q-77 0 -135 -20t-90.5 -54.5t-48 -75t-15.5 -85.5q0 -101 69 -172.5t201 -71.5q77 0 146.5 26.5t126.5 78.5t90.5 138.5t33.5 196.5z" />
    <glyph glyph-name="acircumflex.ss11" horiz-adv-x="1148" 
d="M580 1311h-2l-220 -101v56l215 90h11l215 -90v-56zM1077 104h68v-104h-86q-83 0 -130.5 47.5t-47.5 130.5v94q-42 -139 -157 -217t-267 -78q-169 0 -274 93t-105 258q0 159 106.5 250.5t307.5 91.5h137q128 0 183.5 37t55.5 110q0 105 -78.5 165t-209.5 60
q-142 0 -231.5 -73t-102.5 -207h-125q14 183 134.5 285t324.5 102q202 0 309.5 -98t107.5 -263v-591q0 -93 80 -93zM874 524v166h-2q-42 -127 -262 -127h-114q-77 0 -135 -20t-90.5 -54.5t-48 -75t-15.5 -85.5q0 -101 69 -172.5t201 -71.5q77 0 146.5 26.5t126.5 78.5
t90.5 138.5t33.5 196.5z" />
    <glyph glyph-name="adieresis.ss11" horiz-adv-x="1148" 
d="M498 1350v-74h-74v74h74zM735 1350v-74h-73v74h73zM1077 104h68v-104h-86q-83 0 -130.5 47.5t-47.5 130.5v94q-42 -139 -157 -217t-267 -78q-169 0 -274 93t-105 258q0 159 106.5 250.5t307.5 91.5h137q128 0 183.5 37t55.5 110q0 105 -78.5 165t-209.5 60
q-142 0 -231.5 -73t-102.5 -207h-125q14 183 134.5 285t324.5 102q202 0 309.5 -98t107.5 -263v-591q0 -93 80 -93zM874 524v166h-2q-42 -127 -262 -127h-114q-77 0 -135 -20t-90.5 -54.5t-48 -75t-15.5 -85.5q0 -101 69 -172.5t201 -71.5q77 0 146.5 26.5t126.5 78.5
t90.5 138.5t33.5 196.5z" />
    <glyph glyph-name="agrave.ss11" horiz-adv-x="1148" 
d="M807 1270v-45l-473 78v51zM1077 104h68v-104h-86q-83 0 -130.5 47.5t-47.5 130.5v94q-42 -139 -157 -217t-267 -78q-169 0 -274 93t-105 258q0 159 106.5 250.5t307.5 91.5h137q128 0 183.5 37t55.5 110q0 105 -78.5 165t-209.5 60q-142 0 -231.5 -73t-102.5 -207h-125
q14 183 134.5 285t324.5 102q202 0 309.5 -98t107.5 -263v-591q0 -93 80 -93zM874 524v166h-2q-42 -127 -262 -127h-114q-77 0 -135 -20t-90.5 -54.5t-48 -75t-15.5 -85.5q0 -101 69 -172.5t201 -71.5q77 0 146.5 26.5t126.5 78.5t90.5 138.5t33.5 196.5z" />
    <glyph glyph-name="aring.ss11" horiz-adv-x="1148" 
d="M580 1174q-59 0 -99.5 40.5t-40.5 98.5q0 59 41 100t99 41t99.5 -41t41.5 -100q0 -58 -41 -98.5t-100 -40.5zM580 1413q-40 0 -69.5 -29.5t-29.5 -70.5t29.5 -70t69.5 -29t70 29t30 70t-30 70.5t-70 29.5zM1077 104h68v-104h-86q-83 0 -130.5 47.5t-47.5 130.5v94
q-42 -139 -157 -217t-267 -78q-169 0 -274 93t-105 258q0 159 106.5 250.5t307.5 91.5h137q128 0 183.5 37t55.5 110q0 105 -78.5 165t-209.5 60q-142 0 -231.5 -73t-102.5 -207h-125q14 183 134.5 285t324.5 102q202 0 309.5 -98t107.5 -263v-591q0 -93 80 -93zM874 524
v166h-2q-42 -127 -262 -127h-114q-77 0 -135 -20t-90.5 -54.5t-48 -75t-15.5 -85.5q0 -101 69 -172.5t201 -71.5q77 0 146.5 26.5t126.5 78.5t90.5 138.5t33.5 196.5z" />
    <glyph glyph-name="atilde.ss11" horiz-adv-x="1148" 
d="M424 1362q-57 0 -97 -44.5t-40 -127.5h-47q0 100 52 157.5t132 57.5q62 0 104 -26t76 -79q27 -42 56.5 -59.5t70.5 -17.5q57 0 97 44.5t40 127.5h47q0 -101 -50.5 -158t-133.5 -57q-105 0 -168 96q-31 46 -61 66t-78 20zM1077 104h68v-104h-86q-83 0 -130.5 47.5
t-47.5 130.5v94q-42 -139 -157 -217t-267 -78q-169 0 -274 93t-105 258q0 159 106.5 250.5t307.5 91.5h137q128 0 183.5 37t55.5 110q0 105 -78.5 165t-209.5 60q-142 0 -231.5 -73t-102.5 -207h-125q14 183 134.5 285t324.5 102q202 0 309.5 -98t107.5 -263v-591
q0 -93 80 -93zM874 524v166h-2q-42 -127 -262 -127h-114q-77 0 -135 -20t-90.5 -54.5t-48 -75t-15.5 -85.5q0 -101 69 -172.5t201 -71.5q77 0 146.5 26.5t126.5 78.5t90.5 138.5t33.5 196.5z" />
    <glyph glyph-name="ccedilla.ss11" horiz-adv-x="1200" 
d="M625 86q83 0 153 29.5t116 77.5t74.5 103t37.5 112h129q-11 -86 -50 -162.5t-101.5 -137t-155.5 -96t-203 -35.5h-4v-77h69q152 0 152 -115q0 -66 -49 -98.5t-138 -32.5h-274v51h274q127 0 127 82q0 35 -24.5 53.5t-67.5 18.5h-119v121q-225 19 -360 177.5t-135 407.5
q0 262 147.5 423t401.5 161q114 0 207.5 -35.5t156 -98t99.5 -144t47 -175.5h-129q-11 146 -112.5 246t-268.5 100q-193 0 -305.5 -131.5t-112.5 -345.5q0 -217 118.5 -348t299.5 -131z" />
    <glyph glyph-name="eacute.ss11" horiz-adv-x="1206" 
d="M850 1354v-51l-473 -78v45zM1130 625v-95h-923q9 -205 120.5 -324.5t286.5 -119.5q136 0 237.5 70.5t143.5 189.5h125q-34 -162 -172.5 -265.5t-333.5 -103.5q-242 0 -390 161t-148 425q0 271 148.5 428.5t389.5 157.5q222 0 369 -149.5t147 -374.5zM614 1042
q-173 0 -285.5 -116t-121.5 -289h803q-11 179 -118.5 292t-277.5 113z" />
    <glyph glyph-name="ecircumflex.ss11" horiz-adv-x="1206" 
d="M604 1311h-2l-219 -101v56l215 90h10l215 -90v-56zM1130 625v-95h-923q9 -205 120.5 -324.5t286.5 -119.5q136 0 237.5 70.5t143.5 189.5h125q-34 -162 -172.5 -265.5t-333.5 -103.5q-242 0 -390 161t-148 425q0 271 148.5 428.5t389.5 157.5q222 0 369 -149.5
t147 -374.5zM614 1042q-173 0 -285.5 -116t-121.5 -289h803q-11 179 -118.5 292t-277.5 113z" />
    <glyph glyph-name="edieresis.ss11" horiz-adv-x="1206" 
d="M522 1350v-74h-73v74h73zM760 1350v-74h-74v74h74zM1130 625v-95h-923q9 -205 120.5 -324.5t286.5 -119.5q136 0 237.5 70.5t143.5 189.5h125q-34 -162 -172.5 -265.5t-333.5 -103.5q-242 0 -390 161t-148 425q0 271 148.5 428.5t389.5 157.5q222 0 369 -149.5
t147 -374.5zM614 1042q-173 0 -285.5 -116t-121.5 -289h803q-11 179 -118.5 292t-277.5 113z" />
    <glyph glyph-name="egrave.ss11" horiz-adv-x="1206" 
d="M831 1270v-45l-473 78v51zM1130 625v-95h-923q9 -205 120.5 -324.5t286.5 -119.5q136 0 237.5 70.5t143.5 189.5h125q-34 -162 -172.5 -265.5t-333.5 -103.5q-242 0 -390 161t-148 425q0 271 148.5 428.5t389.5 157.5q222 0 369 -149.5t147 -374.5zM614 1042
q-173 0 -285.5 -116t-121.5 -289h803q-11 179 -118.5 292t-277.5 113z" />
    <glyph glyph-name="iacute.ss11" horiz-adv-x="409" 
d="M-23 1270l474 84v-51l-474 -78v45zM143 0v1126h123v-1126h-123z" />
    <glyph glyph-name="icircumflex.ss11" horiz-adv-x="409" 
d="M424 1210l-219 101h-2l-219 -101v56l215 90h10l215 -90v-56zM143 0v1126h123v-1126h-123z" />
    <glyph glyph-name="idieresis.ss11" horiz-adv-x="409" 
d="M49 1276v74h74v-74h-74zM287 1276v74h73v-74h-73zM143 0v1126h123v-1126h-123z" />
    <glyph glyph-name="igrave.ss11" horiz-adv-x="409" 
d="M432 1270v-45l-473 78v51zM143 0v1126h123v-1126h-123z" />
    <glyph glyph-name="ntilde.ss11" horiz-adv-x="1173" 
d="M739 1180q-105 0 -168 96q-31 46 -61 66t-78 20q-57 0 -97 -44.5t-40 -127.5h-47q0 100 52 157.5t132 57.5q62 0 104 -26t76 -79q27 -42 56.5 -59.5t70.5 -17.5q57 0 97.5 44.5t40.5 127.5h47q0 -101 -51 -158t-134 -57zM143 0v1126h119v-247h4q22 53 55.5 99t80.5 85.5
t112.5 62.5t140.5 23q179 0 282 -118.5t103 -319.5v-711h-122v692q0 169 -77.5 258.5t-209.5 89.5q-72 0 -136.5 -26.5t-116 -76t-82 -128t-30.5 -174.5v-635h-123z" />
    <glyph glyph-name="oacute.ss11" horiz-adv-x="1249" 
d="M397 1270l473 84v-51l-473 -78v45zM625 -23q-114 0 -213.5 40t-174.5 113.5t-118 185t-43 247.5t43 248t118 185.5t174.5 113t213.5 39.5q115 0 214.5 -39.5t174 -113t117.5 -185t43 -248.5q0 -136 -43 -247.5t-117.5 -185t-174 -113.5t-214.5 -40zM625 86q183 2 301 129
t118 348q0 222 -118 349.5t-301 129.5q-182 2 -300 -127t-118 -352q0 -222 118 -350.5t300 -126.5z" />
    <glyph glyph-name="ocircumflex.ss11" horiz-adv-x="1249" 
d="M844 1210l-219 101h-2l-220 -101v56l215 90h11l215 -90v-56zM625 -23q-114 0 -213.5 40t-174.5 113.5t-118 185t-43 247.5t43 248t118 185.5t174.5 113t213.5 39.5q115 0 214.5 -39.5t174 -113t117.5 -185t43 -248.5q0 -136 -43 -247.5t-117.5 -185t-174 -113.5
t-214.5 -40zM625 86q183 2 301 129t118 348q0 222 -118 349.5t-301 129.5q-182 2 -300 -127t-118 -352q0 -222 118 -350.5t300 -126.5z" />
    <glyph glyph-name="odieresis.ss11" horiz-adv-x="1249" 
d="M469 1276v74h74v-74h-74zM707 1276v74h73v-74h-73zM625 -23q-114 0 -213.5 40t-174.5 113.5t-118 185t-43 247.5t43 248t118 185.5t174.5 113t213.5 39.5q115 0 214.5 -39.5t174 -113t117.5 -185t43 -248.5q0 -136 -43 -247.5t-117.5 -185t-174 -113.5t-214.5 -40z
M625 86q183 2 301 129t118 348q0 222 -118 349.5t-301 129.5q-182 2 -300 -127t-118 -352q0 -222 118 -350.5t300 -126.5z" />
    <glyph glyph-name="ograve.ss11" horiz-adv-x="1249" 
d="M852 1270v-45l-473 78v51zM625 -23q-114 0 -213.5 40t-174.5 113.5t-118 185t-43 247.5t43 248t118 185.5t174.5 113t213.5 39.5q115 0 214.5 -39.5t174 -113t117.5 -185t43 -248.5q0 -136 -43 -247.5t-117.5 -185t-174 -113.5t-214.5 -40zM625 86q183 2 301 129t118 348
q0 222 -118 349.5t-301 129.5q-182 2 -300 -127t-118 -352q0 -222 118 -350.5t300 -126.5z" />
    <glyph glyph-name="oslash.ss11" horiz-adv-x="1249" 
d="M1022 987q152 -162 152 -424q0 -136 -43 -247.5t-117.5 -185t-174 -113.5t-214.5 -40q-214 0 -367 134l-111 -127l-34 36l110 125q-147 160 -147 418q0 136 43 248t118 185.5t174.5 113t213.5 39.5q213 0 362 -127l109 125l34 -37zM207 563q0 -193 96 -323l604 692
q-113 110 -282 110q-182 2 -300 -127t-118 -352zM625 86q183 2 301 129t118 348q0 199 -102 332l-606 -694q115 -115 289 -115z" />
    <glyph glyph-name="otilde.ss11" horiz-adv-x="1249" 
d="M776 1180q-105 0 -168 96q-31 46 -61 66t-78 20q-57 0 -97 -44.5t-40 -127.5h-47q0 100 52 157.5t132 57.5q62 0 104 -26t76 -79q27 -42 56.5 -59.5t70.5 -17.5q57 0 97 44.5t40 127.5h48q0 -101 -51 -158t-134 -57zM625 -23q-114 0 -213.5 40t-174.5 113.5t-118 185
t-43 247.5t43 248t118 185.5t174.5 113t213.5 39.5q115 0 214.5 -39.5t174 -113t117.5 -185t43 -248.5q0 -136 -43 -247.5t-117.5 -185t-174 -113.5t-214.5 -40zM625 86q183 2 301 129t118 348q0 222 -118 349.5t-301 129.5q-182 2 -300 -127t-118 -352q0 -222 118 -350.5
t300 -126.5z" />
    <glyph glyph-name="scaron.ss11" horiz-adv-x="1017" 
d="M729 1356v-56l-215 -90h-10l-215 90v56l219 -101h2zM518 -23q-191 0 -315 112t-133 284h127q11 -127 99.5 -207t221.5 -80q138 0 219.5 71.5t81.5 166.5q0 107 -65 156.5t-224 49.5h-96q-153 0 -248.5 76t-95.5 209q0 142 110.5 238t303.5 96q195 0 304.5 -104.5
t121.5 -282.5h-127q-11 136 -87 208t-212 72q-135 0 -210 -62.5t-75 -164.5q0 -93 62.5 -135t207.5 -43h76q189 0 287 -83.5t98 -229.5q0 -65 -29 -126t-82 -111t-136.5 -80t-184.5 -30z" />
    <glyph glyph-name="aacute.ss01.ss11" horiz-adv-x="1292" 
d="M834 1354v-51l-474 -78v45zM1231 104h59v-104h-76q-85 0 -136 52.5t-52 144.5l-2 73h-2q-45 -136 -158.5 -214.5t-269.5 -78.5q-108 0 -201.5 39t-164.5 112.5t-111.5 186.5t-40.5 252q0 137 40.5 248.5t111.5 183.5t164.5 111t201.5 39q153 0 263.5 -80t158.5 -201h2
v258h123v-925q0 -97 90 -97zM616 86q186 0 297 124t111 357q0 218 -115 345.5t-293 129.5q-179 0 -294 -131.5t-115 -343.5q0 -215 115.5 -349t293.5 -132z" />
    <glyph glyph-name="acircumflex.ss01.ss11" horiz-adv-x="1292" 
d="M588 1311h-2l-219 -101v56l215 90h10l215 -90v-56zM1231 104h59v-104h-76q-85 0 -136 52.5t-52 144.5l-2 73h-2q-45 -136 -158.5 -214.5t-269.5 -78.5q-108 0 -201.5 39t-164.5 112.5t-111.5 186.5t-40.5 252q0 137 40.5 248.5t111.5 183.5t164.5 111t201.5 39
q153 0 263.5 -80t158.5 -201h2v258h123v-925q0 -97 90 -97zM616 86q186 0 297 124t111 357q0 218 -115 345.5t-293 129.5q-179 0 -294 -131.5t-115 -343.5q0 -215 115.5 -349t293.5 -132z" />
    <glyph glyph-name="adieresis.ss01.ss11" horiz-adv-x="1292" 
d="M512 1350v-74h-74v74h74zM750 1350v-74h-74v74h74zM1231 104h59v-104h-76q-85 0 -136 52.5t-52 144.5l-2 73h-2q-45 -136 -158.5 -214.5t-269.5 -78.5q-108 0 -201.5 39t-164.5 112.5t-111.5 186.5t-40.5 252q0 137 40.5 248.5t111.5 183.5t164.5 111t201.5 39
q153 0 263.5 -80t158.5 -201h2v258h123v-925q0 -97 90 -97zM616 86q186 0 297 124t111 357q0 218 -115 345.5t-293 129.5q-179 0 -294 -131.5t-115 -343.5q0 -215 115.5 -349t293.5 -132z" />
    <glyph glyph-name="agrave.ss01.ss11" horiz-adv-x="1292" 
d="M825 1270v-45l-473 78v51zM1231 104h59v-104h-76q-85 0 -136 52.5t-52 144.5l-2 73h-2q-45 -136 -158.5 -214.5t-269.5 -78.5q-108 0 -201.5 39t-164.5 112.5t-111.5 186.5t-40.5 252q0 137 40.5 248.5t111.5 183.5t164.5 111t201.5 39q153 0 263.5 -80t158.5 -201h2v258
h123v-925q0 -97 90 -97zM616 86q186 0 297 124t111 357q0 218 -115 345.5t-293 129.5q-179 0 -294 -131.5t-115 -343.5q0 -215 115.5 -349t293.5 -132z" />
    <glyph glyph-name="aring.ss01.ss11" horiz-adv-x="1292" 
d="M649 1174q-59 0 -99 40t-40 99t40.5 100t98.5 41q59 0 100.5 -41.5t41.5 -99.5t-41.5 -98.5t-100.5 -40.5zM649 1413q-40 0 -69 -29.5t-29 -70.5t29 -70t69 -29t70.5 29t30.5 70t-30.5 70.5t-70.5 29.5zM1231 104h59v-104h-76q-85 0 -136 52.5t-52 144.5l-2 73h-2
q-45 -136 -158.5 -214.5t-269.5 -78.5q-108 0 -201.5 39t-164.5 112.5t-111.5 186.5t-40.5 252q0 137 40.5 248.5t111.5 183.5t164.5 111t201.5 39q153 0 263.5 -80t158.5 -201h2v258h123v-925q0 -97 90 -97zM616 86q186 0 297 124t111 357q0 218 -115 345.5t-293 129.5
q-179 0 -294 -131.5t-115 -343.5q0 -215 115.5 -349t293.5 -132z" />
    <glyph glyph-name="atilde.ss01.ss11" horiz-adv-x="1292" 
d="M455 1362q-57 0 -97.5 -44.5t-40.5 -127.5h-47q0 100 52 157.5t133 57.5q62 0 104 -26t76 -79q27 -42 56.5 -59.5t70.5 -17.5q57 0 97 44.5t40 127.5h47q0 -101 -50.5 -158t-133.5 -57q-105 0 -168 96q-31 46 -61 66t-78 20zM1231 104h59v-104h-76q-85 0 -136 52.5
t-52 144.5l-2 73h-2q-45 -136 -158.5 -214.5t-269.5 -78.5q-108 0 -201.5 39t-164.5 112.5t-111.5 186.5t-40.5 252q0 137 40.5 248.5t111.5 183.5t164.5 111t201.5 39q153 0 263.5 -80t158.5 -201h2v258h123v-925q0 -97 90 -97zM616 86q186 0 297 124t111 357
q0 218 -115 345.5t-293 129.5q-179 0 -294 -131.5t-115 -343.5q0 -215 115.5 -349t293.5 -132z" />
    <glyph glyph-name="uacute.ss11" 
d="M342 1270l473 84v-51l-473 -78v45zM500 -23q-174 0 -275.5 119.5t-101.5 319.5v710h123v-692q0 -169 74.5 -257.5t203.5 -88.5q70 0 133.5 26.5t114 76t80 127.5t29.5 174v634h123v-1126h-119v248h-4q-22 -52 -54.5 -98t-79 -86t-110 -63.5t-137.5 -23.5z" />
    <glyph glyph-name="ucircumflex.ss11" 
d="M788 1210l-219 101h-2l-219 -101v56l215 90h10l215 -90v-56zM500 -23q-174 0 -275.5 119.5t-101.5 319.5v710h123v-692q0 -169 74.5 -257.5t203.5 -88.5q70 0 133.5 26.5t114 76t80 127.5t29.5 174v634h123v-1126h-119v248h-4q-22 -52 -54.5 -98t-79 -86t-110 -63.5
t-137.5 -23.5z" />
    <glyph glyph-name="udieresis.ss11" 
d="M414 1276v74h73v-74h-73zM651 1276v74h74v-74h-74zM500 -23q-174 0 -275.5 119.5t-101.5 319.5v710h123v-692q0 -169 74.5 -257.5t203.5 -88.5q70 0 133.5 26.5t114 76t80 127.5t29.5 174v634h123v-1126h-119v248h-4q-22 -52 -54.5 -98t-79 -86t-110 -63.5t-137.5 -23.5z
" />
    <glyph glyph-name="ugrave.ss11" 
d="M797 1270v-45l-473 78v51zM500 -23q-174 0 -275.5 119.5t-101.5 319.5v710h123v-692q0 -169 74.5 -257.5t203.5 -88.5q70 0 133.5 26.5t114 76t80 127.5t29.5 174v634h123v-1126h-119v248h-4q-22 -52 -54.5 -98t-79 -86t-110 -63.5t-137.5 -23.5z" />
    <glyph glyph-name="yacute.ss11" horiz-adv-x="1019" 
d="M758 1354v-51l-473 -78v45zM860 1126h133l-551 -1405q-29 -69 -108 -69h-350v104h346l119 305l-422 1065h135l350 -923z" />
    <glyph glyph-name="ydieresis.ss11" horiz-adv-x="1019" 
d="M430 1350v-74h-74v74h74zM668 1350v-74h-74v74h74zM860 1126h133l-551 -1405q-29 -69 -108 -69h-350v104h346l119 305l-422 1065h135l350 -923z" />
    <glyph glyph-name="zcaron.ss11" horiz-adv-x="980" 
d="M496 1210h-11l-215 90v56l219 -101h3l219 101v-56zM205 106h745v-106h-919v82l708 938h-667v106h841v-82z" />
    <glyph glyph-name="D_J" horiz-adv-x="1896" 
d="M1612 1434h135v-961q0 -230 -130 -363t-331 -133q-169 0 -295 99q-149 -76 -329 -76h-512v1434h512q144 0 267 -48t214 -137.5t142.5 -226.5t51.5 -305q0 -188 -62 -332.5t-175 -237.5q77 -57 186 -57q141 2 233.5 101.5t92.5 281.5v961zM279 113h383q137 0 247 55
q-84 124 -84 305h136q0 -140 55 -233q186 162 186 477q0 147 -42 263.5t-116 190.5t-171 112.5t-211 39.5h-383v-1210z" />
    <glyph glyph-name="S_t" horiz-adv-x="1880" 
d="M1860 1022h-357v-703q0 -103 41.5 -159t124.5 -56h191v-104h-211q-131 0 -200 79t-69 222v721h-364q-25 151 -126.5 237.5t-268.5 86.5q-182 0 -285 -86.5t-103 -225.5q0 -120 87.5 -177.5t281.5 -57.5h96q238 0 362 -101t124 -284q0 -83 -37.5 -160.5t-106 -138
t-173 -97t-228.5 -36.5q-248 0 -404 144.5t-161 369.5h131q6 -178 125.5 -290t308.5 -112q183 0 297.5 94t114.5 226q0 140 -90 205t-308 65h-121q-189 0 -310.5 94t-121.5 256q0 85 35 161t99.5 134.5t164.5 92.5t222 34q192 0 321.5 -88.5t181.5 -241.5h256v308h123v-308
h357v-104z" />
    <glyph glyph-name="s_t" horiz-adv-x="1644" 
d="M1624 1028h-356v-709q0 -103 41.5 -159t124.5 -56h190v-104h-211q-133 0 -200.5 77.5t-67.5 223.5v727h-641q-135 0 -210 -58.5t-75 -154.5q0 -93 62.5 -135t207.5 -43h76q189 0 287 -83.5t98 -229.5q0 -65 -29 -126t-82 -111t-136.5 -80t-184.5 -30q-191 0 -315 112
t-133 284h127q11 -127 99.5 -207t221.5 -80q138 0 219.5 71.5t81.5 166.5q0 107 -65 156.5t-224 49.5h-96q-153 0 -248.5 76t-95.5 209q0 137 110 228.5t304 91.5h641v299h123v-299h356v-107z" />
    <glyph glyph-name="w_w_w" horiz-adv-x="4155" 
d="M4004 1126h125l-322 -1126h-141l-250 963l-250 -963h-141l-277 973l-278 -973h-141l-250 963l-250 -963h-143l-277 973l-279 -973h-141l-250 963l-250 -963h-141l-321 1126h127l264 -970l248 970h151l248 -970l262 970h166l262 -970l248 970h151l248 -970l264 970h164
l265 -970l247 970h152l248 -970z" />
    <glyph glyph-name="D_J.ss11" horiz-adv-x="1869" 
d="M1649 1434h71v-961q0 -227 -120.5 -357t-309.5 -130q-176 0 -291 112q-151 -98 -358 -98h-491v1434h491q140 0 259 -48t207.5 -137.5t138.5 -226.5t50 -305q0 -193 -63.5 -341t-179.5 -241q95 -92 237 -92q156 2 257.5 113.5t101.5 316.5v961zM215 53h426q177 0 317 90
q-98 129 -98 330h72q0 -173 80 -291q213 180 213 535q0 161 -45.5 289t-126 209t-185.5 123t-227 42h-426v-1327z" />
    <glyph glyph-name="zero.osf" horiz-adv-x="1269" 
d="M635 -23q-249 0 -391 163t-142 423t142 423t391 163q167 0 288.5 -76.5t182.5 -208t61 -301.5t-61 -301.5t-182.5 -208t-288.5 -76.5zM635 86q125 1 216.5 62t139 168t47.5 247q0 214 -107.5 345t-295.5 134q-187 3 -294.5 -130.5t-107.5 -348.5q0 -214 107.5 -346
t294.5 -131z" />
    <glyph glyph-name="one.osf" horiz-adv-x="638" 
d="M496 1126v-1126h-123v819h-2q-8 -64 -69.5 -104.5t-156.5 -40.5h-108v106h108q111 0 169.5 59t58.5 191v96h123z" />
    <glyph glyph-name="two.osf" horiz-adv-x="1118" 
d="M236 106h790v-106h-924v45q0 199 104.5 311.5t336.5 145.5q177 24 255.5 91t78.5 183q0 124 -84.5 195t-225.5 71q-146 0 -230.5 -74t-84.5 -216h-127q0 185 123.5 291t318.5 106q196 0 317.5 -104t121.5 -269q0 -156 -114 -254.5t-327 -126.5q-173 -21 -245.5 -89
t-83.5 -200z" />
    <glyph glyph-name="three.osf" horiz-adv-x="1212" 
d="M709 598q186 -23 290.5 -145t104.5 -308q0 -151 -68.5 -264t-183.5 -171t-258 -58q-221 0 -365 132t-147 361h123q3 -180 110.5 -284.5t276.5 -102.5q162 2 272.5 104.5t110.5 282.5q0 174 -103 266.5t-268 92.5h-338v106h230q54 0 85.5 19t82.5 78l241 313h-721v106h877
v-98z" />
    <glyph glyph-name="four.osf" horiz-adv-x="1112" 
d="M1069 106v-106h-186v-348h-123v348h-719v96l690 1030h152v-1020h186zM182 106h578v867z" />
    <glyph glyph-name="five.osf" horiz-adv-x="1202" 
d="M616 643q210 0 354 -136t144 -351q0 -147 -70.5 -260t-189.5 -172.5t-266 -59.5q-207 0 -340 115.5t-160 308.5l123 -2q17 -145 123 -231t260 -84q171 2 281 109t110 278q0 170 -110.5 273.5t-278.5 105.5q-141 3 -241 -60.5t-140 -159.5h-119l117 809h825v-106h-714
l-93 -571q56 91 157 142.5t228 51.5z" />
    <glyph glyph-name="six.osf" horiz-adv-x="1249" 
d="M672 950q132 0 243 -59.5t178.5 -172.5t67.5 -255q0 -145 -69.5 -256.5t-187.5 -170.5t-265 -59q-259 0 -405 190.5t-146 549.5t148.5 549t408.5 190q213 0 347 -126t134 -316h-122q0 147 -100 241.5t-259 94.5q-192 0 -309 -161.5t-117 -471.5q0 -80 4 -121
q36 164 159.5 259t289.5 95zM645 86q164 2 275.5 107.5t111.5 271.5q0 170 -110 273.5t-275 105.5q-166 2 -278.5 -103.5t-112.5 -275.5q0 -166 112.5 -273.5t276.5 -105.5z" />
    <glyph glyph-name="seven.osf" horiz-adv-x="999" 
d="M37 1126h921v-94q-178 -169 -303.5 -405.5t-183 -478t-57.5 -476.5h-135q0 363 148.5 746t383.5 602h-774v106z" />
    <glyph glyph-name="eight.osf" horiz-adv-x="1193" 
d="M791 762q154 -35 239.5 -131t85.5 -236q0 -129 -69.5 -225.5t-186 -144.5t-262.5 -48q-145 0 -261.5 48t-186.5 144.5t-70 225.5q0 140 85.5 236t240.5 131q-129 35 -197 118t-68 203q0 173 130 273t327 100t327 -100t130 -273q0 -120 -67 -203t-197 -118zM272 1083
q0 -129 92 -200.5t234 -69.5q144 0 236 70.5t92 199.5q0 125 -92 195t-236 72q-142 0 -234 -71t-92 -196zM598 86q170 0 279.5 81t109.5 228q0 149 -109 230.5t-280 83.5q-170 0 -278.5 -82t-108.5 -232q0 -147 109 -229t278 -80z" />
    <glyph glyph-name="nine.osf" horiz-adv-x="1249" 
d="M612 1149q259 0 404 -189.5t145 -549.5q0 -359 -148.5 -549.5t-408.5 -190.5q-213 0 -347 126.5t-134 316.5h123q0 -147 100 -241.5t258 -94.5q193 0 310.5 161.5t117.5 471.5q0 79 -4 122q-36 -166 -160 -261t-290 -95q-132 0 -243.5 60t-179 173t-67.5 255
q0 145 70 256.5t188.5 170t265.5 58.5zM602 283q166 -2 278.5 103.5t112.5 275.5q0 168 -111.5 275t-275.5 105q-165 -2 -276 -107.5t-111 -272.5q0 -169 109.5 -273t273.5 -106z" />
    <glyph glyph-name="exclamdown.case" horiz-adv-x="491" 
d="M174 1434h143v-144h-143v144zM201 1147h92l20 -840v-307h-133v307z" />
    <glyph glyph-name="questiondown.case" horiz-adv-x="1198" 
d="M737 1434v-144h-143v144h143zM727 1153v-127q0 -100 -41.5 -153t-153.5 -105l-28 -12q-271 -116 -271 -353q0 -146 95 -232.5t258 -86.5q166 0 275 97t116 263h127q-6 -211 -151.5 -339t-366.5 -128q-226 0 -355 122.5t-129 303.5q0 291 359 447l28 12q71 31 93 68.5
t22 111.5v111h123z" />
    <glyph glyph-name="period.ss11" horiz-adv-x="385" 
d="M154 0v102h82v-102h-82z" />
    <glyph glyph-name="comma.ss11" horiz-adv-x="423" 
d="M88 -193v41q67 4 94 38t27 96v18h-39v102h82v-114q0 -80 -37 -127t-127 -54z" />
    <glyph glyph-name="colon.ss11" horiz-adv-x="389" 
d="M154 942v102h82v-102h-82zM154 0v102h82v-102h-82z" />
    <glyph glyph-name="semicolon.ss11" horiz-adv-x="385" 
d="M150 942v102h81v-102h-81zM68 -193v41q67 4 93.5 38t26.5 96v18h-38v102h81v-114q0 -80 -36.5 -127t-126.5 -54z" />
    <glyph glyph-name="ellipsis.ss11" horiz-adv-x="1077" 
d="M154 0v102h82v-102h-82zM481 0v102h82v-102h-82zM809 0v102h82v-102h-82z" />
    <glyph glyph-name="exclam.ss11" horiz-adv-x="491" 
d="M225 246l-10 880v308h61v-308l-10 -880h-41zM205 0v82h82v-82h-82z" />
    <glyph glyph-name="exclamdown.ss11" horiz-adv-x="491" 
d="M205 1434h82v-82h-82v82zM225 1188h41l10 -881v-307h-61v307z" />
    <glyph glyph-name="question.ss11" horiz-adv-x="1165" 
d="M479 246v157q0 100 31 148t141 100l29 13q153 67 234 159.5t81 233.5q0 159 -109 255.5t-296 96.5q-188 0 -311.5 -111.5t-133.5 -302.5h-63q9 212 150.5 339.5t357.5 127.5q218 0 345.5 -112.5t127.5 -292.5q0 -154 -96 -262t-267 -185l-28 -12q-81 -35 -106 -76
t-25 -125v-151h-62zM469 0v82h82v-82h-82z" />
    <glyph glyph-name="questiondown.ss11" horiz-adv-x="1165" 
d="M717 1434v-82h-82v82h82zM707 1217v-158q0 -52 -5 -83.5t-23 -62.5t-52 -54t-92 -48l-29 -12q-153 -67 -234.5 -159.5t-81.5 -233.5q0 -159 109.5 -256t296.5 -97q188 0 311 111.5t133 302.5h64q-9 -212 -150.5 -339.5t-357.5 -127.5q-218 0 -345.5 113t-127.5 293
q0 292 362 446l29 12q81 35 106 76t25 125v152h62z" />
    <glyph glyph-name="periodcentered.ss11" horiz-adv-x="368" 
d="M143 494v81h82v-81h-82z" />
    <glyph glyph-name="bullet.ss11" horiz-adv-x="505" 
d="M254 403q-55 0 -93 38t-38 94q0 55 37.5 93t93.5 38q54 0 91.5 -38t37.5 -93t-37.5 -93.5t-91.5 -38.5z" />
    <glyph glyph-name="asterisk.ss11" horiz-adv-x="901" 
d="M838 1239l-359 -135l359 -131l-19 -47l-348 157l160 -346l-47 -18l-133 354l-134 -354l-47 18l160 346l-348 -157l-19 47l359 131l-359 135l19 47l346 -162l-158 351l47 18l134 -360l133 360l47 -18l-158 -351l346 162z" />
    <glyph glyph-name="exclamdown.case.ss11" horiz-adv-x="491" 
d="M205 1434h82v-82h-82v82zM225 1188h41l10 -881v-307h-61v307z" />
    <glyph glyph-name="questiondown.case.ss11" horiz-adv-x="1165" 
d="M717 1434v-82h-82v82h82zM707 1202v-158q0 -100 -31 -147.5t-141 -99.5l-29 -13q-153 -67 -234.5 -159.5t-81.5 -233.5q0 -158 109.5 -255t296.5 -97q188 0 311 111.5t133 302.5h64q-9 -212 -150.5 -339.5t-357.5 -127.5q-218 0 -345.5 112.5t-127.5 292.5
q0 155 95.5 262.5t266.5 184.5l29 12q81 35 106 76t25 125v151h62z" />
    <glyph glyph-name="numbersign.ss11" horiz-adv-x="1417" 
d="M1356 967h-285l-129 -498h275v-49h-287l-111 -420h-63l110 420h-469l-110 -420h-64l111 420h-273v49h285l129 498h-274v49h288l109 418h64l-109 -418h469l108 418h64l-109 -418h271v-49zM879 469l129 498h-469l-129 -498h469z" />
    <glyph glyph-name="slash.ss11" horiz-adv-x="563" 
d="M20 -348h-57l580 2130h57z" />
    <glyph glyph-name="backslash.ss11" horiz-adv-x="563" 
d="M543 -348l-580 2130h57l580 -2130h-57z" />
    <glyph glyph-name="parenleft.case" horiz-adv-x="522" 
d="M360 -29q-125 114 -201.5 306.5t-76.5 439.5q0 249 76.5 440.5t201.5 304.5h101q-114 -117 -186 -305.5t-72 -439.5t72 -440t186 -306h-101z" />
    <glyph glyph-name="parenright.case" horiz-adv-x="522" 
d="M162 -29h-101q114 118 187.5 307t73.5 439t-73 438.5t-188 306.5h101q125 -113 201.5 -304.5t76.5 -440.5q0 -247 -76.5 -439.5t-201.5 -306.5z" />
    <glyph glyph-name="braceleft.case" horiz-adv-x="815" 
d="M272 721v-6q71 0 117.5 -63t46.5 -158v-146q0 -104 63 -173t158 -69h150v-106h-164q-136 0 -232 95.5t-96 232.5v143q0 89 -41 141t-122 52h-70v106h70q81 0 122 52t41 141v143q0 138 96 233t232 95h164v-107h-150q-95 0 -158 -69t-63 -173v-145q0 -95 -46.5 -157
t-117.5 -62z" />
    <glyph glyph-name="braceright.case" horiz-adv-x="815" 
d="M543 721q-71 0 -117.5 62t-46.5 157v145q0 104 -63 173t-158 69h-150v107h164q136 0 232 -95t96 -233v-143q0 -89 41.5 -141t122.5 -52h69v-106h-69q-81 0 -122.5 -52t-41.5 -141v-143q0 -137 -96 -232.5t-232 -95.5h-164v106h150q95 0 158 69t63 173v146q0 95 46.5 158
t117.5 63v6z" />
    <glyph glyph-name="bracketleft.case" horiz-adv-x="598" 
d="M102 0v1434h492v-107h-371v-1221h371v-106h-492z" />
    <glyph glyph-name="bracketright.case" horiz-adv-x="598" 
d="M496 0h-492v106h373v1221h-373v107h492v-1434z" />
    <glyph glyph-name="parenleft.ss11" horiz-adv-x="546" 
d="M82 717q0 349 107 619.5t298 445.5h39q-383 -386 -383 -1065q0 -345 98 -614t285 -451h-39q-191 175 -298 445.5t-107 619.5z" />
    <glyph glyph-name="parenright.ss11" horiz-adv-x="653" 
d="M465 717q0 660 -383 1065h45q399 -409 399 -1065t-399 -1065h-45q383 405 383 1065z" />
    <glyph glyph-name="braceleft.ss11" horiz-adv-x="815" 
d="M219 719v-4q68 0 113 -66t45 -166v-483q0 -129 79.5 -214t200.5 -85h150v-49h-164q-131 0 -229.5 96.5t-98.5 231.5v491q0 108 -37 164.5t-126 56.5h-70v49h70q89 0 126 57t37 165v491q0 135 98.5 231.5t229.5 96.5h164v-49h-150q-121 0 -200.5 -85t-79.5 -214v-484
q0 -100 -45 -165.5t-113 -65.5z" />
    <glyph glyph-name="braceright.ss11" horiz-adv-x="817" 
d="M598 719q-68 0 -113 65.5t-45 165.5v484q0 129 -79.5 214t-200.5 85h-150v49h164q131 0 229.5 -96.5t98.5 -231.5v-491q0 -108 37.5 -165t126.5 -57h69v-49h-69q-89 0 -126.5 -56.5t-37.5 -164.5v-491q0 -135 -98.5 -231.5t-229.5 -96.5h-164v49h150q121 0 200.5 85
t79.5 214v483q0 100 45 166t113 66v4z" />
    <glyph glyph-name="bracketleft.ss11" horiz-adv-x="598" 
d="M102 -348v2130h492v-49h-430v-2032h430v-49h-492z" />
    <glyph glyph-name="bracketright.ss11" horiz-adv-x="598" 
d="M496 -348h-492v49h430v2032h-430v49h492v-2130z" />
    <glyph glyph-name="parenleft.case.ss11" horiz-adv-x="462" 
d="M358 -29q-130 123 -203 312t-73 434q0 246 73 433.5t203 311.5h43q-258 -267 -258 -745q0 -485 258 -746h-43z" />
    <glyph glyph-name="parenright.case.ss11" horiz-adv-x="462" 
d="M104 -29h-43q258 261 258 746q0 478 -258 745h43q130 -124 203.5 -311.5t73.5 -433.5q0 -245 -73.5 -433.5t-203.5 -312.5z" />
    <glyph glyph-name="braceleft.case.ss11" horiz-adv-x="815" 
d="M272 721v-6q71 0 117.5 -63t46.5 -158v-146q0 -104 63 -173t158 -69h150v-106h-164q-136 0 -232 95.5t-96 232.5v143q0 89 -41 141t-122 52h-70v106h70q81 0 122 52t41 141v143q0 138 96 233t232 95h164v-107h-150q-95 0 -158 -69t-63 -173v-145q0 -95 -46.5 -157
t-117.5 -62z" />
    <glyph glyph-name="braceright.case.ss11" horiz-adv-x="815" 
d="M543 721q-71 0 -117.5 62t-46.5 157v145q0 104 -63 173t-158 69h-150v107h164q136 0 232 -95t96 -233v-143q0 -89 41.5 -141t122.5 -52h69v-106h-69q-81 0 -122.5 -52t-41.5 -141v-143q0 -137 -96 -232.5t-232 -95.5h-164v106h150q95 0 158 69t63 173v146q0 95 46.5 158
t117.5 63v6z" />
    <glyph glyph-name="bracketleft.case.ss11" horiz-adv-x="598" 
d="M102 0v1434h492v-107h-371v-1221h371v-106h-492z" />
    <glyph glyph-name="bracketright.case.ss11" horiz-adv-x="598" 
d="M496 0h-492v106h373v1221h-373v107h492v-1434z" />
    <glyph glyph-name="hyphen.ss11" horiz-adv-x="860" 
d="M102 551v49h656v-49h-656z" />
    <glyph glyph-name="uni00AD.ss11" horiz-adv-x="860" 
d="M102 551v49h656v-49h-656z" />
    <glyph glyph-name="endash.ss11" horiz-adv-x="1024" 
d="M0 551v49h1024v-49h-1024z" />
    <glyph glyph-name="emdash.ss11" horiz-adv-x="2211" 
d="M102 551v49h2007v-49h-2007z" />
    <glyph glyph-name="underscore.ss11" horiz-adv-x="1024" 
d="M0 -49v49h1024v-49h-1024z" />
    <glyph glyph-name="quotesinglbase.ss11" horiz-adv-x="401" 
d="M78 -602v41q67 4 94 38t27 95v18h-39v82h82v-94q0 -80 -37 -126.5t-127 -53.5z" />
    <glyph glyph-name="quotedblbase.ss11" horiz-adv-x="749" 
d="M68 -602v41q67 4 93.5 37.5t26.5 95.5v18h-38v82h81v-94q0 -80 -36.5 -126.5t-126.5 -53.5zM272 -602v41q67 4 94 38t27 95v18h-39v82h82v-94q0 -80 -37 -126.5t-127 -53.5z" />
    <glyph glyph-name="quotedblleft.ss11" horiz-adv-x="634" 
d="M307 1454v-41q-66 -4 -93.5 -43t-27.5 -108h39v-82h-82v73q0 89 37 141t127 60zM573 1454v-41q-66 -4 -93 -43t-27 -108h39v-82h-82v73q0 89 36.5 141t126.5 60z" />
    <glyph glyph-name="quotedblright.ss11" horiz-adv-x="634" 
d="M61 1180v41q66 4 93.5 43t27.5 108h-39v82h82v-74q0 -89 -37 -140.5t-127 -59.5zM328 1180v41q66 4 93.5 43t27.5 108h-39v82h82v-74q0 -89 -37 -140.5t-127 -59.5z" />
    <glyph glyph-name="quoteleft.ss11" horiz-adv-x="368" 
d="M307 1454v-41q-66 -4 -93.5 -43t-27.5 -108h39v-82h-82v73q0 89 37 141t127 60z" />
    <glyph glyph-name="quoteright.ss11" horiz-adv-x="368" 
d="M61 1180v41q66 4 93.5 43t27.5 108h-39v82h82v-74q0 -89 -37 -140.5t-127 -59.5z" />
    <glyph glyph-name="guillemotleft.ss11" horiz-adv-x="1052" 
d="M131 573q137 -20 232 -131t116 -266h-51q-19 162 -120 268.5t-253 118.5v19q152 12 253 118.5t120 268.5h51q-21 -155 -116 -266.5t-232 -129.5zM541 573q137 -20 232 -131t116 -266h-51q-19 162 -120 268.5t-253 118.5v19q152 12 253 118.5t120 268.5h51
q-21 -155 -116 -266.5t-232 -129.5z" />
    <glyph glyph-name="guillemotright.ss11" horiz-adv-x="1052" 
d="M588 582v-19q-152 -12 -253 -118.5t-120 -268.5h-51q21 155 116 266t232 131q-137 18 -232 129.5t-116 266.5h51q19 -162 120 -268.5t253 -118.5zM625 969q19 -162 119.5 -268.5t252.5 -118.5v-19q-152 -12 -252.5 -118.5t-119.5 -268.5h-52q21 155 116.5 266t232.5 131
q-137 18 -232.5 129.5t-116.5 266.5h52z" />
    <glyph glyph-name="guilsinglleft.ss11" horiz-adv-x="638" 
d="M127 573q137 -20 232 -131t116 -266h-51q-19 162 -120 268.5t-253 118.5v19q152 12 253 118.5t120 268.5h51q-21 -155 -116 -266.5t-232 -129.5z" />
    <glyph glyph-name="guilsinglright.ss11" horiz-adv-x="636" 
d="M215 969q19 -162 120 -268.5t253 -118.5v-19q-152 -12 -253 -118.5t-120 -268.5h-51q21 155 116 266t232 131q-137 18 -232 129.5t-116 266.5h51z" />
    <glyph glyph-name="quotedbl.ss11" horiz-adv-x="573" 
d="M154 1434h61l-10 -588h-41zM358 1434h62l-10 -588h-41z" />
    <glyph glyph-name="quotesingle.ss11" horiz-adv-x="368" 
d="M154 1434h61l-10 -588h-41z" />
    <glyph glyph-name="parenleft_colon" horiz-adv-x="1695" 
d="M848 -29q-204 0 -375.5 100t-271 271.5t-99.5 374.5q0 151 59 289t158.5 238t238 159t290.5 59t290 -59t237.5 -159t158.5 -238t59 -289q0 -152 -59 -290t-158.5 -238t-237.5 -159t-290 -59zM588 868q37 0 63.5 26.5t26.5 63.5t-26.5 64t-63.5 27t-63.5 -27t-26.5 -64
t26.5 -63.5t63.5 -26.5zM1108 868q37 0 63.5 26.5t26.5 63.5t-26.5 64t-63.5 27t-63.5 -27t-26.5 -64t26.5 -63.5t63.5 -26.5zM848 231q180 0 309 127.5t129 307.5q0 23 -15 39t-38 16t-37 -15.5t-14 -39.5q0 -137 -97.5 -234.5t-236.5 -97.5q-138 0 -236 97.5t-98 234.5
q0 23 -16 39t-39 16t-36 -15.5t-13 -39.5q-1 -179 128 -307t310 -128z" />
    <glyph glyph-name="colon_hyphen_parenright" horiz-adv-x="2181" 
d="M475 1239q-66 0 -113 47t-47 113q0 65 47 111t113 46q65 0 111.5 -46.5t46.5 -110.5q0 -66 -46.5 -113t-111.5 -47zM1708 1239q-66 0 -113 47t-47 113q0 65 47 111t113 46q65 0 111.5 -46.5t46.5 -110.5q0 -66 -46.5 -113t-111.5 -47zM1092 -274q-202 0 -385 77.5
t-315.5 209t-211 313.5t-78.5 383q0 32 19.5 52.5t50.5 20.5q32 0 52 -20.5t20 -52.5q0 -171 67 -327.5t180 -269.5t270.5 -180t330.5 -67q231 0 425.5 113.5t306.5 307.5t113 423q0 32 20 52.5t52 20.5q31 0 50.5 -20.5t19.5 -52.5q0 -201 -78 -383t-210.5 -313.5
t-315 -209t-383.5 -77.5z" />
    <glyph glyph-name="colon_parenright" horiz-adv-x="1880" 
d="M940 -121q171 0 326 66.5t267 178.5t178.5 267t66.5 326q0 170 -66.5 325t-178.5 267t-267.5 178.5t-325.5 66.5q-171 0 -326.5 -66.5t-267.5 -178.5t-178 -267t-66 -325q0 -171 66 -326t178 -267t267.5 -178.5t326.5 -66.5zM940 -31q-152 0 -290.5 59.5t-238 159.5
t-158 238.5t-58.5 290.5t58.5 290t158 238.5t238 159.5t290.5 59t290 -59t238 -159.5t159 -238.5t59 -290q0 -203 -100 -375t-271.5 -272.5t-374.5 -100.5zM680 868q37 0 63.5 26.5t26.5 63.5t-26.5 64t-63.5 27t-63.5 -27t-26.5 -64t26.5 -63.5t63.5 -26.5zM1200 868
q37 0 63.5 26.5t26.5 63.5t-26.5 64t-63.5 27t-63.5 -27t-26.5 -64t26.5 -63.5t63.5 -26.5zM940 231q180 0 309 127.5t129 307.5q0 23 -15 39t-38 16t-37 -15.5t-14 -39.5q0 -137 -97.5 -234.5t-236.5 -97.5q-138 0 -236 97.5t-98 234.5q0 23 -16 39t-39 16t-36 -15.5
t-13 -39.5q-1 -179 128 -307t310 -128z" />
    <glyph glyph-name="space.ss11" horiz-adv-x="481" 
 />
    <glyph glyph-name="cent.ss11" horiz-adv-x="1198" 
d="M621 219q90 0 166 31.5t125.5 82.5t80 109.5t39.5 118.5h68q-22 -160 -143 -274t-314 -121l8 -166h-61l8 166q-224 8 -360 158.5t-136 394.5q0 240 133 391t363 158l-8 166h61l-8 -166q102 -4 185.5 -38t139.5 -91.5t89 -130.5t43 -158h-68q-13 155 -121.5 259.5
t-289.5 104.5q-208 0 -329.5 -137t-121.5 -358q0 -226 128 -363t323 -137z" />
    <glyph glyph-name="currency.ss11" horiz-adv-x="1150" 
d="M989 645q0 -159 -104 -276l170 -158l-43 -43l-160 168q-117 -111 -283 -111q-158 0 -278 107l-152 -164l-43 43l164 151q-110 116 -110 283q0 162 110 285l-164 151l43 43l154 -163q117 104 276 104q161 0 285 -111l158 170l43 -43l-172 -157q106 -115 106 -279zM569 287
q149 0 254 104.5t105 253.5t-105 254t-254 105t-253.5 -105t-104.5 -254t104.5 -253.5t253.5 -104.5z" />
    <glyph glyph-name="dollar.ss11" horiz-adv-x="1208" 
d="M674 772q241 0 351 -90.5t110 -275.5q0 -83 -37 -159.5t-102.5 -134t-162 -92t-208.5 -34.5h-13l11 -183h-62l10 185q-225 17 -360 157t-137 351h63q5 -201 137 -327t351 -126q196 0 319 106t123 257q0 161 -93 235t-319 74h-145q-187 0 -298.5 85.5t-111.5 239.5
q0 112 56 203t164 146.5t251 58.5l-10 190h62l-11 -190q224 -7 354 -138.5t142 -340.5h-64q-14 191 -129 306.5t-327 115.5q-194 0 -307 -98.5t-113 -252.5q0 -268 385 -268h121z" />
    <glyph glyph-name="Euro.ss11" horiz-adv-x="1675" 
d="M930 25q101 0 190 30t154 80t115 115t78 134t38 138h68q-14 -112 -63 -210t-128 -175t-196 -121.5t-256 -44.5q-266 0 -446 156.5t-226 425.5h-176v49h170q-6 56 -6 117t6 117h-170v49h176q43 265 220.5 421t451.5 156q144 0 262 -45.5t196.5 -125t125.5 -183t59 -223.5
h-68q-8 106 -49.5 200t-112 166.5t-177.5 115t-236 42.5q-241 0 -400.5 -142t-201.5 -382h782v-49h-791q-6 -56 -6 -117t6 -117h791v-49h-782q45 -244 210 -386t392 -142z" />
    <glyph glyph-name="florin.ss11" horiz-adv-x="1275" 
d="M1049 1384q-104 0 -168 -69t-107 -223l-78 -287h400v-49h-414l-113 -414q-18 -67 -35 -113.5t-43.5 -93t-59 -74t-79.5 -44.5t-106 -17h-170v49h170q99 0 159.5 69.5t100.5 223.5l112 414h-370v49h385l78 287q19 67 36.5 113.5t45.5 93t61.5 74t83 44.5t111.5 17h151v-50
h-151z" />
    <glyph glyph-name="sterling.ss11" horiz-adv-x="1234" 
d="M299 49h834v-49h-1029v49q151 0 248 100.5t97 241.5q0 69 -23 128.5t-66 133.5h-258v49h228q-40 65 -61 103.5t-41.5 104t-20.5 130.5q0 180 124 301t314 121q188 0 315 -120.5t127 -321.5h-67q0 179 -106 284t-269 105q-112 0 -199 -53t-130.5 -136.5t-43.5 -179.5
q0 -60 21.5 -126t41 -102.5t62.5 -109.5h453v-49h-424q42 -74 65 -135.5t23 -128.5q0 -95 -51 -185t-164 -153v-2z" />
    <glyph glyph-name="yen.ss11" horiz-adv-x="1214" 
d="M1169 1434l-526 -758h436v-49h-448v-193h448v-49h-448v-385h-62v385h-456v49h456v193h-456v49h444l-526 758h75l492 -725l496 725h75z" />
    <glyph glyph-name="plus.ss11" horiz-adv-x="1241" 
d="M1151 612v-69h-494v-492h-61v492h-494v69h494v488h61v-488h494z" />
    <glyph glyph-name="minus.ss11" horiz-adv-x="1126" 
d="M102 541v69h922v-69h-922z" />
    <glyph glyph-name="multiply.ss11" horiz-adv-x="1153" 
d="M969 1028l-355 -354l351 -350l-39 -39l-353 352l-350 -350l-39 41l351 348l-351 350l39 39l350 -350l357 354z" />
    <glyph glyph-name="divide.ss11" horiz-adv-x="1126" 
d="M522 885v82h82v-82h-82zM102 551v49h922v-49h-922zM522 184v82h82v-82h-82z" />
    <glyph glyph-name="equal.ss11" horiz-adv-x="1212" 
d="M184 844v49h844v-49h-844zM184 430v49h844v-49h-844z" />
    <glyph glyph-name="notequal.ss11" horiz-adv-x="1253" 
d="M1151 776h-389l-213 -393h602v-49h-629l-135 -246h-55l135 246h-365v49h392l213 393h-605v49h633l133 246h56l-133 -246h360v-49z" />
    <glyph glyph-name="greater.ss11" horiz-adv-x="1241" 
d="M102 1092l1049 -484v-51l-1049 -483v69l963 441l-963 438v70z" />
    <glyph glyph-name="less.ss11" horiz-adv-x="1241" 
d="M1151 1092v-70l-963 -438l963 -441v-69l-1049 483v51z" />
    <glyph glyph-name="greaterequal.ss11" horiz-adv-x="1253" 
d="M102 952l1049 -340v-51l-1049 -340v66l947 301l-947 299v65zM102 51v49h1049v-49h-1049z" />
    <glyph glyph-name="lessequal.ss11" horiz-adv-x="1253" 
d="M1151 952v-69l-946 -295l946 -297v-70l-1049 340v51zM102 51v49h1049v-49h-1049z" />
    <glyph glyph-name="plusminus.ss11" horiz-adv-x="1253" 
d="M657 616h494v-49h-494v-368h-61v368h-494v49h494v365h61v-365zM102 51v49h1049v-49h-1049z" />
    <glyph glyph-name="approxequal.ss11" horiz-adv-x="1077" 
d="M102 700q0 139 63 222.5t175 83.5q40 0 73.5 -13t62.5 -42t45 -50t44 -63q25 -37 38 -54t36 -41.5t46.5 -34.5t51.5 -10q85 0 130.5 64.5t45.5 183.5h62q0 -142 -63 -223.5t-175 -81.5q-40 0 -73.5 13t-62.5 42t-45 50t-44 63q-25 36 -38 53.5t-36 41.5t-46.5 34
t-51.5 10q-85 0 -130.5 -66t-45.5 -182h-62zM102 291q0 139 63 222t175 83q40 0 73.5 -13t62.5 -42t45 -50t44 -63q25 -36 38 -53.5t36 -41.5t46.5 -34t51.5 -10q85 0 130.5 64.5t45.5 183.5h62q0 -142 -63 -224t-175 -82q-40 0 -73.5 13t-62.5 42t-45 50t-44 63
q-25 37 -38 54t-36 41.5t-46.5 34.5t-51.5 10q-85 0 -130.5 -66t-45.5 -182h-62z" />
    <glyph glyph-name="asciitilde.ss11" horiz-adv-x="1214" 
d="M102 455q0 140 64.5 222.5t183.5 82.5q36 0 70.5 -10.5t57 -22.5t54 -39.5t44.5 -41.5t45 -48q35 -39 52.5 -56t49 -42.5t62 -36t65.5 -10.5q92 0 139 64t47 183h62q0 -143 -64.5 -224t-183.5 -81q-36 0 -70.5 11t-56.5 22.5t-54 39.5t-44 41t-45 48q-35 38 -53 55.5
t-49 43t-62 36t-66 10.5q-92 0 -139 -65t-47 -182h-62z" />
    <glyph glyph-name="logicalnot.ss11" horiz-adv-x="1085" 
d="M102 696h861v-458h-41v409h-820v49z" />
    <glyph glyph-name="asciicircum.ss11" horiz-adv-x="872" 
d="M750 805h-62l-252 557l-252 -557h-61l283 629h61z" />
    <glyph glyph-name="infinity.ss11" horiz-adv-x="1910" 
d="M1421 930q152 0 259.5 -99.5t107.5 -267.5t-107.5 -267t-259.5 -99q-73 0 -139 24t-124.5 72t-102.5 95.5t-99 117.5q-44 -56 -78.5 -94.5t-82 -82.5t-91.5 -70.5t-100 -44t-115 -17.5q-152 0 -259 99t-107 267t107 267.5t259 99.5q59 0 115 -17.5t100 -44t91.5 -70.5
t82 -82.5t78.5 -94.5q55 70 99 117.5t102.5 95.5t124.5 72t139 24zM489 250q42 0 82 11t78 35.5t68.5 49t68 66.5t61.5 71t64 80q-40 51 -63.5 80t-61.5 71.5t-68.5 66.5t-68.5 49t-78 36t-82 11q-121 3 -210 -81.5t-89 -232.5t88.5 -232t210.5 -81zM1421 250
q122 -3 210.5 81t88.5 232t-89 232.5t-210 81.5q-50 0 -99.5 -19t-86 -43.5t-84 -73.5t-74.5 -82t-76 -96q41 -52 63.5 -80t61 -71t68 -66.5t68 -48.5t78 -36t81.5 -11z" />
    <glyph glyph-name="integral.ss11" horiz-adv-x="1228" 
d="M958 1638h172v-49h-172q-101 0 -157.5 -70t-79.5 -223l-189 -1302q-23 -164 -94 -253t-205 -89h-172v49h172q101 0 158 70t80 223l188 1302q23 164 94 253t205 89z" />
    <glyph glyph-name="product.ss11" horiz-adv-x="1173" 
d="M1133 1434v-50h-246v-1384h-62v1384h-477v-1384h-61v1384h-246v50h1092z" />
    <glyph glyph-name="summation.ss11" horiz-adv-x="991" 
d="M930 1434v-50h-766l520 -798v-4l-522 -881h768v-49h-848v41l541 891l-541 809v41h848z" />
    <glyph glyph-name="radical.ss11" horiz-adv-x="1234" 
d="M1198 1434v-50h-332l-417 -1732h-62l-305 1016h61l273 -961l407 1725v2h375z" />
    <glyph glyph-name="uni00B5.ss11" horiz-adv-x="1167" 
d="M1071 47h92v-47h-98q-63 0 -100 39.5t-37 107.5v164h-4q-35 -145 -145.5 -235t-248.5 -90q-111 0 -201.5 59.5t-123.5 161.5v-555h-62v1474h62v-733q0 -95 28.5 -166t77 -110.5t103.5 -58.5t116 -19q164 0 276 124t112 343v620h61v-979q0 -100 92 -100z" />
    <glyph glyph-name="partialdiff.ss11" horiz-adv-x="1110" 
d="M434 1518q305 -123 452.5 -330t147.5 -510q0 -146 -45.5 -276t-120.5 -220.5t-174.5 -143t-206.5 -52.5q-177 0 -294 136.5t-117 336.5q0 146 66 267t182.5 191t257.5 70q111 0 211.5 -45t167.5 -137q-23 245 -151.5 403t-393.5 269zM487 37q135 0 244.5 81.5
t172.5 228.5t63 331v41q-121 215 -369 215q-198 0 -326.5 -137t-128.5 -342q0 -179 96.5 -298.5t247.5 -119.5z" />
    <glyph glyph-name="percent.ss11" horiz-adv-x="1757" 
d="M465 717q-138 0 -230 98t-92 266q0 171 91.5 269t230.5 98q140 0 231.5 -97.5t91.5 -269.5q0 -168 -91.5 -266t-231.5 -98zM1413 1434h-70l-999 -1434h70zM465 770q113 2 185.5 82.5t72.5 228.5t-73 230t-185 84q-110 2 -183 -81.5t-73 -232.5q0 -148 72.5 -230.5
t183.5 -80.5zM1290 -14q-138 0 -229.5 98t-91.5 266t91.5 267.5t229.5 99.5q139 0 231.5 -99t92.5 -268q0 -168 -92 -266t-232 -98zM1290 39q115 2 186.5 79t71.5 232t-72 233.5t-186 80.5q-110 2 -183 -81.5t-73 -232.5q0 -148 72.5 -230.5t183.5 -80.5z" />
    <glyph glyph-name="perthousand.ss11" horiz-adv-x="2551" 
d="M465 717q-138 0 -230 98t-92 266q0 171 91.5 269t230.5 98q140 0 231.5 -97.5t91.5 -269.5q0 -168 -91.5 -266t-231.5 -98zM1409 1434h-61l-1000 -1434h62zM465 770q113 2 185.5 82.5t72.5 228.5t-73 230t-185 84q-110 2 -183 -81.5t-73 -232.5q0 -148 72.5 -230.5
t183.5 -80.5zM1290 -14q-138 0 -229.5 98t-91.5 266t91.5 267.5t229.5 99.5q139 0 231.5 -99t92.5 -268q0 -168 -92 -266t-232 -98zM2025 -14q-138 0 -229.5 98t-91.5 266t91.5 267.5t229.5 99.5q139 0 231.5 -99t92.5 -268q0 -168 -92 -266t-232 -98zM1290 39
q115 2 186.5 79t71.5 232t-72 233.5t-186 80.5q-110 2 -183 -81.5t-73 -232.5q0 -148 72.5 -230.5t183.5 -80.5zM2025 39q115 2 187 79t72 232t-72 233.5t-187 80.5q-110 2 -183 -81.5t-73 -232.5q0 -148 72.5 -230.5t183.5 -80.5z" />
    <glyph glyph-name="arrowup.ss11" horiz-adv-x="1284" 
d="M651 1446q20 -244 187.5 -409t425.5 -210v-51q-228 41 -394.5 177.5t-214.5 338.5l19 -1077h-64l19 1077q-48 -202 -214.5 -338.5t-394.5 -177.5v51q258 45 425.5 210t187.5 409h18z" />
    <glyph glyph-name="uni2197.ss11" 
d="M1004 1382q-159 -193 -158 -424.5t151 -445.5l-34 -37q-86 126 -126.5 262.5t-26.5 276.5t87 258l-750 -776l-45 45l772 745q-186 -104 -394 -82.5t-396 152.5l35 35q214 -150 445.5 -151.5t424.5 155.5l2 -2h2z" />
    <glyph glyph-name="arrowright.ss11" horiz-adv-x="1435" 
d="M715 1317q45 -258 209.5 -425t408.5 -187v-19q-244 -20 -408.5 -187t-209.5 -425h-51q41 228 177.5 394t338.5 214l-1078 -18v63l1078 -18q-202 48 -338.5 214t-177.5 394h51z" />
    <glyph glyph-name="uni2198.ss11" 
d="M1004 49l-11 -10h-2l-2 -2q-193 157 -424.5 155.5t-445.5 -151.5l-35 35q188 131 396 152t394 -83l-772 746l45 45l750 -776q-73 118 -87 258t26.5 276t126.5 262l34 -36q-150 -214 -151 -446t158 -425z" />
    <glyph glyph-name="arrowdown.ss11" horiz-adv-x="1284" 
d="M655 141q48 202 214.5 338.5t394.5 177.5v-51q-258 -45 -425.5 -210t-187.5 -408h-18q-20 243 -187.5 408t-425.5 210v51q228 -41 394.5 -177.5t214.5 -338.5l-19 1078h64z" />
    <glyph glyph-name="uni2199.ss11" 
d="M231 145q186 104 394.5 83t396.5 -152l-35 -35q-214 150 -445.5 151.5t-424.5 -155.5l-2 2h-2l-11 10q159 193 158 425t-151 446l34 36q86 -126 126.5 -262t26.5 -276t-87 -258l749 776l46 -45z" />
    <glyph glyph-name="arrowleft.ss11" horiz-adv-x="1435" 
d="M1333 727v-63l-1077 18q202 -48 338.5 -214t177.5 -394h-51q-45 258 -210 425t-409 187v19q244 20 409 187t210 425h51q-41 -228 -177.5 -394t-338.5 -214z" />
    <glyph glyph-name="uni2196.ss11" 
d="M1022 1356q-188 -131 -396.5 -152.5t-394.5 82.5l773 -745l-46 -45l-749 776q73 -118 87 -258t-26.5 -276.5t-126.5 -262.5l-34 37q150 214 151 445.5t-158 424.5l11 11h2l2 2q193 -157 424.5 -155.5t445.5 151.5z" />
    <glyph glyph-name="arrowboth.ss11" horiz-adv-x="1619" 
d="M1145 1079q19 -144 120 -240t253 -106v-18q-152 -10 -253 -106t-120 -240h-51q18 122 98.5 215.5t204.5 126.5l-475 -9h-224l-475 9q124 -33 204.5 -126.5t98.5 -215.5h-51q-19 144 -120 240t-253 106v18q152 10 253 106t120 240h51q-18 -122 -98.5 -215.5t-204.5 -126.5
l475 8h224l475 -8q-124 33 -204.5 126.5t-98.5 215.5h51zM158 725q2 -2 4 -2v2h-4zM1458 723q2 0 4 2h-4v-2z" />
    <glyph glyph-name="arrowupdn.ss11" horiz-adv-x="915" 
d="M813 1008q-123 18 -216 97.5t-126 203.5l8 -473v-224l-8 -473q33 124 126 203.5t216 97.5v-51q-144 -19 -240 -120t-106 -253h-18q-10 152 -106 253t-241 120v51q123 -18 216 -97.5t126 -203.5l-8 473v224l8 473q-33 -124 -126 -203.5t-216 -97.5v51q145 19 241 120
t106 253h18q10 -152 106 -253t240 -120v-51z" />
    <glyph glyph-name="lozenge.ss11" horiz-adv-x="1153" 
d="M569 1462l406 -745l-406 -746h-61l-406 746l406 745h61zM541 29l366 688l-366 688h-4l-367 -688l367 -688h4z" />
    <glyph glyph-name="at.case" horiz-adv-x="1622" 
d="M1255 326q-81 0 -126.5 31t-45.5 85v45h-4q-40 -85 -114.5 -133.5t-178.5 -48.5q-159 0 -266.5 112.5t-107.5 309.5q0 194 107.5 306t266.5 112q106 0 179 -48t108 -124h2v151h123v-622q0 -40 18 -58t56 -18l151 2v432q0 228 -126 358t-332 130l-142 2q-176 0 -314.5 -73
t-220 -217t-81.5 -339q0 -194 81.5 -335.5t219.5 -211.5t315 -70h723v-104h-723q-219 0 -386.5 84.5t-263 249t-95.5 387.5q0 224 95.5 391.5t263.5 255.5t386 88l142 -2q274 0 427.5 -157t153.5 -437v-534h-291zM813 412q118 0 193 84.5t75 230.5q0 149 -74.5 233.5
t-193.5 86.5q-117 0 -192.5 -88.5t-75.5 -231.5q0 -141 75.5 -229t192.5 -86z" />
    <glyph glyph-name="at.salt" horiz-adv-x="2334" 
d="M1348 84q-103 0 -166.5 55t-63.5 142v43h-2q-34 -116 -133.5 -186t-234.5 -70q-142 0 -232 87t-90 224q0 135 92 214t256 79h109q126 0 176.5 35t50.5 110q0 92 -67.5 145.5t-184.5 53.5q-121 0 -197 -63.5t-88 -184.5h-110q10 162 119 250t276 88t263 -80.5t96 -216.5
v-502q0 -137 141 -137h164q-72 75 -72 197v639h-190v86h190v229h102v-229h324v-86h-324v-623q0 -106 51.5 -159.5t168.5 -53.5h36q150 0 241 106.5t91 335.5q1 180 -46.5 333t-134.5 265.5t-207 192t-266.5 119t-311.5 39.5q-206 0 -383.5 -62.5t-310 -180t-208 -298.5
t-75.5 -406t75 -406.5t207 -299.5t309.5 -181t385.5 -63q500 0 774 318h133q-63 -90 -148.5 -164.5t-197 -134.5t-255.5 -93.5t-306 -33.5q-234 0 -435 72t-349.5 205t-233 334t-84.5 447t84.5 446.5t233 333t349.5 204t435 71.5q187 0 352.5 -44.5t300 -133.5t232 -214.5
t151 -295.5t53.5 -369q0 -264 -122.5 -396t-332.5 -132h-460zM1114 522v162h-2q-46 -104 -235 -104h-101q-117 0 -179 -56.5t-62 -146.5q0 -94 61 -154.5t172 -60.5q149 0 247.5 99.5t98.5 260.5z" />
    <glyph glyph-name="ampersand.salt" horiz-adv-x="1349" 
d="M1262 662h-175v-465q0 -93 80 -93h95v-104h-111q-84 0 -131 47t-47 131v94q-46 -144 -163.5 -219.5t-279.5 -75.5q-201 0 -319.5 109.5t-118.5 280.5q0 138 78.5 231.5t226.5 126.5q-119 41 -181 124.5t-62 201.5q0 170 127 276.5t354 106.5h473v-109h-473
q-167 0 -258.5 -75t-91.5 -208q0 -129 91 -199.5t259 -70.5h330v211h122v-211h175v-110zM965 524v138h-392q-168 0 -259 -74.5t-91 -210.5q0 -137 89 -215t243 -78q183 0 296.5 110.5t113.5 329.5z" />
    <glyph glyph-name="at.ss11" horiz-adv-x="1976" 
d="M1432 98q-54 0 -85.5 32t-31.5 89v129h-2q-102 -262 -363 -262q-85 0 -159.5 30.5t-130.5 87t-88.5 144t-32.5 195.5q0 209 117 328.5t292 119.5q150 0 239 -74t122 -186h2v248h61v-756q0 -44 15.5 -60t50.5 -16h389v418q1 199 -61.5 358t-174.5 261.5t-264.5 156.5
t-335.5 54q-177 0 -329 -54t-266.5 -156.5t-180 -261.5t-65.5 -358q0 -162 42.5 -301.5t119 -242t181.5 -175t231.5 -109t266.5 -36.5h897v-49h-897q-195 0 -361.5 61.5t-288 175.5t-190.5 288t-69 388q0 172 44.5 315.5t125.5 248t194 176.5t250.5 107.5t294.5 35.5
q204 0 368.5 -56.5t282.5 -165.5t182 -277t64 -384v-467h-456zM958 139q154 0 255.5 106.5t101.5 297.5q0 190 -100.5 292.5t-256.5 102.5q-151 0 -251.5 -109t-100.5 -286q0 -179 101 -291.5t251 -112.5z" />
    <glyph glyph-name="ampersand.ss11" horiz-adv-x="1349" 
d="M1247 0h-84l-188 188q-170 -213 -453 -213q-110 0 -196.5 31.5t-138.5 85.5t-78.5 120.5t-26.5 141.5q0 155 96.5 254.5t247.5 130.5q-104 108 -156.5 198t-52.5 183q0 140 102 233.5t271 94.5q177 1 286 -95t109 -245q0 -162 -127.5 -269t-325.5 -128l431 -426
q115 188 127 471l67 -2q-15 -313 -147 -516zM590 1395q-138 0 -221.5 -79.5t-83.5 -201.5q0 -92 48.5 -171.5t162.5 -194.5q186 15 304 111.5t118 244.5q0 132 -94.5 211.5t-233.5 79.5zM522 29q124 0 228 53.5t178 153.5l-467 466q-133 -28 -222 -118t-89 -230
q0 -136 97.5 -230.5t274.5 -94.5z" />
    <glyph glyph-name="paragraph.ss11" horiz-adv-x="1331" 
d="M776 573q-133 0 -241.5 49t-175 147t-66.5 230t66.5 232.5t175.5 151.5t241 51h62v-1782h-62v921zM954 -348v1782h62v-1782h-62z" />
    <glyph glyph-name="section.ss11" horiz-adv-x="1044" 
d="M702 350q123 -26 192 -98t69 -170q0 -61 -29 -118t-83 -103t-139.5 -73.5t-189.5 -27.5q-184 0 -306.5 103.5t-133.5 263.5h68q12 -139 115 -226t257 -87q168 0 270.5 78.5t102.5 189.5q0 46 -19 84.5t-60 71.5t-116 52t-178 19h-76q-147 0 -245.5 76t-98.5 195
q0 97 60 170.5t180 107.5q-123 26 -191.5 98t-68.5 170q0 61 29 118t82.5 103t139 73.5t189.5 27.5q185 0 307.5 -103.5t133.5 -263.5h-68q-12 139 -115.5 226.5t-257.5 87.5q-168 0 -270 -78.5t-102 -190.5q0 -45 19 -83.5t59.5 -72t115.5 -52.5t178 -19h76
q147 0 245.5 -75.5t98.5 -194.5q0 -99 -59.5 -172t-180.5 -107zM170 596q0 -106 87 -170t265 -64h21q161 0 246 69.5t85 180.5q0 106 -87 170t-265 64h-20q-158 0 -245 -70t-87 -180z" />
    <glyph glyph-name="copyright.ss11" horiz-adv-x="1603" 
d="M803 -29q200 0 369.5 100t268.5 272t99 376q0 151 -58.5 288.5t-157.5 237t-235 158.5t-286 59t-287 -59t-236.5 -158.5t-158 -237t-58.5 -288.5q0 -152 58.5 -291t158 -239t236.5 -159t287 -59zM803 25q-137 0 -261 54.5t-214.5 147.5t-143.5 221.5t-53 270.5
q0 187 90 346t245 251.5t337 92.5q136 0 260 -55t214 -148t143 -220.5t53 -266.5q0 -189 -90 -349t-244 -252.5t-336 -92.5zM811 307q-173 0 -279 112.5t-106 299.5q0 182 103 294.5t282 112.5q159 0 252 -89.5t106 -227.5h-67q-9 113 -86 188.5t-205 75.5q-145 0 -231 -98
t-86 -256q0 -162 90 -260.5t227 -98.5q62 0 115.5 22.5t88.5 59.5t57 79.5t30 86.5h67q-16 -126 -111 -213.5t-247 -87.5z" />
    <glyph glyph-name="registered.ss11" horiz-adv-x="1603" 
d="M803 1462q150 0 286 -59t235 -158.5t157.5 -237t58.5 -288.5q0 -204 -99 -376t-268.5 -272t-369.5 -100q-150 0 -287 59t-236.5 159t-158 239t-58.5 291q0 151 58.5 288.5t158 237t236.5 158.5t287 59zM803 25q182 0 336 92.5t244 252.5t90 349q0 139 -53 266.5
t-143 220.5t-214 148t-260 55q-182 0 -337 -92.5t-245 -251.5t-90 -346q0 -142 53 -270.5t143.5 -221.5t214.5 -147.5t261 -54.5zM952 688q58 -20 91 -67.5t59 -139.5l47 -147h-68l-49 147q-22 80 -49 119.5t-61.5 52.5t-96.5 13h-225v-332h-61v770h319q118 0 195 -60.5
t77 -156.5q0 -78 -47 -129t-131 -70zM600 715h250q110 0 161.5 44t51.5 120q0 82 -57.5 129t-155.5 47h-250v-340z" />
    <glyph glyph-name="trademark.ss11" horiz-adv-x="1564" 
d="M102 1395v39h553v-39h-252v-686h-51v686h-250zM1436 1434v-725h-52v659l-266 -659h-51l-266 659v-659h-51v725h71l273 -672l270 672h72z" />
    <glyph glyph-name="degree.ss11" horiz-adv-x="825" 
d="M414 905q-112 0 -191.5 79t-79.5 190q0 110 79.5 189t191.5 79q110 0 189 -79t79 -189t-79 -189.5t-189 -79.5zM414 946q94 0 160.5 67t66.5 161t-66.5 160.5t-160.5 66.5q-95 0 -162.5 -66.5t-67.5 -160.5t67.5 -161t162.5 -67z" />
    <glyph glyph-name="bar.ss11" horiz-adv-x="307" 
d="M123 -348v2130h61v-2130h-61z" />
    <glyph glyph-name="brokenbar.ss11" horiz-adv-x="307" 
d="M123 1024v758h61v-758h-61zM123 -348v758h61v-758h-61z" />
    <glyph glyph-name="dagger.ss11" horiz-adv-x="874" 
d="M793 1300v-49h-324v-780h-61v780h-326v49h326v338h61v-338h324z" />
    <glyph glyph-name="daggerdbl.ss11" horiz-adv-x="874" 
d="M793 1251h-324v-393h324v-49h-324v-338h-61v338h-326v49h326v393h-326v49h326v338h61v-338h324v-49z" />
    <glyph glyph-name="at.case.ss11" horiz-adv-x="1611" 
d="M1229 317q-53 0 -85 31.5t-32 89.5v88h-2q-42 -102 -122.5 -161.5t-199.5 -59.5q-159 0 -264.5 111t-105.5 305q0 190 105.5 298.5t262.5 108.5q128 0 209.5 -63t110.5 -156h2v207h61v-674q0 -49 15 -66.5t51 -17.5l240 4v345q1 318 -180 503t-470 185h-2
q-142 0 -265 -47t-215 -133.5t-145 -217.5t-53 -290q0 -127 34.5 -234.5t96 -185t146 -131.5t186 -80.5t215.5 -26.5h713v-49h-713q-161 0 -296.5 45.5t-235.5 133t-156.5 222.5t-56.5 306t56.5 311.5t156 234t236 144.5t296.5 51h2q326 0 518.5 -195.5t192.5 -545.5v-390
h-307zM797 358q137 0 226 95.5t89 267.5q0 179 -89 275t-226 96q-133 0 -222.5 -102.5t-89.5 -268.5q0 -160 89.5 -261.5t222.5 -101.5z" />
    <glyph glyph-name="at.salt.ss11" horiz-adv-x="2334" 
d="M1364 84q-100 0 -159.5 57t-59.5 152v74h-2q-36 -138 -148.5 -218.5t-263.5 -80.5q-143 0 -231 85t-88 218q0 135 93 213t259 78h135q126 0 182 38.5t56 116.5q0 109 -79 172.5t-214 63.5q-138 0 -225.5 -74t-100.5 -211h-69q10 162 119 250t276 88t262.5 -80.5
t95.5 -216.5v-512q0 -164 172 -164h180q-77 59 -77 172v737h-232v50h232v229h61v-229h324v-50h-324v-720q0 -94 41 -141.5t135 -47.5h74q71 0 129.5 26t106 81t74 150.5t26.5 223.5q0 156 -34.5 294t-98.5 246.5t-154 194t-199 142t-234.5 86t-260.5 29.5q-163 0 -311 -41.5
t-272.5 -125t-216 -200.5t-142.5 -277.5t-51 -347.5q0 -233 78 -423t213 -314t315 -191t387 -67q529 0 807 363h61q-141 -198 -365.5 -307t-502.5 -109q-177 0 -336.5 44t-292 132.5t-229 212.5t-150 293t-53.5 366t53.5 365.5t150 292.5t229 211.5t292 131.5t336.5 44
q221 0 412.5 -72.5t332.5 -204.5t222 -330t81 -438q0 -117 -21.5 -209t-58.5 -151.5t-89.5 -98t-109.5 -55t-124 -16.5h-424zM1141 553v172h-2q-49 -117 -236 -117h-137q-146 0 -216.5 -69.5t-70.5 -167.5q0 -64 27 -119t89 -93t148 -38q76 0 145 26t126.5 76.5t92 136
t34.5 193.5z" />
    <glyph glyph-name="ampersand.salt.ss11" horiz-adv-x="1308" 
d="M1251 690h-184v-528q0 -115 100 -115h84v-47h-92q-68 0 -108.5 41.5t-40.5 116.5v161q-50 -164 -174.5 -248.5t-298.5 -84.5q-200 0 -317.5 106.5t-117.5 272.5q0 150 98.5 244t284.5 112q-156 28 -238.5 114.5t-82.5 219.5q0 167 124.5 273t346.5 106h473v-50h-473
q-193 0 -298.5 -88.5t-105.5 -242.5q0 -150 104.5 -230t299.5 -80h371v240h61v-240h184v-53zM1006 524v166h-433q-194 0 -298.5 -83t-104.5 -236q0 -155 102.5 -243.5t278.5 -88.5q99 0 181 29t144 87t96 152t34 217z" />
    <glyph glyph-name="acute.ss11" horiz-adv-x="473" 
d="M0 1270l473 84v-51l-473 -78v45z" />
    <glyph glyph-name="breve.ss11" horiz-adv-x="544" 
d="M442 1368h62q-19 -76 -81.5 -124t-150.5 -48t-150 48t-81 124h61q19 -61 64 -96t106 -35t106 35t64 96z" />
    <glyph glyph-name="caron.ss11" horiz-adv-x="565" 
d="M502 1356v-56l-215 -90h-11l-215 90v56l220 -101h2z" />
    <glyph glyph-name="cedilla.ss11" horiz-adv-x="460" 
d="M289 -102q151 0 151 -115q0 -66 -48.5 -98.5t-137.5 -32.5h-274v51h274q127 0 127 82q0 35 -24.5 53.5t-67.5 18.5h-119v143h49v-102h70z" />
    <glyph glyph-name="circumflex.ss11" horiz-adv-x="563" 
d="M502 1210l-219 101h-2l-220 -101v56l215 90h11l215 -90v-56z" />
    <glyph glyph-name="dieresis.ss11" horiz-adv-x="393" 
d="M41 1276v74h74v-74h-74zM279 1276v74h73v-74h-73z" />
    <glyph glyph-name="dotaccent.ss11" horiz-adv-x="155" 
d="M41 1274v74h74v-74h-74z" />
    <glyph glyph-name="grave.ss11" horiz-adv-x="473" 
d="M473 1270v-45l-473 78v51z" />
    <glyph glyph-name="hungarumlaut.ss11" horiz-adv-x="473" 
d="M-20 1270l268 84v-51l-268 -78v45zM225 1270l269 84v-51l-269 -78v45z" />
    <glyph glyph-name="macron.ss11" horiz-adv-x="593" 
d="M41 1333v49h512v-49h-512z" />
    <glyph glyph-name="ogonek.ss11" horiz-adv-x="317" 
d="M252 -291h35v-57h-35q-93 0 -152 42t-59 118q0 68 48.5 118.5t127.5 69.5v18h49v-38h-10q-80 -14 -123 -59.5t-43 -102.5q0 -109 162 -109z" />
    <glyph glyph-name="ring.ss11" horiz-adv-x="401" 
d="M180 1174q-58 0 -98.5 40t-40.5 99t40.5 100t98.5 41q59 0 100.5 -41.5t41.5 -99.5t-41.5 -98.5t-100.5 -40.5zM180 1214q40 0 70.5 29t30.5 70t-30.5 70.5t-70.5 29.5t-69 -29.5t-29 -70.5t29 -70t69 -29z" />
    <glyph glyph-name="tilde.ss11" horiz-adv-x="819" 
d="M563 1180q-105 0 -168 96q-31 46 -61 66t-78 20q-57 0 -97 -44.5t-40 -127.5h-47q0 100 52 157.5t132 57.5q62 0 104 -26t76 -79q27 -42 56.5 -59.5t70.5 -17.5q57 0 97 44.5t40 127.5h48q0 -101 -51 -158t-134 -57z" />
    <glyph glyph-name="_global" horiz-adv-x="1288" 
d="M0 1434v22h1272v-22h-1272zM0 1126v23h1272v-23h-1272zM0 -23v23h1272v-23h-1272zM0 -348v100h1288v-100h-1288z" />
    </font>
</defs>
</svg>
