<svg width="36" height="46" viewBox="0 0 36 46" fill="none" xmlns="http://www.w3.org/2000/svg">
<path d="M30.2727 13.1429H19.6364V28.8907L25.0251 23.4816C25.3345 23.1865 25.7464 23.0244 26.1731 23.0299C26.5998 23.0354 27.0075 23.208 27.3093 23.5109C27.611 23.8139 27.783 24.2232 27.7884 24.6516C27.7939 25.08 27.6324 25.4936 27.3385 25.8042L19.1567 34.0184C18.8499 34.3263 18.4338 34.4992 18 34.4992C17.5662 34.4992 17.1501 34.3263 16.8433 34.0184L8.66148 25.8042C8.36755 25.4936 8.20611 25.08 8.21158 24.6516C8.21704 24.2232 8.38897 23.8139 8.69072 23.5109C8.99247 23.208 9.40016 23.0354 9.82686 23.0299C10.2536 23.0244 10.6655 23.1865 10.9749 23.4816L16.3636 28.8907V13.1429H5.72727C4.2088 13.1445 2.75299 13.7508 1.67927 14.8288C0.605553 15.9068 0.00162432 17.3684 0 18.8929V40.25C0.00162432 41.7745 0.605553 43.2361 1.67927 44.3141C2.75299 45.392 4.2088 45.9984 5.72727 46H30.2727C31.7912 45.9984 33.247 45.392 34.3207 44.3141C35.3944 43.2361 35.9984 41.7745 36 40.25V18.8929C35.9984 17.3684 35.3944 15.9068 34.3207 14.8288C33.247 13.7508 31.7912 13.1445 30.2727 13.1429ZM19.6364 1.64286C19.6364 1.20714 19.464 0.789277 19.1571 0.481182C18.8502 0.173086 18.434 0 18 0C17.566 0 17.1498 0.173086 16.8429 0.481182C16.536 0.789277 16.3636 1.20714 16.3636 1.64286V13.1429H19.6364V1.64286Z" fill="black"/>
</svg>
