<svg width="84" height="30" viewBox="0 0 54 10" fill="none" xmlns="http://www.w3.org/2000/svg">
                    <path d="M3.24 9.168C2.768 9.168 2.324 9.052 1.908 8.82C1.5 8.58 1.172 8.232 0.924 7.776C0.676 7.32 0.552 6.768 0.552 6.12V5.928C0.552 5.28 0.676 4.728 0.924 4.272C1.172 3.816 1.5 3.472 1.908 3.24C2.316 3 2.76 2.88 3.24 2.88C3.6 2.88 3.9 2.924 4.14 3.012C4.388 3.092 4.588 3.196 4.74 3.324C4.892 3.452 5.008 3.588 5.088 3.732H5.304V0.599999H6.816V9H5.328V8.28H5.112C4.976 8.504 4.764 8.708 4.476 8.892C4.196 9.076 3.784 9.168 3.24 9.168ZM3.696 7.848C4.16 7.848 4.548 7.7 4.86 7.404C5.172 7.1 5.328 6.66 5.328 6.084V5.964C5.328 5.388 5.172 4.952 4.86 4.656C4.556 4.352 4.168 4.2 3.696 4.2C3.232 4.2 2.844 4.352 2.532 4.656C2.22 4.952 2.064 5.388 2.064 5.964V6.084C2.064 6.66 2.22 7.1 2.532 7.404C2.844 7.7 3.232 7.848 3.696 7.848ZM19.2619 9V3.048H20.7499V3.72H20.9659C21.0539 3.48 21.1979 3.304 21.3979 3.192C21.6059 3.08 21.8459 3.024 22.1179 3.024H22.8379V4.368H22.0939C21.7099 4.368 21.3939 4.472 21.1459 4.68C20.8979 4.88 20.7739 5.192 20.7739 5.616V9H19.2619ZM26.5208 9.168C25.9288 9.168 25.4048 9.044 24.9488 8.796C24.5008 8.54 24.1488 8.184 23.8928 7.728C23.6448 7.264 23.5208 6.72 23.5208 6.096V5.952C23.5208 5.328 23.6448 4.788 23.8928 4.332C24.1408 3.868 24.4888 3.512 24.9368 3.264C25.3848 3.008 25.9048 2.88 26.4967 2.88C27.0808 2.88 27.5888 3.012 28.0208 3.276C28.4528 3.532 28.7888 3.892 29.0287 4.356C29.2688 4.812 29.3888 5.344 29.3888 5.952V6.468H25.0568C25.0728 6.876 25.2248 7.208 25.5128 7.464C25.8008 7.72 26.1528 7.848 26.5688 7.848C26.9928 7.848 27.3048 7.756 27.5048 7.572C27.7048 7.388 27.8568 7.184 27.9608 6.96L29.1968 7.608C29.0848 7.816 28.9208 8.044 28.7048 8.292C28.4968 8.532 28.2168 8.74 27.8648 8.916C27.5128 9.084 27.0648 9.168 26.5208 9.168ZM25.0688 5.34H27.8528C27.8208 4.996 27.6808 4.72 27.4328 4.512C27.1928 4.304 26.8768 4.2 26.4848 4.2C26.0768 4.2 25.7528 4.304 25.5128 4.512C25.2728 4.72 25.1248 4.996 25.0688 5.34ZM33.5305 9.168C32.9545 9.168 32.4305 9.048 31.9585 8.808C31.4945 8.568 31.1265 8.22 30.8545 7.764C30.5825 7.308 30.4465 6.756 30.4465 6.108V5.94C30.4465 5.292 30.5825 4.74 30.8545 4.284C31.1265 3.828 31.4945 3.48 31.9585 3.24C32.4305 3 32.9545 2.88 33.5305 2.88C34.0985 2.88 34.5865 2.98 34.9945 3.18C35.4025 3.38 35.7305 3.656 35.9785 4.008C36.2345 4.352 36.4025 4.744 36.4825 5.184L35.0185 5.496C34.9865 5.256 34.9145 5.04 34.8025 4.848C34.6905 4.656 34.5305 4.504 34.3225 4.392C34.1225 4.28 33.8705 4.224 33.5665 4.224C33.2625 4.224 32.9865 4.292 32.7385 4.428C32.4985 4.556 32.3065 4.752 32.1625 5.016C32.0265 5.272 31.9585 5.588 31.9585 5.964V6.084C31.9585 6.46 32.0265 6.78 32.1625 7.044C32.3065 7.3 32.4985 7.496 32.7385 7.632C32.9865 7.76 33.2625 7.824 33.5665 7.824C34.0225 7.824 34.3665 7.708 34.5985 7.476C34.8385 7.236 34.9905 6.924 35.0545 6.54L36.5185 6.888C36.4145 7.312 36.2345 7.7 35.9785 8.052C35.7305 8.396 35.4025 8.668 34.9945 8.868C34.5865 9.068 34.0985 9.168 33.5305 9.168ZM39.8583 9C39.4663 9 39.1463 8.88 38.8983 8.64C38.6583 8.392 38.5383 8.064 38.5383 7.656V4.296H37.0503V3.048H38.5383V1.2H40.0503V3.048H41.6823V4.296H40.0503V7.392C40.0503 7.632 40.1623 7.752 40.3863 7.752H41.5383V9H39.8583ZM45.672 9.168C45.08 9.168 44.548 9.048 44.076 8.808C43.604 8.568 43.232 8.22 42.96 7.764C42.688 7.308 42.552 6.76 42.552 6.12V5.928C42.552 5.288 42.688 4.74 42.96 4.284C43.232 3.828 43.604 3.48 44.076 3.24C44.548 3 45.08 2.88 45.672 2.88C46.264 2.88 46.796 3 47.268 3.24C47.74 3.48 48.112 3.828 48.384 4.284C48.656 4.74 48.792 5.288 48.792 5.928V6.12C48.792 6.76 48.656 7.308 48.384 7.764C48.112 8.22 47.74 8.568 47.268 8.808C46.796 9.048 46.264 9.168 45.672 9.168ZM45.672 7.824C46.136 7.824 46.52 7.676 46.824 7.38C47.128 7.076 47.28 6.644 47.28 6.084V5.964C47.28 5.404 47.128 4.976 46.824 4.68C46.528 4.376 46.144 4.224 45.672 4.224C45.208 4.224 44.824 4.376 44.52 4.68C44.216 4.976 44.064 5.404 44.064 5.964V6.084C44.064 6.644 44.216 7.076 44.52 7.38C44.824 7.676 45.208 7.824 45.672 7.824ZM50.1877 9V3.048H51.6757V3.72H51.8917C51.9797 3.48 52.1237 3.304 52.3237 3.192C52.5317 3.08 52.7717 3.024 53.0437 3.024H53.7637V4.368H53.0197C52.6357 4.368 52.3197 4.472 52.0717 4.68C51.8237 4.88 51.6997 5.192 51.6997 5.616V9H50.1877Z" fill="white"/>
                    <path d="M7.86834 9L10.0763 0.599999H12.8363L15.0443 9H13.4123L12.9563 7.152H9.95634L9.50034 9H7.86834ZM10.3283 5.688H12.5843L11.5643 1.596H11.3483L10.3283 5.688ZM16.0498 9V0.599999H17.6338V9H16.0498Z" fill="#FF1E47"/>
                </svg>