<svg id="Layer_1" data-name="Layer 1" xmlns="http://www.w3.org/2000/svg" viewBox="0 0 300 37.5"><defs><style>.cls-1{fill:#fff;}</style></defs><title>lpt-white</title><path class="cls-1" d="M3.51,2.37h6.63v23H3.51Z"/><path class="cls-1" d="M13,20.18c0-4.6,4.86-5.92,9.8-5.92a31.48,31.48,0,0,1,7.84,1c-.08-2.24-1.75-3-5.23-3a44,44,0,0,0-10.19,1.46l-.81-4.74A57.63,57.63,0,0,1,26.64,7.51c7.27,0,10.66,2.44,10.66,8.85v9H30.6V23.08A19.38,19.38,0,0,1,20.92,26C16.44,26,13,24.2,13,20.18Zm10.2,1.35a28.55,28.55,0,0,0,7.44-1.41V18.68A45.23,45.23,0,0,0,23.68,18c-2.79,0-3.76.55-3.76,1.87C19.92,20.84,20.89,21.53,23.16,21.53Z"/><path class="cls-1" d="M51.88,8.08h6.64v3.39c1.66-2.5,4.62-4,8.38-4,6.21,0,10.23,3.59,10.23,9.19s-4,9.22-10.23,9.22c-3.76,0-6.72-1.46-8.38-4V32.36H51.88ZM64.64,20.41c3.5,0,5.54-1.47,5.54-3.71S68.14,13,64.64,13c-3.83,0-6.12,1.44-6.12,3.68S60.81,20.41,64.64,20.41Z"/><path class="cls-1" d="M79.42,16.73c0-5.66,4.91-9.22,12.55-9.22,8,0,12.7,3.65,12.7,10.54H86.25c.58,2.24,2.76,3.25,6.15,3.25,2.73,0,4.94-.78,5.63-2.07h6.49C103.14,23.68,99.38,26,92,25.92,84.3,25.92,79.39,22.33,79.42,16.73ZM97.8,14.86c-.77-1.95-2.7-2.73-5.57-2.73-3.13,0-5.11.84-5.83,2.73Z"/><path class="cls-1" d="M109.19,20.18V12.94h-3.42V8.08h3.42V4.92L115.8,3.2V8.08h7v4.86h-7v4.82a2.38,2.38,0,0,0,2.64,2.7,17.25,17.25,0,0,0,4.37-.57v5.28a24.39,24.39,0,0,1-5.92.75C111.92,25.92,109.19,24,109.19,20.18Z"/><path class="cls-1" d="M125.6,2.37h6.64v4H125.6Zm0,5.71h6.64V25.35H125.6Z"/><path class="cls-1" d="M138,20.18V12.94H134.6V8.08H138V4.92l6.61-1.72V8.08h7v4.86h-7v4.82a2.38,2.38,0,0,0,2.64,2.7,17.3,17.3,0,0,0,4.37-.57v5.28a24.39,24.39,0,0,1-5.92.75C140.75,25.92,138,24,138,20.18Z"/><path class="cls-1" d="M154.2,16.73c0-5.66,4.92-9.22,12.56-9.22,8,0,12.69,3.65,12.69,10.54H161c.57,2.24,2.76,3.25,6.15,3.25,2.73,0,4.94-.78,5.63-2.07h6.49c-1.38,4.45-5.14,6.72-12.52,6.69C159.09,25.92,154.17,22.33,154.2,16.73Zm18.39-1.87c-.78-1.95-2.7-2.73-5.58-2.73-3.13,0-5.11.84-5.83,2.73Z"/><path class="cls-1" d="M196.28,20.18V12.94h-3.42V8.08h3.42V4.92l6.61-1.72V8.08h7v4.86h-7v4.82a2.38,2.38,0,0,0,2.64,2.7,17.3,17.3,0,0,0,4.37-.57v5.28a24.39,24.39,0,0,1-5.92.75C199,25.92,196.28,24,196.28,20.18Z"/><path class="cls-1" d="M212.72,8.08h6.64v3.77c1.75-3.14,3.93-4.34,7-4.34a9.83,9.83,0,0,1,4.19.86v5.77a11.67,11.67,0,0,0-4.45-.86,8,8,0,0,0-6.72,3.62v8.45h-6.64Z"/><path class="cls-1" d="M233.39,2.37H240v4h-6.63Zm0,5.71H240V25.35h-6.63Z"/><path class="cls-1" d="M243.42,2.37h6.63v9.1c1.67-2.5,4.63-4,8.39-4,6.2,0,10.23,3.59,10.23,9.19s-4,9.22-10.23,9.22c-3.76,0-6.72-1.46-8.39-4v3.42h-6.63Zm12.75,18c3.51,0,5.55-1.47,5.55-3.71s-2-3.68-5.55-3.68c-3.82,0-6.12,1.44-6.12,3.68S252.35,20.41,256.17,20.41Z"/><path class="cls-1" d="M296.43,25.35h-6.72V21.47c-2.15,2.64-5.11,4.45-9.88,4.45-5.14,0-8.65-2.24-8.65-8.59V8.08h6.72V14.8c0,3.82,1.3,5.61,5.29,5.61,4.19,0,6.52-1.84,6.52-5.52V8.08h6.72Z"/></svg>