<?xml version="1.0" standalone="no"?>
<!DOCTYPE svg PUBLIC "-//W3C//DTD SVG 1.1//EN" "http://www.w3.org/Graphics/SVG/1.1/DTD/svg11.dtd" >
<svg xmlns="http://www.w3.org/2000/svg" xmlns:xlink="http://www.w3.org/1999/xlink" version="1.1">
<metadata>
Created by FontForge 20201107 at Sat Feb 22 13:51:02 2025
 By 
Copyright (c) 2022 Pangram Pangram by Jack Harvatt. All rights reserved.
</metadata>
<defs>
<font id="PPRadioGrotesk-UltralightItalic" horiz-adv-x="0" >
  <font-face 
    font-family="PP Radio Grotesk Ultralight"
    font-weight="200"
    font-style="italic"
    font-stretch="normal"
    units-per-em="2048"
    panose-1="0 0 0 0 0 0 0 0 0 0"
    ascent="1638"
    descent="-410"
    x-height="1026"
    cap-height="1434"
    bbox="-459 -436 3903 1825"
    underline-thickness="102"
    underline-position="-255"
    slope="-10"
    unicode-range="U+000D-1F150"
  />
<missing-glyph horiz-adv-x="921" 
d="M756 1434v-1844h-584v1844h584zM307 -283h307v62h-188l129 86h59v61h-307v-61h129l-129 -86v-62zM307 -33h307v209h-307v-209zM307 287h307v209h-184v-103h62v41h61v-86h-184v148h-62v-209zM307 537h307v184h-61v-123h-246v-61zM307 641h185v129h122v61h-307v-61h123v-68
h-123v-61zM307 881h307v63h-122v129h-185v-192zM307 1120h307v62h-122v67h122v62h-305v-62h121v-67h-123v-62zM369 29v88h184v-88h-184zM369 944v66h61v-66h-61z" />
    <glyph glyph-name="f_f" unicode="ff" horiz-adv-x="1052" 
d="M287 1186q45 250 293 250h127l-17 -93h-121q-82 0 -121 -39t-57 -128l-26 -150h413l29 160q45 250 293 250h127l-17 -93h-120q-82 0 -121.5 -39t-57.5 -128l-26 -150h252l-15 -88h-252l-165 -938h-105l164 938h-414l-166 -938h-104l164 938h-138l17 88h135z" />
    <glyph glyph-name="f_f_i" unicode="ffi" horiz-adv-x="1462" 
d="M1120 0l183 1026h106l-182 -1026h-107zM80 0l164 938h-138l17 88h135l29 160q45 250 293 250h127l-17 -93h-121q-82 0 -121 -39t-57 -128l-26 -150h413l29 160q45 250 293 250h127l-17 -93h-120q-82 0 -121.5 -39t-57.5 -128l-26 -150h252l-15 -88h-252l-165 -938h-105
l164 938h-414l-166 -938h-104zM1319 1180l29 182h116l-28 -182h-117z" />
    <glyph glyph-name="f_i" unicode="fi" horiz-adv-x="983" 
d="M287 1186q45 250 293 250h127l-17 -93h-121q-82 0 -121 -39t-57 -128l-26 -150h251l-14 -88h-252l-166 -938h-104l164 938h-138l17 88h135zM641 0l182 1026h107l-182 -1026h-107zM840 1180l28 182h117l-29 -182h-116z" />
    <glyph glyph-name="f_l" unicode="fl" horiz-adv-x="972" 
d="M287 1186q45 250 293 250h127l-17 -93h-121q-82 0 -121 -39t-57 -128l-26 -150h251l-14 -88h-252l-166 -938h-104l164 938h-138l17 88h135zM631 0l252 1434h106l-252 -1434h-106z" />
    <glyph glyph-name=".notdef" horiz-adv-x="921" 
d="M756 1434v-1844h-584v1844h584zM307 -283h307v62h-188l129 86h59v61h-307v-61h129l-129 -86v-62zM307 -33h307v209h-307v-209zM307 287h307v209h-184v-103h62v41h61v-86h-184v148h-62v-209zM307 537h307v184h-61v-123h-246v-61zM307 641h185v129h122v61h-307v-61h123v-68
h-123v-61zM307 881h307v63h-122v129h-185v-192zM307 1120h307v62h-122v67h122v62h-305v-62h121v-67h-123v-62zM369 29v88h184v-88h-184zM369 944v66h61v-66h-61z" />
    <glyph glyph-name=".null" horiz-adv-x="1228" 
 />
    <glyph glyph-name="nonmarkingreturn" horiz-adv-x="682" 
 />
    <glyph glyph-name="CR" unicode="&#xd;" horiz-adv-x="1228" 
 />
    <glyph glyph-name="space" unicode=" " horiz-adv-x="555" 
 />
    <glyph glyph-name="exclam" unicode="!" horiz-adv-x="473" 
d="M174 313l53 449l119 672h103l-117 -672l-107 -449h-51zM82 0l31 170h129l-31 -170h-129z" />
    <glyph glyph-name="quotedbl" unicode="&#x22;" horiz-adv-x="571" 
d="M449 1038h63l72 291l18 105h-104l-17 -105zM244 1038h63l72 291l18 105h-104l-17 -105z" />
    <glyph glyph-name="numbersign" unicode="#" horiz-adv-x="1239" 
d="M502 0l184 420h-321l-183 -420h-100l182 420h-272l43 88h268l186 428h-282l43 88h278l179 410h100l-178 -410h321l178 410h101l-178 -410h274l-43 -88h-270l-189 -428h287l-43 -88h-281l-184 -420h-100zM403 508h320l188 428h-321z" />
    <glyph glyph-name="dollar" unicode="$" horiz-adv-x="1185" 
d="M438 -168l29 164q-186 26 -295.5 138t-114.5 265l105 29q5 -131 89.5 -222t231.5 -114l107 615l-64 22q-73 25 -123 50t-93 61.5t-64 87t-21 116.5q0 89 40.5 166t108.5 128.5t155 80.5t180 29h12l27 158h81l-28 -164q87 -10 155 -41.5t110.5 -77t67.5 -96.5t35 -109
l-106 -26q-8 44 -26 82t-50 73.5t-83.5 61.5t-119.5 37l-98 -560l90 -32q141 -49 218 -127.5t77 -208.5q0 -102 -43 -185t-114.5 -135t-161 -80t-187.5 -28h-18l-27 -158h-82zM340 1065q0 -49 15 -86.5t47.5 -65t71 -46.5t97.5 -40l39 -14l92 539h-18q-135 0 -239.5 -83
t-104.5 -204zM563 84h15q95 0 180 34.5t142.5 107t57.5 169.5q0 102 -59.5 164.5t-179.5 102.5l-51 18z" />
    <glyph glyph-name="percent" unicode="%" horiz-adv-x="1378" 
d="M66 0l1214 1434h115l-1215 -1434h-114zM231 1122q0 132 82.5 229t218.5 97q100 0 154.5 -54.5t54.5 -146.5q0 -82 -33 -154.5t-103.5 -121.5t-164.5 -49q-100 0 -154.5 53.5t-54.5 146.5zM328 1137q0 -64 32 -102t93 -38q85 0 137.5 69.5t52.5 166.5q0 63 -32 100t-93 37
q-87 0 -138.5 -70.5t-51.5 -162.5zM709 186q0 84 34 157t104 121t163 48q100 0 154.5 -54.5t54.5 -148.5q0 -130 -82.5 -226.5t-218.5 -96.5q-100 0 -154.5 54t-54.5 146zM807 201q0 -64 31 -101t92 -37q88 0 140 72t52 162q0 64 -32 101.5t-93 37.5q-89 0 -139.5 -72
t-50.5 -163z" />
    <glyph glyph-name="ampersand" unicode="&#x26;" horiz-adv-x="1482" 
d="M78 309q0 164 100.5 279.5t288.5 181.5q-53 133 -53 242q0 113 54 212t157.5 161.5t232.5 62.5q146 0 223.5 -67t77.5 -177q0 -81 -29 -148.5t-77 -115.5t-121.5 -88t-150 -67t-175.5 -52q157 -351 371 -512q158 146 199 389h100q-43 -259 -234 -432q128 -74 289 -74
l-18 -104q-196 0 -361 100q-180 -114 -401 -114q-220 0 -346.5 84.5t-126.5 238.5zM199 336q0 -123 104 -190.5t287 -67.5q163 0 295 72q-232 184 -393 559q-139 -53 -216 -149.5t-77 -223.5zM528 1022q0 -96 52 -229q107 28 184.5 60t144 78t101 109.5t34.5 143.5
q0 78 -51 124t-151 46q-138 0 -226 -99.5t-88 -232.5z" />
    <glyph glyph-name="quotesingle" unicode="'" horiz-adv-x="366" 
d="M244 1038h63l72 291l18 105h-104l-17 -105z" />
    <glyph glyph-name="parenleft" unicode="(" horiz-adv-x="518" 
d="M260 -184q-7 8 -22.5 35t-40.5 84t-46.5 124.5t-37 164t-15.5 194.5q0 155 54.5 346.5t159 376.5t231.5 293h94q-114 -117 -199.5 -254.5t-135 -274.5t-73.5 -267.5t-24 -256.5q0 -50 4 -99t10.5 -90t16 -81.5t19 -72t21 -62.5t21.5 -52.5t20.5 -42.5t17 -32.5
t13.5 -22.5l6 -10h-94z" />
    <glyph glyph-name="parenright" unicode=")" horiz-adv-x="518" 
d="M297 1432q7 -8 22.5 -35t40 -84.5t46 -125t37 -164t14.5 -194.5q0 -155 -54.5 -346t-159 -376t-231.5 -293h-94q114 117 199.5 254t135 274t73.5 267.5t24 256.5q0 50 -3.5 99t-10 90t-15.5 81.5t-19 72t-21.5 62.5t-21 53t-20 43t-17 32t-12.5 22l-7 11h94z" />
    <glyph glyph-name="asterisk" unicode="*" horiz-adv-x="776" 
d="M385 766l68 283l-265 -156l-32 80l276 127l-229 127l59 80l211 -156l31 283h92l-68 -283l265 156l32 -80l-276 -127l231 -127l-59 -80l-211 158l-33 -285h-92z" />
    <glyph glyph-name="plus" unicode="+" horiz-adv-x="1075" 
d="M432 197l70 393h-387l14 90h389l70 391h98l-70 -391h390l-17 -90h-389l-70 -393h-98z" />
    <glyph glyph-name="comma" unicode="," horiz-adv-x="337" 
d="M-39 -125q85 0 107 125h-58l29 170h129l-33 -178q-14 -87 -61.5 -139t-124.5 -52z" />
    <glyph glyph-name="hyphen" unicode="-" horiz-adv-x="897" 
d="M147 653h652l-15 -88h-651z" />
    <glyph glyph-name="period" unicode="." horiz-adv-x="346" 
d="M18 0l31 170h129l-31 -170h-129z" />
    <glyph glyph-name="slash" unicode="/" horiz-adv-x="856" 
d="M-96 -201h112l973 1635h-112z" />
    <glyph glyph-name="zero" unicode="0" horiz-adv-x="1177" 
d="M496 -14q-186 0 -288 127.5t-102 361.5q0 96 16.5 201t48.5 215.5t86.5 209.5t123.5 177t165.5 124t207.5 46q184 0 286.5 -129t102.5 -367q0 -81 -11.5 -169t-36.5 -182.5t-61.5 -182.5t-90 -167t-117.5 -137.5t-149 -93t-181 -34.5zM223 485q0 -193 76 -297t213 -104
q108 0 197.5 62t146 156.5t96 213t56 227t16.5 201.5q0 196 -75.5 301t-213.5 105q-107 0 -196.5 -62.5t-146.5 -158t-96.5 -214.5t-56 -228t-16.5 -202z" />
    <glyph glyph-name="one" unicode="1" horiz-adv-x="557" 
d="M186 0l211 1206q-80 -170 -245 -170l20 117q106 0 172 63.5t94 213.5v4h111l-252 -1434h-111z" />
    <glyph glyph-name="two" unicode="2" horiz-adv-x="1062" 
d="M-23 47q18 98 63.5 184t106.5 150t135 120.5t152 102.5t154 90t143 88t118.5 91.5t81.5 106.5t30 126q0 116 -72.5 180t-198.5 64q-145 0 -247 -79.5t-162 -201.5l-103 29q75 157 214.5 253.5t328.5 96.5q158 0 256 -86.5t98 -233.5q0 -80 -28.5 -150t-77.5 -123.5
t-113 -102t-137.5 -92t-149 -86t-148.5 -92t-135 -103.5t-110.5 -126t-71.5 -153h832l-59 -100h-908z" />
    <glyph glyph-name="three" unicode="3" horiz-adv-x="1083" 
d="M444 -14q-195 0 -314 98.5t-126 269.5l117 31q6 -136 96.5 -218.5t247.5 -82.5q179 0 291 102.5t112 264.5q0 112 -81 179.5t-238 67.5h-131l41 95h110q160 0 267.5 102.5t107.5 243.5q0 97 -69 154t-191 57q-132 0 -236 -75t-149 -196l-98 31q55 149 192.5 243.5
t311.5 94.5q168 0 263 -76t95 -207q0 -146 -92.5 -256.5t-237.5 -152.5q114 -24 182 -104t68 -197q0 -202 -153.5 -335.5t-385.5 -133.5z" />
    <glyph glyph-name="four" unicode="4" horiz-adv-x="1019" 
d="M14 485l781 949h147l-166 -949h228l-41 -94h-203l-70 -391h-112l69 391h-649zM135 485h529l143 822z" />
    <glyph glyph-name="five" unicode="5" horiz-adv-x="1091" 
d="M463 -14q-184 0 -291 101t-113 267l111 29q8 -138 86.5 -219.5t224.5 -81.5q120 0 218 66.5t152 175.5t54 235q0 132 -69.5 209.5t-194.5 77.5q-116 0 -222.5 -65.5t-170.5 -178.5h-121l254 832h764l-37 -97h-641l-195 -610q154 215 414 215q157 0 246.5 -97.5
t89.5 -264.5q0 -122 -43 -232t-117 -189.5t-178 -126t-221 -46.5z" />
    <glyph glyph-name="six" unicode="6" horiz-adv-x="1126" 
d="M506 -14q-185 0 -297.5 117.5t-112.5 336.5q0 96 19 204.5t55.5 222t95 217.5t131.5 185.5t172 130t209 48.5q161 0 252 -83t105 -235l-111 -28q-28 248 -266 248q-186 0 -324.5 -186t-220.5 -568q67 141 196.5 227t272.5 86q172 0 267 -90.5t95 -251.5
q0 -152 -65 -283.5t-190 -214.5t-283 -83zM215 391q0 -135 90 -221t217 -86q118 0 212 66.5t143 171.5t49 225q0 127 -72.5 198.5t-204.5 71.5q-107 0 -207 -56t-163.5 -155.5t-63.5 -214.5z" />
    <glyph glyph-name="seven" unicode="7" horiz-adv-x="925" 
d="M33 0l897 1337h-746l-6 97h889l-16 -97l-899 -1337h-119z" />
    <glyph glyph-name="eight" unicode="8" horiz-adv-x="1116" 
d="M463 -12q-198 0 -308 81.5t-110 229.5q0 166 112.5 296t293.5 159q-101 22 -162.5 92.5t-61.5 173.5q0 123 65.5 221t178.5 152.5t250 54.5q172 0 269 -79t97 -214q0 -143 -95 -259.5t-238 -143.5q124 -22 196 -102t72 -193q0 -203 -153.5 -336t-405.5 -133zM162 319
q0 -110 84 -171.5t235 -61.5q189 0 306.5 101t117.5 262q0 114 -83.5 185t-231.5 71q-103 0 -186.5 -34.5t-135 -91t-79 -124t-27.5 -136.5zM342 1022q0 -104 69.5 -162.5t194.5 -58.5q89 0 160.5 29.5t115 78.5t66.5 107t23 119q0 98 -70.5 156.5t-195.5 58.5
q-160 0 -261.5 -93.5t-101.5 -234.5z" />
    <glyph glyph-name="nine" unicode="9" horiz-adv-x="1126" 
d="M692 1448q185 0 297.5 -118t112.5 -337q0 -95 -19 -204t-55.5 -222.5t-95 -217t-131.5 -185t-172 -130t-209 -48.5q-161 0 -252 82.5t-105 234.5l111 29q28 -248 266 -248q186 0 324.5 186t220.5 568q-67 -141 -196.5 -227.5t-272.5 -86.5q-172 0 -267 90.5t-95 251.5
q0 152 65 284t190 215t283 83zM272 887q0 -127 72.5 -199t204.5 -72q107 0 207 56t163.5 155.5t63.5 214.5q0 135 -90.5 221.5t-216.5 86.5q-118 0 -212 -66.5t-143 -171.5t-49 -225z" />
    <glyph glyph-name="colon" unicode=":" horiz-adv-x="348" 
d="M131 633l31 170h129l-31 -170h-129zM18 0l31 170h129l-31 -170h-129z" />
    <glyph glyph-name="semicolon" unicode=";" horiz-adv-x="337" 
d="M121 635l31 170h129l-31 -170h-129zM-51 -199l12 74q43 0 70 29t39 96h-58l29 170h129l-33 -178q-14 -87 -61.5 -139t-126.5 -52z" />
    <glyph glyph-name="less" unicode="&#x3c;" horiz-adv-x="903" 
d="M825 938l-20 -107l-574 -253l488 -250l-21 -105l-581 301l18 103l2 8z" />
    <glyph glyph-name="equal" unicode="=" horiz-adv-x="952" 
d="M88 393l16 92h740l-15 -92h-741zM145 764l17 92h739l-14 -92h-742z" />
    <glyph glyph-name="greater" unicode="&#x3e;" horiz-adv-x="903" 
d="M102 225l21 107l573 254l-487 250l20 104l582 -301l-18 -102l-2 -9z" />
    <glyph glyph-name="question" unicode="?" horiz-adv-x="954" 
d="M358 385q13 76 40.5 139t62.5 106.5t76.5 80.5t84 65t84 55.5t78 57.5t64 65t43.5 84t16 109q0 97 -66.5 150t-189.5 53q-304 0 -420 -328l-98 25q67 195 205 298t330 103q167 0 260.5 -75.5t93.5 -207.5q0 -69 -17 -126.5t-46 -99t-67 -76.5t-81 -65t-87.5 -59.5
t-87 -64t-77.5 -73.5t-62 -94.5t-38 -121.5l-6 -35h-101zM279 0l30 170h129l-30 -170h-129z" />
    <glyph glyph-name="at" unicode="@" horiz-adv-x="1691" 
d="M721 -276q-305 0 -476 165t-171 453q0 156 41 301.5t120.5 267t188.5 212t254.5 141.5t310.5 51q305 0 475 -148.5t170 -410.5q0 -58 -9.5 -122.5t-28.5 -134t-51.5 -132t-74 -113t-100.5 -80t-127 -29.5q-101 0 -151 54t-45 145q-49 -92 -131.5 -145.5t-188.5 -53.5
q-126 0 -198 72.5t-72 204.5q0 120 47.5 224t140 170.5t211.5 66.5q105 0 168 -49t82 -138l29 160h100l-82 -469q-6 -28 -3 -57t13 -53t36.5 -39t66.5 -15q54 0 100 39.5t75 99t49.5 131.5t29 134t8.5 110q0 229 -146.5 359.5t-408.5 130.5q-143 0 -269.5 -46t-220.5 -127.5
t-162.5 -190t-103.5 -237t-35 -264.5q0 -257 150 -402.5t418 -145.5q248 0 555 96l12 -84q-151 -49 -311 -75.5t-285 -26.5zM567 440q0 -101 52.5 -155t140.5 -54q119 0 199.5 70t109.5 182l10 58q2 14 2 47q0 97 -53 153t-151 56q-140 0 -225 -106.5t-85 -250.5z" />
    <glyph glyph-name="A" unicode="A" horiz-adv-x="1241" 
d="M846 1434l284 -1434h-110l-82 418h-668l-229 -418h-111l789 1434h127zM324 514h596l-156 801z" />
    <glyph glyph-name="B" unicode="B" horiz-adv-x="1202" 
d="M76 0l252 1434h444q192 0 284.5 -72t92.5 -203q0 -137 -86 -254t-217 -149q118 -21 190 -95.5t72 -191.5q0 -215 -161 -342t-427 -127h-444zM203 96h338q205 0 328.5 95.5t123.5 269.5q0 114 -88 175.5t-241 61.5h-355zM326 793h350q89 0 159.5 29t112 78.5t63 109
t21.5 125.5q0 202 -278 202h-332z" />
    <glyph glyph-name="C" unicode="C" horiz-adv-x="1411" 
d="M676 -14q-266 0 -416.5 153t-150.5 410q0 137 37 269.5t109 245.5t169 199.5t225 135.5t269 49q222 0 355.5 -125.5t147.5 -337.5l-108 -31q-14 180 -124.5 288t-289.5 108q-121 0 -229 -44.5t-188 -120.5t-139 -175.5t-88.5 -213t-29.5 -229.5q0 -221 121.5 -352
t341.5 -131q178 0 320 104.5t221 288.5l106 -31q-88 -206 -265.5 -333t-393.5 -127z" />
    <glyph glyph-name="D" unicode="D" horiz-adv-x="1378" 
d="M76 0l252 1434h401q293 0 457 -149t164 -411q0 -178 -61.5 -337t-172.5 -278t-277 -189t-362 -70h-401zM203 98h293q216 0 386 103t260.5 275.5t90.5 381.5q0 224 -137 350.5t-383 126.5h-291z" />
    <glyph glyph-name="E" unicode="E" horiz-adv-x="1032" 
d="M76 0l252 1434h821l-16 -97h-711l-96 -544h598l-17 -95h-598l-106 -602h710l-16 -96h-821z" />
    <glyph glyph-name="F" unicode="F" horiz-adv-x="991" 
d="M76 0l252 1434h805l-17 -97h-694l-103 -583h584l-16 -97h-586l-115 -657h-110z" />
    <glyph glyph-name="G" unicode="G" horiz-adv-x="1460" 
d="M633 -14q-234 0 -379 156.5t-145 412.5q0 172 59.5 333.5t163 285.5t257 199t329.5 75q225 0 350 -121t139 -323l-111 -27q-16 172 -116 272.5t-283 100.5q-120 0 -227 -43.5t-187 -119t-139 -174.5t-89 -212t-30 -228q0 -217 117.5 -353t316.5 -136q135 0 256.5 64
t210.5 188t121 287h-377l37 94h463l-127 -717h-100l57 326q-96 -156 -245 -248t-322 -92z" />
    <glyph glyph-name="H" unicode="H" horiz-adv-x="1341" 
d="M975 0l123 698h-789l-123 -698h-110l252 1434h110l-112 -641h788l113 641h110l-252 -1434h-110z" />
    <glyph glyph-name="I" unicode="I" horiz-adv-x="442" 
d="M76 0l252 1434h110l-252 -1434h-110z" />
    <glyph glyph-name="J" unicode="J" horiz-adv-x="1040" 
d="M395 -14q-187 0 -285 107t-79 292l106 29q-20 -154 52 -242t219 -88q136 0 227.5 85t120.5 243l178 1022h110l-180 -1026q-35 -201 -159.5 -311.5t-309.5 -110.5z" />
    <glyph glyph-name="K" unicode="K" horiz-adv-x="1187" 
d="M76 0l252 1434h110l-155 -887l880 887h131l-637 -643l416 -791h-117l-374 715l-328 -332l-68 -383h-110z" />
    <glyph glyph-name="L" unicode="L" horiz-adv-x="964" 
d="M76 0l252 1434h110l-235 -1338h667l-16 -96h-778z" />
    <glyph glyph-name="M" unicode="M" horiz-adv-x="1699" 
d="M705 0l-297 1278l-226 -1278h-106l252 1434h149l303 -1301l756 1301h160l-252 -1434h-109l230 1290l-752 -1290h-108z" />
    <glyph glyph-name="N" unicode="N" horiz-adv-x="1421" 
d="M76 0l252 1434h135l620 -1274l226 1274h108l-252 -1434h-121l-632 1300l-228 -1300h-108z" />
    <glyph glyph-name="O" unicode="O" horiz-adv-x="1472" 
d="M645 -14q-249 0 -392.5 152t-143.5 409q0 135 35.5 266t105 245.5t164 201.5t221.5 137.5t268 50.5q248 0 392.5 -152.5t144.5 -408.5q0 -112 -26 -222.5t-73 -210.5t-118.5 -186t-157.5 -148.5t-194.5 -98t-225.5 -35.5zM225 563q0 -219 117.5 -349t319.5 -130
q117 0 223 45.5t184.5 123t136.5 177.5t87.5 212.5t29.5 225.5q0 220 -117.5 351t-320.5 131q-119 0 -225 -45.5t-184 -123.5t-135.5 -178.5t-86.5 -213.5t-29 -226z" />
    <glyph glyph-name="P" unicode="P" horiz-adv-x="1116" 
d="M76 0l252 1434h381q207 0 328.5 -93.5t121.5 -255.5q0 -107 -39 -202t-111 -167t-181.5 -114.5t-241.5 -42.5h-301l-99 -559h-110zM301 653h287q197 0 324.5 115.5t127.5 296.5q0 128 -87.5 200t-243.5 72h-287z" />
    <glyph glyph-name="Q" unicode="Q" horiz-adv-x="1503" 
d="M1341 -12q-231 0 -358 86q-157 -88 -338 -88q-248 0 -392 152.5t-144 410.5q0 133 35.5 263.5t105 245t164 202t221.5 138t268 50.5q249 0 393 -153t144 -410q0 -93 -21 -192.5t-63.5 -202.5t-116.5 -199t-170 -164q103 -57 287 -57zM225 563q0 -220 118 -350.5
t321 -130.5q126 0 249 55q-97 103 -163 301l92 37q59 -194 151 -291q85 59 150.5 145.5t103.5 180t57 184.5t19 174q0 220 -117.5 351t-320.5 131q-119 0 -225 -45.5t-184 -123.5t-135.5 -178.5t-86.5 -213.5t-29 -226z" />
    <glyph glyph-name="R" unicode="R" horiz-adv-x="1173" 
d="M76 0l252 1434h438q195 0 304.5 -85t109.5 -241q0 -97 -35 -183.5t-91.5 -147t-124 -100.5t-136.5 -54l239 -623h-112l-230 598h-399l-105 -598h-110zM309 694h359q173 0 283 114t110 275q0 123 -87 188.5t-247 65.5h-305z" />
    <glyph glyph-name="S" unicode="S" horiz-adv-x="1144" 
d="M545 -10q-114 0 -210 32.5t-159.5 88.5t-100 130t-38.5 158l104 29q5 -152 117 -248t299 -96q95 0 180.5 34.5t143 107t57.5 169.5q0 102 -60 164.5t-180 102.5l-192 67q-73 25 -123 50t-93 61.5t-64 87t-21 116.5q0 119 69.5 213t179 142.5t234.5 48.5q110 0 196 -27.5
t139.5 -75.5t84 -104.5t41.5 -122.5l-107 -26q-51 260 -378 260q-135 0 -240 -83t-105 -204q0 -49 15 -86.5t48 -65t71.5 -46.5t97.5 -40l205 -73q141 -49 218 -127.5t77 -208.5q0 -102 -43 -185t-114.5 -135t-161 -80t-187.5 -28z" />
    <glyph glyph-name="T" unicode="T" horiz-adv-x="1150" 
d="M430 0l236 1337h-484l19 97h1073l-17 -97h-481l-235 -1337h-111z" />
    <glyph glyph-name="U" unicode="U" horiz-adv-x="1417" 
d="M616 -14q-264 0 -382 144.5t-72 408.5l157 895h111l-158 -895q-39 -230 54 -342.5t307 -112.5q213 0 348.5 118t173.5 337l156 895h110l-157 -895q-46 -266 -214.5 -409.5t-433.5 -143.5z" />
    <glyph glyph-name="V" unicode="V" horiz-adv-x="1236" 
d="M465 0l-281 1434h109l256 -1303l713 1303h116l-786 -1434h-127z" />
    <glyph glyph-name="W" unicode="W" horiz-adv-x="1849" 
d="M352 0l-155 1434h104l139 -1274l602 1274h107l162 -1266l555 1266h110l-628 -1434h-113l-164 1286l-604 -1286h-115z" />
    <glyph glyph-name="X" unicode="X" horiz-adv-x="1189" 
d="M930 0l-322 633l-549 -633h-125l627 725l-358 709h114l324 -639l553 639h127l-633 -732l356 -702h-114z" />
    <glyph glyph-name="Y" unicode="Y" horiz-adv-x="1048" 
d="M498 678l-328 756h115l282 -658l514 658h121l-594 -756l-119 -678h-110z" />
    <glyph glyph-name="Z" unicode="Z" horiz-adv-x="1150" 
d="M-35 96l1145 1241h-911l16 97h1045l-17 -97l-1145 -1241h942l-16 -96h-1075z" />
    <glyph glyph-name="bracketleft" unicode="[" horiz-adv-x="686" 
d="M338 1434h446l-14 -86h-340l-254 -1446h340l-14 -86h-447z" />
    <glyph glyph-name="backslash" unicode="\" horiz-adv-x="952" 
d="M797 -201l-508 1635h-101l508 -1635h101z" />
    <glyph glyph-name="bracketright" unicode="]" horiz-adv-x="686" 
d="M385 -184h-446l14 86h340l256 1446h-340l14 86h447z" />
    <glyph glyph-name="asciicircum" unicode="^" horiz-adv-x="921" 
d="M207 1057l397 581h109l190 -581h-106l-152 491l-328 -491h-110z" />
    <glyph glyph-name="underscore" unicode="_" horiz-adv-x="1093" 
d="M12 -119h848l-14 -86h-848z" />
    <glyph glyph-name="grave" unicode="`" horiz-adv-x="317" 
d="M311 1145l-92 235h119l63 -235h-90z" />
    <glyph glyph-name="a" unicode="a" horiz-adv-x="1007" 
d="M807 686q5 40 5 78.5t-15 72t-40 59t-70 40t-105 14.5q-120 0 -209.5 -56t-141.5 -159l-96 29q61 123 184 199.5t283 76.5q178 0 258.5 -89t50.5 -263l-120 -688h-105l39 217q-70 -109 -189 -170t-245 -61q-125 0 -203 59t-78 164q0 88 36.5 154.5t103.5 108t151.5 64.5
t190.5 31q151 12 228 36.5t87 82.5zM127 231q0 -81 60.5 -120t152.5 -39q147 0 270.5 102.5t153.5 269.5l24 134q-77 -74 -282 -91q-68 -5 -119 -14t-102.5 -27t-84 -45t-53 -70t-20.5 -100z" />
    <glyph glyph-name="b" unicode="b" horiz-adv-x="1136" 
d="M55 0l252 1434h107l-123 -701q69 139 182.5 223t253.5 84q165 0 261.5 -103.5t96.5 -285.5q0 -171 -69 -323t-193.5 -247t-273.5 -95q-140 0 -226.5 83.5t-109.5 223.5l-51 -293h-107zM254 416q0 -151 79.5 -245.5t203.5 -94.5q78 0 147.5 31.5t121.5 86t89.5 125.5
t57 151t20.5 161q0 155 -71.5 237t-205.5 82q-91 0 -174 -47.5t-140.5 -123.5t-92 -171.5t-35.5 -191.5z" />
    <glyph glyph-name="c" unicode="c" horiz-adv-x="1024" 
d="M461 -14q-177 0 -292.5 109.5t-115.5 299.5q0 124 42.5 240.5t117 206.5t185.5 144t239 54q156 0 251 -88.5t107 -234.5l-102 -31q-12 126 -85.5 195t-195.5 69q-129 0 -233.5 -81t-158.5 -203t-54 -254q0 -157 88.5 -246.5t222.5 -89.5q120 0 214.5 74t154.5 194l94 -29
q-71 -146 -195 -237.5t-284 -91.5z" />
    <glyph glyph-name="d" unicode="d" horiz-adv-x="1130" 
d="M788 0l50 276q-70 -133 -181.5 -211.5t-246.5 -78.5q-165 0 -262 103.5t-97 285.5q0 127 41 248t111 213t170.5 148t212.5 56q137 0 223.5 -80t110.5 -215l120 689h107l-252 -1434h-107zM164 395q0 -155 71 -237t205 -82q120 0 223.5 80.5t160.5 203t57 250.5
q0 151 -79.5 245.5t-203.5 94.5q-128 0 -229.5 -83t-153 -208.5t-51.5 -263.5z" />
    <glyph glyph-name="e" unicode="e" horiz-adv-x="1052" 
d="M469 -14q-193 0 -304.5 107.5t-111.5 303.5q0 121 42 237t115.5 206t183 145t235.5 55q171 0 268.5 -100t97.5 -260q0 -88 -28 -164h-797q-8 -47 -8 -104q0 -162 86.5 -249t234.5 -87q122 0 212.5 70.5t148.5 175.5l98 -29q-63 -128 -188 -217.5t-285 -89.5zM190 600h689
q6 34 6 68q0 131 -72.5 207.5t-202.5 76.5q-150 0 -261 -99.5t-159 -252.5z" />
    <glyph glyph-name="f" unicode="f" horiz-adv-x="530" 
d="M287 1186q45 250 293 250h127l-17 -93h-121q-82 0 -121 -39t-57 -128l-26 -150h251l-14 -88h-252l-166 -938h-104l164 938h-138l17 88h135z" />
    <glyph glyph-name="g" unicode="g" horiz-adv-x="1128" 
d="M399 -424q-179 0 -277.5 85.5t-103.5 238.5l99 26q5 -126 81 -193t218 -67q148 0 245.5 86t124.5 248l52 291q-69 -138 -182.5 -221.5t-252.5 -83.5q-165 0 -261.5 103.5t-96.5 285.5q0 127 41 248t111 213t170.5 148t212.5 56q142 0 228 -84.5t107 -226.5l54 297h104
l-178 -1022q-38 -209 -167 -318.5t-329 -109.5zM158 395q0 -155 71 -237t205 -82q120 0 223.5 80.5t160 203t56.5 250.5q0 151 -79 245.5t-203 94.5q-128 0 -229.5 -83t-153 -208.5t-51.5 -263.5z" />
    <glyph glyph-name="h" unicode="h" horiz-adv-x="1073" 
d="M55 0l252 1434h107l-121 -686q78 131 196.5 211.5t260.5 80.5q132 0 194.5 -85.5t32.5 -258.5l-123 -696h-106l120 690q23 137 -23.5 199.5t-144.5 62.5q-100 0 -194.5 -63.5t-159 -161t-94.5 -209.5l-90 -518h-107z" />
    <glyph glyph-name="i" unicode="i" horiz-adv-x="395" 
d="M53 0l183 1026h106l-182 -1026h-107zM252 1180l29 182h116l-28 -182h-117z" />
    <glyph glyph-name="j" unicode="j" horiz-adv-x="397" 
d="M-225 -410l14 93h64q82 0 121 39t57 128l207 1176h104l-207 -1186q-45 -250 -293 -250h-67zM254 1180l29 182h116l-28 -182h-117z" />
    <glyph glyph-name="k" unicode="k" horiz-adv-x="911" 
d="M55 0l252 1434h107l-160 -910l604 502h139l-553 -461l373 -565h-117l-331 502l-140 -117l-67 -385h-107z" />
    <glyph glyph-name="l" unicode="l" horiz-adv-x="395" 
d="M55 0l252 1434h107l-252 -1434h-107z" />
    <glyph glyph-name="m" unicode="m" horiz-adv-x="1570" 
d="M53 0l183 1026h106l-43 -238q72 111 170.5 181.5t214.5 70.5q227 0 209 -256q70 112 169 184t216 72q260 0 203 -317l-129 -723h-107l127 711q20 118 -14 179.5t-119 61.5q-65 0 -128.5 -33.5t-112 -86t-84 -112.5t-52.5 -118l-106 -602h-107l127 711q20 118 -13.5 179.5
t-117.5 61.5q-88 0 -170 -57.5t-134 -137t-75 -161.5l-106 -596h-107z" />
    <glyph glyph-name="n" unicode="n" horiz-adv-x="1073" 
d="M53 0l183 1026h106l-49 -281q78 133 196.5 214t260.5 81q132 0 194.5 -85.5t32.5 -258.5l-123 -696h-106l120 690q23 137 -23.5 199.5t-144.5 62.5q-102 0 -197.5 -66t-160 -166.5t-92.5 -213.5l-90 -506h-107z" />
    <glyph glyph-name="o" unicode="o" horiz-adv-x="1087" 
d="M451 -14q-177 0 -287.5 110.5t-110.5 298.5q0 124 44 241.5t120 206.5t186 143t234 54q177 0 287 -110.5t110 -298.5q0 -100 -28 -196t-80.5 -176.5t-123 -142t-161.5 -96t-190 -34.5zM166 401q0 -154 82.5 -239.5t218.5 -85.5q104 0 191.5 49t144 128t88 176.5
t31.5 197.5q0 152 -81.5 237.5t-219.5 85.5q-104 0 -191.5 -48.5t-144 -127.5t-88 -176.5t-31.5 -196.5z" />
    <glyph glyph-name="p" unicode="p" horiz-adv-x="1134" 
d="M-18 -410l254 1436h106l-49 -283q69 134 181.5 215.5t248.5 81.5q165 0 261.5 -103.5t96.5 -285.5q0 -171 -68.5 -323t-192.5 -247t-273 -95q-140 0 -226.5 82.5t-109.5 220.5l-123 -699h-106zM252 416q0 -151 79.5 -245.5t203.5 -94.5q128 0 229.5 83t153 208.5
t51.5 263.5q0 155 -71.5 237t-205.5 82q-120 0 -223.5 -80.5t-160 -203t-56.5 -250.5z" />
    <glyph glyph-name="q" unicode="q" horiz-adv-x="1134" 
d="M723 -410l123 705q-69 -140 -182.5 -224.5t-253.5 -84.5q-165 0 -262 103.5t-97 285.5q0 127 41 248t111 213t170.5 148t212.5 56q142 0 229.5 -86t106.5 -227l53 299h106l-252 -1436h-106zM164 395q0 -155 71 -237t205 -82q120 0 223.5 80.5t160.5 203t57 250.5
q0 151 -79.5 245.5t-203.5 94.5q-128 0 -229.5 -83t-153 -208.5t-51.5 -263.5z" />
    <glyph glyph-name="r" unicode="r" horiz-adv-x="610" 
d="M53 0l183 1026h106l-45 -254q66 124 164.5 196t212.5 72h4l-19 -110q-144 0 -255 -103.5t-148 -287.5l-96 -539h-107z" />
    <glyph glyph-name="s" unicode="s" horiz-adv-x="913" 
d="M408 -14q-181 0 -284.5 86t-119.5 215l100 26q10 -51 29.5 -90.5t55 -74t94 -53.5t137.5 -19q131 0 208 59.5t77 153.5q0 76 -46.5 114t-146.5 66l-154 39q-114 31 -171.5 83t-57.5 154q0 127 110 211t277 84q159 0 249 -74.5t109 -189.5l-98 -26q-15 91 -82 146.5
t-192 55.5q-118 0 -194.5 -53t-76.5 -143q0 -65 40.5 -101.5t129.5 -60.5l168 -45q123 -33 181.5 -86.5t58.5 -155.5q0 -140 -107 -230.5t-294 -90.5z" />
    <glyph glyph-name="t" unicode="t" horiz-adv-x="552" 
d="M319 0q-116 0 -170 66.5t-34 183.5l121 688h-127l16 88h127l39 221l119 66l-52 -287h258l-14 -88h-258l-121 -678q-14 -78 17 -123t100 -45h113l-17 -92h-117z" />
    <glyph glyph-name="u" unicode="u" horiz-adv-x="1073" 
d="M1020 1026l-182 -1026h-107l49 281q-78 -133 -196 -214t-260 -81q-132 0 -195 85.5t-33 258.5l123 696h107l-121 -690q-23 -137 23.5 -199.5t144.5 -62.5q102 0 197.5 66t160 166.5t92.5 213.5l90 506h107z" />
    <glyph glyph-name="v" unicode="v" horiz-adv-x="888" 
d="M299 0l-199 1026h101l174 -893l491 893h107l-563 -1026h-111z" />
    <glyph glyph-name="w" unicode="w" horiz-adv-x="1368" 
d="M231 0l-118 1026h96l100 -881l412 881h98l101 -881l413 881h105l-484 -1026h-102l-104 885l-414 -885h-103z" />
    <glyph glyph-name="x" unicode="x" horiz-adv-x="886" 
d="M-72 0l461 520l-276 506h108l244 -446l377 446h116l-450 -526l274 -500h-108l-240 440l-389 -440h-117z" />
    <glyph glyph-name="y" unicode="y" horiz-adv-x="915" 
d="M-76 -410l15 93h86q73 0 120 32t84 99l95 172l-228 1040h99l198 -911l498 911h108l-659 -1204q-27 -49 -49.5 -82.5t-52.5 -63.5t-63.5 -48t-78 -28t-100.5 -10h-72z" />
    <glyph glyph-name="z" unicode="z" horiz-adv-x="821" 
d="M-61 0l14 88l778 850h-610l14 88h735l-14 -86l-778 -852h639l-17 -88h-761z" />
    <glyph glyph-name="braceleft" unicode="{" horiz-adv-x="534" 
d="M70 674q97 0 145.5 31.5t60.5 101.5l66 362q21 117 49 172t72.5 74t132.5 19l-16 -88q-56 0 -83 -25t-40 -98l-76 -424q-12 -67 -51.5 -107t-118.5 -61q71 -23 97 -63t14 -107l-78 -432q-13 -74 4.5 -99.5t73.5 -25.5l-15 -88q-53 0 -84.5 6t-55 21t-30.5 45.5t-5 75.5
t15 116l68 373q13 70 -26 101.5t-136 31.5z" />
    <glyph glyph-name="bar" unicode="|" horiz-adv-x="339" 
d="M-41 -410l360 2048h99l-361 -2048h-98z" />
    <glyph glyph-name="braceright" unicode="}" horiz-adv-x="532" 
d="M502 575q-97 0 -146 -31.5t-61 -101.5l-66 -362q-16 -88 -33 -138t-47.5 -79.5t-68.5 -38t-105 -8.5l17 88q56 0 83 25t40 98l75 424q12 67 51.5 106t118.5 61q-71 23 -96.5 63t-13.5 107l78 433q13 74 -4.5 99.5t-73.5 25.5l14 88q44 0 72.5 -3.5t51.5 -14.5t34 -28.5
t15.5 -48t1 -71t-14.5 -99.5l-68 -372q-13 -70 26 -101.5t136 -31.5z" />
    <glyph glyph-name="asciitilde" unicode="~" horiz-adv-x="1032" 
d="M152 496q37 98 107 158.5t147 60.5q40 0 75.5 -15.5t60.5 -38t48 -45t48.5 -38t51.5 -15.5q44 0 79.5 38t55.5 106l82 -23q-26 -99 -85.5 -156t-135.5 -57q-39 0 -72.5 15.5t-58 38t-48 45t-51.5 38t-59 15.5q-50 0 -94 -41t-70 -111z" />
    <glyph glyph-name="uni00A0" unicode="&#xa0;" horiz-adv-x="555" 
 />
    <glyph glyph-name="exclamdown" unicode="&#xa1;" horiz-adv-x="473" 
d="M299 713l-53 -449l-119 -672h-102l116 672l107 449h51zM231 856l31 170h129l-31 -170h-129z" />
    <glyph glyph-name="cent" unicode="&#xa2;" horiz-adv-x="1026" 
d="M399 0l35 195q-154 19 -249 126t-95 279q0 117 38 228t105 199t167.5 146.5t217.5 69.5l35 191h97l-35 -191q139 -10 222.5 -97.5t94.5 -223.5l-102 -31q-12 126 -85.5 195t-195.5 69q-129 0 -233.5 -81t-158.5 -203.5t-54 -254.5q0 -157 88.5 -246t222.5 -89
q120 0 214.5 74t154.5 194l94 -29q-67 -139 -182.5 -229.5t-264.5 -100.5l-34 -190h-97z" />
    <glyph glyph-name="sterling" unicode="&#xa3;" horiz-adv-x="1255" 
d="M45 96q224 0 372 111.5t148 290.5q0 53 -20 108h-324l15 80h262q-18 25 -59.5 73.5t-65 79.5t-44 82t-20.5 105q0 80 34 155t95 135t154.5 96t204.5 36q171 0 276.5 -94t122.5 -254l-111 -29q-17 130 -99 204.5t-210 74.5q-152 0 -250 -84.5t-98 -223.5q0 -52 22 -102.5
t50 -84.5t67.5 -83.5t61.5 -85.5h315l-35 -80h-243q14 -54 14 -98q0 -152 -92 -258t-256 -154h747l-39 -96h-1011z" />
    <glyph glyph-name="currency" unicode="&#xa4;" horiz-adv-x="1024" 
d="M473 283q-130 0 -219 73l-176 -149l-58 67l177 146q-52 77 -52 176q0 166 125 301l-118 141l79 68l115 -141q123 86 260 86q140 0 230 -84l168 139l53 -66l-168 -141q43 -70 43 -164q0 -178 -137 -315l123 -148l-80 -63l-123 147q-109 -73 -242 -73zM254 598
q0 -105 63 -168t170 -63q97 0 175 53.5t118.5 136t40.5 174.5q0 105 -61.5 168.5t-167.5 63.5q-98 0 -176.5 -53.5t-120 -136.5t-41.5 -175z" />
    <glyph glyph-name="yen" unicode="&#xa5;" horiz-adv-x="1089" 
d="M217 707h289l-316 727h115l283 -658l514 658h121l-572 -727h316l-33 -80h-313l-21 -111h336l-35 -80h-315l-76 -436h-111l76 436h-325l34 80h305l21 111h-328z" />
    <glyph glyph-name="brokenbar" unicode="&#xa6;" horiz-adv-x="339" 
d="M164 758l155 880h99l-154 -880h-100zM-41 -410l154 881h100l-156 -881h-98z" />
    <glyph glyph-name="section" unicode="&#xa7;" horiz-adv-x="946" 
d="M377 -201q-173 0 -276.5 86t-116.5 213l110 29q19 -107 90.5 -172.5t208.5 -65.5q144 0 228 69t84 167q0 65 -49.5 116.5t-141.5 82.5l-152 49q-229 72 -229 245q0 100 59 173.5t160 117.5q-131 70 -131 209q0 74 34.5 137.5t90 105t125 64.5t141.5 23q168 0 260.5 -72
t108.5 -196l-107 -27q-15 98 -82 152.5t-180 54.5q-122 0 -205 -64t-83 -170q0 -73 43 -112t125 -68l165 -55q236 -79 236 -248q0 -185 -211 -295q125 -77 125 -203q0 -154 -117 -250t-313 -96zM238 651q0 -78 44 -124.5t124 -73.5l165 -54l19 -6q82 24 141.5 87t59.5 138
q0 129 -189 197l-145 51q-83 -16 -151 -77t-68 -138z" />
    <glyph glyph-name="dieresis" unicode="&#xa8;" horiz-adv-x="514" 
d="M176 1180l31 182h102l-30 -182h-103zM446 1180l31 182h103l-31 -182h-103z" />
    <glyph glyph-name="copyright" unicode="&#xa9;" horiz-adv-x="1632" 
d="M723 -14q-271 0 -441.5 170t-170.5 430q0 166 70.5 324.5t188 276t278.5 189.5t333 72q178 0 318 -77.5t217 -213.5t77 -307q0 -132 -45.5 -261.5t-127.5 -237t-189.5 -190t-239 -129t-268.5 -46.5zM207 598q0 -230 147.5 -379t380.5 -149q149 0 290 64.5t243.5 169.5
t164.5 245.5t62 286.5q0 231 -148 380.5t-382 149.5q-148 0 -288 -64t-242.5 -169t-165 -246.5t-62.5 -288.5zM446 616q0 139 64 261t177 196t247 74q128 0 207 -72t100 -194l-90 -25q-46 207 -240 207q-102 0 -186.5 -63t-130 -161t-45.5 -206q0 -127 70 -196.5t178 -69.5
q102 0 187 56t132 157l82 -29q-64 -124 -177.5 -196t-240.5 -72q-146 0 -240 89t-94 244z" />
    <glyph glyph-name="ordfeminine" unicode="&#xaa;" horiz-adv-x="790" 
d="M735 1192q13 83 -34.5 128.5t-137.5 45.5q-82 0 -148.5 -43t-109.5 -123l-82 33q43 96 143 155.5t220 59.5q129 0 196.5 -67t44.5 -191l-100 -576h-94l37 205q-59 -101 -153 -159t-191 -58q-96 0 -154.5 50t-58.5 132q0 58 20.5 102.5t55 74.5t87 51.5t107.5 33.5t127 21
q119 16 166 40t59 83v2zM215 805q0 -57 40 -91t105 -34q75 0 146.5 42.5t127 128.5t75.5 200l2 -2l4 28q-50 -48 -205 -69q-56 -8 -96 -17t-80 -24.5t-64.5 -36t-39.5 -52.5t-15 -73z" />
    <glyph glyph-name="guillemotleft" unicode="&#xab;" horiz-adv-x="901" 
d="M520 823l-18 -112l-328 -193l256 -190l-18 -107l-338 258l14 84zM408 479l14 84l432 260l-18 -112l-328 -193l256 -190l-19 -107z" />
    <glyph glyph-name="logicalnot" unicode="&#xac;" horiz-adv-x="1064" 
d="M154 688l16 90h764l-76 -428h-92l57 338h-669z" />
    <glyph glyph-name="uni00AD" unicode="&#xad;" horiz-adv-x="897" 
d="M147 653h652l-15 -88h-651z" />
    <glyph glyph-name="registered" unicode="&#xae;" horiz-adv-x="798" 
d="M453 809q-119 0 -194 74.5t-75 189.5q0 99 54 186t142 138t185 51q117 0 191.5 -74t74.5 -188q0 -152 -115 -264.5t-263 -112.5zM246 1079q0 -95 59.5 -156t155.5 -61q123 0 216 94.5t93 221.5q0 93 -60.5 154t-156.5 61q-121 0 -214 -93t-93 -221zM365 954l61 351h127
q53 0 82 -25t29 -68q0 -101 -91 -131l50 -127h-58l-45 121l-6 -2h-76l-20 -119h-53zM446 1116h76q39 0 62.5 24.5t23.5 63.5q0 53 -61 53h-74z" />
    <glyph glyph-name="macron" unicode="&#xaf;" horiz-adv-x="577" 
d="M178 1278h461l-16 -80h-459z" />
    <glyph glyph-name="degree" unicode="&#xb0;" horiz-adv-x="569" 
d="M371 1006q-90 0 -141 50t-48 132q3 113 80 186.5t187 73.5q90 0 141.5 -50.5t48.5 -135.5q-3 -109 -80.5 -182.5t-187.5 -73.5zM264 1196q-2 -56 30.5 -90.5t88.5 -34.5q70 0 121.5 53t52.5 131q0 58 -31.5 92.5t-87.5 34.5q-71 0 -122 -53.5t-52 -132.5z" />
    <glyph glyph-name="plusminus" unicode="&#xb1;" horiz-adv-x="1075" 
d="M436 221l68 381h-387l14 90h389l68 379h98l-68 -379h390l-17 -90h-387l-67 -381h-101zM10 0l17 90h870l-16 -90h-871z" />
    <glyph glyph-name="uni00B2" unicode="&#xb2;" horiz-adv-x="663" 
d="M111 778l2 19l2 2q17 75 56 135.5t87.5 99.5t104 71.5t107 60t94 56.5t68 69.5t25.5 90.5q0 64 -37 97.5t-98 33.5q-80 0 -140 -41t-93 -112l-82 26q44 95 131.5 150t193.5 55q103 0 162.5 -53.5t59.5 -146.5q0 -59 -24 -107t-64 -81.5t-89.5 -63t-103.5 -59t-102.5 -62
t-89.5 -79.5t-62 -103h459l-27 -80h-545z" />
    <glyph glyph-name="uni00B3" unicode="&#xb3;" horiz-adv-x="690" 
d="M381 748q-119 0 -191 63.5t-75 163.5l82 20q6 -80 57 -125t139 -45q91 0 151 51.5t60 127.5q0 143 -170 143h-94l29 74h77q91 0 147 53t56 117q0 60 -37.5 92.5t-103.5 32.5q-143 0 -211 -146l-82 25q37 82 122 139t185 57q102 0 162.5 -47.5t60.5 -136.5
q0 -75 -53.5 -136t-144.5 -85q69 -12 110 -60.5t41 -124.5q0 -102 -92.5 -177.5t-224.5 -75.5z" />
    <glyph glyph-name="acute" unicode="&#xb4;" horiz-adv-x="319" 
d="M152 1145l147 235h123l-178 -235h-92z" />
    <glyph glyph-name="uni00B5" unicode="&#xb5;" horiz-adv-x="1085" 
d="M1032 1026l-180 -1026h-107l60 334q-75 -150 -189.5 -249t-244.5 -99q-148 0 -193 118l-90 -514h-106l254 1436h106l-127 -719q-16 -119 32.5 -176t141.5 -57q78 0 154 41.5t134 108.5t101 148t62 163l86 491h106z" />
    <glyph glyph-name="paragraph" unicode="&#xb6;" horiz-adv-x="1028" 
d="M698 1434h101l-287 -1622h-98l137 776q-197 1 -309 103t-107 261q2 136 79 247.5t205.5 173t278.5 61.5zM639 -188l287 1622h98l-285 -1622h-100z" />
    <glyph glyph-name="periodcentered" unicode="&#xb7;" horiz-adv-x="346" 
d="M100 473l31 170h129l-31 -170h-129z" />
    <glyph glyph-name="cedilla" unicode="&#xb8;" horiz-adv-x="413" 
d="M51 -389q-106 0 -168 96l58 45q29 -36 57.5 -50.5t67.5 -14.5q38 0 65.5 21.5t34.5 58.5q5 42 -34.5 66t-133.5 24l10 55l109 111l65 -19l-82 -104q64 -2 110 -32t46 -87q0 -69 -62 -119.5t-143 -50.5z" />
    <glyph glyph-name="uni00B9" unicode="&#xb9;" horiz-adv-x="430" 
d="M152 1362q42 0 67.5 3t56.5 15t50.5 35t37.5 65t29 103h92l-145 -827h-92l110 630q-33 -59 -86.5 -85.5t-136.5 -26.5z" />
    <glyph glyph-name="ordmasculine" unicode="&#xba;" horiz-adv-x="866" 
d="M451 602q-138 0 -214.5 81.5t-76.5 229.5q0 98 29 192t82 171t139 124.5t190 47.5q137 0 213 -81.5t76 -229.5q0 -100 -29.5 -194.5t-83 -171t-138.5 -123t-187 -46.5zM260 924q0 -114 54 -177t151 -63q77 0 140.5 41t102 107t59.5 141.5t21 150.5q0 115 -53.5 178.5
t-150.5 63.5q-77 0 -140.5 -41.5t-102.5 -107t-60 -142t-21 -151.5z" />
    <glyph glyph-name="guillemotright" unicode="&#xbb;" horiz-adv-x="903" 
d="M385 221l18 113l328 192l-256 191l19 106l337 -258l-14 -84zM51 221l19 113l327 192l-256 191l19 106l338 -258l-15 -84z" />
    <glyph glyph-name="onequarter" unicode="&#xbc;" horiz-adv-x="1433" 
d="M125 1212q41 0 67 3t57 15t51 35.5t38 65.5t29 103h92l-146 -828h-92l111 631q-33 -59 -86.5 -86t-136.5 -27zM-29 0l1200 1434h109l-1200 -1434h-109zM694 223l13 76l448 528h115l-92 -528h129l-27 -76h-117l-39 -223h-92l39 223h-377zM805 299h280l74 418z" />
    <glyph glyph-name="onehalf" unicode="&#xbd;" horiz-adv-x="1413" 
d="M125 1212q41 0 67 3t57 15t51 35.5t38 65.5t29 103h92l-146 -828h-92l111 631q-33 -59 -86.5 -86t-136.5 -27zM-29 0l1200 1434h109l-1200 -1434h-109zM723 0l4 23l2 18l2 2q17 75 56 135.5t88 99.5t104 72t107 60.5t94.5 56.5t68 69.5t25.5 90.5q0 64 -37 97.5t-98 33.5
q-80 0 -140.5 -41.5t-93.5 -112.5l-82 27q44 95 132 150t194 55q103 0 162 -53.5t59 -147.5q0 -59 -24 -107t-64 -81.5t-89.5 -63t-103 -59t-102 -62t-89.5 -79.5t-62 -103h458l-26 -80h-545z" />
    <glyph glyph-name="threequarters" unicode="&#xbe;" horiz-adv-x="1667" 
d="M354 598q-119 0 -191 63.5t-75 163.5l82 21q6 -80 57.5 -125t139.5 -45q91 0 151 51t60 127q0 143 -170 143h-95l29 74h78q91 0 147 53t56 117q0 60 -37.5 92.5t-104.5 32.5q-143 0 -211 -145l-82 24q37 82 122.5 139.5t185.5 57.5q102 0 162.5 -48t60.5 -137
q0 -75 -54 -136t-145 -85q70 -12 111 -60t41 -124q0 -102 -93 -178t-225 -76zM281 0l1200 1434h108l-1200 -1434h-108zM928 223l12 76l449 528h114l-92 -528h129l-27 -76h-116l-39 -223h-92l39 223h-377zM1038 299h281l74 418z" />
    <glyph glyph-name="questiondown" unicode="&#xbf;" horiz-adv-x="954" 
d="M596 641q-13 -76 -40.5 -139t-62.5 -106.5t-76.5 -80.5t-84 -65t-84 -55.5t-78 -57.5t-64 -65t-43.5 -84t-16 -109q0 -97 66.5 -150t189.5 -53q304 0 420 328l98 -24q-68 -195 -205 -298.5t-329 -103.5q-168 0 -261.5 76t-93.5 207q0 88 27.5 157t72 115t99.5 85.5
t113 78.5t108.5 83t89.5 111t54 150l6 35h100zM516 856l31 170h129l-31 -170h-129z" />
    <glyph glyph-name="Agrave" unicode="&#xc0;" horiz-adv-x="1241" 
d="M846 1434l284 -1434h-110l-82 418h-668l-229 -418h-111l789 1434h127zM324 514h596l-156 801zM692 1790h119l63 -236h-90z" />
    <glyph glyph-name="Aacute" unicode="&#xc1;" horiz-adv-x="1241" 
d="M846 1434l284 -1434h-110l-82 418h-668l-229 -418h-111l789 1434h127zM324 514h596l-156 801zM713 1554l147 236h123l-178 -236h-92z" />
    <glyph glyph-name="Acircumflex" unicode="&#xc2;" horiz-adv-x="1241" 
d="M846 1434l284 -1434h-110l-82 418h-668l-229 -418h-111l789 1434h127zM324 514h596l-156 801zM559 1554l225 236h115l141 -236h-106l-98 175l-162 -175h-115z" />
    <glyph glyph-name="Atilde" unicode="&#xc3;" horiz-adv-x="1241" 
d="M846 1434l284 -1434h-110l-82 418h-668l-229 -418h-111l789 1434h127zM324 514h596l-156 801zM551 1599q48 158 172 158q38 0 70 -17t50 -37t45 -37t56 -17q64 0 86 104l70 -29q-37 -155 -158 -155q-38 0 -71 17t-53 37t-46.5 37t-52.5 17q-31 0 -54.5 -25t-41.5 -81z
" />
    <glyph glyph-name="Adieresis" unicode="&#xc4;" horiz-adv-x="1241" 
d="M846 1434l284 -1434h-110l-82 418h-668l-229 -418h-111l789 1434h127zM324 514h596l-156 801zM616 1589l31 183h103l-31 -183h-103zM887 1589l31 183h102l-31 -183h-102z" />
    <glyph glyph-name="Aring" unicode="&#xc5;" horiz-adv-x="1241" 
d="M846 1434l284 -1434h-110l-82 418h-668l-229 -418h-111l789 1434h127zM324 514h596l-156 801zM672 1645q0 75 49.5 127.5t132.5 52.5q62 0 95.5 -30t33.5 -85q0 -81 -50.5 -131.5t-129.5 -50.5q-62 0 -96.5 31t-34.5 86zM743 1657q0 -30 19 -48t51 -18q43 0 69.5 31.5
t26.5 77.5q0 28 -16.5 44.5t-48.5 16.5q-44 0 -72.5 -29.5t-28.5 -74.5z" />
    <glyph glyph-name="AE" unicode="&#xc6;" horiz-adv-x="1792" 
d="M-70 0l850 1434h1129l-17 -97h-710l-97 -544h598l-16 -95h-598l-106 -602h710l-16 -96h-821l84 479h-596l-285 -479h-109zM379 575h557l135 762h-240z" />
    <glyph glyph-name="Ccedilla" unicode="&#xc7;" horiz-adv-x="1411" 
d="M592 -389q-106 0 -168 96l57 45q29 -36 57.5 -50.5t67.5 -14.5q38 0 66 21.5t35 58.5q5 42 -34.5 66t-133.5 24l10 55l74 76q-243 15 -378.5 166t-135.5 395q0 137 37 269.5t109 245.5t169 199.5t225 135.5t269 49q222 0 355.5 -125.5t147.5 -337.5l-108 -31
q-14 180 -124.5 288t-289.5 108q-121 0 -229 -44.5t-188 -120.5t-139 -175.5t-88.5 -213t-29.5 -229.5q0 -221 121.5 -352t341.5 -131q178 0 320 104.5t221 288.5l106 -31q-85 -198 -252.5 -324t-373.5 -136l-68 -86q64 -2 110 -32t46 -87q0 -69 -62 -119.5t-143 -50.5z" />
    <glyph glyph-name="Egrave" unicode="&#xc8;" horiz-adv-x="1032" 
d="M76 0l252 1434h821l-16 -97h-711l-96 -544h598l-17 -95h-598l-106 -602h710l-16 -96h-821zM674 1788h119l63 -236h-90z" />
    <glyph glyph-name="Eacute" unicode="&#xc9;" horiz-adv-x="1032" 
d="M76 0l252 1434h821l-16 -97h-711l-96 -544h598l-17 -95h-598l-106 -602h710l-16 -96h-821zM694 1552l148 236h123l-179 -236h-92z" />
    <glyph glyph-name="Ecircumflex" unicode="&#xca;" horiz-adv-x="1032" 
d="M76 0l252 1434h821l-16 -97h-711l-96 -544h598l-17 -95h-598l-106 -602h710l-16 -96h-821zM541 1552l225 236h115l141 -236h-107l-98 174l-162 -174h-114z" />
    <glyph glyph-name="Edieresis" unicode="&#xcb;" horiz-adv-x="1032" 
d="M76 0l252 1434h821l-16 -97h-711l-96 -544h598l-17 -95h-598l-106 -602h710l-16 -96h-821zM598 1587l31 182h102l-31 -182h-102zM868 1587l31 182h102l-30 -182h-103z" />
    <glyph glyph-name="Igrave" unicode="&#xcc;" horiz-adv-x="442" 
d="M76 0l252 1434h110l-252 -1434h-110zM289 1788h119l63 -236h-90z" />
    <glyph glyph-name="Iacute" unicode="&#xcd;" horiz-adv-x="442" 
d="M76 0l252 1434h110l-252 -1434h-110zM309 1552l148 236h123l-179 -236h-92z" />
    <glyph glyph-name="Icircumflex" unicode="&#xce;" horiz-adv-x="442" 
d="M76 0l252 1434h110l-252 -1434h-110zM156 1552l225 236h115l141 -236h-107l-98 174l-162 -174h-114z" />
    <glyph glyph-name="Idieresis" unicode="&#xcf;" horiz-adv-x="442" 
d="M76 0l252 1434h110l-252 -1434h-110zM213 1587l31 182h102l-31 -182h-102zM483 1587l31 182h102l-30 -182h-103z" />
    <glyph glyph-name="Eth" unicode="&#xd0;" horiz-adv-x="1392" 
d="M49 676l14 82h160l119 676h401q293 0 457 -149t164 -411q0 -178 -61.5 -337t-172 -278t-276.5 -189t-362 -70h-402l119 676h-160zM217 98h293q216 0 386 103t260.5 275.5t90.5 381.5q0 224 -137 350.5t-383 126.5h-291l-102 -577h233l-14 -82h-234z" />
    <glyph glyph-name="Ntilde" unicode="&#xd1;" horiz-adv-x="1421" 
d="M76 0l252 1434h135l620 -1274l226 1274h108l-252 -1434h-121l-632 1300l-228 -1300h-108zM635 1597q48 158 172 158q38 0 70 -17t50 -37t45 -37t56 -17q64 0 86 104l70 -29q-37 -155 -158 -155q-38 0 -71 17t-53 37t-46.5 37t-52.5 17q-31 0 -54.5 -25t-41.5 -81z" />
    <glyph glyph-name="Ograve" unicode="&#xd2;" horiz-adv-x="1472" 
d="M645 -14q-249 0 -392.5 152t-143.5 409q0 135 35.5 266t105 245.5t164 201.5t221.5 137.5t268 50.5q248 0 392.5 -152.5t144.5 -408.5q0 -112 -26 -222.5t-73 -210.5t-118.5 -186t-157.5 -148.5t-194.5 -98t-225.5 -35.5zM225 563q0 -219 117.5 -349t319.5 -130
q117 0 223 45.5t184.5 123t136.5 177.5t87.5 212.5t29.5 225.5q0 220 -117.5 351t-320.5 131q-119 0 -225 -45.5t-184 -123.5t-135.5 -178.5t-86.5 -213.5t-29 -226zM807 1788h119l63 -236h-90z" />
    <glyph glyph-name="Oacute" unicode="&#xd3;" horiz-adv-x="1472" 
d="M645 -14q-249 0 -392.5 152t-143.5 409q0 135 35.5 266t105 245.5t164 201.5t221.5 137.5t268 50.5q248 0 392.5 -152.5t144.5 -408.5q0 -112 -26 -222.5t-73 -210.5t-118.5 -186t-157.5 -148.5t-194.5 -98t-225.5 -35.5zM225 563q0 -219 117.5 -349t319.5 -130
q117 0 223 45.5t184.5 123t136.5 177.5t87.5 212.5t29.5 225.5q0 220 -117.5 351t-320.5 131q-119 0 -225 -45.5t-184 -123.5t-135.5 -178.5t-86.5 -213.5t-29 -226zM829 1552l148 236h123l-178 -236h-93z" />
    <glyph glyph-name="Ocircumflex" unicode="&#xd4;" horiz-adv-x="1472" 
d="M645 -14q-249 0 -392.5 152t-143.5 409q0 135 35.5 266t105 245.5t164 201.5t221.5 137.5t268 50.5q248 0 392.5 -152.5t144.5 -408.5q0 -112 -26 -222.5t-73 -210.5t-118.5 -186t-157.5 -148.5t-194.5 -98t-225.5 -35.5zM225 563q0 -219 117.5 -349t319.5 -130
q117 0 223 45.5t184.5 123t136.5 177.5t87.5 212.5t29.5 225.5q0 220 -117.5 351t-320.5 131q-119 0 -225 -45.5t-184 -123.5t-135.5 -178.5t-86.5 -213.5t-29 -226zM674 1552l225 236h115l141 -236h-106l-99 174l-162 -174h-114z" />
    <glyph glyph-name="Otilde" unicode="&#xd5;" horiz-adv-x="1472" 
d="M645 -14q-249 0 -392.5 152t-143.5 409q0 135 35.5 266t105 245.5t164 201.5t221.5 137.5t268 50.5q248 0 392.5 -152.5t144.5 -408.5q0 -112 -26 -222.5t-73 -210.5t-118.5 -186t-157.5 -148.5t-194.5 -98t-225.5 -35.5zM225 563q0 -219 117.5 -349t319.5 -130
q117 0 223 45.5t184.5 123t136.5 177.5t87.5 212.5t29.5 225.5q0 220 -117.5 351t-320.5 131q-119 0 -225 -45.5t-184 -123.5t-135.5 -178.5t-86.5 -213.5t-29 -226zM668 1597q48 158 172 158q38 0 70 -17t50 -37t45 -37t56 -17q64 0 86 104l70 -29q-37 -155 -158 -155
q-38 0 -71 17t-53 37t-46.5 37t-52.5 17q-62 0 -97 -106z" />
    <glyph glyph-name="Odieresis" unicode="&#xd6;" horiz-adv-x="1472" 
d="M645 -14q-249 0 -392.5 152t-143.5 409q0 135 35.5 266t105 245.5t164 201.5t221.5 137.5t268 50.5q248 0 392.5 -152.5t144.5 -408.5q0 -112 -26 -222.5t-73 -210.5t-118.5 -186t-157.5 -148.5t-194.5 -98t-225.5 -35.5zM225 563q0 -219 117.5 -349t319.5 -130
q117 0 223 45.5t184.5 123t136.5 177.5t87.5 212.5t29.5 225.5q0 220 -117.5 351t-320.5 131q-119 0 -225 -45.5t-184 -123.5t-135.5 -178.5t-86.5 -213.5t-29 -226zM733 1587l31 182h102l-30 -182h-103zM1004 1587l30 182h103l-31 -182h-102z" />
    <glyph glyph-name="multiply" unicode="&#xd7;" horiz-adv-x="948" 
d="M100 352l328 279l-225 274l73 64l226 -275l327 277l58 -70l-326 -278l225 -275l-75 -61l-226 272l-327 -278z" />
    <glyph glyph-name="Oslash" unicode="&#xd8;" horiz-adv-x="1472" 
d="M37 37l-51 59l186 158q-63 126 -63 293q0 135 35.5 266t105 245.5t164 201.5t221.5 137.5t268 50.5q143 0 253.5 -52.5t180.5 -150.5l164 139l53 -59l-176 -149q62 -124 62 -289q0 -112 -26 -222.5t-73 -210.5t-118.5 -186t-157.5 -148.5t-194.5 -98t-225.5 -35.5
q-287 0 -432 200zM225 563q0 -127 41 -227l979 831q-56 88 -148 135.5t-212 47.5q-119 0 -225 -45.5t-184 -123.5t-135.5 -178.5t-86.5 -213.5t-29 -226zM305 264q116 -180 357 -180q117 0 223 45.5t184.5 123t136.5 177.5t87.5 212.5t29.5 225.5q0 126 -41 226z" />
    <glyph glyph-name="Ugrave" unicode="&#xd9;" horiz-adv-x="1417" 
d="M616 -14q-264 0 -382 144.5t-72 408.5l157 895h111l-158 -895q-39 -230 54 -342.5t307 -112.5q213 0 348.5 118t173.5 337l156 895h110l-157 -895q-46 -266 -214.5 -409.5t-433.5 -143.5zM791 1788h118l64 -236h-90z" />
    <glyph glyph-name="Uacute" unicode="&#xda;" horiz-adv-x="1417" 
d="M616 -14q-264 0 -382 144.5t-72 408.5l157 895h111l-158 -895q-39 -230 54 -342.5t307 -112.5q213 0 348.5 118t173.5 337l156 895h110l-157 -895q-46 -266 -214.5 -409.5t-433.5 -143.5zM811 1552l147 236h123l-178 -236h-92z" />
    <glyph glyph-name="Ucircumflex" unicode="&#xdb;" horiz-adv-x="1417" 
d="M616 -14q-264 0 -382 144.5t-72 408.5l157 895h111l-158 -895q-39 -230 54 -342.5t307 -112.5q213 0 348.5 118t173.5 337l156 895h110l-157 -895q-46 -266 -214.5 -409.5t-433.5 -143.5zM657 1552l226 236h114l142 -236h-107l-98 174l-162 -174h-115z" />
    <glyph glyph-name="Udieresis" unicode="&#xdc;" horiz-adv-x="1417" 
d="M616 -14q-264 0 -382 144.5t-72 408.5l157 895h111l-158 -895q-39 -230 54 -342.5t307 -112.5q213 0 348.5 118t173.5 337l156 895h110l-157 -895q-46 -266 -214.5 -409.5t-433.5 -143.5zM715 1587l30 182h103l-31 -182h-102zM985 1587l31 182h102l-31 -182h-102z" />
    <glyph glyph-name="Yacute" unicode="&#xdd;" horiz-adv-x="1048" 
d="M498 678l-328 756h115l282 -658l514 658h121l-594 -756l-119 -678h-110zM614 1552l148 236h123l-178 -236h-93z" />
    <glyph glyph-name="Thorn" unicode="&#xde;" horiz-adv-x="1118" 
d="M76 0l252 1434h110l-49 -277h273q211 0 329.5 -93t118.5 -255q0 -107 -39 -202t-110 -168t-180.5 -115.5t-241.5 -42.5h-303l-50 -281h-110zM252 377h289q197 0 323.5 115t126.5 296q0 128 -86.5 200.5t-242.5 72.5h-289z" />
    <glyph glyph-name="germandbls" unicode="&#xdf;" horiz-adv-x="1093" 
d="M659 -14q-132 0 -205.5 70t-76.5 188l92 24q3 -89 54.5 -142.5t144.5 -53.5q98 0 157.5 68t59.5 153q0 53 -29.5 91.5t-89.5 74.5l-156 92q-121 74 -121 180q0 165 242 289q42 22 71 40t63.5 45.5t52.5 58t18 63.5q0 62 -59 96.5t-170 34.5q-152 0 -245.5 -89.5
t-123.5 -254.5l-180 -1014h-103l178 1016q36 205 163 318.5t331 113.5q153 0 234 -53.5t81 -145.5q0 -41 -16 -78t-36.5 -62.5t-60.5 -55.5t-65 -45t-73 -43q-93 -50 -143 -97.5t-50 -103.5q0 -84 78 -131l162 -101q74 -45 112.5 -98t38.5 -135q0 -122 -97 -217.5
t-233 -95.5z" />
    <glyph glyph-name="agrave" unicode="&#xe0;" horiz-adv-x="1007" 
d="M807 686q5 40 5 78.5t-15 72t-40 59t-70 40t-105 14.5q-120 0 -209.5 -56t-141.5 -159l-96 29q61 123 184 199.5t283 76.5q178 0 258.5 -89t50.5 -263l-120 -688h-105l39 217q-70 -109 -189 -170t-245 -61q-125 0 -203 59t-78 164q0 88 36.5 154.5t103.5 108t151.5 64.5
t190.5 31q151 12 228 36.5t87 82.5zM127 231q0 -81 60.5 -120t152.5 -39q147 0 270.5 102.5t153.5 269.5l24 134q-77 -74 -282 -91q-68 -5 -119 -14t-102.5 -27t-84 -45t-53 -70t-20.5 -100zM506 1380h119l63 -235h-90z" />
    <glyph glyph-name="aacute" unicode="&#xe1;" horiz-adv-x="1007" 
d="M807 686q5 40 5 78.5t-15 72t-40 59t-70 40t-105 14.5q-120 0 -209.5 -56t-141.5 -159l-96 29q61 123 184 199.5t283 76.5q178 0 258.5 -89t50.5 -263l-120 -688h-105l39 217q-70 -109 -189 -170t-245 -61q-125 0 -203 59t-78 164q0 88 36.5 154.5t103.5 108t151.5 64.5
t190.5 31q151 12 228 36.5t87 82.5zM127 231q0 -81 60.5 -120t152.5 -39q147 0 270.5 102.5t153.5 269.5l24 134q-77 -74 -282 -91q-68 -5 -119 -14t-102.5 -27t-84 -45t-53 -70t-20.5 -100zM526 1145l148 235h123l-179 -235h-92z" />
    <glyph glyph-name="acircumflex" unicode="&#xe2;" horiz-adv-x="1007" 
d="M807 686q5 40 5 78.5t-15 72t-40 59t-70 40t-105 14.5q-120 0 -209.5 -56t-141.5 -159l-96 29q61 123 184 199.5t283 76.5q178 0 258.5 -89t50.5 -263l-120 -688h-105l39 217q-70 -109 -189 -170t-245 -61q-125 0 -203 59t-78 164q0 88 36.5 154.5t103.5 108t151.5 64.5
t190.5 31q151 12 228 36.5t87 82.5zM127 231q0 -81 60.5 -120t152.5 -39q147 0 270.5 102.5t153.5 269.5l24 134q-77 -74 -282 -91q-68 -5 -119 -14t-102.5 -27t-84 -45t-53 -70t-20.5 -100zM373 1145l225 235h115l141 -235h-106l-99 174l-162 -174h-114z" />
    <glyph glyph-name="atilde" unicode="&#xe3;" horiz-adv-x="1007" 
d="M807 686q5 40 5 78.5t-15 72t-40 59t-70 40t-105 14.5q-120 0 -209.5 -56t-141.5 -159l-96 29q61 123 184 199.5t283 76.5q178 0 258.5 -89t50.5 -263l-120 -688h-105l39 217q-70 -109 -189 -170t-245 -61q-125 0 -203 59t-78 164q0 88 36.5 154.5t103.5 108t151.5 64.5
t190.5 31q151 12 228 36.5t87 82.5zM127 231q0 -81 60.5 -120t152.5 -39q147 0 270.5 102.5t153.5 269.5l24 134q-77 -74 -282 -91q-68 -5 -119 -14t-102.5 -27t-84 -45t-53 -70t-20.5 -100zM367 1190q48 158 172 158q38 0 70 -17t50 -37.5t45 -37.5t56 -17q64 0 86 104
l69 -28q-37 -156 -157 -156q-38 0 -71 17t-53 37.5t-46.5 37.5t-52.5 17q-62 0 -97 -107z" />
    <glyph glyph-name="adieresis" unicode="&#xe4;" horiz-adv-x="1007" 
d="M807 686q5 40 5 78.5t-15 72t-40 59t-70 40t-105 14.5q-120 0 -209.5 -56t-141.5 -159l-96 29q61 123 184 199.5t283 76.5q178 0 258.5 -89t50.5 -263l-120 -688h-105l39 217q-70 -109 -189 -170t-245 -61q-125 0 -203 59t-78 164q0 88 36.5 154.5t103.5 108t151.5 64.5
t190.5 31q151 12 228 36.5t87 82.5zM127 231q0 -81 60.5 -120t152.5 -39q147 0 270.5 102.5t153.5 269.5l24 134q-77 -74 -282 -91q-68 -5 -119 -14t-102.5 -27t-84 -45t-53 -70t-20.5 -100zM430 1180l31 182h102l-31 -182h-102zM700 1180l31 182h103l-31 -182h-103z" />
    <glyph glyph-name="aring" unicode="&#xe5;" horiz-adv-x="1007" 
d="M807 686q5 40 5 78.5t-15 72t-40 59t-70 40t-105 14.5q-120 0 -209.5 -56t-141.5 -159l-96 29q61 123 184 199.5t283 76.5q178 0 258.5 -89t50.5 -263l-120 -688h-105l39 217q-70 -109 -189 -170t-245 -61q-125 0 -203 59t-78 164q0 88 36.5 154.5t103.5 108t151.5 64.5
t190.5 31q151 12 228 36.5t87 82.5zM127 231q0 -81 60.5 -120t152.5 -39q147 0 270.5 102.5t153.5 269.5l24 134q-77 -74 -282 -91q-68 -5 -119 -14t-102.5 -27t-84 -45t-53 -70t-20.5 -100zM485 1235q0 75 50 127.5t133 52.5q62 0 95.5 -30t33.5 -85q0 -81 -51 -131.5
t-130 -50.5q-62 0 -96.5 31t-34.5 86zM557 1247q0 -29 19 -47t51 -18q43 0 69.5 31t26.5 77q0 28 -17 45t-49 17q-44 0 -72 -30t-28 -75z" />
    <glyph glyph-name="ae" unicode="&#xe6;" horiz-adv-x="1765" 
d="M303 -14q-128 0 -210.5 61t-82.5 166q0 88 37 154t105 106.5t151.5 63t188.5 30.5q68 4 119 12.5t96.5 24t71 42.5t28.5 65q15 110 -42.5 174.5t-184.5 64.5q-120 0 -208.5 -56t-140.5 -159l-98 29q59 124 179.5 200t279.5 76q290 0 301 -245q79 115 196.5 179t256.5 64
q170 0 266 -97t96 -255q0 -89 -27 -168h-792q-9 -65 -9.5 -128t20.5 -119.5t55.5 -99.5t96 -68t142.5 -25q86 0 161 37.5t122.5 89t83.5 117.5l94 -29q-65 -128 -189.5 -216.5t-285.5 -88.5q-180 0 -278.5 88t-106.5 243q-28 -104 -106 -181.5t-178 -114.5t-208 -37z
M127 231q0 -81 60.5 -120t152.5 -39q146 0 270.5 102t155.5 270l22 136q-77 -77 -282 -93q-67 -5 -118 -14t-102.5 -27t-84.5 -45t-53.5 -70t-20.5 -100zM907 602h686q27 146 -46 247t-224 101q-148 0 -261.5 -98t-154.5 -250z" />
    <glyph glyph-name="ccedilla" unicode="&#xe7;" horiz-adv-x="1024" 
d="M360 -389q-105 0 -167 96l57 45q29 -36 57.5 -50.5t67.5 -14.5q38 0 65.5 21.5t34.5 58.5q5 42 -34.5 66t-133.5 24l10 55l76 78q-151 21 -245.5 128t-94.5 277q0 124 42.5 240.5t117 206.5t185.5 144t239 54q156 0 251 -88.5t107 -234.5l-102 -31q-12 126 -85.5 195
t-195.5 69q-129 0 -233.5 -81t-158.5 -203t-54 -254q0 -157 88.5 -246.5t222.5 -89.5q120 0 214.5 74t154.5 194l94 -29q-69 -142 -188.5 -232.5t-274.5 -96.5l-67 -86q64 -2 109.5 -32t45.5 -87q0 -69 -62 -119.5t-143 -50.5z" />
    <glyph glyph-name="egrave" unicode="&#xe8;" horiz-adv-x="1052" 
d="M469 -14q-193 0 -304.5 107.5t-111.5 303.5q0 121 42 237t115.5 206t183 145t235.5 55q171 0 268.5 -100t97.5 -260q0 -88 -28 -164h-797q-8 -47 -8 -104q0 -162 86.5 -249t234.5 -87q122 0 212.5 70.5t148.5 175.5l98 -29q-63 -128 -188 -217.5t-285 -89.5zM190 600h689
q6 34 6 68q0 131 -72.5 207.5t-202.5 76.5q-150 0 -261 -99.5t-159 -252.5zM553 1380h119l63 -235h-90z" />
    <glyph glyph-name="eacute" unicode="&#xe9;" horiz-adv-x="1052" 
d="M469 -14q-193 0 -304.5 107.5t-111.5 303.5q0 121 42 237t115.5 206t183 145t235.5 55q171 0 268.5 -100t97.5 -260q0 -88 -28 -164h-797q-8 -47 -8 -104q0 -162 86.5 -249t234.5 -87q122 0 212.5 70.5t148.5 175.5l98 -29q-63 -128 -188 -217.5t-285 -89.5zM190 600h689
q6 34 6 68q0 131 -72.5 207.5t-202.5 76.5q-150 0 -261 -99.5t-159 -252.5zM573 1145l148 235h123l-178 -235h-93z" />
    <glyph glyph-name="ecircumflex" unicode="&#xea;" horiz-adv-x="1052" 
d="M469 -14q-193 0 -304.5 107.5t-111.5 303.5q0 121 42 237t115.5 206t183 145t235.5 55q171 0 268.5 -100t97.5 -260q0 -88 -28 -164h-797q-8 -47 -8 -104q0 -162 86.5 -249t234.5 -87q122 0 212.5 70.5t148.5 175.5l98 -29q-63 -128 -188 -217.5t-285 -89.5zM190 600h689
q6 34 6 68q0 131 -72.5 207.5t-202.5 76.5q-150 0 -261 -99.5t-159 -252.5zM420 1145l225 235h115l141 -235h-106l-99 174l-161 -174h-115z" />
    <glyph glyph-name="edieresis" unicode="&#xeb;" horiz-adv-x="1052" 
d="M469 -14q-193 0 -304.5 107.5t-111.5 303.5q0 121 42 237t115.5 206t183 145t235.5 55q171 0 268.5 -100t97.5 -260q0 -88 -28 -164h-797q-8 -47 -8 -104q0 -162 86.5 -249t234.5 -87q122 0 212.5 70.5t148.5 175.5l98 -29q-63 -128 -188 -217.5t-285 -89.5zM190 600h689
q6 34 6 68q0 131 -72.5 207.5t-202.5 76.5q-150 0 -261 -99.5t-159 -252.5zM477 1180l31 182h102l-30 -182h-103zM748 1180l30 182h103l-31 -182h-102z" />
    <glyph glyph-name="igrave" unicode="&#xec;" horiz-adv-x="395" 
d="M53 0l183 1026h106l-182 -1026h-107zM195 1380h118l64 -235h-90z" />
    <glyph glyph-name="iacute" unicode="&#xed;" horiz-adv-x="395" 
d="M53 0l183 1026h106l-182 -1026h-107zM217 1145l148 235h122l-178 -235h-92z" />
    <glyph glyph-name="icircumflex" unicode="&#xee;" horiz-adv-x="395" 
d="M53 0l183 1026h106l-182 -1026h-107zM61 1145l226 235h114l142 -235h-107l-98 174l-162 -174h-115z" />
    <glyph glyph-name="idieresis" unicode="&#xef;" horiz-adv-x="395" 
d="M53 0l183 1026h106l-182 -1026h-107zM121 1180l31 182h102l-31 -182h-102zM391 1180l31 182h102l-30 -182h-103z" />
    <glyph glyph-name="eth" unicode="&#xf0;" horiz-adv-x="1034" 
d="M410 -14q-165 0 -264 98.5t-99 273.5q0 106 37.5 206t102.5 176.5t160.5 122.5t205.5 46q141 0 227.5 -76.5t100.5 -211.5q45 348 -54 544l-290 -98l12 74l244 82q-111 150 -330 153l39 70q261 -3 385 -193l225 76l-12 -72l-180 -61q63 -135 63 -330q0 -79 -8 -159.5
t-27.5 -168.5t-48.5 -166.5t-75 -150t-103.5 -123t-137.5 -82t-173 -30.5zM160 369q0 -136 73 -214.5t193 -78.5q114 0 207.5 71t142.5 177t49 217q0 129 -72 203.5t-196 74.5q-112 0 -204 -63.5t-142.5 -166t-50.5 -220.5z" />
    <glyph glyph-name="ntilde" unicode="&#xf1;" horiz-adv-x="1073" 
d="M53 0l183 1026h106l-49 -281q78 133 196.5 214t260.5 81q132 0 194.5 -85.5t32.5 -258.5l-123 -696h-106l120 690q23 137 -23.5 199.5t-144.5 62.5q-102 0 -197.5 -66t-160 -166.5t-92.5 -213.5l-90 -506h-107zM449 1190q48 158 172 158q38 0 70 -17t50 -37.5t45 -37.5
t56 -17q64 0 86 104l69 -28q-37 -156 -157 -156q-38 0 -71.5 17t-53 37.5t-46.5 37.5t-53 17q-61 0 -96 -107z" />
    <glyph glyph-name="ograve" unicode="&#xf2;" horiz-adv-x="1087" 
d="M451 -14q-177 0 -287.5 110.5t-110.5 298.5q0 124 44 241.5t120 206.5t186 143t234 54q177 0 287 -110.5t110 -298.5q0 -100 -28 -196t-80.5 -176.5t-123 -142t-161.5 -96t-190 -34.5zM166 401q0 -154 82.5 -239.5t218.5 -85.5q104 0 191.5 49t144 128t88 176.5
t31.5 197.5q0 152 -81.5 237.5t-219.5 85.5q-104 0 -191.5 -48.5t-144 -127.5t-88 -176.5t-31.5 -196.5zM539 1380h118l64 -235h-90z" />
    <glyph glyph-name="oacute" unicode="&#xf3;" horiz-adv-x="1087" 
d="M451 -14q-177 0 -287.5 110.5t-110.5 298.5q0 124 44 241.5t120 206.5t186 143t234 54q177 0 287 -110.5t110 -298.5q0 -100 -28 -196t-80.5 -176.5t-123 -142t-161.5 -96t-190 -34.5zM166 401q0 -154 82.5 -239.5t218.5 -85.5q104 0 191.5 49t144 128t88 176.5
t31.5 197.5q0 152 -81.5 237.5t-219.5 85.5q-104 0 -191.5 -48.5t-144 -127.5t-88 -176.5t-31.5 -196.5zM561 1145l148 235h122l-178 -235h-92z" />
    <glyph glyph-name="ocircumflex" unicode="&#xf4;" horiz-adv-x="1087" 
d="M451 -14q-177 0 -287.5 110.5t-110.5 298.5q0 124 44 241.5t120 206.5t186 143t234 54q177 0 287 -110.5t110 -298.5q0 -100 -28 -196t-80.5 -176.5t-123 -142t-161.5 -96t-190 -34.5zM166 401q0 -154 82.5 -239.5t218.5 -85.5q104 0 191.5 49t144 128t88 176.5
t31.5 197.5q0 152 -81.5 237.5t-219.5 85.5q-104 0 -191.5 -48.5t-144 -127.5t-88 -176.5t-31.5 -196.5zM406 1145l225 235h114l142 -235h-107l-98 174l-162 -174h-114z" />
    <glyph glyph-name="otilde" unicode="&#xf5;" horiz-adv-x="1087" 
d="M451 -14q-177 0 -287.5 110.5t-110.5 298.5q0 124 44 241.5t120 206.5t186 143t234 54q177 0 287 -110.5t110 -298.5q0 -100 -28 -196t-80.5 -176.5t-123 -142t-161.5 -96t-190 -34.5zM166 401q0 -154 82.5 -239.5t218.5 -85.5q104 0 191.5 49t144 128t88 176.5
t31.5 197.5q0 152 -81.5 237.5t-219.5 85.5q-104 0 -191.5 -48.5t-144 -127.5t-88 -176.5t-31.5 -196.5zM399 1190q48 158 172 158q38 0 70 -17t50.5 -37.5t45.5 -37.5t56 -17q64 0 86 104l69 -28q-37 -156 -157 -156q-38 0 -71.5 17t-53 37.5t-46.5 37.5t-53 17
q-61 0 -96 -107z" />
    <glyph glyph-name="odieresis" unicode="&#xf6;" horiz-adv-x="1087" 
d="M451 -14q-177 0 -287.5 110.5t-110.5 298.5q0 124 44 241.5t120 206.5t186 143t234 54q177 0 287 -110.5t110 -298.5q0 -100 -28 -196t-80.5 -176.5t-123 -142t-161.5 -96t-190 -34.5zM166 401q0 -154 82.5 -239.5t218.5 -85.5q104 0 191.5 49t144 128t88 176.5
t31.5 197.5q0 152 -81.5 237.5t-219.5 85.5q-104 0 -191.5 -48.5t-144 -127.5t-88 -176.5t-31.5 -196.5zM465 1180l31 182h102l-31 -182h-102zM735 1180l31 182h102l-30 -182h-103z" />
    <glyph glyph-name="divide" unicode="&#xf7;" horiz-adv-x="940" 
d="M369 262l26 150h111l-27 -150h-110zM113 588l16 92h739l-14 -92h-741zM473 856l25 150h110l-24 -150h-111z" />
    <glyph glyph-name="oslash" unicode="&#xf8;" horiz-adv-x="1087" 
d="M-6 14l-43 52l145 124q-43 91 -43 205q0 124 44 241.5t120 206.5t186 143t234 54q196 0 305 -131l139 119l43 -53l-143 -121q53 -92 53 -223q0 -100 -28 -196t-80.5 -176.5t-123 -142t-161.5 -96t-190 -34.5q-101 0 -183 38t-135 109zM166 401q0 -70 20 -135l674 574
q-78 110 -239 110q-104 0 -191.5 -48.5t-144 -127.5t-88 -176.5t-31.5 -196.5zM217 203q79 -127 250 -127q104 0 191.5 49t144 128t88 176.5t31.5 197.5q0 77 -27 153z" />
    <glyph glyph-name="ugrave" unicode="&#xf9;" horiz-adv-x="1073" 
d="M1020 1026l-182 -1026h-107l49 281q-78 -133 -196 -214t-260 -81q-132 0 -195 85.5t-33 258.5l123 696h107l-121 -690q-23 -137 23.5 -199.5t144.5 -62.5q102 0 197.5 66t160 166.5t92.5 213.5l90 506h107zM571 1380h119l64 -235h-90z" />
    <glyph glyph-name="uacute" unicode="&#xfa;" horiz-adv-x="1073" 
d="M1020 1026l-182 -1026h-107l49 281q-78 -133 -196 -214t-260 -81q-132 0 -195 85.5t-33 258.5l123 696h107l-121 -690q-23 -137 23.5 -199.5t144.5 -62.5q102 0 197.5 66t160 166.5t92.5 213.5l90 506h107zM592 1145l147 235h123l-178 -235h-92z" />
    <glyph glyph-name="ucircumflex" unicode="&#xfb;" horiz-adv-x="1073" 
d="M1020 1026l-182 -1026h-107l49 281q-78 -133 -196 -214t-260 -81q-132 0 -195 85.5t-33 258.5l123 696h107l-121 -690q-23 -137 23.5 -199.5t144.5 -62.5q102 0 197.5 66t160 166.5t92.5 213.5l90 506h107zM438 1145l226 235h114l142 -235h-107l-98 174l-162 -174h-115z
" />
    <glyph glyph-name="udieresis" unicode="&#xfc;" horiz-adv-x="1073" 
d="M1020 1026l-182 -1026h-107l49 281q-78 -133 -196 -214t-260 -81q-132 0 -195 85.5t-33 258.5l123 696h107l-121 -690q-23 -137 23.5 -199.5t144.5 -62.5q102 0 197.5 66t160 166.5t92.5 213.5l90 506h107zM496 1180l30 182h103l-31 -182h-102zM766 1180l31 182h102
l-31 -182h-102z" />
    <glyph glyph-name="yacute" unicode="&#xfd;" horiz-adv-x="915" 
d="M-76 -410l15 93h86q73 0 120 32t84 99l95 172l-228 1040h99l198 -911l498 911h108l-659 -1204q-27 -49 -49.5 -82.5t-52.5 -63.5t-63.5 -48t-78 -28t-100.5 -10h-72zM481 1145l148 235h123l-179 -235h-92z" />
    <glyph glyph-name="thorn" unicode="&#xfe;" horiz-adv-x="1136" 
d="M-16 -410l323 1844h107l-123 -701q71 140 184 223.5t252 83.5q165 0 261.5 -103.5t96.5 -285.5q0 -171 -69 -323t-193.5 -247t-273.5 -95q-140 0 -226.5 83.5t-109.5 223.5l-123 -703h-106zM254 416q0 -151 79.5 -245.5t203.5 -94.5q78 0 147.5 31.5t121.5 86t89.5 125.5
t57 151t20.5 161q0 155 -71.5 237t-205.5 82q-91 0 -174 -47.5t-140.5 -123.5t-92 -171.5t-35.5 -191.5z" />
    <glyph glyph-name="ydieresis" unicode="&#xff;" horiz-adv-x="915" 
d="M-76 -410l15 93h86q73 0 120 32t84 99l95 172l-228 1040h99l198 -911l498 911h108l-659 -1204q-27 -49 -49.5 -82.5t-52.5 -63.5t-63.5 -48t-78 -28t-100.5 -10h-72zM385 1180l31 182h102l-31 -182h-102zM655 1180l31 182h102l-30 -182h-103z" />
    <glyph glyph-name="Amacron" unicode="&#x100;" horiz-adv-x="1241" 
d="M846 1434l284 -1434h-110l-82 418h-668l-229 -418h-111l789 1434h127zM324 514h596l-156 801zM590 1608l14 80h461l-16 -80h-459z" />
    <glyph glyph-name="amacron" unicode="&#x101;" horiz-adv-x="1007" 
d="M807 686q5 40 5 78.5t-15 72t-40 59t-70 40t-105 14.5q-120 0 -209.5 -56t-141.5 -159l-96 29q61 123 184 199.5t283 76.5q178 0 258.5 -89t50.5 -263l-120 -688h-105l39 217q-70 -109 -189 -170t-245 -61q-125 0 -203 59t-78 164q0 88 36.5 154.5t103.5 108t151.5 64.5
t190.5 31q151 12 228 36.5t87 82.5zM127 231q0 -81 60.5 -120t152.5 -39q147 0 270.5 102.5t153.5 269.5l24 134q-77 -74 -282 -91q-68 -5 -119 -14t-102.5 -27t-84 -45t-53 -70t-20.5 -100zM403 1198l15 80h461l-17 -80h-459z" />
    <glyph glyph-name="Abreve" unicode="&#x102;" horiz-adv-x="1241" 
d="M846 1434l284 -1434h-110l-82 418h-668l-229 -418h-111l789 1434h127zM324 514h596l-156 801zM606 1792h88q-13 -83 19.5 -131.5t101.5 -48.5q68 0 117.5 48.5t62.5 131.5h88q-20 -118 -96.5 -188t-185.5 -70t-162 70t-33 188z" />
    <glyph glyph-name="abreve" unicode="&#x103;" horiz-adv-x="1007" 
d="M807 686q5 40 5 78.5t-15 72t-40 59t-70 40t-105 14.5q-120 0 -209.5 -56t-141.5 -159l-96 29q61 123 184 199.5t283 76.5q178 0 258.5 -89t50.5 -263l-120 -688h-105l39 217q-70 -109 -189 -170t-245 -61q-125 0 -203 59t-78 164q0 88 36.5 154.5t103.5 108t151.5 64.5
t190.5 31q151 12 228 36.5t87 82.5zM127 231q0 -81 60.5 -120t152.5 -39q147 0 270.5 102.5t153.5 269.5l24 134q-77 -74 -282 -91q-68 -5 -119 -14t-102.5 -27t-84 -45t-53 -70t-20.5 -100zM420 1382h88q-13 -83 19.5 -131.5t101.5 -48.5q68 0 117.5 48.5t62.5 131.5h88
q-20 -118 -97 -188t-186 -70t-161.5 70t-32.5 188z" />
    <glyph glyph-name="Aogonek" unicode="&#x104;" horiz-adv-x="1241" 
d="M846 1434l284 -1434h-20q-129 -113 -129 -205q0 -40 26 -64t70 -24q29 0 62 10l22 -65q-51 -33 -117 -33q-67 0 -107 36.5t-40 100.5q0 67 33.5 124.5t97.5 119.5h-8l-82 418h-668l-229 -418h-111l789 1434h127zM324 514h596l-156 801z" />
    <glyph glyph-name="aogonek" unicode="&#x105;" horiz-adv-x="1007" 
d="M807 686q5 40 5 78.5t-15 72t-40 59t-70 40t-105 14.5q-120 0 -209.5 -56t-141.5 -159l-96 29q61 123 184 199.5t283 76.5q178 0 258.5 -89t50.5 -263l-120 -688h-25q-129 -113 -129 -205q0 -40 26 -64t70 -24q29 0 62 10l22 -65q-51 -33 -117 -33q-67 0 -107 36.5
t-40 100.5q0 67 33.5 124.5t97.5 119.5h2l39 217q-70 -109 -189 -170t-245 -61q-125 0 -203 59t-78 164q0 88 36.5 154.5t103.5 108t151.5 64.5t190.5 31q151 12 228 36.5t87 82.5zM127 231q0 -81 60.5 -120t152.5 -39q147 0 270.5 102.5t153.5 269.5l24 134
q-77 -74 -282 -91q-68 -5 -119 -14t-102.5 -27t-84 -45t-53 -70t-20.5 -100z" />
    <glyph glyph-name="Cacute" unicode="&#x106;" horiz-adv-x="1411" 
d="M676 -14q-266 0 -416.5 153t-150.5 410q0 137 37 269.5t109 245.5t169 199.5t225 135.5t269 49q222 0 355.5 -125.5t147.5 -337.5l-108 -31q-14 180 -124.5 288t-289.5 108q-121 0 -229 -44.5t-188 -120.5t-139 -175.5t-88.5 -213t-29.5 -229.5q0 -221 121.5 -352
t341.5 -131q178 0 320 104.5t221 288.5l106 -31q-88 -206 -265.5 -333t-393.5 -127zM834 1552l147 236h123l-178 -236h-92z" />
    <glyph glyph-name="cacute" unicode="&#x107;" horiz-adv-x="1024" 
d="M461 -14q-177 0 -292.5 109.5t-115.5 299.5q0 124 42.5 240.5t117 206.5t185.5 144t239 54q156 0 251 -88.5t107 -234.5l-102 -31q-12 126 -85.5 195t-195.5 69q-129 0 -233.5 -81t-158.5 -203t-54 -254q0 -157 88.5 -246.5t222.5 -89.5q120 0 214.5 74t154.5 194l94 -29
q-71 -146 -195 -237.5t-284 -91.5zM557 1145l148 235h122l-178 -235h-92z" />
    <glyph glyph-name="Ccircumflex" unicode="&#x108;" horiz-adv-x="1411" 
d="M676 -14q-266 0 -416.5 153t-150.5 410q0 137 37 269.5t109 245.5t169 199.5t225 135.5t269 49q222 0 355.5 -125.5t147.5 -337.5l-108 -31q-14 180 -124.5 288t-289.5 108q-121 0 -229 -44.5t-188 -120.5t-139 -175.5t-88.5 -213t-29.5 -229.5q0 -221 121.5 -352
t341.5 -131q178 0 320 104.5t221 288.5l106 -31q-88 -206 -265.5 -333t-393.5 -127zM680 1552l225 236h115l141 -236h-106l-99 174l-161 -174h-115z" />
    <glyph glyph-name="ccircumflex" unicode="&#x109;" horiz-adv-x="1024" 
d="M461 -14q-177 0 -292.5 109.5t-115.5 299.5q0 124 42.5 240.5t117 206.5t185.5 144t239 54q156 0 251 -88.5t107 -234.5l-102 -31q-12 126 -85.5 195t-195.5 69q-129 0 -233.5 -81t-158.5 -203t-54 -254q0 -157 88.5 -246.5t222.5 -89.5q120 0 214.5 74t154.5 194l94 -29
q-71 -146 -195 -237.5t-284 -91.5zM403 1145l226 235h114l142 -235h-107l-98 174l-162 -174h-115z" />
    <glyph glyph-name="Cdotaccent" unicode="&#x10a;" horiz-adv-x="1411" 
d="M676 -14q-266 0 -416.5 153t-150.5 410q0 137 37 269.5t109 245.5t169 199.5t225 135.5t269 49q222 0 355.5 -125.5t147.5 -337.5l-108 -31q-14 180 -124.5 288t-289.5 108q-121 0 -229 -44.5t-188 -120.5t-139 -175.5t-88.5 -213t-29.5 -229.5q0 -221 121.5 -352
t341.5 -131q178 0 320 104.5t221 288.5l106 -31q-88 -206 -265.5 -333t-393.5 -127zM870 1587l29 182h117l-29 -182h-117z" />
    <glyph glyph-name="cdotaccent" unicode="&#x10b;" horiz-adv-x="1024" 
d="M461 -14q-177 0 -292.5 109.5t-115.5 299.5q0 124 42.5 240.5t117 206.5t185.5 144t239 54q156 0 251 -88.5t107 -234.5l-102 -31q-12 126 -85.5 195t-195.5 69q-129 0 -233.5 -81t-158.5 -203t-54 -254q0 -157 88.5 -246.5t222.5 -89.5q120 0 214.5 74t154.5 194l94 -29
q-71 -146 -195 -237.5t-284 -91.5zM594 1180l29 182h116l-28 -182h-117z" />
    <glyph glyph-name="Ccaron" unicode="&#x10c;" horiz-adv-x="1411" 
d="M676 -14q-266 0 -416.5 153t-150.5 410q0 137 37 269.5t109 245.5t169 199.5t225 135.5t269 49q222 0 355.5 -125.5t147.5 -337.5l-108 -31q-14 180 -124.5 288t-289.5 108q-121 0 -229 -44.5t-188 -120.5t-139 -175.5t-88.5 -213t-29.5 -229.5q0 -221 121.5 -352
t341.5 -131q178 0 320 104.5t221 288.5l106 -31q-88 -206 -265.5 -333t-393.5 -127zM731 1786h107l98 -172l160 172h116l-225 -234h-115z" />
    <glyph glyph-name="ccaron" unicode="&#x10d;" horiz-adv-x="1024" 
d="M461 -14q-177 0 -292.5 109.5t-115.5 299.5q0 124 42.5 240.5t117 206.5t185.5 144t239 54q156 0 251 -88.5t107 -234.5l-102 -31q-12 126 -85.5 195t-195.5 69q-129 0 -233.5 -81t-158.5 -203t-54 -254q0 -157 88.5 -246.5t222.5 -89.5q120 0 214.5 74t154.5 194l94 -29
q-71 -146 -195 -237.5t-284 -91.5zM455 1378h106l98 -172l160 172h117l-225 -233h-115z" />
    <glyph glyph-name="Dcaron" unicode="&#x10e;" horiz-adv-x="1378" 
d="M76 0l252 1434h401q293 0 457 -149t164 -411q0 -178 -61.5 -337t-172.5 -278t-277 -189t-362 -70h-401zM203 98h293q216 0 386 103t260.5 275.5t90.5 381.5q0 224 -137 350.5t-383 126.5h-291zM621 1786h106l98 -172l160 172h117l-225 -234h-115z" />
    <glyph glyph-name="dcaron" unicode="&#x10f;" horiz-adv-x="1130" 
d="M788 0l50 276q-70 -133 -181.5 -211.5t-246.5 -78.5q-165 0 -262 103.5t-97 285.5q0 127 41 248t111 213t170.5 148t212.5 56q137 0 223.5 -80t110.5 -215l120 689h107l-252 -1434h-107zM164 395q0 -155 71 -237t205 -82q120 0 223.5 80.5t160.5 203t57 250.5
q0 151 -79.5 245.5t-203.5 94.5q-128 0 -229.5 -83t-153 -208.5t-51.5 -263.5zM1165 1079l125 355h109l-154 -355h-80z" />
    <glyph glyph-name="Dcroat" unicode="&#x110;" horiz-adv-x="1392" 
d="M49 676l14 82h160l119 676h401q293 0 457 -149t164 -411q0 -178 -61.5 -337t-172 -278t-276.5 -189t-362 -70h-402l119 676h-160zM217 98h293q216 0 386 103t260.5 275.5t90.5 381.5q0 224 -137 350.5t-383 126.5h-291l-102 -577h233l-14 -82h-234z" />
    <glyph glyph-name="dcroat" unicode="&#x111;" horiz-adv-x="1120" 
d="M672 1204l14 82h328l26 148h107l-27 -148h140l-13 -82h-141l-211 -1204h-107l50 276q-70 -133 -181.5 -211.5t-246.5 -78.5q-165 0 -262 103.5t-97 285.5q0 127 41 248t111 213t170.5 148t212.5 56q137 0 223.5 -80t110.5 -215l79 459h-327zM164 395q0 -155 71 -237
t205 -82q120 0 223.5 80.5t160.5 203t57 250.5q0 151 -79.5 245.5t-203.5 94.5q-128 0 -229.5 -83t-153 -208.5t-51.5 -263.5z" />
    <glyph glyph-name="Emacron" unicode="&#x112;" horiz-adv-x="1032" 
d="M76 0l252 1434h821l-16 -97h-711l-96 -544h598l-17 -95h-598l-106 -602h710l-16 -96h-821zM571 1606l15 80h461l-17 -80h-459z" />
    <glyph glyph-name="emacron" unicode="&#x113;" horiz-adv-x="1052" 
d="M469 -14q-193 0 -304.5 107.5t-111.5 303.5q0 121 42 237t115.5 206t183 145t235.5 55q171 0 268.5 -100t97.5 -260q0 -88 -28 -164h-797q-8 -47 -8 -104q0 -162 86.5 -249t234.5 -87q122 0 212.5 70.5t148.5 175.5l98 -29q-63 -128 -188 -217.5t-285 -89.5zM190 600h689
q6 34 6 68q0 131 -72.5 207.5t-202.5 76.5q-150 0 -261 -99.5t-159 -252.5zM451 1198l14 80h461l-17 -80h-458z" />
    <glyph glyph-name="Edotaccent" unicode="&#x116;" horiz-adv-x="1032" 
d="M76 0l252 1434h821l-16 -97h-711l-96 -544h598l-17 -95h-598l-106 -602h710l-16 -96h-821zM731 1587l29 182h117l-29 -182h-117z" />
    <glyph glyph-name="edotaccent" unicode="&#x117;" horiz-adv-x="1052" 
d="M469 -14q-193 0 -304.5 107.5t-111.5 303.5q0 121 42 237t115.5 206t183 145t235.5 55q171 0 268.5 -100t97.5 -260q0 -88 -28 -164h-797q-8 -47 -8 -104q0 -162 86.5 -249t234.5 -87q122 0 212.5 70.5t148.5 175.5l98 -29q-63 -128 -188 -217.5t-285 -89.5zM190 600h689
q6 34 6 68q0 131 -72.5 207.5t-202.5 76.5q-150 0 -261 -99.5t-159 -252.5zM610 1180l29 182h117l-29 -182h-117z" />
    <glyph glyph-name="Eogonek" unicode="&#x118;" horiz-adv-x="1032" 
d="M76 0l252 1434h821l-16 -97h-711l-96 -544h598l-17 -95h-598l-106 -602h710l-16 -96h-88q-129 -113 -129 -205q0 -40 26 -64t70 -24q29 0 62 10l22 -65q-51 -33 -117 -33q-67 0 -107 36.5t-40 100.5q0 67 33.5 124.5t97.5 119.5h-651z" />
    <glyph glyph-name="eogonek" unicode="&#x119;" horiz-adv-x="1052" 
d="M469 -14q-193 0 -304.5 107.5t-111.5 303.5q0 121 42 237t115.5 206t183 145t235.5 55q171 0 268.5 -100t97.5 -260q0 -88 -28 -164h-797q-8 -47 -8 -104q0 -162 86.5 -249t234.5 -87q122 0 212.5 70.5t148.5 175.5l98 -29q-37 -77 -100.5 -144t-145.5 -108
q-104 -100 -104 -182q0 -40 26 -64t70 -24q29 0 62 10l22 -66q-50 -32 -117 -32t-107 36.5t-40 100.5q0 92 70 178q-52 -12 -109 -12zM190 600h689q6 34 6 68q0 131 -72.5 207.5t-202.5 76.5q-150 0 -261 -99.5t-159 -252.5z" />
    <glyph glyph-name="Ecaron" unicode="&#x11a;" horiz-adv-x="1032" 
d="M76 0l252 1434h821l-16 -97h-711l-96 -544h598l-17 -95h-598l-106 -602h710l-16 -96h-821zM592 1786h106l99 -172l159 172h117l-225 -234h-115z" />
    <glyph glyph-name="ecaron" unicode="&#x11b;" horiz-adv-x="1052" 
d="M469 -14q-193 0 -304.5 107.5t-111.5 303.5q0 121 42 237t115.5 206t183 145t235.5 55q171 0 268.5 -100t97.5 -260q0 -88 -28 -164h-797q-8 -47 -8 -104q0 -162 86.5 -249t234.5 -87q122 0 212.5 70.5t148.5 175.5l98 -29q-63 -128 -188 -217.5t-285 -89.5zM190 600h689
q6 34 6 68q0 131 -72.5 207.5t-202.5 76.5q-150 0 -261 -99.5t-159 -252.5zM471 1378h107l98 -172l160 172h116l-225 -233h-115z" />
    <glyph glyph-name="Gcircumflex" unicode="&#x11c;" horiz-adv-x="1460" 
d="M633 -14q-234 0 -379 156.5t-145 412.5q0 172 59.5 333.5t163 285.5t257 199t329.5 75q225 0 350 -121t139 -323l-111 -27q-16 172 -116 272.5t-283 100.5q-120 0 -227 -43.5t-187 -119t-139 -174.5t-89 -212t-30 -228q0 -217 117.5 -353t316.5 -136q135 0 256.5 64
t210.5 188t121 287h-377l37 94h463l-127 -717h-100l57 326q-96 -156 -245 -248t-322 -92zM674 1552l225 236h115l141 -236h-106l-99 174l-162 -174h-114z" />
    <glyph glyph-name="gcircumflex" unicode="&#x11d;" horiz-adv-x="1128" 
d="M399 -424q-179 0 -277.5 85.5t-103.5 238.5l99 26q5 -126 81 -193t218 -67q148 0 245.5 86t124.5 248l52 291q-69 -138 -182.5 -221.5t-252.5 -83.5q-165 0 -261.5 103.5t-96.5 285.5q0 127 41 248t111 213t170.5 148t212.5 56q142 0 228 -84.5t107 -226.5l54 297h104
l-178 -1022q-38 -209 -167 -318.5t-329 -109.5zM158 395q0 -155 71 -237t205 -82q120 0 223.5 80.5t160 203t56.5 250.5q0 151 -79 245.5t-203 94.5q-128 0 -229.5 -83t-153 -208.5t-51.5 -263.5zM408 1145l225 235h115l141 -235h-107l-98 174l-162 -174h-114z" />
    <glyph glyph-name="Gbreve" unicode="&#x11e;" horiz-adv-x="1460" 
d="M633 -14q-234 0 -379 156.5t-145 412.5q0 172 59.5 333.5t163 285.5t257 199t329.5 75q225 0 350 -121t139 -323l-111 -27q-16 172 -116 272.5t-283 100.5q-120 0 -227 -43.5t-187 -119t-139 -174.5t-89 -212t-30 -228q0 -217 117.5 -353t316.5 -136q135 0 256.5 64
t210.5 188t121 287h-377l37 94h463l-127 -717h-100l57 326q-96 -156 -245 -248t-322 -92zM721 1790h88q-13 -83 19.5 -131.5t101.5 -48.5q68 0 117.5 48.5t62.5 131.5h88q-20 -118 -97 -188t-186 -70t-161.5 70t-32.5 188z" />
    <glyph glyph-name="gbreve" unicode="&#x11f;" horiz-adv-x="1128" 
d="M399 -424q-179 0 -277.5 85.5t-103.5 238.5l99 26q5 -126 81 -193t218 -67q148 0 245.5 86t124.5 248l52 291q-69 -138 -182.5 -221.5t-252.5 -83.5q-165 0 -261.5 103.5t-96.5 285.5q0 127 41 248t111 213t170.5 148t212.5 56q142 0 228 -84.5t107 -226.5l54 297h104
l-178 -1022q-38 -209 -167 -318.5t-329 -109.5zM158 395q0 -155 71 -237t205 -82q120 0 223.5 80.5t160 203t56.5 250.5q0 151 -79 245.5t-203 94.5q-128 0 -229.5 -83t-153 -208.5t-51.5 -263.5zM455 1382h88q-13 -83 19.5 -131.5t101.5 -48.5q68 0 117.5 48.5t62.5 131.5
h88q-20 -118 -97 -188t-186 -70t-161.5 70t-32.5 188z" />
    <glyph glyph-name="Gdotaccent" unicode="&#x120;" horiz-adv-x="1460" 
d="M633 -14q-234 0 -379 156.5t-145 412.5q0 172 59.5 333.5t163 285.5t257 199t329.5 75q225 0 350 -121t139 -323l-111 -27q-16 172 -116 272.5t-283 100.5q-120 0 -227 -43.5t-187 -119t-139 -174.5t-89 -212t-30 -228q0 -217 117.5 -353t316.5 -136q135 0 256.5 64
t210.5 188t121 287h-377l37 94h463l-127 -717h-100l57 326q-96 -156 -245 -248t-322 -92zM864 1587l29 182h117l-29 -182h-117z" />
    <glyph glyph-name="gdotaccent" unicode="&#x121;" horiz-adv-x="1128" 
d="M399 -424q-179 0 -277.5 85.5t-103.5 238.5l99 26q5 -126 81 -193t218 -67q148 0 245.5 86t124.5 248l52 291q-69 -138 -182.5 -221.5t-252.5 -83.5q-165 0 -261.5 103.5t-96.5 285.5q0 127 41 248t111 213t170.5 148t212.5 56q142 0 228 -84.5t107 -226.5l54 297h104
l-178 -1022q-38 -209 -167 -318.5t-329 -109.5zM158 395q0 -155 71 -237t205 -82q120 0 223.5 80.5t160 203t56.5 250.5q0 151 -79 245.5t-203 94.5q-128 0 -229.5 -83t-153 -208.5t-51.5 -263.5zM598 1180l29 182h116l-28 -182h-117z" />
    <glyph glyph-name="uni0122" unicode="&#x122;" horiz-adv-x="1460" 
d="M633 -14q-234 0 -379 156.5t-145 412.5q0 172 59.5 333.5t163 285.5t257 199t329.5 75q225 0 350 -121t139 -323l-111 -27q-16 172 -116 272.5t-283 100.5q-120 0 -227 -43.5t-187 -119t-139 -174.5t-89 -212t-30 -228q0 -217 117.5 -353t316.5 -136q135 0 256.5 64
t210.5 188t121 287h-377l37 94h463l-127 -717h-100l57 326q-96 -156 -245 -248t-322 -92zM518 -436l12 67q38 0 55 25t27 80h-57l29 162h116l-28 -162q-32 -172 -154 -172z" />
    <glyph glyph-name="uni0123" unicode="&#x123;" horiz-adv-x="1128" 
d="M399 -424q-179 0 -277.5 85.5t-103.5 238.5l99 26q5 -126 81 -193t218 -67q148 0 245.5 86t124.5 248l52 291q-69 -138 -182.5 -221.5t-252.5 -83.5q-165 0 -261.5 103.5t-96.5 285.5q0 127 41 248t111 213t170.5 148t212.5 56q142 0 228 -84.5t107 -226.5l54 297h104
l-178 -1022q-38 -209 -167 -318.5t-329 -109.5zM158 395q0 -155 71 -237t205 -82q120 0 223.5 80.5t160 203t56.5 250.5q0 151 -79 245.5t-203 94.5q-128 0 -229.5 -83t-153 -208.5t-51.5 -263.5zM590 1145l31 162q31 172 151 172l-10 -68q-38 0 -56.5 -24.5t-27.5 -79.5h57
l-28 -162h-117z" />
    <glyph glyph-name="Hcircumflex" unicode="&#x124;" horiz-adv-x="1341" 
d="M975 0l123 698h-789l-123 -698h-110l252 1434h110l-112 -641h788l113 641h110l-252 -1434h-110zM621 1552l225 236h115l141 -236h-107l-98 174l-162 -174h-114z" />
    <glyph glyph-name="hcircumflex" unicode="&#x125;" horiz-adv-x="1073" 
d="M55 0l252 1434h107l-121 -686q78 131 196.5 211.5t260.5 80.5q132 0 194.5 -85.5t32.5 -258.5l-123 -696h-106l120 690q23 137 -23.5 199.5t-144.5 62.5q-100 0 -194.5 -63.5t-159 -161t-94.5 -209.5l-90 -518h-107zM127 1491l225 235h115l141 -235h-106l-99 174
l-161 -174h-115z" />
    <glyph glyph-name="Hbar" unicode="&#x126;" horiz-adv-x="1359" 
d="M162 1106l14 84h109l43 244h110l-43 -244h789l43 244h110l-43 -244h127l-14 -84h-127l-195 -1106h-110l123 698h-789l-123 -698h-110l194 1106h-108zM326 793h788l55 313h-788z" />
    <glyph glyph-name="hbar" unicode="&#x127;" horiz-adv-x="1089" 
d="M70 0l211 1204h-146l15 82h145l27 148h106l-27 -148h320l-12 -82h-322l-80 -456q78 131 196.5 211.5t260.5 80.5q132 0 194.5 -85.5t32.5 -258.5l-123 -696h-106l121 690q23 137 -23.5 199.5t-144.5 62.5q-100 0 -194.5 -63.5t-159.5 -161t-95 -209.5l-90 -518h-106z" />
    <glyph glyph-name="Itilde" unicode="&#x128;" horiz-adv-x="442" 
d="M76 0l252 1434h110l-252 -1434h-110zM150 1597q48 158 172 158q38 0 70 -17t50 -37t45 -37t56 -17q64 0 86 104l69 -29q-37 -155 -157 -155q-38 0 -71.5 17t-53 37t-46.5 37t-53 17q-31 0 -54.5 -25t-41.5 -81z" />
    <glyph glyph-name="itilde" unicode="&#x129;" horiz-adv-x="395" 
d="M53 0l183 1026h106l-182 -1026h-107zM55 1190q48 158 172 158q38 0 70 -17t50.5 -37.5t45.5 -37.5t56 -17q64 0 86 104l69 -28q-37 -156 -158 -156q-38 0 -71 17t-53 37.5t-46.5 37.5t-52.5 17q-61 0 -96 -107z" />
    <glyph glyph-name="Imacron" unicode="&#x12a;" horiz-adv-x="442" 
d="M76 0l252 1434h110l-252 -1434h-110zM186 1606l15 80h461l-17 -80h-459z" />
    <glyph glyph-name="imacron" unicode="&#x12b;" horiz-adv-x="395" 
d="M53 0l183 1026h106l-182 -1026h-107zM92 1198l14 80h461l-16 -80h-459z" />
    <glyph glyph-name="Iogonek" unicode="&#x12e;" horiz-adv-x="442" 
d="M76 0l252 1434h110l-252 -1434h-18q-129 -113 -129 -205q0 -40 26 -64t70 -24q29 0 62 10l22 -65q-51 -33 -117 -33q-67 0 -107 36.5t-40 100.5q0 67 33.5 124.5t97.5 119.5h-10z" />
    <glyph glyph-name="iogonek" unicode="&#x12f;" horiz-adv-x="395" 
d="M53 0l183 1026h106l-182 -1026h-25q-129 -113 -129 -205q0 -40 26 -64t70 -24q29 0 62 10l22 -65q-51 -33 -116 -33q-67 0 -107.5 36.5t-40.5 100.5q0 67 33.5 124.5t97.5 119.5zM252 1180l29 182h116l-28 -182h-117z" />
    <glyph glyph-name="Idotaccent" unicode="&#x130;" horiz-adv-x="442" 
d="M76 0l252 1434h110l-252 -1434h-110zM346 1587l29 182h117l-29 -182h-117z" />
    <glyph glyph-name="dotlessi" unicode="&#x131;" horiz-adv-x="395" 
d="M53 0l183 1026h106l-182 -1026h-107z" />
    <glyph glyph-name="Jcircumflex" unicode="&#x134;" horiz-adv-x="1040" 
d="M395 -14q-187 0 -285 107t-79 292l106 29q-20 -154 52 -242t219 -88q136 0 227.5 85t120.5 243l178 1022h110l-180 -1026q-35 -201 -159.5 -311.5t-309.5 -110.5zM762 1552l225 236h115l141 -236h-106l-99 174l-161 -174h-115z" />
    <glyph glyph-name="jcircumflex" unicode="&#x135;" horiz-adv-x="397" 
d="M-225 -410l14 93h64q82 0 121 39t57 128l207 1176h104l-207 -1186q-45 -250 -293 -250h-67zM63 1145l226 235h114l142 -235h-107l-98 174l-162 -174h-115z" />
    <glyph glyph-name="uni0136" unicode="&#x136;" horiz-adv-x="1187" 
d="M76 0l252 1434h110l-155 -887l880 887h131l-637 -643l416 -791h-117l-374 715l-328 -332l-68 -383h-110zM406 -436l12 67q38 0 55 25t27 80h-58l29 162h117l-29 -162q-32 -172 -153 -172z" />
    <glyph glyph-name="uni0137" unicode="&#x137;" horiz-adv-x="911" 
d="M55 0l252 1434h107l-160 -910l604 502h139l-553 -461l373 -565h-117l-331 502l-140 -117l-67 -385h-107zM266 -436l13 67q37 0 54 24.5t27 80.5h-57l29 162h117l-29 -162q-32 -172 -154 -172z" />
    <glyph glyph-name="kgreenlandic" unicode="&#x138;" horiz-adv-x="909" 
d="M53 0l183 1026h106l-90 -504l606 502h139l-553 -459l373 -565h-123l-329 500l-138 -113l-67 -387h-107z" />
    <glyph glyph-name="Lacute" unicode="&#x139;" horiz-adv-x="964" 
d="M76 0l252 1434h110l-235 -1338h667l-16 -96h-778zM311 1550l148 236h123l-179 -236h-92z" />
    <glyph glyph-name="lacute" unicode="&#x13a;" horiz-adv-x="395" 
d="M55 0l252 1434h107l-252 -1434h-107zM291 1552l147 236h123l-178 -236h-92z" />
    <glyph glyph-name="uni013B" unicode="&#x13b;" horiz-adv-x="964" 
d="M76 0l252 1434h110l-235 -1338h667l-16 -96h-778zM348 -436l12 67q38 0 55 25t27 80h-57l29 162h116l-28 -162q-32 -172 -154 -172z" />
    <glyph glyph-name="uni013C" unicode="&#x13c;" horiz-adv-x="395" 
d="M55 0l252 1434h107l-252 -1434h-107zM-31 -436l13 67q37 0 54 24.5t27 80.5h-57l29 162h117l-29 -162q-32 -172 -154 -172z" />
    <glyph glyph-name="Lcaron" unicode="&#x13d;" horiz-adv-x="964" 
d="M76 0l252 1434h110l-235 -1338h667l-16 -96h-778zM672 1079l125 355h108l-153 -355h-80z" />
    <glyph glyph-name="lcaron" unicode="&#x13e;" horiz-adv-x="366" 
d="M55 0l252 1434h107l-252 -1434h-107zM432 1079l125 355h109l-154 -355h-80z" />
    <glyph glyph-name="Lslash" unicode="&#x141;" horiz-adv-x="976" 
d="M-2 604l16 88l207 72l119 670h111l-111 -631l365 125l-17 -88l-364 -125l-109 -619h668l-17 -96h-778l119 676z" />
    <glyph glyph-name="lslash" unicode="&#x142;" horiz-adv-x="399" 
d="M-33 598l17 90l211 94l114 652h107l-107 -600l207 90l-16 -90l-205 -91l-131 -743h-107l121 692z" />
    <glyph glyph-name="Nacute" unicode="&#x143;" horiz-adv-x="1421" 
d="M76 0l252 1434h135l620 -1274l226 1274h108l-252 -1434h-121l-632 1300l-228 -1300h-108zM795 1552l147 236h123l-178 -236h-92z" />
    <glyph glyph-name="nacute" unicode="&#x144;" horiz-adv-x="1073" 
d="M53 0l183 1026h106l-49 -281q78 133 196.5 214t260.5 81q132 0 194.5 -85.5t32.5 -258.5l-123 -696h-106l120 690q23 137 -23.5 199.5t-144.5 62.5q-102 0 -197.5 -66t-160 -166.5t-92.5 -213.5l-90 -506h-107zM608 1145l148 235h123l-179 -235h-92z" />
    <glyph glyph-name="uni0145" unicode="&#x145;" horiz-adv-x="1421" 
d="M76 0l252 1434h135l620 -1274l226 1274h108l-252 -1434h-121l-632 1300l-228 -1300h-108zM473 -436l12 67q38 0 55 25t27 80h-57l29 162h116l-28 -162q-32 -172 -154 -172z" />
    <glyph glyph-name="uni0146" unicode="&#x146;" horiz-adv-x="1073" 
d="M53 0l183 1026h106l-49 -281q78 133 196.5 214t260.5 81q132 0 194.5 -85.5t32.5 -258.5l-123 -696h-106l120 690q23 137 -23.5 199.5t-144.5 62.5q-102 0 -197.5 -66t-160 -166.5t-92.5 -213.5l-90 -506h-107zM313 -436l13 67q38 0 55 25t27 80h-58l29 162h117l-29 -162
q-32 -172 -154 -172z" />
    <glyph glyph-name="Ncaron" unicode="&#x147;" horiz-adv-x="1421" 
d="M76 0l252 1434h135l620 -1274l226 1274h108l-252 -1434h-121l-632 1300l-228 -1300h-108zM692 1786h107l98 -172l160 172h117l-226 -234h-114z" />
    <glyph glyph-name="ncaron" unicode="&#x148;" horiz-adv-x="1073" 
d="M53 0l183 1026h106l-49 -281q78 133 196.5 214t260.5 81q132 0 194.5 -85.5t32.5 -258.5l-123 -696h-106l120 690q23 137 -23.5 199.5t-144.5 62.5q-102 0 -197.5 -66t-160 -166.5t-92.5 -213.5l-90 -506h-107zM506 1378h106l99 -172l159 172h117l-225 -233h-115z" />
    <glyph glyph-name="Eng" unicode="&#x14a;" horiz-adv-x="1421" 
d="M727 -424l16 102h27q124 0 186.5 58.5t90.5 216.5l6 33l-641 1317l-228 -1303h-108l252 1434h135l620 -1272l226 1272h108l-262 -1473q-20 -113 -51.5 -187.5t-81.5 -118.5t-113 -61.5t-153 -17.5h-29z" />
    <glyph glyph-name="eng" unicode="&#x14b;" horiz-adv-x="1073" 
d="M53 0l183 1026h106l-57 -324q80 145 204.5 241.5t266.5 96.5q132 0 192 -85t29 -259l-146 -827q-24 -142 -100.5 -211.5t-189.5 -69.5h-23l19 95h24q61 0 104 49t60 137l143 821q25 137 -22.5 199.5t-145.5 62.5q-62 0 -123.5 -26t-112 -70.5t-94 -102t-74 -121
t-46.5 -126.5l-90 -506h-107z" />
    <glyph glyph-name="Omacron" unicode="&#x14c;" horiz-adv-x="1472" 
d="M645 -14q-249 0 -392.5 152t-143.5 409q0 135 35.5 266t105 245.5t164 201.5t221.5 137.5t268 50.5q248 0 392.5 -152.5t144.5 -408.5q0 -112 -26 -222.5t-73 -210.5t-118.5 -186t-157.5 -148.5t-194.5 -98t-225.5 -35.5zM225 563q0 -219 117.5 -349t319.5 -130
q117 0 223 45.5t184.5 123t136.5 177.5t87.5 212.5t29.5 225.5q0 220 -117.5 351t-320.5 131q-119 0 -225 -45.5t-184 -123.5t-135.5 -178.5t-86.5 -213.5t-29 -226zM707 1606l14 80h461l-17 -80h-458z" />
    <glyph glyph-name="omacron" unicode="&#x14d;" horiz-adv-x="1087" 
d="M451 -14q-177 0 -287.5 110.5t-110.5 298.5q0 124 44 241.5t120 206.5t186 143t234 54q177 0 287 -110.5t110 -298.5q0 -100 -28 -196t-80.5 -176.5t-123 -142t-161.5 -96t-190 -34.5zM166 401q0 -154 82.5 -239.5t218.5 -85.5q104 0 191.5 49t144 128t88 176.5
t31.5 197.5q0 152 -81.5 237.5t-219.5 85.5q-104 0 -191.5 -48.5t-144 -127.5t-88 -176.5t-31.5 -196.5zM438 1198l15 80h460l-16 -80h-459z" />
    <glyph glyph-name="Ohungarumlaut" unicode="&#x150;" horiz-adv-x="1472" 
d="M645 -14q-249 0 -392.5 152t-143.5 409q0 135 35.5 266t105 245.5t164 201.5t221.5 137.5t268 50.5q248 0 392.5 -152.5t144.5 -408.5q0 -112 -26 -222.5t-73 -210.5t-118.5 -186t-157.5 -148.5t-194.5 -98t-225.5 -35.5zM225 563q0 -219 117.5 -349t319.5 -130
q117 0 223 45.5t184.5 123t136.5 177.5t87.5 212.5t29.5 225.5q0 220 -117.5 351t-320.5 131q-119 0 -225 -45.5t-184 -123.5t-135.5 -178.5t-86.5 -213.5t-29 -226zM735 1552l166 236h117l-195 -236h-88zM973 1552l188 236h119l-217 -236h-90z" />
    <glyph glyph-name="ohungarumlaut" unicode="&#x151;" horiz-adv-x="1087" 
d="M451 -14q-177 0 -287.5 110.5t-110.5 298.5q0 124 44 241.5t120 206.5t186 143t234 54q177 0 287 -110.5t110 -298.5q0 -100 -28 -196t-80.5 -176.5t-123 -142t-161.5 -96t-190 -34.5zM166 401q0 -154 82.5 -239.5t218.5 -85.5q104 0 191.5 49t144 128t88 176.5
t31.5 197.5q0 152 -81.5 237.5t-219.5 85.5q-104 0 -191.5 -48.5t-144 -127.5t-88 -176.5t-31.5 -196.5zM467 1145l166 235h117l-195 -235h-88zM705 1145l188 235h119l-217 -235h-90z" />
    <glyph glyph-name="OE" unicode="&#x152;" horiz-adv-x="2138" 
d="M637 -14q-245 0 -386.5 152t-141.5 409q0 135 36 266.5t105 245.5t163 201.5t219 137.5t263 50q189 0 311.5 -98.5t161.5 -274.5l64 359h821l-17 -97h-710l-96 -544h598l-17 -95h-598l-106 -602h710l-16 -96h-821l63 360q-100 -172 -255.5 -273t-350.5 -101zM225 563
q0 -219 117.5 -349t319.5 -130q117 0 222.5 45t184 122.5t135.5 176t88 211.5l29 162q2 23 2 67q0 220 -117.5 351t-320.5 131q-119 0 -225 -45.5t-184 -123.5t-135.5 -178.5t-86.5 -213.5t-29 -226z" />
    <glyph glyph-name="oe" unicode="&#x153;" horiz-adv-x="1904" 
d="M451 -14q-177 0 -287.5 110t-110.5 297q0 124 44 241.5t120 206.5t186 143t234 54q142 0 242.5 -78t132.5 -215q71 133 194.5 213t274.5 80q171 0 268.5 -97.5t97.5 -256.5q0 -93 -26 -164h-793q-10 -54 -7.5 -107.5t11 -102.5t33 -91.5t59.5 -73.5t89.5 -49t123.5 -18
q123 0 214.5 69.5t150.5 174.5l92 -29q-63 -127 -187 -216t-278 -89q-162 0 -267 76.5t-134 220.5q-76 -136 -201 -217.5t-276 -81.5zM166 399q0 -152 82.5 -237.5t218.5 -85.5q104 0 192 48.5t144.5 128t87.5 176t31 196.5q0 153 -82 238t-219 85q-104 0 -191.5 -48.5
t-144 -127.5t-88 -176.5t-31.5 -196.5zM1047 592h684q27 154 -46 256t-223 102q-151 0 -260.5 -100.5t-154.5 -257.5z" />
    <glyph glyph-name="Racute" unicode="&#x154;" horiz-adv-x="1173" 
d="M76 0l252 1434h438q195 0 304.5 -85t109.5 -241q0 -97 -35 -183.5t-91.5 -147t-124 -100.5t-136.5 -54l239 -623h-112l-230 598h-399l-105 -598h-110zM309 694h359q173 0 283 114t110 275q0 123 -87 188.5t-247 65.5h-305zM653 1552l148 236h123l-179 -236h-92z" />
    <glyph glyph-name="racute" unicode="&#x155;" horiz-adv-x="610" 
d="M53 0l183 1026h106l-45 -254q66 124 164.5 196t212.5 72h4l-19 -110q-144 0 -255 -103.5t-148 -287.5l-96 -539h-107zM395 1145l148 235h123l-179 -235h-92z" />
    <glyph glyph-name="uni0156" unicode="&#x156;" horiz-adv-x="1173" 
d="M76 0l252 1434h438q195 0 304.5 -85t109.5 -241q0 -97 -35 -183.5t-91.5 -147t-124 -100.5t-136.5 -54l239 -623h-112l-230 598h-399l-105 -598h-110zM309 694h359q173 0 283 114t110 275q0 123 -87 188.5t-247 65.5h-305zM356 -436l13 67q38 0 55 25t27 80h-58l29 162
h117l-29 -162q-32 -172 -154 -172z" />
    <glyph glyph-name="uni0157" unicode="&#x157;" horiz-adv-x="610" 
d="M53 0l183 1026h106l-45 -254q66 124 164.5 196t212.5 72h4l-19 -110q-144 0 -255 -103.5t-148 -287.5l-96 -539h-107zM-33 -436l13 67q37 0 54 24.5t27 80.5h-57l29 162h117l-29 -162q-32 -172 -154 -172z" />
    <glyph glyph-name="Rcaron" unicode="&#x158;" horiz-adv-x="1173" 
d="M76 0l252 1434h438q195 0 304.5 -85t109.5 -241q0 -97 -35 -183.5t-91.5 -147t-124 -100.5t-136.5 -54l239 -623h-112l-230 598h-399l-105 -598h-110zM309 694h359q173 0 283 114t110 275q0 123 -87 188.5t-247 65.5h-305zM551 1786h106l99 -172l159 172h117l-225 -234
h-115z" />
    <glyph glyph-name="rcaron" unicode="&#x159;" horiz-adv-x="610" 
d="M53 0l183 1026h106l-45 -254q66 124 164.5 196t212.5 72h4l-19 -110q-144 0 -255 -103.5t-148 -287.5l-96 -539h-107zM293 1378h106l99 -172l159 172h117l-225 -233h-115z" />
    <glyph glyph-name="Sacute" unicode="&#x15a;" horiz-adv-x="1144" 
d="M545 -10q-114 0 -210 32.5t-159.5 88.5t-100 130t-38.5 158l104 29q5 -152 117 -248t299 -96q95 0 180.5 34.5t143 107t57.5 169.5q0 102 -60 164.5t-180 102.5l-192 67q-73 25 -123 50t-93 61.5t-64 87t-21 116.5q0 119 69.5 213t179 142.5t234.5 48.5q110 0 196 -27.5
t139.5 -75.5t84 -104.5t41.5 -122.5l-107 -26q-51 260 -378 260q-135 0 -240 -83t-105 -204q0 -49 15 -86.5t48 -65t71.5 -46.5t97.5 -40l205 -73q141 -49 218 -127.5t77 -208.5q0 -102 -43 -185t-114.5 -135t-161 -80t-187.5 -28zM637 1550l147 236h123l-178 -236h-92z" />
    <glyph glyph-name="sacute" unicode="&#x15b;" horiz-adv-x="913" 
d="M408 -14q-181 0 -284.5 86t-119.5 215l100 26q10 -51 29.5 -90.5t55 -74t94 -53.5t137.5 -19q131 0 208 59.5t77 153.5q0 76 -46.5 114t-146.5 66l-154 39q-114 31 -171.5 83t-57.5 154q0 127 110 211t277 84q159 0 249 -74.5t109 -189.5l-98 -26q-15 91 -82 146.5
t-192 55.5q-118 0 -194.5 -53t-76.5 -143q0 -65 40.5 -101.5t129.5 -60.5l168 -45q123 -33 181.5 -86.5t58.5 -155.5q0 -140 -107 -230.5t-294 -90.5zM475 1145l148 235h122l-178 -235h-92z" />
    <glyph glyph-name="Scircumflex" unicode="&#x15c;" horiz-adv-x="1144" 
d="M545 -10q-114 0 -210 32.5t-159.5 88.5t-100 130t-38.5 158l104 29q5 -152 117 -248t299 -96q95 0 180.5 34.5t143 107t57.5 169.5q0 102 -60 164.5t-180 102.5l-192 67q-73 25 -123 50t-93 61.5t-64 87t-21 116.5q0 119 69.5 213t179 142.5t234.5 48.5q110 0 196 -27.5
t139.5 -75.5t84 -104.5t41.5 -122.5l-107 -26q-51 260 -378 260q-135 0 -240 -83t-105 -204q0 -49 15 -86.5t48 -65t71.5 -46.5t97.5 -40l205 -73q141 -49 218 -127.5t77 -208.5q0 -102 -43 -185t-114.5 -135t-161 -80t-187.5 -28zM481 1550l226 236h114l142 -236h-107
l-98 174l-162 -174h-115z" />
    <glyph glyph-name="scircumflex" unicode="&#x15d;" horiz-adv-x="913" 
d="M408 -14q-181 0 -284.5 86t-119.5 215l100 26q10 -51 29.5 -90.5t55 -74t94 -53.5t137.5 -19q131 0 208 59.5t77 153.5q0 76 -46.5 114t-146.5 66l-154 39q-114 31 -171.5 83t-57.5 154q0 127 110 211t277 84q159 0 249 -74.5t109 -189.5l-98 -26q-15 91 -82 146.5
t-192 55.5q-118 0 -194.5 -53t-76.5 -143q0 -65 40.5 -101.5t129.5 -60.5l168 -45q123 -33 181.5 -86.5t58.5 -155.5q0 -140 -107 -230.5t-294 -90.5zM322 1145l225 235h115l141 -235h-107l-98 174l-162 -174h-114z" />
    <glyph glyph-name="Scedilla" unicode="&#x15e;" horiz-adv-x="1144" 
d="M434 -389q-106 0 -168 96l58 45q29 -36 57.5 -50.5t67.5 -14.5q38 0 65.5 21.5t34.5 58.5q5 42 -34.5 66t-133.5 24l10 55l80 82q-196 20 -312.5 133.5t-121.5 271.5l104 29q5 -152 117 -248t299 -96q95 0 180.5 34.5t143 107t57.5 169.5q0 102 -60 164.5t-180 102.5
l-192 67q-73 25 -123 50t-93 61.5t-64 87t-21 116.5q0 119 69.5 213t179 142.5t234.5 48.5q110 0 196 -27.5t139.5 -75.5t84 -104.5t41.5 -122.5l-107 -26q-51 260 -378 260q-135 0 -240 -83t-105 -204q0 -49 15 -86.5t48 -65t71.5 -46.5t97.5 -40l205 -73
q141 -49 218 -127.5t77 -208.5q0 -100 -42 -182t-112 -134.5t-158 -81t-184 -30.5l-72 -90q64 -2 110 -32t46 -87q0 -69 -62 -119.5t-143 -50.5z" />
    <glyph glyph-name="scedilla" unicode="&#x15f;" horiz-adv-x="913" 
d="M326 -389q-106 0 -168 96l57 45q29 -36 57.5 -50.5t67.5 -14.5q38 0 65.5 21.5t34.5 58.5q5 42 -34.5 66t-133.5 24l11 55l73 76q-157 13 -247.5 97t-104.5 202l100 26q10 -51 29.5 -90.5t55 -74t94 -53.5t137.5 -19q131 0 208 59.5t77 153.5q0 76 -46.5 114t-146.5 66
l-154 39q-114 31 -171.5 83t-57.5 154q0 127 110 211t277 84q159 0 249 -74.5t109 -189.5l-98 -26q-15 91 -82 146.5t-192 55.5q-118 0 -194.5 -53t-76.5 -143q0 -65 40.5 -101.5t129.5 -60.5l168 -45q123 -33 181.5 -86.5t58.5 -155.5q0 -133 -97 -222t-270 -99l-67 -86
q64 -2 109.5 -32t45.5 -87q0 -70 -61.5 -120t-142.5 -50z" />
    <glyph glyph-name="Scaron" unicode="&#x160;" horiz-adv-x="1144" 
d="M545 -10q-114 0 -210 32.5t-159.5 88.5t-100 130t-38.5 158l104 29q5 -152 117 -248t299 -96q95 0 180.5 34.5t143 107t57.5 169.5q0 102 -60 164.5t-180 102.5l-192 67q-73 25 -123 50t-93 61.5t-64 87t-21 116.5q0 119 69.5 213t179 142.5t234.5 48.5q110 0 196 -27.5
t139.5 -75.5t84 -104.5t41.5 -122.5l-107 -26q-51 260 -378 260q-135 0 -240 -83t-105 -204q0 -49 15 -86.5t48 -65t71.5 -46.5t97.5 -40l205 -73q141 -49 218 -127.5t77 -208.5q0 -102 -43 -185t-114.5 -135t-161 -80t-187.5 -28zM532 1784h107l98 -172l160 172h117
l-226 -234h-114z" />
    <glyph glyph-name="scaron" unicode="&#x161;" horiz-adv-x="913" 
d="M408 -14q-181 0 -284.5 86t-119.5 215l100 26q10 -51 29.5 -90.5t55 -74t94 -53.5t137.5 -19q131 0 208 59.5t77 153.5q0 76 -46.5 114t-146.5 66l-154 39q-114 31 -171.5 83t-57.5 154q0 127 110 211t277 84q159 0 249 -74.5t109 -189.5l-98 -26q-15 91 -82 146.5
t-192 55.5q-118 0 -194.5 -53t-76.5 -143q0 -65 40.5 -101.5t129.5 -60.5l168 -45q123 -33 181.5 -86.5t58.5 -155.5q0 -140 -107 -230.5t-294 -90.5zM373 1378h106l99 -172l159 172h117l-225 -233h-115z" />
    <glyph glyph-name="uni0162" unicode="&#x162;" horiz-adv-x="1150" 
d="M430 0l236 1337h-484l19 97h1073l-17 -97h-481l-235 -1337h-17l-78 -100q64 -2 110 -32t46 -87q0 -69 -62 -119.5t-143 -50.5q-106 0 -168 96l58 45q29 -36 57.5 -50.5t67.5 -14.5q38 0 65.5 21.5t34.5 58.5q5 42 -34.5 66t-133.5 24l10 55l86 88h-10z" />
    <glyph glyph-name="uni0163" unicode="&#x163;" horiz-adv-x="552" 
d="M109 938l16 88h127l39 221l119 66l-52 -287h258l-14 -88h-258l-121 -678q-14 -78 17 -123t100 -45h113l-17 -92h-76l-77 -100q64 -2 109.5 -32t45.5 -87q0 -69 -62 -119.5t-143 -50.5q-105 0 -167 96l57 45q29 -36 57.5 -50.5t67.5 -14.5q38 0 65.5 21.5t34.5 58.5
q5 42 -34.5 66t-133.5 24l10 55l89 90q-96 12 -139.5 77.5t-24.5 170.5l121 688h-127z" />
    <glyph glyph-name="Tcaron" unicode="&#x164;" horiz-adv-x="1150" 
d="M430 0l236 1337h-484l19 97h1073l-17 -97h-481l-235 -1337h-111zM559 1786h107l98 -172l160 172h116l-225 -234h-115z" />
    <glyph glyph-name="tcaron" unicode="&#x165;" horiz-adv-x="552" 
d="M319 0q-116 0 -170 66.5t-34 183.5l121 688h-127l16 88h127l39 221l119 66l-52 -287h258l-14 -88h-258l-121 -678q-14 -78 17 -123t100 -45h113l-17 -92h-117zM510 1094l125 354h108l-153 -354h-80z" />
    <glyph glyph-name="Tbar" unicode="&#x166;" horiz-adv-x="1150" 
d="M430 0l113 641h-287l14 84h287l109 612h-484l19 97h1073l-17 -97h-481l-108 -612h307l-14 -84h-308l-112 -641h-111z" />
    <glyph glyph-name="tbar" unicode="&#x167;" horiz-adv-x="552" 
d="M61 637l13 76h123l39 225h-127l16 88h127l39 221l119 66l-52 -287h258l-14 -88h-258l-41 -225h240l-13 -76h-239l-68 -377q-14 -78 17 -123t100 -45h113l-17 -92h-117q-116 0 -170 66.5t-34 183.5l67 387h-121z" />
    <glyph glyph-name="Utilde" unicode="&#x168;" horiz-adv-x="1417" 
d="M616 -14q-264 0 -382 144.5t-72 408.5l157 895h111l-158 -895q-39 -230 54 -342.5t307 -112.5q213 0 348.5 118t173.5 337l156 895h110l-157 -895q-46 -266 -214.5 -409.5t-433.5 -143.5zM649 1597q48 158 172 158q38 0 70 -17t50 -37t45 -37t56 -17q64 0 86 104l70 -29
q-37 -155 -158 -155q-38 0 -71 17t-53 37t-46.5 37t-52.5 17q-31 0 -54.5 -25t-41.5 -81z" />
    <glyph glyph-name="utilde" unicode="&#x169;" horiz-adv-x="1073" 
d="M1020 1026l-182 -1026h-107l49 281q-78 -133 -196 -214t-260 -81q-132 0 -195 85.5t-33 258.5l123 696h107l-121 -690q-23 -137 23.5 -199.5t144.5 -62.5q102 0 197.5 66t160 166.5t92.5 213.5l90 506h107zM430 1190q48 158 172 158q38 0 70 -17t50 -37.5t45 -37.5
t56 -17q64 0 86 104l70 -28q-37 -156 -158 -156q-38 0 -71 17t-53 37.5t-46.5 37.5t-52.5 17q-61 0 -96 -107z" />
    <glyph glyph-name="Umacron" unicode="&#x16a;" horiz-adv-x="1417" 
d="M616 -14q-264 0 -382 144.5t-72 408.5l157 895h111l-158 -895q-39 -230 54 -342.5t307 -112.5q213 0 348.5 118t173.5 337l156 895h110l-157 -895q-46 -266 -214.5 -409.5t-433.5 -143.5zM688 1606l14 80h461l-16 -80h-459z" />
    <glyph glyph-name="umacron" unicode="&#x16b;" horiz-adv-x="1073" 
d="M1020 1026l-182 -1026h-107l49 281q-78 -133 -196 -214t-260 -81q-132 0 -195 85.5t-33 258.5l123 696h107l-121 -690q-23 -137 23.5 -199.5t144.5 -62.5q102 0 197.5 66t160 166.5t92.5 213.5l90 506h107zM469 1198l14 80h461l-16 -80h-459z" />
    <glyph glyph-name="Ubreve" unicode="&#x16c;" horiz-adv-x="1417" 
d="M616 -14q-264 0 -382 144.5t-72 408.5l157 895h111l-158 -895q-39 -230 54 -342.5t307 -112.5q213 0 348.5 118t173.5 337l156 895h110l-157 -895q-46 -266 -214.5 -409.5t-433.5 -143.5zM705 1790h88q-13 -83 19 -131.5t101 -48.5q68 0 118 49t63 131h88
q-20 -118 -97 -188t-186 -70t-161.5 70t-32.5 188z" />
    <glyph glyph-name="ubreve" unicode="&#x16d;" horiz-adv-x="1073" 
d="M1020 1026l-182 -1026h-107l49 281q-78 -133 -196 -214t-260 -81q-132 0 -195 85.5t-33 258.5l123 696h107l-121 -690q-23 -137 23.5 -199.5t144.5 -62.5q102 0 197.5 66t160 166.5t92.5 213.5l90 506h107zM485 1382h88q-13 -83 19.5 -131.5t101.5 -48.5q68 0 117.5 48.5
t62.5 131.5h89q-20 -118 -97 -188t-186 -70t-162 70t-33 188z" />
    <glyph glyph-name="Uring" unicode="&#x16e;" horiz-adv-x="1417" 
d="M616 -14q-264 0 -382 144.5t-72 408.5l157 895h111l-158 -895q-39 -230 54 -342.5t307 -112.5q213 0 348.5 118t173.5 337l156 895h110l-157 -895q-46 -266 -214.5 -409.5t-433.5 -143.5zM770 1642q0 75 49.5 128t132.5 53q62 0 95.5 -30t33.5 -85q0 -81 -50.5 -131.5
t-129.5 -50.5q-63 0 -97 31t-34 85zM842 1655q0 -30 18.5 -48t50.5 -18q43 0 70 31.5t27 77.5q0 28 -17 44.5t-49 16.5q-44 0 -72 -29.5t-28 -74.5z" />
    <glyph glyph-name="uring" unicode="&#x16f;" horiz-adv-x="1073" 
d="M1020 1026l-182 -1026h-107l49 281q-78 -133 -196 -214t-260 -81q-132 0 -195 85.5t-33 258.5l123 696h107l-121 -690q-23 -137 23.5 -199.5t144.5 -62.5q102 0 197.5 66t160 166.5t92.5 213.5l90 506h107zM551 1235q0 75 49.5 127.5t132.5 52.5q62 0 95.5 -30t33.5 -85
q0 -81 -50.5 -131.5t-129.5 -50.5q-62 0 -96.5 31t-34.5 86zM623 1247q0 -30 18.5 -47.5t50.5 -17.5q43 0 69.5 31t26.5 77q0 28 -17 45t-48 17q-44 0 -72 -30t-28 -75z" />
    <glyph glyph-name="Uhungarumlaut" unicode="&#x170;" horiz-adv-x="1417" 
d="M616 -14q-264 0 -382 144.5t-72 408.5l157 895h111l-158 -895q-39 -230 54 -342.5t307 -112.5q213 0 348.5 118t173.5 337l156 895h110l-157 -895q-46 -266 -214.5 -409.5t-433.5 -143.5zM717 1552l166 236h116l-194 -236h-88zM954 1552l189 236h119l-218 -236h-90z" />
    <glyph glyph-name="uhungarumlaut" unicode="&#x171;" horiz-adv-x="1073" 
d="M1020 1026l-182 -1026h-107l49 281q-78 -133 -196 -214t-260 -81q-132 0 -195 85.5t-33 258.5l123 696h107l-121 -690q-23 -137 23.5 -199.5t144.5 -62.5q102 0 197.5 66t160 166.5t92.5 213.5l90 506h107zM498 1145l166 235h116l-194 -235h-88zM735 1145l189 235h118
l-217 -235h-90z" />
    <glyph glyph-name="Uogonek" unicode="&#x172;" horiz-adv-x="1417" 
d="M616 -14q-264 0 -382 144.5t-72 408.5l157 895h111l-158 -895q-39 -230 54 -342.5t307 -112.5q213 0 348.5 118t173.5 337l156 895h110l-157 -895q-30 -181 -120 -306.5t-231 -189.5q-127 -115 -127 -203q0 -40 26.5 -64t70.5 -24q28 0 61 10l23 -65q-51 -33 -117 -33
q-67 0 -107.5 36.5t-40.5 100.5q0 100 93 203q-83 -18 -179 -18z" />
    <glyph glyph-name="uogonek" unicode="&#x173;" horiz-adv-x="1073" 
d="M1020 1026l-182 -1026h16q-129 -113 -129 -205q0 -40 26 -64t70 -24q29 0 62 10l22 -65q-51 -33 -117 -33q-67 0 -107 36.5t-40 100.5q0 67 33.5 124.5t97.5 119.5h-41l49 281q-78 -133 -196 -214t-260 -81q-132 0 -195 85.5t-33 258.5l123 696h107l-121 -690
q-23 -137 23.5 -199.5t144.5 -62.5q102 0 197.5 66t160 166.5t92.5 213.5l90 506h107z" />
    <glyph glyph-name="Wcircumflex" unicode="&#x174;" horiz-adv-x="1849" 
d="M352 0l-155 1434h104l139 -1274l602 1274h107l162 -1266l555 1266h110l-628 -1434h-113l-164 1286l-604 -1286h-115zM866 1552l226 236h114l142 -236h-107l-98 174l-162 -174h-115z" />
    <glyph glyph-name="wcircumflex" unicode="&#x175;" horiz-adv-x="1368" 
d="M231 0l-118 1026h96l100 -881l412 881h98l101 -881l413 881h105l-484 -1026h-102l-104 885l-414 -885h-103zM545 1145l225 235h115l141 -235h-106l-99 174l-162 -174h-114z" />
    <glyph glyph-name="Ycircumflex" unicode="&#x176;" horiz-adv-x="1048" 
d="M498 678l-328 756h115l282 -658l514 658h121l-594 -756l-119 -678h-110zM461 1552l225 236h115l141 -236h-106l-99 174l-162 -174h-114z" />
    <glyph glyph-name="ycircumflex" unicode="&#x177;" horiz-adv-x="915" 
d="M-76 -410l15 93h86q73 0 120 32t84 99l95 172l-228 1040h99l198 -911l498 911h108l-659 -1204q-27 -49 -49.5 -82.5t-52.5 -63.5t-63.5 -48t-78 -28t-100.5 -10h-72zM328 1145l225 235h115l141 -235h-107l-98 174l-162 -174h-114z" />
    <glyph glyph-name="Ydieresis" unicode="&#x178;" horiz-adv-x="1048" 
d="M498 678l-328 756h115l282 -658l514 658h121l-594 -756l-119 -678h-110zM518 1587l31 182h102l-30 -182h-103zM788 1587l31 182h103l-31 -182h-103z" />
    <glyph glyph-name="Zacute" unicode="&#x179;" horiz-adv-x="1150" 
d="M-35 96l1145 1241h-911l16 97h1045l-17 -97l-1145 -1241h942l-16 -96h-1075zM662 1552l147 236h123l-178 -236h-92z" />
    <glyph glyph-name="zacute" unicode="&#x17a;" horiz-adv-x="821" 
d="M-61 0l14 88l778 850h-610l14 88h735l-14 -86l-778 -852h639l-17 -88h-761zM446 1145l148 235h123l-178 -235h-93z" />
    <glyph glyph-name="Zdotaccent" unicode="&#x17b;" horiz-adv-x="1150" 
d="M-35 96l1145 1241h-911l16 97h1045l-17 -97l-1145 -1241h942l-16 -96h-1075zM696 1587l29 182h117l-29 -182h-117z" />
    <glyph glyph-name="zdotaccent" unicode="&#x17c;" horiz-adv-x="821" 
d="M-61 0l14 88l778 850h-610l14 88h735l-14 -86l-778 -852h639l-17 -88h-761zM483 1180l29 182h117l-29 -182h-117z" />
    <glyph glyph-name="Zcaron" unicode="&#x17d;" horiz-adv-x="1150" 
d="M-35 96l1145 1241h-911l16 97h1045l-17 -97l-1145 -1241h942l-16 -96h-1075zM557 1786h107l98 -172l160 172h116l-225 -234h-115z" />
    <glyph glyph-name="zcaron" unicode="&#x17e;" horiz-adv-x="821" 
d="M-61 0l14 88l778 850h-610l14 88h735l-14 -86l-778 -852h639l-17 -88h-761zM344 1378h107l98 -172l160 172h116l-225 -233h-115z" />
    <glyph glyph-name="florin" unicode="&#x192;" horiz-adv-x="823" 
d="M-80 -109q89 0 136 18t72 54.5t54 118.5l310 860h-201l16 84h215l47 129q31 85 58.5 135t71.5 88.5t105.5 54t153.5 15.5l-16 -94q-54 0 -90 -6t-62 -17.5t-45 -36.5t-32 -53t-31 -78l-49 -137h207l-17 -84h-221l-307 -852q-31 -85 -59 -135.5t-72.5 -89t-106.5 -53.5
t-155 -15z" />
    <glyph glyph-name="uni0218" unicode="&#x218;" horiz-adv-x="1144" 
d="M545 -10q-114 0 -210 32.5t-159.5 88.5t-100 130t-38.5 158l104 29q5 -152 117 -248t299 -96q95 0 180.5 34.5t143 107t57.5 169.5q0 102 -60 164.5t-180 102.5l-192 67q-73 25 -123 50t-93 61.5t-64 87t-21 116.5q0 119 69.5 213t179 142.5t234.5 48.5q110 0 196 -27.5
t139.5 -75.5t84 -104.5t41.5 -122.5l-107 -26q-51 260 -378 260q-135 0 -240 -83t-105 -204q0 -49 15 -86.5t48 -65t71.5 -46.5t97.5 -40l205 -73q141 -49 218 -127.5t77 -208.5q0 -102 -43 -185t-114.5 -135t-161 -80t-187.5 -28zM381 -436l12 67q38 0 55 25t27 80h-57
l28 162h117l-28 -162q-32 -172 -154 -172z" />
    <glyph glyph-name="uni0219" unicode="&#x219;" horiz-adv-x="913" 
d="M408 -14q-181 0 -284.5 86t-119.5 215l100 26q10 -51 29.5 -90.5t55 -74t94 -53.5t137.5 -19q131 0 208 59.5t77 153.5q0 76 -46.5 114t-146.5 66l-154 39q-114 31 -171.5 83t-57.5 154q0 127 110 211t277 84q159 0 249 -74.5t109 -189.5l-98 -26q-15 91 -82 146.5
t-192 55.5q-118 0 -194.5 -53t-76.5 -143q0 -65 40.5 -101.5t129.5 -60.5l168 -45q123 -33 181.5 -86.5t58.5 -155.5q0 -140 -107 -230.5t-294 -90.5zM272 -436l13 67q38 0 55 25t27 80h-58l29 162h117l-29 -162q-32 -172 -154 -172z" />
    <glyph glyph-name="uni021A" unicode="&#x21a;" horiz-adv-x="1150" 
d="M430 0l236 1337h-484l19 97h1073l-17 -97h-481l-235 -1337h-111zM346 -436l12 67q38 0 55 25t27 80h-57l29 162h116l-28 -162q-32 -172 -154 -172z" />
    <glyph glyph-name="uni021B" unicode="&#x21b;" horiz-adv-x="552" 
d="M319 0q-116 0 -170 66.5t-34 183.5l121 688h-127l16 88h127l39 221l119 66l-52 -287h258l-14 -88h-258l-121 -678q-14 -78 17 -123t100 -45h113l-17 -92h-117zM180 -436l13 67q37 0 54 24.5t27 80.5h-57l29 162h116l-28 -162q-32 -172 -154 -172z" />
    <glyph glyph-name="uni0237" unicode="&#x237;" horiz-adv-x="397" 
d="M-225 -410l14 93h64q82 0 121 39t57 128l207 1176h104l-207 -1186q-45 -250 -293 -250h-67z" />
    <glyph glyph-name="circumflex" unicode="&#x2c6;" horiz-adv-x="665" 
d="M203 1145l225 235h115l141 -235h-106l-99 174l-162 -174h-114z" />
    <glyph glyph-name="caron" unicode="&#x2c7;" horiz-adv-x="667" 
d="M369 1145l-142 233h107l98 -172l160 172h117l-226 -233h-114z" />
    <glyph glyph-name="breve" unicode="&#x2d8;" horiz-adv-x="589" 
d="M403 1122q-109 0 -161.5 70t-32.5 188h88q-13 -83 19.5 -131.5t101.5 -48.5q68 0 117.5 48.5t62.5 131.5h88q-20 -118 -97 -188t-186 -70z" />
    <glyph glyph-name="dotaccent" unicode="&#x2d9;" horiz-adv-x="237" 
d="M180 1180l29 182h117l-29 -182h-117z" />
    <glyph glyph-name="ring" unicode="&#x2da;" horiz-adv-x="419" 
d="M315 1118q-62 0 -96.5 31t-34.5 86q0 75 50 127.5t133 52.5q62 0 95.5 -30t33.5 -85q0 -81 -51 -131.5t-130 -50.5zM256 1247q0 -29 19 -47t51 -18q43 0 69.5 31t26.5 77q0 28 -17 45t-49 17q-44 0 -72 -30t-28 -75z" />
    <glyph glyph-name="ogonek" unicode="&#x2db;" horiz-adv-x="364" 
d="M55 -367q-67 0 -107 37t-40 101q0 67 33.5 124t97.5 119h82q-129 -113 -129 -204q0 -40 26 -64.5t70 -24.5q25 0 62 11l22 -66q-51 -33 -117 -33z" />
    <glyph glyph-name="tilde" unicode="&#x2dc;" horiz-adv-x="731" 
d="M188 1190q48 158 172 158q38 0 70 -17t50.5 -37.5t45.5 -37.5t56 -17q64 0 86 104l69 -28q-37 -156 -157 -156q-38 0 -71.5 17t-53 37.5t-46.5 37.5t-53 17q-61 0 -96 -107z" />
    <glyph glyph-name="hungarumlaut" unicode="&#x2dd;" horiz-adv-x="573" 
d="M170 1145l166 235h117l-195 -235h-88zM408 1145l188 235h119l-217 -235h-90z" />
    <glyph glyph-name="gravecomb" unicode="&#x300;" 
d="M311 1145l-92 235h119l63 -235h-90z" />
    <glyph glyph-name="acutecomb" unicode="&#x301;" 
d="M152 1145l147 235h123l-178 -235h-92z" />
    <glyph glyph-name="uni0302" unicode="&#x302;" 
d="M203 1145l225 235h115l141 -235h-106l-99 174l-162 -174h-114z" />
    <glyph glyph-name="tildecomb" unicode="&#x303;" 
d="M188 1190q48 158 172 158q38 0 70 -17t50.5 -37.5t45.5 -37.5t56 -17q64 0 86 104l69 -28q-37 -156 -157 -156q-38 0 -71.5 17t-53 37.5t-46.5 37.5t-53 17q-61 0 -96 -107z" />
    <glyph glyph-name="uni0304" unicode="&#x304;" 
d="M178 1278h461l-16 -80h-459z" />
    <glyph glyph-name="uni0306" unicode="&#x306;" 
d="M403 1122q-109 0 -161.5 70t-32.5 188h88q-13 -83 19.5 -131.5t101.5 -48.5q68 0 117.5 48.5t62.5 131.5h88q-20 -118 -97 -188t-186 -70z" />
    <glyph glyph-name="uni0307" unicode="&#x307;" 
d="M180 1180l29 182h117l-29 -182h-117z" />
    <glyph glyph-name="uni0308" unicode="&#x308;" 
d="M176 1180l31 182h102l-30 -182h-103zM446 1180l31 182h103l-31 -182h-103z" />
    <glyph glyph-name="uni030A" unicode="&#x30a;" 
d="M315 1118q-62 0 -96.5 31t-34.5 86q0 75 50 127.5t133 52.5q62 0 95.5 -30t33.5 -85q0 -81 -51 -131.5t-130 -50.5zM256 1247q0 -29 19 -47t51 -18q43 0 69.5 31t26.5 77q0 28 -17 45t-49 17q-44 0 -72 -30t-28 -75z" />
    <glyph glyph-name="uni030B" unicode="&#x30b;" 
d="M170 1145l166 235h117l-195 -235h-88zM408 1145l188 235h119l-217 -235h-90z" />
    <glyph glyph-name="uni030C" unicode="&#x30c;" 
d="M369 1145l-142 233h107l98 -172l160 172h117l-226 -233h-114z" />
    <glyph glyph-name="uni0312" unicode="&#x312;" 
d="M201 1307q31 172 151 172l-10 -68q-38 0 -56.5 -24.5t-27.5 -79.5h57l-28 -162h-117z" />
    <glyph glyph-name="uni0326" unicode="&#x326;" 
d="M-6 -369q38 0 55 25t27 80h-58l29 162h117l-29 -162q-32 -172 -153 -172z" />
    <glyph glyph-name="uni0327" unicode="&#x327;" 
d="M51 -389q-106 0 -168 96l58 45q29 -36 57.5 -50.5t67.5 -14.5q38 0 65.5 21.5t34.5 58.5q5 42 -34.5 66t-133.5 24l10 55l109 111l65 -19l-82 -104q64 -2 110 -32t46 -87q0 -69 -62 -119.5t-143 -50.5z" />
    <glyph glyph-name="uni0328" unicode="&#x328;" 
d="M55 -367q-67 0 -107 37t-40 101q0 67 33.5 124t97.5 119h82q-129 -113 -129 -204q0 -40 26 -64.5t70 -24.5q25 0 62 11l22 -66q-51 -33 -117 -33z" />
    <glyph glyph-name="uni0335" unicode="&#x335;" 
d="M86 641l14 84h705l-14 -84h-705z" />
    <glyph glyph-name="uni0336" unicode="&#x336;" 
d="M78 641v84h913v-84h-913z" />
    <glyph glyph-name="uni0337" unicode="&#x337;" 
d="M-4 0l-53 53l948 973l53 -51z" />
    <glyph glyph-name="uni0338" unicode="&#x338;" 
d="M43 37l-57 63l1280 1291l57 -66z" />
    <glyph glyph-name="uni0394" unicode="&#x394;" horiz-adv-x="1204" 
d="M-70 0l772 1434h121l271 -1434h-1164zM90 96h868l-221 1200z" />
    <glyph glyph-name="uni03A9" unicode="&#x3a9;" horiz-adv-x="1576" 
d="M797 94q280 95 448 307.5t168 489.5q0 212 -126 335.5t-351 123.5q-125 0 -235.5 -40t-192 -110t-141 -162t-89.5 -198t-30 -217q0 -190 103 -321t282 -208l-17 -94h-606l17 94h460q-164 82 -259 219.5t-95 321.5q0 160 61 307.5t167 259.5t261 179t332 67
q273 0 425.5 -145.5t152.5 -393.5q0 -274 -159.5 -491.5t-426.5 -323.5h457l-17 -94h-606z" />
    <glyph glyph-name="uni03BC" unicode="&#x3bc;" horiz-adv-x="1085" 
d="M1032 1026l-180 -1026h-107l60 334q-75 -150 -189.5 -249t-244.5 -99q-148 0 -193 118l-90 -514h-106l254 1436h106l-127 -719q-16 -119 32.5 -176t141.5 -57q78 0 154 41.5t134 108.5t101 148t62 163l86 491h106z" />
    <glyph glyph-name="pi" unicode="&#x3c0;" horiz-adv-x="1030" 
d="M778 248q-14 -79 11.5 -116.5t95.5 -37.5h22l-18 -94h-23q-128 0 -172.5 58.5t-21.5 189.5l123 690h-406l-244 -938h-106l244 938h-142l17 88h911l-14 -88h-154z" />
    <glyph glyph-name="uni0400" unicode="&#x400;" horiz-adv-x="1032" 
d="M76 0l252 1434h821l-16 -97h-711l-96 -544h598l-17 -95h-598l-106 -602h710l-16 -96h-821zM674 1788h119l63 -236h-90z" />
    <glyph glyph-name="uni0401" unicode="&#x401;" horiz-adv-x="1032" 
d="M76 0l252 1434h821l-16 -97h-711l-96 -544h598l-17 -95h-598l-106 -602h710l-16 -96h-821zM598 1587l31 182h102l-31 -182h-102zM868 1587l31 182h102l-30 -182h-103z" />
    <glyph glyph-name="uni0402" unicode="&#x402;" horiz-adv-x="1349" 
d="M571 -287q92 -41 179 -41q105 0 167 53.5t84 184.5l109 598q24 149 -37 224t-199 75q-113 0 -231 -45.5t-205 -116.5l-112 -645h-111l236 1337h-269l19 97h917l-16 -97h-541l-106 -598q96 71 216 117.5t232 46.5q194 0 272.5 -100t45.5 -291l-107 -604
q-32 -178 -129 -255t-250 -77q-49 0 -101 10t-81 25z" />
    <glyph glyph-name="uni0403" unicode="&#x403;" horiz-adv-x="1015" 
d="M76 0l252 1434h811l-17 -97h-700l-236 -1337h-110zM686 1554l148 236h122l-178 -236h-92z" />
    <glyph glyph-name="uni0404" unicode="&#x404;" horiz-adv-x="1366" 
d="M623 -14q-244 0 -380.5 149t-136.5 400q0 137 34 269.5t101.5 248.5t160 204.5t217.5 139.5t266 51q215 0 347.5 -125.5t151.5 -333.5l-110 -28q-14 174 -122 281.5t-282 107.5q-122 0 -228.5 -47.5t-183 -129t-130 -184.5t-80.5 -221h674l-17 -96h-674q-8 -55 -8 -121
q0 -215 107 -341t303 -126t340.5 103.5t218.5 281.5l98 -29q-92 -210 -261.5 -332t-405.5 -122z" />
    <glyph glyph-name="uni0405" unicode="&#x405;" horiz-adv-x="1144" 
d="M545 -10q-114 0 -210 32.5t-159.5 88.5t-100 130t-38.5 158l104 29q5 -152 117 -248t299 -96q95 0 180.5 34.5t143 107t57.5 169.5q0 102 -60 164.5t-180 102.5l-192 67q-73 25 -123 50t-93 61.5t-64 87t-21 116.5q0 119 69.5 213t179 142.5t234.5 48.5q110 0 196 -27.5
t139.5 -75.5t84 -104.5t41.5 -122.5l-107 -26q-51 260 -378 260q-135 0 -240 -83t-105 -204q0 -49 15 -86.5t48 -65t71.5 -46.5t97.5 -40l205 -73q141 -49 218 -127.5t77 -208.5q0 -102 -43 -185t-114.5 -135t-161 -80t-187.5 -28z" />
    <glyph glyph-name="uni0406" unicode="&#x406;" horiz-adv-x="442" 
d="M76 0l252 1434h110l-252 -1434h-110z" />
    <glyph glyph-name="uni0407" unicode="&#x407;" horiz-adv-x="442" 
d="M76 0l252 1434h110l-252 -1434h-110zM213 1587l31 182h102l-31 -182h-102zM483 1587l31 182h102l-30 -182h-103z" />
    <glyph glyph-name="uni0408" unicode="&#x408;" horiz-adv-x="1040" 
d="M395 -14q-187 0 -285 107t-79 292l106 29q-20 -154 52 -242t219 -88q136 0 227.5 85t120.5 243l178 1022h110l-180 -1026q-35 -201 -159.5 -311.5t-309.5 -110.5z" />
    <glyph glyph-name="uni0409" unicode="&#x409;" horiz-adv-x="1867" 
d="M14 -14q-55 0 -92 16l17 94q42 -14 84 -14q59 0 98.5 48t60.5 151l224 1153h776l-95 -594h316q185 0 289 -90t104 -246q0 -220 -150.5 -362t-394.5 -142h-409l213 1337h-553l-209 -1058q-32 -155 -102.5 -224t-176.5 -69zM969 96h297q98 0 178 32t130.5 86t77.5 123.5
t27 147.5q0 121 -77 189.5t-216 68.5h-313z" />
    <glyph glyph-name="uni040A" unicode="&#x40a;" horiz-adv-x="1988" 
d="M963 0l114 725h-751l-115 -725h-111l228 1434h110l-96 -613h752l96 613h110l-96 -609h318q185 0 289 -88.5t104 -244.5q0 -217 -151 -354.5t-392 -137.5h-409zM1087 96h297q180 0 298 105t118 274q0 120 -78.5 187t-218.5 67h-315z" />
    <glyph glyph-name="uni040B" unicode="&#x40b;" horiz-adv-x="1402" 
d="M182 1337l19 97h917l-16 -97h-488l-106 -598q94 71 214.5 117.5t233.5 46.5q192 0 271.5 -100.5t46.5 -290.5l-90 -512h-113l90 508q26 149 -34.5 224t-198.5 75q-113 0 -231 -45.5t-205 -116.5l-113 -645h-111l236 1337h-322z" />
    <glyph glyph-name="uni040C" unicode="&#x40c;" horiz-adv-x="1200" 
d="M967 0l-367 659h-297l-117 -659h-110l252 1434h110l-119 -680h291l578 680h121l-617 -725l393 -709h-118zM696 1552l148 236h123l-179 -236h-92z" />
    <glyph glyph-name="uni040D" unicode="&#x40d;" horiz-adv-x="1361" 
d="M995 0l252 1434h111l-252 -1434h-111zM76 0l252 1434h110l-252 -1434h-110zM186 0l31 172l1030 1262l-30 -174zM748 1788h118l64 -236h-90z" />
    <glyph glyph-name="uni040E" unicode="&#x40e;" horiz-adv-x="1077" 
d="M184 -14q-51 0 -105 9.5t-81 24.5l18 103q29 -15 82 -25t99 -10q73 0 132.5 45.5t114.5 138.5l-274 1162h111l241 -1035l596 1035h113l-676 -1172q-84 -144 -170 -210t-201 -66zM541 1790h88q-13 -83 19.5 -131.5t101.5 -48.5q68 0 117.5 48.5t62.5 131.5h88
q-20 -118 -97 -188t-186 -70t-161.5 70t-32.5 188z" />
    <glyph glyph-name="uni040F" unicode="&#x40f;" horiz-adv-x="1302" 
d="M457 -256l45 256h-428l254 1434h110l-237 -1338h749l238 1338h110l-254 -1434h-442l-45 -256h-100z" />
    <glyph glyph-name="uni0410" unicode="&#x410;" horiz-adv-x="1241" 
d="M846 1434l284 -1434h-110l-82 418h-668l-229 -418h-111l789 1434h127zM324 514h596l-156 801z" />
    <glyph glyph-name="uni0411" unicode="&#x411;" horiz-adv-x="1165" 
d="M78 0l250 1434h854l-17 -97h-743l-88 -503h375q186 0 286.5 -87.5t100.5 -240.5q0 -221 -154 -363.5t-397 -142.5h-467zM205 96h354q99 0 180 32.5t132 87.5t78.5 125t27.5 146q0 119 -75 185.5t-212 66.5h-373z" />
    <glyph glyph-name="uni0412" unicode="&#x412;" horiz-adv-x="1202" 
d="M76 0l252 1434h444q192 0 284.5 -72t92.5 -203q0 -137 -86 -254t-217 -149q118 -21 190 -95.5t72 -191.5q0 -215 -161 -342t-427 -127h-444zM203 96h338q205 0 328.5 95.5t123.5 269.5q0 114 -88 175.5t-241 61.5h-355zM326 793h350q89 0 159.5 29t112 78.5t63 109
t21.5 125.5q0 202 -278 202h-332z" />
    <glyph glyph-name="uni0413" unicode="&#x413;" horiz-adv-x="1015" 
d="M76 0l252 1434h811l-17 -97h-700l-236 -1337h-110z" />
    <glyph glyph-name="uni0414" unicode="&#x414;" horiz-adv-x="1357" 
d="M49 96q127 0 168 199l242 1139h841l-235 -1338h143l-61 -342h-98l43 246h-1074l-43 -246h-98l60 342h112zM221 96h731l219 1241h-620l-223 -1040q-32 -142 -107 -201z" />
    <glyph glyph-name="uni0415" unicode="&#x415;" horiz-adv-x="1032" 
d="M76 0l252 1434h821l-16 -97h-711l-96 -544h598l-17 -95h-598l-106 -602h710l-16 -96h-821z" />
    <glyph glyph-name="uni0416" unicode="&#x416;" horiz-adv-x="1779" 
d="M1542 0l-289 659h-278l-117 -659h-110l116 659h-268l-533 -659h-129l578 711l-299 723h115l276 -680h277l118 680h111l-119 -680h266l525 680h123l-559 -725l315 -709h-119z" />
    <glyph glyph-name="uni0417" unicode="&#x417;" horiz-adv-x="1136" 
d="M487 -14q-220 0 -336.5 98.5t-125.5 271.5l104 29q11 -143 103 -222t274 -79q176 0 297 95.5t121 250.5q0 117 -89 190.5t-266 73.5h-178l41 94h156q187 0 306.5 84.5t119.5 239.5q0 107 -87.5 172.5t-228.5 65.5q-152 0 -272.5 -75.5t-165.5 -195.5l-98 29
q55 148 210 244t347 96q189 0 302.5 -84t113.5 -225q0 -150 -95.5 -255.5t-246.5 -138.5q113 -29 179 -112t66 -193q0 -137 -75.5 -242t-199.5 -158.5t-276 -53.5z" />
    <glyph glyph-name="uni0418" unicode="&#x418;" horiz-adv-x="1361" 
d="M995 0l252 1434h111l-252 -1434h-111zM76 0l252 1434h110l-252 -1434h-110zM186 0l31 172l1030 1262l-30 -174z" />
    <glyph glyph-name="uni0419" unicode="&#x419;" horiz-adv-x="1361" 
d="M995 0l252 1434h111l-252 -1434h-111zM76 0l252 1434h110l-252 -1434h-110zM186 0l31 172l1030 1262l-30 -174zM662 1790h88q-14 -83 18.5 -131.5t101.5 -48.5q68 0 118 49t63 131h88q-20 -118 -97 -188t-186 -70t-161.5 70t-32.5 188z" />
    <glyph glyph-name="uni041A" unicode="&#x41a;" horiz-adv-x="1200" 
d="M967 0l-367 659h-297l-117 -659h-110l252 1434h110l-119 -680h291l578 680h121l-617 -725l393 -709h-118z" />
    <glyph glyph-name="uni041B" unicode="&#x41b;" horiz-adv-x="1263" 
d="M14 -14q-54 0 -94 16l19 94q42 -14 84 -14q57 0 88.5 46t52.5 153l227 1153h848l-231 -1434h-111l213 1337h-625l-217 -1079q-28 -145 -91 -208.5t-163 -63.5z" />
    <glyph glyph-name="uni041C" unicode="&#x41c;" horiz-adv-x="1699" 
d="M705 0l-297 1278l-226 -1278h-106l252 1434h149l303 -1301l756 1301h160l-252 -1434h-109l230 1290l-752 -1290h-108z" />
    <glyph glyph-name="uni041D" unicode="&#x41d;" horiz-adv-x="1341" 
d="M975 0l123 698h-789l-123 -698h-110l252 1434h110l-112 -641h788l113 641h110l-252 -1434h-110z" />
    <glyph glyph-name="uni041E" unicode="&#x41e;" horiz-adv-x="1472" 
d="M645 -14q-249 0 -392.5 152t-143.5 409q0 135 35.5 266t105 245.5t164 201.5t221.5 137.5t268 50.5q248 0 392.5 -152.5t144.5 -408.5q0 -112 -26 -222.5t-73 -210.5t-118.5 -186t-157.5 -148.5t-194.5 -98t-225.5 -35.5zM225 563q0 -219 117.5 -349t319.5 -130
q117 0 223 45.5t184.5 123t136.5 177.5t87.5 212.5t29.5 225.5q0 220 -117.5 351t-320.5 131q-119 0 -225 -45.5t-184 -123.5t-135.5 -178.5t-86.5 -213.5t-29 -226z" />
    <glyph glyph-name="uni041F" unicode="&#x41f;" horiz-adv-x="1302" 
d="M936 0l235 1337h-749l-236 -1337h-110l252 1434h970l-251 -1434h-111z" />
    <glyph glyph-name="uni0420" unicode="&#x420;" horiz-adv-x="1116" 
d="M76 0l252 1434h381q207 0 328.5 -93.5t121.5 -255.5q0 -107 -39 -202t-111 -167t-181.5 -114.5t-241.5 -42.5h-301l-99 -559h-110zM301 653h287q197 0 324.5 115.5t127.5 296.5q0 128 -87.5 200t-243.5 72h-287z" />
    <glyph glyph-name="uni0421" unicode="&#x421;" horiz-adv-x="1411" 
d="M676 -14q-266 0 -416.5 153t-150.5 410q0 137 37 269.5t109 245.5t169 199.5t225 135.5t269 49q222 0 355.5 -125.5t147.5 -337.5l-108 -31q-14 180 -124.5 288t-289.5 108q-121 0 -229 -44.5t-188 -120.5t-139 -175.5t-88.5 -213t-29.5 -229.5q0 -221 121.5 -352
t341.5 -131q178 0 320 104.5t221 288.5l106 -31q-88 -206 -265.5 -333t-393.5 -127z" />
    <glyph glyph-name="uni0422" unicode="&#x422;" horiz-adv-x="1150" 
d="M430 0l236 1337h-484l19 97h1073l-17 -97h-481l-235 -1337h-111z" />
    <glyph glyph-name="uni0423" unicode="&#x423;" horiz-adv-x="1077" 
d="M184 -14q-51 0 -105 9.5t-81 24.5l18 103q29 -15 82 -25t99 -10q73 0 132.5 45.5t114.5 138.5l-274 1162h111l241 -1035l596 1035h113l-676 -1172q-84 -144 -170 -210t-201 -66z" />
    <glyph glyph-name="uni0424" unicode="&#x424;" horiz-adv-x="1497" 
d="M596 -41l41 238q-242 12 -379 132.5t-137 321.5q0 186 94.5 335.5t257.5 236.5t365 98l41 238h110l-41 -238q240 -12 377 -133t137 -322q0 -139 -54.5 -260.5t-150 -208t-227 -139t-282.5 -61.5l-41 -238h-111zM240 670q0 -166 110 -265.5t305 -111.5l164 934
q-253 -17 -416 -174t-163 -383zM766 293q163 11 294 84t207 197.5t76 277.5q0 163 -110.5 263t-302.5 112z" />
    <glyph glyph-name="uni0425" unicode="&#x425;" horiz-adv-x="1189" 
d="M930 0l-322 633l-549 -633h-125l627 725l-358 709h114l324 -639l553 639h127l-633 -732l356 -702h-114z" />
    <glyph glyph-name="uni0426" unicode="&#x426;" horiz-adv-x="1339" 
d="M438 1434l-237 -1338h749l238 1338h110l-237 -1338h129l-62 -352h-100l45 256h-999l254 1434h110z" />
    <glyph glyph-name="uni0427" unicode="&#x427;" horiz-adv-x="1222" 
d="M494 526q-192 0 -279.5 106.5t-56.5 282.5l92 519h110l-90 -512q-25 -137 44 -219t208 -82q113 0 244.5 46.5t226.5 116.5l115 650h111l-252 -1434h-113l123 690q-102 -69 -235 -116.5t-248 -47.5z" />
    <glyph glyph-name="uni0428" unicode="&#x428;" horiz-adv-x="1828" 
d="M76 0l252 1434h108l-235 -1338h585l236 1338h108l-233 -1338h584l235 1338h111l-252 -1434h-1499z" />
    <glyph glyph-name="uni0429" unicode="&#x429;" horiz-adv-x="1882" 
d="M76 0l252 1434h108l-235 -1338h585l236 1338h108l-233 -1338h584l235 1338h111l-236 -1338h142l-62 -352h-100l45 256h-1540z" />
    <glyph glyph-name="uni042A" unicode="&#x42a;" horiz-adv-x="1331" 
d="M184 1337l17 97h407l-94 -594h354q184 0 288 -90t104 -246q0 -216 -148.5 -360t-394.5 -144h-447l211 1337h-297zM395 96h334q129 0 225 55t142.5 142t46.5 192q0 121 -77 189.5t-216 68.5h-350z" />
    <glyph glyph-name="uni042B" unicode="&#x42b;" horiz-adv-x="1601" 
d="M100 0l228 1434h110l-94 -594h315q185 0 289.5 -90t104.5 -246q0 -216 -149.5 -360t-395.5 -144h-408zM225 96h297q129 0 225 55t142.5 142t46.5 192q0 120 -77.5 189t-215.5 69h-313zM1235 0l252 1434h110l-251 -1434h-111z" />
    <glyph glyph-name="uni042C" unicode="&#x42c;" horiz-adv-x="1179" 
d="M78 0l250 1434h110l-104 -594h389q184 0 285.5 -88t101.5 -244q0 -221 -155 -364.5t-398 -143.5h-479zM205 96h366q100 0 181.5 33.5t132.5 89.5t78.5 126t27.5 147q0 119 -75.5 185t-213.5 66h-385z" />
    <glyph glyph-name="uni042D" unicode="&#x42d;" horiz-adv-x="1366" 
d="M553 -14q-214 0 -348.5 125.5t-153.5 328.5l111 31q15 -174 122.5 -280.5t282.5 -106.5q99 0 188.5 31.5t158.5 86t125 129.5t94 160.5t59 180.5h-631l17 96h630q6 58 6 119q0 214 -105.5 338.5t-301.5 124.5q-195 0 -339 -104.5t-220 -282.5l-98 28q91 212 262.5 334.5
t406.5 122.5q241 0 376.5 -149.5t135.5 -399.5q0 -136 -33.5 -268.5t-100 -248.5t-158.5 -204.5t-218 -140t-268 -51.5z" />
    <glyph glyph-name="uni042E" unicode="&#x42e;" horiz-adv-x="1828" 
d="M1038 -14q-227 0 -362 146.5t-135 402.5q0 77 8 137h-244l-119 -672h-110l252 1434h110l-116 -666h245q31 138 95.5 259.5t156 216t215 149.5t262.5 55q226 0 362 -147.5t136 -403.5q0 -169 -55 -332.5t-151 -292t-240 -207.5t-310 -79zM657 549q0 -215 110 -340
t288 -125q110 0 209 46.5t172.5 126t128 181.5t82.5 216.5t28 228.5q0 217 -108 342t-289 125q-110 0 -209.5 -47t-173.5 -126.5t-128.5 -182.5t-82 -217.5t-27.5 -227.5z" />
    <glyph glyph-name="uni042F" unicode="&#x42f;" horiz-adv-x="1259" 
d="M33 -14q-62 0 -94 16l16 94q42 -14 82 -14q51 0 80.5 40.5t52.5 131.5q50 211 119 309t188 121q-114 20 -182 89.5t-68 182.5q0 95 34.5 180.5t100 152t170 106t234.5 39.5h489l-251 -1434h-111l111 631h-379q-66 0 -114 -13.5t-82.5 -39t-61.5 -73t-46.5 -104.5
t-41.5 -145q-35 -143 -93 -206.5t-153 -63.5zM342 958q0 -110 71.5 -170.5t202.5 -60.5h404l108 610h-376q-199 0 -304.5 -105.5t-105.5 -273.5z" />
    <glyph glyph-name="uni0430" unicode="&#x430;" horiz-adv-x="1007" 
d="M807 686q5 40 5 78.5t-15 72t-40 59t-70 40t-105 14.5q-120 0 -209.5 -56t-141.5 -159l-96 29q61 123 184 199.5t283 76.5q178 0 258.5 -89t50.5 -263l-120 -688h-105l39 217q-70 -109 -189 -170t-245 -61q-125 0 -203 59t-78 164q0 88 36.5 154.5t103.5 108t151.5 64.5
t190.5 31q151 12 228 36.5t87 82.5zM127 231q0 -81 60.5 -120t152.5 -39q147 0 270.5 102.5t153.5 269.5l24 134q-77 -74 -282 -91q-68 -5 -119 -14t-102.5 -27t-84 -45t-53 -70t-20.5 -100z" />
    <glyph glyph-name="uni0431" unicode="&#x431;" horiz-adv-x="1069" 
d="M436 -12q-175 0 -277 107.5t-102 293.5q0 67 12.5 148.5t39 176.5t73 186t107.5 170t151 136.5t195 77.5l299 59q67 13 88.5 27t26.5 41l4 23h94l-4 -25q-11 -69 -41.5 -98.5t-108.5 -44.5l-368 -76q-150 -30 -259 -159t-159 -298q78 112 197.5 177t248.5 65
q157 0 257 -104t100 -275q0 -122 -46 -234.5t-123 -194.5t-183.5 -130.5t-221.5 -48.5zM158 389q0 -142 79.5 -226.5t219.5 -84.5q87 0 168 41t139.5 108.5t93.5 158.5t35 187q0 140 -79 226t-204 86q-100 0 -186.5 -42t-143.5 -111.5t-89.5 -158.5t-32.5 -184z" />
    <glyph glyph-name="uni0432" unicode="&#x432;" horiz-adv-x="989" 
d="M53 0l183 1026h438q142 0 213 -55.5t71 -151.5q0 -103 -72 -186.5t-196 -104.5q102 -12 155.5 -62t53.5 -134q0 -149 -110.5 -240.5t-286.5 -91.5h-449zM174 86h334q125 0 200.5 64.5t75.5 171.5q0 74 -55.5 116.5t-159.5 42.5h-323zM260 563h330q109 0 179.5 65
t70.5 169q0 67 -49 106t-148 39h-315z" />
    <glyph glyph-name="uni0433" unicode="&#x433;" horiz-adv-x="808" 
d="M53 0l183 1026h638l-18 -90h-532l-164 -936h-107z" />
    <glyph glyph-name="uni0434" unicode="&#x434;" horiz-adv-x="1075" 
d="M0 90q56 0 86 38.5t51 131.5l176 766h680l-164 -936h111l-59 -336h-97l43 246h-827l-43 -246h-96l59 336h80zM172 90h553l147 846h-475l-172 -741q-16 -70 -53 -105z" />
    <glyph glyph-name="uni0435" unicode="&#x435;" horiz-adv-x="1052" 
d="M469 -14q-193 0 -304.5 107.5t-111.5 303.5q0 121 42 237t115.5 206t183 145t235.5 55q171 0 268.5 -100t97.5 -260q0 -88 -28 -164h-797q-8 -47 -8 -104q0 -162 86.5 -249t234.5 -87q122 0 212.5 70.5t148.5 175.5l98 -29q-63 -128 -188 -217.5t-285 -89.5zM190 600h689
q6 34 6 68q0 131 -72.5 207.5t-202.5 76.5q-150 0 -261 -99.5t-159 -252.5z" />
    <glyph glyph-name="uni0436" unicode="&#x436;" horiz-adv-x="1402" 
d="M-70 0l412 518l-215 508h106l197 -467h227l82 467h107l-82 -467h217l371 467h118l-407 -514l229 -512h-110l-209 469h-225l-82 -469h-107l82 469h-215l-373 -469h-123z" />
    <glyph glyph-name="uni0437" unicode="&#x437;" horiz-adv-x="919" 
d="M389 -14q-169 0 -269 81.5t-112 211.5l109 32q10 -104 84 -169.5t205 -65.5q128 0 218.5 67t90.5 176q0 76 -57 118t-156 42h-187l15 86h172q115 0 190 61t76 160q0 75 -59 119.5t-166 44.5q-125 0 -209.5 -52t-138.5 -169l-101 29q61 135 182.5 208.5t278.5 73.5
q154 0 241 -63t87 -168q0 -103 -71 -177.5t-165 -94.5q80 -15 130 -73.5t50 -137.5q0 -97 -60 -175.5t-160 -121.5t-218 -43z" />
    <glyph glyph-name="uni0438" unicode="&#x438;" horiz-adv-x="1083" 
d="M160 0h-107l183 1026h106l-156 -872l738 872h106l-180 -1026h-107l154 872z" />
    <glyph glyph-name="uni0439" unicode="&#x439;" horiz-adv-x="1083" 
d="M160 0h-107l183 1026h106l-156 -872l738 872h106l-180 -1026h-107l154 872zM473 1382h88q-13 -83 19.5 -131.5t101.5 -48.5q68 0 117.5 48.5t62.5 131.5h88q-20 -118 -96.5 -188t-185.5 -70t-162 70t-33 188z" />
    <glyph glyph-name="uni043A" unicode="&#x43a;" horiz-adv-x="958" 
d="M750 0l-263 469h-243l-84 -469h-107l183 1026h106l-84 -467h238l424 467h122l-462 -512l284 -514h-114z" />
    <glyph glyph-name="uni043B" unicode="&#x43b;" horiz-adv-x="1056" 
d="M-10 -14q-56 0 -88 14l16 94q40 -12 84 -12q56 0 86.5 38t52.5 132l178 774h685l-183 -1026h-104l164 936h-482l-157 -684q-33 -146 -92 -206t-160 -60z" />
    <glyph glyph-name="uni043C" unicode="&#x43c;" horiz-adv-x="1243" 
d="M53 0l183 1026h96l227 -883l533 883h98l-180 -1026h-105l142 793l-474 -793h-71l-205 805l-141 -805h-103z" />
    <glyph glyph-name="uni043D" unicode="&#x43d;" horiz-adv-x="1089" 
d="M748 0l83 477h-587l-84 -477h-107l183 1026h106l-82 -459h588l82 459h104l-180 -1026h-106z" />
    <glyph glyph-name="uni043E" unicode="&#x43e;" horiz-adv-x="1087" 
d="M451 -14q-177 0 -287.5 110.5t-110.5 298.5q0 124 44 241.5t120 206.5t186 143t234 54q177 0 287 -110.5t110 -298.5q0 -100 -28 -196t-80.5 -176.5t-123 -142t-161.5 -96t-190 -34.5zM166 401q0 -154 82.5 -239.5t218.5 -85.5q104 0 191.5 49t144 128t88 176.5
t31.5 197.5q0 152 -81.5 237.5t-219.5 85.5q-104 0 -191.5 -48.5t-144 -127.5t-88 -176.5t-31.5 -196.5z" />
    <glyph glyph-name="uni043F" unicode="&#x43f;" horiz-adv-x="1079" 
d="M737 0l164 936h-575l-166 -936h-107l183 1026h788l-180 -1026h-107z" />
    <glyph glyph-name="uni0440" unicode="&#x440;" horiz-adv-x="1134" 
d="M-18 -410l254 1436h106l-49 -283q69 134 181.5 215.5t248.5 81.5q165 0 261.5 -103.5t96.5 -285.5q0 -171 -68.5 -323t-192.5 -247t-273 -95q-140 0 -226.5 82.5t-109.5 220.5l-123 -699h-106zM252 416q0 -151 79.5 -245.5t203.5 -94.5q128 0 229.5 83t153 208.5
t51.5 263.5q0 155 -71.5 237t-205.5 82q-120 0 -223.5 -80.5t-160 -203t-56.5 -250.5z" />
    <glyph glyph-name="uni0441" unicode="&#x441;" horiz-adv-x="1024" 
d="M461 -14q-177 0 -292.5 109.5t-115.5 299.5q0 124 42.5 240.5t117 206.5t185.5 144t239 54q156 0 251 -88.5t107 -234.5l-102 -31q-12 126 -85.5 195t-195.5 69q-129 0 -233.5 -81t-158.5 -203t-54 -254q0 -157 88.5 -246.5t222.5 -89.5q120 0 214.5 74t154.5 194l94 -29
q-71 -146 -195 -237.5t-284 -91.5z" />
    <glyph glyph-name="uni0442" unicode="&#x442;" horiz-adv-x="784" 
d="M250 0l164 936h-322l17 90h747l-16 -90h-320l-164 -936h-106z" />
    <glyph glyph-name="uni0443" unicode="&#x443;" horiz-adv-x="915" 
d="M-76 -410l15 93h86q73 0 120 32t84 99l95 172l-228 1040h99l198 -911l498 911h108l-659 -1204q-27 -49 -49.5 -82.5t-52.5 -63.5t-63.5 -48t-78 -28t-100.5 -10h-72z" />
    <glyph glyph-name="uni0444" unicode="&#x444;" horiz-adv-x="1241" 
d="M408 -410l69 400q-195 12 -309.5 123t-114.5 293q0 249 172 431t437 201l69 396h105l-70 -396q194 -14 308 -124t114 -293q0 -249 -171 -430.5t-435 -200.5l-70 -400h-104zM164 416q0 -149 88 -237.5t242 -100.5l153 872q-144 -12 -255 -87.5t-169.5 -192t-58.5 -254.5z
M598 78q145 12 255.5 89.5t167 193.5t56.5 251q0 150 -86 238t-239 100z" />
    <glyph glyph-name="uni0445" unicode="&#x445;" horiz-adv-x="886" 
d="M-72 0l461 520l-276 506h108l244 -446l377 446h116l-450 -526l274 -500h-108l-240 440l-389 -440h-117z" />
    <glyph glyph-name="uni0446" unicode="&#x446;" horiz-adv-x="1097" 
d="M342 1026l-166 -936h576l168 936h106l-168 -936h107l-60 -336h-96l43 246h-799l183 1026h106z" />
    <glyph glyph-name="uni0447" unicode="&#x447;" horiz-adv-x="991" 
d="M340 344q-136 0 -199 90t-32 264l57 328h106l-55 -321q-27 -146 18.5 -209.5t153.5 -63.5q185 0 371 189l71 405h107l-180 -1026h-107l94 541q-194 -197 -405 -197z" />
    <glyph glyph-name="uni0448" unicode="&#x448;" horiz-adv-x="1540" 
d="M53 0l183 1026h104l-164 -936h467l164 936h106l-163 -936h467l163 936h105l-180 -1026h-1252z" />
    <glyph glyph-name="uni0449" unicode="&#x449;" horiz-adv-x="1562" 
d="M53 0l183 1026h104l-164 -936h467l164 936h106l-163 -936h467l163 936h105l-164 -936h109l-60 -336h-96l43 246h-1264z" />
    <glyph glyph-name="uni044A" unicode="&#x44a;" horiz-adv-x="1099" 
d="M184 0l166 934h-266l18 92h371l-70 -395h330q133 0 208 -67t75 -183q0 -72 -25 -138.5t-72 -121.5t-124.5 -88t-173.5 -33h-437zM307 88h318q128 0 201 82t73 195q0 83 -50.5 130.5t-143.5 47.5h-318z" />
    <glyph glyph-name="uni044B" unicode="&#x44b;" horiz-adv-x="1333" 
d="M53 0l183 1026h106l-70 -395h310q133 0 207.5 -67t74.5 -183q0 -72 -25 -138.5t-72 -121.5t-124.5 -88t-173.5 -33h-416zM176 88h297q128 0 201.5 82t73.5 195q0 83 -51 130.5t-144 47.5h-297zM991 0l183 1026h106l-182 -1026h-107z" />
    <glyph glyph-name="uni044C" unicode="&#x44c;" horiz-adv-x="968" 
d="M53 0l183 1026h106l-70 -395h330q133 0 208 -67t75 -183q0 -71 -25 -138t-72.5 -122t-125 -88t-173.5 -33h-436zM176 88h318q128 0 201 82t73 195q0 83 -51 130.5t-144 47.5h-317z" />
    <glyph glyph-name="uni044D" unicode="&#x44d;" horiz-adv-x="1024" 
d="M412 -14q-176 0 -279.5 87.5t-118.5 239.5l107 33q9 -127 89 -198.5t216 -71.5q107 0 194.5 57t140.5 144t79 194h-475l14 86h477q4 54 4 80q0 148 -74.5 230.5t-203.5 82.5q-124 0 -224.5 -68.5t-154.5 -189.5l-101 27q63 147 194 234t292 87q179 0 282 -105t103 -290
q0 -122 -38.5 -239t-108 -211t-177.5 -151.5t-237 -57.5z" />
    <glyph glyph-name="uni044E" unicode="&#x44e;" horiz-adv-x="1349" 
d="M754 -14q-168 0 -263.5 103t-95.5 286q0 47 6 94h-157l-84 -469h-107l183 1026h106l-84 -473h158q22 100 67 187t110 154.5t154 106.5t191 39q169 0 263.5 -103t94.5 -286q0 -125 -37.5 -243.5t-104.5 -212.5t-171.5 -151.5t-228.5 -57.5zM510 387q0 -147 68 -229
t192 -82q78 0 146.5 34.5t116.5 91.5t82.5 130.5t51.5 152.5t17 156q0 146 -67.5 227.5t-192.5 81.5q-78 0 -146.5 -34t-116.5 -90.5t-82.5 -129.5t-51.5 -152t-17 -157z" />
    <glyph glyph-name="uni044F" unicode="&#x44f;" horiz-adv-x="1005" 
d="M127 227q16 49 26 75.5t28.5 62.5t37.5 55.5t49.5 36.5t69.5 24q-91 16 -145 70t-54 139q0 62 25.5 121t74 107.5t127.5 78t177 29.5h407l-180 -1026h-106l75 434h-290q-91 0 -138 -48.5t-82 -156.5q-44 -139 -81.5 -191t-116.5 -52q-43 0 -74 14l16 94q27 -12 64 -12
q29 0 43.5 25.5t46.5 119.5zM250 682q0 -80 52.5 -120t148.5 -40h305l71 416h-290q-130 0 -208.5 -70.5t-78.5 -185.5z" />
    <glyph glyph-name="uni0450" unicode="&#x450;" horiz-adv-x="1052" 
d="M469 -14q-193 0 -304.5 107.5t-111.5 303.5q0 121 42 237t115.5 206t183 145t235.5 55q171 0 268.5 -100t97.5 -260q0 -88 -28 -164h-797q-8 -47 -8 -104q0 -162 86.5 -249t234.5 -87q122 0 212.5 70.5t148.5 175.5l98 -29q-63 -128 -188 -217.5t-285 -89.5zM190 600h689
q6 34 6 68q0 131 -72.5 207.5t-202.5 76.5q-150 0 -261 -99.5t-159 -252.5zM553 1380h119l63 -235h-90z" />
    <glyph glyph-name="uni0451" unicode="&#x451;" horiz-adv-x="1052" 
d="M469 -14q-193 0 -304.5 107.5t-111.5 303.5q0 121 42 237t115.5 206t183 145t235.5 55q171 0 268.5 -100t97.5 -260q0 -88 -28 -164h-797q-8 -47 -8 -104q0 -162 86.5 -249t234.5 -87q122 0 212.5 70.5t148.5 175.5l98 -29q-63 -128 -188 -217.5t-285 -89.5zM190 600h689
q6 34 6 68q0 131 -72.5 207.5t-202.5 76.5q-150 0 -261 -99.5t-159 -252.5zM477 1180l31 182h102l-30 -182h-103zM748 1180l30 182h103l-31 -182h-102z" />
    <glyph glyph-name="uni0452" unicode="&#x452;" horiz-adv-x="1087" 
d="M426 -410l16 95h131q63 0 107 49t57 135l146 821q23 137 -23.5 199.5t-144.5 62.5q-64 0 -127.5 -27.5t-115 -74t-95.5 -106.5t-73.5 -125.5t-43.5 -129.5l-86 -489h-106l213 1208h-138l13 78h137l26 148h107l-27 -148h330l-12 -78h-330l-90 -506q80 145 205 241.5
t268 96.5q131 0 190.5 -85t28.5 -259l-145 -829q-51 -277 -287 -277h-131z" />
    <glyph glyph-name="uni0453" unicode="&#x453;" horiz-adv-x="808" 
d="M53 0l183 1026h638l-18 -90h-532l-164 -936h-107zM508 1145l147 235h123l-178 -235h-92z" />
    <glyph glyph-name="uni0454" unicode="&#x454;" horiz-adv-x="1026" 
d="M453 -14q-177 0 -288.5 108t-111.5 299q0 123 42 239.5t116 207t185.5 145.5t240.5 55q156 0 251 -86.5t109 -234.5l-112 -27q-11 121 -82 189.5t-191 68.5q-158 0 -272.5 -113.5t-153.5 -279.5h476l-15 -86h-477q-2 -20 -2 -59q0 -160 86 -248t219 -88q120 0 219.5 72
t153.5 198l96 -33q-68 -151 -198 -239t-291 -88z" />
    <glyph glyph-name="uni0455" unicode="&#x455;" horiz-adv-x="913" 
d="M408 -14q-181 0 -284.5 86t-119.5 215l100 26q10 -51 29.5 -90.5t55 -74t94 -53.5t137.5 -19q131 0 208 59.5t77 153.5q0 76 -46.5 114t-146.5 66l-154 39q-114 31 -171.5 83t-57.5 154q0 127 110 211t277 84q159 0 249 -74.5t109 -189.5l-98 -26q-15 91 -82 146.5
t-192 55.5q-118 0 -194.5 -53t-76.5 -143q0 -65 40.5 -101.5t129.5 -60.5l168 -45q123 -33 181.5 -86.5t58.5 -155.5q0 -140 -107 -230.5t-294 -90.5z" />
    <glyph glyph-name="uni0456" unicode="&#x456;" horiz-adv-x="395" 
d="M53 0l183 1026h106l-182 -1026h-107zM252 1180l29 182h116l-28 -182h-117z" />
    <glyph glyph-name="uni0457" unicode="&#x457;" horiz-adv-x="395" 
d="M53 0l183 1026h106l-182 -1026h-107zM162 1180l31 182h100l-31 -182h-100zM352 1180l31 182h100l-30 -182h-101z" />
    <glyph glyph-name="uni0458" unicode="&#x458;" horiz-adv-x="397" 
d="M-225 -410l14 93h64q82 0 121 39t57 128l207 1176h104l-207 -1186q-45 -250 -293 -250h-67zM254 1180l29 182h116l-28 -182h-117z" />
    <glyph glyph-name="uni0459" unicode="&#x459;" horiz-adv-x="1544" 
d="M-10 -14q-56 0 -88 14l16 94q40 -12 84 -12q56 0 85.5 38.5t51.5 131.5l178 774h621l-70 -395h310q134 0 209 -67t75 -183q0 -71 -25 -138t-72.5 -122t-125 -88t-172.5 -33h-416l164 936h-414l-157 -684q-33 -146 -93 -206t-161 -60zM774 88h297q128 0 201.5 82t73.5 195
q0 83 -51.5 130.5t-145.5 47.5h-295z" />
    <glyph glyph-name="uni045A" unicode="&#x45a;" horiz-adv-x="1642" 
d="M750 0l92 520h-590l-92 -520h-107l183 1026h106l-74 -418h588l74 418h106l-73 -418h307q136 0 211 -62t75 -175q0 -71 -24 -136t-70.5 -118t-124 -85t-174.5 -32h-413zM872 88h295q129 0 201 76.5t72 189.5q0 78 -52 122t-145 44h-295z" />
    <glyph glyph-name="uni045B" unicode="&#x45b;" horiz-adv-x="1089" 
d="M70 0l211 1204h-146l15 82h145l27 148h106l-27 -148h320l-12 -82h-322l-80 -456q78 131 196.5 211.5t260.5 80.5q132 0 194.5 -85.5t32.5 -258.5l-123 -696h-106l121 690q23 137 -23.5 199.5t-144.5 62.5q-100 0 -194.5 -63.5t-159.5 -161t-95 -209.5l-90 -518h-106z" />
    <glyph glyph-name="uni045C" unicode="&#x45c;" horiz-adv-x="958" 
d="M750 0l-263 469h-243l-84 -469h-107l183 1026h106l-84 -467h238l424 467h122l-462 -512l284 -514h-114zM551 1145l147 235h123l-178 -235h-92z" />
    <glyph glyph-name="uni045D" unicode="&#x45d;" horiz-adv-x="1083" 
d="M160 0h-107l183 1026h106l-156 -872l738 872h106l-180 -1026h-107l154 872zM557 1380h119l63 -235h-90z" />
    <glyph glyph-name="uni045E" unicode="&#x45e;" horiz-adv-x="915" 
d="M-76 -410l15 93h86q73 0 120 32t84 99l95 172l-228 1040h99l198 -911l498 911h108l-659 -1204q-27 -49 -49.5 -82.5t-52.5 -63.5t-63.5 -48t-78 -28t-100.5 -10h-72zM377 1382h88q-13 -83 19.5 -131.5t101.5 -48.5q68 0 117.5 48.5t62.5 131.5h88q-20 -118 -97 -188
t-186 -70t-161.5 70t-32.5 188z" />
    <glyph glyph-name="uni045F" unicode="&#x45f;" horiz-adv-x="1079" 
d="M356 -246l43 246h-346l183 1026h106l-166 -936h576l168 936h106l-184 -1026h-346l-43 -246h-97z" />
    <glyph glyph-name="uni0490" unicode="&#x490;" horiz-adv-x="1015" 
d="M76 0l252 1434h712l45 245h99l-62 -342h-700l-236 -1337h-110z" />
    <glyph glyph-name="uni0491" unicode="&#x491;" horiz-adv-x="808" 
d="M53 0l183 1026h542l43 244h94l-59 -334h-532l-164 -936h-107z" />
    <glyph glyph-name="uni0492" unicode="&#x492;" horiz-adv-x="1118" 
d="M178 0l123 696h-219l14 90h219l115 648h811l-16 -97h-701l-96 -551h365l-17 -90h-364l-123 -696h-111z" />
    <glyph glyph-name="uni0493" unicode="&#x493;" horiz-adv-x="874" 
d="M121 0l84 471h-189l15 86h188l84 469h639l-18 -90h-533l-65 -379h325l-14 -86h-328l-82 -471h-106z" />
    <glyph glyph-name="uni0496" unicode="&#x496;" horiz-adv-x="1779" 
d="M1530 0l4 20l-281 639h-278l-117 -659h-110l116 659h-268l-533 -659h-129l578 711l-299 723h115l276 -680h277l118 680h111l-119 -680h266l525 680h123l-559 -725l272 -613h111l-62 -352h-100l45 256h-82z" />
    <glyph glyph-name="uni0497" unicode="&#x497;" horiz-adv-x="1402" 
d="M-70 0l412 518l-215 508h106l197 -467h227l82 467h107l-82 -467h217l371 467h118l-407 -514l188 -422h109l-60 -336h-96l43 246h-65l-209 469h-225l-82 -469h-107l82 469h-215l-373 -469h-123z" />
    <glyph glyph-name="uni049A" unicode="&#x49a;" horiz-adv-x="1200" 
d="M950 0l4 23l-354 636h-297l-117 -659h-110l252 1434h110l-119 -680h291l578 680h121l-617 -725l340 -613h117l-62 -352h-100l45 256h-82z" />
    <glyph glyph-name="uni049B" unicode="&#x49b;" horiz-adv-x="958" 
d="M750 0l-263 469h-243l-84 -469h-107l183 1026h106l-84 -467h238l424 467h122l-462 -512l235 -424h111l-60 -336h-96l43 246h-63z" />
    <glyph glyph-name="uni04A2" unicode="&#x4a2;" horiz-adv-x="1394" 
d="M975 0l123 698h-789l-123 -698h-110l252 1434h110l-112 -641h788l113 641h110l-235 -1338h143l-61 -352h-101l45 256h-153z" />
    <glyph glyph-name="uni04A3" unicode="&#x4a3;" horiz-adv-x="1112" 
d="M748 0l83 477h-587l-84 -477h-107l183 1026h106l-82 -459h588l82 459h104l-164 -936h109l-59 -336h-97l43 246h-118z" />
    <glyph glyph-name="uni04AE" unicode="&#x4ae;" horiz-adv-x="1048" 
d="M498 678l-328 756h115l282 -658l514 658h121l-594 -756l-119 -678h-110z" />
    <glyph glyph-name="uni04AF" unicode="&#x4af;" horiz-adv-x="854" 
d="M100 1026h105l157 -879l467 879h109l-547 -1024l-72 -412h-106l72 412z" />
    <glyph glyph-name="uni04B0" unicode="&#x4b0;" horiz-adv-x="1048" 
d="M498 678l-328 756h115l282 -658l514 658h121l-594 -756l-12 -68h340l-16 -90h-338l-93 -520h-110l92 520h-340l16 90h338z" />
    <glyph glyph-name="uni04B1" unicode="&#x4b1;" horiz-adv-x="851" 
d="M100 1026h105l157 -879l467 879h109l-547 -1024l-18 -100h262l-17 -84h-260l-39 -228h-106l39 228h-260l16 84h258l19 100z" />
    <glyph glyph-name="uni04B2" unicode="&#x4b2;" horiz-adv-x="1189" 
d="M930 0l-322 633l-549 -633h-125l627 725l-358 709h114l324 -639l553 639h127l-633 -732l307 -606h150l-62 -352h-100l45 256h-98z" />
    <glyph glyph-name="uni04B3" unicode="&#x4b3;" horiz-adv-x="886" 
d="M-72 0l461 520l-276 506h108l244 -446l377 446h116l-450 -526l225 -410h129l-59 -336h-96l43 246h-76l-240 440l-389 -440h-117z" />
    <glyph glyph-name="uni04B6" unicode="&#x4b6;" horiz-adv-x="1263" 
d="M494 526q-192 0 -279.5 106.5t-56.5 282.5l92 519h110l-90 -512q-25 -137 44 -219t208 -82q113 0 244.5 46.5t226.5 116.5l115 650h111l-236 -1338h131l-61 -352h-101l45 256h-143l123 690q-102 -69 -235 -116.5t-248 -47.5z" />
    <glyph glyph-name="uni04B7" unicode="&#x4b7;" horiz-adv-x="1013" 
d="M340 344q-136 0 -199 90t-32 264l57 328h106l-55 -321q-27 -146 18.5 -209.5t153.5 -63.5q185 0 371 189l71 405h107l-164 -936h105l-60 -336h-96l43 246h-115l94 541q-194 -197 -405 -197z" />
    <glyph glyph-name="uni04BA" unicode="&#x4ba;" horiz-adv-x="1210" 
d="M969 508q26 149 -35 224t-199 75q-113 0 -231 -45.5t-205 -116.5l-113 -645h-110l252 1434h110l-123 -695q94 71 215 117.5t234 46.5q192 0 271 -100.5t46 -290.5l-90 -512h-112z" />
    <glyph glyph-name="uni04BB" unicode="&#x4bb;" horiz-adv-x="1073" 
d="M55 0l252 1434h107l-121 -686q78 131 196.5 211.5t260.5 80.5q132 0 194.5 -85.5t32.5 -258.5l-123 -696h-106l120 690q23 137 -23.5 199.5t-144.5 62.5q-100 0 -194.5 -63.5t-159 -161t-94.5 -209.5l-90 -518h-107z" />
    <glyph glyph-name="uni04D8" unicode="&#x4d8;" horiz-adv-x="1425" 
d="M633 -14q-176 0 -300 69t-182 188.5t-53 278.5q0 50 25 201h1139q12 73 12 149q0 220 -115 349t-313 129q-192 0 -344.5 -105.5t-227.5 -279.5l-102 30q89 207 273.5 330t418.5 123q243 0 385 -153t142 -408q0 -108 -24 -216.5t-68 -208.5t-111 -187t-149 -151
t-186.5 -101t-219.5 -37zM219 631q-15 -73 -10.5 -142t21.5 -130t54 -111.5t87.5 -87t122.5 -56.5t159 -20q111 0 210 44.5t172.5 121t126 173.5t81.5 208h-1024z" />
    <glyph glyph-name="uni04D9" unicode="&#x4d9;" horiz-adv-x="1048" 
d="M434 -14q-186 0 -282.5 106.5t-96.5 274.5q0 92 31 180h791q4 54 4 78q0 156 -77 240.5t-210 84.5q-135 0 -233.5 -69.5t-155.5 -171.5l-90 28q63 126 194.5 214.5t302.5 88.5q180 0 281.5 -105.5t101.5 -297.5q0 -122 -39.5 -238.5t-110.5 -208.5t-178.5 -148
t-232.5 -56zM168 375q0 -130 71 -214.5t216 -84.5q154 0 260.5 111.5t146.5 277.5h-686q-8 -39 -8 -90z" />
    <glyph glyph-name="uni04E2" unicode="&#x4e2;" horiz-adv-x="1361" 
d="M995 0l252 1434h111l-252 -1434h-111zM76 0l252 1434h110l-252 -1434h-110zM186 0l31 172l1030 1262l-30 -174zM645 1606l14 80h461l-16 -80h-459z" />
    <glyph glyph-name="uni04E3" unicode="&#x4e3;" horiz-adv-x="1083" 
d="M160 0h-107l183 1026h106l-156 -872l738 872h106l-180 -1026h-107l154 872zM455 1198l14 80h461l-17 -80h-458z" />
    <glyph glyph-name="uni04E8" unicode="&#x4e8;" horiz-adv-x="1472" 
d="M645 -14q-249 0 -392.5 152t-143.5 409q0 135 35.5 266t105 245.5t164 201.5t221.5 137.5t268 50.5q248 0 392.5 -152.5t144.5 -408.5q0 -112 -26 -222.5t-73 -210.5t-118.5 -186t-157.5 -148.5t-194.5 -98t-225.5 -35.5zM225 563q0 -219 117.5 -349t319.5 -130
q121 0 229.5 48t188.5 130.5t136.5 187t83.5 222.5h-1069q-6 -56 -6 -109zM248 762h1069q6 53 6 106q0 220 -117.5 351t-320.5 131q-122 0 -230.5 -48.5t-188 -131t-135 -187t-83.5 -221.5z" />
    <glyph glyph-name="uni04E9" unicode="&#x4e9;" horiz-adv-x="1087" 
d="M451 -14q-177 0 -287.5 110.5t-110.5 298.5q0 124 44 241.5t120 206.5t186 143t234 54q177 0 287 -110.5t110 -298.5q0 -100 -28 -196t-80.5 -176.5t-123 -142t-161.5 -96t-190 -34.5zM166 401q0 -154 82.5 -239.5t218.5 -85.5q165 0 280 113t156 282h-733q-4 -46 -4 -70
zM184 555h734q4 50 4 72q0 152 -81.5 237.5t-219.5 85.5q-84 0 -158 -32t-128.5 -87.5t-92.5 -125.5t-58 -150z" />
    <glyph glyph-name="uni04EE" unicode="&#x4ee;" horiz-adv-x="1077" 
d="M184 -14q-51 0 -105 9.5t-81 24.5l18 103q29 -15 82 -25t99 -10q73 0 132.5 45.5t114.5 138.5l-274 1162h111l241 -1035l596 1035h113l-676 -1172q-84 -144 -170 -210t-201 -66zM524 1606l15 80h460l-16 -80h-459z" />
    <glyph glyph-name="uni04EF" unicode="&#x4ef;" horiz-adv-x="915" 
d="M-76 -410l15 93h86q73 0 120 32t84 99l95 172l-228 1040h99l198 -911l498 911h108l-659 -1204q-27 -49 -49.5 -82.5t-52.5 -63.5t-63.5 -48t-78 -28t-100.5 -10h-72zM358 1198l15 80h461l-17 -80h-459z" />
    <glyph glyph-name="Wgrave" unicode="&#x1e80;" horiz-adv-x="1849" 
d="M352 0l-155 1434h104l139 -1274l602 1274h107l162 -1266l555 1266h110l-628 -1434h-113l-164 1286l-604 -1286h-115zM999 1788h119l64 -236h-90z" />
    <glyph glyph-name="wgrave" unicode="&#x1e81;" horiz-adv-x="1368" 
d="M231 0l-118 1026h96l100 -881l412 881h98l101 -881l413 881h105l-484 -1026h-102l-104 885l-414 -885h-103zM678 1380h119l63 -235h-90z" />
    <glyph glyph-name="Wacute" unicode="&#x1e82;" horiz-adv-x="1849" 
d="M352 0l-155 1434h104l139 -1274l602 1274h107l162 -1266l555 1266h110l-628 -1434h-113l-164 1286l-604 -1286h-115zM1022 1552l147 236h123l-178 -236h-92z" />
    <glyph glyph-name="wacute" unicode="&#x1e83;" horiz-adv-x="1368" 
d="M231 0l-118 1026h96l100 -881l412 881h98l101 -881l413 881h105l-484 -1026h-102l-104 885l-414 -885h-103zM700 1145l148 235h123l-178 -235h-93z" />
    <glyph glyph-name="Wdieresis" unicode="&#x1e84;" horiz-adv-x="1849" 
d="M352 0l-155 1434h104l139 -1274l602 1274h107l162 -1266l555 1266h110l-628 -1434h-113l-164 1286l-604 -1286h-115zM926 1587l30 182h103l-31 -182h-102zM1196 1587l31 182h102l-31 -182h-102z" />
    <glyph glyph-name="wdieresis" unicode="&#x1e85;" horiz-adv-x="1368" 
d="M231 0l-118 1026h96l100 -881l412 881h98l101 -881l413 881h105l-484 -1026h-102l-104 885l-414 -885h-103zM604 1180l31 182h102l-30 -182h-103zM874 1180l31 182h103l-31 -182h-103z" />
    <glyph glyph-name="Ygrave" unicode="&#x1ef2;" horiz-adv-x="1048" 
d="M498 678l-328 756h115l282 -658l514 658h121l-594 -756l-119 -678h-110zM594 1788h119l63 -236h-90z" />
    <glyph glyph-name="ygrave" unicode="&#x1ef3;" horiz-adv-x="915" 
d="M-76 -410l15 93h86q73 0 120 32t84 99l95 172l-228 1040h99l198 -911l498 911h108l-659 -1204q-27 -49 -49.5 -82.5t-52.5 -63.5t-63.5 -48t-78 -28t-100.5 -10h-72zM461 1380h119l63 -235h-90z" />
    <glyph glyph-name="uni2000" unicode="&#x2000;" horiz-adv-x="1024" 
 />
    <glyph glyph-name="uni2001" unicode="&#x2001;" horiz-adv-x="2048" 
 />
    <glyph glyph-name="uni2002" unicode="&#x2002;" horiz-adv-x="1024" 
 />
    <glyph glyph-name="uni2003" unicode="&#x2003;" horiz-adv-x="2048" 
 />
    <glyph glyph-name="uni2004" unicode="&#x2004;" horiz-adv-x="681" 
 />
    <glyph glyph-name="uni2005" unicode="&#x2005;" horiz-adv-x="512" 
 />
    <glyph glyph-name="uni2006" unicode="&#x2006;" horiz-adv-x="342" 
 />
    <glyph glyph-name="uni2007" unicode="&#x2007;" horiz-adv-x="1177" 
 />
    <glyph glyph-name="uni2008" unicode="&#x2008;" horiz-adv-x="346" 
 />
    <glyph glyph-name="uni2009" unicode="&#x2009;" horiz-adv-x="409" 
 />
    <glyph glyph-name="uni200A" unicode="&#x200a;" horiz-adv-x="292" 
 />
    <glyph glyph-name="uni200B" unicode="&#x200b;" 
 />
    <glyph glyph-name="endash" unicode="&#x2013;" horiz-adv-x="1134" 
d="M147 653h887l-14 -88h-887z" />
    <glyph glyph-name="emdash" unicode="&#x2014;" horiz-adv-x="1556" 
d="M147 653h1311l-14 -88h-1311z" />
    <glyph glyph-name="quoteleft" unicode="&#x2018;" horiz-adv-x="339" 
d="M418 1378q-85 0 -107 -125h58l-29 -170h-129l33 179q14 87 61.5 138.5t124.5 51.5z" />
    <glyph glyph-name="quoteright" unicode="&#x2019;" horiz-adv-x="339" 
d="M223 1159q85 0 107 125h-58l29 170h129l-33 -178q-14 -87 -61.5 -139t-124.5 -52z" />
    <glyph glyph-name="quotesinglbase" unicode="&#x201a;" horiz-adv-x="337" 
d="M-39 -125q85 0 107 125h-58l29 170h129l-33 -178q-14 -87 -61.5 -139t-124.5 -52z" />
    <glyph glyph-name="quotedblleft" unicode="&#x201c;" horiz-adv-x="567" 
d="M643 1364q-84 0 -106 -125h57l-29 -170h-129l33 178q14 87 61.5 139t124.5 52zM207 1069l33 178q14 87 61.5 139t124.5 52l-12 -74q-85 0 -107 -125h58l-29 -170h-129z" />
    <glyph glyph-name="quotedblright" unicode="&#x201d;" horiz-adv-x="567" 
d="M217 1137q85 0 107 125h-58l29 170h129l-33 -179q-14 -87 -61.5 -138.5t-124.5 -51.5zM434 1063l12 74q85 0 107 125h-57l28 170h129l-32 -179q-14 -87 -62 -138.5t-125 -51.5z" />
    <glyph glyph-name="quotedblbase" unicode="&#x201e;" horiz-adv-x="567" 
d="M-39 -125q85 0 107 125h-58l29 170h129l-33 -178q-14 -87 -61.5 -139t-124.5 -52zM178 -199l12 74q85 0 107 125h-57l28 170h129l-32 -178q-14 -87 -62 -139t-125 -52z" />
    <glyph glyph-name="dagger" unicode="&#x2020;" horiz-adv-x="813" 
d="M297 141l152 860h-318l14 91h320l59 342h101l-60 -342h305l-14 -91h-307l-152 -860h-100z" />
    <glyph glyph-name="daggerdbl" unicode="&#x2021;" horiz-adv-x="821" 
d="M301 141l59 336h-319l16 90h320l78 443h-320l17 88h317l59 336h101l-60 -336h305l-14 -88h-305l-78 -443h305l-16 -90h-305l-60 -336h-100z" />
    <glyph glyph-name="bullet" unicode="&#x2022;" horiz-adv-x="399" 
d="M86 465l39 209h209l-39 -209h-209z" />
    <glyph glyph-name="ellipsis" unicode="&#x2026;" horiz-adv-x="839" 
d="M18 0l31 170h129l-31 -170h-129zM264 0l31 170h129l-31 -170h-129zM512 0l31 170h129l-31 -170h-129z" />
    <glyph glyph-name="perthousand" unicode="&#x2030;" horiz-adv-x="1982" 
d="M1522 -14q-100 0 -154.5 54t-54.5 146q0 86 35 159t105 120t161 47q100 0 154.5 -54.5t54.5 -148.5q0 -131 -81.5 -227t-219.5 -96zM66 0l1214 1434h115l-1215 -1434h-114zM231 1122q0 132 82.5 229t218.5 97q100 0 154.5 -54.5t54.5 -146.5q0 -82 -33 -154.5
t-103.5 -121.5t-164.5 -49q-100 0 -154.5 53.5t-54.5 146.5zM328 1137q0 -64 32 -102t93 -38q85 0 137.5 69.5t52.5 166.5q0 63 -32 100t-93 37q-87 0 -138.5 -70.5t-51.5 -162.5zM709 186q0 84 34 157t104 121t163 48q100 0 154.5 -54.5t54.5 -148.5q0 -130 -82.5 -226.5
t-218.5 -96.5q-100 0 -154.5 54t-54.5 146zM807 201q0 -64 31 -101t92 -37q88 0 140 72t52 162q0 64 -32 101.5t-93 37.5q-89 0 -139.5 -72t-50.5 -163zM1411 201q0 -64 31.5 -101t93.5 -37q58 0 103 36.5t66 88.5t21 109q0 64 -31.5 101.5t-92.5 37.5q-88 0 -139.5 -72.5
t-51.5 -162.5z" />
    <glyph glyph-name="guilsinglleft" unicode="&#x2039;" horiz-adv-x="567" 
d="M520 823l-18 -112l-328 -193l256 -190l-18 -107l-338 258l14 84z" />
    <glyph glyph-name="guilsinglright" unicode="&#x203a;" horiz-adv-x="569" 
d="M51 221l19 113l327 192l-256 191l19 106l338 -258l-15 -84z" />
    <glyph glyph-name="fraction" unicode="&#x2044;" horiz-adv-x="319" 
d="M-459 0l1200 1434h109l-1200 -1434h-109z" />
    <glyph glyph-name="uni2070" unicode="&#x2070;" horiz-adv-x="780" 
d="M430 748q-122 0 -189 78t-67 218q0 97 26.5 192t75.5 175.5t128.5 130t175.5 49.5q122 0 190 -79.5t68 -221.5q0 -95 -27 -189.5t-76 -174t-129 -129t-176 -49.5zM270 1053q0 -108 46 -168t130 -60q61 0 112.5 33.5t84.5 85t56 115.5t32.5 121.5t9.5 105.5
q0 108 -45 167.5t-129 59.5q-62 0 -114.5 -34t-85 -86t-55.5 -115.5t-32.5 -120.5t-9.5 -104z" />
    <glyph glyph-name="uni2074" unicode="&#x2074;" horiz-adv-x="636" 
d="M100 1055l449 528h115l-93 -528h129l-26 -76h-117l-39 -223h-92l39 223h-377zM199 1055h280l74 418z" />
    <glyph glyph-name="uni2075" unicode="&#x2075;" horiz-adv-x="712" 
d="M416 748q-118 0 -187.5 56t-72.5 152l90 25q-2 -72 46 -114t136 -42t155.5 71t67.5 177q0 70 -42.5 110t-112.5 40q-67 0 -123 -33t-86 -88h-86l147 481h453l-27 -80h-366l-103 -321q89 112 225 112q100 0 160 -55t60 -152q0 -146 -98.5 -242.5t-235.5 -96.5z" />
    <glyph glyph-name="uni2076" unicode="&#x2076;" horiz-adv-x="708" 
d="M403 748q-115 0 -178 67.5t-63 188.5q0 93 34.5 196.5t91.5 190t140.5 143.5t171.5 57q95 0 141.5 -51t51.5 -131l-84 -25q-16 132 -127 132q-98 0 -193.5 -110.5t-142.5 -313.5q35 89 107.5 138.5t160.5 49.5q99 0 154 -53.5t55 -147.5q0 -84 -35 -158t-109.5 -123.5
t-175.5 -49.5zM252 975q0 -69 43 -109.5t119 -40.5q97 0 154 72t57 168q0 66 -36.5 103.5t-103.5 37.5q-109 0 -171 -68.5t-62 -162.5z" />
    <glyph glyph-name="uni2077" unicode="&#x2077;" horiz-adv-x="559" 
d="M109 756l520 747h-436v80h548l-12 -80l-518 -747h-102z" />
    <glyph glyph-name="uni2078" unicode="&#x2078;" horiz-adv-x="727" 
d="M403 748q-121 0 -189.5 49t-68.5 133q0 93 66 168.5t174 93.5q-64 12 -98.5 50t-34.5 95q0 101 80.5 179.5t220.5 78.5q106 0 165.5 -45.5t59.5 -124.5q0 -90 -53.5 -154t-140.5 -79q73 -12 115 -57t42 -113q0 -120 -95.5 -197t-242.5 -77zM244 946q0 -57 46 -89t128 -32
q101 0 165 53.5t64 141.5q0 63 -45.5 99t-126.5 36q-58 0 -104 -20.5t-72.5 -52.5t-40.5 -67t-14 -69zM346 1346q-2 -53 36 -83t107 -30q92 0 143.5 53.5t51.5 120.5q0 53 -38 83t-105 30q-84 0 -139.5 -48.5t-55.5 -125.5z" />
    <glyph glyph-name="uni2079" unicode="&#x2079;" horiz-adv-x="710" 
d="M543 1591q105 0 167 -65.5t62 -196.5q0 -103 -25 -204t-71 -186.5t-121.5 -138t-167.5 -52.5q-105 0 -172 51t-72 127l86 24q2 -51 50.5 -88t121.5 -37q96 0 168 98.5t109 276.5q-33 -68 -96 -114t-140 -46q-107 0 -168 56t-61 153q0 136 92 239t238 103zM311 1264
q0 -71 41.5 -110.5t116.5 -39.5q99 0 158 78t59 168q0 68 -40 112t-114 44q-99 0 -160 -76.5t-61 -175.5z" />
    <glyph glyph-name="uni2080" unicode="&#x2080;" horiz-adv-x="780" 
d="M260 -213q-122 0 -189 78.5t-67 218.5q0 97 26.5 192t75.5 175.5t128.5 130t175.5 49.5q122 0 190 -79.5t68 -221.5q0 -95 -27 -189.5t-76 -174.5t-129 -129.5t-176 -49.5zM100 92q0 -108 46 -167.5t130 -59.5q61 0 112.5 33.5t84.5 85t56 115.5t32.5 121.5t9.5 105.5
q0 108 -45 167.5t-129 59.5q-62 0 -114.5 -34t-85 -86t-55.5 -116t-32.5 -121t-9.5 -104z" />
    <glyph glyph-name="uni2081" unicode="&#x2081;" horiz-adv-x="430" 
d="M-18 401q41 0 67 3t57 15t50.5 35.5t37.5 65.5t29 103h92l-145 -828h-92l110 631q-33 -59 -86.5 -86t-136.5 -27z" />
    <glyph glyph-name="uni2082" unicode="&#x2082;" horiz-adv-x="663" 
d="M-59 -182l2 18l2 2q17 75 56 135.5t87.5 99.5t104 72t107 60.5t94 56.5t68 69.5t25.5 90.5q0 64 -37 97.5t-98 33.5q-79 0 -139.5 -41.5t-93.5 -112.5l-82 27q44 95 131.5 150t193.5 55q103 0 162.5 -53.5t59.5 -147.5q0 -59 -24 -107t-64 -81.5t-89.5 -63t-103.5 -59
t-102.5 -62t-89.5 -79.5t-62 -103h459l-27 -80h-544z" />
    <glyph glyph-name="uni2083" unicode="&#x2083;" horiz-adv-x="690" 
d="M211 -213q-119 0 -191 63.5t-75 163.5l82 21q6 -80 57 -125t139 -45q91 0 151 51t60 127q0 143 -170 143h-94l29 74h77q91 0 147 53t56 117q0 60 -37.5 92.5t-103.5 32.5q-143 0 -211 -145l-82 24q37 83 122 140t185 57q102 0 162.5 -48t60.5 -137q0 -75 -53.5 -136
t-144.5 -85q69 -12 110 -60t41 -124q0 -103 -92.5 -178.5t-224.5 -75.5z" />
    <glyph glyph-name="uni2084" unicode="&#x2084;" horiz-adv-x="636" 
d="M-70 94l449 529h115l-93 -529h129l-26 -76h-117l-39 -223h-92l39 223h-377zM29 94h280l74 418z" />
    <glyph glyph-name="uni2085" unicode="&#x2085;" horiz-adv-x="712" 
d="M246 -213q-118 0 -187.5 56.5t-72.5 152.5l90 24q-2 -72 46 -113.5t136 -41.5t155.5 71t67.5 177q0 70 -42.5 109.5t-112.5 39.5q-67 0 -123 -33t-86 -88h-86l147 482h453l-27 -80h-366l-103 -322q90 113 225 113q100 0 160 -55t60 -152q0 -146 -98.5 -243t-235.5 -97z
" />
    <glyph glyph-name="uni2086" unicode="&#x2086;" horiz-adv-x="708" 
d="M233 -213q-115 0 -178 67.5t-63 188.5q0 93 34.5 196.5t91.5 190.5t140.5 144t171.5 57q95 0 141.5 -51t51.5 -131l-84 -25q-16 131 -127 131q-98 0 -193.5 -110.5t-142.5 -313.5q35 89 107.5 138.5t160.5 49.5q99 0 154 -53t55 -147q0 -84 -35 -158t-109.5 -124
t-175.5 -50zM82 14q0 -69 43 -109t119 -40q97 0 154 71.5t57 167.5q0 67 -36.5 104.5t-103.5 37.5q-109 0 -171 -68.5t-62 -163.5z" />
    <glyph glyph-name="uni2087" unicode="&#x2087;" horiz-adv-x="559" 
d="M-61 -205l520 748h-436v80h548l-12 -80l-518 -748h-102z" />
    <glyph glyph-name="uni2088" unicode="&#x2088;" horiz-adv-x="727" 
d="M233 -217q-121 0 -189.5 49t-68.5 133q0 93 66 168.5t174 93.5q-64 12 -98.5 50.5t-34.5 95.5q0 101 80.5 179.5t220.5 78.5q106 0 165.5 -45.5t59.5 -124.5q0 -90 -53.5 -154.5t-140.5 -79.5q73 -12 115 -57t42 -113q0 -120 -95.5 -197t-242.5 -77zM74 -18q0 -57 46 -89
t128 -32q101 0 165 53t64 141q0 63 -45.5 99t-126.5 36q-58 0 -104 -20t-72.5 -52t-40.5 -67t-14 -69zM176 381q-2 -53 36 -83t107 -30q92 0 143.5 53.5t51.5 120.5q0 53 -38 83t-105 30q-84 0 -139.5 -48.5t-55.5 -125.5z" />
    <glyph glyph-name="uni2089" unicode="&#x2089;" horiz-adv-x="710" 
d="M373 631q105 0 167 -65.5t62 -196.5q0 -103 -25 -204.5t-71 -186.5t-121.5 -138t-167.5 -53q-105 0 -172 51t-72 127l86 25q2 -51 50.5 -88t121.5 -37q96 0 168 98.5t109 276.5q-33 -68 -96 -114t-140 -46q-107 0 -168 56t-61 153q0 136 92 239t238 103zM141 303
q0 -71 41.5 -110t116.5 -39q99 0 158 77.5t59 167.5q0 68 -40 112t-114 44q-99 0 -160 -76.5t-61 -175.5z" />
    <glyph glyph-name="Euro" unicode="&#x20ac;" horiz-adv-x="1452" 
d="M696 -14q-266 0 -416.5 153t-150.5 410q0 137 37 269.5t109 245.5t169 199.5t225 135.5t269 49q222 0 356 -125.5t148 -337.5l-109 -31q-14 180 -124 288t-289 108q-114 0 -216.5 -39.5t-181.5 -108.5t-137.5 -159t-93.5 -195h602l-35 -82h-590q-16 -82 -18 -123h551
l-35 -82h-520q2 -218 123 -347.5t340 -129.5q178 0 319.5 104.5t220.5 288.5l107 -31q-88 -206 -266 -333t-394 -127z" />
    <glyph glyph-name="trademark" unicode="&#x2122;" horiz-adv-x="1161" 
d="M281 829l94 537h-180l12 68h436l-12 -68h-178l-95 -537h-77zM592 829l106 605h82l113 -463l268 463h92l-106 -605h-78l78 439l-258 -439h-41l-105 424l-73 -424h-78z" />
    <glyph glyph-name="uni2126" unicode="&#x2126;" horiz-adv-x="1576" 
d="M797 94q280 95 448 307.5t168 489.5q0 212 -126 335.5t-351 123.5q-125 0 -235.5 -40t-192 -110t-141 -162t-89.5 -198t-30 -217q0 -190 103 -321t282 -208l-17 -94h-606l17 94h460q-164 82 -259 219.5t-95 321.5q0 160 61 307.5t167 259.5t261 179t332 67
q273 0 425.5 -145.5t152.5 -393.5q0 -274 -159.5 -491.5t-426.5 -323.5h457l-17 -94h-606z" />
    <glyph glyph-name="oneeighth" unicode="&#x215b;" horiz-adv-x="1474" 
d="M125 1212q41 0 67 3t57 15t51 35.5t38 65.5t29 103h92l-146 -828h-92l111 631q-33 -59 -86.5 -86t-136.5 -27zM-29 0l1200 1434h109l-1200 -1434h-109zM758 170q0 93 66 168.5t173 93.5q-64 12 -98.5 50.5t-34.5 95.5q0 101 80.5 179.5t220.5 78.5q106 0 166 -45.5
t60 -124.5q0 -90 -54 -154.5t-141 -79.5q74 -12 116 -57.5t42 -112.5q0 -120 -95.5 -197t-242.5 -77q-121 0 -189.5 49t-68.5 133zM856 186q0 -57 46 -88.5t128 -31.5q101 0 165.5 53t64.5 141q0 63 -45.5 99t-127.5 36q-58 0 -104 -20.5t-72.5 -52.5t-40.5 -67t-14 -69z
M958 586q-2 -53 36.5 -83t107.5 -30q91 0 142.5 53.5t51.5 120.5q0 53 -38 83t-105 30q-84 0 -139.5 -48.5t-55.5 -125.5z" />
    <glyph glyph-name="threeeighths" unicode="&#x215c;" horiz-adv-x="1736" 
d="M354 598q-119 0 -191 63.5t-75 163.5l82 21q6 -80 57.5 -125t139.5 -45q91 0 151 51t60 127q0 143 -170 143h-95l29 74h78q91 0 147 53t56 117q0 60 -37.5 92.5t-104.5 32.5q-143 0 -211 -145l-82 24q37 82 122.5 139.5t185.5 57.5q102 0 162.5 -48t60.5 -137
q0 -75 -54 -136t-145 -85q70 -12 111 -60t41 -124q0 -102 -93 -178t-225 -76zM231 0l1201 1434h108l-1200 -1434h-109zM1020 170q0 93 66 168.5t174 93.5q-64 12 -99 50.5t-35 95.5q0 101 80.5 179.5t220.5 78.5q106 0 166 -45.5t60 -124.5q0 -90 -54 -154.5t-141 -79.5
q74 -12 116 -57.5t42 -112.5q0 -120 -95.5 -197t-242.5 -77q-121 0 -189.5 49t-68.5 133zM1118 186q0 -57 46 -88.5t128 -31.5q101 0 165.5 53t64.5 141q0 63 -45.5 99t-126.5 36q-58 0 -104 -20.5t-73 -52.5t-41 -67t-14 -69zM1221 586q-2 -53 36 -83t107 -30
q92 0 143.5 53.5t51.5 120.5q0 53 -38.5 83t-105.5 30q-84 0 -139 -48.5t-55 -125.5z" />
    <glyph glyph-name="fiveeighths" unicode="&#x215d;" horiz-adv-x="1757" 
d="M391 598q-118 0 -187.5 56.5t-72.5 152.5l90 24q-2 -72 46 -113.5t136 -41.5t156 71.5t68 176.5q0 69 -43 109t-113 40q-67 0 -123 -33t-86 -88h-86l148 482h452l-26 -80h-367l-102 -322q90 113 225 113q100 0 159.5 -55t59.5 -152q0 -146 -98.5 -243t-235.5 -97zM254 0
l1200 1434h109l-1201 -1434h-108zM1040 170q0 93 66 168.5t174 93.5q-64 12 -98.5 50.5t-34.5 95.5q0 101 80.5 179.5t220.5 78.5q106 0 165.5 -45.5t59.5 -124.5q0 -90 -53.5 -154.5t-140.5 -79.5q73 -12 115 -57t42 -113q0 -120 -95.5 -197t-242.5 -77q-121 0 -189.5 49
t-68.5 133zM1139 186q0 -57 46 -88.5t128 -31.5q101 0 165 53t64 141q0 63 -45.5 99t-126.5 36q-58 0 -104 -20.5t-72.5 -52.5t-40.5 -67t-14 -69zM1241 586q-2 -53 36 -83t107 -30q92 0 143.5 53.5t51.5 120.5q0 53 -38 83t-105 30q-84 0 -139.5 -48.5t-55.5 -125.5z" />
    <glyph glyph-name="seveneighths" unicode="&#x215e;" horiz-adv-x="1568" 
d="M113 606l520 748h-436v80h548l-12 -80l-518 -748h-102zM78 0l1200 1434h108l-1200 -1434h-108zM856 170q0 93 66 168.5t174 93.5q-64 12 -98.5 50.5t-34.5 95.5q0 101 80.5 179.5t220.5 78.5q106 0 165.5 -45.5t59.5 -124.5q0 -90 -54 -154.5t-141 -79.5
q74 -12 116 -57.5t42 -112.5q0 -120 -95.5 -197t-242.5 -77q-121 0 -189.5 49t-68.5 133zM954 186q0 -57 46 -88.5t128 -31.5q101 0 165.5 53t64.5 141q0 63 -45.5 99t-126.5 36q-58 0 -104 -20.5t-73 -52.5t-41 -67t-14 -69zM1057 586q-2 -53 36 -83t107 -30
q92 0 143.5 53.5t51.5 120.5q0 53 -38.5 83t-105.5 30q-84 0 -139 -48.5t-55 -125.5z" />
    <glyph glyph-name="arrowleft" unicode="&#x2190;" horiz-adv-x="1558" 
d="M596 201l-74 -64l-436 527l627 532l61 -66l-495 -419h1249l-17 -93h-1255z" />
    <glyph glyph-name="arrowup" unicode="&#x2191;" horiz-adv-x="1179" 
d="M186 844l-55 61l619 529l438 -533l-74 -61l-348 426l-225 -1266h-92l227 1257z" />
    <glyph glyph-name="arrowright" unicode="&#x2192;" horiz-adv-x="1558" 
d="M1012 1114l73 64l437 -527l-627 -532l-61 65l495 420h-1249l16 92h1256z" />
    <glyph glyph-name="arrowdown" unicode="&#x2193;" horiz-adv-x="1177" 
d="M1065 590l55 -62l-618 -528l-439 532l74 62l348 -426l226 1266h92l-228 -1258z" />
    <glyph glyph-name="arrowboth" unicode="&#x2194;" horiz-adv-x="1685" 
d="M522 125l-436 530l621 529l53 -66l-498 -420h1227l-346 420l74 66l432 -529l-623 -530l-53 61l497 420h-1224l352 -420z" />
    <glyph glyph-name="arrowupdn" unicode="&#x2195;" horiz-adv-x="1173" 
d="M496 0l-435 510l74 65l342 -415l197 1114l-488 -414l-51 64l617 510l432 -506l-74 -66l-344 412l-199 -1114l490 411l51 -65z" />
    <glyph glyph-name="uni2196" unicode="&#x2196;" horiz-adv-x="1679" 
d="M934 1081h-582l1186 -886l-49 -72l-1182 883l197 -588l-92 2l-252 751h747z" />
    <glyph glyph-name="uni2197" unicode="&#x2197;" horiz-adv-x="1335" 
d="M608 1081l27 90h747l-252 -751l-92 -2l197 588l-1182 -883l-49 72l1186 886h-582z" />
    <glyph glyph-name="uni2198" unicode="&#x2198;" horiz-adv-x="1329" 
d="M426 94h590l-873 891l72 66l870 -889l13 596h90l-21 -754h-745z" />
    <glyph glyph-name="uni2199" unicode="&#x2199;" horiz-adv-x="1335" 
d="M752 96l-27 -90h-748l252 752l93 2l-197 -588l1182 883l49 -72l-1186 -887h582z" />
    <glyph glyph-name="partialdiff" unicode="&#x2202;" horiz-adv-x="1159" 
d="M483 -8q-179 0 -280 96t-101 266q0 109 37.5 209.5t103.5 177t162 122.5t207 46q133 0 216 -70.5t102 -197.5q12 76 13 148.5t-10.5 144t-35.5 133.5t-65.5 115t-97.5 91t-134 59.5t-172 21.5l25 94q287 0 439 -158.5t152 -447.5q0 -104 -16.5 -212.5t-58 -225
t-103 -206.5t-161 -148t-222.5 -58zM219 371q0 -134 76.5 -211.5t206.5 -77.5q89 0 163.5 40.5t122 107.5t73.5 150t26 171q0 127 -69.5 197.5t-201.5 70.5q-114 0 -206.5 -63.5t-141.5 -165.5t-49 -219z" />
    <glyph glyph-name="emptyset" unicode="&#x2205;" horiz-adv-x="1325" 
d="M592 121q-209 0 -340 130.5t-131 330.5q0 127 54.5 249t145 212.5t214.5 146t256 55.5q209 0 341 -130.5t132 -330.5q0 -127 -54 -248.5t-144.5 -212.5t-215 -146.5t-258.5 -55.5zM229 594q0 -118 54 -209l772 657q-107 113 -281 113q-145 0 -272 -80t-200 -209.5
t-73 -271.5zM332 322q108 -111 276 -111q111 0 213 48t174.5 126.5t116 180.5t43.5 208q0 119 -53 205z" />
    <glyph glyph-name="uni2206" unicode="&#x2206;" horiz-adv-x="1204" 
d="M-70 0l772 1434h121l271 -1434h-1164zM90 96h868l-221 1200z" />
    <glyph glyph-name="product" unicode="&#x220f;" horiz-adv-x="1239" 
d="M707 0l235 1337h-358l-236 -1337h-110l235 1337h-258l16 97h1100l-16 -97h-260l-236 -1337h-112z" />
    <glyph glyph-name="summation" unicode="&#x2211;" horiz-adv-x="1083" 
d="M39 96l498 621l-279 620l18 97h873l-16 -97h-742l279 -620l-498 -621h741l-16 -96h-874z" />
    <glyph glyph-name="minus" unicode="&#x2212;" horiz-adv-x="940" 
d="M113 588l16 92h739l-14 -92h-741z" />
    <glyph glyph-name="uni2219" unicode="&#x2219;" horiz-adv-x="348" 
d="M133 647l31 170h129l-31 -170h-129z" />
    <glyph glyph-name="radical" unicode="&#x221a;" horiz-adv-x="1421" 
d="M385 -205l-129 639h-225l16 92h289l127 -624l936 1532h110l-1001 -1639h-123z" />
    <glyph glyph-name="infinity" unicode="&#x221e;" horiz-adv-x="1646" 
d="M391 324q-97 0 -158 64.5t-61 174.5q0 97 41.5 183.5t118 141t168.5 54.5q53 0 101.5 -20t91 -58t76 -78t71.5 -96q62 57 107 94.5t102 76.5t112.5 58t110.5 19q110 0 178 -64.5t68 -175.5q0 -151 -102.5 -260.5t-250.5 -109.5q-55 0 -104 19t-92.5 57t-76.5 76.5
t-73 94.5q-123 -118 -226 -184.5t-202 -66.5zM258 580q0 -76 41.5 -120t112.5 -44q55 0 120 33t116 74t124 110q-75 105 -139.5 161t-145.5 56q-100 0 -164.5 -81t-64.5 -189zM885 633q38 -50 66 -82t65.5 -65.5t77 -49.5t82.5 -16q99 0 175 74t76 182q0 76 -49.5 124
t-126.5 48q-80 0 -165 -55t-201 -160z" />
    <glyph glyph-name="integral" unicode="&#x222b;" horiz-adv-x="634" 
d="M-39 -109q108 0 157.5 40.5t69.5 150.5l209 1186q28 156 111 224.5t242 68.5l-17 -97q-108 0 -157.5 -40t-69.5 -148l-209 -1186q-29 -158 -111 -226.5t-241 -68.5z" />
    <glyph glyph-name="approxequal" unicode="&#x2248;" horiz-adv-x="1052" 
d="M188 700q35 97 102 155t142 58q40 0 79 -15.5t70 -37.5t59 -44.5t57 -38t55 -15.5q86 0 129 143l84 -22q-27 -98 -85 -152.5t-130 -54.5q-47 0 -94 23.5t-79 51t-72.5 51t-76.5 23.5q-51 0 -93 -39t-67 -110zM129 369q35 97 102 155t142 58q49 0 98 -24t82 -52t71.5 -52
t69.5 -24q42 0 75 37.5t52 105.5l84 -22q-26 -98 -84 -152.5t-131 -54.5q-47 0 -93.5 23.5t-78.5 51.5t-72 51.5t-75 23.5q-51 0 -94 -40t-66 -110z" />
    <glyph glyph-name="notequal" unicode="&#x2260;" horiz-adv-x="952" 
d="M106 147l-57 52l178 194h-139l16 92h207l254 279h-420l17 92h487l225 246l58 -53l-176 -193h145l-14 -92h-215l-256 -279h428l-15 -92h-497z" />
    <glyph glyph-name="lessequal" unicode="&#x2264;" horiz-adv-x="905" 
d="M705 248l-584 297l16 90l4 24l686 293l-18 -106l-576 -246l490 -250zM25 0l16 90h635l-17 -90h-634z" />
    <glyph glyph-name="greaterequal" unicode="&#x2265;" horiz-adv-x="903" 
d="M106 248l21 106l573 248l-487 248l18 102l584 -293l-6 -26l-14 -88zM63 0l17 90h635l-17 -90h-635z" />
    <glyph glyph-name="uni2266" unicode="&#x2266;" horiz-adv-x="970" 
d="M778 356l-592 297l17 103l686 293l-19 -105l-561 -246l484 -243zM82 0l14 90h639l-16 -90h-637zM113 188l14 93h637l-14 -93h-637z" />
    <glyph glyph-name="uni2267" unicode="&#x2267;" horiz-adv-x="976" 
d="M147 356l17 105l559 246l-483 245l16 97l592 -293l-17 -103zM88 0l16 90h637l-14 -90h-639zM121 188l14 93h639l-14 -93h-639z" />
    <glyph glyph-name="uni2460" unicode="&#x2460;" horiz-adv-x="1613" 
d="M715 -14q-265 0 -429.5 165.5t-164.5 423.5q0 167 68 327t181.5 280t272 193t330.5 73q175 0 311 -76t209.5 -210t73.5 -304q0 -134 -43 -264.5t-122.5 -239t-184 -192t-235 -130t-267.5 -46.5zM213 588q0 -228 143 -375t371 -147q149 0 288 65.5t238.5 172.5
t159.5 249.5t60 290.5q0 229 -143.5 376.5t-373.5 147.5q-147 0 -284.5 -65t-237.5 -171.5t-160.5 -250t-60.5 -293.5zM633 834l16 88q42 0 67.5 3t57 15t51 35t37.5 65t29 103h92l-145 -828h-93l111 631q-33 -59 -86.5 -85.5t-136.5 -26.5z" />
    <glyph glyph-name="uni2461" unicode="&#x2461;" horiz-adv-x="1613" 
d="M715 -14q-265 0 -429.5 165.5t-164.5 423.5q0 167 68 327t181.5 280t272 193t330.5 73q175 0 311 -76t209.5 -210t73.5 -304q0 -134 -43 -264.5t-122.5 -239t-184 -192t-235 -130t-267.5 -46.5zM213 588q0 -228 143 -375t371 -147q149 0 288 65.5t238.5 172.5
t159.5 249.5t60 290.5q0 229 -143.5 376.5t-373.5 147.5q-147 0 -284.5 -65t-237.5 -171.5t-160.5 -250t-60.5 -293.5zM502 315l4 23l2 18l2 2q17 75 56 135.5t88 99.5t104 72t107 60.5t94.5 56.5t68 69.5t25.5 90.5q0 64 -37 97.5t-98 33.5q-80 0 -140.5 -41t-93.5 -112
l-82 26q44 95 132 150t194 55q103 0 162 -53.5t59 -147.5q0 -59 -24 -107t-64 -81.5t-89.5 -63t-103.5 -59t-102.5 -62t-89.5 -79.5t-62 -103h459l-26 -80h-545z" />
    <glyph glyph-name="uni2462" unicode="&#x2462;" horiz-adv-x="1613" 
d="M715 -14q-265 0 -429.5 165.5t-164.5 423.5q0 167 68 327t181.5 280t272 193t330.5 73q175 0 311 -76t209.5 -210t73.5 -304q0 -134 -43 -264.5t-122.5 -239t-184 -192t-235 -130t-267.5 -46.5zM213 588q0 -228 143 -375t371 -147q149 0 288 65.5t238.5 172.5
t159.5 249.5t60 290.5q0 229 -143.5 376.5t-373.5 147.5q-147 0 -284.5 -65t-237.5 -171.5t-160.5 -250t-60.5 -293.5zM489 532l82 21q6 -80 57.5 -125t139.5 -45q91 0 151 51t60 127q0 144 -170 144h-94l28 73h78q91 0 147 53t56 117q0 60 -37.5 92.5t-103.5 32.5
q-143 0 -211 -145l-82 24q37 83 122 140t185 57q102 0 162.5 -47.5t60.5 -136.5q0 -75 -53.5 -136.5t-144.5 -85.5q69 -12 110 -60t41 -124q0 -103 -92.5 -178.5t-224.5 -75.5q-119 0 -191.5 63.5t-75.5 163.5z" />
    <glyph glyph-name="uni2463" unicode="&#x2463;" horiz-adv-x="1613" 
d="M715 -14q-265 0 -429.5 165.5t-164.5 423.5q0 167 68 327t181.5 280t272 193t330.5 73q175 0 311 -76t209.5 -210t73.5 -304q0 -134 -43 -264.5t-122.5 -239t-184 -192t-235 -130t-267.5 -46.5zM213 588q0 -228 143 -375t371 -147q149 0 288 65.5t238.5 172.5
t159.5 249.5t60 290.5q0 229 -143.5 376.5t-373.5 147.5q-147 0 -284.5 -65t-237.5 -171.5t-160.5 -250t-60.5 -293.5zM469 537l12 75l449 529h114l-92 -529h129l-26 -75h-117l-39 -224h-92l39 224h-377zM580 612h280l74 418z" />
    <glyph glyph-name="uni2464" unicode="&#x2464;" horiz-adv-x="1613" 
d="M715 -14q-265 0 -429.5 165.5t-164.5 423.5q0 167 68 327t181.5 280t272 193t330.5 73q175 0 311 -76t209.5 -210t73.5 -304q0 -134 -43 -264.5t-122.5 -239t-184 -192t-235 -130t-267.5 -46.5zM213 588q0 -228 143 -375t371 -147q149 0 288 65.5t238.5 172.5
t159.5 249.5t60 290.5q0 229 -143.5 376.5t-373.5 147.5q-147 0 -284.5 -65t-237.5 -171.5t-160.5 -250t-60.5 -293.5zM545 514l90 25q-2 -72 46 -114t136 -42t155.5 71t67.5 177q0 70 -42.5 109.5t-112.5 39.5q-67 0 -123 -33t-86 -88h-86l147 482h453l-27 -80h-366
l-103 -322q90 113 226 113q100 0 159.5 -55t59.5 -152q0 -146 -98.5 -243t-235.5 -97q-118 0 -187.5 56.5t-72.5 152.5z" />
    <glyph glyph-name="uni2465" unicode="&#x2465;" horiz-adv-x="1613" 
d="M715 -14q-265 0 -429.5 165.5t-164.5 423.5q0 167 68 327t181.5 280t272 193t330.5 73q175 0 311 -76t209.5 -210t73.5 -304q0 -134 -43 -264.5t-122.5 -239t-184 -192t-235 -130t-267.5 -46.5zM213 588q0 -228 143 -375t371 -147q149 0 288 65.5t238.5 172.5
t159.5 249.5t60 290.5q0 229 -143.5 376.5t-373.5 147.5q-147 0 -284.5 -65t-237.5 -171.5t-160.5 -250t-60.5 -293.5zM537 561q0 93 34.5 196.5t91.5 190.5t140.5 144t171.5 57q95 0 141 -51t51 -131l-84 -25q-16 131 -127 131q-98 0 -193 -110.5t-142 -313.5
q35 89 107.5 139t160.5 50q99 0 154 -53.5t55 -147.5q0 -84 -35 -158t-109.5 -124t-175.5 -50q-115 0 -178 67.5t-63 188.5zM627 532q0 -69 42.5 -109t118.5 -40q97 0 154 72t57 168q0 67 -36 104t-103 37q-109 0 -171 -68.5t-62 -163.5z" />
    <glyph glyph-name="uni2466" unicode="&#x2466;" horiz-adv-x="1613" 
d="M715 -14q-265 0 -429.5 165.5t-164.5 423.5q0 167 68 327t181.5 280t272 193t330.5 73q175 0 311 -76t209.5 -210t73.5 -304q0 -134 -43 -264.5t-122.5 -239t-184 -192t-235 -130t-267.5 -46.5zM213 588q0 -228 143 -375t371 -147q149 0 288 65.5t238.5 172.5
t159.5 249.5t60 290.5q0 229 -143.5 376.5t-373.5 147.5q-147 0 -284.5 -65t-237.5 -171.5t-160.5 -250t-60.5 -293.5zM532 274l521 748h-437v80h549l-12 -80l-518 -748h-103z" />
    <glyph glyph-name="uni2467" unicode="&#x2467;" horiz-adv-x="1613" 
d="M715 -14q-265 0 -429.5 165.5t-164.5 423.5q0 167 68 327t181.5 280t272 193t330.5 73q175 0 311 -76t209.5 -210t73.5 -304q0 -134 -43 -264.5t-122.5 -239t-184 -192t-235 -130t-267.5 -46.5zM213 588q0 -228 143 -375t371 -147q149 0 288 65.5t238.5 172.5
t159.5 249.5t60 290.5q0 229 -143.5 376.5t-373.5 147.5q-147 0 -284.5 -65t-237.5 -171.5t-160.5 -250t-60.5 -293.5zM512 483q0 93 66 168.5t174 93.5q-64 12 -99 50.5t-35 95.5q0 101 81 179.5t221 78.5q106 0 165.5 -45.5t59.5 -124.5q0 -90 -54 -154.5t-141 -79.5
q74 -12 116 -57.5t42 -112.5q0 -120 -95.5 -197t-242.5 -77q-121 0 -189.5 49t-68.5 133zM610 500q0 -57 46 -89t128 -32q101 0 165.5 53t64.5 141q0 63 -45.5 99.5t-126.5 36.5q-58 0 -104 -20.5t-73 -52.5t-41 -67t-14 -69zM713 899q-2 -53 36 -83t107 -30q91 0 143 54
t52 121q0 53 -38.5 82.5t-105.5 29.5q-84 0 -139 -48.5t-55 -125.5z" />
    <glyph glyph-name="uni2468" unicode="&#x2468;" horiz-adv-x="1613" 
d="M715 -14q-265 0 -429.5 165.5t-164.5 423.5q0 167 68 327t181.5 280t272 193t330.5 73q175 0 311 -76t209.5 -210t73.5 -304q0 -134 -43 -264.5t-122.5 -239t-184 -192t-235 -130t-267.5 -46.5zM213 588q0 -228 143 -375t371 -147q149 0 288 65.5t238.5 172.5
t159.5 249.5t60 290.5q0 229 -143.5 376.5t-373.5 147.5q-147 0 -284.5 -65t-237.5 -171.5t-160.5 -250t-60.5 -293.5zM553 483l86 25q2 -51 50.5 -88t121.5 -37q96 0 167.5 98t108.5 277q-33 -68 -95.5 -114t-139.5 -46q-107 0 -168 56t-61 153q0 136 91.5 239t237.5 103
q105 0 167.5 -65.5t62.5 -196.5q0 -103 -25 -204.5t-71 -186.5t-121.5 -138t-167.5 -53q-105 0 -172 51t-72 127zM721 821q0 -71 41.5 -110t116.5 -39q99 0 158 78t59 168q0 68 -40 111.5t-114 43.5q-99 0 -160 -76.5t-61 -175.5z" />
    <glyph glyph-name="uni24EA" unicode="&#x24ea;" horiz-adv-x="1613" 
d="M715 -14q-265 0 -429.5 165.5t-164.5 423.5q0 167 68 327t181.5 280t272 193t330.5 73q175 0 311 -76t209.5 -210t73.5 -304q0 -134 -43 -264.5t-122.5 -239t-184 -192t-235 -130t-267.5 -46.5zM213 588q0 -228 143 -375t371 -147q149 0 288 65.5t238.5 172.5
t159.5 249.5t60 290.5q0 229 -143.5 376.5t-373.5 147.5q-147 0 -284.5 -65t-237.5 -171.5t-160.5 -250t-60.5 -293.5zM487 602q0 97 26.5 192t75.5 175.5t128.5 130t175.5 49.5q122 0 190 -79.5t68 -221.5q0 -95 -27 -189.5t-76 -174.5t-129 -129.5t-176 -49.5
q-122 0 -189 78.5t-67 218.5zM584 610q0 -108 46 -167.5t130 -59.5q61 0 112.5 33.5t84.5 85t56 115.5t32.5 121.5t9.5 105.5q0 108 -45 167.5t-129 59.5q-62 0 -114.5 -34t-85 -86t-55.5 -116t-32.5 -121t-9.5 -104z" />
    <glyph glyph-name="upblock" unicode="&#x2580;" horiz-adv-x="1650" 
d="M270 1434h1434l-127 -717h-1434z" />
    <glyph glyph-name="dnblock" unicode="&#x2584;" horiz-adv-x="1650" 
d="M145 717h1434l-129 -717h-1434z" />
    <glyph glyph-name="block" unicode="&#x2588;" horiz-adv-x="1652" 
d="M272 1434h1434l-254 -1434h-1434z" />
    <glyph glyph-name="filledbox" unicode="&#x25a0;" horiz-adv-x="1652" 
d="M272 1434h1434l-254 -1434h-1434z" />
    <glyph glyph-name="uni25A1" unicode="&#x25a1;" horiz-adv-x="1652" 
d="M18 0l254 1434h1434l-254 -1434h-1434zM125 84h1249l228 1268h-1250z" />
    <glyph glyph-name="uni25AA" unicode="&#x25aa;" horiz-adv-x="499" 
d="M168 860h287l-52 -287h-286z" />
    <glyph glyph-name="uni25AB" unicode="&#x25ab;" horiz-adv-x="499" 
d="M117 573l51 287h287l-52 -287h-286zM176 625h184l33 184h-184z" />
    <glyph glyph-name="triagup" unicode="&#x25b2;" horiz-adv-x="1628" 
d="M991 1434l449 -1434h-1434z" />
    <glyph glyph-name="triagrt" unicode="&#x25ba;" horiz-adv-x="1640" 
d="M1595 807l-1562 -729l254 1433z" />
    <glyph glyph-name="triagdn" unicode="&#x25bc;" horiz-adv-x="1628" 
d="M707 0l-449 1434h1434z" />
    <glyph glyph-name="triaglf" unicode="&#x25c4;" horiz-adv-x="1640" 
d="M147 807l1561 704l-256 -1433z" />
    <glyph glyph-name="lozenge" unicode="&#x25ca;" horiz-adv-x="899" 
d="M301 0l-166 717l420 717h115l168 -717l-424 -717h-113zM231 707l142 -603l368 623l-141 604z" />
    <glyph glyph-name="circle" unicode="&#x25cb;" horiz-adv-x="1613" 
d="M715 -14q-265 0 -429.5 165.5t-164.5 423.5q0 167 68 327t181.5 280t272 193t330.5 73q175 0 311 -76t209.5 -210t73.5 -304q0 -134 -43 -264.5t-122.5 -239t-184 -192t-235 -130t-267.5 -46.5zM213 588q0 -228 143 -375t371 -147q149 0 288 65.5t238.5 172.5
t159.5 249.5t60 290.5q0 229 -143.5 376.5t-373.5 147.5q-147 0 -284.5 -65t-237.5 -171.5t-160.5 -250t-60.5 -293.5z" />
    <glyph glyph-name="uni25CF" unicode="&#x25cf;" horiz-adv-x="1603" 
d="M709 -14q-260 0 -424 167.5t-164 424.5q0 166 69 325.5t183 279t271.5 192.5t324.5 73q260 0 423.5 -167.5t163.5 -424.5q0 -166 -69 -325t-182.5 -278.5t-271 -193t-324.5 -73.5z" />
    <glyph glyph-name="uni2B0E" unicode="&#x2b0e;" horiz-adv-x="1175" 
d="M498 0l-428 518l71 64l340 -412l140 772h-471l16 84h559l-152 -856l494 414l49 -62z" />
    <glyph glyph-name="uni2B0F" unicode="&#x2b0f;" horiz-adv-x="1177" 
d="M682 1026l434 -520l-74 -64l-346 416l-151 -858h-561l16 86h467l137 772l-487 -412l-49 62z" />
    <glyph glyph-name="uni2B10" unicode="&#x2b10;" horiz-adv-x="1177" 
d="M498 0l-432 522l73 62l344 -414l152 856h561l-16 -84h-467l-138 -770l488 410l51 -64z" />
    <glyph glyph-name="uni2B11" unicode="&#x2b11;" horiz-adv-x="1175" 
d="M678 1026l428 -518l-72 -64l-340 412l-139 -772h471l-16 -84h-559l151 856l-493 -414l-50 62z" />
    <glyph glyph-name="uni2BA0" unicode="&#x2ba0;" horiz-adv-x="1161" 
d="M61 518l611 514l51 -63l-485 -406h780l82 463h84l-82 -463l-17 -92h-862l340 -412l-74 -61z" />
    <glyph glyph-name="uni2BA1" unicode="&#x2ba1;" horiz-adv-x="1159" 
d="M1100 518l-615 -520l-51 61l486 412h-861l19 92l82 463h84l-82 -463h776l-338 406l74 63z" />
    <glyph glyph-name="uni2BA2" unicode="&#x2ba2;" horiz-adv-x="1159" 
d="M61 510l615 520l51 -63l-489 -412h864l-15 -70l-86 -485h-86l82 463h-774l338 -406l-74 -61z" />
    <glyph glyph-name="uni2BA3" unicode="&#x2ba3;" horiz-adv-x="1161" 
d="M1096 508l-611 -514l-51 63l486 406h-781l-82 -463h-84l82 463l17 92h862l-340 412l74 61z" />
    <glyph glyph-name="uni2BA4" unicode="&#x2ba4;" horiz-adv-x="1175" 
d="M672 1028l428 -518l-72 -64l-340 412l-139 -772h471l-16 -84h-560l152 856l-494 -414l-49 62z" />
    <glyph glyph-name="uni2BA5" unicode="&#x2ba5;" horiz-adv-x="1177" 
d="M682 1026l434 -520l-74 -64l-346 416l-151 -858h-561l16 86h467l137 772l-487 -412l-49 62z" />
    <glyph glyph-name="uni2BA6" unicode="&#x2ba6;" horiz-adv-x="1177" 
d="M496 0l-433 522l74 62l344 -414l152 856h561l-16 -84h-467l-138 -770l488 410l51 -64z" />
    <glyph glyph-name="uni2BA7" unicode="&#x2ba7;" horiz-adv-x="1175" 
d="M504 0l-428 518l71 64l340 -412l140 772h-471l16 84h559l-151 -856l493 414l49 -62z" />
    <glyph glyph-name="fi" unicode="&#xfb01;" horiz-adv-x="983" 
d="M287 1186q45 250 293 250h127l-17 -93h-121q-82 0 -121 -39t-57 -128l-26 -150h251l-14 -88h-252l-166 -938h-104l164 938h-138l17 88h135zM641 0l182 1026h107l-182 -1026h-107zM840 1180l28 182h117l-29 -182h-116z" />
    <glyph glyph-name="fl" unicode="&#xfb02;" horiz-adv-x="972" 
d="M287 1186q45 250 293 250h127l-17 -93h-121q-82 0 -121 -39t-57 -128l-26 -150h251l-14 -88h-252l-166 -938h-104l164 938h-138l17 88h135zM631 0l252 1434h106l-252 -1434h-106z" />
    <glyph glyph-name="uniFEFF" unicode="&#xfeff;" horiz-adv-x="1228" 
 />
    <glyph glyph-name="u1F150" unicode="&#x1f150;" horiz-adv-x="1126" 
d="M569 551q-166 0 -271 103t-105 264q0 136 72.5 258.5t197 197t266.5 74.5q166 0 271.5 -103t105.5 -264q0 -136 -73 -258.5t-197.5 -197t-266.5 -74.5z" />
    <glyph glyph-name="Adieresis.ss02" horiz-adv-x="1241" 
d="M846 1434l284 -1434h-110l-82 418h-668l-229 -418h-111l789 1434h127zM324 514h596l-156 801zM604 1669q0 38 27 64t63 26q28 0 46 -17t18 -44q0 -36 -27 -63t-63 -27q-29 0 -46.5 17t-17.5 44zM899 1669q0 38 27 64t63 26q29 0 46.5 -16.5t17.5 -44.5q0 -36 -27 -63
t-63 -27q-29 0 -46.5 17t-17.5 44z" />
    <glyph glyph-name="Edieresis.ss02" horiz-adv-x="1032" 
d="M76 0l252 1434h821l-16 -97h-711l-96 -544h598l-17 -95h-598l-106 -602h710l-16 -96h-821zM588 1667q0 38 27 64t63 26q28 0 45.5 -16.5t17.5 -44.5q0 -36 -27 -63t-63 -27q-29 0 -46 17t-17 44zM883 1667q0 38 27 64t63 26q29 0 46 -16.5t17 -44.5q0 -36 -27 -63
t-63 -27q-29 0 -46 17t-17 44z" />
    <glyph glyph-name="Edotaccent.ss02" horiz-adv-x="1032" 
d="M76 0l252 1434h821l-16 -97h-711l-96 -544h598l-17 -95h-598l-106 -602h710l-16 -96h-821zM729 1673q0 37 30 64.5t68 27.5q31 0 48.5 -17.5t17.5 -47.5q0 -38 -29 -67t-67 -29q-29 0 -48.5 19t-19.5 50z" />
    <glyph glyph-name="uni0122.ss02" horiz-adv-x="1460" 
d="M633 -14q-234 0 -379 156.5t-145 412.5q0 172 59.5 333.5t163 285.5t257 199t329.5 75q225 0 350 -121t139 -323l-111 -27q-16 172 -116 272.5t-283 100.5q-120 0 -227 -43.5t-187 -119t-139 -174.5t-89 -212t-30 -228q0 -217 117.5 -353t316.5 -136q135 0 256.5 64
t210.5 188t121 287h-377l37 94h463l-127 -717h-100l57 326q-96 -156 -245 -248t-322 -92zM528 -408l13 68q41 5 66 25t38 61q-84 6 -84 61q0 38 27.5 62.5t58.5 24.5t51.5 -22t20.5 -62q0 -76 -50.5 -143.5t-140.5 -74.5z" />
    <glyph glyph-name="Idieresis.ss02" horiz-adv-x="442" 
d="M76 0l252 1434h110l-252 -1434h-110zM203 1667q0 38 27 64t63 26q28 0 45.5 -16.5t17.5 -44.5q0 -36 -27 -63t-63 -27q-29 0 -46 17t-17 44zM498 1667q0 38 27 64t63 26q29 0 46 -16.5t17 -44.5q0 -36 -27 -63t-63 -27q-29 0 -46 17t-17 44z" />
    <glyph glyph-name="Idotaccent.ss02" horiz-adv-x="442" 
d="M76 0l252 1434h110l-252 -1434h-110zM344 1673q0 37 30 64.5t68 27.5q30 0 48 -17.5t18 -47.5q0 -38 -29 -67t-67 -29q-30 0 -49 19t-19 50z" />
    <glyph glyph-name="uni0136.ss02" horiz-adv-x="1187" 
d="M76 0l252 1434h110l-155 -887l880 887h131l-637 -643l416 -791h-117l-374 715l-328 -332l-68 -383h-110zM416 -408l12 68q41 5 66 25t38 61q-83 6 -83 61q0 38 27.5 62.5t58.5 24.5t51 -22t20 -62q0 -48 -19.5 -94.5t-64.5 -82.5t-106 -41z" />
    <glyph glyph-name="uni013B.ss02" horiz-adv-x="964" 
d="M76 0l252 1434h110l-235 -1338h667l-16 -96h-778zM356 -408l13 68q41 5 66 25t38 61q-84 6 -84 61q0 38 27.5 62.5t58.5 24.5t51.5 -22t20.5 -62q0 -76 -50.5 -143.5t-140.5 -74.5z" />
    <glyph glyph-name="uni0145.ss02" horiz-adv-x="1421" 
d="M76 0l252 1434h135l620 -1274l226 1274h108l-252 -1434h-121l-632 1300l-228 -1300h-108zM481 -408l13 68q41 5 66 25t38 61q-84 6 -84 61q0 38 27.5 62.5t58.5 24.5t51.5 -22t20.5 -62q0 -76 -50.5 -143.5t-140.5 -74.5z" />
    <glyph glyph-name="Odieresis.ss02" horiz-adv-x="1472" 
d="M645 -14q-249 0 -392.5 152t-143.5 409q0 135 35.5 266t105 245.5t164 201.5t221.5 137.5t268 50.5q248 0 392.5 -152.5t144.5 -408.5q0 -112 -26 -222.5t-73 -210.5t-118.5 -186t-157.5 -148.5t-194.5 -98t-225.5 -35.5zM225 563q0 -219 117.5 -349t319.5 -130
q117 0 223 45.5t184.5 123t136.5 177.5t87.5 212.5t29.5 225.5q0 220 -117.5 351t-320.5 131q-119 0 -225 -45.5t-184 -123.5t-135.5 -178.5t-86.5 -213.5t-29 -226zM721 1667q0 38 27 64t63 26q28 0 45.5 -16.5t17.5 -44.5q0 -36 -27 -63t-63 -27q-29 0 -46 17t-17 44z
M1016 1667q0 38 27 64t63 26q29 0 46 -16.5t17 -44.5q0 -36 -27 -63t-63 -27q-29 0 -46 17t-17 44z" />
    <glyph glyph-name="uni0156.ss02" horiz-adv-x="1173" 
d="M76 0l252 1434h438q195 0 304.5 -85t109.5 -241q0 -97 -35 -183.5t-91.5 -147t-124 -100.5t-136.5 -54l239 -623h-112l-230 598h-399l-105 -598h-110zM309 694h359q173 0 283 114t110 275q0 123 -87 188.5t-247 65.5h-305zM367 -408l12 68q41 5 66 25t38 61q-84 6 -84 61
q0 38 27.5 62.5t58.5 24.5t51.5 -22t20.5 -62q0 -48 -19.5 -94.5t-64.5 -82.5t-106 -41z" />
    <glyph glyph-name="uni0218.ss02" horiz-adv-x="1144" 
d="M545 -10q-114 0 -210 32.5t-159.5 88.5t-100 130t-38.5 158l104 29q5 -152 117 -248t299 -96q95 0 180.5 34.5t143 107t57.5 169.5q0 102 -60 164.5t-180 102.5l-192 67q-73 25 -123 50t-93 61.5t-64 87t-21 116.5q0 119 69.5 213t179 142.5t234.5 48.5q110 0 196 -27.5
t139.5 -75.5t84 -104.5t41.5 -122.5l-107 -26q-51 260 -378 260q-135 0 -240 -83t-105 -204q0 -49 15 -86.5t48 -65t71.5 -46.5t97.5 -40l205 -73q141 -49 218 -127.5t77 -208.5q0 -102 -43 -185t-114.5 -135t-161 -80t-187.5 -28zM391 -408l12 68q42 5 67 25t38 61
q-84 6 -84 61q0 38 27.5 62.5t58.5 24.5t51.5 -22t20.5 -62q0 -76 -50.5 -143.5t-140.5 -74.5z" />
    <glyph glyph-name="uni021A.ss02" horiz-adv-x="1150" 
d="M430 0l236 1337h-484l19 97h1073l-17 -97h-481l-235 -1337h-111zM354 -408l13 68q41 5 66 25t38 61q-84 6 -84 61q0 38 27.5 62.5t58.5 24.5t51.5 -22t20.5 -62q0 -76 -50.5 -143.5t-140.5 -74.5z" />
    <glyph glyph-name="Udieresis.ss02" horiz-adv-x="1417" 
d="M616 -14q-264 0 -382 144.5t-72 408.5l157 895h111l-158 -895q-39 -230 54 -342.5t307 -112.5q213 0 348.5 118t173.5 337l156 895h110l-157 -895q-46 -266 -214.5 -409.5t-433.5 -143.5zM702 1667q0 37 27.5 63.5t63.5 26.5q28 0 45.5 -16.5t17.5 -44.5q0 -36 -27 -63
t-63 -27q-29 0 -46.5 17t-17.5 44zM997 1667q0 38 27 64t63 26q29 0 46.5 -16.5t17.5 -44.5q0 -36 -27 -63t-63 -27q-29 0 -46.5 17t-17.5 44z" />
    <glyph glyph-name="Wdieresis.ss02" horiz-adv-x="1849" 
d="M352 0l-155 1434h104l139 -1274l602 1274h107l162 -1266l555 1266h110l-628 -1434h-113l-164 1286l-604 -1286h-115zM913 1667q0 37 27.5 63.5t63.5 26.5q28 0 45.5 -16.5t17.5 -44.5q0 -36 -27 -63t-63 -27q-29 0 -46.5 17t-17.5 44zM1208 1667q0 38 27 64t63 26
q29 0 46.5 -16.5t17.5 -44.5q0 -36 -27 -63t-63 -27q-29 0 -46.5 17t-17.5 44z" />
    <glyph glyph-name="Ydieresis.ss02" horiz-adv-x="1048" 
d="M498 678l-328 756h115l282 -658l514 658h121l-594 -756l-119 -678h-110zM506 1667q0 38 27 64t63 26q28 0 45.5 -16.5t17.5 -44.5q0 -36 -27 -63t-63 -27q-29 0 -46 17t-17 44zM801 1667q0 38 27 64t63 26q29 0 46 -16.5t17 -44.5q0 -36 -27 -63t-63 -27q-29 0 -46 17
t-17 44z" />
    <glyph glyph-name="Zdotaccent.ss02" horiz-adv-x="1150" 
d="M-35 96l1145 1241h-911l16 97h1045l-17 -97l-1145 -1241h942l-16 -96h-1075zM694 1673q0 36 30 64t69 28q30 0 47.5 -17.5t17.5 -47.5q0 -38 -29 -67t-67 -29q-30 0 -49 19t-19 50z" />
    <glyph glyph-name="i.loclTRK" horiz-adv-x="395" 
d="M53 0l183 1026h106l-182 -1026h-107zM252 1180l29 182h116l-28 -182h-117z" />
    <glyph glyph-name="i.latn_TRK" horiz-adv-x="395" 
d="M53 0l183 1026h106l-182 -1026h-107zM252 1180l29 182h116l-28 -182h-117z" />
    <glyph glyph-name="a.ss01" horiz-adv-x="1134" 
d="M793 0l51 289q-70 -138 -183 -220.5t-251 -82.5q-165 0 -262 103.5t-97 285.5q0 127 41 248t111 213t170.5 148t212.5 56q140 0 226.5 -83.5t109.5 -223.5l51 293h106l-180 -1026h-106zM164 395q0 -155 71 -237t205 -82q120 0 223.5 80.5t160.5 203t57 250.5
q0 151 -79.5 245.5t-203.5 94.5q-128 0 -229.5 -83t-153 -208.5t-51.5 -263.5z" />
    <glyph glyph-name="aacute.ss01" horiz-adv-x="1134" 
d="M793 0l51 289q-70 -138 -183 -220.5t-251 -82.5q-165 0 -262 103.5t-97 285.5q0 127 41 248t111 213t170.5 148t212.5 56q140 0 226.5 -83.5t109.5 -223.5l51 293h106l-180 -1026h-106zM164 395q0 -155 71 -237t205 -82q120 0 223.5 80.5t160.5 203t57 250.5
q0 151 -79.5 245.5t-203.5 94.5q-128 0 -229.5 -83t-153 -208.5t-51.5 -263.5zM559 1145l148 235h122l-178 -235h-92z" />
    <glyph glyph-name="abreve.ss01" horiz-adv-x="1134" 
d="M793 0l51 289q-70 -138 -183 -220.5t-251 -82.5q-165 0 -262 103.5t-97 285.5q0 127 41 248t111 213t170.5 148t212.5 56q140 0 226.5 -83.5t109.5 -223.5l51 293h106l-180 -1026h-106zM164 395q0 -155 71 -237t205 -82q120 0 223.5 80.5t160.5 203t57 250.5
q0 151 -79.5 245.5t-203.5 94.5q-128 0 -229.5 -83t-153 -208.5t-51.5 -263.5zM453 1382h88q-13 -83 19.5 -131.5t101.5 -48.5q68 0 117.5 48.5t62.5 131.5h88q-20 -118 -97 -188t-186 -70t-161.5 70t-32.5 188z" />
    <glyph glyph-name="acircumflex.ss01" horiz-adv-x="1134" 
d="M793 0l51 289q-70 -138 -183 -220.5t-251 -82.5q-165 0 -262 103.5t-97 285.5q0 127 41 248t111 213t170.5 148t212.5 56q140 0 226.5 -83.5t109.5 -223.5l51 293h106l-180 -1026h-106zM164 395q0 -155 71 -237t205 -82q120 0 223.5 80.5t160.5 203t57 250.5
q0 151 -79.5 245.5t-203.5 94.5q-128 0 -229.5 -83t-153 -208.5t-51.5 -263.5zM406 1145l225 235h114l142 -235h-107l-98 174l-162 -174h-114z" />
    <glyph glyph-name="adieresis.ss01" horiz-adv-x="1134" 
d="M793 0l51 289q-70 -138 -183 -220.5t-251 -82.5q-165 0 -262 103.5t-97 285.5q0 127 41 248t111 213t170.5 148t212.5 56q140 0 226.5 -83.5t109.5 -223.5l51 293h106l-180 -1026h-106zM164 395q0 -155 71 -237t205 -82q120 0 223.5 80.5t160.5 203t57 250.5
q0 151 -79.5 245.5t-203.5 94.5q-128 0 -229.5 -83t-153 -208.5t-51.5 -263.5zM463 1180l31 182h102l-31 -182h-102zM733 1180l31 182h102l-30 -182h-103z" />
    <glyph glyph-name="agrave.ss01" horiz-adv-x="1134" 
d="M793 0l51 289q-70 -138 -183 -220.5t-251 -82.5q-165 0 -262 103.5t-97 285.5q0 127 41 248t111 213t170.5 148t212.5 56q140 0 226.5 -83.5t109.5 -223.5l51 293h106l-180 -1026h-106zM164 395q0 -155 71 -237t205 -82q120 0 223.5 80.5t160.5 203t57 250.5
q0 151 -79.5 245.5t-203.5 94.5q-128 0 -229.5 -83t-153 -208.5t-51.5 -263.5zM539 1380h118l64 -235h-90z" />
    <glyph glyph-name="amacron.ss01" horiz-adv-x="1134" 
d="M793 0l51 289q-70 -138 -183 -220.5t-251 -82.5q-165 0 -262 103.5t-97 285.5q0 127 41 248t111 213t170.5 148t212.5 56q140 0 226.5 -83.5t109.5 -223.5l51 293h106l-180 -1026h-106zM164 395q0 -155 71 -237t205 -82q120 0 223.5 80.5t160.5 203t57 250.5
q0 151 -79.5 245.5t-203.5 94.5q-128 0 -229.5 -83t-153 -208.5t-51.5 -263.5zM436 1198l15 80h460l-16 -80h-459z" />
    <glyph glyph-name="aogonek.ss01" horiz-adv-x="1134" 
d="M793 0l51 289q-70 -138 -183 -220.5t-251 -82.5q-165 0 -262 103.5t-97 285.5q0 127 41 248t111 213t170.5 148t212.5 56q140 0 226.5 -83.5t109.5 -223.5l51 293h106l-180 -1026h-20q-129 -113 -129 -205q0 -40 26 -64t70 -24q28 0 61 10l23 -65q-51 -33 -117 -33
q-67 0 -107 36.5t-40 100.5q0 67 33.5 124.5t97.5 119.5h-4zM164 395q0 -155 71 -237t205 -82q120 0 223.5 80.5t160.5 203t57 250.5q0 151 -79.5 245.5t-203.5 94.5q-128 0 -229.5 -83t-153 -208.5t-51.5 -263.5z" />
    <glyph glyph-name="aring.ss01" horiz-adv-x="1134" 
d="M793 0l51 289q-70 -138 -183 -220.5t-251 -82.5q-165 0 -262 103.5t-97 285.5q0 127 41 248t111 213t170.5 148t212.5 56q140 0 226.5 -83.5t109.5 -223.5l51 293h106l-180 -1026h-106zM164 395q0 -155 71 -237t205 -82q120 0 223.5 80.5t160.5 203t57 250.5
q0 151 -79.5 245.5t-203.5 94.5q-128 0 -229.5 -83t-153 -208.5t-51.5 -263.5zM518 1235q0 75 49.5 127.5t132.5 52.5q62 0 95.5 -30t33.5 -85q0 -81 -50.5 -131.5t-129.5 -50.5q-62 0 -96.5 31t-34.5 86zM590 1247q0 -30 18.5 -47.5t50.5 -17.5q43 0 70 31.5t27 76.5
q0 28 -17 45t-49 17q-44 0 -72 -30t-28 -75z" />
    <glyph glyph-name="atilde.ss01" horiz-adv-x="1134" 
d="M793 0l51 289q-70 -138 -183 -220.5t-251 -82.5q-165 0 -262 103.5t-97 285.5q0 127 41 248t111 213t170.5 148t212.5 56q140 0 226.5 -83.5t109.5 -223.5l51 293h106l-180 -1026h-106zM164 395q0 -155 71 -237t205 -82q120 0 223.5 80.5t160.5 203t57 250.5
q0 151 -79.5 245.5t-203.5 94.5q-128 0 -229.5 -83t-153 -208.5t-51.5 -263.5zM399 1190q48 158 172 158q38 0 70 -17t50.5 -37.5t45.5 -37.5t56 -17q64 0 86 104l69 -28q-37 -156 -157 -156q-38 0 -71.5 17t-53 37.5t-46.5 37.5t-53 17q-61 0 -96 -107z" />
    <glyph glyph-name="adieresis.ss02" horiz-adv-x="1007" 
d="M807 686q5 40 5 78.5t-15 72t-40 59t-70 40t-105 14.5q-120 0 -209.5 -56t-141.5 -159l-96 29q61 123 184 199.5t283 76.5q178 0 258.5 -89t50.5 -263l-120 -688h-105l39 217q-70 -109 -189 -170t-245 -61q-125 0 -203 59t-78 164q0 88 36.5 154.5t103.5 108t151.5 64.5
t190.5 31q151 12 228 36.5t87 82.5zM127 231q0 -81 60.5 -120t152.5 -39q147 0 270.5 102.5t153.5 269.5l24 134q-77 -74 -282 -91q-68 -5 -119 -14t-102.5 -27t-84 -45t-53 -70t-20.5 -100zM420 1260q0 38 27 64t63 26q28 0 45.5 -17t17.5 -45q0 -36 -27 -63t-63 -27
q-29 0 -46 17.5t-17 44.5zM715 1260q0 38 27 64t63 26q29 0 46 -17t17 -45q0 -36 -27 -63t-63 -27q-29 0 -46 17.5t-17 44.5z" />
    <glyph glyph-name="cdotaccent.ss02" horiz-adv-x="1024" 
d="M461 -14q-177 0 -292.5 109.5t-115.5 299.5q0 124 42.5 240.5t117 206.5t185.5 144t239 54q156 0 251 -88.5t107 -234.5l-102 -31q-12 126 -85.5 195t-195.5 69q-129 0 -233.5 -81t-158.5 -203t-54 -254q0 -157 88.5 -246.5t222.5 -89.5q120 0 214.5 74t154.5 194l94 -29
q-71 -146 -195 -237.5t-284 -91.5zM592 1266q0 37 30 64.5t68 27.5q30 0 48 -18t18 -48q0 -38 -29.5 -67t-67.5 -29q-29 0 -48 19.5t-19 50.5z" />
    <glyph glyph-name="edieresis.ss02" horiz-adv-x="1052" 
d="M469 -14q-193 0 -304.5 107.5t-111.5 303.5q0 121 42 237t115.5 206t183 145t235.5 55q171 0 268.5 -100t97.5 -260q0 -88 -28 -164h-797q-8 -47 -8 -104q0 -162 86.5 -249t234.5 -87q122 0 212.5 70.5t148.5 175.5l98 -29q-63 -128 -188 -217.5t-285 -89.5zM190 600h689
q6 34 6 68q0 131 -72.5 207.5t-202.5 76.5q-150 0 -261 -99.5t-159 -252.5zM467 1260q0 38 27 64t63 26q28 0 46 -17t18 -45q0 -36 -27.5 -63t-63.5 -27q-29 0 -46 17.5t-17 44.5zM762 1260q0 38 27 64t63 26q29 0 46 -17t17 -45q0 -36 -27 -63t-63 -27q-29 0 -46 17.5
t-17 44.5z" />
    <glyph glyph-name="edotaccent.ss02" horiz-adv-x="1052" 
d="M469 -14q-193 0 -304.5 107.5t-111.5 303.5q0 121 42 237t115.5 206t183 145t235.5 55q171 0 268.5 -100t97.5 -260q0 -88 -28 -164h-797q-8 -47 -8 -104q0 -162 86.5 -249t234.5 -87q122 0 212.5 70.5t148.5 175.5l98 -29q-63 -128 -188 -217.5t-285 -89.5zM190 600h689
q6 34 6 68q0 131 -72.5 207.5t-202.5 76.5q-150 0 -261 -99.5t-159 -252.5zM608 1266q0 36 30 64t69 28q30 0 47.5 -18t17.5 -48q0 -38 -29 -67t-67 -29q-29 0 -48.5 19.5t-19.5 50.5z" />
    <glyph glyph-name="uni0123.ss02" horiz-adv-x="1128" 
d="M399 -424q-179 0 -277.5 85.5t-103.5 238.5l99 26q5 -126 81 -193t218 -67q148 0 245.5 86t124.5 248l52 291q-69 -138 -182.5 -221.5t-252.5 -83.5q-165 0 -261.5 103.5t-96.5 285.5q0 127 41 248t111 213t170.5 148t212.5 56q142 0 228 -84.5t107 -226.5l54 297h104
l-178 -1022q-38 -209 -167 -318.5t-329 -109.5zM158 395q0 -155 71 -237t205 -82q120 0 223.5 80.5t160 203t56.5 250.5q0 151 -79 245.5t-203 94.5q-128 0 -229.5 -83t-153 -208.5t-51.5 -263.5zM588 1221q0 76 50 143t140 74l-12 -68q-41 -5 -66 -25t-38 -61q83 -6 83 -61
q0 -38 -27.5 -62t-58.5 -24t-51 22t-20 62z" />
    <glyph glyph-name="gdotaccent.ss02" horiz-adv-x="1128" 
d="M399 -424q-179 0 -277.5 85.5t-103.5 238.5l99 26q5 -126 81 -193t218 -67q148 0 245.5 86t124.5 248l52 291q-69 -138 -182.5 -221.5t-252.5 -83.5q-165 0 -261.5 103.5t-96.5 285.5q0 127 41 248t111 213t170.5 148t212.5 56q142 0 228 -84.5t107 -226.5l54 297h104
l-178 -1022q-38 -209 -167 -318.5t-329 -109.5zM158 395q0 -155 71 -237t205 -82q120 0 223.5 80.5t160 203t56.5 250.5q0 151 -79 245.5t-203 94.5q-128 0 -229.5 -83t-153 -208.5t-51.5 -263.5zM594 1266q0 37 30 64.5t68 27.5q30 0 48 -18t18 -48q0 -38 -29 -67t-67 -29
q-29 0 -48.5 19.5t-19.5 50.5z" />
    <glyph glyph-name="i.ss02" horiz-adv-x="395" 
d="M53 0l183 1026h106l-182 -1026h-107zM250 1266q0 37 30 64.5t68 27.5q30 0 48 -18t18 -48q0 -38 -29.5 -67t-67.5 -29q-29 0 -48 19.5t-19 50.5z" />
    <glyph glyph-name="idieresis.ss02" horiz-adv-x="395" 
d="M53 0l183 1026h106l-182 -1026h-107zM109 1260q0 38 27 64t63 26q28 0 45.5 -17t17.5 -45q0 -36 -27 -63t-63 -27q-29 0 -46 17.5t-17 44.5zM403 1260q0 37 27.5 63.5t63.5 26.5q29 0 46 -17t17 -45q0 -36 -27 -63t-63 -27q-29 0 -46.5 17.5t-17.5 44.5z" />
    <glyph glyph-name="iogonek.ss02" horiz-adv-x="395" 
d="M53 0l183 1026h106l-182 -1026h-25q-129 -113 -129 -205q0 -40 26 -64t70 -24q29 0 62 10l22 -65q-51 -33 -116 -33q-67 0 -107.5 36.5t-40.5 100.5q0 67 33.5 124.5t97.5 119.5zM250 1266q0 37 30 64.5t68 27.5q30 0 48 -18t18 -48q0 -38 -29.5 -67t-67.5 -29
q-29 0 -48 19.5t-19 50.5z" />
    <glyph glyph-name="j.ss02" horiz-adv-x="397" 
d="M-225 -410l14 93h64q82 0 121 39t57 128l207 1176h104l-207 -1186q-45 -250 -293 -250h-67zM252 1266q0 37 30 64.5t68 27.5q30 0 48 -18t18 -48q0 -38 -29.5 -67t-67.5 -29q-29 0 -48 19.5t-19 50.5z" />
    <glyph glyph-name="uni0137.ss02" horiz-adv-x="911" 
d="M55 0l252 1434h107l-160 -910l604 502h139l-553 -461l373 -565h-117l-331 502l-140 -117l-67 -385h-107zM276 -408l13 68q41 5 66 25t38 61q-84 6 -84 61q0 38 27.5 62.5t58.5 24.5t51.5 -22t20.5 -62q0 -76 -50.5 -143.5t-140.5 -74.5z" />
    <glyph glyph-name="uni013C.ss02" horiz-adv-x="395" 
d="M55 0l252 1434h107l-252 -1434h-107zM-23 -408l13 68q41 5 66 25t38 61q-84 6 -84 61q0 38 27.5 62.5t58.5 24.5t51.5 -22t20.5 -62q0 -76 -50.5 -143.5t-140.5 -74.5z" />
    <glyph glyph-name="uni0146.ss02" horiz-adv-x="1073" 
d="M53 0l183 1026h106l-49 -281q78 133 196.5 214t260.5 81q132 0 194.5 -85.5t32.5 -258.5l-123 -696h-106l120 690q23 137 -23.5 199.5t-144.5 62.5q-102 0 -197.5 -66t-160 -166.5t-92.5 -213.5l-90 -506h-107zM324 -408l12 68q41 5 66 25t38 61q-84 6 -84 61
q0 38 27.5 62.5t58.5 24.5t51.5 -22t20.5 -62q0 -48 -19.5 -94.5t-64.5 -82.5t-106 -41z" />
    <glyph glyph-name="odieresis.ss02" horiz-adv-x="1087" 
d="M451 -14q-177 0 -287.5 110.5t-110.5 298.5q0 124 44 241.5t120 206.5t186 143t234 54q177 0 287 -110.5t110 -298.5q0 -100 -28 -196t-80.5 -176.5t-123 -142t-161.5 -96t-190 -34.5zM166 401q0 -154 82.5 -239.5t218.5 -85.5q104 0 191.5 49t144 128t88 176.5
t31.5 197.5q0 152 -81.5 237.5t-219.5 85.5q-104 0 -191.5 -48.5t-144 -127.5t-88 -176.5t-31.5 -196.5zM453 1260q0 38 27 64t63 26q28 0 45.5 -17t17.5 -45q0 -36 -27 -63t-63 -27q-29 0 -46 17.5t-17 44.5zM748 1260q0 38 27 64t63 26q29 0 46 -17t17 -45q0 -36 -27 -63
t-63 -27q-29 0 -46 17.5t-17 44.5z" />
    <glyph glyph-name="uni0157.ss02" horiz-adv-x="610" 
d="M53 0l183 1026h106l-45 -254q66 124 164.5 196t212.5 72h4l-19 -110q-144 0 -255 -103.5t-148 -287.5l-96 -539h-107zM-23 -408l13 68q41 5 66 25t38 61q-84 6 -84 61q0 38 27.5 62.5t58.5 24.5t51.5 -22t20.5 -62q0 -76 -50.5 -143.5t-140.5 -74.5z" />
    <glyph glyph-name="uni0219.ss02" horiz-adv-x="913" 
d="M408 -14q-181 0 -284.5 86t-119.5 215l100 26q10 -51 29.5 -90.5t55 -74t94 -53.5t137.5 -19q131 0 208 59.5t77 153.5q0 76 -46.5 114t-146.5 66l-154 39q-114 31 -171.5 83t-57.5 154q0 127 110 211t277 84q159 0 249 -74.5t109 -189.5l-98 -26q-15 91 -82 146.5
t-192 55.5q-118 0 -194.5 -53t-76.5 -143q0 -65 40.5 -101.5t129.5 -60.5l168 -45q123 -33 181.5 -86.5t58.5 -155.5q0 -140 -107 -230.5t-294 -90.5zM283 -408l12 68q41 5 66 25t38 61q-84 6 -84 61q0 38 27.5 62.5t58.5 24.5t51.5 -22t20.5 -62q0 -48 -19.5 -94.5
t-64.5 -82.5t-106 -41z" />
    <glyph glyph-name="uni021B.ss02" horiz-adv-x="552" 
d="M319 0q-116 0 -170 66.5t-34 183.5l121 688h-127l16 88h127l39 221l119 66l-52 -287h258l-14 -88h-258l-121 -678q-14 -78 17 -123t100 -45h113l-17 -92h-117zM188 -408l13 68q41 5 66 25t38 61q-84 6 -84 61q0 38 27.5 62.5t58.5 24.5t51.5 -22t20.5 -62
q0 -76 -50.5 -143.5t-140.5 -74.5z" />
    <glyph glyph-name="udieresis.ss02" horiz-adv-x="1073" 
d="M1020 1026l-182 -1026h-107l49 281q-78 -133 -196 -214t-260 -81q-132 0 -195 85.5t-33 258.5l123 696h107l-121 -690q-23 -137 23.5 -199.5t144.5 -62.5q102 0 197.5 66t160 166.5t92.5 213.5l90 506h107zM483 1260q0 38 27 64t63 26q28 0 46 -17t18 -45q0 -36 -27 -63
t-63 -27q-29 0 -46.5 17.5t-17.5 44.5zM778 1260q0 38 27 64t63 26q29 0 46.5 -17t17.5 -45q0 -36 -27 -63t-63 -27q-29 0 -46.5 17.5t-17.5 44.5z" />
    <glyph glyph-name="wdieresis.ss02" horiz-adv-x="1368" 
d="M231 0l-118 1026h96l100 -881l412 881h98l101 -881l413 881h105l-484 -1026h-102l-104 885l-414 -885h-103zM592 1260q0 38 27 64t63 26q28 0 45.5 -17t17.5 -45q0 -36 -27 -63t-63 -27q-29 0 -46 17.5t-17 44.5zM887 1260q0 38 27 64t63 26q29 0 46 -17t17 -45
q0 -36 -27 -63t-63 -27q-29 0 -46 17.5t-17 44.5z" />
    <glyph glyph-name="ydieresis.ss02" horiz-adv-x="915" 
d="M-76 -410l15 93h86q73 0 120 32t84 99l95 172l-228 1040h99l198 -911l498 911h108l-659 -1204q-27 -49 -49.5 -82.5t-52.5 -63.5t-63.5 -48t-78 -28t-100.5 -10h-72zM375 1260q0 38 27 64t63 26q28 0 45.5 -17t17.5 -45q0 -36 -27 -63t-63 -27q-29 0 -46 17.5t-17 44.5z
M670 1260q0 38 27 64t63 26q29 0 46 -17t17 -45q0 -36 -27 -63t-63 -27q-29 0 -46 17.5t-17 44.5z" />
    <glyph glyph-name="zdotaccent.ss02" horiz-adv-x="821" 
d="M-61 0l14 88l778 850h-610l14 88h735l-14 -86l-778 -852h639l-17 -88h-761zM481 1266q0 36 30 64t69 28q30 0 47.5 -18t17.5 -48q0 -38 -29 -67t-67 -29q-29 0 -48.5 19.5t-19.5 50.5z" />
    <glyph glyph-name="i.latn_TRK.ss02" horiz-adv-x="395" 
d="M53 0l183 1026h106l-182 -1026h-107zM250 1266q0 37 30 64.5t68 27.5q30 0 48 -18t18 -48q0 -38 -29.5 -67t-67.5 -29q-29 0 -48 19.5t-19 50.5z" />
    <glyph glyph-name="adieresis.ss01.ss02" horiz-adv-x="1134" 
d="M793 0l51 289q-70 -138 -183 -220.5t-251 -82.5q-165 0 -262 103.5t-97 285.5q0 127 41 248t111 213t170.5 148t212.5 56q140 0 226.5 -83.5t109.5 -223.5l51 293h106l-180 -1026h-106zM164 395q0 -155 71 -237t205 -82q120 0 223.5 80.5t160.5 203t57 250.5
q0 151 -79.5 245.5t-203.5 94.5q-128 0 -229.5 -83t-153 -208.5t-51.5 -263.5zM451 1260q0 38 27 64t63 26q28 0 45.5 -17t17.5 -45q0 -36 -27 -63t-63 -27q-29 0 -46 17.5t-17 44.5zM745 1260q0 37 27.5 63.5t63.5 26.5q29 0 46 -17t17 -45q0 -36 -27 -63t-63 -27
q-29 0 -46.5 17.5t-17.5 44.5z" />
    <glyph glyph-name="s_s" horiz-adv-x="1923" 
d="M1395 -14q-61 0 -109.5 9.5t-86 26.5t-68.5 47.5t-55 65.5t-48.5 88t-45.5 107t-49 130q-9 24 -13 36q-97 267 -177 361.5t-217 94.5q-130 0 -220.5 -64.5t-90.5 -168.5q0 -61 45.5 -92t126.5 -45l201 -35q122 -23 181.5 -75t59.5 -138q0 -147 -119.5 -247.5
t-308.5 -100.5q-165 0 -271 85.5t-126 211.5l111 26q21 -100 98 -167.5t207 -67.5q136 0 219.5 68t85.5 165q0 61 -48.5 97.5t-146.5 54.5l-186 33q-112 20 -171.5 67t-59.5 135q0 149 125 247.5t307 98.5q53 0 96.5 -10t79 -28.5t67 -51t57 -70.5t52 -95.5t49 -116
t51.5 -142.5q29 -85 51.5 -142.5t51 -112.5t58 -88.5t67.5 -60t84 -37.5t104 -11q136 0 219.5 68t85.5 165q3 117 -194 152l-187 33q-112 20 -171.5 67t-59.5 135q0 149 125 247.5t307 98.5q152 0 249.5 -73t108.5 -189l-104 -26q-7 92 -83 146t-189 54q-130 0 -220 -64.5
t-90 -168.5q0 -61 44.5 -92.5t125.5 -44.5l201 -35q122 -23 182 -75t60 -138q0 -147 -119.5 -247.5t-308.5 -100.5z" />
    <glyph glyph-name="w_w_w" horiz-adv-x="3833" 
d="M231 0l-118 1026h96l100 -881l412 881h98l101 -881l413 881h109l100 -881l412 881h98l100 -881l414 881h109l100 -881l412 881h98l100 -881l414 881h104l-483 -1026h-102l-105 885l-413 -885h-103l-100 868l-410 -868h-102l-105 885l-413 -885h-103l-100 868l-410 -868
h-102l-104 885l-414 -885h-103z" />
    <glyph glyph-name="f_f_i.ss02" horiz-adv-x="1511" 
d="M1145 0l182 1026h107l-183 -1026h-106zM80 0l164 938h-138l17 88h135l29 160q45 250 293 250h127l-17 -93h-121q-82 0 -121 -39t-57 -128l-26 -150h413l29 160q45 250 293 250h127l-17 -93h-120q-82 0 -121.5 -39t-57.5 -128l-26 -150h252l-15 -88h-252l-165 -938h-105
l164 938h-414l-166 -938h-104zM1341 1266q0 36 30 64t69 28q30 0 47.5 -18t17.5 -48q0 -38 -29 -67t-67 -29q-29 0 -48.5 19.5t-19.5 50.5z" />
    <glyph glyph-name="f_i.ss02" horiz-adv-x="1009" 
d="M287 1186q45 250 293 250h127l-17 -93h-121q-82 0 -121 -39t-57 -128l-26 -150h251l-14 -88h-252l-166 -938h-104l164 938h-138l17 88h135zM641 0l182 1026h107l-182 -1026h-107zM838 1266q0 37 30 64.5t68 27.5q30 0 47.5 -18t17.5 -48q0 -38 -29 -67t-67 -29
q-29 0 -48 19.5t-19 50.5z" />
    <glyph glyph-name="zero.zero" horiz-adv-x="1177" 
d="M496 -14q-186 0 -288 127.5t-102 361.5q0 96 16.5 201t48.5 215.5t86.5 209.5t123.5 177t165.5 124t207.5 46q184 0 286.5 -129t102.5 -367q0 -81 -11.5 -169t-36.5 -182.5t-61.5 -182.5t-90 -167t-117.5 -137.5t-149 -93t-181 -34.5zM223 485q0 -108 29 -200l698 956
q-74 109 -215 109q-107 0 -196.5 -62.5t-146.5 -158t-96.5 -214.5t-56 -228t-16.5 -202zM291 201q75 -117 221 -117q108 0 197.5 62t146 156.5t96 213t56 227t16.5 201.5q0 122 -33 219z" />
    <glyph glyph-name="zero.slash" horiz-adv-x="1177" 
d="M496 -14q-186 0 -288 127.5t-102 361.5q0 96 16.5 201t48.5 215.5t86.5 209.5t123.5 177t165.5 124t207.5 46q184 0 286.5 -129t102.5 -367q0 -81 -11.5 -169t-36.5 -182.5t-61.5 -182.5t-90 -167t-117.5 -137.5t-149 -93t-181 -34.5zM223 485q0 -108 29 -200l698 956
q-74 109 -215 109q-107 0 -196.5 -62.5t-146.5 -158t-96.5 -214.5t-56 -228t-16.5 -202zM291 201q75 -117 221 -117q108 0 197.5 62t146 156.5t96 213t56 227t16.5 201.5q0 122 -33 219z" />
    <glyph glyph-name="zero.tf" horiz-adv-x="1228" 
d="M573 -14q-186 0 -287.5 127t-101.5 362q0 96 16.5 201t48.5 215.5t86 209.5t123 177t165.5 124t207.5 46q184 0 287 -129t103 -367q0 -81 -11.5 -169t-36.5 -182.5t-61.5 -182.5t-90 -167t-118 -137.5t-149.5 -93t-181 -34.5zM301 485q0 -193 76 -297t213 -104
q108 0 197.5 62t146 156.5t96 213t56 227t16.5 201.5q0 196 -75.5 301t-213.5 105q-107 0 -196.5 -62.5t-146.5 -158t-96.5 -214.5t-56 -228t-16.5 -202z" />
    <glyph glyph-name="one.tf" horiz-adv-x="1228" 
d="M137 0l17 98h352l196 1112q-55 -110 -149 -166.5t-244 -56.5l21 117q191 0 284 73t125 257h113l-236 -1336h353l-19 -98h-813z" />
    </font>
</defs>
</svg>
