<?xml version="1.0" standalone="no"?>
<!DOCTYPE svg PUBLIC "-//W3C//DTD SVG 1.1//EN" "http://www.w3.org/Graphics/SVG/1.1/DTD/svg11.dtd" >
<svg xmlns="http://www.w3.org/2000/svg" xmlns:xlink="http://www.w3.org/1999/xlink" version="1.1">
<metadata>
Created by FontForge 20201107 at Sat Feb 22 13:51:01 2025
 By 
Copyright (c) 2022 Pangram Pangram by Jack Harvatt. All rights reserved.
</metadata>
<defs>
<font id="PPRadioGrotesk-Black" horiz-adv-x="0" >
  <font-face 
    font-family="PP Radio Grotesk Black"
    font-weight="900"
    font-stretch="normal"
    units-per-em="2048"
    panose-1="0 0 0 0 0 0 0 0 0 0"
    ascent="1638"
    descent="-410"
    x-height="1044"
    cap-height="1434"
    bbox="-369 -547 4395 1923"
    underline-thickness="102"
    underline-position="-255"
    unicode-range="U+000D-1F150"
  />
<missing-glyph horiz-adv-x="921" 
d="M756 1434v-1844h-584v1844h584zM307 -283h307v62h-188l129 86h59v61h-307v-61h129l-129 -86v-62zM307 -33h307v209h-307v-209zM307 287h307v209h-184v-103h62v41h61v-86h-184v148h-62v-209zM307 537h307v184h-61v-123h-246v-61zM307 641h185v129h122v61h-307v-61h123v-68
h-123v-61zM307 881h307v63h-122v129h-185v-192zM307 1120h307v62h-122v67h122v62h-305v-62h121v-67h-123v-62zM369 29v88h184v-88h-184zM369 944v66h61v-66h-61z" />
    <glyph glyph-name="f_f" unicode="ff" horiz-adv-x="1406" 
d="M150 1079q0 182 103 275.5t294 93.5h162v-287h-121q-90 0 -90 -82v-35h307v35q0 182 103 275.5t294 93.5h162v-287h-121q-90 0 -90 -82v-35h213v-276h-213v-768h-348v768h-307v-768h-348v768h-140v276h140v35z" />
    <glyph glyph-name="f_f_i" unicode="ffi" horiz-adv-x="1902" 
d="M1460 0v1044h348v-1044h-348zM10 768v276h140v35q0 182 103 275.5t294 93.5h162v-287h-121q-90 0 -90 -82v-35h307v35q0 182 103 275.5t294 93.5h162v-287h-121q-90 0 -90 -82v-35h213v-276h-213v-768h-348v768h-307v-768h-348v768h-140zM1456 1165v271h356v-271h-356z
" />
    <glyph glyph-name="f_i" unicode="fi" horiz-adv-x="1247" 
d="M150 1079q0 182 103 275.5t294 93.5h162v-287h-121q-90 0 -90 -82v-35h213v-276h-213v-768h-348v768h-140v276h140v35zM801 1165v271h356v-271h-356zM805 0v1044h348v-1044h-348z" />
    <glyph glyph-name="f_l" unicode="fl" horiz-adv-x="1251" 
d="M150 1079q0 182 103 275.5t294 93.5h162v-287h-121q-90 0 -90 -82v-35h213v-276h-213v-768h-348v768h-140v276h140v35zM805 0v1434h348v-1434h-348z" />
    <glyph glyph-name=".notdef" horiz-adv-x="921" 
d="M756 1434v-1844h-584v1844h584zM307 -283h307v62h-188l129 86h59v61h-307v-61h129l-129 -86v-62zM307 -33h307v209h-307v-209zM307 287h307v209h-184v-103h62v41h61v-86h-184v148h-62v-209zM307 537h307v184h-61v-123h-246v-61zM307 641h185v129h122v61h-307v-61h123v-68
h-123v-61zM307 881h307v63h-122v129h-185v-192zM307 1120h307v62h-122v67h122v62h-305v-62h121v-67h-123v-62zM369 29v88h184v-88h-184zM369 944v66h61v-66h-61z" />
    <glyph glyph-name=".null" horiz-adv-x="1228" 
 />
    <glyph glyph-name="nonmarkingreturn" horiz-adv-x="682" 
 />
    <glyph glyph-name="CR" unicode="&#xd;" horiz-adv-x="1228" 
 />
    <glyph glyph-name="space" unicode=" " horiz-adv-x="430" 
 />
    <glyph glyph-name="exclam" unicode="!" horiz-adv-x="481" 
d="M147 420l-55 360v654h297v-654l-55 -360h-187zM92 0v313h297v-313h-297z" />
    <glyph glyph-name="quotedbl" unicode="&#x22;" horiz-adv-x="714" 
d="M453 997h155l56 238v199h-267v-199zM51 1235l55 -238h156l55 238v199h-266v-199z" />
    <glyph glyph-name="numbersign" unicode="#" horiz-adv-x="1431" 
d="M649 0l92 356h-221l-92 -356h-254l92 356h-235l67 236h230l51 196h-236l68 236h227l107 410h254l-107 -410h221l107 410h254l-107 -410h234l-68 -236h-225l-51 -196h231l-67 -236h-226l-92 -356h-254zM582 592h221l51 196h-221z" />
    <glyph glyph-name="dollar" unicode="$" horiz-adv-x="1275" 
d="M582 -170v160q-199 23 -349.5 138.5t-191.5 303.5l340 72q48 -181 201 -228v312l-158 55q-84 30 -141.5 61.5t-104 76t-68.5 105t-22 140.5q0 81 32 154t92 131.5t155.5 95t214.5 41.5v158h153v-166q190 -26 313.5 -130t174.5 -266l-351 -71q-34 122 -137 172v-273
l121 -41q356 -124 356 -405q0 -84 -26 -156.5t-80.5 -134t-149 -100.5t-221.5 -47v-158h-153zM436 1053q0 -44 37.5 -73.5t108.5 -53.5v245q-69 -4 -107.5 -37.5t-38.5 -80.5zM735 266q129 25 129 131q0 50 -30 79.5t-99 55.5v-266z" />
    <glyph glyph-name="percent" unicode="%" horiz-adv-x="1515" 
d="M76 0l1069 1434h295l-1069 -1434h-295zM76 1145q0 138 88 218.5t239 80.5t239.5 -80.5t88.5 -218.5t-88.5 -218.5t-239.5 -80.5t-239 80.5t-88 218.5zM322 1145q0 -53 21.5 -84t59.5 -31t60 31t22 84t-22 84t-60 31t-59.5 -31t-21.5 -84zM784 285q0 138 88.5 218.5
t239.5 80.5t239.5 -80.5t88.5 -218.5t-88.5 -218.5t-239.5 -80.5t-239.5 80.5t-88.5 218.5zM1030 285q0 -53 22 -84t60 -31t60 31t22 84t-22 83.5t-60 30.5t-60 -30.5t-22 -83.5z" />
    <glyph glyph-name="ampersand" unicode="&#x26;" horiz-adv-x="1617" 
d="M70 365q0 58 17 108t45 88t69.5 70t85.5 55t98 43q-111 179 -111 299q0 198 140 309t381 111q111 0 203 -30t151.5 -80.5t92 -115.5t32.5 -135t-26.5 -127.5t-69.5 -98t-108 -73.5t-129.5 -53.5t-145.5 -38.5q123 -136 286 -227q35 107 35 236h328q0 -153 -133 -328
q119 -29 231 -29v-348q-230 0 -487 127q-93 -66 -199 -103.5t-207 -37.5q-269 0 -424 96t-155 283zM438 426q0 -97 69 -146t179 -49q83 0 162 21q-210 150 -356 332q-54 -73 -54 -158zM623 1030q0 -97 88 -227q215 86 215 246q0 66 -40 99.5t-108 33.5q-71 0 -113 -36.5
t-42 -115.5z" />
    <glyph glyph-name="quotesingle" unicode="'" horiz-adv-x="368" 
d="M106 997h156l55 238v199h-266v-199z" />
    <glyph glyph-name="parenleft" unicode="(" horiz-adv-x="651" 
d="M346 -184l-5 5q-162 192 -236 455q-48 172 -48 355q0 141 27 272t61.5 215t81.5 159.5t71.5 104.5t47.5 52h270q-14 -16 -32 -42.5t-52 -98t-60 -155.5t-46 -219.5t-20 -287.5t20 -288.5t45.5 -221.5t60 -158t52.5 -100.5t34 -46.5h-272z" />
    <glyph glyph-name="parenright" unicode=")" horiz-adv-x="651" 
d="M305 1434q1 -1 4 -5q19 -22 35.5 -44.5t54.5 -79t68 -123t61 -152t48.5 -193t17.5 -219.5q0 -141 -27 -272t-61.5 -214.5t-81.5 -159.5t-71.5 -104.5t-47.5 -51.5h-270q14 17 32 42.5t52.5 97t60.5 155.5t46 219.5t20 287.5t-20 288.5t-46 221.5t-60.5 158.5t-52.5 101
t-34 46.5h272z" />
    <glyph glyph-name="asterisk" unicode="*" horiz-adv-x="770" 
d="M274 766l43 217l-165 -145l-111 190l209 72l-209 71l111 191l163 -143l-41 215h220l-43 -217l167 145l111 -191l-209 -71l209 -72l-108 -190l-170 147l43 -219h-220z" />
    <glyph glyph-name="plus" unicode="+" horiz-adv-x="1105" 
d="M410 174v338h-328v266h328v338h286v-338h328v-266h-328v-338h-286z" />
    <glyph glyph-name="comma" unicode="," horiz-adv-x="460" 
d="M82 -131q52 0 78 37t26 94h-104v313h297v-329q0 -136 -78 -214.5t-219 -78.5v178z" />
    <glyph glyph-name="hyphen" unicode="-" horiz-adv-x="856" 
d="M102 723h652v-266h-652v266z" />
    <glyph glyph-name="period" unicode="." horiz-adv-x="460" 
d="M82 0v313h297v-313h-297z" />
    <glyph glyph-name="slash" unicode="/" horiz-adv-x="1030" 
d="M20 -238h289l701 1672h-289z" />
    <glyph glyph-name="zero" unicode="0" horiz-adv-x="1302" 
d="M651 -14q-259 0 -426.5 199t-167.5 528q0 167 45 305.5t124.5 232.5t188.5 145.5t236 51.5t236 -51.5t188.5 -145.5t124.5 -232.5t45 -305.5q0 -329 -167.5 -528t-426.5 -199zM426 713q0 -215 61.5 -322.5t163.5 -107.5t164 107.5t62 322.5q0 219 -62 328.5t-164 109.5
t-163.5 -109.5t-61.5 -328.5z" />
    <glyph glyph-name="one" unicode="1" horiz-adv-x="825" 
d="M350 0v1106q-36 -105 -110 -152t-197 -47v297q95 0 155.5 13t94 43t45.5 70t12 104h359v-1434h-359z" />
    <glyph glyph-name="two" unicode="2" horiz-adv-x="1226" 
d="M51 41q0 113 24.5 207t66.5 159t96.5 118t114.5 90.5t119.5 70t114 62.5t96.5 62.5t66.5 76t24.5 96.5q0 83 -41.5 125.5t-114.5 42.5q-87 0 -146.5 -58t-74.5 -157l-338 76q48 196 201.5 316t398.5 120q215 0 349.5 -114t134.5 -318q0 -94 -28 -170t-76.5 -128.5
t-108 -95t-127.5 -80t-130 -73.5t-120.5 -86t-93.5 -107h715l-41 -276h-1082v41z" />
    <glyph glyph-name="three" unicode="3" horiz-adv-x="1261" 
d="M645 -14q-227 0 -393.5 103t-220.5 294l338 76q84 -176 286 -176q87 0 137 43t50 123q0 75 -56.5 118t-164.5 43h-158l41 267h137q162 0 162 139q0 62 -48 98.5t-124 36.5q-90 0 -140 -40t-73 -138l-330 71q18 120 98 212.5t202.5 142t266.5 49.5q234 0 372 -100
t138 -275q0 -116 -75 -192.5t-197 -104.5q147 -33 232 -123.5t85 -220.5q0 -203 -148 -324.5t-417 -121.5z" />
    <glyph glyph-name="four" unicode="4" horiz-adv-x="1263" 
d="M43 592l616 842h388v-842h180l-41 -277h-139v-315h-359v315h-645v277zM377 592h311v444z" />
    <glyph glyph-name="five" unicode="5" horiz-adv-x="1245" 
d="M618 -14q-210 0 -365.5 110t-203.5 287l338 76q34 -77 102 -126.5t140 -49.5q88 0 139 60.5t51 164.5q0 103 -52.5 163t-143.5 60q-66 0 -123.5 -48t-85.5 -101h-359l144 852h936l-21 -277h-600l-65 -366q113 196 350 196q180 0 284.5 -127t104.5 -344
q0 -244 -153.5 -387t-416.5 -143z" />
    <glyph glyph-name="six" unicode="6" horiz-adv-x="1247" 
d="M643 -14q-89 0 -171 23t-158 76t-132 131.5t-89.5 196.5t-33.5 263q0 129 23.5 243.5t72.5 211.5t120 167.5t172 110t223 39.5q202 0 336.5 -103.5t179.5 -265.5l-344 -71q-38 75 -82.5 108t-114.5 33q-122 0 -187.5 -118.5t-78.5 -364.5q49 119 149 187.5t222 68.5
q188 0 315 -116t127 -312q0 -108 -37 -200.5t-105.5 -161t-173.5 -107.5t-233 -39zM428 473q0 -88 53.5 -139t145.5 -51q91 0 143.5 51t52.5 139q0 89 -52.5 141t-143.5 52q-92 0 -145.5 -52t-53.5 -141z" />
    <glyph glyph-name="seven" unicode="7" horiz-adv-x="1075" 
d="M78 0l600 1157h-596l-41 277h989v-277l-600 -1157h-352z" />
    <glyph glyph-name="eight" unicode="8" horiz-adv-x="1236" 
d="M618 -14q-273 0 -421 113t-148 313q0 122 85 206t233 115q-122 29 -197.5 110.5t-75.5 205.5q0 179 141.5 289t382.5 110t383 -110t142 -289q0 -124 -75.5 -205.5t-197.5 -110.5q148 -31 233 -115t85 -206q0 -200 -148.5 -313t-421.5 -113zM418 442q0 -76 53.5 -117.5
t146.5 -41.5t147 41.5t54 117.5q0 63 -55.5 105.5t-145.5 42.5t-145 -42.5t-55 -105.5zM457 1014q0 -65 43.5 -104.5t117.5 -39.5t118 39.5t44 104.5q0 61 -44 99t-118 38t-117.5 -38t-43.5 -99z" />
    <glyph glyph-name="nine" unicode="9" horiz-adv-x="1247" 
d="M604 1448q89 0 171 -23t158 -76t132 -131.5t89.5 -196.5t33.5 -263q0 -129 -23 -243.5t-72 -211.5t-120 -167.5t-172 -110t-223 -39.5q-202 0 -337 103t-180 265l345 72q38 -75 82 -108t114 -33q122 0 187.5 118.5t78.5 364.5q-49 -119 -148.5 -187.5t-221.5 -68.5
q-188 0 -315.5 116t-127.5 312q0 108 37 200.5t105.5 161t173.5 107.5t233 39zM424 961q0 -89 53 -141t144 -52q92 0 145 52t53 141q0 88 -53 139t-145 51q-91 0 -144 -51t-53 -139z" />
    <glyph glyph-name="colon" unicode=":" horiz-adv-x="460" 
d="M82 616v314h297v-314h-297zM82 0v313h297v-313h-297z" />
    <glyph glyph-name="semicolon" unicode=";" horiz-adv-x="460" 
d="M82 616v314h297v-314h-297zM82 -309v178q52 0 78 37t26 94h-104v313h297v-329q0 -136 -78 -214.5t-219 -78.5z" />
    <glyph glyph-name="less" unicode="&#x3c;" horiz-adv-x="976" 
d="M854 1067v-285l-473 -151l473 -166v-283l-764 279v319z" />
    <glyph glyph-name="equal" unicode="=" horiz-adv-x="1071" 
d="M82 262v266h907v-266h-907zM82 713v266h907v-266h-907z" />
    <glyph glyph-name="greater" unicode="&#x3e;" horiz-adv-x="976" 
d="M123 178v285l473 151l-473 166v283l764 -279v-319z" />
    <glyph glyph-name="question" unicode="?" horiz-adv-x="1087" 
d="M344 457q0 97 20.5 170t53 114.5t71.5 72t78.5 50.5t72 40.5t53 52t20.5 75.5q0 54 -39 86.5t-115 32.5q-81 0 -130 -42t-79 -130l-332 70q22 81 68.5 151t115 126.5t166.5 89t212 32.5t207.5 -32t152 -84t90 -116.5t31.5 -132.5q0 -63 -14.5 -113.5t-38.5 -84.5
t-55.5 -61.5t-66.5 -49t-70 -42.5t-66.5 -46t-55.5 -55t-38.5 -74t-14.5 -100v-35h-297v35zM346 0v313h297v-313h-297z" />
    <glyph glyph-name="at" unicode="@" horiz-adv-x="1916" 
d="M1006 -297q-283 0 -502 100t-342 288.5t-123 438.5q0 184 70.5 338t194.5 258.5t296.5 162t374.5 57.5q272 0 476 -86.5t315.5 -247.5t111.5 -377q0 -224 -120 -354.5t-326 -130.5q-147 0 -240.5 50.5t-116.5 145.5q-35 -93 -103 -144.5t-151 -51.5q-149 0 -244.5 105.5
t-95.5 279.5q0 171 95.5 273.5t244.5 102.5q85 0 148.5 -46t99.5 -132v148h307v-420q0 -105 82 -105q52 0 82.5 64.5t30.5 173.5q0 238 -156.5 372t-458.5 134q-281 0 -445.5 -153.5t-164.5 -416.5q0 -265 175 -416t476 -151q130 0 244 19.5t281 64.5l82 -223
q-131 -56 -288.5 -88.5t-309.5 -32.5zM809 535q0 -74 34.5 -116t100.5 -42q54 0 89.5 39.5t35.5 105.5q0 72 -39.5 116t-99.5 44t-90.5 -39t-30.5 -108z" />
    <glyph glyph-name="A" unicode="A" horiz-adv-x="1529" 
d="M999 1434l525 -1434h-359l-102 291h-604l-105 -291h-348l533 1434h460zM557 567h410l-203 582z" />
    <glyph glyph-name="B" unicode="B" horiz-adv-x="1308" 
d="M102 0v1434h615q236 0 361.5 -88.5t125.5 -249.5q0 -110 -64 -197.5t-169 -122.5q147 -27 230 -118t83 -236q0 -193 -153.5 -307.5t-415.5 -114.5h-613zM461 276h274q83 0 131.5 44.5t48.5 119.5t-48.5 119.5t-131.5 44.5h-274v-328zM461 870h233q75 0 118.5 40t43.5 108
q0 64 -43.5 101.5t-118.5 37.5h-233v-287z" />
    <glyph glyph-name="C" unicode="C" horiz-adv-x="1421" 
d="M760 -14q-333 0 -527 195.5t-194 535.5q0 328 196.5 529.5t514.5 201.5q249 0 414 -132.5t225 -365.5l-353 -78q-73 279 -295 279q-149 0 -241 -115t-92 -301q0 -212 95.5 -332t260.5 -120q111 0 189.5 65.5t99.5 192.5l350 -82q-57 -210 -228.5 -341.5t-414.5 -131.5z
" />
    <glyph glyph-name="D" unicode="D" horiz-adv-x="1419" 
d="M102 0v1434h543q341 0 540 -193.5t199 -523.5t-199 -523.5t-540 -193.5h-543zM461 276h184q168 0 269.5 122.5t101.5 318.5t-101 318t-270 122h-184v-881z" />
    <glyph glyph-name="E" unicode="E" horiz-adv-x="1138" 
d="M102 0v1434h985v-277h-626v-285h522v-276h-522v-320h626v-276h-985z" />
    <glyph glyph-name="F" unicode="F" horiz-adv-x="1130" 
d="M102 0v1434h1006v-277h-647v-323h543v-277h-543v-557h-359z" />
    <glyph glyph-name="G" unicode="G" horiz-adv-x="1533" 
d="M705 -14q-139 0 -260 47.5t-211.5 136t-142.5 224.5t-52 304q0 174 59 318t160 237.5t231 144t275 50.5q112 0 209.5 -27.5t167 -72t124.5 -105t87 -123t49 -129.5l-352 -78q-93 238 -314 238q-147 0 -237 -112.5t-90 -321.5q0 -205 104 -319.5t272 -114.5
q115 0 202.5 66t121.5 179h-264l20 267h584v-795h-266v266q-71 -128 -199 -204t-278 -76z" />
    <glyph glyph-name="H" unicode="H" horiz-adv-x="1490" 
d="M1030 0v578h-569v-578h-359v1434h359v-580h569v580h359v-1434h-359z" />
    <glyph glyph-name="I" unicode="I" horiz-adv-x="563" 
d="M102 0v1434h359v-1434h-359z" />
    <glyph glyph-name="J" unicode="J" horiz-adv-x="1212" 
d="M602 -14q-247 0 -406.5 123.5t-187.5 336.5l324 68q9 -107 70 -169t159 -62q99 0 149 64t50 181v906h358v-947q0 -232 -140 -366.5t-376 -134.5z" />
    <glyph glyph-name="K" unicode="K" horiz-adv-x="1415" 
d="M102 0v1434h359v-648l551 648h397l-575 -674l563 -760h-416l-363 510l-157 -184v-326h-359z" />
    <glyph glyph-name="L" unicode="L" horiz-adv-x="1042" 
d="M102 0v1434h359v-1158h563v-276h-922z" />
    <glyph glyph-name="M" unicode="M" horiz-adv-x="1824" 
d="M770 0l-330 848v-848h-338v1434h441l377 -975l362 975h440v-1434h-338v885l-329 -885h-285z" />
    <glyph glyph-name="N" unicode="N" horiz-adv-x="1454" 
d="M102 0v1434h379l533 -865v865h338v-1434h-338l-574 924v-924h-338z" />
    <glyph glyph-name="O" unicode="O" horiz-adv-x="1486" 
d="M743 -14q-340 0 -522 189.5t-182 541.5t182 541.5t522 189.5t522.5 -189.5t182.5 -541.5t-182.5 -541.5t-522.5 -189.5zM408 717q0 -209 87 -321.5t248 -112.5t248.5 112.5t87.5 321.5t-87.5 321.5t-248.5 112.5t-248 -112.5t-87 -321.5z" />
    <glyph glyph-name="P" unicode="P" horiz-adv-x="1277" 
d="M102 0v1434h545q280 0 443 -130.5t163 -353.5q0 -229 -152 -363t-413 -134h-227v-453h-359zM461 729h166q119 0 188.5 57.5t69.5 155.5q0 100 -69.5 157.5t-188.5 57.5h-166v-428z" />
    <glyph glyph-name="Q" unicode="Q" horiz-adv-x="1519" 
d="M1499 -4q-136 0 -231.5 18t-180.5 60q-161 -88 -344 -88q-328 0 -516 191.5t-188 539.5q0 352 182 541.5t522 189.5q335 0 520 -192.5t185 -518.5q0 -146 -46 -270t-116 -211q92 -14 213 -14v-246zM408 717q0 -213 91 -334t265 -121q35 0 80 10q-162 166 -244 310
l215 137q92 -167 205 -316q59 115 59 314q0 209 -87.5 321.5t-248.5 112.5t-248 -112.5t-87 -321.5z" />
    <glyph glyph-name="R" unicode="R" horiz-adv-x="1345" 
d="M102 0v1434h586q261 0 413 -122t152 -331q0 -146 -75.5 -250t-210.5 -147l368 -584h-395l-283 483h-196v-483h-359zM461 760h166q258 0 258 198q0 199 -258 199h-166v-397z" />
    <glyph glyph-name="S" unicode="S" horiz-adv-x="1234" 
d="M647 -14q-145 0 -274.5 49.5t-226 153t-126.5 243.5l340 72q31 -120 110.5 -181t186.5 -61q80 0 133.5 33t53.5 102q0 57 -39 87.5t-135 64.5l-267 94q-171 60 -253 145t-82 238q0 84 34.5 159.5t99 134.5t167 93.5t229.5 34.5q239 0 392.5 -109t211.5 -295l-350 -71
q-26 96 -97 147t-173 51q-79 0 -122.5 -34t-43.5 -84q0 -46 39 -75.5t116 -55.5l265 -91q356 -124 356 -405q0 -70 -18 -133t-59 -120t-102.5 -98t-155 -65t-210.5 -24z" />
    <glyph glyph-name="T" unicode="T" horiz-adv-x="1214" 
d="M428 0v1157h-410v277h1178v-277h-410v-1157h-358z" />
    <glyph glyph-name="U" unicode="U" horiz-adv-x="1472" 
d="M739 -14q-298 0 -471.5 155t-173.5 420v873h359v-867q0 -141 75.5 -212.5t210.5 -71.5q136 0 211.5 71.5t75.5 212.5v867h352v-873q0 -265 -172 -420t-467 -155z" />
    <glyph glyph-name="V" unicode="V" horiz-adv-x="1470" 
d="M496 0l-488 1434h357l368 -1084l383 1084h348l-508 -1434h-460z" />
    <glyph glyph-name="W" unicode="W" horiz-adv-x="2011" 
d="M356 0l-342 1434h348l213 -902l271 902h319l275 -885l209 885h348l-342 -1434h-357l-297 950l-288 -950h-357z" />
    <glyph glyph-name="X" unicode="X" horiz-adv-x="1368" 
d="M963 0l-287 444l-289 -444h-379l479 735l-452 699h391l274 -424l277 424h379l-467 -717l465 -717h-391z" />
    <glyph glyph-name="Y" unicode="Y" horiz-adv-x="1349" 
d="M496 612l-494 822h371l313 -527l315 527h347l-494 -822v-612h-358v612z" />
    <glyph glyph-name="Z" unicode="Z" horiz-adv-x="1243" 
d="M49 276l744 881h-744v277h1145v-277l-743 -881h743v-276h-1145v276z" />
    <glyph glyph-name="bracketleft" unicode="[" horiz-adv-x="765" 
d="M117 1434h590v-267h-242v-1085h242v-266h-590v1618z" />
    <glyph glyph-name="backslash" unicode="\" horiz-adv-x="1030" 
d="M1010 -238l-701 1672h-289l701 -1672h289z" />
    <glyph glyph-name="bracketright" unicode="]" horiz-adv-x="765" 
d="M649 -184h-590v266h242v1085h-242v267h590v-1618z" />
    <glyph glyph-name="asciicircum" unicode="^" horiz-adv-x="1034" 
d="M70 1024l295 614h303l297 -614h-299l-138 309l-137 -309h-321z" />
    <glyph glyph-name="underscore" unicode="_" horiz-adv-x="995" 
d="M102 -39h791v-266h-791v266z" />
    <glyph glyph-name="grave" unicode="`" horiz-adv-x="421" 
d="M215 1163l-174 271h332l131 -271h-289z" />
    <glyph glyph-name="a" unicode="a" horiz-adv-x="1118" 
d="M688 688q0 49 -34.5 77t-92.5 28q-62 0 -104 -30t-74 -91l-313 69q50 137 186.5 227.5t329.5 90.5q207 0 328.5 -98t121.5 -285v-676h-348v172q-119 -186 -352 -186q-128 0 -217.5 69t-89.5 193q0 141 96 211.5t324 93.5q140 14 189.5 41t49.5 94zM397 297q0 -36 27 -56
t72 -20q33 0 63 11t58.5 35t47.5 69.5t23 107.5q-47 -35 -145 -47q-79 -9 -112.5 -32t-33.5 -68z" />
    <glyph glyph-name="b" unicode="b" horiz-adv-x="1253" 
d="M98 0v1434h348v-596q90 223 314 223q96 0 179.5 -38.5t145 -107.5t97 -172.5t35.5 -226.5q0 -242 -126.5 -385t-310.5 -143q-119 0 -203.5 64.5t-130.5 178.5v-231h-348zM446 535q0 -131 57.5 -208t158.5 -77q91 0 143.5 71.5t52.5 194.5q0 131 -52.5 207t-143.5 76
q-101 0 -158.5 -70.5t-57.5 -193.5z" />
    <glyph glyph-name="c" unicode="c" horiz-adv-x="1140" 
d="M596 -14q-157 0 -284.5 67t-201 188t-73.5 273q0 123 43 226t118 172.5t177 108t219 38.5q198 0 340.5 -98.5t181.5 -247.5l-338 -78q-14 73 -62.5 115.5t-123.5 42.5q-91 0 -144 -79t-53 -188q0 -134 55.5 -204t157.5 -70q140 0 183 158l323 -74q-45 -155 -180 -252.5
t-338 -97.5z" />
    <glyph glyph-name="d" unicode="d" horiz-adv-x="1253" 
d="M807 0v209q-90 -223 -313 -223q-128 0 -231.5 65t-164.5 190t-61 289q0 242 126 385.5t310 143.5q119 0 203.5 -64.5t130.5 -179.5v619h348v-1434h-348zM395 530q0 -130 53 -206t144 -76q101 0 158 70.5t57 193.5q0 131 -57 208t-158 77q-91 0 -144 -72t-53 -195z" />
    <glyph glyph-name="e" unicode="e" horiz-adv-x="1142" 
d="M584 -12q-166 0 -291.5 67.5t-190.5 182t-65 258.5q0 154 64 281t190 204.5t293 77.5q231 0 372.5 -143t141.5 -365q0 -59 -6 -96h-703q12 -102 68 -156.5t143 -54.5q39 0 69 12t50.5 35t33 44.5t25.5 53.5l320 -72q-47 -147 -179 -238t-335 -91zM401 649h344
q-12 71 -55 112.5t-112 41.5q-64 0 -109.5 -40t-67.5 -114z" />
    <glyph glyph-name="f" unicode="f" horiz-adv-x="751" 
d="M150 1079q0 182 103 275.5t294 93.5h162v-287h-121q-90 0 -90 -82v-35h213v-276h-213v-768h-348v768h-140v276h140v35z" />
    <glyph glyph-name="g" unicode="g" horiz-adv-x="1253" 
d="M614 -424q-206 0 -354 83.5t-209 225.5l320 72q44 -64 97 -89.5t136 -25.5q207 0 207 254v113q-90 -223 -313 -223q-128 0 -231.5 65t-164.5 190t-61 289q0 242 126 385.5t310 143.5q119 0 203.5 -64.5t130.5 -179.5v229h348v-915q0 -283 -145 -418t-400 -135zM399 530
q0 -130 53 -206t144 -76q101 0 158 70.5t57 193.5q0 131 -57 208t-158 77q-91 0 -144 -72t-53 -195z" />
    <glyph glyph-name="h" unicode="h" horiz-adv-x="1189" 
d="M98 0v1434h348v-617q59 107 153 174.5t214 67.5q86 0 145.5 -28.5t92 -84t46 -125t13.5 -164.5v-657h-348v596q0 115 -31 164t-106 49q-76 0 -127.5 -71t-51.5 -183v-555h-348z" />
    <glyph glyph-name="i" unicode="i" horiz-adv-x="536" 
d="M94 0v1044h348v-1044h-348zM90 1165v271h356v-271h-356z" />
    <glyph glyph-name="j" unicode="j" horiz-adv-x="555" 
d="M-61 -410v287h79q91 0 91 82v1085h348v-1085q0 -182 -103.5 -275.5t-294.5 -93.5h-120zM106 1165v271h357v-271h-357z" />
    <glyph glyph-name="k" unicode="k" horiz-adv-x="1206" 
d="M98 0v1434h348v-742l349 352h403l-459 -464l459 -580h-379l-291 367l-82 -84v-283h-348z" />
    <glyph glyph-name="l" unicode="l" horiz-adv-x="544" 
d="M98 0v1434h348v-1434h-348z" />
    <glyph glyph-name="m" unicode="m" horiz-adv-x="1767" 
d="M94 0v1044h348v-196q114 211 326 211q240 0 287 -234q50 105 134.5 169.5t201.5 64.5q85 0 145 -28t92.5 -79.5t46 -113t13.5 -140.5v-698h-349v596q0 113 -27.5 163t-88.5 50q-63 0 -110.5 -72t-47.5 -182v-555h-348v596q0 113 -28 163t-89 50q-63 0 -110.5 -72
t-47.5 -182v-555h-348z" />
    <glyph glyph-name="n" unicode="n" horiz-adv-x="1185" 
d="M94 0v1044h348v-227q59 107 153 174.5t214 67.5q86 0 145.5 -28.5t92 -84t46 -125t13.5 -164.5v-657h-348v596q0 115 -31 164t-106 49q-76 0 -127.5 -71t-51.5 -183v-555h-348z" />
    <glyph glyph-name="o" unicode="o" horiz-adv-x="1183" 
d="M592 -14q-244 0 -399.5 147.5t-155.5 388.5q0 240 156 388.5t399 148.5t399 -148.5t156 -388.5q0 -241 -155.5 -388.5t-399.5 -147.5zM395 522q0 -270 197 -270q196 0 196 270q0 271 -196 271q-197 0 -197 -271z" />
    <glyph glyph-name="p" unicode="p" horiz-adv-x="1251" 
d="M94 -410v1454h348v-215q91 230 316 230q197 0 326.5 -149t129.5 -396q0 -242 -126 -385t-310 -143q-121 0 -205.5 66t-130.5 184v-646h-348zM444 532q0 -131 57 -207.5t158 -76.5q91 0 144 71.5t53 194.5q0 130 -53 206.5t-144 76.5q-101 0 -158 -71t-57 -194z" />
    <glyph glyph-name="q" unicode="q" horiz-adv-x="1249" 
d="M807 -410v619q-90 -223 -313 -223q-128 0 -231.5 65t-164.5 190t-61 289q0 242 126 385.5t310 143.5q119 0 203.5 -64.5t130.5 -179.5v229h348v-1454h-348zM395 530q0 -130 53 -206t144 -76q101 0 158 70.5t57 193.5q0 131 -57 208t-158 77q-91 0 -144 -72t-53 -195z" />
    <glyph glyph-name="r" unicode="r" horiz-adv-x="858" 
d="M94 0v1044h348v-348q48 167 138.5 265t228.5 98h4v-336q-82 0 -139.5 -10.5t-103.5 -36t-73 -70.5t-41 -112.5t-14 -163.5v-330h-348z" />
    <glyph glyph-name="s" unicode="s" horiz-adv-x="1024" 
d="M535 -14q-212 0 -338 94t-164 242l311 67q47 -158 203 -158q67 0 102 23t35 65q0 62 -109 84l-178 37q-87 18 -146 39t-106 54.5t-69.5 82t-22.5 115.5q0 146 121.5 237t317.5 91q210 0 332 -81t161 -208l-319 -72q-22 54 -63.5 84.5t-123.5 30.5q-57 0 -88 -18t-31 -50
q0 -54 91 -71l227 -45q156 -31 234.5 -101.5t78.5 -187.5q0 -153 -118.5 -253.5t-337.5 -100.5z" />
    <glyph glyph-name="t" unicode="t" horiz-adv-x="757" 
d="M535 0q-191 0 -294.5 93.5t-103.5 275.5v399h-129v276h129v173l348 106v-279h211v-276h-211v-399q0 -82 90 -82h121v-287h-161z" />
    <glyph glyph-name="u" unicode="u" horiz-adv-x="1185" 
d="M1092 1044v-1044h-349v227q-59 -107 -152.5 -174t-213.5 -67q-86 0 -145.5 28.5t-92 84t-46 124.5t-13.5 164v657h348v-595q0 -115 31 -164t106 -49q76 0 127 70.5t51 182.5v555h349z" />
    <glyph glyph-name="v" unicode="v" horiz-adv-x="1124" 
d="M369 0l-355 1044h336l211 -632l234 632h315l-383 -1044h-358z" />
    <glyph glyph-name="w" unicode="w" horiz-adv-x="1624" 
d="M301 0l-291 1044h320l159 -575l191 575h283l165 -561l166 561h320l-305 -1044h-303l-195 649l-207 -649h-303z" />
    <glyph glyph-name="x" unicode="x" horiz-adv-x="1124" 
d="M18 0l353 530l-353 514h371l184 -270l181 270h352l-352 -530l352 -514h-373l-184 268l-176 -268h-355z" />
    <glyph glyph-name="y" unicode="y" horiz-adv-x="1159" 
d="M156 -410v287h120q75 0 114 24t63 79l-441 1064h322l268 -647l227 647h316l-371 -1044q-85 -241 -178.5 -325.5t-278.5 -84.5h-161z" />
    <glyph glyph-name="z" unicode="z" horiz-adv-x="985" 
d="M55 0v266l455 502h-438v276h848v-266l-455 -502h461v-276h-871z" />
    <glyph glyph-name="braceleft" unicode="{" horiz-adv-x="712" 
d="M39 764q94 0 130 21t36 75v309q0 70 15 116t44.5 76t86 45.5t125 21.5t177.5 6v-246q-57 0 -78.5 -22.5t-21.5 -94.5v-272q0 -48 -18 -78t-72.5 -53.5t-153.5 -36.5q99 -14 153.5 -37.5t72.5 -54t18 -78.5v-283q0 -72 21.5 -94.5t78.5 -22.5v-245q-90 0 -151 3.5t-115 14
t-85.5 28.5t-55 48t-32.5 71t-9 99v319q0 54 -36.5 75.5t-129.5 21.5v268z" />
    <glyph glyph-name="bar" unicode="|" horiz-adv-x="471" 
d="M102 -410v2048h267v-2048h-267z" />
    <glyph glyph-name="braceright" unicode="}" horiz-adv-x="712" 
d="M674 485q-94 0 -130 -21t-36 -75v-309q0 -58 -9 -99t-32.5 -71t-55.5 -48t-86 -28.5t-115 -14t-151 -3.5v245q57 0 79 22.5t22 94.5v273q0 48 18 78t72 53t153 36q-99 14 -153 37.5t-72 54t-18 78.5v283q0 72 -22 94.5t-79 22.5v246q109 0 177.5 -6t125.5 -21.5
t86.5 -45.5t44.5 -76t15 -116v-319q0 -54 36 -75t130 -21v-269z" />
    <glyph glyph-name="asciitilde" unicode="~" horiz-adv-x="1245" 
d="M90 434q0 144 91.5 244t213.5 100q59 0 117.5 -21t98 -45.5t86 -45.5t83.5 -21q47 0 78 33.5t31 99.5l266 -59q0 -166 -83 -255t-210 -89q-59 0 -117.5 21t-98 45.5t-86 45.5t-83.5 21q-46 0 -78.5 -34.5t-42.5 -98.5z" />
    <glyph glyph-name="uni00A0" unicode="&#xa0;" horiz-adv-x="430" 
 />
    <glyph glyph-name="exclamdown" unicode="&#xa1;" horiz-adv-x="481" 
d="M334 625l55 -361v-653h-297v653l55 361h187zM92 731v313h297v-313h-297z" />
    <glyph glyph-name="cent" unicode="&#xa2;" horiz-adv-x="1140" 
d="M479 0v201q-196 36 -319 177t-123 341q0 214 122.5 356.5t319.5 177.5v181h266v-187q143 -33 241.5 -121.5t129.5 -207.5l-338 -78q-14 73 -62.5 115t-123.5 42q-91 0 -144 -78.5t-53 -187.5q0 -134 55.5 -204t157.5 -70q140 0 183 157l323 -73q-36 -124 -131.5 -213.5
t-237.5 -120.5v-207h-266z" />
    <glyph glyph-name="sterling" unicode="&#xa3;" horiz-adv-x="1351" 
d="M113 276q79 0 137.5 13.5t91.5 34t52.5 50.5t25.5 56.5t6 58.5q0 39 -8 66h-291v154h195q-14 14 -44.5 42.5t-47 45t-40.5 46t-36 55t-21.5 62t-9.5 76.5q0 173 152 292.5t393 119.5q254 0 403.5 -113.5t196.5 -302.5l-353 -78q-57 197 -243 197q-76 0 -128 -29.5
t-52 -89.5q0 -43 26.5 -86.5t60.5 -75t81 -77.5t75 -84h281l-21 -154h-200v-25q0 -166 -160 -254h620l-41 -276h-1101v276z" />
    <glyph glyph-name="currency" unicode="&#xa4;" horiz-adv-x="1273" 
d="M633 217q-115 0 -213 45l-154 -153l-188 188l141 141q-63 101 -63 228q0 122 61 225l-133 133l188 188l146 -145q96 47 215 47q115 0 213 -45l155 152l189 -189l-146 -141q64 -103 64 -225q0 -123 -61 -226l149 -149l-188 -189l-162 160q-98 -45 -213 -45zM483 666
q0 -94 40.5 -148.5t109.5 -54.5q68 0 107.5 54.5t39.5 148.5t-39.5 148t-107.5 54q-69 0 -109.5 -54t-40.5 -148z" />
    <glyph glyph-name="yen" unicode="&#xa5;" horiz-adv-x="1390" 
d="M240 684h233l-450 750h370l314 -527l315 527h346l-450 -750h270l-21 -154h-293v-88h314l-21 -153h-293v-289h-358v289h-297l21 153h276v88h-297z" />
    <glyph glyph-name="brokenbar" unicode="&#xa6;" horiz-adv-x="471" 
d="M102 776v858h267v-858h-267zM102 -410v859h267v-859h-267z" />
    <glyph glyph-name="section" unicode="&#xa7;" horiz-adv-x="1019" 
d="M530 -240q-200 0 -335.5 94.5t-174.5 235.5l320 72q22 -75 70 -110.5t133 -35.5q63 0 100 39t37 84q0 97 -109 119l-178 37q-87 18 -146.5 39t-106 52t-69 75t-22.5 104q0 156 146 248q-146 89 -146 258q0 98 54.5 183.5t157.5 139.5t233 54q196 0 321 -85.5t166 -219.5
l-346 -78q-53 129 -160 129q-54 0 -86.5 -31t-32.5 -78q0 -96 90 -112l228 -45q148 -29 230.5 -106.5t82.5 -182.5q0 -145 -121 -240q121 -95 121 -245q0 -73 -29.5 -142t-84 -126t-144 -91.5t-199.5 -34.5zM356 621q0 -74 111 -97l166 -32q47 38 47 92q0 96 -109 118
l-155 33q-28 -17 -44 -48t-16 -66z" />
    <glyph glyph-name="dieresis" unicode="&#xa8;" horiz-adv-x="737" 
d="M33 1163v271h250v-271h-250zM401 1163v271h250v-271h-250z" />
    <glyph glyph-name="copyright" unicode="&#xa9;" horiz-adv-x="1650" 
d="M825 -14q-154 0 -292 57t-237.5 154.5t-157.5 233t-58 286.5t58 286.5t157.5 233t237.5 154.5t292 57t292.5 -57t238 -154.5t157.5 -233t58 -286.5t-58 -286.5t-157.5 -233t-238 -154.5t-292.5 -57zM315 717q0 -109 40 -206.5t108 -168t162.5 -111.5t199.5 -41t199.5 41
t162.5 111.5t108 168t40 206.5q0 145 -67.5 266t-185 190.5t-257.5 69.5t-257.5 -69.5t-185 -190.5t-67.5 -266zM408 705q0 132 60 234.5t157 156t211 53.5q143 0 246 -76t135 -205l-234 -80q-9 53 -43.5 84t-85.5 31q-65 0 -102 -48.5t-37 -133.5q0 -89 38.5 -141
t102.5 -52q51 0 89 25.5t56 69.5l232 -70q-56 -125 -159 -197.5t-226 -72.5q-191 0 -315.5 115.5t-124.5 306.5z" />
    <glyph glyph-name="ordfeminine" unicode="&#xaa;" horiz-adv-x="935" 
d="M567 1147q0 41 -28 61.5t-76 20.5q-47 0 -78.5 -22t-56.5 -72l-246 65q39 108 148 178t268 70q160 0 253 -75t93 -224v-535h-277v142q-43 -73 -115.5 -113.5t-164.5 -40.5q-101 0 -165.5 48t-64.5 147q0 117 92.5 176.5t268.5 81.5q90 11 119.5 29t29.5 63zM338 842
q0 -33 21 -52.5t57 -19.5q55 0 100.5 47t50.5 150q-37 -24 -116 -41q-63 -13 -88 -29.5t-25 -54.5z" />
    <glyph glyph-name="guillemotleft" unicode="&#xab;" horiz-adv-x="1093" 
d="M537 971v-326l-226 -153l226 -152v-326l-496 398v161zM516 412v161l496 398v-326l-226 -153l226 -152v-326z" />
    <glyph glyph-name="logicalnot" unicode="&#xac;" horiz-adv-x="1112" 
d="M100 512v266h871v-553h-287v287h-584z" />
    <glyph glyph-name="uni00AD" unicode="&#xad;" horiz-adv-x="856" 
d="M102 723h652v-266h-652v266z" />
    <glyph glyph-name="registered" unicode="&#xae;" horiz-adv-x="761" 
d="M381 805q-132 0 -226 93.5t-94 225.5t94 226t226 94t225.5 -94t93.5 -226t-93.5 -225.5t-225.5 -93.5zM164 1124q0 -100 61 -163.5t156 -63.5t156 63.5t61 163.5t-61 164t-156 64t-156 -64t-61 -164zM254 950v350h127q72 0 109.5 -30.5t37.5 -85.5q0 -37 -18.5 -66
t-50.5 -41l61 -127h-98l-53 119h-25v-119h-90zM346 1130h47q22 0 34.5 12t12.5 34q0 20 -12.5 31.5t-34.5 11.5h-47v-89z" />
    <glyph glyph-name="macron" unicode="&#xaf;" horiz-adv-x="665" 
d="M41 1391h584v-205h-584v205z" />
    <glyph glyph-name="degree" unicode="&#xb0;" horiz-adv-x="692" 
d="M346 877q-143 0 -227 76t-84 208t84 209.5t227 77.5t227 -77.5t84 -209.5t-84 -208t-227 -76zM254 1161q0 -52 24.5 -82t67.5 -30t67.5 30t24.5 82q0 53 -24.5 84t-67.5 31t-67.5 -31t-24.5 -84z" />
    <glyph glyph-name="plusminus" unicode="&#xb1;" horiz-adv-x="1105" 
d="M410 379v235h-328v267h328v235h286v-235h328v-267h-328v-235h-286zM82 0v266h942v-266h-942z" />
    <glyph glyph-name="uni00B2" unicode="&#xb2;" horiz-adv-x="694" 
d="M31 797q2 79 24.5 141t56 100.5t73.5 68.5t79.5 52.5t72 44.5t53 53t20.5 70q0 31 -17.5 50.5t-46.5 19.5q-40 0 -62 -28t-38 -79l-217 49q35 128 126.5 190t215.5 62q119 0 201.5 -65.5t82.5 -171.5q0 -62 -24 -110t-65 -81.5t-84 -61.5t-91.5 -64.5t-77.5 -75.5h353
l-21 -205h-614v41z" />
    <glyph glyph-name="uni00B3" unicode="&#xb3;" horiz-adv-x="768" 
d="M401 748q-144 0 -243.5 64.5t-130.5 170.5l211 43q53 -94 139 -94q41 0 67.5 21.5t26.5 60.5q0 40 -26.5 65t-77.5 25h-97l33 164h55q97 0 97 71q0 28 -25 48t-70 20q-53 0 -78.5 -24.5t-35.5 -71.5l-203 43q19 109 105.5 173t226.5 64q79 0 151 -24t123 -77.5t51 -125.5
q0 -66 -43 -118t-135 -66q90 -19 141.5 -71t51.5 -126q0 -72 -45 -126.5t-115.5 -81.5t-153.5 -27z" />
    <glyph glyph-name="acute" unicode="&#xb4;" horiz-adv-x="421" 
d="M41 1163l131 271h332l-174 -271h-289z" />
    <glyph glyph-name="uni00B5" unicode="&#xb5;" horiz-adv-x="1177" 
d="M1083 1044v-1044h-348v117q-67 -131 -180 -131q-64 0 -113 43v-439h-348v1454h348v-618q0 -95 36 -142.5t102 -47.5q140 0 155 245v563h348z" />
    <glyph glyph-name="paragraph" unicode="&#xb6;" horiz-adv-x="1243" 
d="M496 588q-206 0 -338.5 124.5t-132.5 305.5q0 179 132 297.5t339 118.5h266v-1659h-266v813zM874 -225v1659h267v-1659h-267z" />
    <glyph glyph-name="periodcentered" unicode="&#xb7;" horiz-adv-x="460" 
d="M82 420v313h297v-313h-297z" />
    <glyph glyph-name="cedilla" unicode="&#xb8;" horiz-adv-x="577" 
d="M291 -463q-78 0 -150 30.5t-116 76.5l104 131q82 -82 156 -82q29 0 48 15.5t19 43.5q0 44 -56 70t-130 26v58l86 123h133l-35 -103q81 -14 133 -66t52 -128q0 -88 -70 -141.5t-174 -53.5z" />
    <glyph glyph-name="uni00B9" unicode="&#xb9;" horiz-adv-x="593" 
d="M31 1411q92 0 148.5 44t56.5 128h245v-827h-245v577q-25 -77 -74 -112t-131 -35v225z" />
    <glyph glyph-name="ordmasculine" unicode="&#xba;" horiz-adv-x="864" 
d="M432 602q-174 0 -280.5 106t-106.5 316q0 211 106 317.5t281 106.5t281 -106.5t106 -317.5q0 -210 -106.5 -316t-280.5 -106zM332 1024q0 -101 28.5 -149t71.5 -48t71.5 48t28.5 149t-28.5 150t-71.5 49t-71.5 -49t-28.5 -150z" />
    <glyph glyph-name="guillemotright" unicode="&#xbb;" horiz-adv-x="1093" 
d="M557 16v326l225 154l-225 151v326l496 -398v-161zM82 16v326l225 154l-225 151v326l496 -398v-161z" />
    <glyph glyph-name="onequarter" unicode="&#xbc;" horiz-adv-x="1710" 
d="M31 1262q92 0 148.5 44t56.5 128h245v-828h-245v578q-25 -78 -74 -113t-131 -35v226zM225 0l949 1434h264l-949 -1434h-264zM920 164v174l354 489h268v-489h137l-20 -174h-117v-164h-246v164h-376zM1133 338h163v227z" />
    <glyph glyph-name="onehalf" unicode="&#xbd;" horiz-adv-x="1763" 
d="M31 1262q92 0 148.5 44t56.5 128h245v-828h-245v578q-25 -78 -74 -113t-131 -35v226zM225 0l949 1434h264l-949 -1434h-264zM1098 584q35 128 126.5 190t215.5 62q119 0 201.5 -66t82.5 -172q0 -62 -24 -110t-65 -81.5t-84 -61.5t-91.5 -64.5t-77.5 -75.5h353l-21 -205
h-614v41q2 79 24.5 141t56 100.5t73.5 68.5t79.5 52.5t72 44.5t53 53t20.5 70q0 31 -17.5 50.5t-46.5 19.5q-40 0 -62 -27.5t-38 -78.5z" />
    <glyph glyph-name="threequarters" unicode="&#xbe;" horiz-adv-x="1820" 
d="M401 598q-143 0 -243 65t-131 171l211 43q53 -95 139 -95q41 0 67.5 21.5t26.5 60.5q0 40 -26.5 65t-77.5 25h-97l33 164h55q97 0 97 72q0 28 -25 47.5t-70 19.5q-53 0 -78.5 -24.5t-35.5 -71.5l-203 43q19 110 105.5 174t226.5 64q79 0 151 -24.5t123 -78t51 -125.5
q0 -66 -43 -118t-135 -66q90 -19 141.5 -70.5t51.5 -125.5q0 -108 -93 -172t-221 -64zM371 0l948 1434h264l-948 -1434h-264zM1030 164v174l354 489h269v-489h137l-21 -174h-116v-164h-246v164h-377zM1243 338h164v227z" />
    <glyph glyph-name="questiondown" unicode="&#xbf;" horiz-adv-x="1087" 
d="M743 588q0 -97 -20.5 -170t-53 -115t-71.5 -72t-78 -50.5t-71.5 -41t-53 -52t-20.5 -75.5q0 -54 38.5 -86t114.5 -32q81 0 130 42t79 130l332 -70q-22 -81 -68 -151t-115 -126.5t-166.5 -89t-211.5 -32.5t-207.5 31.5t-152 84t-90 116.5t-31.5 132q0 80 23 140t60 96
t81.5 65.5t89.5 57t82 60t60 85.5t23 123v35h297v-35zM444 731v313h297v-313h-297z" />
    <glyph glyph-name="Agrave" unicode="&#xc0;" horiz-adv-x="1529" 
d="M999 1434l525 -1434h-359l-102 291h-604l-105 -291h-348l533 1434h460zM473 1823h332l131 -271h-289zM557 567h410l-203 582z" />
    <glyph glyph-name="Aacute" unicode="&#xc1;" horiz-adv-x="1529" 
d="M999 1434l525 -1434h-359l-102 291h-604l-105 -291h-348l533 1434h460zM557 567h410l-203 582zM604 1552l131 271h332l-174 -271h-289z" />
    <glyph glyph-name="Acircumflex" unicode="&#xc2;" horiz-adv-x="1529" 
d="M999 1434l525 -1434h-359l-102 291h-604l-105 -291h-348l533 1434h460zM385 1552l260 271h248l260 -271h-295l-88 125l-90 -125h-295zM557 567h410l-203 582z" />
    <glyph glyph-name="Atilde" unicode="&#xc3;" horiz-adv-x="1529" 
d="M999 1434l525 -1434h-359l-102 291h-604l-105 -291h-348l533 1434h460zM399 1573q18 121 75 188.5t134 67.5q45 0 84.5 -13t63 -28t55 -28t61.5 -13q64 0 70 82l199 -43q-3 -121 -59 -188.5t-150 -67.5q-43 0 -81.5 13t-61.5 28t-50.5 28t-50.5 13q-59 0 -90 -82z
M557 567h410l-203 582z" />
    <glyph glyph-name="Adieresis" unicode="&#xc4;" horiz-adv-x="1529" 
d="M999 1434l525 -1434h-359l-102 291h-604l-105 -291h-348l533 1434h460zM461 1552v271h250v-271h-250zM557 567h410l-203 582zM829 1552v271h250v-271h-250z" />
    <glyph glyph-name="Aring" unicode="&#xc5;" horiz-adv-x="1529" 
d="M999 1434l525 -1434h-359l-102 291h-604l-105 -291h-348l533 1434h460zM526 1710q0 97 63.5 149t180.5 52t179.5 -52t62.5 -149q0 -98 -62.5 -150.5t-179.5 -52.5t-180.5 52.5t-63.5 150.5zM557 567h410l-203 582zM707 1710q0 -37 14 -52.5t49 -15.5q34 0 47.5 15.5
t13.5 52.5t-13.5 51.5t-47.5 14.5q-35 0 -49 -14.5t-14 -51.5z" />
    <glyph glyph-name="AE" unicode="&#xc6;" horiz-adv-x="1996" 
d="M6 0l582 1434h1358v-277h-627v-285h522v-276h-522v-320h627v-276h-985v352h-480l-141 -352h-334zM594 629h367v528h-154z" />
    <glyph glyph-name="Ccedilla" unicode="&#xc7;" horiz-adv-x="1421" 
d="M762 -463q-78 0 -150 30.5t-116 76.5l104 131q82 -82 156 -82q29 0 48 15.5t19 43.5q0 44 -56 70t-130 26v58l57 82q-304 20 -479.5 213.5t-175.5 515.5q0 328 196.5 529.5t514.5 201.5q249 0 414 -132.5t225 -365.5l-353 -78q-73 279 -295 279q-149 0 -241 -115
t-92 -301q0 -212 95.5 -332t260.5 -120q111 0 189.5 65.5t99.5 192.5l350 -82q-52 -192 -200 -319t-359 -150l-23 -64q81 -14 133 -66t52 -128q0 -88 -70 -141.5t-174 -53.5z" />
    <glyph glyph-name="Egrave" unicode="&#xc8;" horiz-adv-x="1138" 
d="M102 0v1434h985v-277h-626v-285h522v-276h-522v-320h626v-276h-985zM309 1823h332l131 -271h-289z" />
    <glyph glyph-name="Eacute" unicode="&#xc9;" horiz-adv-x="1138" 
d="M102 0v1434h985v-277h-626v-285h522v-276h-522v-320h626v-276h-985zM440 1552l131 271h332l-174 -271h-289z" />
    <glyph glyph-name="Ecircumflex" unicode="&#xca;" horiz-adv-x="1138" 
d="M102 0v1434h985v-277h-626v-285h522v-276h-522v-320h626v-276h-985zM221 1552l260 271h248l260 -271h-295l-88 125l-90 -125h-295z" />
    <glyph glyph-name="Edieresis" unicode="&#xcb;" horiz-adv-x="1138" 
d="M102 0v1434h985v-277h-626v-285h522v-276h-522v-320h626v-276h-985zM297 1552v271h250v-271h-250zM666 1552v271h249v-271h-249z" />
    <glyph glyph-name="Igrave" unicode="&#xcc;" horiz-adv-x="563" 
d="M102 0v1434h359v-1434h-359zM-20 1823h331l131 -271h-288z" />
    <glyph glyph-name="Iacute" unicode="&#xcd;" horiz-adv-x="563" 
d="M102 0v1434h359v-1434h-359zM111 1552l131 271h331l-174 -271h-288z" />
    <glyph glyph-name="Icircumflex" unicode="&#xce;" horiz-adv-x="563" 
d="M102 0v1434h359v-1434h-359zM-109 1552l261 271h247l260 -271h-294l-89 125l-90 -125h-295z" />
    <glyph glyph-name="Idieresis" unicode="&#xcf;" horiz-adv-x="563" 
d="M102 0v1434h359v-1434h-359zM-33 1552v271h250v-271h-250zM336 1552v271h250v-271h-250z" />
    <glyph glyph-name="Eth" unicode="&#xd0;" horiz-adv-x="1533" 
d="M16 600v236h201v598h543q341 0 540 -193.5t199 -523.5t-199 -523.5t-540 -193.5h-543v600h-201zM575 276h185q168 0 269 122.5t101 318.5t-101 318t-269 122h-185v-321h256v-236h-256v-324z" />
    <glyph glyph-name="Ntilde" unicode="&#xd1;" horiz-adv-x="1454" 
d="M102 0v1434h379l533 -865v865h338v-1434h-338l-574 924v-924h-338zM395 1573q18 121 75 188.5t134 67.5q45 0 84.5 -13t63 -28t55 -28t61.5 -13q64 0 70 82l199 -43q-3 -121 -59 -188.5t-150 -67.5q-43 0 -81.5 13t-61.5 28t-50.5 28t-50.5 13q-59 0 -90 -82z" />
    <glyph glyph-name="Ograve" unicode="&#xd2;" horiz-adv-x="1486" 
d="M743 -14q-340 0 -522 189.5t-182 541.5t182 541.5t522 189.5t522.5 -189.5t182.5 -541.5t-182.5 -541.5t-522.5 -189.5zM408 717q0 -209 87 -321.5t248 -112.5t248.5 112.5t87.5 321.5t-87.5 321.5t-248.5 112.5t-248 -112.5t-87 -321.5zM446 1823h332l131 -271h-288z
" />
    <glyph glyph-name="Oacute" unicode="&#xd3;" horiz-adv-x="1486" 
d="M743 -14q-340 0 -522 189.5t-182 541.5t182 541.5t522 189.5t522.5 -189.5t182.5 -541.5t-182.5 -541.5t-522.5 -189.5zM408 717q0 -209 87 -321.5t248 -112.5t248.5 112.5t87.5 321.5t-87.5 321.5t-248.5 112.5t-248 -112.5t-87 -321.5zM578 1552l131 271h331l-174 -271
h-288z" />
    <glyph glyph-name="Ocircumflex" unicode="&#xd4;" horiz-adv-x="1486" 
d="M743 -14q-340 0 -522 189.5t-182 541.5t182 541.5t522 189.5t522.5 -189.5t182.5 -541.5t-182.5 -541.5t-522.5 -189.5zM358 1552l260 271h248l260 -271h-295l-88 125l-90 -125h-295zM408 717q0 -209 87 -321.5t248 -112.5t248.5 112.5t87.5 321.5t-87.5 321.5
t-248.5 112.5t-248 -112.5t-87 -321.5z" />
    <glyph glyph-name="Otilde" unicode="&#xd5;" horiz-adv-x="1486" 
d="M743 -14q-340 0 -522 189.5t-182 541.5t182 541.5t522 189.5t522.5 -189.5t182.5 -541.5t-182.5 -541.5t-522.5 -189.5zM373 1573q18 121 75 188.5t134 67.5q45 0 84.5 -13t63 -28t55 -28t61.5 -13q63 0 69 82l199 -43q-3 -121 -59 -188.5t-150 -67.5q-43 0 -81.5 13
t-61 28t-50 28t-50.5 13q-60 0 -91 -82zM408 717q0 -209 87 -321.5t248 -112.5t248.5 112.5t87.5 321.5t-87.5 321.5t-248.5 112.5t-248 -112.5t-87 -321.5z" />
    <glyph glyph-name="Odieresis" unicode="&#xd6;" horiz-adv-x="1486" 
d="M743 -14q-340 0 -522 189.5t-182 541.5t182 541.5t522 189.5t522.5 -189.5t182.5 -541.5t-182.5 -541.5t-522.5 -189.5zM408 717q0 -209 87 -321.5t248 -112.5t248.5 112.5t87.5 321.5t-87.5 321.5t-248.5 112.5t-248 -112.5t-87 -321.5zM434 1552v271h250v-271h-250z
M803 1552v271h250v-271h-250z" />
    <glyph glyph-name="multiply" unicode="&#xd7;" horiz-adv-x="1003" 
d="M68 401l237 240l-231 231l188 189l232 -232l239 240l203 -203l-238 -239l232 -232l-189 -188l-231 231l-240 -239z" />
    <glyph glyph-name="Oslash" unicode="&#xd8;" horiz-adv-x="1486" 
d="M176 0l-143 143l119 119q-113 182 -113 455q0 352 182 541.5t522 189.5q283 0 459 -135l107 106l143 -143l-113 -113q109 -177 109 -446q0 -352 -182.5 -541.5t-522.5 -189.5q-275 0 -452 129zM408 717q0 -105 20 -178l533 532q-80 80 -218 80q-161 0 -248 -112.5
t-87 -321.5zM532 356q79 -73 211 -73q161 0 248.5 112.5t87.5 321.5q0 95 -18 168z" />
    <glyph glyph-name="Ugrave" unicode="&#xd9;" horiz-adv-x="1472" 
d="M739 -14q-298 0 -471.5 155t-173.5 420v873h359v-867q0 -141 75.5 -212.5t210.5 -71.5q136 0 211.5 71.5t75.5 212.5v867h352v-873q0 -265 -172 -420t-467 -155zM440 1823h332l131 -271h-289z" />
    <glyph glyph-name="Uacute" unicode="&#xda;" horiz-adv-x="1472" 
d="M739 -14q-298 0 -471.5 155t-173.5 420v873h359v-867q0 -141 75.5 -212.5t210.5 -71.5q136 0 211.5 71.5t75.5 212.5v867h352v-873q0 -265 -172 -420t-467 -155zM571 1552l131 271h332l-174 -271h-289z" />
    <glyph glyph-name="Ucircumflex" unicode="&#xdb;" horiz-adv-x="1472" 
d="M739 -14q-298 0 -471.5 155t-173.5 420v873h359v-867q0 -141 75.5 -212.5t210.5 -71.5q136 0 211.5 71.5t75.5 212.5v867h352v-873q0 -265 -172 -420t-467 -155zM352 1552l260 271h248l260 -271h-295l-88 125l-90 -125h-295z" />
    <glyph glyph-name="Udieresis" unicode="&#xdc;" horiz-adv-x="1472" 
d="M739 -14q-298 0 -471.5 155t-173.5 420v873h359v-867q0 -141 75.5 -212.5t210.5 -71.5q136 0 211.5 71.5t75.5 212.5v867h352v-873q0 -265 -172 -420t-467 -155zM428 1552v271h250v-271h-250zM797 1552v271h250v-271h-250z" />
    <glyph glyph-name="Yacute" unicode="&#xdd;" horiz-adv-x="1349" 
d="M496 612l-494 822h371l313 -527l315 527h347l-494 -822v-612h-358v612zM516 1552l131 271h332l-174 -271h-289z" />
    <glyph glyph-name="Thorn" unicode="&#xde;" horiz-adv-x="1277" 
d="M102 0v1434h359v-226h186q280 0 443 -130t163 -353q0 -229 -152 -363.5t-413 -134.5h-227v-227h-359zM461 504h166q119 0 188.5 57.5t69.5 155.5q0 100 -69.5 157.5t-188.5 57.5h-166v-428z" />
    <glyph glyph-name="germandbls" unicode="&#xdf;" horiz-adv-x="1304" 
d="M918 -14q-176 0 -286 73.5t-149 210.5l265 64q67 -113 143 -113q36 0 55 21.5t19 56.5t-27.5 60.5t-103.5 62.5l-127 61q-89 44 -139 100t-50 140q0 77 46.5 137.5t125.5 118.5q70 52 85 72q18 23 18 49q0 82 -168 82q-199 0 -199 -205v-977h-328v997q0 210 140 330.5
t419 120.5q116 0 207.5 -28t145.5 -74.5t82 -101t28 -111.5q0 -19 -3 -36.5t-5.5 -31t-12 -30t-13.5 -25.5t-19.5 -26t-20 -22.5t-25.5 -23.5t-25.5 -22t-30 -24.5t-29.5 -23.5q-56 -44 -73 -62.5t-17 -39.5t16.5 -34t72.5 -42q7 -4 11 -6l133 -70q193 -102 193 -295
q0 -141 -106.5 -237t-247.5 -96z" />
    <glyph glyph-name="agrave" unicode="&#xe0;" horiz-adv-x="1118" 
d="M688 688q0 49 -34.5 77t-92.5 28q-62 0 -104 -30t-74 -91l-313 69q50 137 186.5 227.5t329.5 90.5q207 0 328.5 -98t121.5 -285v-676h-348v172q-119 -186 -352 -186q-128 0 -217.5 69t-89.5 193q0 141 96 211.5t324 93.5q140 14 189.5 41t49.5 94zM297 1434h332l131 -271
h-289zM397 297q0 -36 27 -56t72 -20q33 0 63 11t58.5 35t47.5 69.5t23 107.5q-47 -35 -145 -47q-79 -9 -112.5 -32t-33.5 -68z" />
    <glyph glyph-name="aacute" unicode="&#xe1;" horiz-adv-x="1118" 
d="M688 688q0 49 -34.5 77t-92.5 28q-62 0 -104 -30t-74 -91l-313 69q50 137 186.5 227.5t329.5 90.5q207 0 328.5 -98t121.5 -285v-676h-348v172q-119 -186 -352 -186q-128 0 -217.5 69t-89.5 193q0 141 96 211.5t324 93.5q140 14 189.5 41t49.5 94zM397 297q0 -36 27 -56
t72 -20q33 0 63 11t58.5 35t47.5 69.5t23 107.5q-47 -35 -145 -47q-79 -9 -112.5 -32t-33.5 -68zM428 1163l131 271h332l-174 -271h-289z" />
    <glyph glyph-name="acircumflex" unicode="&#xe2;" horiz-adv-x="1118" 
d="M688 688q0 49 -34.5 77t-92.5 28q-62 0 -104 -30t-74 -91l-313 69q50 137 186.5 227.5t329.5 90.5q207 0 328.5 -98t121.5 -285v-676h-348v172q-119 -186 -352 -186q-128 0 -217.5 69t-89.5 193q0 141 96 211.5t324 93.5q140 14 189.5 41t49.5 94zM209 1163l260 271h248
l260 -271h-295l-88 125l-90 -125h-295zM397 297q0 -36 27 -56t72 -20q33 0 63 11t58.5 35t47.5 69.5t23 107.5q-47 -35 -145 -47q-79 -9 -112.5 -32t-33.5 -68z" />
    <glyph glyph-name="atilde" unicode="&#xe3;" horiz-adv-x="1118" 
d="M688 688q0 49 -34.5 77t-92.5 28q-62 0 -104 -30t-74 -91l-313 69q50 137 186.5 227.5t329.5 90.5q207 0 328.5 -98t121.5 -285v-676h-348v172q-119 -186 -352 -186q-128 0 -217.5 69t-89.5 193q0 141 96 211.5t324 93.5q140 14 189.5 41t49.5 94zM223 1184
q18 121 75 188.5t134 67.5q45 0 84.5 -13t63 -28t55 -28t61.5 -13q64 0 70 82l199 -43q-3 -121 -59 -188.5t-150 -67.5q-43 0 -81.5 13t-61.5 28t-50.5 28t-50.5 13q-59 0 -90 -82zM397 297q0 -36 27 -56t72 -20q33 0 63 11t58.5 35t47.5 69.5t23 107.5q-47 -35 -145 -47
q-79 -9 -112.5 -32t-33.5 -68z" />
    <glyph glyph-name="adieresis" unicode="&#xe4;" horiz-adv-x="1118" 
d="M688 688q0 49 -34.5 77t-92.5 28q-62 0 -104 -30t-74 -91l-313 69q50 137 186.5 227.5t329.5 90.5q207 0 328.5 -98t121.5 -285v-676h-348v172q-119 -186 -352 -186q-128 0 -217.5 69t-89.5 193q0 141 96 211.5t324 93.5q140 14 189.5 41t49.5 94zM285 1163v271h250v-271
h-250zM397 297q0 -36 27 -56t72 -20q33 0 63 11t58.5 35t47.5 69.5t23 107.5q-47 -35 -145 -47q-79 -9 -112.5 -32t-33.5 -68zM653 1163v271h250v-271h-250z" />
    <glyph glyph-name="aring" unicode="&#xe5;" horiz-adv-x="1118" 
d="M688 688q0 49 -34.5 77t-92.5 28q-62 0 -104 -30t-74 -91l-313 69q50 137 186.5 227.5t329.5 90.5q207 0 328.5 -98t121.5 -285v-676h-348v172q-119 -186 -352 -186q-128 0 -217.5 69t-89.5 193q0 141 96 211.5t324 93.5q140 14 189.5 41t49.5 94zM350 1321
q0 97 63.5 149t180.5 52t179.5 -52t62.5 -149q0 -98 -62.5 -150.5t-179.5 -52.5t-180.5 52.5t-63.5 150.5zM397 297q0 -36 27 -56t72 -20q33 0 63 11t58.5 35t47.5 69.5t23 107.5q-47 -35 -145 -47q-79 -9 -112.5 -32t-33.5 -68zM530 1321q0 -37 14.5 -52.5t49.5 -15.5
q34 0 47.5 15.5t13.5 52.5t-13.5 51t-47.5 14q-36 0 -50 -14t-14 -51z" />
    <glyph glyph-name="ae" unicode="&#xe6;" horiz-adv-x="1792" 
d="M346 -14q-138 0 -227.5 72.5t-89.5 195.5q0 138 93.5 206.5t326.5 92.5q140 14 189.5 41t49.5 94q0 49 -34.5 77t-92.5 28q-62 0 -104 -30t-74 -91l-313 69q50 136 182.5 227t312.5 91q266 0 338 -156q61 75 159 115.5t191 40.5q152 0 265 -66t171 -180.5t58 -261.5
q0 -59 -6 -96h-703q12 -102 68 -156.5t143 -54.5q39 0 69 12t50.5 35t33 44.5t25.5 53.5l320 -72q-47 -147 -179 -238t-335 -91q-184 0 -303 84t-146 215q-48 -141 -157.5 -221t-280.5 -80zM397 297q0 -36 27 -56t72 -20q72 0 123 50.5t51 154.5v6q-52 -27 -127 -35
q-79 -9 -112.5 -32t-33.5 -68zM1049 649h348q-11 74 -53.5 114t-112.5 40q-139 0 -182 -154z" />
    <glyph glyph-name="ccedilla" unicode="&#xe7;" horiz-adv-x="1140" 
d="M598 -463q-78 0 -150 30.5t-116 76.5l104 131q82 -82 156 -82q29 0 48 15.5t19 43.5q0 44 -56 70t-130 26v58l57 84q-216 20 -354.5 165t-138.5 359q0 123 43 226t118 172.5t177 108t219 38.5q198 0 340.5 -98.5t181.5 -247.5l-338 -78q-14 73 -62.5 115.5t-123.5 42.5
q-91 0 -144 -79t-53 -188q0 -134 55.5 -204t157.5 -70q140 0 183 158l323 -74q-40 -137 -153 -231t-281 -115l-23 -64q81 -14 133 -66t52 -128q0 -88 -70 -141.5t-174 -53.5z" />
    <glyph glyph-name="egrave" unicode="&#xe8;" horiz-adv-x="1142" 
d="M584 -12q-166 0 -291.5 67.5t-190.5 182t-65 258.5q0 154 64 281t190 204.5t293 77.5q231 0 372.5 -143t141.5 -365q0 -59 -6 -96h-703q12 -102 68 -156.5t143 -54.5q39 0 69 12t50.5 35t33 44.5t25.5 53.5l320 -72q-47 -147 -179 -238t-335 -91zM301 1434h332l131 -271
h-289zM401 649h344q-12 71 -55 112.5t-112 41.5q-64 0 -109.5 -40t-67.5 -114z" />
    <glyph glyph-name="eacute" unicode="&#xe9;" horiz-adv-x="1142" 
d="M584 -12q-166 0 -291.5 67.5t-190.5 182t-65 258.5q0 154 64 281t190 204.5t293 77.5q231 0 372.5 -143t141.5 -365q0 -59 -6 -96h-703q12 -102 68 -156.5t143 -54.5q39 0 69 12t50.5 35t33 44.5t25.5 53.5l320 -72q-47 -147 -179 -238t-335 -91zM401 649h344
q-12 71 -55 112.5t-112 41.5q-64 0 -109.5 -40t-67.5 -114zM432 1163l131 271h332l-174 -271h-289z" />
    <glyph glyph-name="ecircumflex" unicode="&#xea;" horiz-adv-x="1142" 
d="M584 -12q-166 0 -291.5 67.5t-190.5 182t-65 258.5q0 154 64 281t190 204.5t293 77.5q231 0 372.5 -143t141.5 -365q0 -59 -6 -96h-703q12 -102 68 -156.5t143 -54.5q39 0 69 12t50.5 35t33 44.5t25.5 53.5l320 -72q-47 -147 -179 -238t-335 -91zM213 1163l260 271h248
l260 -271h-295l-88 125l-90 -125h-295zM401 649h344q-12 71 -55 112.5t-112 41.5q-64 0 -109.5 -40t-67.5 -114z" />
    <glyph glyph-name="edieresis" unicode="&#xeb;" horiz-adv-x="1142" 
d="M584 -12q-166 0 -291.5 67.5t-190.5 182t-65 258.5q0 154 64 281t190 204.5t293 77.5q231 0 372.5 -143t141.5 -365q0 -59 -6 -96h-703q12 -102 68 -156.5t143 -54.5q39 0 69 12t50.5 35t33 44.5t25.5 53.5l320 -72q-47 -147 -179 -238t-335 -91zM289 1163v271h250v-271
h-250zM401 649h344q-12 71 -55 112.5t-112 41.5q-64 0 -109.5 -40t-67.5 -114zM657 1163v271h250v-271h-250z" />
    <glyph glyph-name="igrave" unicode="&#xec;" horiz-adv-x="536" 
d="M94 0v1044h348v-1044h-348zM-29 1434h332l131 -271h-289z" />
    <glyph glyph-name="iacute" unicode="&#xed;" horiz-adv-x="536" 
d="M94 0v1044h348v-1044h-348zM102 1163l131 271h332l-174 -271h-289z" />
    <glyph glyph-name="icircumflex" unicode="&#xee;" horiz-adv-x="536" 
d="M94 0v1044h348v-1044h-348zM-117 1163l260 271h248l260 -271h-295l-88 125l-90 -125h-295z" />
    <glyph glyph-name="idieresis" unicode="&#xef;" horiz-adv-x="536" 
d="M94 0v1044h348v-1044h-348zM-41 1163v271h250v-271h-250zM328 1163v271h250v-271h-250z" />
    <glyph glyph-name="eth" unicode="&#xf0;" horiz-adv-x="1179" 
d="M563 -14q-149 0 -266.5 54.5t-188.5 165t-71 261.5q0 216 119 342.5t307 126.5q147 0 256 -82.5t153 -226.5q-12 264 -161 426l-236 -82v151l103 35q-120 66 -256 66l129 225q245 0 432 -184l241 84v-152l-143 -49q154 -225 154 -496q0 -149 -44.5 -274.5t-121.5 -210.5
t-182 -132.5t-224 -47.5zM385 459q0 -91 55.5 -149t141.5 -58q91 0 147.5 58.5t56.5 150.5q0 94 -56.5 153.5t-147.5 59.5q-86 0 -141.5 -60t-55.5 -155z" />
    <glyph glyph-name="ntilde" unicode="&#xf1;" horiz-adv-x="1185" 
d="M94 0v1044h348v-227q59 107 153 174.5t214 67.5q86 0 145.5 -28.5t92 -84t46 -125t13.5 -164.5v-657h-348v596q0 115 -31 164t-106 49q-76 0 -127.5 -71t-51.5 -183v-555h-348zM262 1184q18 121 75 188.5t134 67.5q45 0 84.5 -13t63 -28t55 -28t61.5 -13q64 0 70 82
l199 -43q-3 -121 -59 -188.5t-150 -67.5q-43 0 -81.5 13t-61.5 28t-50.5 28t-50.5 13q-59 0 -90 -82z" />
    <glyph glyph-name="ograve" unicode="&#xf2;" horiz-adv-x="1183" 
d="M592 -14q-244 0 -399.5 147.5t-155.5 388.5q0 240 156 388.5t399 148.5t399 -148.5t156 -388.5q0 -241 -155.5 -388.5t-399.5 -147.5zM295 1434h332l131 -271h-289zM395 522q0 -270 197 -270q196 0 196 270q0 271 -196 271q-197 0 -197 -271z" />
    <glyph glyph-name="oacute" unicode="&#xf3;" horiz-adv-x="1183" 
d="M592 -14q-244 0 -399.5 147.5t-155.5 388.5q0 240 156 388.5t399 148.5t399 -148.5t156 -388.5q0 -241 -155.5 -388.5t-399.5 -147.5zM395 522q0 -270 197 -270q196 0 196 270q0 271 -196 271q-197 0 -197 -271zM426 1163l131 271h332l-174 -271h-289z" />
    <glyph glyph-name="ocircumflex" unicode="&#xf4;" horiz-adv-x="1183" 
d="M592 -14q-244 0 -399.5 147.5t-155.5 388.5q0 240 156 388.5t399 148.5t399 -148.5t156 -388.5q0 -241 -155.5 -388.5t-399.5 -147.5zM207 1163l260 271h248l260 -271h-295l-88 125l-90 -125h-295zM395 522q0 -270 197 -270q196 0 196 270q0 271 -196 271
q-197 0 -197 -271z" />
    <glyph glyph-name="otilde" unicode="&#xf5;" horiz-adv-x="1183" 
d="M592 -14q-244 0 -399.5 147.5t-155.5 388.5q0 240 156 388.5t399 148.5t399 -148.5t156 -388.5q0 -241 -155.5 -388.5t-399.5 -147.5zM221 1184q18 121 75 188.5t134 67.5q45 0 84.5 -13t63 -28t55 -28t61.5 -13q64 0 70 82l199 -43q-3 -121 -59 -188.5t-150 -67.5
q-43 0 -81.5 13t-61.5 28t-50.5 28t-50.5 13q-59 0 -90 -82zM395 522q0 -270 197 -270q196 0 196 270q0 271 -196 271q-197 0 -197 -271z" />
    <glyph glyph-name="odieresis" unicode="&#xf6;" horiz-adv-x="1183" 
d="M592 -14q-244 0 -399.5 147.5t-155.5 388.5q0 240 156 388.5t399 148.5t399 -148.5t156 -388.5q0 -241 -155.5 -388.5t-399.5 -147.5zM283 1163v271h249v-271h-249zM395 522q0 -270 197 -270q196 0 196 270q0 271 -196 271q-197 0 -197 -271zM651 1163v271h250v-271h-250
z" />
    <glyph glyph-name="divide" unicode="&#xf7;" horiz-adv-x="1071" 
d="M387 72v297h297v-297h-297zM82 496v266h907v-266h-907zM387 881v297h297v-297h-297z" />
    <glyph glyph-name="oslash" unicode="&#xf8;" horiz-adv-x="1183" 
d="M164 -14l-107 106l90 90q-110 138 -110 338q0 240 156 388.5t399 148.5q189 0 334 -96l92 94l108 -109l-90 -88q111 -143 111 -338q0 -241 -155.5 -388.5t-399.5 -147.5q-192 0 -334 96zM395 520q0 -46 6 -84l314 314q-47 41 -123 41q-197 0 -197 -271zM469 291
q44 -41 123 -41q196 0 196 270q0 44 -6 84z" />
    <glyph glyph-name="ugrave" unicode="&#xf9;" horiz-adv-x="1185" 
d="M1092 1044v-1044h-349v227q-59 -107 -152.5 -174t-213.5 -67q-86 0 -145.5 28.5t-92 84t-46 124.5t-13.5 164v657h348v-595q0 -115 31 -164t106 -49q76 0 127 70.5t51 182.5v555h349zM293 1434h332l131 -271h-289z" />
    <glyph glyph-name="uacute" unicode="&#xfa;" horiz-adv-x="1185" 
d="M1092 1044v-1044h-349v227q-59 -107 -152.5 -174t-213.5 -67q-86 0 -145.5 28.5t-92 84t-46 124.5t-13.5 164v657h348v-595q0 -115 31 -164t106 -49q76 0 127 70.5t51 182.5v555h349zM424 1163l131 271h332l-174 -271h-289z" />
    <glyph glyph-name="ucircumflex" unicode="&#xfb;" horiz-adv-x="1185" 
d="M1092 1044v-1044h-349v227q-59 -107 -152.5 -174t-213.5 -67q-86 0 -145.5 28.5t-92 84t-46 124.5t-13.5 164v657h348v-595q0 -115 31 -164t106 -49q76 0 127 70.5t51 182.5v555h349zM205 1163l260 271h248l260 -271h-295l-88 125l-90 -125h-295z" />
    <glyph glyph-name="udieresis" unicode="&#xfc;" horiz-adv-x="1185" 
d="M1092 1044v-1044h-349v227q-59 -107 -152.5 -174t-213.5 -67q-86 0 -145.5 28.5t-92 84t-46 124.5t-13.5 164v657h348v-595q0 -115 31 -164t106 -49q76 0 127 70.5t51 182.5v555h349zM281 1163v271h249v-271h-249zM649 1163v271h250v-271h-250z" />
    <glyph glyph-name="yacute" unicode="&#xfd;" horiz-adv-x="1159" 
d="M156 -410v287h120q75 0 114 24t63 79l-441 1064h322l268 -647l227 647h316l-371 -1044q-85 -241 -178.5 -325.5t-278.5 -84.5h-161zM444 1163l131 271h332l-174 -271h-289z" />
    <glyph glyph-name="thorn" unicode="&#xfe;" horiz-adv-x="1253" 
d="M98 -410v1844h348v-598q90 223 314 223q96 0 179.5 -38.5t145 -107.5t97 -172.5t35.5 -226.5q0 -242 -126.5 -385t-310.5 -143q-119 0 -203.5 64.5t-130.5 178.5v-639h-348zM446 532q0 -131 57.5 -207.5t158.5 -76.5q91 0 143.5 71.5t52.5 194.5q0 131 -52.5 207
t-143.5 76q-101 0 -158.5 -71t-57.5 -194z" />
    <glyph glyph-name="ydieresis" unicode="&#xff;" horiz-adv-x="1159" 
d="M156 -410v287h120q75 0 114 24t63 79l-441 1064h322l268 -647l227 647h316l-371 -1044q-85 -241 -178.5 -325.5t-278.5 -84.5h-161zM301 1163v271h250v-271h-250zM670 1163v271h250v-271h-250z" />
    <glyph glyph-name="Amacron" unicode="&#x100;" horiz-adv-x="1529" 
d="M999 1434l525 -1434h-359l-102 291h-604l-105 -291h-348l533 1434h460zM477 1575v205h584v-205h-584zM557 567h410l-203 582z" />
    <glyph glyph-name="amacron" unicode="&#x101;" horiz-adv-x="1118" 
d="M688 688q0 49 -34.5 77t-92.5 28q-62 0 -104 -30t-74 -91l-313 69q50 137 186.5 227.5t329.5 90.5q207 0 328.5 -98t121.5 -285v-676h-348v172q-119 -186 -352 -186q-128 0 -217.5 69t-89.5 193q0 141 96 211.5t324 93.5q140 14 189.5 41t49.5 94zM301 1186v205h584v-205
h-584zM397 297q0 -36 27 -56t72 -20q33 0 63 11t58.5 35t47.5 69.5t23 107.5q-47 -35 -145 -47q-79 -9 -112.5 -32t-33.5 -68z" />
    <glyph glyph-name="Abreve" unicode="&#x102;" horiz-adv-x="1529" 
d="M999 1434l525 -1434h-359l-102 291h-604l-105 -291h-348l533 1434h460zM436 1843h230q0 -51 29 -82.5t75 -31.5t75 31.5t29 82.5h230q0 -135 -97 -223t-237 -88t-237 88t-97 223zM557 567h410l-203 582z" />
    <glyph glyph-name="abreve" unicode="&#x103;" horiz-adv-x="1118" 
d="M688 688q0 49 -34.5 77t-92.5 28q-62 0 -104 -30t-74 -91l-313 69q50 137 186.5 227.5t329.5 90.5q207 0 328.5 -98t121.5 -285v-676h-348v172q-119 -186 -352 -186q-128 0 -217.5 69t-89.5 193q0 141 96 211.5t324 93.5q140 14 189.5 41t49.5 94zM260 1454h229
q0 -51 29.5 -83t75.5 -32t75 32t29 83h230q0 -135 -97 -223t-237 -88t-237 88t-97 223zM397 297q0 -36 27 -56t72 -20q33 0 63 11t58.5 35t47.5 69.5t23 107.5q-47 -35 -145 -47q-79 -9 -112.5 -32t-33.5 -68z" />
    <glyph glyph-name="Aogonek" unicode="&#x104;" horiz-adv-x="1529" 
d="M999 1434l525 -1434h-181q-75 -75 -75 -131q0 -70 63 -70q31 0 80 15l88 -209q-28 -23 -77.5 -42.5t-98.5 -19.5q-108 0 -186 64t-78 170q0 111 106 223l-102 291h-604l-105 -291h-348l533 1434h460zM557 567h410l-203 582z" />
    <glyph glyph-name="aogonek" unicode="&#x105;" horiz-adv-x="1118" 
d="M688 688q0 49 -34.5 77t-92.5 28q-62 0 -104 -30t-74 -91l-313 69q50 137 186.5 227.5t329.5 90.5q207 0 328.5 -98t121.5 -285v-676h-172q-76 -76 -76 -131q0 -70 64 -70q30 0 80 15l88 -209q-28 -23 -77.5 -42.5t-98.5 -19.5q-108 0 -186 64t-78 170q0 111 106 223h2
v172q-119 -186 -352 -186q-128 0 -217.5 69t-89.5 193q0 141 96 211.5t324 93.5q140 14 189.5 41t49.5 94zM397 297q0 -36 27 -56t72 -20q33 0 63 11t58.5 35t47.5 69.5t23 107.5q-47 -35 -145 -47q-79 -9 -112.5 -32t-33.5 -68z" />
    <glyph glyph-name="Cacute" unicode="&#x106;" horiz-adv-x="1421" 
d="M760 -14q-333 0 -527 195.5t-194 535.5q0 328 196.5 529.5t514.5 201.5q249 0 414 -132.5t225 -365.5l-353 -78q-73 279 -295 279q-149 0 -241 -115t-92 -301q0 -212 95.5 -332t260.5 -120q111 0 189.5 65.5t99.5 192.5l350 -82q-57 -210 -228.5 -341.5t-414.5 -131.5z
M584 1552l131 271h332l-175 -271h-288z" />
    <glyph glyph-name="cacute" unicode="&#x107;" horiz-adv-x="1140" 
d="M596 -14q-157 0 -284.5 67t-201 188t-73.5 273q0 123 43 226t118 172.5t177 108t219 38.5q198 0 340.5 -98.5t181.5 -247.5l-338 -78q-14 73 -62.5 115.5t-123.5 42.5q-91 0 -144 -79t-53 -188q0 -134 55.5 -204t157.5 -70q140 0 183 158l323 -74q-45 -155 -180 -252.5
t-338 -97.5zM424 1163l131 271h332l-174 -271h-289z" />
    <glyph glyph-name="Ccircumflex" unicode="&#x108;" horiz-adv-x="1421" 
d="M760 -14q-333 0 -527 195.5t-194 535.5q0 328 196.5 529.5t514.5 201.5q249 0 414 -132.5t225 -365.5l-353 -78q-73 279 -295 279q-149 0 -241 -115t-92 -301q0 -212 95.5 -332t260.5 -120q111 0 189.5 65.5t99.5 192.5l350 -82q-57 -210 -228.5 -341.5t-414.5 -131.5z
M365 1552l260 271h247l261 -271h-295l-88 125l-91 -125h-294z" />
    <glyph glyph-name="ccircumflex" unicode="&#x109;" horiz-adv-x="1140" 
d="M596 -14q-157 0 -284.5 67t-201 188t-73.5 273q0 123 43 226t118 172.5t177 108t219 38.5q198 0 340.5 -98.5t181.5 -247.5l-338 -78q-14 73 -62.5 115.5t-123.5 42.5q-91 0 -144 -79t-53 -188q0 -134 55.5 -204t157.5 -70q140 0 183 158l323 -74q-45 -155 -180 -252.5
t-338 -97.5zM205 1163l260 271h248l260 -271h-295l-88 125l-90 -125h-295z" />
    <glyph glyph-name="Cdotaccent" unicode="&#x10a;" horiz-adv-x="1421" 
d="M760 -14q-333 0 -527 195.5t-194 535.5q0 328 196.5 529.5t514.5 201.5q249 0 414 -132.5t225 -365.5l-353 -78q-73 279 -295 279q-149 0 -241 -115t-92 -301q0 -212 95.5 -332t260.5 -120q111 0 189.5 65.5t99.5 192.5l350 -82q-57 -210 -228.5 -341.5t-414.5 -131.5z
M571 1554v271h357v-271h-357z" />
    <glyph glyph-name="cdotaccent" unicode="&#x10b;" horiz-adv-x="1140" 
d="M596 -14q-157 0 -284.5 67t-201 188t-73.5 273q0 123 43 226t118 172.5t177 108t219 38.5q198 0 340.5 -98.5t181.5 -247.5l-338 -78q-14 73 -62.5 115.5t-123.5 42.5q-91 0 -144 -79t-53 -188q0 -134 55.5 -204t157.5 -70q140 0 183 158l323 -74q-45 -155 -180 -252.5
t-338 -97.5zM412 1165v271h356v-271h-356z" />
    <glyph glyph-name="Ccaron" unicode="&#x10c;" horiz-adv-x="1421" 
d="M760 -14q-333 0 -527 195.5t-194 535.5q0 328 196.5 529.5t514.5 201.5q249 0 414 -132.5t225 -365.5l-353 -78q-73 279 -295 279q-149 0 -241 -115t-92 -301q0 -212 95.5 -332t260.5 -120q111 0 189.5 65.5t99.5 192.5l350 -82q-57 -210 -228.5 -341.5t-414.5 -131.5z
M365 1823h294l91 -125l88 125h295l-261 -271h-247z" />
    <glyph glyph-name="ccaron" unicode="&#x10d;" horiz-adv-x="1140" 
d="M596 -14q-157 0 -284.5 67t-201 188t-73.5 273q0 123 43 226t118 172.5t177 108t219 38.5q198 0 340.5 -98.5t181.5 -247.5l-338 -78q-14 73 -62.5 115.5t-123.5 42.5q-91 0 -144 -79t-53 -188q0 -134 55.5 -204t157.5 -70q140 0 183 158l323 -74q-45 -155 -180 -252.5
t-338 -97.5zM205 1434h295l90 -125l88 125h295l-260 -271h-248z" />
    <glyph glyph-name="Dcaron" unicode="&#x10e;" horiz-adv-x="1419" 
d="M102 0v1434h543q341 0 540 -193.5t199 -523.5t-199 -523.5t-540 -193.5h-543zM258 1823h295l90 -125l88 125h295l-260 -271h-248zM461 276h184q168 0 269.5 122.5t101.5 318.5t-101 318t-270 122h-184v-881z" />
    <glyph glyph-name="dcaron" unicode="&#x10f;" horiz-adv-x="1253" 
d="M807 0v209q-90 -223 -313 -223q-128 0 -231.5 65t-164.5 190t-61 289q0 242 126 385.5t310 143.5q119 0 203.5 -64.5t130.5 -179.5v619h348v-1434h-348zM395 530q0 -130 53 -206t144 -76q101 0 158 70.5t57 193.5q0 131 -57 208t-158 77q-91 0 -144 -72t-53 -195z
M1257 1042l62 390h268l-145 -390h-185z" />
    <glyph glyph-name="Dcroat" unicode="&#x110;" horiz-adv-x="1533" 
d="M16 600v236h201v598h543q341 0 540 -193.5t199 -523.5t-199 -523.5t-540 -193.5h-543v600h-201zM575 276h185q168 0 269 122.5t101 318.5t-101 318t-269 122h-185v-321h256v-236h-256v-324z" />
    <glyph glyph-name="dcroat" unicode="&#x111;" horiz-adv-x="1306" 
d="M518 1122v195h289v117h348v-117h131v-195h-131v-1122h-348v209q-90 -223 -313 -223q-128 0 -231.5 65t-164.5 190t-61 289q0 242 126 385.5t310 143.5q119 0 203.5 -64.5t130.5 -179.5v307h-289zM395 530q0 -130 53 -206t144 -76q101 0 158 70.5t57 193.5q0 131 -57 208
t-158 77q-91 0 -144 -72t-53 -195z" />
    <glyph glyph-name="Emacron" unicode="&#x112;" horiz-adv-x="1138" 
d="M102 0v1434h985v-277h-626v-285h522v-276h-522v-320h626v-276h-985zM313 1575v205h584v-205h-584z" />
    <glyph glyph-name="emacron" unicode="&#x113;" horiz-adv-x="1142" 
d="M584 -12q-166 0 -291.5 67.5t-190.5 182t-65 258.5q0 154 64 281t190 204.5t293 77.5q231 0 372.5 -143t141.5 -365q0 -59 -6 -96h-703q12 -102 68 -156.5t143 -54.5q39 0 69 12t50.5 35t33 44.5t25.5 53.5l320 -72q-47 -147 -179 -238t-335 -91zM305 1186v205h584v-205
h-584zM401 649h344q-12 71 -55 112.5t-112 41.5q-64 0 -109.5 -40t-67.5 -114z" />
    <glyph glyph-name="Edotaccent" unicode="&#x116;" horiz-adv-x="1138" 
d="M102 0v1434h985v-277h-626v-285h522v-276h-522v-320h626v-276h-985zM428 1554v271h356v-271h-356z" />
    <glyph glyph-name="edotaccent" unicode="&#x117;" horiz-adv-x="1142" 
d="M584 -12q-166 0 -291.5 67.5t-190.5 182t-65 258.5q0 154 64 281t190 204.5t293 77.5q231 0 372.5 -143t141.5 -365q0 -59 -6 -96h-703q12 -102 68 -156.5t143 -54.5q39 0 69 12t50.5 35t33 44.5t25.5 53.5l320 -72q-47 -147 -179 -238t-335 -91zM401 649h344
q-12 71 -55 112.5t-112 41.5q-64 0 -109.5 -40t-67.5 -114zM420 1165v271h356v-271h-356z" />
    <glyph glyph-name="Eogonek" unicode="&#x118;" horiz-adv-x="1138" 
d="M102 0v1434h985v-277h-626v-285h522v-276h-522v-320h626v-276h-122q-76 -76 -76 -131q0 -70 63 -70q30 0 80 15l88 -209q-28 -23 -77.5 -42.5t-98.5 -19.5q-108 0 -186 64t-78 170q0 111 106 223h-684z" />
    <glyph glyph-name="eogonek" unicode="&#x119;" horiz-adv-x="1142" 
d="M584 -12q-166 0 -291.5 67.5t-190.5 182t-65 258.5q0 154 64 281t190 204.5t293 77.5q231 0 372.5 -143t141.5 -365q0 -59 -6 -96h-703q12 -102 68 -156.5t143 -54.5q39 0 69 12t50.5 35t33 44.5t25.5 53.5l320 -72q-50 -157 -187 -243q-73 -73 -73 -129q0 -70 63 -70
q34 0 80 14l88 -208q-28 -23 -77.5 -42.5t-98.5 -19.5q-108 0 -186 64t-78 170q0 75 41 139q-54 -4 -86 -4zM401 649h344q-12 71 -55 112.5t-112 41.5q-64 0 -109.5 -40t-67.5 -114z" />
    <glyph glyph-name="Ecaron" unicode="&#x11a;" horiz-adv-x="1138" 
d="M102 0v1434h985v-277h-626v-285h522v-276h-522v-320h626v-276h-985zM221 1823h295l90 -125l88 125h295l-260 -271h-248z" />
    <glyph glyph-name="ecaron" unicode="&#x11b;" horiz-adv-x="1142" 
d="M584 -12q-166 0 -291.5 67.5t-190.5 182t-65 258.5q0 154 64 281t190 204.5t293 77.5q231 0 372.5 -143t141.5 -365q0 -59 -6 -96h-703q12 -102 68 -156.5t143 -54.5q39 0 69 12t50.5 35t33 44.5t25.5 53.5l320 -72q-47 -147 -179 -238t-335 -91zM213 1434h295l90 -125
l88 125h295l-260 -271h-248zM401 649h344q-12 71 -55 112.5t-112 41.5q-64 0 -109.5 -40t-67.5 -114z" />
    <glyph glyph-name="Gcircumflex" unicode="&#x11c;" horiz-adv-x="1533" 
d="M705 -14q-139 0 -260 47.5t-211.5 136t-142.5 224.5t-52 304q0 174 59 318t160 237.5t231 144t275 50.5q112 0 209.5 -27.5t167 -72t124.5 -105t87 -123t49 -129.5l-352 -78q-93 238 -314 238q-147 0 -237 -112.5t-90 -321.5q0 -205 104 -319.5t272 -114.5
q115 0 202.5 66t121.5 179h-264l20 267h584v-795h-266v266q-71 -128 -199 -204t-278 -76zM389 1552l260 271h248l260 -271h-295l-88 125l-90 -125h-295z" />
    <glyph glyph-name="gcircumflex" unicode="&#x11d;" horiz-adv-x="1253" 
d="M614 -424q-206 0 -354 83.5t-209 225.5l320 72q44 -64 97 -89.5t136 -25.5q207 0 207 254v113q-90 -223 -313 -223q-128 0 -231.5 65t-164.5 190t-61 289q0 242 126 385.5t310 143.5q119 0 203.5 -64.5t130.5 -179.5v229h348v-915q0 -283 -145 -418t-400 -135zM242 1163
l260 271h248l260 -271h-295l-88 125l-90 -125h-295zM399 530q0 -130 53 -206t144 -76q101 0 158 70.5t57 193.5q0 131 -57 208t-158 77q-91 0 -144 -72t-53 -195z" />
    <glyph glyph-name="Gbreve" unicode="&#x11e;" horiz-adv-x="1533" 
d="M705 -14q-139 0 -260 47.5t-211.5 136t-142.5 224.5t-52 304q0 174 59 318t160 237.5t231 144t275 50.5q112 0 209.5 -27.5t167 -72t124.5 -105t87 -123t49 -129.5l-352 -78q-93 238 -314 238q-147 0 -237 -112.5t-90 -321.5q0 -205 104 -319.5t272 -114.5
q115 0 202.5 66t121.5 179h-264l20 267h584v-795h-266v266q-71 -128 -199 -204t-278 -76zM440 1843h230q0 -51 29 -82.5t75 -31.5t75.5 31.5t29.5 82.5h229q0 -135 -97 -223t-237 -88t-237 88t-97 223z" />
    <glyph glyph-name="gbreve" unicode="&#x11f;" horiz-adv-x="1253" 
d="M614 -424q-206 0 -354 83.5t-209 225.5l320 72q44 -64 97 -89.5t136 -25.5q207 0 207 254v113q-90 -223 -313 -223q-128 0 -231.5 65t-164.5 190t-61 289q0 242 126 385.5t310 143.5q119 0 203.5 -64.5t130.5 -179.5v229h348v-915q0 -283 -145 -418t-400 -135zM293 1454
h229q0 -51 29.5 -83t75.5 -32t75 32t29 83h230q0 -135 -97 -223t-237 -88t-237 88t-97 223zM399 530q0 -130 53 -206t144 -76q101 0 158 70.5t57 193.5q0 131 -57 208t-158 77q-91 0 -144 -72t-53 -195z" />
    <glyph glyph-name="Gdotaccent" unicode="&#x120;" horiz-adv-x="1533" 
d="M705 -14q-139 0 -260 47.5t-211.5 136t-142.5 224.5t-52 304q0 174 59 318t160 237.5t231 144t275 50.5q112 0 209.5 -27.5t167 -72t124.5 -105t87 -123t49 -129.5l-352 -78q-93 238 -314 238q-147 0 -237 -112.5t-90 -321.5q0 -205 104 -319.5t272 -114.5
q115 0 202.5 66t121.5 179h-264l20 267h584v-795h-266v266q-71 -128 -199 -204t-278 -76zM596 1554v271h356v-271h-356z" />
    <glyph glyph-name="gdotaccent" unicode="&#x121;" horiz-adv-x="1253" 
d="M614 -424q-206 0 -354 83.5t-209 225.5l320 72q44 -64 97 -89.5t136 -25.5q207 0 207 254v113q-90 -223 -313 -223q-128 0 -231.5 65t-164.5 190t-61 289q0 242 126 385.5t310 143.5q119 0 203.5 -64.5t130.5 -179.5v229h348v-915q0 -283 -145 -418t-400 -135zM399 530
q0 -130 53 -206t144 -76q101 0 158 70.5t57 193.5q0 131 -57 208t-158 77q-91 0 -144 -72t-53 -195zM449 1165v271h356v-271h-356z" />
    <glyph glyph-name="uni0122" unicode="&#x122;" horiz-adv-x="1533" 
d="M705 -14q-139 0 -260 47.5t-211.5 136t-142.5 224.5t-52 304q0 174 59 318t160 237.5t231 144t275 50.5q112 0 209.5 -27.5t167 -72t124.5 -105t87 -123t49 -129.5l-352 -78q-93 238 -314 238q-147 0 -237 -112.5t-90 -321.5q0 -205 104 -319.5t272 -114.5
q115 0 202.5 66t121.5 179h-264l20 267h584v-795h-266v266q-71 -128 -199 -204t-278 -76zM590 -547v137q72 0 103 6.5t37 17t5 38.5v12h-145v248h282v-248q0 -110 -62.5 -160.5t-219.5 -50.5z" />
    <glyph glyph-name="uni0123" unicode="&#x123;" horiz-adv-x="1253" 
d="M614 -424q-206 0 -354 83.5t-209 225.5l320 72q44 -64 97 -89.5t136 -25.5q207 0 207 254v113q-90 -223 -313 -223q-128 0 -231.5 65t-164.5 190t-61 289q0 242 126 385.5t310 143.5q119 0 203.5 -64.5t130.5 -179.5v229h348v-915q0 -283 -145 -418t-400 -135zM399 530
q0 -130 53 -206t144 -76q101 0 158 70.5t57 193.5q0 131 -57 208t-158 77q-91 0 -144 -72t-53 -195zM483 1163v248q0 110 62.5 160.5t220.5 50.5v-137q-72 0 -103 -6.5t-37 -17t-5 -38.5v-12h145v-248h-283z" />
    <glyph glyph-name="Hcircumflex" unicode="&#x124;" horiz-adv-x="1490" 
d="M1030 0v578h-569v-578h-359v1434h359v-580h569v580h359v-1434h-359zM360 1552l261 271h247l260 -271h-294l-89 125l-90 -125h-295z" />
    <glyph glyph-name="hcircumflex" unicode="&#x125;" horiz-adv-x="1189" 
d="M98 0v1434h348v-617q59 107 153 174.5t214 67.5q86 0 145.5 -28.5t92 -84t46 -125t13.5 -164.5v-657h-348v596q0 115 -31 164t-106 49q-76 0 -127.5 -71t-51.5 -183v-555h-348zM-113 1491l260 270h248l260 -270h-295l-88 125l-90 -125h-295z" />
    <glyph glyph-name="Hbar" unicode="&#x126;" horiz-adv-x="1527" 
d="M-23 1026v236h140v172h358v-172h569v172h359v-172h147v-236h-147v-1026h-359v578h-569v-578h-358v1026h-140zM475 854h569v172h-569v-172z" />
    <glyph glyph-name="hbar" unicode="&#x127;" horiz-adv-x="1251" 
d="M160 0v1122h-140v195h140v117h348v-117h280v-195h-280v-305q59 107 152.5 174.5t213.5 67.5q86 0 145.5 -28.5t92 -84t46 -125t13.5 -164.5v-657h-348v596q0 115 -31 164t-106 49q-76 0 -127 -71t-51 -183v-555h-348z" />
    <glyph glyph-name="Itilde" unicode="&#x128;" horiz-adv-x="563" 
d="M102 0v1434h359v-1434h-359zM-94 1573q18 121 75 188.5t134 67.5q45 0 84.5 -13t63 -28t55 -28t61.5 -13q64 0 70 82l198 -43q-3 -121 -59 -188.5t-150 -67.5q-43 0 -81.5 13t-61 28t-50 28t-50.5 13q-60 0 -91 -82z" />
    <glyph glyph-name="itilde" unicode="&#x129;" horiz-adv-x="536" 
d="M94 0v1044h348v-1044h-348zM-102 1184q18 121 74.5 188.5t133.5 67.5q57 0 103.5 -20.5t85.5 -41t76 -20.5q63 0 69 82l199 -43q-3 -121 -59 -188.5t-150 -67.5q-43 0 -81.5 13t-61.5 28t-50.5 28t-50.5 13q-59 0 -90 -82z" />
    <glyph glyph-name="Imacron" unicode="&#x12a;" horiz-adv-x="563" 
d="M102 0v1434h359v-1434h-359zM-16 1575v205h583v-205h-583z" />
    <glyph glyph-name="imacron" unicode="&#x12b;" horiz-adv-x="536" 
d="M94 0v1044h348v-1044h-348zM-25 1186v205h584v-205h-584z" />
    <glyph glyph-name="Iogonek" unicode="&#x12e;" horiz-adv-x="563" 
d="M102 0v1434h359v-1434h-99q-75 -75 -75 -131q0 -70 63 -70q30 0 80 15l88 -209q-28 -23 -77.5 -42.5t-98.5 -19.5q-108 0 -186 64t-78 170q0 111 106 223h-82z" />
    <glyph glyph-name="iogonek" unicode="&#x12f;" horiz-adv-x="536" 
d="M94 0v1044h348v-1044h-170q-75 -75 -75 -131q0 -70 63 -70q30 0 80 15l88 -209q-28 -23 -77.5 -42.5t-98.5 -19.5q-108 0 -186 64t-78 170q0 111 106 223zM90 1165v271h356v-271h-356z" />
    <glyph glyph-name="Idotaccent" unicode="&#x130;" horiz-adv-x="563" 
d="M102 0v1434h359v-1434h-359zM98 1554v271h357v-271h-357z" />
    <glyph glyph-name="dotlessi" unicode="&#x131;" horiz-adv-x="536" 
d="M94 0v1044h348v-1044h-348z" />
    <glyph glyph-name="Jcircumflex" unicode="&#x134;" horiz-adv-x="1212" 
d="M602 -14q-247 0 -406.5 123.5t-187.5 336.5l324 68q9 -107 70 -169t159 -62q99 0 149 64t50 181v906h358v-947q0 -232 -140 -366.5t-376 -134.5zM553 1552l260 271h248l260 -271h-295l-88 125l-90 -125h-295z" />
    <glyph glyph-name="jcircumflex" unicode="&#x135;" horiz-adv-x="555" 
d="M-61 -410v287h79q91 0 91 82v1085h348v-1085q0 -182 -103.5 -275.5t-294.5 -93.5h-120zM-100 1163l260 271h248l260 -271h-295l-88 125l-90 -125h-295z" />
    <glyph glyph-name="uni0136" unicode="&#x136;" horiz-adv-x="1415" 
d="M102 0v1434h359v-648l551 648h397l-575 -674l563 -760h-416l-363 510l-157 -184v-326h-359zM563 -547v137q55 0 85 2.5t43.5 11.5t15.5 17.5t2 31.5v11h-146v248h283v-248q0 -110 -62.5 -160.5t-220.5 -50.5z" />
    <glyph glyph-name="uni0137" unicode="&#x137;" horiz-adv-x="1206" 
d="M98 0v1434h348v-742l349 352h403l-459 -464l459 -580h-379l-291 367l-82 -84v-283h-348zM467 -547v137q72 0 103 6.5t37 17t5 38.5v12h-145v248h283v-248q0 -110 -62.5 -160.5t-220.5 -50.5z" />
    <glyph glyph-name="kgreenlandic" unicode="&#x138;" horiz-adv-x="1202" 
d="M94 0v1044h348v-374l355 374h397l-457 -479l451 -565h-391l-275 340l-80 -84v-256h-348z" />
    <glyph glyph-name="Lacute" unicode="&#x139;" horiz-adv-x="1042" 
d="M102 0v1434h359v-1158h563v-276h-922zM119 1552l131 271h332l-174 -271h-289z" />
    <glyph glyph-name="lacute" unicode="&#x13a;" horiz-adv-x="544" 
d="M98 0v1434h348v-1434h-348zM100 1552l131 271h332l-174 -271h-289z" />
    <glyph glyph-name="uni013B" unicode="&#x13b;" horiz-adv-x="1042" 
d="M102 0v1434h359v-1158h563v-276h-922zM449 -547v137q72 0 103 6.5t37 17t5 38.5v12h-145v248h282v-248q0 -110 -62.5 -160.5t-219.5 -50.5z" />
    <glyph glyph-name="uni013C" unicode="&#x13c;" horiz-adv-x="544" 
d="M98 0v1434h348v-1434h-348zM129 -547v137q72 0 103 6.5t37 17t5 38.5v12h-145v248h283v-248q0 -110 -62.5 -160.5t-220.5 -50.5z" />
    <glyph glyph-name="Lcaron" unicode="&#x13d;" horiz-adv-x="1042" 
d="M102 0v1434h359v-1158h563v-276h-922zM643 1044l62 390h268l-146 -390h-184z" />
    <glyph glyph-name="lcaron" unicode="&#x13e;" horiz-adv-x="714" 
d="M98 0v1434h348v-1434h-348zM549 1044l61 390h269l-146 -390h-184z" />
    <glyph glyph-name="Lslash" unicode="&#x141;" horiz-adv-x="1144" 
d="M16 496v231l189 72v635h358v-496l299 115v-232l-299 -114v-431h563v-276h-921v567z" />
    <glyph glyph-name="lslash" unicode="&#x142;" horiz-adv-x="561" 
d="M-82 446v248l188 86v654h349v-492l188 86v-248l-188 -86v-694h-349v532z" />
    <glyph glyph-name="Nacute" unicode="&#x143;" horiz-adv-x="1454" 
d="M102 0v1434h379l533 -865v865h338v-1434h-338l-574 924v-924h-338zM600 1552l131 271h332l-174 -271h-289z" />
    <glyph glyph-name="nacute" unicode="&#x144;" horiz-adv-x="1185" 
d="M94 0v1044h348v-227q59 107 153 174.5t214 67.5q86 0 145.5 -28.5t92 -84t46 -125t13.5 -164.5v-657h-348v596q0 115 -31 164t-106 49q-76 0 -127.5 -71t-51.5 -183v-555h-348zM467 1163l131 271h332l-174 -271h-289z" />
    <glyph glyph-name="uni0145" unicode="&#x145;" horiz-adv-x="1454" 
d="M102 0v1434h379l533 -865v865h338v-1434h-338l-574 924v-924h-338zM575 -547v137q55 0 85 2.5t43.5 11.5t15.5 17.5t2 31.5v11h-146v248h283v-248q0 -110 -62.5 -160.5t-220.5 -50.5z" />
    <glyph glyph-name="uni0146" unicode="&#x146;" horiz-adv-x="1185" 
d="M94 0v1044h348v-227q59 107 153 174.5t214 67.5q86 0 145.5 -28.5t92 -84t46 -125t13.5 -164.5v-657h-348v596q0 115 -31 164t-106 49q-76 0 -127.5 -71t-51.5 -183v-555h-348zM457 -547v137q72 0 103 6.5t37 17t5 38.5v12h-145v248h282v-248q0 -110 -62.5 -160.5
t-219.5 -50.5z" />
    <glyph glyph-name="Ncaron" unicode="&#x147;" horiz-adv-x="1454" 
d="M102 0v1434h379l533 -865v865h338v-1434h-338l-574 924v-924h-338zM381 1823h295l90 -125l88 125h295l-260 -271h-248z" />
    <glyph glyph-name="ncaron" unicode="&#x148;" horiz-adv-x="1185" 
d="M94 0v1044h348v-227q59 107 153 174.5t214 67.5q86 0 145.5 -28.5t92 -84t46 -125t13.5 -164.5v-657h-348v596q0 115 -31 164t-106 49q-76 0 -127.5 -71t-51.5 -183v-555h-348zM248 1434h295l90 -125l88 125h295l-260 -271h-248z" />
    <glyph glyph-name="Eng" unicode="&#x14a;" horiz-adv-x="1454" 
d="M801 -410v314h41q172 0 172 82v14l-574 924v-924h-338v1434h379l533 -865v865h338v-1366q0 -250 -115 -364t-375 -114h-61z" />
    <glyph glyph-name="eng" unicode="&#x14b;" horiz-adv-x="1185" 
d="M94 0v1044h348v-227q59 107 153 174.5t214 67.5q86 0 145.5 -28.5t92 -84t46 -125t13.5 -164.5v-657q-1 -117 -35.5 -199.5t-103.5 -131.5t-162 -71t-219 -22h-21v287h21q96 0 134 35.5t38 107.5v590q0 115 -31 164t-106 49q-76 0 -127.5 -71t-51.5 -183v-555h-348z" />
    <glyph glyph-name="Omacron" unicode="&#x14c;" horiz-adv-x="1486" 
d="M743 -14q-340 0 -522 189.5t-182 541.5t182 541.5t522 189.5t522.5 -189.5t182.5 -541.5t-182.5 -541.5t-522.5 -189.5zM408 717q0 -209 87 -321.5t248 -112.5t248.5 112.5t87.5 321.5t-87.5 321.5t-248.5 112.5t-248 -112.5t-87 -321.5zM451 1575v205h583v-205h-583z
" />
    <glyph glyph-name="omacron" unicode="&#x14d;" horiz-adv-x="1183" 
d="M592 -14q-244 0 -399.5 147.5t-155.5 388.5q0 240 156 388.5t399 148.5t399 -148.5t156 -388.5q0 -241 -155.5 -388.5t-399.5 -147.5zM299 1186v205h584v-205h-584zM395 522q0 -270 197 -270q196 0 196 270q0 271 -196 271q-197 0 -197 -271z" />
    <glyph glyph-name="Ohungarumlaut" unicode="&#x150;" horiz-adv-x="1486" 
d="M743 -14q-340 0 -522 189.5t-182 541.5t182 541.5t522 189.5t522.5 -189.5t182.5 -541.5t-182.5 -541.5t-522.5 -189.5zM408 717q0 -209 87 -321.5t248 -112.5t248.5 112.5t87.5 321.5t-87.5 321.5t-248.5 112.5t-248 -112.5t-87 -321.5zM463 1552l131 271h291l-174 -271
h-248zM801 1552l172 271h291l-215 -271h-248z" />
    <glyph glyph-name="ohungarumlaut" unicode="&#x151;" horiz-adv-x="1183" 
d="M592 -14q-244 0 -399.5 147.5t-155.5 388.5q0 240 156 388.5t399 148.5t399 -148.5t156 -388.5q0 -241 -155.5 -388.5t-399.5 -147.5zM311 1163l131 271h291l-174 -271h-248zM395 522q0 -270 197 -270q196 0 196 270q0 271 -196 271q-197 0 -197 -271zM649 1163l172 271
h291l-215 -271h-248z" />
    <glyph glyph-name="OE" unicode="&#x152;" horiz-adv-x="2162" 
d="M682 -14q-297 0 -470 192t-173 539t173 539t470 192q138 0 252.5 -55.5t191.5 -163.5v205h985v-277h-626v-285h522v-276h-522v-320h626v-276h-985v207q-79 -111 -194.5 -166t-249.5 -55zM408 717q0 -209 87 -321.5t248 -112.5t248.5 112.5t87.5 321.5t-87.5 321.5
t-248.5 112.5t-248 -112.5t-87 -321.5z" />
    <glyph glyph-name="oe" unicode="&#x153;" horiz-adv-x="1894" 
d="M592 -12q-244 0 -399.5 147.5t-155.5 386.5q0 240 156 388.5t399 148.5q113 0 217 -52.5t162 -140.5q54 87 153 140t211 53q231 0 372.5 -143t141.5 -365q0 -59 -6 -96h-700q15 -106 69.5 -158.5t139.5 -52.5q39 0 69 12t50.5 35t33 44.5t25.5 53.5l319 -72
q-46 -145 -171.5 -237t-301.5 -92q-145 0 -251 53.5t-162 151.5q-57 -96 -158.5 -150.5t-212.5 -54.5zM395 522q0 -268 197 -268q196 0 196 268q0 271 -196 271q-197 0 -197 -271zM1151 639h348q-11 75 -55 119.5t-115 44.5q-135 0 -178 -164z" />
    <glyph glyph-name="Racute" unicode="&#x154;" horiz-adv-x="1345" 
d="M102 0v1434h586q261 0 413 -122t152 -331q0 -146 -75.5 -250t-210.5 -147l368 -584h-395l-283 483h-196v-483h-359zM461 760h166q258 0 258 198q0 199 -258 199h-166v-397zM487 1552l131 271h332l-174 -271h-289z" />
    <glyph glyph-name="racute" unicode="&#x155;" horiz-adv-x="858" 
d="M94 0v1044h348v-348q48 167 138.5 265t228.5 98h4v-336q-82 0 -139.5 -10.5t-103.5 -36t-73 -70.5t-41 -112.5t-14 -163.5v-330h-348zM334 1163l131 271h332l-174 -271h-289z" />
    <glyph glyph-name="uni0156" unicode="&#x156;" horiz-adv-x="1345" 
d="M102 0v1434h586q261 0 413 -122t152 -331q0 -146 -75.5 -250t-210.5 -147l368 -584h-395l-283 483h-196v-483h-359zM461 760h166q258 0 258 198q0 199 -258 199h-166v-397zM551 -547v137q72 0 103 6.5t37 17t5 38.5v12h-145v248h283v-248q0 -110 -62.5 -160.5
t-220.5 -50.5z" />
    <glyph glyph-name="uni0157" unicode="&#x157;" horiz-adv-x="858" 
d="M94 0v1044h348v-348q48 167 138.5 265t228.5 98h4v-336q-82 0 -139.5 -10.5t-103.5 -36t-73 -70.5t-41 -112.5t-14 -163.5v-330h-348zM125 -547v137q72 0 103 6.5t37 17t5 38.5v12h-145v248h283v-248q0 -110 -62.5 -160.5t-220.5 -50.5z" />
    <glyph glyph-name="Rcaron" unicode="&#x158;" horiz-adv-x="1345" 
d="M102 0v1434h586q261 0 413 -122t152 -331q0 -146 -75.5 -250t-210.5 -147l368 -584h-395l-283 483h-196v-483h-359zM268 1823h295l90 -125l88 125h295l-260 -271h-248zM461 760h166q258 0 258 198q0 199 -258 199h-166v-397z" />
    <glyph glyph-name="rcaron" unicode="&#x159;" horiz-adv-x="858" 
d="M94 0v1044h348v-348q48 167 138.5 265t228.5 98h4v-336q-82 0 -139.5 -10.5t-103.5 -36t-73 -70.5t-41 -112.5t-14 -163.5v-330h-348zM115 1434h295l90 -125l88 125h295l-260 -271h-248z" />
    <glyph glyph-name="Sacute" unicode="&#x15a;" horiz-adv-x="1234" 
d="M647 -14q-145 0 -274.5 49.5t-226 153t-126.5 243.5l340 72q31 -120 110.5 -181t186.5 -61q80 0 133.5 33t53.5 102q0 57 -39 87.5t-135 64.5l-267 94q-171 60 -253 145t-82 238q0 84 34.5 159.5t99 134.5t167 93.5t229.5 34.5q239 0 392.5 -109t211.5 -295l-350 -71
q-26 96 -97 147t-173 51q-79 0 -122.5 -34t-43.5 -84q0 -46 39 -75.5t116 -55.5l265 -91q356 -124 356 -405q0 -70 -18 -133t-59 -120t-102.5 -98t-155 -65t-210.5 -24zM473 1552l131 271h332l-174 -271h-289z" />
    <glyph glyph-name="sacute" unicode="&#x15b;" horiz-adv-x="1024" 
d="M535 -14q-212 0 -338 94t-164 242l311 67q47 -158 203 -158q67 0 102 23t35 65q0 62 -109 84l-178 37q-87 18 -146 39t-106 54.5t-69.5 82t-22.5 115.5q0 146 121.5 237t317.5 91q210 0 332 -81t161 -208l-319 -72q-22 54 -63.5 84.5t-123.5 30.5q-57 0 -88 -18t-31 -50
q0 -54 91 -71l227 -45q156 -31 234.5 -101.5t78.5 -187.5q0 -153 -118.5 -253.5t-337.5 -100.5zM358 1163l131 271h332l-174 -271h-289z" />
    <glyph glyph-name="Scircumflex" unicode="&#x15c;" horiz-adv-x="1234" 
d="M647 -14q-145 0 -274.5 49.5t-226 153t-126.5 243.5l340 72q31 -120 110.5 -181t186.5 -61q80 0 133.5 33t53.5 102q0 57 -39 87.5t-135 64.5l-267 94q-171 60 -253 145t-82 238q0 84 34.5 159.5t99 134.5t167 93.5t229.5 34.5q239 0 392.5 -109t211.5 -295l-350 -71
q-26 96 -97 147t-173 51q-79 0 -122.5 -34t-43.5 -84q0 -46 39 -75.5t116 -55.5l265 -91q356 -124 356 -405q0 -70 -18 -133t-59 -120t-102.5 -98t-155 -65t-210.5 -24zM254 1552l260 271h248l260 -271h-295l-88 125l-90 -125h-295z" />
    <glyph glyph-name="scircumflex" unicode="&#x15d;" horiz-adv-x="1024" 
d="M535 -14q-212 0 -338 94t-164 242l311 67q47 -158 203 -158q67 0 102 23t35 65q0 62 -109 84l-178 37q-87 18 -146 39t-106 54.5t-69.5 82t-22.5 115.5q0 146 121.5 237t317.5 91q210 0 332 -81t161 -208l-319 -72q-22 54 -63.5 84.5t-123.5 30.5q-57 0 -88 -18t-31 -50
q0 -54 91 -71l227 -45q156 -31 234.5 -101.5t78.5 -187.5q0 -153 -118.5 -253.5t-337.5 -100.5zM139 1163l260 271h248l260 -271h-295l-88 125l-90 -125h-295z" />
    <glyph glyph-name="Scedilla" unicode="&#x15e;" horiz-adv-x="1234" 
d="M627 -463q-78 0 -150.5 31t-116.5 76l105 131q82 -82 156 -82q29 0 48 15.5t19 43.5q0 44 -56 70t-130 26v58l59 84q-199 23 -349.5 138.5t-191.5 303.5l340 72q31 -120 110.5 -181t186.5 -61q80 0 133.5 33t53.5 102q0 57 -39 87.5t-135 64.5l-267 94q-171 60 -253 145
t-82 238q0 84 34.5 159.5t99 134.5t167 93.5t229.5 34.5q239 0 392.5 -109t211.5 -295l-350 -71q-26 96 -97 147t-173 51q-79 0 -122.5 -34t-43.5 -84q0 -46 39 -75.5t116 -55.5l265 -91q356 -124 356 -405q0 -84 -26.5 -157t-81.5 -134.5t-151.5 -100.5t-225.5 -46l-21 -62
q81 -14 132.5 -66t51.5 -128q0 -89 -69.5 -142t-173.5 -53z" />
    <glyph glyph-name="scedilla" unicode="&#x15f;" horiz-adv-x="1024" 
d="M520 -463q-78 0 -150 30.5t-116 76.5l104 131q82 -82 156 -82q29 0 48.5 15.5t19.5 43.5q0 43 -56.5 69.5t-130.5 26.5v58l60 84q-176 18 -281.5 108t-140.5 224l311 67q47 -158 203 -158q67 0 102 23t35 65q0 62 -109 84l-178 37q-87 18 -146 39t-106 54.5t-69.5 82
t-22.5 115.5q0 146 121.5 237t317.5 91q210 0 332 -81t161 -208l-319 -72q-22 54 -63.5 84.5t-123.5 30.5q-57 0 -88 -18t-31 -50q0 -54 91 -71l227 -45q156 -31 234.5 -101.5t78.5 -187.5q0 -140 -101 -237.5t-290 -114.5l-20 -62q81 -14 132.5 -66t51.5 -128
q0 -88 -70 -141.5t-174 -53.5z" />
    <glyph glyph-name="Scaron" unicode="&#x160;" horiz-adv-x="1234" 
d="M647 -14q-145 0 -274.5 49.5t-226 153t-126.5 243.5l340 72q31 -120 110.5 -181t186.5 -61q80 0 133.5 33t53.5 102q0 57 -39 87.5t-135 64.5l-267 94q-171 60 -253 145t-82 238q0 84 34.5 159.5t99 134.5t167 93.5t229.5 34.5q239 0 392.5 -109t211.5 -295l-350 -71
q-26 96 -97 147t-173 51q-79 0 -122.5 -34t-43.5 -84q0 -46 39 -75.5t116 -55.5l265 -91q356 -124 356 -405q0 -70 -18 -133t-59 -120t-102.5 -98t-155 -65t-210.5 -24zM254 1823h295l90 -125l88 125h295l-260 -271h-248z" />
    <glyph glyph-name="scaron" unicode="&#x161;" horiz-adv-x="1024" 
d="M535 -14q-212 0 -338 94t-164 242l311 67q47 -158 203 -158q67 0 102 23t35 65q0 62 -109 84l-178 37q-87 18 -146 39t-106 54.5t-69.5 82t-22.5 115.5q0 146 121.5 237t317.5 91q210 0 332 -81t161 -208l-319 -72q-22 54 -63.5 84.5t-123.5 30.5q-57 0 -88 -18t-31 -50
q0 -54 91 -71l227 -45q156 -31 234.5 -101.5t78.5 -187.5q0 -153 -118.5 -253.5t-337.5 -100.5zM139 1434h295l90 -125l88 125h295l-260 -271h-248z" />
    <glyph glyph-name="uni0162" unicode="&#x162;" horiz-adv-x="1214" 
d="M428 0v1157h-410v277h1178v-277h-410v-1157h-96l-24 -74q81 -14 132.5 -66t51.5 -128q0 -88 -70 -141.5t-174 -53.5q-78 0 -150 30.5t-116 76.5l104 131q82 -82 156 -82q29 0 48.5 15.5t19.5 43.5q0 43 -56.5 69.5t-130.5 26.5v58l66 94h-119z" />
    <glyph glyph-name="uni0163" unicode="&#x163;" horiz-adv-x="757" 
d="M8 768v276h129v173l348 106v-279h211v-276h-211v-399q0 -82 90 -82h121v-287h-123l-24 -74q81 -14 132.5 -66t51.5 -128q0 -88 -70 -141.5t-174 -53.5q-78 0 -150 30.5t-116 76.5l105 131q82 -82 155 -82q29 0 48.5 15.5t19.5 43.5q0 44 -56 70t-130 26v58l71 100
q-145 24 -222 115.5t-77 247.5v399h-129z" />
    <glyph glyph-name="Tcaron" unicode="&#x164;" horiz-adv-x="1214" 
d="M428 0v1157h-410v277h1178v-277h-410v-1157h-358zM223 1823h295l90 -125l88 125h295l-260 -271h-248z" />
    <glyph glyph-name="tcaron" unicode="&#x165;" horiz-adv-x="757" 
d="M535 0q-191 0 -294.5 93.5t-103.5 275.5v399h-129v276h129v173l348 106v-279h211v-276h-211v-399q0 -82 90 -82h121v-287h-161zM600 1147l62 389h268l-146 -389h-184z" />
    <glyph glyph-name="Tbar" unicode="&#x166;" horiz-adv-x="1214" 
d="M428 0v561h-207v236h207v360h-410v277h1178v-277h-410v-360h250v-236h-250v-561h-358z" />
    <glyph glyph-name="tbar" unicode="&#x167;" horiz-adv-x="774" 
d="M29 428v215h108v125h-129v276h129v173l348 106v-279h211v-276h-211v-125h228v-215h-228v-59q0 -82 90 -82h121v-287h-161q-191 0 -294.5 93.5t-103.5 275.5v59h-108z" />
    <glyph glyph-name="Utilde" unicode="&#x168;" horiz-adv-x="1472" 
d="M739 -14q-298 0 -471.5 155t-173.5 420v873h359v-867q0 -141 75.5 -212.5t210.5 -71.5q136 0 211.5 71.5t75.5 212.5v867h352v-873q0 -265 -172 -420t-467 -155zM367 1573q18 121 74.5 188.5t133.5 67.5q57 0 103.5 -20.5t85.5 -41t76 -20.5q63 0 69 82l199 -43
q-3 -121 -59 -188.5t-150 -67.5q-43 0 -81.5 13t-61.5 28t-50.5 28t-50.5 13q-59 0 -90 -82z" />
    <glyph glyph-name="utilde" unicode="&#x169;" horiz-adv-x="1185" 
d="M1092 1044v-1044h-349v227q-59 -107 -152.5 -174t-213.5 -67q-86 0 -145.5 28.5t-92 84t-46 124.5t-13.5 164v657h348v-595q0 -115 31 -164t106 -49q76 0 127 70.5t51 182.5v555h349zM219 1184q18 121 75 188.5t134 67.5q45 0 84.5 -13t63 -28t55 -28t61.5 -13
q64 0 70 82l199 -43q-3 -121 -59 -188.5t-150 -67.5q-43 0 -81.5 13t-61.5 28t-50.5 28t-50.5 13q-59 0 -90 -82z" />
    <glyph glyph-name="Umacron" unicode="&#x16a;" horiz-adv-x="1472" 
d="M739 -14q-298 0 -471.5 155t-173.5 420v873h359v-867q0 -141 75.5 -212.5t210.5 -71.5q136 0 211.5 71.5t75.5 212.5v867h352v-873q0 -265 -172 -420t-467 -155zM444 1575v205h584v-205h-584z" />
    <glyph glyph-name="umacron" unicode="&#x16b;" horiz-adv-x="1185" 
d="M1092 1044v-1044h-349v227q-59 -107 -152.5 -174t-213.5 -67q-86 0 -145.5 28.5t-92 84t-46 124.5t-13.5 164v657h348v-595q0 -115 31 -164t106 -49q76 0 127 70.5t51 182.5v555h349zM297 1186v205h584v-205h-584z" />
    <glyph glyph-name="Ubreve" unicode="&#x16c;" horiz-adv-x="1472" 
d="M739 -14q-298 0 -471.5 155t-173.5 420v873h359v-867q0 -141 75.5 -212.5t210.5 -71.5q136 0 211.5 71.5t75.5 212.5v867h352v-873q0 -265 -172 -420t-467 -155zM403 1843h230q0 -51 29 -82.5t75 -31.5t75.5 31.5t29.5 82.5h229q0 -135 -97 -223t-237 -88t-237 88
t-97 223z" />
    <glyph glyph-name="ubreve" unicode="&#x16d;" horiz-adv-x="1185" 
d="M1092 1044v-1044h-349v227q-59 -107 -152.5 -174t-213.5 -67q-86 0 -145.5 28.5t-92 84t-46 124.5t-13.5 164v657h348v-595q0 -115 31 -164t106 -49q76 0 127 70.5t51 182.5v555h349zM256 1454h229q0 -51 29.5 -83t75.5 -32t75 32t29 83h230q0 -135 -97 -223t-237 -88
t-237 88t-97 223z" />
    <glyph glyph-name="Uring" unicode="&#x16e;" horiz-adv-x="1472" 
d="M739 -14q-298 0 -471.5 155t-173.5 420v873h359v-867q0 -141 75.5 -212.5t210.5 -71.5q136 0 211.5 71.5t75.5 212.5v867h352v-873q0 -265 -172 -420t-467 -155zM494 1710q0 97 63 149t180 52t179.5 -52t62.5 -149q0 -98 -62.5 -150.5t-179.5 -52.5t-180 52.5t-63 150.5z
M674 1710q0 -37 14 -52.5t49 -15.5q34 0 48 15.5t14 52.5t-14 51.5t-48 14.5q-35 0 -49 -14.5t-14 -51.5z" />
    <glyph glyph-name="uring" unicode="&#x16f;" horiz-adv-x="1185" 
d="M1092 1044v-1044h-349v227q-59 -107 -152.5 -174t-213.5 -67q-86 0 -145.5 28.5t-92 84t-46 124.5t-13.5 164v657h348v-595q0 -115 31 -164t106 -49q76 0 127 70.5t51 182.5v555h349zM346 1321q0 97 63.5 149t180.5 52t179 -52t62 -149q0 -98 -62 -150.5t-179 -52.5
t-180.5 52.5t-63.5 150.5zM526 1321q0 -37 14.5 -52.5t49.5 -15.5q34 0 47.5 15.5t13.5 52.5t-13.5 51t-47.5 14q-36 0 -50 -14t-14 -51z" />
    <glyph glyph-name="Uhungarumlaut" unicode="&#x170;" horiz-adv-x="1472" 
d="M739 -14q-298 0 -471.5 155t-173.5 420v873h359v-867q0 -141 75.5 -212.5t210.5 -71.5q136 0 211.5 71.5t75.5 212.5v867h352v-873q0 -265 -172 -420t-467 -155zM457 1552l131 271h291l-174 -271h-248zM795 1552l172 271h290l-215 -271h-247z" />
    <glyph glyph-name="uhungarumlaut" unicode="&#x171;" horiz-adv-x="1185" 
d="M1092 1044v-1044h-349v227q-59 -107 -152.5 -174t-213.5 -67q-86 0 -145.5 28.5t-92 84t-46 124.5t-13.5 164v657h348v-595q0 -115 31 -164t106 -49q76 0 127 70.5t51 182.5v555h349zM309 1163l131 271h291l-174 -271h-248zM647 1163l172 271h291l-215 -271h-248z" />
    <glyph glyph-name="Uogonek" unicode="&#x172;" horiz-adv-x="1472" 
d="M739 -14q-298 0 -471.5 155t-173.5 420v873h359v-867q0 -141 75.5 -212.5t210.5 -71.5q136 0 211.5 71.5t75.5 212.5v867h352v-873q0 -162 -66 -285t-188 -196q-75 -75 -75 -131q0 -70 63 -70q30 0 80 15l88 -209q-28 -23 -77.5 -42.5t-98.5 -19.5q-108 0 -186 64
t-78 170q0 75 41 139q-75 -10 -142 -10z" />
    <glyph glyph-name="uogonek" unicode="&#x173;" horiz-adv-x="1185" 
d="M1092 1044v-1044h-168q-76 -76 -76 -131q0 -70 63 -70q31 0 80 15l88 -209q-28 -23 -77.5 -42.5t-98.5 -19.5q-108 0 -186 64t-78 170q0 111 106 223h-2v227q-59 -107 -152.5 -174t-213.5 -67q-86 0 -145.5 28.5t-92 84t-46 124.5t-13.5 164v657h348v-595q0 -115 31 -164
t106 -49q76 0 127 70.5t51 182.5v555h349z" />
    <glyph glyph-name="Wcircumflex" unicode="&#x174;" horiz-adv-x="2011" 
d="M356 0l-342 1434h348l213 -902l271 902h319l275 -885l209 885h348l-342 -1434h-357l-297 950l-288 -950h-357zM614 1552l260 271h248l260 -271h-295l-88 125l-90 -125h-295z" />
    <glyph glyph-name="wcircumflex" unicode="&#x175;" horiz-adv-x="1624" 
d="M301 0l-291 1044h320l159 -575l191 575h283l165 -561l166 561h320l-305 -1044h-303l-195 649l-207 -649h-303zM428 1163l260 271h248l260 -271h-295l-88 125l-90 -125h-295z" />
    <glyph glyph-name="Ycircumflex" unicode="&#x176;" horiz-adv-x="1349" 
d="M496 612l-494 822h371l313 -527l315 527h347l-494 -822v-612h-358v612zM297 1552l260 271h248l260 -271h-295l-88 125l-90 -125h-295z" />
    <glyph glyph-name="ycircumflex" unicode="&#x177;" horiz-adv-x="1159" 
d="M156 -410v287h120q75 0 114 24t63 79l-441 1064h322l268 -647l227 647h316l-371 -1044q-85 -241 -178.5 -325.5t-278.5 -84.5h-161zM225 1163l260 271h248l260 -271h-295l-88 125l-90 -125h-295z" />
    <glyph glyph-name="Ydieresis" unicode="&#x178;" horiz-adv-x="1349" 
d="M496 612l-494 822h371l313 -527l315 527h347l-494 -822v-612h-358v612zM373 1552v271h250v-271h-250zM741 1552v271h250v-271h-250z" />
    <glyph glyph-name="Zacute" unicode="&#x179;" horiz-adv-x="1243" 
d="M49 276l744 881h-744v277h1145v-277l-743 -881h743v-276h-1145v276zM471 1552l131 271h332l-174 -271h-289z" />
    <glyph glyph-name="zacute" unicode="&#x17a;" horiz-adv-x="985" 
d="M55 0v266l455 502h-438v276h848v-266l-455 -502h461v-276h-871zM340 1163l131 271h332l-174 -271h-289z" />
    <glyph glyph-name="Zdotaccent" unicode="&#x17b;" horiz-adv-x="1243" 
d="M49 276l744 881h-744v277h1145v-277l-743 -881h743v-276h-1145v276zM459 1554v271h356v-271h-356z" />
    <glyph glyph-name="zdotaccent" unicode="&#x17c;" horiz-adv-x="985" 
d="M55 0v266l455 502h-438v276h848v-266l-455 -502h461v-276h-871zM328 1165v271h356v-271h-356z" />
    <glyph glyph-name="Zcaron" unicode="&#x17d;" horiz-adv-x="1243" 
d="M49 276l744 881h-744v277h1145v-277l-743 -881h743v-276h-1145v276zM252 1823h295l90 -125l88 125h295l-260 -271h-248z" />
    <glyph glyph-name="zcaron" unicode="&#x17e;" horiz-adv-x="985" 
d="M55 0v266l455 502h-438v276h848v-266l-455 -502h461v-276h-871zM121 1434h295l90 -125l88 125h295l-260 -271h-248z" />
    <glyph glyph-name="florin" unicode="&#x192;" horiz-adv-x="1013" 
d="M86 92q49 0 81 9t50 30t26 43.5t15 61.5l92 532h-198v276h245q41 223 158 313.5t358 90.5v-287q-85 0 -118.5 -27.5t-46.5 -89.5h165v-276h-215l-92 -539q-40 -235 -157 -329.5t-363 -94.5v287z" />
    <glyph glyph-name="uni0218" unicode="&#x218;" horiz-adv-x="1234" 
d="M647 -14q-145 0 -274.5 49.5t-226 153t-126.5 243.5l340 72q31 -120 110.5 -181t186.5 -61q80 0 133.5 33t53.5 102q0 57 -39 87.5t-135 64.5l-267 94q-171 60 -253 145t-82 238q0 84 34.5 159.5t99 134.5t167 93.5t229.5 34.5q239 0 392.5 -109t211.5 -295l-350 -71
q-26 96 -97 147t-173 51q-79 0 -122.5 -34t-43.5 -84q0 -46 39 -75.5t116 -55.5l265 -91q356 -124 356 -405q0 -70 -18 -133t-59 -120t-102.5 -98t-155 -65t-210.5 -24zM481 -547v137q55 0 85 2.5t43.5 11.5t15.5 17.5t2 31.5v11h-146v248h283v-248q0 -110 -62.5 -160.5
t-220.5 -50.5z" />
    <glyph glyph-name="uni0219" unicode="&#x219;" horiz-adv-x="1024" 
d="M535 -14q-212 0 -338 94t-164 242l311 67q47 -158 203 -158q67 0 102 23t35 65q0 62 -109 84l-178 37q-87 18 -146 39t-106 54.5t-69.5 82t-22.5 115.5q0 146 121.5 237t317.5 91q210 0 332 -81t161 -208l-319 -72q-22 54 -63.5 84.5t-123.5 30.5q-57 0 -88 -18t-31 -50
q0 -54 91 -71l227 -45q156 -31 234.5 -101.5t78.5 -187.5q0 -153 -118.5 -253.5t-337.5 -100.5zM375 -547v137q72 0 103 6.5t37 17t5 38.5v12h-145v248h282v-248q0 -110 -62.5 -160.5t-219.5 -50.5z" />
    <glyph glyph-name="uni021A" unicode="&#x21a;" horiz-adv-x="1214" 
d="M428 0v1157h-410v277h1178v-277h-410v-1157h-358zM461 -547v137q72 0 103 6.5t37 17t5 38.5v12h-145v248h282v-248q0 -110 -62.5 -160.5t-219.5 -50.5z" />
    <glyph glyph-name="uni021B" unicode="&#x21b;" horiz-adv-x="757" 
d="M535 0q-191 0 -294.5 93.5t-103.5 275.5v399h-129v276h129v173l348 106v-279h211v-276h-211v-399q0 -82 90 -82h121v-287h-161zM344 -547v137q72 0 103 6.5t37 17t5 38.5v12h-145v248h283v-248q0 -110 -62.5 -160.5t-220.5 -50.5z" />
    <glyph glyph-name="uni0237" unicode="&#x237;" horiz-adv-x="555" 
d="M-61 -410v287h79q91 0 91 82v1085h348v-1085q0 -182 -103.5 -275.5t-294.5 -93.5h-120z" />
    <glyph glyph-name="circumflex" unicode="&#x2c6;" horiz-adv-x="808" 
d="M20 1163l261 271h247l260 -271h-294l-88 125l-91 -125h-295z" />
    <glyph glyph-name="caron" unicode="&#x2c7;" horiz-adv-x="829" 
d="M281 1163l-261 271h295l91 -125l88 125h294l-260 -271h-247z" />
    <glyph glyph-name="breve" unicode="&#x2d8;" horiz-adv-x="708" 
d="M354 1122q-140 0 -237 88.5t-97 223.5h230q0 -51 29 -83t75 -32t75.5 32t29.5 83h229q0 -135 -97 -223.5t-237 -88.5z" />
    <glyph glyph-name="dotaccent" unicode="&#x2d9;" horiz-adv-x="438" 
d="M41 1163v271h356v-271h-356z" />
    <glyph glyph-name="ring" unicode="&#x2da;" horiz-adv-x="536" 
d="M244 1118q-117 0 -180.5 52.5t-63.5 150.5q0 97 63.5 149t180.5 52t179 -52t62 -149q0 -98 -62 -150.5t-179 -52.5zM180 1321q0 -37 14.5 -52.5t49.5 -15.5q34 0 47.5 15.5t13.5 52.5t-13.5 51t-47.5 14q-36 0 -50 -14t-14 -51z" />
    <glyph glyph-name="ogonek" unicode="&#x2db;" horiz-adv-x="550" 
d="M315 -449q-108 0 -186 64t-78 170q0 110 107 223h178q-76 -76 -76 -131q0 -70 64 -70q30 0 79 15l89 -209q-28 -23 -78 -42.5t-99 -19.5z" />
    <glyph glyph-name="tilde" unicode="&#x2dc;" horiz-adv-x="995" 
d="M131 1184q18 121 75 188.5t134 67.5q45 0 84.5 -13t63 -28t55 -28t61.5 -13q64 0 70 82l198 -43q-3 -122 -59 -189t-149 -67q-43 0 -81.5 13t-61.5 28t-50.5 28t-50.5 13q-59 0 -90 -82z" />
    <glyph glyph-name="hungarumlaut" unicode="&#x2dd;" horiz-adv-x="712" 
d="M41 1163l131 271h291l-174 -271h-248zM379 1163l172 271h291l-215 -271h-248z" />
    <glyph glyph-name="gravecomb" unicode="&#x300;" 
d="M215 1163l-174 271h332l131 -271h-289z" />
    <glyph glyph-name="acutecomb" unicode="&#x301;" 
d="M41 1163l131 271h332l-174 -271h-289z" />
    <glyph glyph-name="uni0302" unicode="&#x302;" 
d="M20 1163l261 271h247l260 -271h-294l-88 125l-91 -125h-295z" />
    <glyph glyph-name="tildecomb" unicode="&#x303;" 
d="M131 1184q18 121 75 188.5t134 67.5q45 0 84.5 -13t63 -28t55 -28t61.5 -13q64 0 70 82l198 -43q-3 -122 -59 -189t-149 -67q-43 0 -81.5 13t-61.5 28t-50.5 28t-50.5 13q-59 0 -90 -82z" />
    <glyph glyph-name="uni0304" unicode="&#x304;" 
d="M41 1391h584v-205h-584v205z" />
    <glyph glyph-name="uni0306" unicode="&#x306;" 
d="M354 1122q-140 0 -237 88.5t-97 223.5h230q0 -51 29 -83t75 -32t75.5 32t29.5 83h229q0 -135 -97 -223.5t-237 -88.5z" />
    <glyph glyph-name="uni0307" unicode="&#x307;" 
d="M41 1163v271h356v-271h-356z" />
    <glyph glyph-name="uni0308" unicode="&#x308;" 
d="M33 1163v271h250v-271h-250zM401 1163v271h250v-271h-250z" />
    <glyph glyph-name="uni030A" unicode="&#x30a;" 
d="M244 1118q-117 0 -180.5 52.5t-63.5 150.5q0 97 63.5 149t180.5 52t179 -52t62 -149q0 -98 -62 -150.5t-179 -52.5zM180 1321q0 -37 14.5 -52.5t49.5 -15.5q34 0 47.5 15.5t13.5 52.5t-13.5 51t-47.5 14q-36 0 -50 -14t-14 -51z" />
    <glyph glyph-name="uni030B" unicode="&#x30b;" 
d="M41 1163l131 271h291l-174 -271h-248zM379 1163l172 271h291l-215 -271h-248z" />
    <glyph glyph-name="uni030C" unicode="&#x30c;" 
d="M281 1163l-261 271h295l91 -125l88 125h294l-260 -271h-247z" />
    <glyph glyph-name="uni0312" unicode="&#x312;" 
d="M20 1411q0 110 62.5 160.5t220.5 50.5v-137q-72 0 -103 -6.5t-37 -17t-5 -38.5v-12h145v-248h-283v248z" />
    <glyph glyph-name="uni0326" unicode="&#x326;" 
d="M41 -410q72 0 103 6.5t37 17t5 38.5v12h-145v248h283v-248q0 -110 -62.5 -160.5t-220.5 -50.5v137z" />
    <glyph glyph-name="uni0327" unicode="&#x327;" 
d="M291 -463q-78 0 -150 30.5t-116 76.5l104 131q82 -82 156 -82q29 0 48 15.5t19 43.5q0 44 -56 70t-130 26v58l86 123h133l-35 -103q81 -14 133 -66t52 -128q0 -88 -70 -141.5t-174 -53.5z" />
    <glyph glyph-name="uni0328" unicode="&#x328;" 
d="M315 -449q-108 0 -186 64t-78 170q0 110 107 223h178q-76 -76 -76 -131q0 -70 64 -70q30 0 79 15l89 -209q-28 -23 -78 -42.5t-99 -19.5z" />
    <glyph glyph-name="uni0335" unicode="&#x335;" 
d="M223 561v236h815v-236h-815z" />
    <glyph glyph-name="uni0336" unicode="&#x336;" 
d="M41 561v236h1061v-236h-1061z" />
    <glyph glyph-name="uni0337" unicode="&#x337;" 
d="M152 0l-107 106l983 938l107 -106z" />
    <glyph glyph-name="uni0338" unicode="&#x338;" 
d="M143 0l-102 104l1315 1315l102 -104z" />
    <glyph glyph-name="uni0394" unicode="&#x394;" horiz-adv-x="1501" 
d="M6 0l541 1434h407l541 -1434h-1489zM453 276h553l-275 750z" />
    <glyph glyph-name="uni03A9" unicode="&#x3a9;" horiz-adv-x="1515" 
d="M840 272q116 41 185 176t69 318q0 182 -89.5 283.5t-244.5 101.5q-157 0 -247.5 -104.5t-90.5 -290.5q0 -170 69 -303.5t185 -180.5v-272h-606v272h411q-198 60 -313 200t-115 325q0 295 191.5 473t513.5 178t513 -178t191 -473q0 -190 -113 -329.5t-309 -195.5h406v-272
h-606v272z" />
    <glyph glyph-name="uni03BC" unicode="&#x3bc;" horiz-adv-x="1177" 
d="M1083 1044v-1044h-348v117q-67 -131 -180 -131q-64 0 -113 43v-439h-348v1454h348v-618q0 -95 36 -142.5t102 -47.5q140 0 155 245v563h348z" />
    <glyph glyph-name="pi" unicode="&#x3c0;" horiz-adv-x="1222" 
d="M997 430q0 -71 34.5 -107t117.5 -36h12v-287h-12q-151 0 -246 21t-152.5 74t-79.5 131.5t-22 203.5v346h-106l-82 -776h-348l82 776h-164v268h1130v-268h-164v-346z" />
    <glyph glyph-name="uni0400" unicode="&#x400;" horiz-adv-x="1138" 
d="M102 0v1434h985v-277h-626v-285h522v-276h-522v-320h626v-276h-985zM309 1823h332l131 -271h-289z" />
    <glyph glyph-name="uni0401" unicode="&#x401;" horiz-adv-x="1138" 
d="M102 0v1434h985v-277h-626v-285h522v-276h-522v-320h626v-276h-985zM297 1552v271h250v-271h-250zM666 1552v271h249v-271h-249z" />
    <glyph glyph-name="uni0402" unicode="&#x402;" horiz-adv-x="1589" 
d="M795 -102q107 -35 202 -35q84 0 119 36t35 107v430q0 246 -248 246q-142 0 -280 -72v-610h-359v1157h-246v277h1172v-277h-567v-287q184 88 360 88q81 0 155 -16t142.5 -53t118.5 -91.5t80 -137.5t30 -185v-475q0 -424 -493 -424q-118 0 -221 35v287z" />
    <glyph glyph-name="uni0403" unicode="&#x403;" horiz-adv-x="1128" 
d="M102 0v1434h1008v-277h-649v-1157h-359zM457 1554l131 271h332l-175 -271h-288z" />
    <glyph glyph-name="uni0404" unicode="&#x404;" horiz-adv-x="1421" 
d="M760 -14q-333 0 -527 195.5t-194 535.5q0 328 196.5 529.5t514.5 201.5q238 0 409.5 -122t229.5 -335l-353 -78q-34 114 -112.5 176t-188.5 62q-124 0 -206 -77.5t-109 -213.5h522v-276h-520q31 -144 120.5 -222.5t221.5 -78.5q114 0 192.5 53t96.5 164l350 -82
q-57 -194 -228 -313t-415 -119z" />
    <glyph glyph-name="uni0405" unicode="&#x405;" horiz-adv-x="1234" 
d="M647 -14q-145 0 -274.5 49.5t-226 153t-126.5 243.5l340 72q31 -120 110.5 -181t186.5 -61q80 0 133.5 33t53.5 102q0 57 -39 87.5t-135 64.5l-267 94q-171 60 -253 145t-82 238q0 84 34.5 159.5t99 134.5t167 93.5t229.5 34.5q239 0 392.5 -109t211.5 -295l-350 -71
q-26 96 -97 147t-173 51q-79 0 -122.5 -34t-43.5 -84q0 -46 39 -75.5t116 -55.5l265 -91q356 -124 356 -405q0 -70 -18 -133t-59 -120t-102.5 -98t-155 -65t-210.5 -24z" />
    <glyph glyph-name="uni0406" unicode="&#x406;" horiz-adv-x="563" 
d="M102 0v1434h359v-1434h-359z" />
    <glyph glyph-name="uni0407" unicode="&#x407;" horiz-adv-x="563" 
d="M102 0v1434h359v-1434h-359zM-33 1552v271h250v-271h-250zM336 1552v271h250v-271h-250z" />
    <glyph glyph-name="uni0408" unicode="&#x408;" horiz-adv-x="1212" 
d="M602 -14q-247 0 -406.5 123.5t-187.5 336.5l324 68q9 -107 70 -169t159 -62q99 0 149 64t50 181v906h358v-947q0 -232 -140 -366.5t-376 -134.5z" />
    <glyph glyph-name="uni0409" unicode="&#x409;" horiz-adv-x="2168" 
d="M172 -14q-87 0 -154 26v277q51 -17 93 -17q62 0 88.5 33t31.5 111l56 1018h1077v-467h250q243 0 385.5 -132t142.5 -356q0 -221 -142.5 -350t-385.5 -129h-608v1157h-375l-43 -770q-7 -117 -35.5 -196t-83 -123.5t-125.5 -63t-172 -18.5zM1364 276h229q83 0 132 57
t49 154q0 94 -49 148.5t-132 54.5h-229v-414z" />
    <glyph glyph-name="uni040A" unicode="&#x40a;" horiz-adv-x="2131" 
d="M969 0v659h-508v-659h-359v1434h359v-498h508v498h358v-498h250q245 0 386.5 -124.5t141.5 -346.5q0 -220 -141.5 -342.5t-386.5 -122.5h-608zM1327 276h229q85 0 133 51t48 146q0 92 -48 139t-133 47h-229v-383z" />
    <glyph glyph-name="uni040B" unicode="&#x40b;" horiz-adv-x="1609" 
d="M18 1157v277h1172v-277h-547v-287q184 88 361 88q81 0 155 -16t142.5 -53t118.5 -91.5t80 -137.5t30 -185v-475h-359v436q0 246 -247 246q-143 0 -281 -72v-610h-358v1157h-267z" />
    <glyph glyph-name="uni040C" unicode="&#x40c;" horiz-adv-x="1429" 
d="M1008 0l-371 567h-176v-567h-359v1434h359v-590h170l403 590h385l-489 -713l479 -721h-401zM586 1552l131 271h332l-175 -271h-288z" />
    <glyph glyph-name="uni040D" unicode="&#x40d;" horiz-adv-x="1511" 
d="M1051 0v950l-590 -950h-359v1434h359v-951l590 951h358v-1434h-358zM473 1823h332l131 -271h-289z" />
    <glyph glyph-name="uni040E" unicode="&#x40e;" horiz-adv-x="1323" 
d="M377 -14q-75 0 -155.5 10t-110.5 24v328q115 -35 223 -35q86 0 149.5 28t85.5 83l-567 1010h377l346 -619l252 619h344l-436 -1065q-25 -62 -52.5 -112t-71.5 -102.5t-95.5 -88t-126 -58t-162.5 -22.5zM352 1843h230q0 -51 29 -82.5t75 -31.5t75.5 31.5t29.5 82.5h229
q0 -135 -97 -223t-237 -88t-237 88t-97 223z" />
    <glyph glyph-name="uni040F" unicode="&#x40f;" horiz-adv-x="1470" 
d="M594 -246v246h-492v1434h359v-1158h549v1158h358v-1434h-498v-246h-276z" />
    <glyph glyph-name="uni0410" unicode="&#x410;" horiz-adv-x="1529" 
d="M999 1434l525 -1434h-359l-102 291h-604l-105 -291h-348l533 1434h460zM557 567h410l-203 582z" />
    <glyph glyph-name="uni0411" unicode="&#x411;" horiz-adv-x="1296" 
d="M102 0v1434h1059v-277h-700v-231h280q112 0 203 -27t150.5 -72t100 -106t58 -126t17.5 -136q0 -207 -137 -333t-392 -126h-639zM461 276h260q83 0 131.5 51.5t48.5 139.5q0 85 -48.5 133.5t-131.5 48.5h-260v-373z" />
    <glyph glyph-name="uni0412" unicode="&#x412;" horiz-adv-x="1308" 
d="M102 0v1434h615q236 0 361.5 -88.5t125.5 -249.5q0 -110 -64 -197.5t-169 -122.5q147 -27 230 -118t83 -236q0 -193 -153.5 -307.5t-415.5 -114.5h-613zM461 276h274q83 0 131.5 44.5t48.5 119.5t-48.5 119.5t-131.5 44.5h-274v-328zM461 870h233q75 0 118.5 40t43.5 108
q0 64 -43.5 101.5t-118.5 37.5h-233v-287z" />
    <glyph glyph-name="uni0413" unicode="&#x413;" horiz-adv-x="1128" 
d="M102 0v1434h1008v-277h-649v-1157h-359z" />
    <glyph glyph-name="uni0414" unicode="&#x414;" horiz-adv-x="1597" 
d="M109 276q68 0 112 34t47 106l41 1018h1082v-1158h182v-522h-277v246h-999v-246h-277v522h89zM573 276h459v881h-385l-31 -719q-3 -93 -43 -162z" />
    <glyph glyph-name="uni0415" unicode="&#x415;" horiz-adv-x="1138" 
d="M102 0v1434h985v-277h-626v-285h522v-276h-522v-320h626v-276h-985z" />
    <glyph glyph-name="uni0416" unicode="&#x416;" horiz-adv-x="2127" 
d="M1692 0l-289 567h-162v-567h-358v567h-160l-289 -567h-422l412 723l-401 711h391l309 -590h160v590h358v-590h162l309 590h391l-401 -711l412 -723h-422z" />
    <glyph glyph-name="uni0417" unicode="&#x417;" horiz-adv-x="1306" 
d="M676 -14q-256 0 -434 102.5t-232 294.5l338 76q104 -176 338 -176q108 0 167.5 41.5t59.5 119.5q0 75 -54 108.5t-167 33.5h-239l41 266h219q74 0 117.5 42t43.5 110q0 72 -55 109.5t-157 37.5q-122 0 -182 -39.5t-83 -138.5l-329 71q28 182 198.5 293t419.5 111
q262 0 406.5 -99t144.5 -276q0 -119 -76 -202t-198 -117q148 -27 233.5 -110t85.5 -212q0 -205 -154.5 -325.5t-451.5 -120.5z" />
    <glyph glyph-name="uni0418" unicode="&#x418;" horiz-adv-x="1511" 
d="M1051 0v950l-590 -950h-359v1434h359v-951l590 951h358v-1434h-358z" />
    <glyph glyph-name="uni0419" unicode="&#x419;" horiz-adv-x="1511" 
d="M1051 0v950l-590 -950h-359v1434h359v-951l590 951h358v-1434h-358zM436 1843h230q0 -51 29 -82.5t75 -31.5t75 31.5t29 82.5h230q0 -135 -97 -223t-237 -88t-237 88t-97 223z" />
    <glyph glyph-name="uni041A" unicode="&#x41a;" horiz-adv-x="1429" 
d="M1008 0l-371 567h-176v-567h-359v1434h359v-590h170l403 590h385l-489 -713l479 -721h-401z" />
    <glyph glyph-name="uni041B" unicode="&#x41b;" horiz-adv-x="1517" 
d="M172 -14q-87 0 -154 26v277q51 -17 93 -17q62 0 88.5 33t31.5 111l56 1018h1128v-1434h-358v1157h-426l-45 -790q-10 -193 -124.5 -287t-289.5 -94z" />
    <glyph glyph-name="uni041C" unicode="&#x41c;" horiz-adv-x="1824" 
d="M770 0l-330 848v-848h-338v1434h441l377 -975l362 975h440v-1434h-338v885l-329 -885h-285z" />
    <glyph glyph-name="uni041D" unicode="&#x41d;" horiz-adv-x="1490" 
d="M1030 0v578h-569v-578h-359v1434h359v-580h569v580h359v-1434h-359z" />
    <glyph glyph-name="uni041E" unicode="&#x41e;" horiz-adv-x="1486" 
d="M743 -14q-340 0 -522 189.5t-182 541.5t182 541.5t522 189.5t522.5 -189.5t182.5 -541.5t-182.5 -541.5t-522.5 -189.5zM408 717q0 -209 87 -321.5t248 -112.5t248.5 112.5t87.5 321.5t-87.5 321.5t-248.5 112.5t-248 -112.5t-87 -321.5z" />
    <glyph glyph-name="uni041F" unicode="&#x41f;" horiz-adv-x="1470" 
d="M1010 0v1157h-549v-1157h-359v1434h1266v-1434h-358z" />
    <glyph glyph-name="uni0420" unicode="&#x420;" horiz-adv-x="1277" 
d="M102 0v1434h545q280 0 443 -130.5t163 -353.5q0 -229 -152 -363t-413 -134h-227v-453h-359zM461 729h166q119 0 188.5 57.5t69.5 155.5q0 100 -69.5 157.5t-188.5 57.5h-166v-428z" />
    <glyph glyph-name="uni0421" unicode="&#x421;" horiz-adv-x="1421" 
d="M760 -14q-333 0 -527 195.5t-194 535.5q0 328 196.5 529.5t514.5 201.5q249 0 414 -132.5t225 -365.5l-353 -78q-73 279 -295 279q-149 0 -241 -115t-92 -301q0 -212 95.5 -332t260.5 -120q111 0 189.5 65.5t99.5 192.5l350 -82q-57 -210 -228.5 -341.5t-414.5 -131.5z
" />
    <glyph glyph-name="uni0422" unicode="&#x422;" horiz-adv-x="1214" 
d="M428 0v1157h-410v277h1178v-277h-410v-1157h-358z" />
    <glyph glyph-name="uni0423" unicode="&#x423;" horiz-adv-x="1323" 
d="M377 -14q-75 0 -155.5 10t-110.5 24v328q115 -35 223 -35q86 0 149.5 28t85.5 83l-567 1010h377l346 -619l252 619h344l-436 -1065q-25 -62 -52.5 -112t-71.5 -102.5t-95.5 -88t-126 -58t-162.5 -22.5z" />
    <glyph glyph-name="uni0424" unicode="&#x424;" horiz-adv-x="1691" 
d="M672 -41v270q-317 31 -475 173t-158 366t158 366t475 173v270h348v-270q317 -31 475 -173t158 -366t-158 -366t-475 -173v-270h-348zM408 768q0 -97 64.5 -164t199.5 -92v512q-135 -25 -199.5 -92t-64.5 -164zM1020 512q135 25 199.5 92t64.5 164t-64.5 164t-199.5 92
v-512z" />
    <glyph glyph-name="uni0425" unicode="&#x425;" horiz-adv-x="1368" 
d="M963 0l-287 444l-289 -444h-379l479 735l-452 699h391l274 -424l277 424h379l-467 -717l465 -717h-391z" />
    <glyph glyph-name="uni0426" unicode="&#x426;" horiz-adv-x="1564" 
d="M461 1434v-1158h549v1158h358v-1158h172v-522h-276v246h-1162v1434h359z" />
    <glyph glyph-name="uni0427" unicode="&#x427;" horiz-adv-x="1398" 
d="M578 434q-81 0 -155 16t-142.5 53t-119 92t-80.5 138t-30 185v516h359v-478q0 -245 247 -245q121 0 281 80v643h358v-1434h-358v522q-188 -88 -360 -88z" />
    <glyph glyph-name="uni0428" unicode="&#x428;" horiz-adv-x="2007" 
d="M102 0v1434h349v-1158h378v1158h349v-1158h378v1158h349v-1434h-1803z" />
    <glyph glyph-name="uni0429" unicode="&#x429;" horiz-adv-x="2111" 
d="M102 0v1434h349v-1158h378v1158h349v-1158h378v1158h349v-1158h182v-522h-277v246h-1708z" />
    <glyph glyph-name="uni042A" unicode="&#x42a;" horiz-adv-x="1529" 
d="M18 1157v277h697v-467h260q243 0 385.5 -132t142.5 -356q0 -221 -142.5 -350t-385.5 -129h-619v1157h-338zM715 276h239q83 0 132 57t49 154q0 94 -49 148.5t-132 54.5h-239v-414z" />
    <glyph glyph-name="uni042B" unicode="&#x42b;" horiz-adv-x="1867" 
d="M102 0v1434h359v-467h239q243 0 386 -132t143 -356q0 -221 -143 -350t-386 -129h-598zM461 276h219q83 0 131.5 57t48.5 154q0 94 -48.5 148.5t-131.5 54.5h-219v-414zM1407 0v1434h358v-1434h-358z" />
    <glyph glyph-name="uni042C" unicode="&#x42c;" horiz-adv-x="1327" 
d="M102 0v1434h359v-467h311q243 0 385.5 -132t142.5 -356q0 -221 -142.5 -350t-385.5 -129h-670zM461 276h291q83 0 131.5 57t48.5 154q0 94 -48.5 148.5t-131.5 54.5h-291v-414z" />
    <glyph glyph-name="uni042D" unicode="&#x42d;" horiz-adv-x="1421" 
d="M682 -14q-246 0 -427 120t-237 312l351 82q43 -102 123.5 -159.5t185.5 -57.5q139 0 220.5 72t105.5 229h-525v276h525q-25 141 -107.5 216t-210.5 75q-110 0 -188.5 -62t-112.5 -176l-352 78q58 211 238 334t421 123q316 0 503 -200t187 -531q0 -342 -185 -536.5
t-515 -194.5z" />
    <glyph glyph-name="uni042E" unicode="&#x42e;" horiz-adv-x="1947" 
d="M1245 -14q-294 0 -461.5 157.5t-195.5 454.5h-127v-598h-359v1434h359v-560h131q35 278 202 426t451 148q323 0 493.5 -189t170.5 -542t-170.5 -542t-493.5 -189zM950 717q0 -211 75 -322.5t220 -111.5t220 111.5t75 322.5t-75 322.5t-220 111.5t-220 -111.5t-75 -322.5z
" />
    <glyph glyph-name="uni042F" unicode="&#x42f;" horiz-adv-x="1353" 
d="M197 -14q-107 0 -174 26v277q51 -17 71 -17q33 0 47.5 14.5t14.5 55.5q0 263 280 348q-144 15 -230.5 101t-86.5 221q0 201 142.5 311.5t379.5 110.5h610v-1434h-358v506h-250q-66 0 -102.5 -39t-36.5 -113q0 -193 -77.5 -280.5t-229.5 -87.5zM481 985q0 -98 43 -150.5
t119 -52.5h250v375h-229q-89 0 -136 -45.5t-47 -126.5z" />
    <glyph glyph-name="uni0430" unicode="&#x430;" horiz-adv-x="1118" 
d="M688 688q0 49 -34.5 77t-92.5 28q-62 0 -104 -30t-74 -91l-313 69q50 137 186.5 227.5t329.5 90.5q207 0 328.5 -98t121.5 -285v-676h-348v172q-119 -186 -352 -186q-128 0 -217.5 69t-89.5 193q0 141 96 211.5t324 93.5q140 14 189.5 41t49.5 94zM397 297q0 -36 27 -56
t72 -20q33 0 63 11t58.5 35t47.5 69.5t23 107.5q-47 -35 -145 -47q-79 -9 -112.5 -32t-33.5 -68z" />
    <glyph glyph-name="uni0431" unicode="&#x431;" horiz-adv-x="1171" 
d="M580 -12q-81 0 -155.5 20.5t-143.5 68.5t-119.5 119.5t-80.5 180.5t-30 244q0 324 130 516.5t384 218.5l228 22q49 6 49 37v19h286v-43q0 -141 -53.5 -199.5t-210.5 -73.5l-295 -28q-99 -9 -158 -77.5t-85 -201.5q69 84 164 125t196 41q88 0 166.5 -26.5t142.5 -79
t102 -140.5t38 -201q0 -158 -64 -279.5t-191 -192t-300 -70.5zM379 471q0 -101 54.5 -161t146.5 -60q86 0 136 64.5t50 174.5q0 104 -50 165t-136 61q-92 0 -146.5 -66t-54.5 -178z" />
    <glyph glyph-name="uni0432" unicode="&#x432;" horiz-adv-x="1148" 
d="M94 0v1044h637q172 0 258 -67.5t86 -175.5t-68.5 -171t-181.5 -81q63 -6 114.5 -21.5t94.5 -44t66.5 -75.5t23.5 -109q0 -142 -105 -220.5t-276 -78.5h-649zM442 225h228q43 0 69.5 29t26.5 70q0 34 -28.5 61t-73.5 27h-222v-187zM442 637h172q47 0 75 26t28 66t-28 65
t-75 25h-172v-182z" />
    <glyph glyph-name="uni0433" unicode="&#x433;" horiz-adv-x="919" 
d="M94 0v1044h780v-266h-432v-778h-348z" />
    <glyph glyph-name="uni0434" unicode="&#x434;" horiz-adv-x="1368" 
d="M125 266q55 0 80.5 31.5t30.5 99.5l36 647h881v-778h184v-512h-266v246h-774v-246h-266v512h94zM510 266h315v512h-250l-20 -340q-6 -115 -45 -172z" />
    <glyph glyph-name="uni0435" unicode="&#x435;" horiz-adv-x="1142" 
d="M584 -12q-166 0 -291.5 67.5t-190.5 182t-65 258.5q0 154 64 281t190 204.5t293 77.5q231 0 372.5 -143t141.5 -365q0 -59 -6 -96h-703q12 -102 68 -156.5t143 -54.5q39 0 69 12t50.5 35t33 44.5t25.5 53.5l320 -72q-47 -147 -179 -238t-335 -91zM401 649h344
q-12 71 -55 112.5t-112 41.5q-64 0 -109.5 -40t-67.5 -114z" />
    <glyph glyph-name="uni0436" unicode="&#x436;" horiz-adv-x="1812" 
d="M16 0l281 522l-254 522h352l191 -389h145v389h348v-389h146l190 389h354l-256 -522l281 -522h-350l-209 389h-156v-389h-348v389h-156l-208 -389h-351z" />
    <glyph glyph-name="uni0437" unicode="&#x437;" horiz-adv-x="1103" 
d="M584 -14q-226 0 -371.5 92.5t-187.5 238.5l323 74q48 -139 227 -139q72 0 114 22t42 60t-31 56t-100 18h-141v225h100q78 0 110.5 18.5t32.5 61.5q0 38 -36 59t-105 21q-133 0 -170 -117l-344 78q50 133 196.5 219t362.5 86q120 0 220.5 -33.5t162.5 -98t62 -147.5
q0 -89 -56 -141t-155 -64q107 -17 173 -88t66 -168q0 -101 -66.5 -177.5t-178 -116t-250.5 -39.5z" />
    <glyph glyph-name="uni0438" unicode="&#x438;" horiz-adv-x="1218" 
d="M442 0h-348v1044h348v-593l334 593h348v-1044h-348v594z" />
    <glyph glyph-name="uni0439" unicode="&#x439;" horiz-adv-x="1218" 
d="M442 0h-348v1044h348v-593l334 593h348v-1044h-348v594zM293 1454h229q0 -51 29.5 -83t75.5 -32t75 32t29 83h230q0 -135 -97 -223t-237 -88t-237 88t-97 223z" />
    <glyph glyph-name="uni043A" unicode="&#x43a;" horiz-adv-x="1181" 
d="M817 0l-221 389h-154v-389h-348v1044h348v-389h154l201 389h350l-275 -514l302 -530h-357z" />
    <glyph glyph-name="uni043B" unicode="&#x43b;" horiz-adv-x="1243" 
d="M143 -12q-69 0 -123 12v287q59 -13 82 -13q60 0 93.5 32.5t37.5 111.5l37 626h879v-1044h-348v778h-230l-20 -360q-24 -430 -408 -430z" />
    <glyph glyph-name="uni043C" unicode="&#x43c;" horiz-adv-x="1421" 
d="M94 0v1044h277l336 -552l333 552h287v-1044h-328v428l-256 -428h-75l-256 428v-428h-318z" />
    <glyph glyph-name="uni043D" unicode="&#x43d;" horiz-adv-x="1220" 
d="M778 0v389h-336v-389h-348v1044h348v-389h336v389h348v-1044h-348z" />
    <glyph glyph-name="uni043E" unicode="&#x43e;" horiz-adv-x="1183" 
d="M592 -14q-244 0 -399.5 147.5t-155.5 388.5q0 240 156 388.5t399 148.5t399 -148.5t156 -388.5q0 -241 -155.5 -388.5t-399.5 -147.5zM395 522q0 -270 197 -270q196 0 196 270q0 271 -196 271q-197 0 -197 -271z" />
    <glyph glyph-name="uni043F" unicode="&#x43f;" horiz-adv-x="1200" 
d="M758 0v778h-316v-778h-348v1044h1012v-1044h-348z" />
    <glyph glyph-name="uni0440" unicode="&#x440;" horiz-adv-x="1251" 
d="M94 -410v1454h348v-215q91 230 316 230q197 0 326.5 -149t129.5 -396q0 -242 -126 -385t-310 -143q-121 0 -205.5 66t-130.5 184v-646h-348zM444 532q0 -131 57 -207.5t158 -76.5q91 0 144 71.5t53 194.5q0 130 -53 206.5t-144 76.5q-101 0 -158 -71t-57 -194z" />
    <glyph glyph-name="uni0441" unicode="&#x441;" horiz-adv-x="1140" 
d="M596 -14q-157 0 -284.5 67t-201 188t-73.5 273q0 123 43 226t118 172.5t177 108t219 38.5q198 0 340.5 -98.5t181.5 -247.5l-338 -78q-14 73 -62.5 115.5t-123.5 42.5q-91 0 -144 -79t-53 -188q0 -134 55.5 -204t157.5 -70q140 0 183 158l323 -74q-45 -155 -180 -252.5
t-338 -97.5z" />
    <glyph glyph-name="uni0442" unicode="&#x442;" horiz-adv-x="972" 
d="M311 0v778h-282v266h915v-266h-285v-778h-348z" />
    <glyph glyph-name="uni0443" unicode="&#x443;" horiz-adv-x="1159" 
d="M156 -410v287h120q75 0 114 24t63 79l-441 1064h322l268 -647l227 647h316l-371 -1044q-85 -241 -178.5 -325.5t-278.5 -84.5h-161z" />
    <glyph glyph-name="uni0444" unicode="&#x444;" horiz-adv-x="1552" 
d="M612 -410v406q-279 31 -427 166t-148 360q0 227 148 362.5t427 166.5v383h328v-383q279 -31 427.5 -166.5t148.5 -362.5q0 -225 -148.5 -360t-427.5 -166v-406h-328zM375 522q0 -114 57.5 -182t179.5 -92v551q-122 -24 -179.5 -93t-57.5 -184zM940 248q122 25 180 92.5
t58 181.5q0 115 -58 183.5t-180 93.5v-551z" />
    <glyph glyph-name="uni0445" unicode="&#x445;" horiz-adv-x="1124" 
d="M18 0l353 530l-353 514h371l184 -270l181 270h352l-352 -530l352 -514h-373l-184 268l-176 -268h-355z" />
    <glyph glyph-name="uni0446" unicode="&#x446;" horiz-adv-x="1312" 
d="M442 1044v-778h316v778h348v-778h176v-512h-266v246h-922v1044h348z" />
    <glyph glyph-name="uni0447" unicode="&#x447;" horiz-adv-x="1155" 
d="M401 276q-65 0 -126.5 21.5t-112 61.5t-81 105.5t-30.5 145.5v434h348v-387q0 -135 111 -135q102 0 203 76v446h348v-1044h-348v418q-128 -142 -312 -142z" />
    <glyph glyph-name="uni0448" unicode="&#x448;" horiz-adv-x="1693" 
d="M94 0v1044h338v-778h246v778h338v-778h246v778h337v-1044h-1505z" />
    <glyph glyph-name="uni0449" unicode="&#x449;" horiz-adv-x="1775" 
d="M94 0v1044h338v-778h246v778h338v-778h246v778h337v-778h146v-512h-266v246h-1385z" />
    <glyph glyph-name="uni044A" unicode="&#x44a;" horiz-adv-x="1357" 
d="M303 0v778h-283v266h631v-315h301q175 0 278 -98.5t103 -265.5t-103 -266t-278 -99h-649zM651 246h207q117 0 117 119q0 118 -123 118h-201v-237z" />
    <glyph glyph-name="uni044B" unicode="&#x44b;" horiz-adv-x="1656" 
d="M94 0v1044h348v-315h281q175 0 278 -98.5t103 -265.5t-103 -266t-278 -99h-629zM442 246h187q116 0 116 119q0 118 -122 118h-181v-237zM1214 0v1044h349v-1044h-349z" />
    <glyph glyph-name="uni044C" unicode="&#x44c;" horiz-adv-x="1148" 
d="M94 0v1044h348v-315h301q175 0 278 -98.5t103 -265.5t-103 -266t-278 -99h-649zM442 246h207q117 0 117 119q0 118 -123 118h-201v-237z" />
    <glyph glyph-name="uni044D" unicode="&#x44d;" horiz-adv-x="1138" 
d="M584 -14q-228 0 -370.5 93t-188.5 238l323 74q23 -72 80.5 -105.5t130.5 -33.5q151 0 186 166h-266v225h262q-40 150 -184 150q-76 0 -124 -38.5t-62 -99.5l-344 78q46 154 192 240t332 86q154 0 278.5 -65.5t198.5 -191t74 -288.5q0 -161 -67.5 -282t-184.5 -183.5
t-266 -62.5z" />
    <glyph glyph-name="uni044E" unicode="&#x44e;" horiz-adv-x="1601" 
d="M1051 -14q-187 0 -326 107t-176 298h-107v-391h-348v1044h348v-407h105q33 197 173 309.5t331 112.5q106 0 199 -36.5t163.5 -103.5t111 -169.5t40.5 -227.5q0 -126 -40.5 -228.5t-111 -169t-163.5 -102.5t-199 -36zM905 522q0 -127 37.5 -198.5t108.5 -71.5t108 71.5
t37 198.5t-37 199t-108 72t-108.5 -72t-37.5 -199z" />
    <glyph glyph-name="uni044F" unicode="&#x44f;" horiz-adv-x="1169" 
d="M182 340q13 61 46 86.5t128 32.5q-119 23 -200.5 99.5t-81.5 182.5q0 144 110.5 223.5t294.5 79.5h596v-1044h-348v340h-168q-33 0 -46 -23t-21 -88q-28 -243 -302 -243q-89 0 -143 12v289q41 -13 68 -13q29 0 44 15t23 51zM432 690q0 -45 33.5 -74.5t89.5 -29.5h172v213
h-172q-55 0 -89 -31.5t-34 -77.5z" />
    <glyph glyph-name="uni0450" unicode="&#x450;" horiz-adv-x="1142" 
d="M584 -12q-166 0 -291.5 67.5t-190.5 182t-65 258.5q0 154 64 281t190 204.5t293 77.5q231 0 372.5 -143t141.5 -365q0 -59 -6 -96h-703q12 -102 68 -156.5t143 -54.5q39 0 69 12t50.5 35t33 44.5t25.5 53.5l320 -72q-47 -147 -179 -238t-335 -91zM301 1434h332l131 -271
h-289zM401 649h344q-12 71 -55 112.5t-112 41.5q-64 0 -109.5 -40t-67.5 -114z" />
    <glyph glyph-name="uni0451" unicode="&#x451;" horiz-adv-x="1142" 
d="M584 -12q-166 0 -291.5 67.5t-190.5 182t-65 258.5q0 154 64 281t190 204.5t293 77.5q231 0 372.5 -143t141.5 -365q0 -59 -6 -96h-703q12 -102 68 -156.5t143 -54.5q39 0 69 12t50.5 35t33 44.5t25.5 53.5l320 -72q-47 -147 -179 -238t-335 -91zM289 1163v271h250v-271
h-250zM401 649h344q-12 71 -55 112.5t-112 41.5q-64 0 -109.5 -40t-67.5 -114zM657 1163v271h250v-271h-250z" />
    <glyph glyph-name="uni0452" unicode="&#x452;" horiz-adv-x="1245" 
d="M627 -410v287h20q91 0 130.5 31t39.5 92v596q0 115 -31 164t-106 49q-76 0 -127 -71t-51 -183v-555h-348v1122h-134v195h134v117h348v-117h286v-195h-286v-305q59 107 152.5 174.5t213.5 67.5q86 0 145.5 -28.5t92 -84t46 -125t13.5 -164.5v-637q0 -232 -130 -331
t-388 -99h-20z" />
    <glyph glyph-name="uni0453" unicode="&#x453;" horiz-adv-x="919" 
d="M94 0v1044h780v-266h-432v-778h-348zM393 1163l131 271h332l-174 -271h-289z" />
    <glyph glyph-name="uni0454" unicode="&#x454;" horiz-adv-x="1138" 
d="M596 -14q-256 0 -407.5 141t-151.5 387q0 164 74.5 288.5t203.5 190.5t293 66q184 0 321 -85t183 -241l-344 -78q-14 61 -62 99.5t-124 38.5q-145 0 -185 -150h262v-225h-264q39 -166 223 -166q56 0 103 33.5t70 103.5l323 -74q-46 -141 -182 -235t-336 -94z" />
    <glyph glyph-name="uni0455" unicode="&#x455;" horiz-adv-x="1024" 
d="M535 -14q-212 0 -338 94t-164 242l311 67q47 -158 203 -158q67 0 102 23t35 65q0 62 -109 84l-178 37q-87 18 -146 39t-106 54.5t-69.5 82t-22.5 115.5q0 146 121.5 237t317.5 91q210 0 332 -81t161 -208l-319 -72q-22 54 -63.5 84.5t-123.5 30.5q-57 0 -88 -18t-31 -50
q0 -54 91 -71l227 -45q156 -31 234.5 -101.5t78.5 -187.5q0 -153 -118.5 -253.5t-337.5 -100.5z" />
    <glyph glyph-name="uni0456" unicode="&#x456;" horiz-adv-x="536" 
d="M94 0v1044h348v-1044h-348zM90 1165v271h356v-271h-356z" />
    <glyph glyph-name="uni0457" unicode="&#x457;" horiz-adv-x="536" 
d="M94 0v1044h348v-1044h-348zM0 1163v271h229v-271h-229zM307 1163v271h230v-271h-230z" />
    <glyph glyph-name="uni0458" unicode="&#x458;" horiz-adv-x="555" 
d="M-61 -410v287h79q91 0 91 82v1085h348v-1085q0 -182 -103.5 -275.5t-294.5 -93.5h-120zM106 1165v271h357v-271h-357z" />
    <glyph glyph-name="uni0459" unicode="&#x459;" horiz-adv-x="1837" 
d="M143 -12q-69 0 -123 12v287q59 -13 82 -13q101 0 111 144l37 626h901v-315h281q175 0 277.5 -98.5t102.5 -265.5t-102.5 -266t-277.5 -99h-629v778h-232l-20 -360q-24 -430 -408 -430zM1151 246h186q117 0 117 119q0 118 -123 118h-180v-237z" />
    <glyph glyph-name="uni045A" unicode="&#x45a;" horiz-adv-x="1792" 
d="M758 0v453h-316v-453h-348v1044h348v-346h316v346h348v-346h280q177 0 279 -89.5t102 -254.5q0 -166 -102.5 -260t-278.5 -94h-628zM1106 246h182q61 0 91 24.5t30 79.5q0 54 -31.5 78.5t-95.5 24.5h-176v-207z" />
    <glyph glyph-name="uni045B" unicode="&#x45b;" horiz-adv-x="1251" 
d="M160 0v1122h-140v195h140v117h348v-117h280v-195h-280v-305q59 107 152.5 174.5t213.5 67.5q86 0 145.5 -28.5t92 -84t46 -125t13.5 -164.5v-657h-348v596q0 115 -31 164t-106 49q-76 0 -127 -71t-51 -183v-555h-348z" />
    <glyph glyph-name="uni045C" unicode="&#x45c;" horiz-adv-x="1181" 
d="M817 0l-221 389h-154v-389h-348v1044h348v-389h154l201 389h350l-275 -514l302 -530h-357zM461 1163l131 271h332l-174 -271h-289z" />
    <glyph glyph-name="uni045D" unicode="&#x45d;" horiz-adv-x="1218" 
d="M442 0h-348v1044h348v-593l334 593h348v-1044h-348v594zM330 1434h332l131 -271h-289z" />
    <glyph glyph-name="uni045E" unicode="&#x45e;" horiz-adv-x="1159" 
d="M156 -410v287h120q75 0 114 24t63 79l-441 1064h322l268 -647l227 647h316l-371 -1044q-85 -241 -178.5 -325.5t-278.5 -84.5h-161zM276 1454h230q0 -51 29 -83t75 -32t75.5 32t29.5 83h229q0 -135 -97 -223t-237 -88t-237 88t-97 223z" />
    <glyph glyph-name="uni045F" unicode="&#x45f;" horiz-adv-x="1200" 
d="M477 -246v246h-383v1044h348v-778h316v778h348v-1044h-383v-246h-246z" />
    <glyph glyph-name="uni0490" unicode="&#x490;" horiz-adv-x="1132" 
d="M102 0v1434h742v245h266v-522h-649v-1157h-359z" />
    <glyph glyph-name="uni0491" unicode="&#x491;" horiz-adv-x="919" 
d="M94 0v1044h535v226h245v-492h-432v-778h-348z" />
    <glyph glyph-name="uni0492" unicode="&#x492;" horiz-adv-x="1128" 
d="M102 0v551h-168v235h168v648h1008v-277h-649v-371h348v-235h-348v-551h-359z" />
    <glyph glyph-name="uni0493" unicode="&#x493;" horiz-adv-x="1021" 
d="M197 0v362h-177v216h177v466h780v-266h-432v-200h221v-216h-221v-362h-348z" />
    <glyph glyph-name="uni0496" unicode="&#x496;" horiz-adv-x="2127" 
d="M1692 0l-289 567h-162v-567h-358v567h-160l-289 -567h-422l412 723l-401 711h391l309 -590h160v590h358v-590h162l309 590h391l-401 -711l254 -447h180v-522h-276v246h-168z" />
    <glyph glyph-name="uni0497" unicode="&#x497;" horiz-adv-x="1812" 
d="M16 0l281 522l-254 522h352l191 -389h145v389h348v-389h146l190 389h354l-256 -522l138 -256h178v-512h-266v246h-119l-209 389h-156v-389h-348v389h-156l-208 -389h-351z" />
    <glyph glyph-name="uni049A" unicode="&#x49a;" horiz-adv-x="1429" 
d="M1008 0l-371 567h-176v-567h-359v1434h359v-590h170l403 590h385l-489 -713l295 -445h188v-522h-276v246h-129z" />
    <glyph glyph-name="uni049B" unicode="&#x49b;" horiz-adv-x="1181" 
d="M817 0l-221 389h-154v-389h-348v1044h348v-389h154l201 389h350l-275 -514l150 -264h180v-512h-266v246h-119z" />
    <glyph glyph-name="uni04A2" unicode="&#x4a2;" horiz-adv-x="1562" 
d="M1030 0v578h-569v-578h-359v1434h359v-580h569v580h359v-1158h149v-522h-276v246h-232z" />
    <glyph glyph-name="uni04A3" unicode="&#x4a3;" horiz-adv-x="1335" 
d="M778 0v389h-336v-389h-348v1044h348v-389h336v389h348v-778h179v-512h-267v246h-260z" />
    <glyph glyph-name="uni04AE" unicode="&#x4ae;" horiz-adv-x="1349" 
d="M496 612l-494 822h371l313 -527l315 527h347l-494 -822v-612h-358v612z" />
    <glyph glyph-name="uni04AF" unicode="&#x4af;" horiz-adv-x="1130" 
d="M14 1044h387l179 -604l178 604h358l-377 -1028v-426h-348v426z" />
    <glyph glyph-name="uni04B0" unicode="&#x4b0;" horiz-adv-x="1349" 
d="M236 664h229l-463 770h371l313 -527l315 527h347l-463 -770h229v-236h-260v-428h-358v428h-260v236z" />
    <glyph glyph-name="uni04B1" unicode="&#x4b1;" horiz-adv-x="1114" 
d="M14 1044h387l179 -604l178 604h358l-377 -1028v-2h230v-215h-230v-209h-348v209h-246v215h246v2z" />
    <glyph glyph-name="uni04B2" unicode="&#x4b2;" horiz-adv-x="1368" 
d="M963 0l-287 444l-289 -444h-379l479 735l-452 699h391l274 -424l277 424h379l-467 -717l287 -441h190v-522h-276v246h-127z" />
    <glyph glyph-name="uni04B3" unicode="&#x4b3;" horiz-adv-x="1124" 
d="M18 0l353 530l-353 514h371l184 -270l181 270h352l-352 -530l170 -248h241v-512h-266v246h-166l-184 268l-176 -268h-355z" />
    <glyph glyph-name="uni04B6" unicode="&#x4b6;" horiz-adv-x="1499" 
d="M578 434q-81 0 -155 16t-142.5 53t-119 92t-80.5 138t-30 185v516h359v-478q0 -245 247 -245q121 0 281 80v643h358v-1158h179v-522h-277v246h-260v522q-188 -88 -360 -88z" />
    <glyph glyph-name="uni04B7" unicode="&#x4b7;" horiz-adv-x="1269" 
d="M401 276q-65 0 -126.5 21.5t-112 61.5t-81 105.5t-30.5 145.5v434h348v-387q0 -135 111 -135q102 0 203 76v446h348v-778h178v-512h-266v246h-260v418q-128 -142 -312 -142z" />
    <glyph glyph-name="uni04BA" unicode="&#x4ba;" horiz-adv-x="1427" 
d="M989 436q0 246 -248 246q-142 0 -280 -72v-610h-359v1434h359v-564q184 88 360 88q81 0 155 -16t142.5 -53t119 -91.5t80.5 -137.5t30 -185v-475h-359v436z" />
    <glyph glyph-name="uni04BB" unicode="&#x4bb;" horiz-adv-x="1189" 
d="M98 0v1434h348v-617q59 107 153 174.5t214 67.5q86 0 145.5 -28.5t92 -84t46 -125t13.5 -164.5v-657h-348v596q0 115 -31 164t-106 49q-76 0 -127.5 -71t-51.5 -183v-555h-348z" />
    <glyph glyph-name="uni04D8" unicode="&#x4d8;" horiz-adv-x="1441" 
d="M702 -14q-130 0 -246.5 42.5t-211 125.5t-150 220t-55.5 312v113h993q-17 167 -105.5 259.5t-219.5 92.5q-121 0 -197 -53t-104 -144l-353 78q54 193 230.5 304.5t429.5 111.5q316 0 503 -200t187 -531q0 -217 -82 -381.5t-242 -257t-377 -92.5zM414 543
q21 -132 104 -196t201 -64q242 0 297 260h-602z" />
    <glyph glyph-name="uni04D9" unicode="&#x4d9;" horiz-adv-x="1142" 
d="M559 -14q-233 0 -373.5 144.5t-140.5 383.5q0 58 6 96h701q-29 183 -209 183q-64 0 -101 -32t-63 -85l-320 72q48 137 174 224t326 87q250 0 398.5 -144.5t148.5 -382.5q0 -243 -148 -394.5t-399 -151.5zM395 426q11 -77 55.5 -125.5t114.5 -48.5q150 0 185 174h-355z
" />
    <glyph glyph-name="uni04E2" unicode="&#x4e2;" horiz-adv-x="1511" 
d="M1051 0v950l-590 -950h-359v1434h359v-951l590 951h358v-1434h-358zM477 1575v205h584v-205h-584z" />
    <glyph glyph-name="uni04E3" unicode="&#x4e3;" horiz-adv-x="1218" 
d="M442 0h-348v1044h348v-593l334 593h348v-1044h-348v594zM334 1186v205h584v-205h-584z" />
    <glyph glyph-name="uni04E8" unicode="&#x4e8;" horiz-adv-x="1486" 
d="M743 -14q-340 0 -522 189.5t-182 541.5t182 541.5t522 189.5t522.5 -189.5t182.5 -541.5t-182.5 -541.5t-522.5 -189.5zM416 600q23 -154 107 -235.5t220 -81.5t220.5 81.5t107.5 235.5h-655zM416 836h655q-23 153 -107.5 234t-220.5 81t-220 -81t-107 -234z" />
    <glyph glyph-name="uni04E9" unicode="&#x4e9;" horiz-adv-x="1183" 
d="M592 -14q-244 0 -399.5 147.5t-155.5 388.5q0 240 156 388.5t399 148.5t399 -148.5t156 -388.5q0 -241 -155.5 -388.5t-399.5 -147.5zM403 420q34 -168 189 -168q154 0 188 168h-377zM403 625h377q-34 168 -188 168q-155 0 -189 -168z" />
    <glyph glyph-name="uni04EE" unicode="&#x4ee;" horiz-adv-x="1323" 
d="M377 -14q-75 0 -155.5 10t-110.5 24v328q115 -35 223 -35q86 0 149.5 28t85.5 83l-567 1010h377l346 -619l252 619h344l-436 -1065q-25 -62 -52.5 -112t-71.5 -102.5t-95.5 -88t-126 -58t-162.5 -22.5zM393 1575v205h584v-205h-584z" />
    <glyph glyph-name="uni04EF" unicode="&#x4ef;" horiz-adv-x="1159" 
d="M156 -410v287h120q75 0 114 24t63 79l-441 1064h322l268 -647l227 647h316l-371 -1044q-85 -241 -178.5 -325.5t-278.5 -84.5h-161zM317 1186v205h584v-205h-584z" />
    <glyph glyph-name="Wgrave" unicode="&#x1e80;" horiz-adv-x="2011" 
d="M356 0l-342 1434h348l213 -902l271 902h319l275 -885l209 885h348l-342 -1434h-357l-297 950l-288 -950h-357zM702 1823h332l131 -271h-288z" />
    <glyph glyph-name="wgrave" unicode="&#x1e81;" horiz-adv-x="1624" 
d="M301 0l-291 1044h320l159 -575l191 575h283l165 -561l166 561h320l-305 -1044h-303l-195 649l-207 -649h-303zM516 1434h332l131 -271h-289z" />
    <glyph glyph-name="Wacute" unicode="&#x1e82;" horiz-adv-x="2011" 
d="M356 0l-342 1434h348l213 -902l271 902h319l275 -885l209 885h348l-342 -1434h-357l-297 950l-288 -950h-357zM834 1552l131 271h331l-174 -271h-288z" />
    <glyph glyph-name="wacute" unicode="&#x1e83;" horiz-adv-x="1624" 
d="M301 0l-291 1044h320l159 -575l191 575h283l165 -561l166 561h320l-305 -1044h-303l-195 649l-207 -649h-303zM647 1163l131 271h332l-174 -271h-289z" />
    <glyph glyph-name="Wdieresis" unicode="&#x1e84;" horiz-adv-x="2011" 
d="M356 0l-342 1434h348l213 -902l271 902h319l275 -885l209 885h348l-342 -1434h-357l-297 950l-288 -950h-357zM690 1552v271h250v-271h-250zM1059 1552v271h250v-271h-250z" />
    <glyph glyph-name="wdieresis" unicode="&#x1e85;" horiz-adv-x="1624" 
d="M301 0l-291 1044h320l159 -575l191 575h283l165 -561l166 561h320l-305 -1044h-303l-195 649l-207 -649h-303zM504 1163v271h250v-271h-250zM872 1163v271h250v-271h-250z" />
    <glyph glyph-name="Ygrave" unicode="&#x1ef2;" horiz-adv-x="1349" 
d="M496 612l-494 822h371l313 -527l315 527h347l-494 -822v-612h-358v612zM385 1823h332l131 -271h-289z" />
    <glyph glyph-name="ygrave" unicode="&#x1ef3;" horiz-adv-x="1159" 
d="M156 -410v287h120q75 0 114 24t63 79l-441 1064h322l268 -647l227 647h316l-371 -1044q-85 -241 -178.5 -325.5t-278.5 -84.5h-161zM313 1434h332l131 -271h-289z" />
    <glyph glyph-name="uni2000" unicode="&#x2000;" horiz-adv-x="1024" 
 />
    <glyph glyph-name="uni2001" unicode="&#x2001;" horiz-adv-x="2048" 
 />
    <glyph glyph-name="uni2002" unicode="&#x2002;" horiz-adv-x="1024" 
 />
    <glyph glyph-name="uni2003" unicode="&#x2003;" horiz-adv-x="2048" 
 />
    <glyph glyph-name="uni2004" unicode="&#x2004;" horiz-adv-x="681" 
 />
    <glyph glyph-name="uni2005" unicode="&#x2005;" horiz-adv-x="512" 
 />
    <glyph glyph-name="uni2006" unicode="&#x2006;" horiz-adv-x="342" 
 />
    <glyph glyph-name="uni2007" unicode="&#x2007;" horiz-adv-x="1302" 
 />
    <glyph glyph-name="uni2008" unicode="&#x2008;" horiz-adv-x="460" 
 />
    <glyph glyph-name="uni2009" unicode="&#x2009;" horiz-adv-x="409" 
 />
    <glyph glyph-name="uni200A" unicode="&#x200a;" horiz-adv-x="292" 
 />
    <glyph glyph-name="uni200B" unicode="&#x200b;" 
 />
    <glyph glyph-name="endash" unicode="&#x2013;" horiz-adv-x="1310" 
d="M102 723h1106v-266h-1106v266z" />
    <glyph glyph-name="emdash" unicode="&#x2014;" horiz-adv-x="1830" 
d="M102 723h1627v-266h-1627v266z" />
    <glyph glyph-name="quoteleft" unicode="&#x2018;" horiz-adv-x="460" 
d="M379 1255q-52 0 -78.5 -37t-26.5 -94h105v-313h-297v330q0 136 78 214.5t219 78.5v-179z" />
    <glyph glyph-name="quoteright" unicode="&#x2019;" horiz-adv-x="460" 
d="M82 989q52 0 78 37t26 94h-104v314h297v-330q0 -136 -78 -214.5t-219 -78.5v178z" />
    <glyph glyph-name="quotesinglbase" unicode="&#x201a;" horiz-adv-x="460" 
d="M82 -131q52 0 78 37t26 94h-104v313h297v-329q0 -136 -78 -214.5t-219 -78.5v178z" />
    <glyph glyph-name="quotedblleft" unicode="&#x201c;" horiz-adv-x="860" 
d="M778 1255q-52 0 -78 -37t-26 -94h104v-313h-297v330q0 136 78 214.5t219 78.5v-179zM82 811v330q0 136 78 214.5t219 78.5v-179q-52 0 -78.5 -37t-26.5 -94h105v-313h-297z" />
    <glyph glyph-name="quotedblright" unicode="&#x201d;" horiz-adv-x="860" 
d="M82 989q52 0 78 37t26 94h-104v314h297v-330q0 -136 -78 -214.5t-219 -78.5v178zM481 811v178q52 0 78.5 37t26.5 94h-105v314h297v-330q0 -136 -78 -214.5t-219 -78.5z" />
    <glyph glyph-name="quotedblbase" unicode="&#x201e;" horiz-adv-x="860" 
d="M82 -131q52 0 78 37t26 94h-104v313h297v-329q0 -136 -78 -214.5t-219 -78.5v178zM481 -309v178q52 0 78.5 37t26.5 94h-105v313h297v-329q0 -136 -78 -214.5t-219 -78.5z" />
    <glyph glyph-name="dagger" unicode="&#x2020;" horiz-adv-x="974" 
d="M354 141v727h-282v258h282v308h267v-308h282v-258h-282v-727h-267z" />
    <glyph glyph-name="daggerdbl" unicode="&#x2021;" horiz-adv-x="1028" 
d="M381 141v246h-283v258h283v285h-283v258h283v246h266v-246h283v-258h-283v-285h283v-258h-283v-246h-266z" />
    <glyph glyph-name="bullet" unicode="&#x2022;" horiz-adv-x="532" 
d="M51 350v430h430v-430h-430z" />
    <glyph glyph-name="ellipsis" unicode="&#x2026;" horiz-adv-x="1218" 
d="M82 0v313h297v-313h-297zM461 0v313h297v-313h-297zM840 0v313h297v-313h-297z" />
    <glyph glyph-name="perthousand" unicode="&#x2030;" horiz-adv-x="2236" 
d="M1833 -14q-151 0 -239.5 80.5t-88.5 218.5t88.5 218.5t239.5 80.5t239.5 -80.5t88.5 -218.5t-88.5 -218.5t-239.5 -80.5zM76 0l1069 1434h295l-1069 -1434h-295zM76 1145q0 138 88 218.5t239 80.5t239.5 -80.5t88.5 -218.5t-88.5 -218.5t-239.5 -80.5t-239 80.5
t-88 218.5zM322 1145q0 -53 21.5 -84t59.5 -31t60 31t22 84t-22 84t-60 31t-59.5 -31t-21.5 -84zM784 285q0 138 88.5 218.5t239.5 80.5t239.5 -80.5t88.5 -218.5t-88.5 -218.5t-239.5 -80.5t-239.5 80.5t-88.5 218.5zM1030 285q0 -53 22 -84t60 -31t60 31t22 84t-22 83.5
t-60 30.5t-60 -30.5t-22 -83.5zM1751 285q0 -53 22 -84t60 -31t60 31t22 84t-22 83.5t-60 30.5t-60 -30.5t-22 -83.5z" />
    <glyph glyph-name="guilsinglleft" unicode="&#x2039;" horiz-adv-x="618" 
d="M537 975v-326l-226 -153l226 -152v-326l-496 398v162z" />
    <glyph glyph-name="guilsinglright" unicode="&#x203a;" horiz-adv-x="618" 
d="M82 16v326l225 154l-225 151v326l496 -398v-161z" />
    <glyph glyph-name="fraction" unicode="&#x2044;" horiz-adv-x="475" 
d="M-369 0l949 1434h264l-948 -1434h-265z" />
    <glyph glyph-name="uni2070" unicode="&#x2070;" horiz-adv-x="786" 
d="M393 743q-158 0 -250 113.5t-92 308.5q0 197 92 311.5t250 114.5t250 -114.5t92 -311.5q0 -195 -92 -308.5t-250 -113.5zM307 1165q0 -127 19 -177t67 -50q49 0 67.5 49.5t18.5 177.5q0 131 -18.5 181.5t-67.5 50.5q-48 0 -67 -51t-19 -181z" />
    <glyph glyph-name="uni2074" unicode="&#x2074;" horiz-adv-x="800" 
d="M20 1094l355 489h268v-489h137l-20 -174h-117v-164h-246v164h-377v174zM233 1094h164v227z" />
    <glyph glyph-name="uni2075" unicode="&#x2075;" horiz-adv-x="753" 
d="M391 748q-143 0 -244 66t-124 171l235 47q17 -43 40.5 -66.5t63.5 -23.5q43 0 68 30.5t25 82.5t-26.5 83t-70.5 31q-65 0 -96 -77h-194l90 491h489l-20 -205h-310l-30 -153q65 88 182 88q103 0 173.5 -75.5t70.5 -190.5q0 -141 -90.5 -220t-231.5 -79z" />
    <glyph glyph-name="uni2076" unicode="&#x2076;" horiz-adv-x="716" 
d="M369 748q-159 0 -254 100.5t-95 279.5q0 207 108.5 335t285.5 128q101 0 173.5 -54.5t92.5 -129.5l-213 -45q-14 23 -30 34t-46 11q-56 0 -104 -62t-60 -206q12 46 36.5 79.5t56 49.5t60 23t58.5 7q99 0 165.5 -74t66.5 -186q0 -137 -84 -213.5t-217 -76.5zM246 1034
q0 -47 24 -74.5t64 -27.5q41 0 65.5 27.5t24.5 74.5q0 46 -23 73.5t-63 27.5q-42 0 -67 -27.5t-25 -73.5z" />
    <glyph glyph-name="uni2077" unicode="&#x2077;" horiz-adv-x="681" 
d="M61 756l351 622h-351l-20 205h621v-205l-349 -622h-252z" />
    <glyph glyph-name="uni2078" unicode="&#x2078;" horiz-adv-x="782" 
d="M391 752q-157 0 -253.5 61t-96.5 162q0 81 58.5 132t164.5 69q-93 22 -140.5 75.5t-47.5 120.5q0 97 85 160t230 63t230.5 -63t85.5 -160q0 -65 -48.5 -119t-132.5 -77q99 -15 157 -67.5t58 -133.5q0 -101 -96.5 -162t-253.5 -61zM297 1016q0 -36 28 -58t66 -22t66 22
t28 58q0 33 -28 53.5t-66 20.5t-66 -20.5t-28 -53.5zM301 1348q0 -64 90 -64t90 64q0 63 -90 63q-36 0 -63 -18.5t-27 -44.5z" />
    <glyph glyph-name="uni2079" unicode="&#x2079;" horiz-adv-x="720" 
d="M369 1591q147 0 239 -105t92 -296q0 -199 -89 -320.5t-257 -121.5q-116 0 -202.5 59t-116.5 166l213 45q42 -86 110 -86q51 0 79.5 40t37.5 134q-51 -66 -162 -66q-106 0 -184 75t-78 185q0 136 91.5 213.5t226.5 77.5zM297 1305q0 -46 25 -73.5t67 -27.5q40 0 63 27.5
t23 73.5q0 47 -23 74.5t-63 27.5q-43 0 -67.5 -27.5t-24.5 -74.5z" />
    <glyph glyph-name="uni2080" unicode="&#x2080;" horiz-adv-x="786" 
d="M393 -217q-158 0 -250 113.5t-92 308.5q0 197 92 311.5t250 114.5t250 -114.5t92 -311.5q0 -195 -92 -308.5t-250 -113.5zM307 205q0 -127 19.5 -177.5t66.5 -50.5q49 0 67.5 49.5t18.5 178.5q0 131 -18.5 181t-67.5 50q-48 0 -67 -50.5t-19 -180.5z" />
    <glyph glyph-name="uni2081" unicode="&#x2081;" horiz-adv-x="593" 
d="M31 451q92 0 148.5 44t56.5 128h245v-828h-245v578q-25 -78 -74 -113t-131 -35v226z" />
    <glyph glyph-name="uni2082" unicode="&#x2082;" horiz-adv-x="694" 
d="M31 -164q2 79 24.5 141t56 100.5t73.5 69t79.5 53t72 44.5t53 53t20.5 70q0 31 -17.5 50t-46.5 19q-40 0 -62 -27.5t-38 -78.5l-217 49q35 128 126.5 190t215.5 62q119 0 201.5 -66t82.5 -172q0 -62 -24 -110t-65 -81.5t-84 -61.5t-91.5 -64.5t-77.5 -75.5h353l-21 -205
h-614v41z" />
    <glyph glyph-name="uni2083" unicode="&#x2083;" horiz-adv-x="768" 
d="M401 -213q-143 0 -243 65t-131 171l211 43q53 -95 139 -95q41 0 67.5 21.5t26.5 60.5q0 40 -26.5 65t-77.5 25h-97l33 164h55q97 0 97 72q0 28 -25 47.5t-70 19.5q-53 0 -78.5 -24.5t-35.5 -71.5l-203 43q19 110 105.5 174t226.5 64q79 0 151 -24.5t123 -78t51 -125.5
q0 -66 -43 -118t-135 -66q90 -19 141.5 -70.5t51.5 -125.5q0 -108 -93 -172t-221 -64z" />
    <glyph glyph-name="uni2084" unicode="&#x2084;" horiz-adv-x="800" 
d="M20 133l355 490h268v-490h137l-20 -174h-117v-164h-246v164h-377v174zM233 133h164v227z" />
    <glyph glyph-name="uni2085" unicode="&#x2085;" horiz-adv-x="753" 
d="M391 -213q-143 0 -243.5 66.5t-124.5 171.5l235 47q17 -43 40.5 -66.5t63.5 -23.5q43 0 68 30t25 82t-26.5 83.5t-70.5 31.5q-35 0 -59 -23t-37 -55h-194l90 492h489l-20 -205h-310l-30 -154q65 88 182 88q103 0 173.5 -75.5t70.5 -190.5q0 -141 -90.5 -220t-231.5 -79z
" />
    <glyph glyph-name="uni2086" unicode="&#x2086;" horiz-adv-x="716" 
d="M369 -213q-159 0 -254 101t-95 280q0 207 108.5 335t285.5 128q101 0 173.5 -55t92.5 -130l-213 -45q-14 23 -30 34t-46 11q-56 0 -104 -62t-60 -206q15 61 54.5 99t77.5 49.5t79 11.5q99 0 165.5 -74t66.5 -186q0 -137 -84 -214t-217 -77zM246 74q0 -47 24 -75t64 -28
q41 0 65.5 28t24.5 75q0 46 -23 73t-63 27q-43 0 -67.5 -27t-24.5 -73z" />
    <glyph glyph-name="uni2087" unicode="&#x2087;" horiz-adv-x="681" 
d="M61 -205l351 623h-351l-20 205h621v-205l-349 -623h-252z" />
    <glyph glyph-name="uni2088" unicode="&#x2088;" horiz-adv-x="782" 
d="M391 -213q-157 0 -253.5 61t-96.5 162q0 81 58.5 132t164.5 69q-92 22 -140 76t-48 121q0 97 85 160t230 63t230.5 -63t85.5 -160q0 -65 -48.5 -119.5t-132.5 -77.5q99 -15 157 -67.5t58 -133.5q0 -101 -96.5 -162t-253.5 -61zM297 51q0 -36 28 -58t66 -22t66 22t28 58
q0 33 -28 53.5t-66 20.5t-66 -20.5t-28 -53.5zM301 383q0 -64 90 -64t90 64q0 63 -90 63q-36 0 -63 -18.5t-27 -44.5z" />
    <glyph glyph-name="uni2089" unicode="&#x2089;" horiz-adv-x="720" 
d="M369 631q147 0 239 -105.5t92 -296.5q0 -199 -89 -320.5t-257 -121.5q-116 0 -202.5 59t-116.5 166l213 45q42 -86 110 -86q51 0 79.5 40t37.5 134q-50 -65 -162 -65q-106 0 -184 75t-78 185q0 136 91.5 213.5t226.5 77.5zM297 344q0 -46 24.5 -73t67.5 -27q40 0 63 27
t23 73q0 47 -23 74.5t-63 27.5q-43 0 -67.5 -27.5t-24.5 -74.5z" />
    <glyph glyph-name="Euro" unicode="&#x20ac;" horiz-adv-x="1462" 
d="M780 -14q-333 0 -527 195.5t-194 535.5q0 328 196.5 529.5t514.5 201.5q249 0 414 -132.5t225 -365.5l-352 -78q-73 279 -295 279q-116 0 -200 -71t-116 -195h435l-21 -154h-432q0 -12 1 -33.5t1 -31.5h422l-21 -154h-368q41 -111 123.5 -170t197.5 -59q111 0 189.5 65.5
t99.5 192.5l350 -82q-57 -210 -228.5 -341.5t-414.5 -131.5z" />
    <glyph glyph-name="trademark" unicode="&#x2122;" horiz-adv-x="1458" 
d="M242 825v455h-181v154h543v-154h-178v-455h-184zM643 825v609h209l137 -283l129 283h217v-609h-184v297l-141 -297h-41l-142 297v-297h-184z" />
    <glyph glyph-name="uni2126" unicode="&#x2126;" horiz-adv-x="1515" 
d="M840 272q116 41 185 176t69 318q0 182 -89.5 283.5t-244.5 101.5q-157 0 -247.5 -104.5t-90.5 -290.5q0 -170 69 -303.5t185 -180.5v-272h-606v272h411q-198 60 -313 200t-115 325q0 295 191.5 473t513.5 178t513 -178t191 -473q0 -190 -113 -329.5t-309 -195.5h406v-272
h-606v272z" />
    <glyph glyph-name="oneeighth" unicode="&#x215b;" horiz-adv-x="1841" 
d="M31 1262q92 0 148.5 44t56.5 128h245v-828h-245v578q-25 -78 -74 -113t-131 -35v226zM225 0l949 1434h264l-949 -1434h-264zM1069 215q0 81 58.5 132t164.5 69q-93 22 -140.5 75.5t-47.5 120.5q0 97 85 160.5t230 63.5t230.5 -63.5t85.5 -160.5q0 -65 -48.5 -119
t-132.5 -77q99 -15 157 -67.5t58 -133.5q0 -101 -96.5 -162t-253.5 -61t-253.5 61t-96.5 162zM1325 256q0 -36 28 -58t66 -22t66 22t28 58q0 33 -28 53.5t-66 20.5t-66 -20.5t-28 -53.5zM1329 588q0 -64 90 -64t90 64q0 63 -90 63q-36 0 -63 -18.5t-27 -44.5z" />
    <glyph glyph-name="threeeighths" unicode="&#x215c;" horiz-adv-x="2029" 
d="M401 598q-143 0 -243 65t-131 171l211 43q53 -95 139 -95q41 0 67.5 21.5t26.5 60.5q0 40 -26.5 65t-77.5 25h-97l33 164h55q97 0 97 72q0 28 -25 47.5t-70 19.5q-53 0 -78.5 -24.5t-35.5 -71.5l-203 43q19 110 105.5 174t226.5 64q79 0 151 -24.5t123 -78t51 -125.5
q0 -66 -43 -118t-135 -66q90 -19 141.5 -70.5t51.5 -125.5q0 -108 -93 -172t-221 -64zM399 0l949 1434h264l-948 -1434h-265zM1257 215q0 80 59 131.5t165 69.5q-93 22 -141 75.5t-48 120.5q0 97 85.5 160.5t230.5 63.5t230 -63.5t85 -160.5q0 -65 -48 -119t-132 -77
q99 -15 157 -67.5t58 -133.5q0 -101 -96.5 -162t-253.5 -61t-254 61t-97 162zM1513 256q0 -35 28.5 -57.5t66.5 -22.5t66 22t28 58q0 33 -28 53.5t-66 20.5t-66.5 -20.5t-28.5 -53.5zM1518 588q0 -64 90 -64t90 64q0 63 -90 63q-36 0 -63 -18.5t-27 -44.5z" />
    <glyph glyph-name="fiveeighths" unicode="&#x215d;" horiz-adv-x="2009" 
d="M399 598q-143 0 -243.5 66.5t-124.5 171.5l235 47q35 -90 105 -90q43 0 67.5 30t24.5 82q0 53 -26 84t-70 31q-35 0 -59.5 -23.5t-37.5 -54.5h-194l90 492h489l-20 -205h-309l-31 -154q65 88 182 88q103 0 173.5 -75.5t70.5 -190.5q0 -141 -90.5 -220t-231.5 -79zM393 0
l948 1434h265l-949 -1434h-264zM1237 215q0 81 58.5 132t164.5 69q-93 22 -140.5 75.5t-47.5 120.5q0 97 85 160.5t230 63.5t230.5 -63.5t85.5 -160.5q0 -65 -48.5 -119t-132.5 -77q99 -15 157 -67.5t58 -133.5q0 -101 -96.5 -162t-253.5 -61t-253.5 61t-96.5 162zM1493 256
q0 -36 28 -58t66 -22t66 22t28 58q0 33 -28 53.5t-66 20.5t-66 -20.5t-28 -53.5zM1497 588q0 -64 90 -64t90 64q0 63 -90 63q-36 0 -63 -18.5t-27 -44.5z" />
    <glyph glyph-name="seveneighths" unicode="&#x215e;" horiz-adv-x="1777" 
d="M92 606l350 623h-350l-20 205h620v-205l-348 -623h-252zM168 0l948 1434h264l-948 -1434h-264zM1006 215q0 81 58.5 132t164.5 69q-93 22 -141 75.5t-48 120.5q0 97 85.5 160.5t230.5 63.5t230 -63.5t85 -160.5q0 -65 -48 -119t-132 -77q99 -15 157 -67.5t58 -133.5
q0 -101 -96.5 -162t-253.5 -61t-253.5 61t-96.5 162zM1262 256q0 -36 28 -58t66 -22t66 22t28 58q0 33 -28 53.5t-66 20.5t-66 -20.5t-28 -53.5zM1266 588q0 -64 90 -64t90 64q0 63 -90 63q-36 0 -63 -18.5t-27 -44.5z" />
    <glyph glyph-name="arrowleft" unicode="&#x2190;" horiz-adv-x="1562" 
d="M825 238l-170 -168l-600 600l600 600l170 -168l-309 -309h973v-246h-973z" />
    <glyph glyph-name="arrowup" unicode="&#x2191;" horiz-adv-x="1310" 
d="M223 664l-168 170l600 600l600 -600l-168 -170l-309 309v-973h-246v973z" />
    <glyph glyph-name="arrowright" unicode="&#x2192;" horiz-adv-x="1562" 
d="M737 1077l170 168l600 -600l-600 -600l-170 168l310 309h-973v246h973z" />
    <glyph glyph-name="arrowdown" unicode="&#x2193;" horiz-adv-x="1310" 
d="M1087 770l168 -170l-600 -600l-600 600l168 170l309 -309v973h246v-973z" />
    <glyph glyph-name="arrowboth" unicode="&#x2194;" horiz-adv-x="1869" 
d="M657 47l-602 602l602 600l170 -170l-313 -311h842l-314 311l170 170l603 -600l-603 -602l-170 170l306 305h-826l305 -305z" />
    <glyph glyph-name="arrowupdn" unicode="&#x2195;" horiz-adv-x="1243" 
d="M623 0l-562 440l170 170l265 -219v651l-265 -219l-170 170l562 441l559 -439l-170 -170l-271 224v-664l271 223l170 -170z" />
    <glyph glyph-name="uni2196" unicode="&#x2196;" horiz-adv-x="1282" 
d="M975 934h-438l690 -688l-174 -174l-688 686v-436l-240 2v847h850v-237z" />
    <glyph glyph-name="uni2197" unicode="&#x2197;" horiz-adv-x="1282" 
d="M307 936v238h850v-848l-239 -2v436l-689 -686l-174 174l690 688h-438z" />
    <glyph glyph-name="uni2198" unicode="&#x2198;" horiz-adv-x="1284" 
d="M309 240h439l-691 688l174 174l689 -686v436h239v-850h-850v238z" />
    <glyph glyph-name="uni2199" unicode="&#x2199;" horiz-adv-x="1284" 
d="M975 242v-238h-850v848l240 2v-436l688 686l174 -174l-690 -688h438z" />
    <glyph glyph-name="partialdiff" unicode="&#x2202;" horiz-adv-x="1280" 
d="M623 -14q-259 0 -403 133t-144 370q0 202 122.5 324.5t319.5 122.5q123 0 221.5 -69.5t153.5 -190.5q-27 475 -490 475v297q131 0 241.5 -23.5t190.5 -64.5t143 -98.5t103 -121.5t66 -138t36.5 -144.5t10.5 -144.5q0 -179 -43 -319t-120 -228.5t-180.5 -134t-227.5 -45.5
zM444 479q0 -107 53 -169t144 -62q94 0 149.5 63t55.5 170q0 88 -57 140.5t-148 52.5q-95 0 -146 -52t-51 -143z" />
    <glyph glyph-name="emptyset" unicode="&#x2205;" horiz-adv-x="1294" 
d="M647 121q-153 0 -282.5 75.5t-205 205t-75.5 282.5q0 152 75.5 281t205 204.5t282.5 75.5t282.5 -75.5t205 -204.5t75.5 -281q0 -153 -75.5 -282.5t-205 -205t-282.5 -75.5zM412 684q0 -42 6 -82l346 346q-51 31 -117 31q-108 0 -171.5 -80t-63.5 -215zM526 420
q58 -33 121 -33q109 0 172.5 80t63.5 217q0 46 -9 84z" />
    <glyph glyph-name="uni2206" unicode="&#x2206;" horiz-adv-x="1501" 
d="M6 0l541 1434h407l541 -1434h-1489zM453 276h553l-275 750z" />
    <glyph glyph-name="product" unicode="&#x220f;" horiz-adv-x="1382" 
d="M776 0v1157h-190v-1157h-359v1157h-155v277h1239v-277h-176v-1157h-359z" />
    <glyph glyph-name="summation" unicode="&#x2211;" horiz-adv-x="1126" 
d="M98 276l271 437l-265 444v277h928v-277h-526l264 -444l-270 -437h530v-276h-932v276z" />
    <glyph glyph-name="minus" unicode="&#x2212;" horiz-adv-x="1071" 
d="M82 492v266h907v-266h-907z" />
    <glyph glyph-name="uni2219" unicode="&#x2219;" horiz-adv-x="460" 
d="M82 575v314h297v-314h-297z" />
    <glyph glyph-name="radical" unicode="&#x221a;" horiz-adv-x="1615" 
d="M535 -205l-191 588h-276v266h475l164 -506l561 1291h291l-713 -1639h-311z" />
    <glyph glyph-name="infinity" unicode="&#x221e;" horiz-adv-x="1525" 
d="M401 270q-130 0 -217.5 91.5t-87.5 271.5t87.5 271t217.5 91q193 0 365 -237q181 237 371 237q64 0 114 -16.5t92 -55t64.5 -112t22.5 -178.5t-22.5 -178.5t-64.5 -112.5t-92 -55.5t-114 -16.5q-190 0 -371 238q-173 -238 -365 -238zM362 633q0 -92 68 -92
q38 0 88.5 25.5t95.5 66.5q-45 41 -95.5 66.5t-88.5 25.5q-68 0 -68 -92zM913 633q43 -40 94 -66t89 -26q31 0 49 24.5t18 67.5t-18 67.5t-49 24.5q-38 0 -89 -26t-94 -66z" />
    <glyph glyph-name="integral" unicode="&#x222b;" horiz-adv-x="827" 
d="M68 88q96 0 134 35.5t38 107.5v928q0 228 131.5 326t388.5 98v-287q-96 0 -134 -35.5t-38 -107.5v-928q0 -228 -131.5 -326t-388.5 -98v287z" />
    <glyph glyph-name="approxequal" unicode="&#x2248;" horiz-adv-x="1122" 
d="M90 666q0 130 70 216.5t174 86.5q59 0 117 -21t96 -45.5t79.5 -45.5t71.5 -21q40 0 54 28t14 105l266 -60q0 -83 -19 -144t-52.5 -94.5t-73 -49t-86.5 -15.5q-59 0 -117.5 17.5t-96 39t-79.5 39t-72 17.5q-48 0 -64 -24t-16 -89zM90 291q0 130 70 216.5t174 86.5
q59 0 117 -21t96 -45.5t79.5 -45.5t71.5 -21q40 0 54 28t14 105l266 -59q0 -83 -19 -144t-52.5 -95t-73 -49.5t-86.5 -15.5q-75 0 -146.5 28.5t-127 56.5t-91.5 28q-48 0 -64 -24t-16 -89z" />
    <glyph glyph-name="notequal" unicode="&#x2260;" horiz-adv-x="1071" 
d="M315 39l-192 108l70 115h-111v266h270l111 185h-381v266h541l133 223l192 -108l-69 -115h110v-266h-270l-111 -185h381v-266h-540z" />
    <glyph glyph-name="lessequal" unicode="&#x2264;" horiz-adv-x="976" 
d="M854 362l-764 246v332l764 225v-282l-418 -123l418 -113v-285zM90 0v266h764v-266h-764z" />
    <glyph glyph-name="greaterequal" unicode="&#x2265;" horiz-adv-x="976" 
d="M123 362v285l418 113l-418 123v282l764 -225v-332zM123 0v266h764v-266h-764z" />
    <glyph glyph-name="uni2266" unicode="&#x2266;" horiz-adv-x="1028" 
d="M887 309h-764v266h547l-547 177v249l764 226v-283l-338 -82l338 -71v-482zM123 0v266h764v-266h-764z" />
    <glyph glyph-name="uni2267" unicode="&#x2267;" horiz-adv-x="1028" 
d="M141 791l338 71l-338 82v283l764 -226v-249l-547 -177h547v-266h-764v482zM141 0v266h764v-266h-764z" />
    <glyph glyph-name="uni2460" unicode="&#x2460;" horiz-adv-x="1613" 
d="M807 -14q-344 0 -545 197t-201 534t201 534t545 197t544.5 -197t200.5 -534t-200.5 -534t-544.5 -197zM297 717q0 -243 137.5 -385t372.5 -142t372.5 142t137.5 385t-137.5 384.5t-372.5 141.5t-372.5 -141.5t-137.5 -384.5zM522 733v225q92 0 148.5 44t56.5 128h246
v-827h-246v578q-25 -78 -74 -113t-131 -35z" />
    <glyph glyph-name="uni2461" unicode="&#x2461;" horiz-adv-x="1613" 
d="M807 -14q-344 0 -545 197t-201 534t201 534t545 197t544.5 -197t200.5 -534t-200.5 -534t-544.5 -197zM297 717q0 -243 137.5 -385t372.5 -142t372.5 142t137.5 385t-137.5 384.5t-372.5 141.5t-372.5 -141.5t-137.5 -384.5zM483 889q35 128 126.5 190t215.5 62
q119 0 202 -66t83 -172q0 -62 -24 -110t-65 -81.5t-84 -61.5t-91.5 -64.5t-77.5 -75.5h352l-20 -205h-615v41q2 79 24.5 141t56 100.5t73.5 69t79.5 53t72 44.5t53 53t20.5 70q0 31 -17 50t-46 19q-40 0 -62.5 -27.5t-38.5 -78.5z" />
    <glyph glyph-name="uni2462" unicode="&#x2462;" horiz-adv-x="1613" 
d="M807 -14q-344 0 -545 197t-201 534t201 534t545 197t544.5 -197t200.5 -534t-200.5 -534t-544.5 -197zM297 717q0 -243 137.5 -385t372.5 -142t372.5 142t137.5 385t-137.5 384.5t-372.5 141.5t-372.5 -141.5t-137.5 -384.5zM453 528l211 43q53 -94 139 -94
q41 0 67.5 21.5t26.5 60.5q0 40 -26.5 65t-77.5 25h-97l33 164h55q97 0 97 72q0 28 -25 47.5t-70 19.5q-53 0 -78.5 -24.5t-35.5 -71.5l-203 43q19 110 105.5 174t226.5 64q79 0 151 -24.5t123 -78t51 -125.5q0 -66 -43 -118t-135 -66q90 -19 141.5 -71t51.5 -126
q0 -72 -45 -126.5t-115.5 -81.5t-153.5 -27q-144 0 -243.5 64.5t-130.5 170.5z" />
    <glyph glyph-name="uni2463" unicode="&#x2463;" horiz-adv-x="1613" 
d="M807 -14q-344 0 -545 197t-201 534t201 534t545 197t544.5 -197t200.5 -534t-200.5 -534t-544.5 -197zM297 717q0 -243 137.5 -385t372.5 -142t372.5 142t137.5 385t-137.5 384.5t-372.5 141.5t-372.5 -141.5t-137.5 -384.5zM424 467v174l354 489h269v-489h137l-21 -174
h-116v-164h-246v164h-377zM637 641h164v227z" />
    <glyph glyph-name="uni2464" unicode="&#x2464;" horiz-adv-x="1613" 
d="M807 -14q-344 0 -545 197t-201 534t201 534t545 197t544.5 -197t200.5 -534t-200.5 -534t-544.5 -197zM297 717q0 -243 137.5 -385t372.5 -142t372.5 142t137.5 385t-137.5 384.5t-372.5 141.5t-372.5 -141.5t-137.5 -384.5zM461 532l235 48q17 -43 41 -67t64 -24
q43 0 67.5 30t24.5 83t-26 84t-70 31q-35 0 -59.5 -23.5t-37.5 -54.5h-194l90 491h489l-20 -204h-309l-31 -154q65 88 182 88q103 0 173.5 -75.5t70.5 -190.5q0 -141 -90.5 -220t-231.5 -79q-143 0 -244 66t-124 171z" />
    <glyph glyph-name="uni2465" unicode="&#x2465;" horiz-adv-x="1613" 
d="M807 -14q-344 0 -545 197t-201 534t201 534t545 197t544.5 -197t200.5 -534t-200.5 -534t-544.5 -197zM297 717q0 -243 137.5 -385t372.5 -142t372.5 142t137.5 385t-137.5 384.5t-372.5 141.5t-372.5 -141.5t-137.5 -384.5zM469 676q0 207 108 335t285 128
q101 0 173.5 -55t92.5 -130l-213 -45q-14 23 -29.5 34t-45.5 11q-56 0 -104 -62t-60 -206q15 61 54.5 99t77.5 49.5t79 11.5q99 0 165 -74t66 -186q0 -137 -84 -214t-217 -77q-159 0 -253.5 101t-94.5 280zM694 582q0 -47 24 -75t64 -28q41 0 65.5 28t24.5 75q0 46 -23 73
t-63 27q-43 0 -67.5 -27t-24.5 -73z" />
    <glyph glyph-name="uni2466" unicode="&#x2466;" horiz-adv-x="1613" 
d="M807 -14q-344 0 -545 197t-201 534t201 534t545 197t544.5 -197t200.5 -534t-200.5 -534t-544.5 -197zM297 717q0 -243 137.5 -385t372.5 -142t372.5 142t137.5 385t-137.5 384.5t-372.5 141.5t-372.5 -141.5t-137.5 -384.5zM530 1106h621v-205l-348 -622h-252l350 622
h-350z" />
    <glyph glyph-name="uni2467" unicode="&#x2467;" horiz-adv-x="1613" 
d="M807 -14q-344 0 -545 197t-201 534t201 534t545 197t544.5 -197t200.5 -534t-200.5 -534t-544.5 -197zM297 717q0 -243 137.5 -385t372.5 -142t372.5 142t137.5 385t-137.5 384.5t-372.5 141.5t-372.5 -141.5t-137.5 -384.5zM457 518q0 81 58.5 132t164.5 69
q-93 22 -140.5 75.5t-47.5 120.5q0 97 85 160.5t230 63.5t230 -63.5t85 -160.5q0 -65 -48 -119t-132 -77q99 -15 157 -67.5t58 -133.5q0 -101 -96.5 -162t-253.5 -61t-253.5 61t-96.5 162zM713 559q0 -36 28 -58t66 -22t66 22t28 58q0 33 -28 53.5t-66 20.5t-66 -20.5
t-28 -53.5zM717 891q0 -64 90 -64t90 64q0 63 -90 63q-36 0 -63 -18.5t-27 -44.5z" />
    <glyph glyph-name="uni2468" unicode="&#x2468;" horiz-adv-x="1613" 
d="M807 -14q-344 0 -545 197t-201 534t201 534t545 197t544.5 -197t200.5 -534t-200.5 -534t-544.5 -197zM297 717q0 -243 137.5 -385t372.5 -142t372.5 142t137.5 385t-137.5 384.5t-372.5 141.5t-372.5 -141.5t-137.5 -384.5zM494 520l213 45q42 -86 110 -86q51 0 79.5 40
t37.5 134q-50 -65 -162 -65q-106 0 -184 75t-78 185q0 136 91 213.5t226 77.5q147 0 239.5 -105.5t92.5 -296.5q0 -199 -89 -320.5t-257 -121.5q-116 0 -202.5 59t-116.5 166zM756 852q0 -46 24.5 -73t67.5 -27q40 0 63 27t23 73q0 47 -23 74.5t-63 27.5q-43 0 -67.5 -27.5
t-24.5 -74.5z" />
    <glyph glyph-name="uni24EA" unicode="&#x24ea;" horiz-adv-x="1613" 
d="M807 -14q-344 0 -545 197t-201 534t201 534t545 197t544.5 -197t200.5 -534t-200.5 -534t-544.5 -197zM297 717q0 -243 137.5 -385t372.5 -142t372.5 142t137.5 385t-137.5 384.5t-372.5 141.5t-372.5 -141.5t-137.5 -384.5zM465 715q0 197 92 311.5t250 114.5
t250 -114.5t92 -311.5q0 -195 -92 -308.5t-250 -113.5t-250 113.5t-92 308.5zM721 715q0 -127 19.5 -177.5t66.5 -50.5q49 0 67.5 49.5t18.5 178.5q0 131 -18.5 181t-67.5 50q-48 0 -67 -50.5t-19 -180.5z" />
    <glyph glyph-name="upblock" unicode="&#x2580;" horiz-adv-x="1720" 
d="M143 1434h1434v-717h-1434v717z" />
    <glyph glyph-name="dnblock" unicode="&#x2584;" horiz-adv-x="1720" 
d="M143 717h1434v-717h-1434v717z" />
    <glyph glyph-name="block" unicode="&#x2588;" horiz-adv-x="1728" 
d="M147 1434h1434v-1434h-1434v1434z" />
    <glyph glyph-name="filledbox" unicode="&#x25a0;" horiz-adv-x="1728" 
d="M147 1434h1434v-1434h-1434v1434z" />
    <glyph glyph-name="uni25A1" unicode="&#x25a1;" horiz-adv-x="1728" 
d="M147 0v1434h1434v-1434h-1434zM383 205h963v1024h-963v-1024z" />
    <glyph glyph-name="uni25AA" unicode="&#x25aa;" horiz-adv-x="557" 
d="M135 860h287v-287h-287v287z" />
    <glyph glyph-name="uni25AB" unicode="&#x25ab;" horiz-adv-x="557" 
d="M135 573v287h287v-287h-287zM221 659h113v113h-113v-113z" />
    <glyph glyph-name="triagup" unicode="&#x25b2;" horiz-adv-x="1548" 
d="M786 1434l705 -1434h-1434z" />
    <glyph glyph-name="triagrt" unicode="&#x25ba;" horiz-adv-x="1634" 
d="M1581 807l-1434 -729v1433z" />
    <glyph glyph-name="triagdn" unicode="&#x25bc;" horiz-adv-x="1548" 
d="M762 0l-705 1434h1434z" />
    <glyph glyph-name="triaglf" unicode="&#x25c4;" horiz-adv-x="1634" 
d="M53 807l1434 704v-1433z" />
    <glyph glyph-name="lozenge" unicode="&#x25ca;" horiz-adv-x="991" 
d="M358 0l-295 717l295 717h275l295 -717l-295 -717h-275zM330 717l172 -416l170 416h2l-172 418z" />
    <glyph glyph-name="circle" unicode="&#x25cb;" horiz-adv-x="1613" 
d="M807 -14q-344 0 -545 197t-201 534t201 534t545 197t544.5 -197t200.5 -534t-200.5 -534t-544.5 -197zM297 717q0 -243 137.5 -385t372.5 -142t372.5 142t137.5 385t-137.5 384.5t-372.5 141.5t-372.5 -141.5t-137.5 -384.5z" />
    <glyph glyph-name="uni25CF" unicode="&#x25cf;" horiz-adv-x="1531" 
d="M766 -14q-146 0 -276.5 57t-224.5 154.5t-149 233t-55 286.5t55 286.5t149 233t224.5 154.5t276.5 57q194 0 356 -96.5t255 -264.5t93 -370t-93 -370t-255 -264.5t-356 -96.5z" />
    <glyph glyph-name="uni2B0E" unicode="&#x2b0e;" horiz-adv-x="1284" 
d="M668 0l-559 518l167 170l269 -254v385h-465v225h711v-610l268 254l168 -170z" />
    <glyph glyph-name="uni2B0F" unicode="&#x2b0f;" horiz-adv-x="1284" 
d="M668 1047l559 -519l-168 -170l-268 254v-610h-711v225h465v385l-269 -254l-167 170z" />
    <glyph glyph-name="uni2B10" unicode="&#x2b10;" horiz-adv-x="1284" 
d="M631 0l-559 518l168 170l268 -254v610h711v-225h-465v-385l268 254l168 -170z" />
    <glyph glyph-name="uni2B11" unicode="&#x2b11;" horiz-adv-x="1284" 
d="M616 1047l560 -519l-168 -170l-269 254v-385h465v-225h-710v610l-269 -254l-168 170z" />
    <glyph glyph-name="uni2BA0" unicode="&#x2ba0;" horiz-adv-x="1249" 
d="M57 524l518 559l170 -168l-253 -268h426v397h225v-643h-651l253 -268l-170 -168z" />
    <glyph glyph-name="uni2BA1" unicode="&#x2ba1;" horiz-adv-x="1249" 
d="M1192 524l-518 -559l-170 168l254 268h-652v643h226v-397h426l-254 268l170 168z" />
    <glyph glyph-name="uni2BA2" unicode="&#x2ba2;" horiz-adv-x="1249" 
d="M57 520l518 559l170 -168l-253 -268h651v-643h-225v397h-426l253 -268l-170 -168z" />
    <glyph glyph-name="uni2BA3" unicode="&#x2ba3;" horiz-adv-x="1249" 
d="M1165 520l-518 -559l-170 168l254 268h-426v-397h-225v643h651l-254 268l170 168z" />
    <glyph glyph-name="uni2BA4" unicode="&#x2ba4;" horiz-adv-x="1284" 
d="M616 1051l560 -519l-168 -170l-269 254v-385h465v-225h-710v610l-269 -254l-168 170z" />
    <glyph glyph-name="uni2BA5" unicode="&#x2ba5;" horiz-adv-x="1284" 
d="M668 1047l559 -519l-168 -170l-268 254v-610h-711v225h465v385l-269 -254l-167 170z" />
    <glyph glyph-name="uni2BA6" unicode="&#x2ba6;" horiz-adv-x="1284" 
d="M616 0l-559 518l168 170l269 -254v610h710v-225h-465v-385l269 254l168 -170z" />
    <glyph glyph-name="uni2BA7" unicode="&#x2ba7;" horiz-adv-x="1284" 
d="M668 0l-559 518l167 170l269 -254v385h-465v225h711v-610l268 254l168 -170z" />
    <glyph glyph-name="fi" unicode="&#xfb01;" horiz-adv-x="1247" 
d="M150 1079q0 182 103 275.5t294 93.5h162v-287h-121q-90 0 -90 -82v-35h213v-276h-213v-768h-348v768h-140v276h140v35zM801 1165v271h356v-271h-356zM805 0v1044h348v-1044h-348z" />
    <glyph glyph-name="fl" unicode="&#xfb02;" horiz-adv-x="1251" 
d="M150 1079q0 182 103 275.5t294 93.5h162v-287h-121q-90 0 -90 -82v-35h213v-276h-213v-768h-348v768h-140v276h140v35zM805 0v1434h348v-1434h-348z" />
    <glyph glyph-name="uniFEFF" unicode="&#xfeff;" horiz-adv-x="1228" 
 />
    <glyph glyph-name="u1F150" unicode="&#x1f150;" horiz-adv-x="999" 
d="M500 551q-123 0 -225.5 57.5t-163 161t-60.5 229.5t60.5 229.5t163 161.5t225.5 58q188 0 318 -128.5t130 -320.5t-130 -320t-318 -128z" />
    <glyph glyph-name="Adieresis.ss02" horiz-adv-x="1529" 
d="M999 1434l525 -1434h-359l-102 291h-604l-105 -291h-348l533 1434h460zM381 1724q0 74 50.5 124t123.5 50t123.5 -50t50.5 -124t-50.5 -124t-123.5 -50t-123.5 50t-50.5 124zM557 567h410l-203 582zM811 1724q0 74 50.5 124t123.5 50t123.5 -50t50.5 -124t-50.5 -124
t-123.5 -50t-123.5 50t-50.5 124z" />
    <glyph glyph-name="Edieresis.ss02" horiz-adv-x="1138" 
d="M102 0v1434h985v-277h-626v-285h522v-276h-522v-320h626v-276h-985zM217 1724q0 74 50.5 124t123.5 50t123.5 -50t50.5 -124t-50.5 -124t-123.5 -50t-123.5 50t-50.5 124zM647 1724q0 74 50.5 124t123.5 50t123.5 -50t50.5 -124t-50.5 -124t-123.5 -50t-123.5 50
t-50.5 124z" />
    <glyph glyph-name="Edotaccent.ss02" horiz-adv-x="1138" 
d="M102 0v1434h985v-277h-626v-285h522v-276h-522v-320h626v-276h-985zM422 1739q0 78 53 131t131 53t131.5 -53t53.5 -131t-53.5 -131.5t-131.5 -53.5t-131 53.5t-53 131.5z" />
    <glyph glyph-name="uni0122.ss02" horiz-adv-x="1533" 
d="M705 -14q-139 0 -260 47.5t-211.5 136t-142.5 224.5t-52 304q0 174 59 318t160 237.5t231 144t275 50.5q112 0 209.5 -27.5t167 -72t124.5 -105t87 -123t49 -129.5l-352 -78q-93 238 -314 238q-147 0 -237 -112.5t-90 -321.5q0 -205 104 -319.5t272 -114.5
q115 0 202.5 66t121.5 179h-264l20 267h584v-795h-266v266q-71 -128 -199 -204t-278 -76zM600 -207q0 56 36.5 96.5t104.5 40.5q74 0 118 -59t44 -145q0 -37 -8.5 -73.5t-29.5 -73t-53 -64t-82.5 -45t-113.5 -17.5v137q64 0 100 14t50 54q-70 8 -118 42.5t-48 92.5z" />
    <glyph glyph-name="Idieresis.ss02" horiz-adv-x="563" 
d="M102 0v1434h359v-1434h-359zM-113 1724q0 74 50.5 124t123.5 50q74 0 124.5 -50.5t50.5 -123.5t-50.5 -123.5t-124.5 -50.5q-73 0 -123.5 50t-50.5 124zM317 1724q0 73 50.5 123.5t124.5 50.5t124 -50t50 -124t-50 -124t-124 -50t-124.5 50.5t-50.5 123.5z" />
    <glyph glyph-name="Idotaccent.ss02" horiz-adv-x="563" 
d="M102 0v1434h359v-1434h-359zM92 1739q0 78 53 131t131 53t131.5 -53t53.5 -131t-53.5 -131.5t-131.5 -53.5t-131 53.5t-53 131.5z" />
    <glyph glyph-name="uni0136.ss02" horiz-adv-x="1415" 
d="M102 0v1434h359v-648l551 648h397l-575 -674l563 -760h-416l-363 510l-157 -184v-326h-359zM573 -207q0 56 37 96.5t105 40.5q74 0 118 -59t44 -145q0 -37 -8.5 -73.5t-29.5 -73t-53 -64t-82.5 -45t-113.5 -17.5v137q64 0 99.5 14t49.5 54q-70 8 -118 42.5t-48 92.5z" />
    <glyph glyph-name="uni013B.ss02" horiz-adv-x="1042" 
d="M102 0v1434h359v-1158h563v-276h-922zM459 -207q0 56 36.5 96.5t104.5 40.5q74 0 118 -59t44 -145q0 -37 -8.5 -73.5t-29.5 -73t-53 -64t-82.5 -45t-113.5 -17.5v137q64 0 100 14t50 54q-70 8 -118 42.5t-48 92.5z" />
    <glyph glyph-name="uni0145.ss02" horiz-adv-x="1454" 
d="M102 0v1434h379l533 -865v865h338v-1434h-338l-574 924v-924h-338zM586 -207q0 56 36.5 96.5t104.5 40.5q74 0 118 -59t44 -145q0 -37 -8.5 -73.5t-29.5 -73t-53 -64t-82.5 -45t-113.5 -17.5v137q64 0 100 14t50 54q-70 8 -118 42.5t-48 92.5z" />
    <glyph glyph-name="Odieresis.ss02" horiz-adv-x="1486" 
d="M743 -14q-340 0 -522 189.5t-182 541.5t182 541.5t522 189.5t522.5 -189.5t182.5 -541.5t-182.5 -541.5t-522.5 -189.5zM354 1724q0 74 50 124t124 50t124 -50t50 -124t-50 -124t-124 -50t-124 50t-50 124zM408 717q0 -209 87 -321.5t248 -112.5t248.5 112.5t87.5 321.5
t-87.5 321.5t-248.5 112.5t-248 -112.5t-87 -321.5zM784 1724q0 74 50 124t124 50t124.5 -50.5t50.5 -123.5t-50.5 -123.5t-124.5 -50.5t-124 50t-50 124z" />
    <glyph glyph-name="uni0156.ss02" horiz-adv-x="1345" 
d="M102 0v1434h586q261 0 413 -122t152 -331q0 -146 -75.5 -250t-210.5 -147l368 -584h-395l-283 483h-196v-483h-359zM461 760h166q258 0 258 198q0 199 -258 199h-166v-397zM561 -207q0 56 36.5 96.5t104.5 40.5q74 0 118 -59t44 -145q0 -37 -8.5 -73.5t-29.5 -73
t-52.5 -64t-82 -45t-113.5 -17.5v137q64 0 99.5 14t49.5 54q-70 8 -118 42.5t-48 92.5z" />
    <glyph glyph-name="uni0218.ss02" horiz-adv-x="1234" 
d="M647 -14q-145 0 -274.5 49.5t-226 153t-126.5 243.5l340 72q31 -120 110.5 -181t186.5 -61q80 0 133.5 33t53.5 102q0 57 -39 87.5t-135 64.5l-267 94q-171 60 -253 145t-82 238q0 84 34.5 159.5t99 134.5t167 93.5t229.5 34.5q239 0 392.5 -109t211.5 -295l-350 -71
q-26 96 -97 147t-173 51q-79 0 -122.5 -34t-43.5 -84q0 -46 39 -75.5t116 -55.5l265 -91q356 -124 356 -405q0 -70 -18 -133t-59 -120t-102.5 -98t-155 -65t-210.5 -24zM492 -207q0 56 36.5 96.5t104.5 40.5q74 0 118 -59t44 -145q0 -37 -8.5 -73.5t-29.5 -73t-53 -64
t-82.5 -45t-113.5 -17.5v137q64 0 99.5 14t49.5 54q-69 8 -117 42.5t-48 92.5z" />
    <glyph glyph-name="uni021A.ss02" horiz-adv-x="1214" 
d="M428 0v1157h-410v277h1178v-277h-410v-1157h-358zM471 -207q0 56 36.5 96.5t104.5 40.5q74 0 118 -59t44 -145q0 -37 -8.5 -73.5t-29.5 -73t-53 -64t-82.5 -45t-113.5 -17.5v137q64 0 100 14t50 54q-70 8 -118 42.5t-48 92.5z" />
    <glyph glyph-name="Udieresis.ss02" horiz-adv-x="1472" 
d="M739 -14q-298 0 -471.5 155t-173.5 420v873h359v-867q0 -141 75.5 -212.5t210.5 -71.5q136 0 211.5 71.5t75.5 212.5v867h352v-873q0 -265 -172 -420t-467 -155zM348 1724q0 74 50 124t124 50t124 -50t50 -124t-50 -124t-124 -50t-124 50t-50 124zM778 1724q0 74 50 124
t124 50t124 -50t50 -124t-50 -124t-124 -50t-124 50t-50 124z" />
    <glyph glyph-name="Wdieresis.ss02" horiz-adv-x="2011" 
d="M356 0l-342 1434h348l213 -902l271 902h319l275 -885l209 885h348l-342 -1434h-357l-297 950l-288 -950h-357zM610 1724q0 74 50 124t124 50t124 -50t50 -124t-50 -124t-124 -50t-124 50t-50 124zM1040 1724q0 74 50 124t124 50t124.5 -50.5t50.5 -123.5t-50.5 -123.5
t-124.5 -50.5t-124 50t-50 124z" />
    <glyph glyph-name="Ydieresis.ss02" horiz-adv-x="1349" 
d="M496 612l-494 822h371l313 -527l315 527h347l-494 -822v-612h-358v612zM293 1724q0 74 50.5 124t123.5 50t123.5 -50t50.5 -124t-50.5 -124t-123.5 -50t-123.5 50t-50.5 124zM723 1724q0 74 50.5 124t123.5 50t123.5 -50t50.5 -124t-50.5 -124t-123.5 -50t-123.5 50
t-50.5 124z" />
    <glyph glyph-name="Zdotaccent.ss02" horiz-adv-x="1243" 
d="M49 276l744 881h-744v277h1145v-277l-743 -881h743v-276h-1145v276zM453 1739q0 78 53 131t131 53t131 -53t53 -131t-53 -131.5t-131 -53.5t-131 53.5t-53 131.5z" />
    <glyph glyph-name="i.loclTRK" horiz-adv-x="536" 
d="M94 0v1044h348v-1044h-348zM90 1165v271h356v-271h-356z" />
    <glyph glyph-name="i.latn_TRK" horiz-adv-x="536" 
d="M94 0v1044h348v-1044h-348zM90 1165v271h356v-271h-356z" />
    <glyph glyph-name="a.ss01" horiz-adv-x="1251" 
d="M809 0v215q-91 -229 -315 -229q-128 0 -231.5 65t-164.5 190t-61 289q0 242 126 385.5t310 143.5q121 0 205.5 -66t130.5 -184v235h348v-1044h-348zM395 530q0 -130 53 -206t144 -76q101 0 158 70.5t57 193.5q0 131 -57 208t-158 77q-91 0 -144 -72t-53 -195z" />
    <glyph glyph-name="aacute.ss01" horiz-adv-x="1251" 
d="M809 0v215q-91 -229 -315 -229q-128 0 -231.5 65t-164.5 190t-61 289q0 242 126 385.5t310 143.5q121 0 205.5 -66t130.5 -184v235h348v-1044h-348zM395 530q0 -130 53 -206t144 -76q101 0 158 70.5t57 193.5q0 131 -57 208t-158 77q-91 0 -144 -72t-53 -195zM479 1163
l131 271h332l-174 -271h-289z" />
    <glyph glyph-name="abreve.ss01" horiz-adv-x="1251" 
d="M809 0v215q-91 -229 -315 -229q-128 0 -231.5 65t-164.5 190t-61 289q0 242 126 385.5t310 143.5q121 0 205.5 -66t130.5 -184v235h348v-1044h-348zM311 1454h230q0 -51 29 -83t75 -32t75.5 32t29.5 83h229q0 -135 -97 -223t-237 -88t-237 88t-97 223zM395 530
q0 -130 53 -206t144 -76q101 0 158 70.5t57 193.5q0 131 -57 208t-158 77q-91 0 -144 -72t-53 -195z" />
    <glyph glyph-name="acircumflex.ss01" horiz-adv-x="1251" 
d="M809 0v215q-91 -229 -315 -229q-128 0 -231.5 65t-164.5 190t-61 289q0 242 126 385.5t310 143.5q121 0 205.5 -66t130.5 -184v235h348v-1044h-348zM260 1163l260 271h248l260 -271h-295l-88 125l-90 -125h-295zM395 530q0 -130 53 -206t144 -76q101 0 158 70.5t57 193.5
q0 131 -57 208t-158 77q-91 0 -144 -72t-53 -195z" />
    <glyph glyph-name="adieresis.ss01" horiz-adv-x="1251" 
d="M809 0v215q-91 -229 -315 -229q-128 0 -231.5 65t-164.5 190t-61 289q0 242 126 385.5t310 143.5q121 0 205.5 -66t130.5 -184v235h348v-1044h-348zM336 1163v271h250v-271h-250zM395 530q0 -130 53 -206t144 -76q101 0 158 70.5t57 193.5q0 131 -57 208t-158 77
q-91 0 -144 -72t-53 -195zM705 1163v271h249v-271h-249z" />
    <glyph glyph-name="agrave.ss01" horiz-adv-x="1251" 
d="M809 0v215q-91 -229 -315 -229q-128 0 -231.5 65t-164.5 190t-61 289q0 242 126 385.5t310 143.5q121 0 205.5 -66t130.5 -184v235h348v-1044h-348zM348 1434h332l131 -271h-289zM395 530q0 -130 53 -206t144 -76q101 0 158 70.5t57 193.5q0 131 -57 208t-158 77
q-91 0 -144 -72t-53 -195z" />
    <glyph glyph-name="amacron.ss01" horiz-adv-x="1251" 
d="M809 0v215q-91 -229 -315 -229q-128 0 -231.5 65t-164.5 190t-61 289q0 242 126 385.5t310 143.5q121 0 205.5 -66t130.5 -184v235h348v-1044h-348zM352 1186v205h584v-205h-584zM395 530q0 -130 53 -206t144 -76q101 0 158 70.5t57 193.5q0 131 -57 208t-158 77
q-91 0 -144 -72t-53 -195z" />
    <glyph glyph-name="aogonek.ss01" horiz-adv-x="1251" 
d="M809 0v215q-91 -229 -315 -229q-128 0 -231.5 65t-164.5 190t-61 289q0 242 126 385.5t310 143.5q121 0 205.5 -66t130.5 -184v235h348v-1044h-166q-76 -76 -76 -131q0 -70 64 -70q31 0 80 15l88 -209q-28 -23 -77.5 -42.5t-98.5 -19.5q-108 0 -186 64t-78 170
q0 111 106 223h-4zM395 530q0 -130 53 -206t144 -76q101 0 158 70.5t57 193.5q0 131 -57 208t-158 77q-91 0 -144 -72t-53 -195z" />
    <glyph glyph-name="aring.ss01" horiz-adv-x="1251" 
d="M809 0v215q-91 -229 -315 -229q-128 0 -231.5 65t-164.5 190t-61 289q0 242 126 385.5t310 143.5q121 0 205.5 -66t130.5 -184v235h348v-1044h-348zM395 530q0 -130 53 -206t144 -76q101 0 158 70.5t57 193.5q0 131 -57 208t-158 77q-91 0 -144 -72t-53 -195zM401 1321
q0 97 63.5 149t180.5 52t179.5 -52t62.5 -149q0 -98 -62.5 -150.5t-179.5 -52.5t-180.5 52.5t-63.5 150.5zM582 1321q0 -37 14 -52.5t49 -15.5q34 0 48 15.5t14 52.5q0 36 -14 50.5t-48 14.5q-35 0 -49 -14t-14 -51z" />
    <glyph glyph-name="atilde.ss01" horiz-adv-x="1251" 
d="M809 0v215q-91 -229 -315 -229q-128 0 -231.5 65t-164.5 190t-61 289q0 242 126 385.5t310 143.5q121 0 205.5 -66t130.5 -184v235h348v-1044h-348zM274 1184q18 121 75 188.5t134 67.5q57 0 103.5 -20.5t85.5 -41t76 -20.5q63 0 69 82l199 -43q-3 -121 -59 -188.5
t-150 -67.5q-43 0 -81.5 13t-61.5 28t-50.5 28t-50.5 13q-59 0 -90 -82zM395 530q0 -130 53 -206t144 -76q101 0 158 70.5t57 193.5q0 131 -57 208t-158 77q-91 0 -144 -72t-53 -195z" />
    <glyph glyph-name="adieresis.ss02" horiz-adv-x="1118" 
d="M688 688q0 49 -34.5 77t-92.5 28q-62 0 -104 -30t-74 -91l-313 69q50 137 186.5 227.5t329.5 90.5q207 0 328.5 -98t121.5 -285v-676h-348v172q-119 -186 -352 -186q-128 0 -217.5 69t-89.5 193q0 141 96 211.5t324 93.5q140 14 189.5 41t49.5 94zM205 1335
q0 73 50.5 123.5t123.5 50.5t123.5 -50.5t50.5 -123.5t-50.5 -123.5t-123.5 -50.5t-123.5 50.5t-50.5 123.5zM397 297q0 -36 27 -56t72 -20q33 0 63 11t58.5 35t47.5 69.5t23 107.5q-47 -35 -145 -47q-79 -9 -112.5 -32t-33.5 -68zM635 1335q0 73 50.5 123.5t123.5 50.5
t123.5 -50.5t50.5 -123.5t-50.5 -123.5t-123.5 -50.5t-123.5 50.5t-50.5 123.5z" />
    <glyph glyph-name="cdotaccent.ss02" horiz-adv-x="1140" 
d="M596 -14q-157 0 -284.5 67t-201 188t-73.5 273q0 123 43 226t118 172.5t177 108t219 38.5q198 0 340.5 -98.5t181.5 -247.5l-338 -78q-14 73 -62.5 115.5t-123.5 42.5q-91 0 -144 -79t-53 -188q0 -134 55.5 -204t157.5 -70q140 0 183 158l323 -74q-45 -155 -180 -252.5
t-338 -97.5zM406 1350q0 78 53 131t131 53t131 -53t53 -131t-53 -131.5t-131 -53.5t-131 53.5t-53 131.5z" />
    <glyph glyph-name="edieresis.ss02" horiz-adv-x="1142" 
d="M584 -12q-166 0 -291.5 67.5t-190.5 182t-65 258.5q0 154 64 281t190 204.5t293 77.5q231 0 372.5 -143t141.5 -365q0 -59 -6 -96h-703q12 -102 68 -156.5t143 -54.5q39 0 69 12t50.5 35t33 44.5t25.5 53.5l320 -72q-47 -147 -179 -238t-335 -91zM209 1335
q0 73 50.5 123.5t123.5 50.5t123.5 -50.5t50.5 -123.5t-50.5 -123.5t-123.5 -50.5t-123.5 50.5t-50.5 123.5zM401 649h344q-12 71 -55 112.5t-112 41.5q-64 0 -109.5 -40t-67.5 -114zM639 1335q0 73 50.5 123.5t123.5 50.5t123.5 -50.5t50.5 -123.5t-50.5 -123.5
t-123.5 -50.5t-123.5 50.5t-50.5 123.5z" />
    <glyph glyph-name="edotaccent.ss02" horiz-adv-x="1142" 
d="M584 -12q-166 0 -291.5 67.5t-190.5 182t-65 258.5q0 154 64 281t190 204.5t293 77.5q231 0 372.5 -143t141.5 -365q0 -59 -6 -96h-703q12 -102 68 -156.5t143 -54.5q39 0 69 12t50.5 35t33 44.5t25.5 53.5l320 -72q-47 -147 -179 -238t-335 -91zM401 649h344
q-12 71 -55 112.5t-112 41.5q-64 0 -109.5 -40t-67.5 -114zM414 1350q0 78 53 131t131 53t131 -53t53 -131t-53 -131.5t-131 -53.5t-131 53.5t-53 131.5z" />
    <glyph glyph-name="uni0123.ss02" horiz-adv-x="1253" 
d="M614 -424q-206 0 -354 83.5t-209 225.5l320 72q44 -64 97 -89.5t136 -25.5q207 0 207 254v113q-90 -223 -313 -223q-128 0 -231.5 65t-164.5 190t-61 289q0 242 126 385.5t310 143.5q119 0 203.5 -64.5t130.5 -179.5v229h348v-915q0 -283 -145 -418t-400 -135zM399 530
q0 -130 53 -206t144 -76q101 0 158 70.5t57 193.5q0 131 -57 208t-158 77q-91 0 -144 -72t-53 -195zM473 1366q0 47 14.5 92t46 87t90 67.5t136.5 25.5v-137q-65 0 -100.5 -13.5t-49.5 -53.5q69 -8 117.5 -43t48.5 -93q0 -56 -36.5 -96.5t-104.5 -40.5q-74 0 -118 59
t-44 146z" />
    <glyph glyph-name="gdotaccent.ss02" horiz-adv-x="1253" 
d="M614 -424q-206 0 -354 83.5t-209 225.5l320 72q44 -64 97 -89.5t136 -25.5q207 0 207 254v113q-90 -223 -313 -223q-128 0 -231.5 65t-164.5 190t-61 289q0 242 126 385.5t310 143.5q119 0 203.5 -64.5t130.5 -179.5v229h348v-915q0 -283 -145 -418t-400 -135zM399 530
q0 -130 53 -206t144 -76q101 0 158 70.5t57 193.5q0 131 -57 208t-158 77q-91 0 -144 -72t-53 -195zM442 1350q0 78 53.5 131t131.5 53t131 -53t53 -131t-53 -131.5t-131 -53.5t-131.5 53.5t-53.5 131.5z" />
    <glyph glyph-name="i.ss02" horiz-adv-x="536" 
d="M94 0v1044h348v-1044h-348zM84 1350q0 78 53 131t131 53t131.5 -53t53.5 -131t-53.5 -131.5t-131.5 -53.5t-131 53.5t-53 131.5z" />
    <glyph glyph-name="idieresis.ss02" horiz-adv-x="536" 
d="M94 0v1044h348v-1044h-348zM-121 1335q0 73 50.5 123.5t123.5 50.5t123.5 -50.5t50.5 -123.5t-50.5 -123.5t-123.5 -50.5t-123.5 50.5t-50.5 123.5zM309 1335q0 73 50.5 123.5t123.5 50.5t123.5 -50.5t50.5 -123.5t-50.5 -123.5t-123.5 -50.5t-123.5 50.5t-50.5 123.5z
" />
    <glyph glyph-name="iogonek.ss02" horiz-adv-x="536" 
d="M94 0v1044h348v-1044h-170q-75 -75 -75 -131q0 -70 63 -70q30 0 80 15l88 -209q-28 -23 -77.5 -42.5t-98.5 -19.5q-108 0 -186 64t-78 170q0 111 106 223zM84 1350q0 78 53 131t131 53t131.5 -53t53.5 -131t-53.5 -131.5t-131.5 -53.5t-131 53.5t-53 131.5z" />
    <glyph glyph-name="j.ss02" horiz-adv-x="555" 
d="M-61 -410v287h79q91 0 91 82v1085h348v-1085q0 -182 -103.5 -275.5t-294.5 -93.5h-120zM100 1350q0 78 53.5 131t131.5 53t131 -53t53 -131t-53 -131.5t-131 -53.5t-131.5 53.5t-53.5 131.5z" />
    <glyph glyph-name="uni0137.ss02" horiz-adv-x="1206" 
d="M98 0v1434h348v-742l349 352h403l-459 -464l459 -580h-379l-291 367l-82 -84v-283h-348zM477 -207q0 56 36.5 96.5t104.5 40.5q74 0 118 -59t44 -145q0 -37 -8.5 -73.5t-29.5 -73t-52.5 -64t-82 -45t-113.5 -17.5v137q64 0 99.5 14t49.5 54q-70 8 -118 42.5t-48 92.5z
" />
    <glyph glyph-name="uni013C.ss02" horiz-adv-x="544" 
d="M98 0v1434h348v-1434h-348zM139 -207q0 56 37 96.5t105 40.5q74 0 117.5 -58.5t43.5 -145.5q0 -37 -8.5 -73.5t-29.5 -73t-52.5 -64t-82 -45t-113.5 -17.5v137q64 0 99.5 14t49.5 54q-70 8 -118 42.5t-48 92.5z" />
    <glyph glyph-name="uni0146.ss02" horiz-adv-x="1185" 
d="M94 0v1044h348v-227q59 107 153 174.5t214 67.5q86 0 145.5 -28.5t92 -84t46 -125t13.5 -164.5v-657h-348v596q0 115 -31 164t-106 49q-76 0 -127.5 -71t-51.5 -183v-555h-348zM467 -207q0 56 36.5 96.5t104.5 40.5q74 0 118 -59t44 -145q0 -37 -8.5 -73.5t-29.5 -73
t-53 -64t-82.5 -45t-113.5 -17.5v137q64 0 100 14t50 54q-70 8 -118 42.5t-48 92.5z" />
    <glyph glyph-name="odieresis.ss02" horiz-adv-x="1183" 
d="M592 -14q-244 0 -399.5 147.5t-155.5 388.5q0 240 156 388.5t399 148.5t399 -148.5t156 -388.5q0 -241 -155.5 -388.5t-399.5 -147.5zM203 1335q0 73 50.5 123.5t123.5 50.5t123.5 -50.5t50.5 -123.5t-50.5 -123.5t-123.5 -50.5t-123.5 50.5t-50.5 123.5zM395 522
q0 -270 197 -270q196 0 196 270q0 271 -196 271q-197 0 -197 -271zM633 1335q0 73 50.5 123.5t123.5 50.5t123.5 -50.5t50.5 -123.5t-50.5 -123.5t-123.5 -50.5t-123.5 50.5t-50.5 123.5z" />
    <glyph glyph-name="uni0157.ss02" horiz-adv-x="858" 
d="M94 0v1044h348v-348q48 167 138.5 265t228.5 98h4v-336q-82 0 -139.5 -10.5t-103.5 -36t-73 -70.5t-41 -112.5t-14 -163.5v-330h-348zM135 -207q0 56 36.5 96.5t104.5 40.5q74 0 118 -59t44 -145q0 -37 -8.5 -73.5t-29.5 -73t-52.5 -64t-82 -45t-113.5 -17.5v137
q64 0 99.5 14t49.5 54q-70 8 -118 42.5t-48 92.5z" />
    <glyph glyph-name="uni0219.ss02" horiz-adv-x="1024" 
d="M535 -14q-212 0 -338 94t-164 242l311 67q47 -158 203 -158q67 0 102 23t35 65q0 62 -109 84l-178 37q-87 18 -146 39t-106 54.5t-69.5 82t-22.5 115.5q0 146 121.5 237t317.5 91q210 0 332 -81t161 -208l-319 -72q-22 54 -63.5 84.5t-123.5 30.5q-57 0 -88 -18t-31 -50
q0 -54 91 -71l227 -45q156 -31 234.5 -101.5t78.5 -187.5q0 -153 -118.5 -253.5t-337.5 -100.5zM385 -207q0 56 36.5 96.5t104.5 40.5q74 0 118 -59t44 -145q0 -37 -8.5 -73.5t-29.5 -73t-53 -64t-82.5 -45t-113.5 -17.5v137q64 0 100 14t50 54q-70 8 -118 42.5t-48 92.5z
" />
    <glyph glyph-name="uni021B.ss02" horiz-adv-x="757" 
d="M535 0q-191 0 -294.5 93.5t-103.5 275.5v399h-129v276h129v173l348 106v-279h211v-276h-211v-399q0 -82 90 -82h121v-287h-161zM354 -207q0 56 37 96.5t105 40.5q74 0 117.5 -58.5t43.5 -145.5q0 -37 -8.5 -73.5t-29.5 -73t-52.5 -64t-82 -45t-113.5 -17.5v137
q64 0 99.5 14t49.5 54q-70 8 -118 42.5t-48 92.5z" />
    <glyph glyph-name="udieresis.ss02" horiz-adv-x="1185" 
d="M1092 1044v-1044h-349v227q-59 -107 -152.5 -174t-213.5 -67q-86 0 -145.5 28.5t-92 84t-46 124.5t-13.5 164v657h348v-595q0 -115 31 -164t106 -49q76 0 127 70.5t51 182.5v555h349zM201 1335q0 73 50.5 123.5t123.5 50.5t123.5 -50.5t50.5 -123.5t-50.5 -123.5
t-123.5 -50.5t-123.5 50.5t-50.5 123.5zM631 1335q0 73 50.5 123.5t123.5 50.5t123.5 -50.5t50.5 -123.5t-50.5 -123.5t-123.5 -50.5t-123.5 50.5t-50.5 123.5z" />
    <glyph glyph-name="wdieresis.ss02" horiz-adv-x="1624" 
d="M301 0l-291 1044h320l159 -575l191 575h283l165 -561l166 561h320l-305 -1044h-303l-195 649l-207 -649h-303zM424 1335q0 73 50 123.5t124 50.5t124 -50.5t50 -123.5t-50 -123.5t-124 -50.5t-124 50.5t-50 123.5zM854 1335q0 73 50 123.5t124 50.5t124 -50.5t50 -123.5
t-50 -123.5t-124 -50.5t-124 50.5t-50 123.5z" />
    <glyph glyph-name="ydieresis.ss02" horiz-adv-x="1159" 
d="M156 -410v287h120q75 0 114 24t63 79l-441 1064h322l268 -647l227 647h316l-371 -1044q-85 -241 -178.5 -325.5t-278.5 -84.5h-161zM221 1335q0 73 50.5 123.5t123.5 50.5t123.5 -50.5t50.5 -123.5t-50.5 -123.5t-123.5 -50.5t-123.5 50.5t-50.5 123.5zM651 1335
q0 73 50.5 123.5t123.5 50.5t123.5 -50.5t50.5 -123.5t-50.5 -123.5t-123.5 -50.5t-123.5 50.5t-50.5 123.5z" />
    <glyph glyph-name="zdotaccent.ss02" horiz-adv-x="985" 
d="M55 0v266l455 502h-438v276h848v-266l-455 -502h461v-276h-871zM322 1350q0 78 53 131t131 53t131 -53t53 -131t-53 -131.5t-131 -53.5t-131 53.5t-53 131.5z" />
    <glyph glyph-name="i.latn_TRK.ss02" horiz-adv-x="536" 
d="M94 0v1044h348v-1044h-348zM84 1350q0 78 53 131t131 53t131.5 -53t53.5 -131t-53.5 -131.5t-131.5 -53.5t-131 53.5t-53 131.5z" />
    <glyph glyph-name="adieresis.ss01.ss02" horiz-adv-x="1251" 
d="M809 0v215q-91 -229 -315 -229q-128 0 -231.5 65t-164.5 190t-61 289q0 242 126 385.5t310 143.5q121 0 205.5 -66t130.5 -184v235h348v-1044h-348zM256 1335q0 73 50 123.5t124 50.5t124 -50.5t50 -123.5t-50 -123.5t-124 -50.5t-124 50.5t-50 123.5zM395 530
q0 -130 53 -206t144 -76q101 0 158 70.5t57 193.5q0 131 -57 208t-158 77q-91 0 -144 -72t-53 -195zM686 1335q0 73 50 123.5t124 50.5t124 -50.5t50 -123.5t-50 -123.5t-124 -50.5t-124 50.5t-50 123.5z" />
    <glyph glyph-name="s_s" horiz-adv-x="2238" 
d="M1753 -14q-88 0 -157 11t-128.5 39.5t-106 64t-96.5 97.5t-92 126t-100 163q-192 328 -563 326h-8q-55 0 -87 -22t-32 -56q0 -61 90 -71l236 -25q151 -15 232 -91.5t81 -201.5q0 -157 -119 -258.5t-338 -101.5q-183 0 -322 81t-210 218l327 73q33 -60 92 -93.5t136 -33.5
q61 0 94 22t33 64q0 68 -109 80l-186 21q-344 40 -344 301q0 150 129 245t323 95q208 0 356.5 -110t319.5 -388q41 -67 87.5 -119.5t87.5 -86.5t89.5 -58.5t84.5 -37t82 -19.5t72.5 -8t64.5 -1q126 0 126 86q0 68 -108 80l-186 21q-344 40 -344 301q0 150 129 245t323 95
q175 0 310 -83.5t178 -184.5l-318 -70q-74 92 -196 92q-55 0 -87 -22t-32 -56q0 -61 90 -71l235 -25q151 -15 232.5 -91.5t81.5 -201.5q0 -75 -29 -139.5t-84 -114t-142.5 -78t-197.5 -28.5z" />
    <glyph glyph-name="w_w_w" horiz-adv-x="4405" 
d="M301 0l-291 1044h320l159 -575l191 575h283l165 -561l166 561h428l160 -575l191 575h282l166 -561l166 561h424l160 -575l190 575h283l166 -561l166 561h319l-305 -1044h-303l-195 649l-207 -649h-303l-186 668l-195 -668h-303l-194 649l-207 -649h-303l-189 674
l-196 -674h-303l-195 649l-207 -649h-303z" />
    <glyph glyph-name="f_f_i.ss02" horiz-adv-x="1908" 
d="M1460 -2v1044h348v-1044h-348zM10 768v276h140v35q0 182 103 275.5t294 93.5h162v-287h-121q-90 0 -90 -82v-35h307v35q0 182 103 275.5t294 93.5h162v-287h-121q-90 0 -90 -82v-35h213v-276h-213v-768h-348v768h-307v-768h-348v768h-140zM1450 1348q0 78 53 131t131 53
t131.5 -53t53.5 -131t-53.5 -131.5t-131.5 -53.5t-131 53.5t-53 131.5z" />
    <glyph glyph-name="f_i.ss02" horiz-adv-x="1253" 
d="M150 1079q0 182 103 275.5t294 93.5h162v-287h-121q-90 0 -90 -82v-35h213v-276h-213v-768h-348v768h-140v276h140v35zM795 1350q0 78 53 131t131 53t131 -53t53 -131t-53 -131.5t-131 -53.5t-131 53.5t-53 131.5zM805 0v1044h348v-1044h-348z" />
    <glyph glyph-name="zero.zero" horiz-adv-x="1302" 
d="M651 -14q-259 0 -426.5 199t-167.5 528q0 167 45 305.5t124.5 232.5t188.5 145.5t236 51.5t236 -51.5t188.5 -145.5t124.5 -232.5t45 -305.5q0 -329 -167.5 -528t-426.5 -199zM426 713q0 -55 2 -80l395 393q-60 125 -172 125q-102 0 -163.5 -109.5t-61.5 -328.5zM483 399
q59 -116 168 -116q102 0 164 107.5t62 322.5q0 41 -3 78z" />
    <glyph glyph-name="zero.slash" horiz-adv-x="1302" 
d="M651 -14q-259 0 -426.5 199t-167.5 528q0 167 45 305.5t124.5 232.5t188.5 145.5t236 51.5t236 -51.5t188.5 -145.5t124.5 -232.5t45 -305.5q0 -329 -167.5 -528t-426.5 -199zM426 713q0 -55 2 -80l395 393q-60 125 -172 125q-102 0 -163.5 -109.5t-61.5 -328.5zM483 399
q59 -116 168 -116q102 0 164 107.5t62 322.5q0 41 -3 78z" />
    <glyph glyph-name="zero.tf" horiz-adv-x="1228" 
d="M614 -14q-259 0 -426.5 199t-167.5 528q0 167 45 305.5t124.5 232.5t188.5 145.5t236 51.5t236 -51.5t188.5 -145.5t124.5 -232.5t45 -305.5q0 -329 -167.5 -528t-426.5 -199zM389 713q0 -215 61.5 -322.5t163.5 -107.5t164 107.5t62 322.5q0 219 -62 328.5t-164 109.5
t-163.5 -109.5t-61.5 -328.5z" />
    <glyph glyph-name="one.tf" horiz-adv-x="1228" 
d="M121 0v297h328v831q-36 -98 -114.5 -139t-213.5 -41v297q87 0 140.5 4.5t93.5 15.5t59 33.5t27 54t8 81.5h358v-1137h328v-297h-1014z" />
    <glyph glyph-name="two.tf" horiz-adv-x="1228" 
d="M53 41q0 113 24.5 207t66.5 159t96.5 118t114.5 90.5t119.5 70t114 62.5t96.5 62.5t66.5 76t24.5 96.5q0 83 -41.5 125.5t-113.5 42.5q-87 0 -147 -58t-75 -157l-338 76q48 196 202 316t399 120q215 0 349 -114t134 -318q0 -94 -28 -170t-76.5 -128.5t-108 -95
t-127.5 -80t-130 -73.5t-120.5 -86t-93.5 -107h715l-41 -276h-1082v41z" />
    <glyph glyph-name="three.tf" horiz-adv-x="1228" 
d="M631 -14q-227 0 -394 103t-221 294l338 76q84 -176 287 -176q86 0 136 43t50 123q0 75 -56.5 118t-164.5 43h-157l40 267h138q161 0 161 139q0 62 -48 98.5t-124 36.5q-90 0 -140 -40t-73 -138l-329 71q18 120 98 212.5t202.5 142t266.5 49.5q234 0 372 -100t138 -275
q0 -116 -75 -192.5t-197 -104.5q147 -33 232 -123.5t85 -220.5q0 -203 -148 -324.5t-417 -121.5z" />
    <glyph glyph-name="four.tf" horiz-adv-x="1228" 
d="M27 592l616 842h387v-842h180l-41 -277h-139v-315h-358v315h-645v277zM360 592h312v444z" />
    <glyph glyph-name="five.tf" horiz-adv-x="1228" 
d="M612 -14q-210 0 -365.5 110t-203.5 287l338 76q34 -77 102 -126.5t140 -49.5q88 0 139 60.5t51 164.5q0 103 -53 163t-144 60q-66 0 -123 -48t-85 -101h-359l144 852h935l-20 -277h-600l-66 -366q113 196 351 196q180 0 284.5 -127t104.5 -344q0 -244 -153.5 -387
t-416.5 -143z" />
    <glyph glyph-name="six.tf" horiz-adv-x="1228" 
d="M635 -14q-89 0 -171 23t-158 76t-132 131.5t-89.5 196.5t-33.5 263q0 129 23.5 243.5t72.5 211.5t120 167.5t172 110t223 39.5q202 0 336.5 -103.5t179.5 -265.5l-344 -71q-38 75 -82.5 108t-114.5 33q-122 0 -187.5 -118.5t-78.5 -364.5q49 119 148.5 187.5t221.5 68.5
q188 0 315.5 -116t127.5 -312q0 -108 -37 -200.5t-105.5 -161t-173.5 -107.5t-233 -39zM420 473q0 -88 53 -139t145 -51q91 0 144 51t53 139q0 89 -53 141t-144 52q-92 0 -145 -52t-53 -141z" />
    <glyph glyph-name="seven.tf" horiz-adv-x="1228" 
d="M156 0l600 1157h-596l-41 277h989v-277l-600 -1157h-352z" />
    <glyph glyph-name="eight.tf" horiz-adv-x="1228" 
d="M614 -14q-273 0 -421 113t-148 313q0 122 85 206t232 115q-122 29 -197 110.5t-75 205.5q0 179 141.5 289t382.5 110t383 -110t142 -289q0 -124 -75.5 -205.5t-197.5 -110.5q148 -31 233 -115t85 -206q0 -200 -148.5 -313t-421.5 -113zM414 442q0 -76 53.5 -117.5
t146.5 -41.5t147 41.5t54 117.5q0 63 -55.5 105.5t-145.5 42.5t-145 -42.5t-55 -105.5zM453 1014q0 -65 43.5 -104.5t117.5 -39.5t118 39.5t44 104.5q0 61 -44 99t-118 38t-117.5 -38t-43.5 -99z" />
    <glyph glyph-name="nine.tf" horiz-adv-x="1228" 
d="M596 1448q89 0 171 -23t158 -76t132 -131.5t89.5 -196.5t33.5 -263q0 -129 -23.5 -243.5t-72.5 -211.5t-120 -167.5t-172 -110t-223 -39.5q-202 0 -336.5 103t-179.5 265l344 72q38 -75 82.5 -108t114.5 -33q122 0 187.5 118.5t78.5 364.5q-49 -119 -149 -187.5
t-222 -68.5q-188 0 -315 116t-127 312q0 108 37 200.5t105.5 161t173.5 107.5t233 39zM416 961q0 -89 52.5 -141t143.5 -52q92 0 145.5 52t53.5 141q0 88 -53.5 139t-145.5 51q-91 0 -143.5 -51t-52.5 -139z" />
    <glyph glyph-name="zero.tf.zero" horiz-adv-x="1228" 
d="M614 -14q-259 0 -426.5 199t-167.5 528q0 167 45 305.5t124.5 232.5t188.5 145.5t236 51.5t236 -51.5t188.5 -145.5t124.5 -232.5t45 -305.5q0 -329 -167.5 -528t-426.5 -199zM389 713q0 -55 2 -80l395 393q-60 125 -172 125q-102 0 -163.5 -109.5t-61.5 -328.5zM446 399
q59 -116 168 -116q102 0 164 107.5t62 322.5q0 53 -2 78z" />
    <glyph glyph-name="zero.dnom" horiz-adv-x="786" 
d="M393 -12q-158 0 -250 113.5t-92 308.5q0 197 92 311.5t250 114.5t250 -114.5t92 -311.5q0 -195 -92 -308.5t-250 -113.5zM307 410q0 -127 19.5 -177.5t66.5 -50.5q49 0 67.5 49.5t18.5 178.5q0 131 -18.5 181t-67.5 50q-48 0 -67 -50.5t-19 -180.5z" />
    <glyph glyph-name="one.dnom" horiz-adv-x="593" 
d="M31 655q92 0 148.5 44t56.5 128h245v-827h-245v578q-25 -78 -74 -113t-131 -35v225z" />
    <glyph glyph-name="two.dnom" horiz-adv-x="694" 
d="M31 41q2 79 24.5 141t56 100.5t73.5 68.5t79.5 52.5t72 44.5t53 53t20.5 70q0 31 -17.5 50.5t-46.5 19.5q-40 0 -62 -27.5t-38 -78.5l-217 49q35 128 126.5 190t215.5 62q119 0 201.5 -66t82.5 -172q0 -62 -24 -110t-65 -81.5t-84 -61.5t-91.5 -64.5t-77.5 -75.5h353
l-21 -205h-614v41z" />
    <glyph glyph-name="three.dnom" horiz-adv-x="768" 
d="M401 -8q-144 0 -243.5 64.5t-130.5 170.5l211 43q53 -94 139 -94q41 0 67.5 21.5t26.5 60.5q0 40 -26.5 65t-77.5 25h-97l33 164h55q97 0 97 72q0 28 -25 47.5t-70 19.5q-53 0 -78.5 -24.5t-35.5 -71.5l-203 43q19 110 105.5 174t226.5 64q79 0 151 -24.5t123 -78
t51 -125.5q0 -66 -43 -118t-135 -66q90 -19 141.5 -71t51.5 -126q0 -72 -45 -126.5t-115.5 -81.5t-153.5 -27z" />
    <glyph glyph-name="four.dnom" horiz-adv-x="800" 
d="M20 338l355 489h268v-489h137l-20 -174h-117v-164h-246v164h-377v174zM233 338h164v227z" />
    <glyph glyph-name="five.dnom" horiz-adv-x="753" 
d="M391 -8q-143 0 -244 66t-124 171l235 47q17 -43 40.5 -66.5t63.5 -23.5q43 0 68 30.5t25 82.5t-26.5 83.5t-70.5 31.5q-35 0 -59 -23t-37 -55h-194l90 491h489l-20 -204h-310l-30 -154q65 88 182 88q103 0 173.5 -75.5t70.5 -190.5q0 -141 -90.5 -220t-231.5 -79z" />
    <glyph glyph-name="six.dnom" horiz-adv-x="716" 
d="M369 -8q-159 0 -254 101t-95 280q0 207 108.5 335t285.5 128q101 0 173.5 -55t92.5 -130l-213 -45q-14 23 -30 34t-46 11q-56 0 -104 -62t-60 -206q15 61 54.5 99t77.5 49.5t79 11.5q99 0 165.5 -74t66.5 -186q0 -137 -84 -214t-217 -77zM246 279q0 -47 24 -75t64 -28
q41 0 65.5 28t24.5 75q0 46 -23 73t-63 27q-43 0 -67.5 -27t-24.5 -73z" />
    <glyph glyph-name="seven.dnom" horiz-adv-x="681" 
d="M61 0l351 623h-351l-20 204h621v-204l-349 -623h-252z" />
    <glyph glyph-name="eight.dnom" horiz-adv-x="782" 
d="M391 -8q-157 0 -253.5 61t-96.5 162q0 81 58.5 132t164.5 69q-93 22 -140.5 75.5t-47.5 120.5q0 97 85 160.5t230 63.5t230.5 -63.5t85.5 -160.5q0 -65 -48.5 -119t-132.5 -77q99 -15 157 -67.5t58 -133.5q0 -101 -96.5 -162t-253.5 -61zM297 256q0 -36 28 -58t66 -22
t66 22t28 58q0 33 -28 53.5t-66 20.5t-66 -20.5t-28 -53.5zM301 588q0 -64 90 -64t90 64q0 63 -90 63q-36 0 -63 -18.5t-27 -44.5z" />
    <glyph glyph-name="nine.dnom" horiz-adv-x="720" 
d="M369 836q147 0 239 -105.5t92 -296.5q0 -199 -89 -320.5t-257 -121.5q-116 0 -202.5 59t-116.5 166l213 45q42 -86 110 -86q51 0 79.5 40t37.5 134q-50 -65 -162 -65q-106 0 -184 75t-78 185q0 136 91.5 213.5t226.5 77.5zM297 549q0 -46 24.5 -73t67.5 -27q40 0 63 27
t23 73q0 47 -23 74.5t-63 27.5q-43 0 -67.5 -27.5t-24.5 -74.5z" />
    <glyph glyph-name="zero.numr" horiz-adv-x="786" 
d="M393 594q-158 0 -250 113.5t-92 308.5q0 197 92 311.5t250 114.5t250 -114.5t92 -311.5q0 -195 -92 -308.5t-250 -113.5zM307 1016q0 -127 19.5 -177.5t66.5 -50.5q49 0 67.5 49.5t18.5 178.5q0 131 -18.5 181t-67.5 50q-48 0 -67 -50.5t-19 -180.5z" />
    <glyph glyph-name="one.numr" horiz-adv-x="593" 
d="M31 1262q92 0 148.5 44t56.5 128h245v-828h-245v578q-25 -78 -74 -113t-131 -35v226z" />
    <glyph glyph-name="two.numr" horiz-adv-x="694" 
d="M31 647q2 79 24.5 141t56 100.5t73.5 69t79.5 53t72 44.5t53 53t20.5 70q0 31 -17.5 50t-46.5 19q-40 0 -62 -27.5t-38 -78.5l-217 49q35 128 126.5 190t215.5 62q119 0 201.5 -66t82.5 -172q0 -62 -24 -110t-65 -81.5t-84 -61.5t-91.5 -64.5t-77.5 -75.5h353l-21 -205
h-614v41z" />
    <glyph glyph-name="three.numr" horiz-adv-x="768" 
d="M401 598q-143 0 -243 65t-131 171l211 43q53 -95 139 -95q41 0 67.5 21.5t26.5 60.5q0 40 -26.5 65t-77.5 25h-97l33 164h55q97 0 97 72q0 28 -25 47.5t-70 19.5q-53 0 -78.5 -24.5t-35.5 -71.5l-203 43q19 110 105.5 174t226.5 64q79 0 151 -24.5t123 -78t51 -125.5
q0 -66 -43 -118t-135 -66q90 -19 141.5 -70.5t51.5 -125.5q0 -108 -93 -172t-221 -64z" />
    <glyph glyph-name="four.numr" horiz-adv-x="800" 
d="M20 944l355 490h268v-490h137l-20 -174h-117v-164h-246v164h-377v174zM233 944h164v227z" />
    <glyph glyph-name="five.numr" horiz-adv-x="753" 
d="M391 598q-143 0 -243.5 66.5t-124.5 171.5l235 47q17 -43 40.5 -66.5t63.5 -23.5q43 0 68 30t25 82t-26.5 83.5t-70.5 31.5q-35 0 -59 -23t-37 -55h-194l90 492h489l-20 -205h-310l-30 -154q65 88 182 88q103 0 173.5 -75.5t70.5 -190.5q0 -141 -90.5 -220t-231.5 -79z
" />
    <glyph glyph-name="six.numr" horiz-adv-x="716" 
d="M369 598q-159 0 -254 101t-95 280q0 207 108.5 335t285.5 128q101 0 173.5 -55t92.5 -130l-213 -45q-14 23 -30 34t-46 11q-56 0 -104 -62t-60 -206q15 61 54.5 99t77.5 49.5t79 11.5q99 0 165.5 -74t66.5 -186q0 -137 -84 -214t-217 -77zM246 885q0 -47 24 -75t64 -28
q41 0 65.5 28t24.5 75q0 46 -23 73t-63 27q-43 0 -67.5 -27t-24.5 -73z" />
    <glyph glyph-name="seven.numr" horiz-adv-x="681" 
d="M61 606l351 623h-351l-20 205h621v-205l-349 -623h-252z" />
    <glyph glyph-name="eight.numr" horiz-adv-x="782" 
d="M391 598q-157 0 -253.5 61t-96.5 162q0 81 58.5 132t164.5 69q-92 22 -140 76t-48 121q0 97 85 160t230 63t230.5 -63t85.5 -160q0 -65 -48.5 -119.5t-132.5 -77.5q99 -15 157 -67.5t58 -133.5q0 -101 -96.5 -162t-253.5 -61zM297 862q0 -36 28 -58t66 -22t66 22t28 58
q0 33 -28 53.5t-66 20.5t-66 -20.5t-28 -53.5zM301 1194q0 -64 90 -64t90 64q0 63 -90 63q-36 0 -63 -18.5t-27 -44.5z" />
    <glyph glyph-name="nine.numr" horiz-adv-x="720" 
d="M369 1442q147 0 239 -105.5t92 -296.5q0 -199 -89 -320.5t-257 -121.5q-116 0 -202.5 59t-116.5 166l213 45q42 -86 110 -86q51 0 79.5 40t37.5 134q-50 -65 -162 -65q-106 0 -184 75t-78 185q0 136 91.5 213.5t226.5 77.5zM297 1155q0 -46 24.5 -73t67.5 -27q40 0 63 27
t23 73q0 47 -23 74.5t-63 27.5q-43 0 -67.5 -27.5t-24.5 -74.5z" />
    <glyph glyph-name="space.frac" horiz-adv-x="1228" 
 />
    <glyph glyph-name="uni2007.tf" horiz-adv-x="1228" 
 />
    <glyph glyph-name="periodcentered.case" horiz-adv-x="460" 
d="M82 559v313h297v-313h-297z" />
    <glyph glyph-name="bullet.case" horiz-adv-x="593" 
d="M82 494v430h430v-430h-430z" />
    <glyph glyph-name="period.ss02" horiz-adv-x="471" 
d="M236 -14q-80 0 -127.5 47.5t-47.5 126.5t47.5 126.5t127.5 47.5t127 -47t47 -127t-47 -127t-127 -47z" />
    <glyph glyph-name="comma.ss02" horiz-adv-x="479" 
d="M70 -131q147 0 182 117q-85 5 -138 51t-53 127q0 75 48 121.5t127 46.5q81 0 131.5 -55t50.5 -181q0 -178 -102.5 -291.5t-245.5 -113.5v178z" />
    <glyph glyph-name="colon.ss02" horiz-adv-x="471" 
d="M236 602q-80 0 -127.5 47.5t-47.5 126.5t47.5 126.5t127.5 47.5t127 -47t47 -127t-47 -127t-127 -47zM61 158q0 79 47.5 126.5t127.5 47.5t127 -47t47 -127t-47 -127t-127 -47t-127.5 47.5t-47.5 126.5z" />
    <glyph glyph-name="semicolon.ss02" horiz-adv-x="479" 
d="M236 602q-80 0 -127.5 47.5t-47.5 126.5t47.5 126.5t127.5 47.5t127 -47t47 -127t-47 -127t-127 -47zM61 164q0 75 48 121.5t127 46.5q81 0 131.5 -55t50.5 -181q0 -178 -102.5 -291.5t-245.5 -113.5v178q147 0 182 117q-85 5 -138 51t-53 127z" />
    <glyph glyph-name="ellipsis.ss02" horiz-adv-x="1331" 
d="M236 -14q-80 0 -127.5 47.5t-47.5 126.5t47.5 126.5t127.5 47.5t127 -47t47 -127t-47 -127t-127 -47zM492 160q0 80 47 127t127 47t127 -47t47 -127t-47 -127t-127 -47t-127 47t-47 127zM922 160q0 80 47 127t127 47t127 -47t47 -127t-47 -127t-127 -47t-127 47t-47 127z
" />
    <glyph glyph-name="exclam.ss02" horiz-adv-x="481" 
d="M147 420l-55 360v654h297v-654l-55 -360h-187zM68 160q0 80 47 127t127 47t127 -47t47 -127t-47 -127t-127 -47t-127 47t-47 127z" />
    <glyph glyph-name="exclamdown.ss02" horiz-adv-x="481" 
d="M334 625l55 -361v-653h-297v653l55 361h187zM66 885q0 79 47 126.5t127 47.5t127 -47.5t47 -126.5t-47 -126.5t-127 -47.5t-127 47.5t-47 126.5z" />
    <glyph glyph-name="question.ss02" horiz-adv-x="1087" 
d="M344 457q0 97 20.5 170t53 114.5t71.5 72t78.5 50.5t72 40.5t53 52t20.5 75.5q0 54 -39 86.5t-115 32.5q-81 0 -130 -42t-79 -130l-332 70q22 81 68.5 151t115 126.5t166.5 89t212 32.5t207.5 -32t152 -84t90 -116.5t31.5 -132.5q0 -63 -14.5 -113.5t-38.5 -84.5
t-55.5 -61.5t-66.5 -49t-70 -42.5t-66.5 -46t-55.5 -55t-38.5 -74t-14.5 -100v-35h-297v35zM322 160q0 80 47 127t127 47t127 -47t47 -127t-47 -127t-127 -47t-127 47t-47 127z" />
    <glyph glyph-name="questiondown.ss02" horiz-adv-x="1087" 
d="M743 588q0 -97 -20.5 -170t-53 -115t-71.5 -72t-78 -50.5t-71.5 -41t-53 -52t-20.5 -75.5q0 -54 38.5 -86t114.5 -32q81 0 130 42t79 130l332 -70q-22 -81 -68 -151t-115 -126.5t-166.5 -89t-211.5 -32.5t-207.5 31.5t-152 84t-90 116.5t-31.5 132q0 80 23 140t60 96
t81.5 65.5t89.5 57t82 60t60 85.5t23 123v35h297v-35zM418 885q0 79 47 126.5t127 47.5t127 -47.5t47 -126.5t-47 -126.5t-127 -47.5t-127 47.5t-47 126.5z" />
    <glyph glyph-name="periodcentered.ss02" horiz-adv-x="471" 
d="M236 397q-80 0 -127.5 47.5t-47.5 126.5t47.5 126.5t127.5 47.5t127 -47.5t47 -126.5t-47 -126.5t-127 -47.5z" />
    <glyph glyph-name="bullet.ss02" horiz-adv-x="591" 
d="M295 330q-107 0 -170.5 63t-63.5 170q0 109 63.5 172.5t170.5 63.5t171 -63.5t64 -172.5q0 -107 -64 -170t-171 -63z" />
    <glyph glyph-name="periodcentered.case.ss02" horiz-adv-x="471" 
d="M236 541q-80 0 -127.5 47.5t-47.5 126.5t47.5 126.5t127.5 47.5t127 -47.5t47 -126.5t-47 -126.5t-127 -47.5z" />
    <glyph glyph-name="bullet.case.ss02" horiz-adv-x="591" 
d="M295 473q-107 0 -170.5 63.5t-63.5 170.5q0 109 63.5 172t170.5 63q108 0 171.5 -63.5t63.5 -171.5q0 -107 -64 -170.5t-171 -63.5z" />
    <glyph glyph-name="hyphen.case" horiz-adv-x="897" 
d="M123 805h651v-266h-651v266z" />
    <glyph glyph-name="uni00AD.case" horiz-adv-x="897" 
d="M123 805h651v-266h-651v266z" />
    <glyph glyph-name="endash.case" horiz-adv-x="1351" 
d="M123 805h1106v-266h-1106v266z" />
    <glyph glyph-name="emdash.case" horiz-adv-x="1871" 
d="M123 805h1626v-266h-1626v266z" />
    <glyph glyph-name="parenleft.case" horiz-adv-x="651" 
d="M346 -92l-5 5q-162 192 -236 455q-48 172 -48 355q0 141 27 272t61.5 215t81.5 159.5t71.5 104.5t47.5 52h270q-14 -16 -32 -42.5t-52 -98t-60 -155.5t-46 -219.5t-20 -287.5t20 -288.5t45.5 -221.5t60 -158t52.5 -100.5t34 -46.5h-272z" />
    <glyph glyph-name="parenright.case" horiz-adv-x="651" 
d="M305 1526l5 -5q162 -192 236 -455q48 -172 48 -355q0 -141 -27 -272t-61.5 -215t-81.5 -159.5t-71.5 -104.5t-47.5 -52h-270q14 17 32 43t52.5 97.5t60.5 155.5t46 219.5t20 287.5t-20 288.5t-46 221.5t-60.5 158t-52.5 100.5t-34 46.5h272z" />
    <glyph glyph-name="braceleft.case" horiz-adv-x="712" 
d="M39 858q94 0 130 21t36 75v310q0 58 9 99t32.5 71t55 48t85.5 28.5t115 14t151 3.5v-246q-57 0 -78.5 -22.5t-21.5 -94.5v-272q0 -48 -18 -78t-72.5 -53.5t-153.5 -36.5q99 -14 153.5 -37.5t72.5 -54t18 -78.5v-283q0 -72 21.5 -94t78.5 -22v-246q-90 0 -151 3.5t-115 14
t-85.5 28.5t-55 48t-32.5 71t-9 99v320q0 54 -36 75t-130 21v268z" />
    <glyph glyph-name="braceright.case" horiz-adv-x="712" 
d="M674 578q-93 0 -129.5 -21.5t-36.5 -75.5v-309q0 -58 -9 -99t-32.5 -71t-55.5 -48t-86 -28.5t-115 -14t-151 -3.5v246q57 0 79 22t22 94v273q0 73 49.5 111t193.5 57q-99 14 -153 37.5t-72 54t-18 78.5v282q0 72 -22 94.5t-79 22.5v246q90 0 151 -3.5t115 -14t86 -28.5
t55.5 -48t32.5 -71t9 -99v-320q0 -54 36 -75t130 -21v-268z" />
    <glyph glyph-name="bracketleft.case" horiz-adv-x="765" 
d="M117 1526h590v-266h-242v-1086h242v-266h-590v1618z" />
    <glyph glyph-name="bracketright.case" horiz-adv-x="765" 
d="M649 -92h-590v266h242v1086h-242v266h590v-1618z" />
    <glyph glyph-name="guillemotleft.case" horiz-adv-x="1093" 
d="M537 1157v-326l-226 -153l226 -152v-325l-496 397v162zM516 598v162l496 397v-326l-226 -153l226 -152v-325z" />
    <glyph glyph-name="guillemotright.case" horiz-adv-x="1093" 
d="M557 203v325l225 154l-225 152v325l496 -397v-162zM82 203v325l225 154l-225 152v325l496 -397v-162z" />
    <glyph glyph-name="guilsinglleft.case" horiz-adv-x="618" 
d="M537 1161v-325l-226 -154l226 -152v-325l-496 397v162z" />
    <glyph glyph-name="guilsinglright.case" horiz-adv-x="618" 
d="M82 205v325l225 154l-225 152v325l496 -397v-162z" />
    <glyph glyph-name="quotesinglbase.ss02" horiz-adv-x="507" 
d="M90 -174q137 27 164 158q-85 5 -139 50.5t-54 121.5q0 78 53 127t134 49q87 0 142.5 -62t55.5 -194q0 -171 -105 -292t-251 -136v178z" />
    <glyph glyph-name="quotedblbase.ss02" horiz-adv-x="929" 
d="M512 -174q137 27 164 158q-85 5 -139 50.5t-54 121.5q0 78 53 127t134 49q87 0 142.5 -62t55.5 -194q0 -171 -105 -292t-251 -136v178zM61 156q0 78 53 127t134 49q87 0 142.5 -62t55.5 -194q0 -171 -105 -292t-251 -136v178q137 27 164 158q-85 5 -139 50.5t-54 121.5z
" />
    <glyph glyph-name="quotedblleft.ss02" horiz-adv-x="948" 
d="M418 1274q-137 -27 -164 -158q84 -5 138 -50.5t54 -121.5q0 -79 -52.5 -127.5t-133.5 -48.5q-87 0 -143 62t-56 194q0 170 105 291.5t252 136.5v-178zM502 1024q0 171 105 292t251 136v-178q-137 -27 -164 -158q85 -5 139 -50.5t54 -121.5q0 -78 -53 -127t-134 -49
q-87 0 -142.5 62t-55.5 194z" />
    <glyph glyph-name="quotedblright.ss02" horiz-adv-x="948" 
d="M530 940q137 27 164 158q-84 5 -138 50.5t-54 121.5q0 79 52.5 127.5t133.5 48.5q87 0 143 -62t56 -194q0 -170 -105 -291.5t-252 -136.5v178zM61 1270q0 78 53 127t134 49q87 0 142.5 -62t55.5 -194q0 -171 -105 -292t-251 -136v178q137 27 164 158q-85 5 -139 50.5
t-54 121.5z" />
    <glyph glyph-name="quoteleft.ss02" horiz-adv-x="507" 
d="M418 1270q-137 -27 -164 -158q84 -5 138 -50.5t54 -121.5q0 -79 -52.5 -127.5t-133.5 -48.5q-87 0 -143 62t-56 194q0 170 105 291.5t252 136.5v-178z" />
    <glyph glyph-name="quoteright.ss02" horiz-adv-x="507" 
d="M90 942q137 27 164 158q-85 5 -139 50.5t-54 121.5q0 78 53 127t134 49q87 0 142.5 -62t55.5 -194q0 -171 -105 -292t-251 -136v178z" />
    <glyph glyph-name="divide.ss02" horiz-adv-x="1112" 
d="M82 492v266h948v-266h-948zM397 219q0 71 44.5 115.5t115.5 44.5q69 0 113.5 -44.5t44.5 -113.5q0 -70 -44.5 -115t-113.5 -45q-70 0 -115 44.5t-45 113.5zM397 1030q0 69 45 113.5t115 44.5q69 0 113.5 -44.5t44.5 -113.5q0 -70 -44.5 -115t-115.5 -45q-69 0 -113.5 45
t-44.5 115z" />
    <glyph glyph-name="uni2B11.002" horiz-adv-x="1284" 
d="M616 1047l560 -519l-168 -170l-269 254v-385h465v-225h-710v610l-269 -254l-168 170z" />
    <glyph glyph-name="uni0306.cy" 
d="M354 1122q-140 0 -237 88.5t-97 223.5h230q0 -51 29 -83t75 -32t75.5 32t29.5 83h229q0 -135 -97 -223.5t-237 -88.5z" />
    <glyph glyph-name="uni030C.alt" 
d="M102 1044l62 390h268l-145 -390h-185z" />
    <glyph glyph-name="uni0308.ss02" 
d="M201 1161q-73 0 -123.5 50.5t-50.5 123.5t50.5 123.5t123.5 50.5t123.5 -50.5t50.5 -123.5t-50.5 -123.5t-123.5 -50.5zM457 1335q0 73 50.5 123.5t123.5 50.5t123.5 -50.5t50.5 -123.5t-50.5 -123.5t-123.5 -50.5t-123.5 50.5t-50.5 123.5z" />
    <glyph glyph-name="uni0307.ss02" 
d="M174 1165q-78 0 -131 53.5t-53 131.5t53 131t131 53t131 -53t53 -131t-53 -131.5t-131 -53.5z" />
    <glyph glyph-name="uni0312.ss02" 
d="M328 1501q-65 0 -100.5 -13.5t-49.5 -53.5q69 -8 117.5 -43t48.5 -93q0 -56 -36.5 -96.5t-104.5 -40.5q-74 0 -118 59t-44 146q0 47 14.5 92t46 87t90 67.5t136.5 25.5v-137z" />
    <glyph glyph-name="uni0326.ss02" 
d="M57 -410q64 0 100 14t50 54q-70 8 -118 42.5t-48 92.5q0 56 36.5 96.5t104.5 40.5q74 0 118 -59t44 -145q0 -37 -8.5 -73.5t-29.5 -73t-53 -64t-82.5 -45t-113.5 -17.5v137z" />
    <glyph glyph-name="caron.alt" horiz-adv-x="473" 
d="M82 1044l61 390h289l-145 -390h-205z" />
    <glyph glyph-name="dieresis-cy" horiz-adv-x="737" 
d="M74 1163v271h229v-271h-229zM381 1163v271h229v-271h-229z" />
    </font>
</defs>
</svg>
